<?xml version="1.0" encoding="utf-8"?>
<!-- Generator: Adobe Illustrator 28.0.0, SVG Export Plug-In . SVG Version: 6.00 Build 0)  -->
<svg version="1.1" id="Layer_1" xmlns="http://www.w3.org/2000/svg" xmlns:xlink="http://www.w3.org/1999/xlink" x="0px" y="0px"
	 viewBox="0 0 876 205" style="enable-background:new 0 0 876 205;" xml:space="preserve">
<g>
	<path d="M47.6,88.9l0.1,0.2c0.1,4.1-1.3,7.4-4,10c-2.7,2.5-6.5,3.8-11.1,3.8c-4.7,0-8.6-1.6-11.5-4.8c-3-3.2-4.4-7.3-4.4-12.3V78
		c0-5,1.5-9.1,4.4-12.3s6.7-4.8,11.4-4.8c4.8,0,8.6,1.2,11.3,3.7c2.8,2.4,4.1,5.8,4,10.1l-0.1,0.2h-6.6c0-2.7-0.7-4.8-2.2-6.3
		s-3.6-2.2-6.5-2.2c-2.8,0-5,1.1-6.6,3.3s-2.4,5-2.4,8.3v7.8c0,3.4,0.8,6.2,2.5,8.4c1.6,2.2,3.9,3.3,6.7,3.3c2.8,0,4.9-0.7,6.3-2.2
		c1.4-1.5,2.2-3.6,2.2-6.3H47.6z"/>
	<path d="M77,83.9H61v12.9h18.8v5.4H54.2V61.5h25.4v5.5H61v11.5h16V83.9z"/>
</g>
<g>
	<path d="M157.7,80.1h-24.1v-5.7h24.1V80.1z M157.7,92h-24.1v-5.6h24.1V92z"/>
</g>
<g>
	<path d="M94.1,134.3H81.4V132l6.2-7.1c1-1.2,1.7-2.2,2.1-2.9c0.4-0.8,0.6-1.5,0.6-2.2c0-0.8-0.2-1.5-0.7-2.1
		c-0.5-0.5-1.1-0.8-2-0.8c-1,0-1.8,0.3-2.4,1s-0.8,1.5-0.8,2.5h-3.2l0-0.1c0-1.7,0.5-3.1,1.7-4.3c1.2-1.2,2.7-1.8,4.7-1.8
		c1.9,0,3.4,0.5,4.4,1.5c1.1,1,1.6,2.3,1.6,4c0,1.1-0.3,2.2-0.9,3.1c-0.6,1-1.6,2.3-2.9,3.9l-4.2,4.8l0,0.1h8.6V134.3z"/>
	<path d="M105.5,127.2h-8v-2.7h8V127.2z"/>
	<path d="M117.9,134.3h-3.3v-16.7h-4.2v-2.6l7.5-0.7V134.3z"/>
</g>
<g>
	<g>
		<path d="M383.4,51.9l0.1,0.2c0.1,4.1-1.3,7.4-4,10c-2.7,2.5-6.5,3.8-11.1,3.8c-4.7,0-8.6-1.6-11.5-4.8c-3-3.2-4.4-7.3-4.4-12.3V41
			c0-5,1.5-9.1,4.4-12.3s6.7-4.8,11.4-4.8c4.8,0,8.6,1.2,11.3,3.7c2.8,2.4,4.1,5.8,4,10.1l-0.1,0.2h-6.6c0-2.7-0.7-4.8-2.2-6.3
			s-3.6-2.2-6.5-2.2c-2.8,0-5,1.1-6.6,3.3s-2.4,5-2.4,8.3v7.8c0,3.4,0.8,6.2,2.5,8.4c1.6,2.2,3.9,3.3,6.7,3.3c2.8,0,4.9-0.7,6.3-2.2
			c1.4-1.5,2.2-3.6,2.2-6.3H383.4z"/>
		<path d="M408.2,60.8c-0.9,1.6-2.1,2.9-3.6,3.8c-1.5,0.9-3.2,1.3-5.1,1.3c-3.2,0-5.8-1.1-7.6-3.2c-1.8-2.1-2.7-5.5-2.7-10V35h6.8
			v17.8c0,2.9,0.4,4.9,1.3,6c0.8,1.1,2.1,1.6,3.9,1.6c1.6,0,3-0.3,4.1-0.9c1.1-0.6,2-1.4,2.6-2.6V35h6.8v30.3h-5.9L408.2,60.8z"/>
		<path d="M438.8,57c0-1-0.4-1.9-1.3-2.6c-0.9-0.7-2.6-1.3-5-1.8c-3.6-0.7-6.3-1.8-8.2-3.2c-1.9-1.4-2.8-3.3-2.8-5.7
			c0-2.5,1.1-4.7,3.2-6.5c2.1-1.8,5-2.7,8.5-2.7c3.6,0,6.5,0.9,8.8,2.8c2.2,1.9,3.3,4.1,3.2,6.7l-0.1,0.2h-6.5
			c0-1.2-0.5-2.3-1.5-3.2c-1-0.9-2.3-1.4-3.9-1.4c-1.6,0-2.9,0.4-3.8,1.1c-0.9,0.7-1.3,1.7-1.3,2.7c0,1,0.4,1.8,1.2,2.5
			c0.8,0.6,2.5,1.2,5,1.7c3.7,0.7,6.5,1.8,8.4,3.3c1.9,1.4,2.8,3.4,2.8,5.8c0,2.7-1.1,5-3.4,6.7c-2.3,1.7-5.2,2.6-8.9,2.6
			c-3.9,0-7.1-1-9.3-3s-3.4-4.3-3.2-6.9l0.1-0.2h6.3c0.1,1.8,0.7,3,1.9,3.8c1.2,0.8,2.7,1.2,4.4,1.2c1.7,0,3.1-0.3,4-1
			C438.4,59,438.8,58.1,438.8,57z"/>
		<path d="M460.4,27.6V35h5.4v5h-5.4v16.8c0,1.3,0.3,2.1,0.8,2.7c0.5,0.5,1.3,0.8,2.2,0.8c0.4,0,0.7,0,1.1-0.1
			c0.4-0.1,0.7-0.2,1-0.3l0.7,5c-0.6,0.3-1.3,0.6-2.1,0.7c-0.8,0.2-1.6,0.3-2.5,0.3c-2.5,0-4.5-0.7-5.9-2.2
			c-1.4-1.5-2.1-3.8-2.1-6.9V40H449v-5h4.6v-7.4H460.4z"/>
		<path d="M470,49.8c0-4.5,1.2-8.2,3.7-11.1c2.5-2.9,5.9-4.3,10.2-4.3c4.4,0,7.8,1.4,10.2,4.3c2.5,2.9,3.7,6.6,3.7,11.1v0.6
			c0,4.6-1.2,8.3-3.7,11.1c-2.5,2.9-5.9,4.3-10.2,4.3c-4.3,0-7.7-1.4-10.2-4.3S470,55,470,50.4V49.8z M476.8,50.4
			c0,3,0.6,5.4,1.7,7.2c1.2,1.8,3,2.8,5.4,2.8c2.4,0,4.1-0.9,5.3-2.8s1.8-4.3,1.8-7.2v-0.6c0-2.9-0.6-5.3-1.8-7.2s-3-2.8-5.4-2.8
			c-2.4,0-4.1,0.9-5.3,2.8c-1.2,1.9-1.8,4.3-1.8,7.2V50.4z"/>
		<path d="M535.4,50.7h-16.5v-5.5h16.5V50.7z"/>
		<path d="M588.3,51.9l0.1,0.2c0.1,4.1-1.3,7.4-4,10c-2.7,2.5-6.5,3.8-11.1,3.8c-4.7,0-8.6-1.6-11.5-4.8c-3-3.2-4.4-7.3-4.4-12.3V41
			c0-5,1.5-9.1,4.4-12.3s6.7-4.8,11.4-4.8c4.8,0,8.6,1.2,11.3,3.7s4.1,5.8,4,10.1l-0.1,0.2h-6.6c0-2.7-0.7-4.8-2.2-6.3
			c-1.5-1.4-3.6-2.2-6.5-2.2c-2.8,0-5,1.1-6.6,3.3s-2.4,5-2.4,8.3v7.8c0,3.4,0.8,6.2,2.5,8.4s3.9,3.3,6.7,3.3c2.8,0,4.9-0.7,6.3-2.2
			c1.4-1.5,2.2-3.6,2.2-6.3H588.3z"/>
		<path d="M613.2,60.8c-0.9,1.6-2.1,2.9-3.6,3.8s-3.2,1.3-5.1,1.3c-3.2,0-5.8-1.1-7.6-3.2c-1.8-2.1-2.7-5.5-2.7-10V35h6.8v17.8
			c0,2.9,0.4,4.9,1.3,6c0.8,1.1,2.1,1.6,3.9,1.6c1.6,0,3-0.3,4.1-0.9s2-1.4,2.6-2.6V35h6.8v30.3h-5.9L613.2,60.8z"/>
		<path d="M643.8,57c0-1-0.4-1.9-1.3-2.6s-2.6-1.3-5-1.8c-3.6-0.7-6.3-1.8-8.2-3.2c-1.9-1.4-2.8-3.3-2.8-5.7c0-2.5,1.1-4.7,3.2-6.5
			c2.1-1.8,5-2.7,8.5-2.7c3.6,0,6.5,0.9,8.8,2.8c2.2,1.9,3.3,4.1,3.2,6.7l-0.1,0.2h-6.5c0-1.2-0.5-2.3-1.5-3.2
			c-1-0.9-2.3-1.4-3.9-1.4c-1.6,0-2.9,0.4-3.8,1.1c-0.9,0.7-1.3,1.7-1.3,2.7c0,1,0.4,1.8,1.2,2.5c0.8,0.6,2.5,1.2,5,1.7
			c3.7,0.7,6.5,1.8,8.4,3.3c1.9,1.4,2.8,3.4,2.8,5.8c0,2.7-1.1,5-3.4,6.7c-2.3,1.7-5.2,2.6-8.9,2.6c-3.9,0-7.1-1-9.3-3
			s-3.4-4.3-3.2-6.9l0.1-0.2h6.3c0.1,1.8,0.7,3,1.9,3.8c1.2,0.8,2.7,1.2,4.4,1.2c1.7,0,3.1-0.3,4-1C643.3,59,643.8,58.1,643.8,57z"
			/>
		<path d="M665.3,27.6V35h5.4v5h-5.4v16.8c0,1.3,0.3,2.1,0.8,2.7c0.5,0.5,1.3,0.8,2.2,0.8c0.4,0,0.7,0,1.1-0.1s0.7-0.2,1-0.3l0.7,5
			c-0.6,0.3-1.3,0.6-2.1,0.7c-0.8,0.2-1.6,0.3-2.5,0.3c-2.5,0-4.5-0.7-5.9-2.2c-1.4-1.5-2.1-3.8-2.1-6.9V40h-4.6v-5h4.6v-7.4H665.3z
			"/>
		<path d="M675,49.8c0-4.5,1.2-8.2,3.7-11.1c2.5-2.9,5.9-4.3,10.2-4.3c4.4,0,7.8,1.4,10.2,4.3c2.5,2.9,3.7,6.6,3.7,11.1v0.6
			c0,4.6-1.2,8.3-3.7,11.1c-2.5,2.9-5.9,4.3-10.2,4.3c-4.3,0-7.7-1.4-10.2-4.3S675,55,675,50.4V49.8z M681.8,50.4
			c0,3,0.6,5.4,1.7,7.2c1.2,1.8,3,2.8,5.4,2.8c2.4,0,4.1-0.9,5.3-2.8c1.2-1.9,1.8-4.3,1.8-7.2v-0.6c0-2.9-0.6-5.3-1.8-7.2
			c-1.2-1.9-3-2.8-5.4-2.8c-2.4,0-4.1,0.9-5.3,2.8s-1.8,4.3-1.8,7.2V50.4z"/>
	</g>
	<g>
		<path d="M511.1,84.3h-12.8V82l6.2-7.1c1-1.2,1.7-2.2,2.1-2.9c0.4-0.8,0.6-1.5,0.6-2.2c0-0.8-0.2-1.5-0.7-2.1
			c-0.5-0.5-1.1-0.8-2-0.8c-1,0-1.8,0.3-2.4,1s-0.8,1.5-0.8,2.5h-3.2l0-0.1c0-1.7,0.5-3.1,1.7-4.3c1.2-1.2,2.7-1.8,4.7-1.8
			c1.9,0,3.4,0.5,4.4,1.5c1.1,1,1.6,2.3,1.6,4c0,1.1-0.3,2.2-0.9,3.1c-0.6,1-1.6,2.3-2.9,3.9l-4.2,4.8l0,0.1h8.6V84.3z"/>
	</g>
	<g>
		<path d="M712.7,84.3h-3.3V67.5h-4.2v-2.6l7.5-0.7V84.3z"/>
	</g>
</g>
<g>
	<g>
		<path d="M235.4,143.9h-16v12.9h18.8v5.4h-25.6v-40.8H238v5.5h-18.6v11.5h16V143.9z"/>
		<path d="M245.4,162.3V137h-4.6v-5h4.6v-3.5c0-3.3,0.9-5.9,2.7-7.7c1.8-1.8,4.4-2.7,7.7-2.7c0.7,0,1.3,0.1,2,0.2s1.4,0.2,2.3,0.4
			l-0.7,5.3c-0.4-0.1-0.8-0.1-1.2-0.2c-0.5-0.1-0.9-0.1-1.5-0.1c-1.5,0-2.6,0.4-3.3,1.3c-0.7,0.8-1.1,2-1.1,3.6v3.5h5.6v5h-5.6v25.3
			H245.4z"/>
		<path d="M274.8,162.9c-4.4,0-7.9-1.4-10.4-4.2c-2.5-2.8-3.7-6.4-3.7-10.9v-1.1c0-4.4,1.2-8.1,3.7-11c2.5-2.9,5.7-4.3,9.6-4.3
			c4.1,0,7.2,1.3,9.2,3.8c2.1,2.5,3.1,5.9,3.1,10.1v3.7h-18.7l-0.1,0.1c0.1,2.5,0.7,4.5,2,6.1c1.2,1.6,3.1,2.3,5.6,2.3
			c1.8,0,3.5-0.2,4.8-0.7s2.6-1.1,3.8-1.9l2.2,4.5c-1.2,1-2.7,1.9-4.6,2.5S277.3,162.9,274.8,162.9z M274,136.9
			c-1.8,0-3.2,0.6-4.3,1.9c-1.1,1.3-1.7,2.9-2,5l0.1,0.1h11.8v-0.5c0-1.9-0.5-3.5-1.4-4.7C277.4,137.5,276,136.9,274,136.9z"/>
		<path d="M300.7,124.6v7.4h5.4v5h-5.4v16.8c0,1.3,0.3,2.1,0.8,2.7c0.5,0.5,1.3,0.8,2.2,0.8c0.4,0,0.7,0,1.1-0.1
			c0.4-0.1,0.7-0.2,1-0.3l0.7,5c-0.6,0.3-1.3,0.6-2.1,0.7c-0.8,0.2-1.6,0.3-2.5,0.3c-2.5,0-4.5-0.7-5.9-2.2
			c-1.4-1.5-2.1-3.8-2.1-6.9V137h-4.6v-5h4.6v-7.4H300.7z"/>
		<path d="M318.8,124.5H312v-6h6.8V124.5z M318.8,162.3H312V132h6.8V162.3z"/>
		<path d="M337,152l0.5,2.5h0.2l0.5-2.5l6-20.1h7l-10.8,30.3h-5.9L323.8,132h7L337,152z"/>
		<path d="M362.8,124.5H356v-6h6.8V124.5z M362.8,162.3H356V132h6.8V162.3z"/>
		<path d="M369.1,147.5c0-4.8,1-8.7,3.1-11.7c2.1-3,5-4.4,8.7-4.4c1.6,0,3.1,0.3,4.4,1c1.3,0.7,2.4,1.6,3.4,2.8v-16.7h6.8v43.7h-5.5
			l-0.8-3.8c-1,1.4-2.1,2.5-3.5,3.3c-1.4,0.8-3,1.1-4.8,1.1c-3.7,0-6.6-1.4-8.7-4.1c-2.1-2.7-3.1-6.3-3.1-10.7V147.5z M375.9,148.1
			c0,2.8,0.5,5,1.6,6.7s2.8,2.5,5.1,2.5c1.4,0,2.7-0.3,3.7-0.9s1.8-1.5,2.5-2.6v-13.2c-0.6-1.1-1.5-2-2.5-2.6
			c-1-0.6-2.2-0.9-3.6-0.9c-2.3,0-4,1-5.1,2.9s-1.7,4.5-1.7,7.6V148.1z"/>
		<path d="M421.2,162.3c-0.2-0.8-0.4-1.5-0.6-2.2s-0.3-1.5-0.3-2.2c-0.9,1.4-2.1,2.6-3.7,3.6c-1.5,1-3.2,1.4-5.1,1.4
			c-3.2,0-5.6-0.8-7.3-2.4c-1.7-1.6-2.5-3.9-2.5-6.7c0-2.9,1.2-5.2,3.5-6.8c2.3-1.6,5.6-2.5,9.8-2.5h5.3v-2.7c0-1.6-0.5-2.8-1.4-3.7
			s-2.3-1.3-4-1.3c-1.6,0-2.8,0.4-3.7,1.1c-0.9,0.7-1.4,1.7-1.4,2.9l-6.6,0l0-0.2c-0.1-2.4,0.9-4.5,3.2-6.4s5.2-2.8,8.9-2.8
			c3.5,0,6.4,0.9,8.5,2.7c2.2,1.8,3.2,4.4,3.2,7.7v13.5c0,1.3,0.1,2.5,0.3,3.6s0.4,2.3,0.8,3.4H421.2z M412.8,157.4
			c1.7,0,3.2-0.4,4.6-1.3c1.4-0.9,2.3-1.8,2.7-2.9v-4.5h-5.4c-2,0-3.5,0.5-4.6,1.5c-1.1,1-1.7,2.1-1.7,3.5c0,1.2,0.4,2.1,1.1,2.8
			S411.4,157.4,412.8,157.4z"/>
		<path d="M432.8,147.5c0-4.8,1-8.7,3.1-11.7c2.1-3,5-4.4,8.7-4.4c1.6,0,3.1,0.3,4.4,1c1.3,0.7,2.4,1.6,3.4,2.8v-16.7h6.8v43.7h-5.5
			l-0.8-3.8c-1,1.4-2.1,2.5-3.5,3.3c-1.4,0.8-3,1.1-4.8,1.1c-3.7,0-6.6-1.4-8.7-4.1c-2.1-2.7-3.1-6.3-3.1-10.7V147.5z M439.7,148.1
			c0,2.8,0.5,5,1.6,6.7s2.8,2.5,5.1,2.5c1.4,0,2.7-0.3,3.7-0.9s1.8-1.5,2.5-2.6v-13.2c-0.6-1.1-1.5-2-2.5-2.6
			c-1-0.6-2.2-0.9-3.6-0.9c-2.3,0-4,1-5.1,2.9s-1.7,4.5-1.7,7.6V148.1z"/>
		<path d="M479.5,162.9c-4.4,0-7.9-1.4-10.4-4.2c-2.5-2.8-3.7-6.4-3.7-10.9v-1.1c0-4.4,1.2-8.1,3.7-11c2.5-2.9,5.7-4.3,9.6-4.3
			c4.1,0,7.2,1.3,9.2,3.8c2.1,2.5,3.1,5.9,3.1,10.1v3.7h-18.7l-0.1,0.1c0.1,2.5,0.7,4.5,2,6.1c1.2,1.6,3.1,2.3,5.6,2.3
			c1.8,0,3.5-0.2,4.8-0.7s2.6-1.1,3.8-1.9l2.2,4.5c-1.2,1-2.7,1.9-4.6,2.5S481.9,162.9,479.5,162.9z M478.7,136.9
			c-1.8,0-3.2,0.6-4.3,1.9c-1.1,1.3-1.7,2.9-2,5l0.1,0.1h11.8v-0.5c0-1.9-0.5-3.5-1.4-4.7C482.1,137.5,480.7,136.9,478.7,136.9z"/>
		<path d="M528.3,147.7h-16.5v-5.5h16.5V147.7z"/>
		<path d="M574.2,143.9h-16v12.9H577v5.4h-25.6v-40.8h25.4v5.5h-18.6v11.5h16V143.9z"/>
		<path d="M584.2,162.3V137h-4.6v-5h4.6v-3.5c0-3.3,0.9-5.9,2.7-7.7c1.8-1.8,4.4-2.7,7.7-2.7c0.7,0,1.3,0.1,2,0.2
			c0.7,0.1,1.4,0.2,2.3,0.4l-0.7,5.3c-0.4-0.1-0.8-0.1-1.2-0.2c-0.5-0.1-0.9-0.1-1.5-0.1c-1.5,0-2.6,0.4-3.3,1.3
			c-0.7,0.8-1.1,2-1.1,3.6v3.5h5.6v5H591v25.3H584.2z"/>
		<path d="M613.6,162.9c-4.4,0-7.9-1.4-10.4-4.2s-3.7-6.4-3.7-10.9v-1.1c0-4.4,1.2-8.1,3.7-11c2.5-2.9,5.7-4.3,9.7-4.3
			c4.1,0,7.2,1.3,9.2,3.8s3.1,5.9,3.1,10.1v3.7h-18.7l-0.1,0.1c0.1,2.5,0.7,4.5,2,6.1c1.2,1.6,3.1,2.3,5.6,2.3
			c1.8,0,3.5-0.2,4.8-0.7c1.4-0.4,2.6-1.1,3.8-1.9l2.2,4.5c-1.2,1-2.7,1.9-4.6,2.5C618.2,162.5,616,162.9,613.6,162.9z M612.8,136.9
			c-1.8,0-3.2,0.6-4.3,1.9c-1.1,1.3-1.7,2.9-2,5l0.1,0.1h11.8v-0.5c0-1.9-0.5-3.5-1.4-4.7C616.2,137.5,614.8,136.9,612.8,136.9z"/>
		<path d="M639.4,124.6v7.4h5.4v5h-5.4v16.8c0,1.3,0.3,2.1,0.8,2.7c0.5,0.5,1.3,0.8,2.2,0.8c0.4,0,0.7,0,1.1-0.1s0.7-0.2,1-0.3
			l0.7,5c-0.6,0.3-1.3,0.6-2.1,0.7c-0.8,0.2-1.6,0.3-2.5,0.3c-2.5,0-4.5-0.7-5.9-2.2c-1.4-1.5-2.1-3.8-2.1-6.9V137H628v-5h4.6v-7.4
			H639.4z"/>
		<path d="M657.6,124.5h-6.8v-6h6.8V124.5z M657.6,162.3h-6.8V132h6.8V162.3z"/>
		<path d="M675.8,152l0.5,2.5h0.2l0.5-2.5l6-20.1h7l-10.8,30.3h-5.9L662.5,132h7L675.8,152z"/>
		<path d="M701.6,124.5h-6.8v-6h6.8V124.5z M701.6,162.3h-6.8V132h6.8V162.3z"/>
		<path d="M707.9,147.5c0-4.8,1-8.7,3.1-11.7s5-4.4,8.7-4.4c1.6,0,3.1,0.3,4.4,1c1.3,0.7,2.4,1.6,3.4,2.8v-16.7h6.8v43.7h-5.5
			l-0.8-3.8c-1,1.4-2.1,2.5-3.5,3.3c-1.4,0.8-3,1.1-4.8,1.1c-3.7,0-6.6-1.4-8.7-4.1s-3.1-6.3-3.1-10.7V147.5z M714.7,148.1
			c0,2.8,0.5,5,1.6,6.7c1.1,1.7,2.8,2.5,5.1,2.5c1.4,0,2.7-0.3,3.7-0.9s1.8-1.5,2.5-2.6v-13.2c-0.6-1.1-1.5-2-2.5-2.6
			c-1-0.6-2.2-0.9-3.6-0.9c-2.3,0-4,1-5.1,2.9c-1.1,2-1.7,4.5-1.7,7.6V148.1z"/>
		<path d="M759.9,162.3c-0.2-0.8-0.4-1.5-0.6-2.2c-0.2-0.7-0.3-1.5-0.3-2.2c-0.9,1.4-2.1,2.6-3.7,3.6s-3.2,1.4-5.1,1.4
			c-3.2,0-5.6-0.8-7.3-2.4c-1.7-1.6-2.5-3.9-2.5-6.7c0-2.9,1.2-5.2,3.5-6.8c2.3-1.6,5.6-2.5,9.8-2.5h5.3v-2.7c0-1.6-0.5-2.8-1.4-3.7
			c-0.9-0.9-2.3-1.3-4-1.3c-1.5,0-2.8,0.4-3.7,1.1c-0.9,0.7-1.4,1.7-1.4,2.9l-6.6,0l0-0.2c-0.1-2.4,0.9-4.5,3.2-6.4
			c2.3-1.8,5.2-2.8,8.9-2.8c3.5,0,6.4,0.9,8.5,2.7s3.2,4.4,3.2,7.7v13.5c0,1.3,0.1,2.5,0.3,3.6s0.4,2.3,0.8,3.4H759.9z M751.6,157.4
			c1.7,0,3.2-0.4,4.6-1.3c1.4-0.9,2.3-1.8,2.7-2.9v-4.5h-5.4c-2,0-3.5,0.5-4.7,1.5c-1.1,1-1.7,2.1-1.7,3.5c0,1.2,0.4,2.1,1.1,2.8
			C749.1,157.1,750.2,157.4,751.6,157.4z"/>
		<path d="M771.6,147.5c0-4.8,1-8.7,3.1-11.7s5-4.4,8.7-4.4c1.6,0,3.1,0.3,4.4,1c1.3,0.7,2.4,1.6,3.4,2.8v-16.7h6.8v43.7h-5.5
			l-0.8-3.8c-1,1.4-2.1,2.5-3.5,3.3c-1.4,0.8-3,1.1-4.8,1.1c-3.7,0-6.6-1.4-8.7-4.1s-3.1-6.3-3.1-10.7V147.5z M778.4,148.1
			c0,2.8,0.5,5,1.6,6.7c1.1,1.7,2.8,2.5,5.1,2.5c1.4,0,2.7-0.3,3.7-0.9s1.8-1.5,2.5-2.6v-13.2c-0.6-1.1-1.5-2-2.5-2.6
			c-1-0.6-2.2-0.9-3.6-0.9c-2.3,0-4,1-5.1,2.9c-1.1,2-1.7,4.5-1.7,7.6V148.1z"/>
		<path d="M818.2,162.9c-4.4,0-7.9-1.4-10.4-4.2s-3.7-6.4-3.7-10.9v-1.1c0-4.4,1.2-8.1,3.7-11c2.5-2.9,5.7-4.3,9.7-4.3
			c4.1,0,7.2,1.3,9.2,3.8s3.1,5.9,3.1,10.1v3.7h-18.7l-0.1,0.1c0.1,2.5,0.7,4.5,2,6.1c1.2,1.6,3.1,2.3,5.6,2.3
			c1.8,0,3.4-0.2,4.8-0.7c1.4-0.4,2.6-1.1,3.8-1.9l2.2,4.5c-1.2,1-2.7,1.9-4.6,2.5S820.7,162.9,818.2,162.9z M817.5,136.9
			c-1.8,0-3.2,0.6-4.3,1.9c-1.1,1.3-1.7,2.9-2,5l0.1,0.1h11.8v-0.5c0-1.9-0.5-3.5-1.4-4.7C820.9,137.5,819.5,136.9,817.5,136.9z"/>
	</g>
	<g>
		<path d="M842.7,181.3h-3.3v-16.7h-4.2v-2.6l7.5-0.7V181.3z"/>
	</g>
	<g>
		<path d="M507.1,181.3h-12.8V179l6.2-7.1c1-1.2,1.7-2.2,2.1-2.9c0.4-0.8,0.6-1.5,0.6-2.2c0-0.8-0.2-1.5-0.7-2.1
			c-0.5-0.5-1.1-0.8-2-0.8c-1,0-1.8,0.3-2.4,1s-0.8,1.5-0.8,2.5h-3.2l0-0.1c0-1.7,0.5-3.1,1.7-4.3c1.2-1.2,2.7-1.8,4.7-1.8
			c1.9,0,3.4,0.5,4.4,1.5c1.1,1,1.6,2.3,1.6,4c0,1.1-0.3,2.2-0.9,3.1c-0.6,1-1.6,2.3-2.9,3.9l-4.2,4.8l0,0.1h8.6V181.3z"/>
	</g>
</g>
<g>
	<rect x="192" y="94.5" width="670.5" height="5"/>
</g>
</svg>
