<?xml version="1.0" encoding="utf-8"?>
<!-- Generator: Adobe Illustrator 28.0.0, SVG Export Plug-In . SVG Version: 6.00 Build 0)  -->
<svg version="1.1" id="Layer_1" xmlns="http://www.w3.org/2000/svg" xmlns:xlink="http://www.w3.org/1999/xlink" x="0px" y="0px"
	 viewBox="0 0 1488 205" style="enable-background:new 0 0 1488 205;" xml:space="preserve">
<g>
	<path d="M47.6,88.9l0.1,0.2c0.1,4.1-1.3,7.4-4,10c-2.7,2.5-6.5,3.8-11.1,3.8c-4.7,0-8.6-1.6-11.5-4.8c-3-3.2-4.4-7.3-4.4-12.3V78
		c0-5,1.5-9.1,4.4-12.3s6.7-4.8,11.4-4.8c4.8,0,8.6,1.2,11.3,3.7c2.8,2.4,4.1,5.8,4,10.1l-0.1,0.2h-6.6c0-2.7-0.7-4.8-2.2-6.3
		s-3.6-2.2-6.5-2.2c-2.8,0-5,1.1-6.6,3.3s-2.4,5-2.4,8.3v7.8c0,3.4,0.8,6.2,2.5,8.4c1.6,2.2,3.9,3.3,6.7,3.3c2.8,0,4.9-0.7,6.3-2.2
		c1.4-1.5,2.2-3.6,2.2-6.3H47.6z"/>
	<path d="M77,83.9H61v12.9h18.8v5.4H54.2V61.5h25.4v5.5H61v11.5h16V83.9z"/>
</g>
<g>
	<path d="M157.7,80.1h-24.1v-5.7h24.1V80.1z M157.7,92h-24.1v-5.6h24.1V92z"/>
</g>
<g>
	<path d="M94.1,134.3H81.4V132l6.2-7.1c1-1.2,1.7-2.2,2.1-2.9c0.4-0.8,0.6-1.5,0.6-2.2c0-0.8-0.2-1.5-0.7-2.1
		c-0.5-0.5-1.1-0.8-2-0.8c-1,0-1.8,0.3-2.4,1s-0.8,1.5-0.8,2.5h-3.2l0-0.1c0-1.7,0.5-3.1,1.7-4.3c1.2-1.2,2.7-1.8,4.7-1.8
		c1.9,0,3.4,0.5,4.4,1.5c1.1,1,1.6,2.3,1.6,4c0,1.1-0.3,2.2-0.9,3.1c-0.6,1-1.6,2.3-2.9,3.9l-4.2,4.8l0,0.1h8.6V134.3z"/>
	<path d="M105.5,127.2h-8v-2.7h8V127.2z"/>
	<path d="M117.9,134.3h-3.3v-16.7h-4.2v-2.6l7.5-0.7V134.3z"/>
</g>
<g>
	<g>
		<path d="M439.9,51.9l0.1,0.2c0.1,4.1-1.3,7.4-4,10c-2.7,2.5-6.5,3.8-11.1,3.8c-4.7,0-8.6-1.6-11.5-4.8c-3-3.2-4.4-7.3-4.4-12.3V41
			c0-5,1.5-9.1,4.4-12.3s6.7-4.8,11.4-4.8c4.8,0,8.6,1.2,11.3,3.7c2.8,2.4,4.1,5.8,4,10.1l-0.1,0.2h-6.6c0-2.7-0.7-4.8-2.2-6.3
			s-3.6-2.2-6.5-2.2c-2.8,0-5,1.1-6.6,3.3s-2.4,5-2.4,8.3v7.8c0,3.4,0.8,6.2,2.5,8.4c1.6,2.2,3.9,3.3,6.7,3.3c2.8,0,4.9-0.7,6.3-2.2
			c1.4-1.5,2.2-3.6,2.2-6.3H439.9z"/>
		<path d="M464.7,60.8c-0.9,1.6-2.1,2.9-3.6,3.8c-1.5,0.9-3.2,1.3-5.1,1.3c-3.2,0-5.8-1.1-7.6-3.2c-1.8-2.1-2.7-5.5-2.7-10V35h6.8
			v17.8c0,2.9,0.4,4.9,1.3,6c0.8,1.1,2.1,1.6,3.9,1.6c1.6,0,3-0.3,4.1-0.9c1.1-0.6,2-1.4,2.6-2.6V35h6.8v30.3h-5.9L464.7,60.8z"/>
		<path d="M495.3,57c0-1-0.4-1.9-1.3-2.6c-0.9-0.7-2.6-1.3-5-1.8c-3.6-0.7-6.3-1.8-8.2-3.2c-1.9-1.4-2.8-3.3-2.8-5.7
			c0-2.5,1.1-4.7,3.2-6.5c2.1-1.8,5-2.7,8.5-2.7c3.6,0,6.5,0.9,8.8,2.8c2.2,1.9,3.3,4.1,3.2,6.7l-0.1,0.2H495c0-1.2-0.5-2.3-1.5-3.2
			c-1-0.9-2.3-1.4-3.9-1.4c-1.6,0-2.9,0.4-3.8,1.1c-0.9,0.7-1.3,1.7-1.3,2.7c0,1,0.4,1.8,1.2,2.5c0.8,0.6,2.5,1.2,5,1.7
			c3.7,0.7,6.5,1.8,8.4,3.3c1.9,1.4,2.8,3.4,2.8,5.8c0,2.7-1.1,5-3.4,6.7c-2.3,1.7-5.2,2.6-8.9,2.6c-3.9,0-7.1-1-9.3-3
			s-3.4-4.3-3.2-6.9l0.1-0.2h6.3c0.1,1.8,0.7,3,1.9,3.8c1.2,0.8,2.7,1.2,4.4,1.2c1.7,0,3.1-0.3,4-1C494.8,59,495.3,58.1,495.3,57z"
			/>
		<path d="M516.8,27.6V35h5.4v5h-5.4v16.8c0,1.3,0.3,2.1,0.8,2.7s1.3,0.8,2.2,0.8c0.4,0,0.7,0,1.1-0.1c0.4-0.1,0.7-0.2,1-0.3l0.7,5
			c-0.6,0.3-1.3,0.6-2.1,0.7c-0.8,0.2-1.6,0.3-2.5,0.3c-2.5,0-4.5-0.7-5.9-2.2c-1.4-1.5-2.1-3.8-2.1-6.9V40h-4.6v-5h4.6v-7.4H516.8z
			"/>
		<path d="M526.5,49.8c0-4.5,1.2-8.2,3.7-11.1c2.5-2.9,5.9-4.3,10.2-4.3c4.4,0,7.8,1.4,10.2,4.3c2.5,2.9,3.7,6.6,3.7,11.1v0.6
			c0,4.6-1.2,8.3-3.7,11.1c-2.5,2.9-5.9,4.3-10.2,4.3c-4.3,0-7.7-1.4-10.2-4.3s-3.7-6.6-3.7-11.1V49.8z M533.3,50.4
			c0,3,0.6,5.4,1.7,7.2c1.2,1.8,3,2.8,5.4,2.8c2.4,0,4.2-0.9,5.3-2.8c1.2-1.9,1.8-4.3,1.8-7.2v-0.6c0-2.9-0.6-5.3-1.8-7.2
			c-1.2-1.9-3-2.8-5.4-2.8c-2.4,0-4.1,0.9-5.3,2.8c-1.2,1.9-1.8,4.3-1.8,7.2V50.4z"/>
		<path d="M580.7,35l0.4,3.9c1-1.4,2.2-2.5,3.7-3.3s3.2-1.2,5.2-1.2c2,0,3.7,0.4,5.1,1.3c1.4,0.9,2.5,2.2,3.2,4
			c0.9-1.7,2.2-3,3.7-3.9s3.3-1.4,5.4-1.4c3,0,5.4,1.1,7.2,3.2c1.8,2.1,2.6,5.3,2.6,9.6v18.1h-6.8V47.2c0-2.7-0.4-4.5-1.3-5.6
			c-0.9-1.1-2.2-1.6-4-1.6c-1.5,0-2.7,0.4-3.7,1.2s-1.7,1.8-2.2,3.2c0,0.3,0,0.5,0,0.7c0,0.2,0,0.4,0,0.6v19.6h-6.8V47.2
			c0-2.6-0.5-4.4-1.4-5.5c-0.9-1.1-2.2-1.7-4-1.7c-1.4,0-2.6,0.3-3.5,0.8c-1,0.5-1.7,1.3-2.3,2.3v22.2h-6.8V35H580.7z"/>
		<path d="M642.7,65.3c-0.2-0.8-0.4-1.5-0.6-2.2c-0.2-0.7-0.3-1.5-0.3-2.2c-0.9,1.4-2.1,2.6-3.7,3.6s-3.2,1.4-5.1,1.4
			c-3.2,0-5.6-0.8-7.3-2.4c-1.7-1.6-2.5-3.9-2.5-6.7c0-2.9,1.2-5.2,3.5-6.8c2.3-1.6,5.6-2.5,9.8-2.5h5.3v-2.7c0-1.6-0.5-2.8-1.4-3.7
			c-0.9-0.9-2.3-1.3-4-1.3c-1.5,0-2.8,0.4-3.7,1.1c-0.9,0.7-1.4,1.7-1.4,2.9l-6.6,0l0-0.2c-0.1-2.4,0.9-4.5,3.2-6.4
			c2.3-1.8,5.2-2.8,8.9-2.8c3.5,0,6.4,0.9,8.5,2.7c2.2,1.8,3.2,4.4,3.2,7.7v13.5c0,1.3,0.1,2.5,0.3,3.6s0.4,2.3,0.8,3.4H642.7z
			 M634.4,60.4c1.7,0,3.2-0.4,4.6-1.3c1.4-0.9,2.3-1.8,2.7-2.9v-4.5h-5.4c-2,0-3.5,0.5-4.6,1.5c-1.1,1-1.7,2.1-1.7,3.5
			c0,1.2,0.4,2.1,1.1,2.8C631.9,60.1,632.9,60.4,634.4,60.4z M638.4,22h7.7l0.1,0.2l-7.6,7.3h-5.5L638.4,22z"/>
		<path d="M672.7,57c0-1-0.4-1.9-1.3-2.6c-0.9-0.7-2.6-1.3-5-1.8c-3.6-0.7-6.3-1.8-8.2-3.2c-1.9-1.4-2.8-3.3-2.8-5.7
			c0-2.5,1.1-4.7,3.2-6.5c2.1-1.8,5-2.7,8.5-2.7c3.6,0,6.5,0.9,8.8,2.8s3.3,4.1,3.2,6.7l-0.1,0.2h-6.5c0-1.2-0.5-2.3-1.5-3.2
			s-2.3-1.4-3.9-1.4c-1.6,0-2.9,0.4-3.8,1.1s-1.3,1.7-1.3,2.7c0,1,0.4,1.8,1.2,2.5s2.5,1.2,5,1.7c3.7,0.7,6.5,1.8,8.4,3.3
			c1.9,1.4,2.8,3.4,2.8,5.8c0,2.7-1.1,5-3.4,6.7c-2.3,1.7-5.2,2.6-8.9,2.6c-3.9,0-7-1-9.3-3s-3.4-4.3-3.2-6.9l0.1-0.2h6.3
			c0.1,1.8,0.7,3,1.9,3.8s2.7,1.2,4.4,1.2c1.7,0,3.1-0.3,4-1C672.2,59,672.7,58.1,672.7,57z"/>
		<path d="M697.8,60.4c1.6,0,2.9-0.5,3.9-1.5c1.1-1,1.6-2.2,1.6-3.7h6.2l0.1,0.2c0.1,2.8-1.1,5.3-3.4,7.3c-2.3,2.1-5.1,3.1-8.4,3.1
			c-4.4,0-7.7-1.4-10.1-4.3c-2.4-2.9-3.6-6.5-3.6-10.9v-1c0-4.4,1.2-8,3.6-10.9c2.4-2.9,5.7-4.3,10.1-4.3c3.5,0,6.4,1.1,8.6,3.2
			c2.2,2.1,3.3,4.8,3.2,8.1l-0.1,0.2h-6.2c0-1.7-0.5-3.1-1.5-4.2s-2.4-1.7-4-1.7c-2.4,0-4.2,0.9-5.2,2.8s-1.6,4.2-1.6,7v1
			c0,2.8,0.5,5.2,1.6,7C693.6,59.5,695.3,60.4,697.8,60.4z"/>
		<path d="M733.6,65.3c-0.2-0.8-0.4-1.5-0.6-2.2c-0.2-0.7-0.3-1.5-0.3-2.2c-0.9,1.4-2.1,2.6-3.7,3.6s-3.2,1.4-5.1,1.4
			c-3.2,0-5.6-0.8-7.3-2.4c-1.7-1.6-2.5-3.9-2.5-6.7c0-2.9,1.2-5.2,3.5-6.8c2.3-1.6,5.6-2.5,9.8-2.5h5.3v-2.7c0-1.6-0.5-2.8-1.4-3.7
			c-0.9-0.9-2.3-1.3-4-1.3c-1.5,0-2.8,0.4-3.7,1.1c-0.9,0.7-1.4,1.7-1.4,2.9l-6.6,0l0-0.2c-0.1-2.4,0.9-4.5,3.2-6.4
			c2.3-1.8,5.2-2.8,8.9-2.8c3.5,0,6.4,0.9,8.5,2.7c2.2,1.8,3.2,4.4,3.2,7.7v13.5c0,1.3,0.1,2.5,0.3,3.6s0.4,2.3,0.8,3.4H733.6z
			 M725.2,60.4c1.7,0,3.2-0.4,4.6-1.3c1.4-0.9,2.3-1.8,2.7-2.9v-4.5h-5.4c-2,0-3.5,0.5-4.6,1.5c-1.1,1-1.7,2.1-1.7,3.5
			c0,1.2,0.4,2.1,1.1,2.8C722.7,60.1,723.8,60.4,725.2,60.4z"/>
		<path d="M761.6,41.1l-2.9-0.1c-1.3,0-2.4,0.3-3.3,0.8c-0.9,0.6-1.6,1.4-2.1,2.4v21.1h-6.8V35h6.2l0.4,4.4c0.8-1.5,1.8-2.8,3-3.6
			c1.2-0.9,2.6-1.3,4.2-1.3c0.4,0,0.8,0,1.1,0.1c0.4,0.1,0.7,0.1,1,0.2L761.6,41.1z"/>
		<path d="M784.9,65.3c-0.2-0.8-0.4-1.5-0.6-2.2c-0.2-0.7-0.3-1.5-0.3-2.2c-0.9,1.4-2.1,2.6-3.7,3.6c-1.5,1-3.2,1.4-5.1,1.4
			c-3.2,0-5.6-0.8-7.3-2.4c-1.7-1.6-2.5-3.9-2.5-6.7c0-2.9,1.2-5.2,3.5-6.8c2.3-1.6,5.6-2.5,9.8-2.5h5.3v-2.7c0-1.6-0.5-2.8-1.4-3.7
			c-0.9-0.9-2.3-1.3-4-1.3c-1.6,0-2.8,0.4-3.7,1.1c-0.9,0.7-1.4,1.7-1.4,2.9l-6.6,0l0-0.2c-0.1-2.4,0.9-4.5,3.2-6.4
			c2.3-1.8,5.2-2.8,8.9-2.8c3.5,0,6.4,0.9,8.5,2.7c2.2,1.8,3.2,4.4,3.2,7.7v13.5c0,1.3,0.1,2.5,0.3,3.6s0.4,2.3,0.8,3.4H784.9z
			 M776.6,60.4c1.7,0,3.2-0.4,4.6-1.3c1.4-0.9,2.3-1.8,2.7-2.9v-4.5h-5.4c-2,0-3.5,0.5-4.7,1.5c-1.1,1-1.7,2.1-1.7,3.5
			c0,1.2,0.4,2.1,1.1,2.8C774.1,60.1,775.2,60.4,776.6,60.4z"/>
		<path d="M829.5,50.7H813v-5.5h16.5V50.7z"/>
		<path d="M882.4,51.9l0.1,0.2c0.1,4.1-1.3,7.4-4,10c-2.7,2.5-6.5,3.8-11.1,3.8c-4.7,0-8.6-1.6-11.5-4.8c-3-3.2-4.4-7.3-4.4-12.3V41
			c0-5,1.5-9.1,4.4-12.3s6.7-4.8,11.4-4.8c4.8,0,8.6,1.2,11.3,3.7s4.1,5.8,4,10.1l-0.1,0.2h-6.6c0-2.7-0.7-4.8-2.2-6.3
			c-1.5-1.4-3.6-2.2-6.5-2.2c-2.8,0-5,1.1-6.6,3.3s-2.4,5-2.4,8.3v7.8c0,3.4,0.8,6.2,2.5,8.4s3.9,3.3,6.7,3.3c2.8,0,4.9-0.7,6.3-2.2
			c1.4-1.5,2.2-3.6,2.2-6.3H882.4z"/>
		<path d="M907.2,60.8c-0.9,1.6-2.1,2.9-3.6,3.8s-3.2,1.3-5.1,1.3c-3.2,0-5.8-1.1-7.6-3.2c-1.8-2.1-2.7-5.5-2.7-10V35h6.8v17.8
			c0,2.9,0.4,4.9,1.3,6c0.8,1.1,2.1,1.6,3.9,1.6c1.6,0,3-0.3,4.1-0.9c1.1-0.6,2-1.4,2.6-2.6V35h6.8v30.3h-5.9L907.2,60.8z"/>
		<path d="M937.9,57c0-1-0.4-1.9-1.3-2.6c-0.9-0.7-2.6-1.3-5-1.8c-3.6-0.7-6.3-1.8-8.2-3.2c-1.9-1.4-2.8-3.3-2.8-5.7
			c0-2.5,1.1-4.7,3.2-6.5c2.1-1.8,5-2.7,8.5-2.7c3.6,0,6.5,0.9,8.8,2.8s3.3,4.1,3.2,6.7l-0.1,0.2h-6.5c0-1.2-0.5-2.3-1.5-3.2
			c-1-0.9-2.3-1.4-3.9-1.4c-1.6,0-2.9,0.4-3.8,1.1c-0.9,0.7-1.3,1.7-1.3,2.7c0,1,0.4,1.8,1.2,2.5c0.8,0.6,2.5,1.2,5,1.7
			c3.7,0.7,6.5,1.8,8.4,3.3c1.9,1.4,2.8,3.4,2.8,5.8c0,2.7-1.1,5-3.4,6.7s-5.2,2.6-8.9,2.6c-3.9,0-7-1-9.3-3c-2.3-2-3.4-4.3-3.2-6.9
			l0.1-0.2h6.3c0.1,1.8,0.7,3,1.9,3.8s2.7,1.2,4.4,1.2c1.7,0,3.1-0.3,4-1C937.4,59,937.9,58.1,937.9,57z"/>
		<path d="M959.4,27.6V35h5.4v5h-5.4v16.8c0,1.3,0.3,2.1,0.8,2.7c0.5,0.5,1.3,0.8,2.2,0.8c0.4,0,0.7,0,1.1-0.1s0.7-0.2,1-0.3l0.7,5
			c-0.6,0.3-1.3,0.6-2.1,0.7c-0.8,0.2-1.6,0.3-2.5,0.3c-2.5,0-4.5-0.7-5.9-2.2c-1.4-1.5-2.1-3.8-2.1-6.9V40H948v-5h4.6v-7.4H959.4z"
			/>
		<path d="M969,49.8c0-4.5,1.2-8.2,3.7-11.1c2.5-2.9,5.9-4.3,10.2-4.3c4.4,0,7.8,1.4,10.2,4.3c2.5,2.9,3.7,6.6,3.7,11.1v0.6
			c0,4.6-1.2,8.3-3.7,11.1c-2.5,2.9-5.9,4.3-10.2,4.3c-4.3,0-7.7-1.4-10.2-4.3c-2.5-2.9-3.7-6.6-3.7-11.1V49.8z M975.8,50.4
			c0,3,0.6,5.4,1.7,7.2c1.2,1.8,3,2.8,5.4,2.8c2.4,0,4.2-0.9,5.3-2.8c1.2-1.9,1.8-4.3,1.8-7.2v-0.6c0-2.9-0.6-5.3-1.8-7.2
			c-1.2-1.9-3-2.8-5.4-2.8c-2.4,0-4.1,0.9-5.3,2.8s-1.8,4.3-1.8,7.2V50.4z"/>
		<path d="M1023.3,35l0.4,3.9c1-1.4,2.2-2.5,3.7-3.3c1.5-0.8,3.2-1.2,5.2-1.2c2,0,3.7,0.4,5.1,1.3s2.5,2.2,3.2,4
			c0.9-1.7,2.2-3,3.7-3.9c1.5-1,3.3-1.4,5.4-1.4c3,0,5.4,1.1,7.2,3.2c1.8,2.1,2.6,5.3,2.6,9.6v18.1h-6.8V47.2c0-2.7-0.4-4.5-1.3-5.6
			s-2.2-1.6-4-1.6c-1.5,0-2.7,0.4-3.7,1.2c-1,0.8-1.7,1.8-2.2,3.2c0,0.3,0,0.5,0,0.7c0,0.2,0,0.4,0,0.6v19.6h-6.8V47.2
			c0-2.6-0.5-4.4-1.4-5.5c-0.9-1.1-2.2-1.7-4-1.7c-1.4,0-2.6,0.3-3.5,0.8s-1.7,1.3-2.3,2.3v22.2h-6.8V35H1023.3z"/>
		<path d="M1085.2,65.3c-0.2-0.8-0.4-1.5-0.6-2.2c-0.2-0.7-0.3-1.5-0.3-2.2c-0.9,1.4-2.1,2.6-3.7,3.6s-3.2,1.4-5.1,1.4
			c-3.2,0-5.6-0.8-7.3-2.4c-1.7-1.6-2.5-3.9-2.5-6.7c0-2.9,1.2-5.2,3.5-6.8c2.3-1.6,5.6-2.5,9.8-2.5h5.3v-2.7c0-1.6-0.5-2.8-1.4-3.7
			c-0.9-0.9-2.3-1.3-4-1.3c-1.5,0-2.8,0.4-3.7,1.1c-0.9,0.7-1.4,1.7-1.4,2.9l-6.6,0l0-0.2c-0.1-2.4,0.9-4.5,3.2-6.4
			c2.3-1.8,5.2-2.8,8.9-2.8c3.5,0,6.4,0.9,8.5,2.7s3.2,4.4,3.2,7.7v13.5c0,1.3,0.1,2.5,0.3,3.6s0.4,2.3,0.8,3.4H1085.2z
			 M1076.9,60.4c1.7,0,3.2-0.4,4.6-1.3c1.4-0.9,2.3-1.8,2.7-2.9v-4.5h-5.4c-2,0-3.5,0.5-4.7,1.5c-1.1,1-1.7,2.1-1.7,3.5
			c0,1.2,0.4,2.1,1.1,2.8C1074.4,60.1,1075.5,60.4,1076.9,60.4z M1081,22h7.7l0.1,0.2l-7.6,7.3h-5.5L1081,22z"/>
		<path d="M1115.2,57c0-1-0.4-1.9-1.3-2.6c-0.9-0.7-2.6-1.3-5-1.8c-3.6-0.7-6.3-1.8-8.2-3.2c-1.9-1.4-2.8-3.3-2.8-5.7
			c0-2.5,1.1-4.7,3.2-6.5c2.1-1.8,5-2.7,8.5-2.7c3.6,0,6.5,0.9,8.8,2.8s3.3,4.1,3.2,6.7l-0.1,0.2h-6.5c0-1.2-0.5-2.3-1.5-3.2
			c-1-0.9-2.3-1.4-3.9-1.4c-1.6,0-2.9,0.4-3.8,1.1c-0.9,0.7-1.3,1.7-1.3,2.7c0,1,0.4,1.8,1.2,2.5c0.8,0.6,2.5,1.2,5,1.7
			c3.7,0.7,6.5,1.8,8.4,3.3c1.9,1.4,2.8,3.4,2.8,5.8c0,2.7-1.1,5-3.4,6.7s-5.2,2.6-8.9,2.6c-3.9,0-7-1-9.3-3c-2.3-2-3.4-4.3-3.2-6.9
			l0.1-0.2h6.3c0.1,1.8,0.7,3,1.9,3.8s2.7,1.2,4.4,1.2c1.7,0,3.1-0.3,4-1C1114.7,59,1115.2,58.1,1115.2,57z"/>
		<path d="M1140.4,60.4c1.5,0,2.9-0.5,3.9-1.5c1.1-1,1.6-2.2,1.6-3.7h6.2l0.1,0.2c0.1,2.8-1,5.3-3.4,7.3s-5.1,3.1-8.4,3.1
			c-4.4,0-7.7-1.4-10.1-4.3c-2.4-2.9-3.6-6.5-3.6-10.9v-1c0-4.4,1.2-8,3.6-10.9c2.4-2.9,5.7-4.3,10.1-4.3c3.5,0,6.4,1.1,8.6,3.2
			c2.2,2.1,3.3,4.8,3.2,8.1l-0.1,0.2h-6.2c0-1.7-0.5-3.1-1.5-4.2c-1-1.2-2.4-1.7-4-1.7c-2.4,0-4.2,0.9-5.2,2.8s-1.6,4.2-1.6,7v1
			c0,2.8,0.5,5.2,1.6,7C1136.1,59.5,1137.9,60.4,1140.4,60.4z"/>
		<path d="M1176.1,65.3c-0.2-0.8-0.4-1.5-0.6-2.2c-0.2-0.7-0.3-1.5-0.3-2.2c-0.9,1.4-2.1,2.6-3.7,3.6s-3.2,1.4-5.1,1.4
			c-3.2,0-5.6-0.8-7.3-2.4c-1.7-1.6-2.5-3.9-2.5-6.7c0-2.9,1.2-5.2,3.5-6.8c2.3-1.6,5.6-2.5,9.8-2.5h5.3v-2.7c0-1.6-0.5-2.8-1.4-3.7
			c-0.9-0.9-2.3-1.3-4-1.3c-1.5,0-2.8,0.4-3.7,1.1c-0.9,0.7-1.4,1.7-1.4,2.9l-6.6,0l0-0.2c-0.1-2.4,0.9-4.5,3.2-6.4
			c2.3-1.8,5.2-2.8,8.9-2.8c3.5,0,6.4,0.9,8.5,2.7s3.2,4.4,3.2,7.7v13.5c0,1.3,0.1,2.5,0.3,3.6s0.4,2.3,0.8,3.4H1176.1z
			 M1167.8,60.4c1.7,0,3.2-0.4,4.6-1.3c1.4-0.9,2.3-1.8,2.7-2.9v-4.5h-5.4c-2,0-3.5,0.5-4.7,1.5c-1.1,1-1.7,2.1-1.7,3.5
			c0,1.2,0.4,2.1,1.1,2.8C1165.3,60.1,1166.4,60.4,1167.8,60.4z"/>
		<path d="M1204.1,41.1l-2.9-0.1c-1.3,0-2.4,0.3-3.3,0.8c-0.9,0.6-1.6,1.4-2.1,2.4v21.1h-6.8V35h6.2l0.4,4.4c0.8-1.5,1.8-2.8,3-3.6
			c1.2-0.9,2.6-1.3,4.2-1.3c0.4,0,0.8,0,1.1,0.1c0.4,0.1,0.7,0.1,1,0.2L1204.1,41.1z"/>
		<path d="M1227.4,65.3c-0.2-0.8-0.4-1.5-0.6-2.2c-0.2-0.7-0.3-1.5-0.3-2.2c-0.9,1.4-2.1,2.6-3.7,3.6s-3.2,1.4-5.1,1.4
			c-3.2,0-5.6-0.8-7.3-2.4c-1.7-1.6-2.5-3.9-2.5-6.7c0-2.9,1.2-5.2,3.5-6.8c2.3-1.6,5.6-2.5,9.8-2.5h5.3v-2.7c0-1.6-0.5-2.8-1.4-3.7
			c-0.9-0.9-2.3-1.3-4-1.3c-1.5,0-2.8,0.4-3.7,1.1c-0.9,0.7-1.4,1.7-1.4,2.9l-6.6,0l0-0.2c-0.1-2.4,0.9-4.5,3.2-6.4
			c2.3-1.8,5.2-2.8,8.9-2.8c3.5,0,6.4,0.9,8.5,2.7s3.2,4.4,3.2,7.7v13.5c0,1.3,0.1,2.5,0.3,3.6s0.4,2.3,0.8,3.4H1227.4z
			 M1219.1,60.4c1.7,0,3.2-0.4,4.6-1.3c1.4-0.9,2.3-1.8,2.7-2.9v-4.5h-5.4c-2,0-3.5,0.5-4.7,1.5c-1.1,1-1.7,2.1-1.7,3.5
			c0,1.2,0.4,2.1,1.1,2.8C1216.6,60.1,1217.7,60.4,1219.1,60.4z"/>
	</g>
	<g>
		<path d="M807.6,84.3h-12.8V82l6.2-7.1c1-1.2,1.7-2.2,2.1-2.9c0.4-0.8,0.6-1.5,0.6-2.2c0-0.8-0.2-1.5-0.7-2.1s-1.1-0.8-2-0.8
			c-1,0-1.8,0.3-2.4,1s-0.8,1.5-0.8,2.5h-3.2l0-0.1c0-1.7,0.5-3.1,1.7-4.3c1.2-1.2,2.7-1.8,4.7-1.8c1.9,0,3.4,0.5,4.4,1.5
			s1.6,2.3,1.6,4c0,1.1-0.3,2.2-0.9,3.1c-0.6,1-1.6,2.3-2.9,3.9l-4.2,4.8l0,0.1h8.6V84.3z"/>
	</g>
	<g>
		<path d="M1248.2,84.3h-3.3V67.5h-4.2v-2.6l7.5-0.7V84.3z"/>
	</g>
</g>
<g>
	<g>
		<path d="M237.9,162.3h-6.8L213,132.9l-0.2,0.1v29.3h-6.8v-40.8h6.8l18.1,29.4l0.2-0.1v-29.3h6.8V162.3z"/>
		<path d="M245.5,130.3c0-2.8,0.9-5,2.6-6.8c1.8-1.7,4.1-2.6,7.1-2.6c3,0,5.3,0.9,7.1,2.6s2.6,4,2.6,6.8v3.3c0,2.8-0.9,5-2.6,6.8
			c-1.8,1.7-4.1,2.6-7,2.6c-3,0-5.3-0.9-7.1-2.6c-1.8-1.7-2.6-4-2.6-6.8V130.3z M250.4,133.6c0,1.6,0.4,2.9,1.2,3.8s2,1.4,3.6,1.4
			c1.5,0,2.7-0.5,3.5-1.4s1.2-2.2,1.2-3.8v-3.3c0-1.6-0.4-2.8-1.2-3.8c-0.8-1-2-1.5-3.6-1.5c-1.6,0-2.8,0.5-3.6,1.5
			c-0.8,1-1.2,2.2-1.2,3.8V133.6z"/>
		<path d="M285,147.5c0-4.8,1-8.7,3.1-11.7c2.1-3,5-4.4,8.7-4.4c1.6,0,3.1,0.3,4.4,1c1.3,0.7,2.4,1.6,3.4,2.8v-16.7h6.8v43.7h-5.5
			l-0.8-3.8c-1,1.4-2.1,2.5-3.5,3.3c-1.4,0.8-3,1.1-4.8,1.1c-3.7,0-6.6-1.4-8.7-4.1c-2.1-2.7-3.1-6.3-3.1-10.7V147.5z M291.8,148.1
			c0,2.8,0.5,5,1.6,6.7s2.8,2.5,5.1,2.5c1.4,0,2.7-0.3,3.7-0.9s1.8-1.5,2.5-2.6v-13.2c-0.6-1.1-1.5-2-2.5-2.6
			c-1-0.6-2.2-0.9-3.6-0.9c-2.3,0-4,1-5.1,2.9s-1.7,4.5-1.7,7.6V148.1z"/>
		<path d="M331.6,162.9c-4.4,0-7.9-1.4-10.4-4.2c-2.5-2.8-3.7-6.4-3.7-10.9v-1.1c0-4.4,1.2-8.1,3.7-11c2.5-2.9,5.7-4.3,9.6-4.3
			c4.1,0,7.2,1.3,9.2,3.8c2.1,2.5,3.1,5.9,3.1,10.1v3.7h-18.7l-0.1,0.1c0.1,2.5,0.7,4.5,2,6.1c1.2,1.6,3.1,2.3,5.6,2.3
			c1.8,0,3.5-0.2,4.8-0.7s2.6-1.1,3.8-1.9l2.2,4.5c-1.2,1-2.7,1.9-4.6,2.5S334.1,162.9,331.6,162.9z M330.9,136.9
			c-1.8,0-3.2,0.6-4.3,1.9c-1.1,1.3-1.7,2.9-2,5l0.1,0.1h11.8v-0.5c0-1.9-0.5-3.5-1.4-4.7C334.3,137.5,332.9,136.9,330.9,136.9z"/>
		<path d="M375.9,162.9c-4.4,0-7.9-1.4-10.4-4.2c-2.5-2.8-3.7-6.4-3.7-10.9v-1.1c0-4.4,1.2-8.1,3.7-11c2.5-2.9,5.7-4.3,9.6-4.3
			c4.1,0,7.2,1.3,9.2,3.8c2.1,2.5,3.1,5.9,3.1,10.1v3.7h-18.7l-0.1,0.1c0.1,2.5,0.7,4.5,2,6.1c1.2,1.6,3.1,2.3,5.6,2.3
			c1.8,0,3.5-0.2,4.8-0.7s2.6-1.1,3.8-1.9l2.2,4.5c-1.2,1-2.7,1.9-4.6,2.5S378.4,162.9,375.9,162.9z M375.2,136.9
			c-1.8,0-3.2,0.6-4.3,1.9c-1.1,1.3-1.7,2.9-2,5l0.1,0.1h11.8v-0.5c0-1.9-0.5-3.5-1.4-4.7C378.6,137.5,377.2,136.9,375.2,136.9z"/>
		<path d="M403.3,152l0.5,2.5h0.2l0.5-2.5l6-20.1h7l-10.8,30.3h-5.9L390.1,132h7L403.3,152z"/>
		<path d="M434.3,162.9c-4.4,0-7.9-1.4-10.4-4.2c-2.5-2.8-3.7-6.4-3.7-10.9v-1.1c0-4.4,1.2-8.1,3.7-11c2.5-2.9,5.7-4.3,9.6-4.3
			c4.1,0,7.2,1.3,9.2,3.8c2.1,2.5,3.1,5.9,3.1,10.1v3.7h-18.7l-0.1,0.1c0.1,2.5,0.7,4.5,2,6.1c1.2,1.6,3.1,2.3,5.6,2.3
			c1.8,0,3.5-0.2,4.8-0.7s2.6-1.1,3.8-1.9l2.2,4.5c-1.2,1-2.7,1.9-4.6,2.5S436.8,162.9,434.3,162.9z M433.6,136.9
			c-1.8,0-3.2,0.6-4.3,1.9c-1.1,1.3-1.7,2.9-2,5l0.1,0.1h11.8v-0.5c0-1.9-0.5-3.5-1.4-4.7C437,137.5,435.6,136.9,433.6,136.9z"/>
		<path d="M457.7,132l0.4,4.4c1-1.5,2.2-2.8,3.7-3.6c1.5-0.9,3.2-1.3,5.1-1.3c3.2,0,5.6,1,7.4,2.9c1.8,1.9,2.6,5,2.6,9.1v18.9h-6.8
			v-18.8c0-2.4-0.5-4-1.4-5c-0.9-1-2.3-1.5-4.1-1.5c-1.5,0-2.7,0.3-3.8,0.8c-1.1,0.6-1.9,1.3-2.5,2.3v22.2h-6.8V132H457.7z"/>
		<path d="M492.7,124.6v7.4h5.4v5h-5.4v16.8c0,1.3,0.3,2.1,0.8,2.7c0.5,0.5,1.3,0.8,2.2,0.8c0.4,0,0.7,0,1.1-0.1
			c0.4-0.1,0.7-0.2,1-0.3l0.7,5c-0.6,0.3-1.3,0.6-2.1,0.7c-0.8,0.2-1.6,0.3-2.5,0.3c-2.5,0-4.5-0.7-5.9-2.2
			c-1.4-1.5-2.1-3.8-2.1-6.9V137h-4.6v-5h4.6v-7.4H492.7z"/>
		<path d="M502.4,146.8c0-4.5,1.2-8.2,3.7-11.1c2.5-2.9,5.9-4.3,10.2-4.3c4.4,0,7.8,1.4,10.2,4.3c2.5,2.9,3.7,6.6,3.7,11.1v0.6
			c0,4.6-1.2,8.3-3.7,11.1c-2.5,2.9-5.9,4.3-10.2,4.3c-4.3,0-7.7-1.4-10.2-4.3c-2.5-2.9-3.7-6.6-3.7-11.1V146.8z M509.2,147.4
			c0,3,0.6,5.4,1.7,7.2c1.2,1.8,3,2.8,5.4,2.8c2.4,0,4.1-0.9,5.3-2.8c1.2-1.9,1.8-4.3,1.8-7.2v-0.6c0-2.9-0.6-5.3-1.8-7.2
			c-1.2-1.9-3-2.8-5.4-2.8c-2.4,0-4.1,0.9-5.3,2.8s-1.8,4.3-1.8,7.2V147.4z"/>
		<path d="M553.1,154c0-1-0.4-1.9-1.3-2.6s-2.6-1.3-5-1.8c-3.6-0.7-6.3-1.8-8.2-3.2c-1.9-1.4-2.8-3.3-2.8-5.7c0-2.5,1.1-4.7,3.2-6.5
			c2.1-1.8,5-2.7,8.5-2.7c3.6,0,6.5,0.9,8.8,2.8c2.2,1.9,3.3,4.1,3.2,6.7l-0.1,0.2h-6.5c0-1.2-0.5-2.3-1.5-3.2
			c-1-0.9-2.3-1.4-3.9-1.4c-1.6,0-2.9,0.4-3.8,1.1c-0.9,0.7-1.3,1.7-1.3,2.7c0,1,0.4,1.8,1.2,2.5c0.8,0.6,2.5,1.2,5,1.7
			c3.7,0.7,6.5,1.8,8.4,3.3c1.9,1.4,2.8,3.4,2.8,5.8c0,2.7-1.1,5-3.4,6.7c-2.3,1.7-5.2,2.6-8.9,2.6c-3.9,0-7.1-1-9.3-3
			s-3.4-4.3-3.2-6.9l0.1-0.2h6.3c0.1,1.8,0.7,3,1.9,3.8c1.2,0.8,2.7,1.2,4.4,1.2c1.7,0,3.1-0.3,4-1C552.7,156,553.1,155.1,553.1,154
			z"/>
		<path d="M593.1,162.9c-4.4,0-7.9-1.4-10.4-4.2c-2.5-2.8-3.7-6.4-3.7-10.9v-1.1c0-4.4,1.2-8.1,3.7-11c2.5-2.9,5.7-4.3,9.6-4.3
			c4.1,0,7.2,1.3,9.2,3.8c2.1,2.5,3.1,5.9,3.1,10.1v3.7H586L586,149c0.1,2.5,0.7,4.5,2,6.1c1.2,1.6,3.1,2.3,5.6,2.3
			c1.8,0,3.5-0.2,4.8-0.7c1.4-0.4,2.6-1.1,3.8-1.9l2.2,4.5c-1.2,1-2.7,1.9-4.6,2.5C597.8,162.5,595.6,162.9,593.1,162.9z
			 M592.4,136.9c-1.8,0-3.2,0.6-4.3,1.9c-1.1,1.3-1.7,2.9-2,5l0.1,0.1H598v-0.5c0-1.9-0.5-3.5-1.4-4.7
			C595.8,137.5,594.3,136.9,592.4,136.9z"/>
		<path d="M620.4,152l0.5,2.5h0.2l0.5-2.5l6-20.1h7l-10.8,30.3H618L607.2,132h7L620.4,152z"/>
		<path d="M646.2,124.5h-6.8v-6h6.8V124.5z M646.2,162.3h-6.8V132h6.8V162.3z"/>
		<path d="M662.6,124.6v7.4h5.4v5h-5.4v16.8c0,1.3,0.3,2.1,0.8,2.7c0.5,0.5,1.3,0.8,2.2,0.8c0.4,0,0.7,0,1.1-0.1s0.7-0.2,1-0.3
			l0.7,5c-0.6,0.3-1.3,0.6-2.1,0.7c-0.8,0.2-1.6,0.3-2.5,0.3c-2.5,0-4.5-0.7-5.9-2.2c-1.4-1.5-2.1-3.8-2.1-6.9V137h-4.6v-5h4.6v-7.4
			H662.6z"/>
		<path d="M691.8,162.3c-0.2-0.8-0.4-1.5-0.6-2.2c-0.2-0.7-0.3-1.5-0.3-2.2c-0.9,1.4-2.1,2.6-3.7,3.6c-1.5,1-3.2,1.4-5.1,1.4
			c-3.2,0-5.6-0.8-7.3-2.4c-1.7-1.6-2.5-3.9-2.5-6.7c0-2.9,1.2-5.2,3.5-6.8c2.3-1.6,5.6-2.5,9.8-2.5h5.3v-2.7c0-1.6-0.5-2.8-1.4-3.7
			c-0.9-0.9-2.3-1.3-4-1.3c-1.6,0-2.8,0.4-3.7,1.1c-0.9,0.7-1.4,1.7-1.4,2.9l-6.6,0l0-0.2c-0.1-2.4,0.9-4.5,3.2-6.4
			c2.3-1.8,5.2-2.8,8.9-2.8c3.5,0,6.4,0.9,8.5,2.7c2.2,1.8,3.2,4.4,3.2,7.7v13.5c0,1.3,0.1,2.5,0.3,3.6s0.4,2.3,0.8,3.4H691.8z
			 M683.4,157.4c1.7,0,3.2-0.4,4.6-1.3c1.4-0.9,2.3-1.8,2.7-2.9v-4.5h-5.4c-2,0-3.5,0.5-4.7,1.5c-1.1,1-1.7,2.1-1.7,3.5
			c0,1.2,0.4,2.1,1.1,2.8C680.9,157.1,682,157.4,683.4,157.4z"/>
		<path d="M703.4,147.5c0-4.8,1-8.7,3.1-11.7s5-4.4,8.7-4.4c1.6,0,3.1,0.3,4.4,1c1.3,0.7,2.4,1.6,3.4,2.8v-16.7h6.8v43.7h-5.5
			l-0.8-3.8c-1,1.4-2.1,2.5-3.5,3.3c-1.4,0.8-3,1.1-4.8,1.1c-3.7,0-6.6-1.4-8.7-4.1s-3.1-6.3-3.1-10.7V147.5z M710.2,148.1
			c0,2.8,0.5,5,1.6,6.7c1.1,1.7,2.8,2.5,5.1,2.5c1.4,0,2.7-0.3,3.7-0.9s1.8-1.5,2.5-2.6v-13.2c-0.6-1.1-1.5-2-2.5-2.6
			c-1-0.6-2.2-0.9-3.6-0.9c-2.3,0-4,1-5.1,2.9c-1.1,2-1.7,4.5-1.7,7.6V148.1z"/>
		<path d="M735.9,146.8c0-4.5,1.2-8.2,3.7-11.1c2.5-2.9,5.9-4.3,10.2-4.3c4.4,0,7.8,1.4,10.2,4.3c2.5,2.9,3.7,6.6,3.7,11.1v0.6
			c0,4.6-1.2,8.3-3.7,11.1c-2.5,2.9-5.9,4.3-10.2,4.3c-4.3,0-7.7-1.4-10.2-4.3c-2.5-2.9-3.7-6.6-3.7-11.1V146.8z M742.7,147.4
			c0,3,0.6,5.4,1.7,7.2c1.2,1.8,3,2.8,5.4,2.8c2.4,0,4.2-0.9,5.3-2.8c1.2-1.9,1.8-4.3,1.8-7.2v-0.6c0-2.9-0.6-5.3-1.8-7.2
			c-1.2-1.9-3-2.8-5.4-2.8c-2.4,0-4.1,0.9-5.3,2.8s-1.8,4.3-1.8,7.2V147.4z"/>
		<path d="M786.7,154c0-1-0.4-1.9-1.3-2.6c-0.9-0.7-2.6-1.3-5-1.8c-3.6-0.7-6.3-1.8-8.2-3.2c-1.9-1.4-2.8-3.3-2.8-5.7
			c0-2.5,1.1-4.7,3.2-6.5c2.1-1.8,5-2.7,8.5-2.7c3.6,0,6.5,0.9,8.8,2.8s3.3,4.1,3.2,6.7l-0.1,0.2h-6.5c0-1.2-0.5-2.3-1.5-3.2
			c-1-0.9-2.3-1.4-3.9-1.4c-1.6,0-2.9,0.4-3.8,1.1c-0.9,0.7-1.3,1.7-1.3,2.7c0,1,0.4,1.8,1.2,2.5c0.8,0.6,2.5,1.2,5,1.7
			c3.7,0.7,6.5,1.8,8.4,3.3c1.9,1.4,2.8,3.4,2.8,5.8c0,2.7-1.1,5-3.4,6.7s-5.2,2.6-8.9,2.6c-3.9,0-7-1-9.3-3c-2.3-2-3.4-4.3-3.2-6.9
			l0.1-0.2h6.3c0.1,1.8,0.7,3,1.9,3.8s2.7,1.2,4.4,1.2c1.7,0,3.1-0.3,4-1C786.2,156,786.7,155.1,786.7,154z"/>
		<path d="M831.2,147.7h-16.5v-5.5h16.5V147.7z"/>
		<path d="M886.1,162.3h-6.8l-18.1-29.4l-0.2,0.1v29.3h-6.8v-40.8h6.8l18.1,29.4l0.2-0.1v-29.3h6.8V162.3z"/>
		<path d="M893.8,130.3c0-2.8,0.9-5,2.6-6.8c1.8-1.7,4.1-2.6,7.1-2.6c3,0,5.3,0.9,7.1,2.6c1.8,1.7,2.6,4,2.6,6.8v3.3
			c0,2.8-0.9,5-2.6,6.8c-1.8,1.7-4.1,2.6-7,2.6c-3,0-5.3-0.9-7.1-2.6s-2.6-4-2.6-6.8V130.3z M898.7,133.6c0,1.6,0.4,2.9,1.2,3.8
			c0.8,1,2,1.4,3.6,1.4c1.5,0,2.7-0.5,3.5-1.4c0.8-1,1.2-2.2,1.2-3.8v-3.3c0-1.6-0.4-2.8-1.2-3.8c-0.8-1-2-1.5-3.6-1.5
			c-1.6,0-2.8,0.5-3.6,1.5c-0.8,1-1.2,2.2-1.2,3.8V133.6z"/>
		<path d="M933.2,147.5c0-4.8,1-8.7,3.1-11.7s5-4.4,8.7-4.4c1.6,0,3.1,0.3,4.4,1c1.3,0.7,2.4,1.6,3.4,2.8v-16.7h6.8v43.7h-5.5
			l-0.8-3.8c-1,1.4-2.1,2.5-3.5,3.3c-1.4,0.8-3,1.1-4.8,1.1c-3.7,0-6.6-1.4-8.7-4.1s-3.1-6.3-3.1-10.7V147.5z M940,148.1
			c0,2.8,0.5,5,1.6,6.7c1.1,1.7,2.8,2.5,5.1,2.5c1.4,0,2.7-0.3,3.7-0.9s1.8-1.5,2.5-2.6v-13.2c-0.6-1.1-1.5-2-2.5-2.6
			c-1-0.6-2.2-0.9-3.6-0.9c-2.3,0-4,1-5.1,2.9c-1.1,2-1.7,4.5-1.7,7.6V148.1z"/>
		<path d="M979.8,162.9c-4.4,0-7.9-1.4-10.4-4.2s-3.7-6.4-3.7-10.9v-1.1c0-4.4,1.2-8.1,3.7-11c2.5-2.9,5.7-4.3,9.7-4.3
			c4.1,0,7.2,1.3,9.2,3.8s3.1,5.9,3.1,10.1v3.7h-18.7l-0.1,0.1c0.1,2.5,0.7,4.5,2,6.1c1.2,1.6,3.1,2.3,5.6,2.3
			c1.8,0,3.4-0.2,4.8-0.7c1.4-0.4,2.6-1.1,3.8-1.9l2.2,4.5c-1.2,1-2.7,1.9-4.6,2.5S982.3,162.9,979.8,162.9z M979.1,136.9
			c-1.8,0-3.2,0.6-4.3,1.9c-1.1,1.3-1.7,2.9-2,5l0.1,0.1h11.8v-0.5c0-1.9-0.5-3.5-1.4-4.7C982.5,137.5,981.1,136.9,979.1,136.9z"/>
		<path d="M1024.2,162.9c-4.4,0-7.9-1.4-10.4-4.2s-3.7-6.4-3.7-10.9v-1.1c0-4.4,1.2-8.1,3.7-11c2.5-2.9,5.7-4.3,9.7-4.3
			c4.1,0,7.2,1.3,9.2,3.8s3.1,5.9,3.1,10.1v3.7h-18.7l-0.1,0.1c0.1,2.5,0.7,4.5,2,6.1c1.2,1.6,3.1,2.3,5.6,2.3
			c1.8,0,3.4-0.2,4.8-0.7c1.4-0.4,2.6-1.1,3.8-1.9l2.2,4.5c-1.2,1-2.7,1.9-4.6,2.5S1026.6,162.9,1024.2,162.9z M1023.4,136.9
			c-1.8,0-3.2,0.6-4.3,1.9c-1.1,1.3-1.7,2.9-2,5l0.1,0.1h11.8v-0.5c0-1.9-0.5-3.5-1.4-4.7C1026.8,137.5,1025.4,136.9,1023.4,136.9z"
			/>
		<path d="M1051.5,152l0.5,2.5h0.2l0.5-2.5l6-20.1h7l-10.8,30.3h-5.9l-10.8-30.3h7L1051.5,152z"/>
		<path d="M1082.5,162.9c-4.4,0-7.9-1.4-10.4-4.2s-3.7-6.4-3.7-10.9v-1.1c0-4.4,1.2-8.1,3.7-11c2.5-2.9,5.7-4.3,9.7-4.3
			c4.1,0,7.2,1.3,9.2,3.8s3.1,5.9,3.1,10.1v3.7h-18.7l-0.1,0.1c0.1,2.5,0.7,4.5,2,6.1c1.2,1.6,3.1,2.3,5.6,2.3
			c1.8,0,3.4-0.2,4.8-0.7c1.4-0.4,2.6-1.1,3.8-1.9l2.2,4.5c-1.2,1-2.7,1.9-4.6,2.5S1085,162.9,1082.5,162.9z M1081.8,136.9
			c-1.8,0-3.2,0.6-4.3,1.9c-1.1,1.3-1.7,2.9-2,5l0.1,0.1h11.8v-0.5c0-1.9-0.5-3.5-1.4-4.7C1085.2,137.5,1083.8,136.9,1081.8,136.9z"
			/>
		<path d="M1105.9,132l0.4,4.4c1-1.5,2.2-2.8,3.7-3.6c1.5-0.9,3.2-1.3,5.1-1.3c3.2,0,5.6,1,7.4,2.9c1.8,1.9,2.6,5,2.6,9.1v18.9h-6.8
			v-18.8c0-2.4-0.5-4-1.4-5c-0.9-1-2.3-1.5-4.1-1.5c-1.5,0-2.7,0.3-3.8,0.8c-1.1,0.6-1.9,1.3-2.5,2.3v22.2h-6.8V132H1105.9z"/>
		<path d="M1140.9,124.6v7.4h5.4v5h-5.4v16.8c0,1.3,0.3,2.1,0.8,2.7c0.5,0.5,1.3,0.8,2.2,0.8c0.4,0,0.7,0,1.1-0.1s0.7-0.2,1-0.3
			l0.7,5c-0.6,0.3-1.3,0.6-2.1,0.7c-0.8,0.2-1.6,0.3-2.5,0.3c-2.5,0-4.5-0.7-5.9-2.2c-1.4-1.5-2.1-3.8-2.1-6.9V137h-4.6v-5h4.6v-7.4
			H1140.9z"/>
		<path d="M1150.6,146.8c0-4.5,1.2-8.2,3.7-11.1c2.5-2.9,5.9-4.3,10.2-4.3c4.4,0,7.8,1.4,10.2,4.3c2.5,2.9,3.7,6.6,3.7,11.1v0.6
			c0,4.6-1.2,8.3-3.7,11.1c-2.5,2.9-5.9,4.3-10.2,4.3c-4.3,0-7.7-1.4-10.2-4.3c-2.5-2.9-3.7-6.6-3.7-11.1V146.8z M1157.4,147.4
			c0,3,0.6,5.4,1.7,7.2c1.2,1.8,3,2.8,5.4,2.8c2.4,0,4.2-0.9,5.3-2.8c1.2-1.9,1.8-4.3,1.8-7.2v-0.6c0-2.9-0.6-5.3-1.8-7.2
			c-1.2-1.9-3-2.8-5.4-2.8c-2.4,0-4.1,0.9-5.3,2.8s-1.8,4.3-1.8,7.2V147.4z"/>
		<path d="M1201.4,154c0-1-0.4-1.9-1.3-2.6c-0.9-0.7-2.6-1.3-5-1.8c-3.6-0.7-6.3-1.8-8.2-3.2c-1.9-1.4-2.8-3.3-2.8-5.7
			c0-2.5,1.1-4.7,3.2-6.5c2.1-1.8,5-2.7,8.5-2.7c3.6,0,6.5,0.9,8.8,2.8s3.3,4.1,3.2,6.7l-0.1,0.2h-6.5c0-1.2-0.5-2.3-1.5-3.2
			c-1-0.9-2.3-1.4-3.9-1.4c-1.6,0-2.9,0.4-3.8,1.1c-0.9,0.7-1.3,1.7-1.3,2.7c0,1,0.4,1.8,1.2,2.5c0.8,0.6,2.5,1.2,5,1.7
			c3.7,0.7,6.5,1.8,8.4,3.3c1.9,1.4,2.8,3.4,2.8,5.8c0,2.7-1.1,5-3.4,6.7s-5.2,2.6-8.9,2.6c-3.9,0-7-1-9.3-3c-2.3-2-3.4-4.3-3.2-6.9
			l0.1-0.2h6.3c0.1,1.8,0.7,3,1.9,3.8s2.7,1.2,4.4,1.2c1.7,0,3.1-0.3,4-1C1200.9,156,1201.4,155.1,1201.4,154z"/>
		<path d="M1241.3,162.9c-4.4,0-7.9-1.4-10.4-4.2s-3.7-6.4-3.7-10.9v-1.1c0-4.4,1.2-8.1,3.7-11c2.5-2.9,5.7-4.3,9.7-4.3
			c4.1,0,7.2,1.3,9.2,3.8s3.1,5.9,3.1,10.1v3.7h-18.7l-0.1,0.1c0.1,2.5,0.7,4.5,2,6.1c1.2,1.6,3.1,2.3,5.6,2.3
			c1.8,0,3.4-0.2,4.8-0.7c1.4-0.4,2.6-1.1,3.8-1.9l2.2,4.5c-1.2,1-2.7,1.9-4.6,2.5S1243.8,162.9,1241.3,162.9z M1240.6,136.9
			c-1.8,0-3.2,0.6-4.3,1.9c-1.1,1.3-1.7,2.9-2,5l0.1,0.1h11.8v-0.5c0-1.9-0.5-3.5-1.4-4.7C1244,137.5,1242.5,136.9,1240.6,136.9z"/>
		<path d="M1268.6,152l0.5,2.5h0.2l0.5-2.5l6-20.1h7l-10.8,30.3h-5.9l-10.8-30.3h7L1268.6,152z"/>
		<path d="M1294.4,124.5h-6.8v-6h6.8V124.5z M1294.4,162.3h-6.8V132h6.8V162.3z"/>
		<path d="M1310.8,124.6v7.4h5.4v5h-5.4v16.8c0,1.3,0.3,2.1,0.8,2.7c0.5,0.5,1.3,0.8,2.2,0.8c0.4,0,0.7,0,1.1-0.1s0.7-0.2,1-0.3
			l0.7,5c-0.6,0.3-1.3,0.6-2.1,0.7c-0.8,0.2-1.6,0.3-2.5,0.3c-2.5,0-4.5-0.7-5.9-2.2c-1.4-1.5-2.1-3.8-2.1-6.9V137h-4.6v-5h4.6v-7.4
			H1310.8z"/>
		<path d="M1340,162.3c-0.2-0.8-0.4-1.5-0.6-2.2c-0.2-0.7-0.3-1.5-0.3-2.2c-0.9,1.4-2.1,2.6-3.7,3.6s-3.2,1.4-5.1,1.4
			c-3.2,0-5.6-0.8-7.3-2.4c-1.7-1.6-2.5-3.9-2.5-6.7c0-2.9,1.2-5.2,3.5-6.8c2.3-1.6,5.6-2.5,9.8-2.5h5.3v-2.7c0-1.6-0.5-2.8-1.4-3.7
			c-0.9-0.9-2.3-1.3-4-1.3c-1.5,0-2.8,0.4-3.7,1.1c-0.9,0.7-1.4,1.7-1.4,2.9l-6.6,0l0-0.2c-0.1-2.4,0.9-4.5,3.2-6.4
			c2.3-1.8,5.2-2.8,8.9-2.8c3.5,0,6.4,0.9,8.5,2.7s3.2,4.4,3.2,7.7v13.5c0,1.3,0.1,2.5,0.3,3.6s0.4,2.3,0.8,3.4H1340z M1331.6,157.4
			c1.7,0,3.2-0.4,4.6-1.3c1.4-0.9,2.3-1.8,2.7-2.9v-4.5h-5.4c-2,0-3.5,0.5-4.7,1.5c-1.1,1-1.7,2.1-1.7,3.5c0,1.2,0.4,2.1,1.1,2.8
			C1329.1,157.1,1330.2,157.4,1331.6,157.4z"/>
		<path d="M1351.6,147.5c0-4.8,1-8.7,3.1-11.7s5-4.4,8.7-4.4c1.6,0,3.1,0.3,4.4,1c1.3,0.7,2.4,1.6,3.4,2.8v-16.7h6.8v43.7h-5.5
			l-0.8-3.8c-1,1.4-2.1,2.5-3.5,3.3c-1.4,0.8-3,1.1-4.8,1.1c-3.7,0-6.6-1.4-8.7-4.1s-3.1-6.3-3.1-10.7V147.5z M1358.5,148.1
			c0,2.8,0.5,5,1.6,6.7c1.1,1.7,2.8,2.5,5.1,2.5c1.4,0,2.7-0.3,3.7-0.9s1.8-1.5,2.5-2.6v-13.2c-0.6-1.1-1.5-2-2.5-2.6
			c-1-0.6-2.2-0.9-3.6-0.9c-2.3,0-4,1-5.1,2.9c-1.1,2-1.7,4.5-1.7,7.6V148.1z"/>
		<path d="M1384.1,146.8c0-4.5,1.2-8.2,3.7-11.1c2.5-2.9,5.9-4.3,10.2-4.3c4.4,0,7.8,1.4,10.2,4.3c2.5,2.9,3.7,6.6,3.7,11.1v0.6
			c0,4.6-1.2,8.3-3.7,11.1c-2.5,2.9-5.9,4.3-10.2,4.3c-4.3,0-7.7-1.4-10.2-4.3c-2.5-2.9-3.7-6.6-3.7-11.1V146.8z M1390.9,147.4
			c0,3,0.6,5.4,1.7,7.2c1.2,1.8,3,2.8,5.4,2.8c2.4,0,4.2-0.9,5.3-2.8c1.2-1.9,1.8-4.3,1.8-7.2v-0.6c0-2.9-0.6-5.3-1.8-7.2
			c-1.2-1.9-3-2.8-5.4-2.8c-2.4,0-4.1,0.9-5.3,2.8s-1.8,4.3-1.8,7.2V147.4z"/>
		<path d="M1434.9,154c0-1-0.4-1.9-1.3-2.6c-0.9-0.7-2.6-1.3-5-1.8c-3.6-0.7-6.3-1.8-8.2-3.2c-1.9-1.4-2.8-3.3-2.8-5.7
			c0-2.5,1.1-4.7,3.2-6.5c2.1-1.8,5-2.7,8.5-2.7c3.6,0,6.5,0.9,8.8,2.8s3.3,4.1,3.2,6.7l-0.1,0.2h-6.5c0-1.2-0.5-2.3-1.5-3.2
			c-1-0.9-2.3-1.4-3.9-1.4c-1.6,0-2.9,0.4-3.8,1.1c-0.9,0.7-1.3,1.7-1.3,2.7c0,1,0.4,1.8,1.2,2.5c0.8,0.6,2.5,1.2,5,1.7
			c3.7,0.7,6.5,1.8,8.4,3.3c1.9,1.4,2.8,3.4,2.8,5.8c0,2.7-1.1,5-3.4,6.7s-5.2,2.6-8.9,2.6c-3.9,0-7-1-9.3-3c-2.3-2-3.4-4.3-3.2-6.9
			l0.1-0.2h6.3c0.1,1.8,0.7,3,1.9,3.8s2.7,1.2,4.4,1.2c1.7,0,3.1-0.3,4-1C1434.4,156,1434.9,155.1,1434.9,154z"/>
	</g>
	<g>
		<path d="M1452.2,181.3h-3.3v-16.7h-4.2v-2.6l7.5-0.7V181.3z"/>
	</g>
	<g>
		<path d="M807.6,181.3h-12.8V179l6.2-7.1c1-1.2,1.7-2.2,2.1-2.9c0.4-0.8,0.6-1.5,0.6-2.2c0-0.8-0.2-1.5-0.7-2.1s-1.1-0.8-2-0.8
			c-1,0-1.8,0.3-2.3,1c-0.5,0.7-0.8,1.5-0.8,2.5h-3.2l0-0.1c0-1.7,0.5-3.1,1.7-4.3c1.2-1.2,2.7-1.8,4.7-1.8c1.9,0,3.4,0.5,4.4,1.5
			s1.6,2.3,1.6,4c0,1.1-0.3,2.2-0.9,3.1c-0.6,1-1.6,2.3-2.9,3.9l-4.2,4.8l0,0.1h8.6V181.3z"/>
	</g>
</g>
<g>
	<rect x="189" y="94.5" width="1281.5" height="5"/>
</g>
</svg>
