<?xml version="1.0" encoding="utf-8"?>
<!-- Generator: Adobe Illustrator 28.0.0, SVG Export Plug-In . SVG Version: 6.00 Build 0)  -->
<svg version="1.1" id="Layer_1" xmlns="http://www.w3.org/2000/svg" xmlns:xlink="http://www.w3.org/1999/xlink" x="0px" y="0px"
	 viewBox="0 0 1632 323" style="enable-background:new 0 0 1632 323;" xml:space="preserve">
<style type="text/css">
	.st0{enable-background:new    ;}
</style>
<g class="st0">
	<path d="M25.7,177.8h-6.8V137h6.8V177.8z M24.4,125.5h7.7l0.1,0.2l-7.6,7.3h-5.5L24.4,125.5z"/>
	<path d="M40.3,147.5l0.4,4.4c1-1.5,2.2-2.8,3.7-3.6c1.5-0.9,3.2-1.3,5.1-1.3c3.2,0,5.6,1,7.4,2.9c1.8,1.9,2.6,5,2.6,9.1v18.9h-6.8
		V159c0-2.4-0.5-4-1.4-5c-0.9-1-2.3-1.5-4.1-1.5c-1.5,0-2.7,0.3-3.8,0.8s-1.9,1.3-2.5,2.3v22.2h-6.8v-30.3H40.3z"/>
	<path d="M65.4,163c0-4.8,1-8.7,3.1-11.7c2.1-3,5-4.4,8.7-4.4c1.6,0,3.1,0.3,4.4,1c1.3,0.7,2.4,1.6,3.4,2.8v-16.7h6.8v43.7h-5.5
		l-0.8-3.8c-1,1.4-2.1,2.5-3.5,3.3c-1.4,0.8-3,1.1-4.8,1.1c-3.7,0-6.6-1.4-8.7-4.1c-2.1-2.7-3.1-6.3-3.1-10.7V163z M72.2,163.6
		c0,2.8,0.5,5,1.6,6.7s2.8,2.5,5.1,2.5c1.4,0,2.7-0.3,3.7-0.9s1.8-1.5,2.5-2.6V156c-0.6-1.1-1.5-2-2.5-2.6c-1-0.6-2.2-0.9-3.6-0.9
		c-2.3,0-4,1-5.1,2.9c-1.1,2-1.7,4.5-1.7,7.6V163.6z"/>
	<path d="M106.4,140h-6.8v-6h6.8V140z M106.4,177.8h-6.8v-30.3h6.8V177.8z"/>
	<path d="M126.3,172.9c1.6,0,2.9-0.5,3.9-1.5c1.1-1,1.6-2.2,1.6-3.7h6.2l0.1,0.2c0.1,2.8-1.1,5.3-3.4,7.3c-2.3,2.1-5.1,3.1-8.4,3.1
		c-4.4,0-7.7-1.4-10.1-4.3c-2.4-2.9-3.6-6.5-3.6-10.9v-1c0-4.4,1.2-8,3.6-10.9c2.4-2.9,5.7-4.3,10.1-4.3c3.5,0,6.4,1.1,8.6,3.2
		c2.2,2.1,3.3,4.8,3.2,8.1l-0.1,0.2h-6.2c0-1.7-0.5-3.1-1.5-4.2c-1-1.2-2.4-1.7-4-1.7c-2.4,0-4.2,0.9-5.2,2.8
		c-1.1,1.9-1.6,4.2-1.6,7v1c0,2.8,0.5,5.2,1.6,7C122.1,172,123.9,172.9,126.3,172.9z"/>
	<path d="M156.7,178.4c-4.4,0-7.9-1.4-10.4-4.2s-3.7-6.4-3.7-10.9v-1.1c0-4.4,1.2-8.1,3.7-11c2.5-2.9,5.7-4.3,9.7-4.3
		c4.1,0,7.2,1.3,9.2,3.8c2.1,2.5,3.1,5.9,3.1,10.1v3.7h-18.7l-0.1,0.1c0.1,2.5,0.7,4.5,2,6.1c1.2,1.5,3.1,2.3,5.6,2.3
		c1.8,0,3.5-0.2,4.8-0.7s2.6-1.1,3.8-1.9l2.2,4.5c-1.2,1-2.7,1.9-4.6,2.5S159.2,178.4,156.7,178.4z M155.9,152.4
		c-1.8,0-3.2,0.6-4.3,1.9s-1.7,2.9-2,5l0.1,0.1h11.8v-0.5c0-1.9-0.5-3.5-1.4-4.7C159.3,153,157.9,152.4,155.9,152.4z"/>
	<path d="M186.9,163c0-4.8,1-8.7,3.1-11.7c2.1-3,5-4.4,8.7-4.4c1.6,0,3.1,0.3,4.4,1c1.3,0.7,2.4,1.6,3.4,2.8v-16.7h6.8v43.7h-5.5
		l-0.8-3.8c-1,1.4-2.1,2.5-3.5,3.3c-1.4,0.8-3,1.1-4.8,1.1c-3.7,0-6.6-1.4-8.7-4.1c-2.1-2.7-3.1-6.3-3.1-10.7V163z M193.7,163.6
		c0,2.8,0.5,5,1.6,6.7s2.8,2.5,5.1,2.5c1.4,0,2.7-0.3,3.7-0.9s1.8-1.5,2.5-2.6V156c-0.6-1.1-1.5-2-2.5-2.6c-1-0.6-2.2-0.9-3.6-0.9
		c-2.3,0-4,1-5.1,2.9c-1.1,2-1.7,4.5-1.7,7.6V163.6z"/>
	<path d="M233.5,178.4c-4.4,0-7.9-1.4-10.4-4.2s-3.7-6.4-3.7-10.9v-1.1c0-4.4,1.2-8.1,3.7-11c2.5-2.9,5.7-4.3,9.7-4.3
		c4.1,0,7.2,1.3,9.2,3.8c2.1,2.5,3.1,5.9,3.1,10.1v3.7h-18.7l-0.1,0.1c0.1,2.5,0.7,4.5,2,6.1c1.2,1.5,3.1,2.3,5.6,2.3
		c1.8,0,3.5-0.2,4.8-0.7s2.6-1.1,3.8-1.9l2.2,4.5c-1.2,1-2.7,1.9-4.6,2.5S236,178.4,233.5,178.4z M232.8,152.4
		c-1.8,0-3.2,0.6-4.3,1.9s-1.7,2.9-2,5l0.1,0.1h11.8v-0.5c0-1.9-0.5-3.5-1.4-4.7C236.1,153,234.7,152.4,232.8,152.4z"/>
	<path d="M267.2,177.8v-25.3h-4.6v-5h4.6v-3.5c0-3.3,0.9-5.9,2.7-7.7s4.4-2.7,7.7-2.7c0.7,0,1.3,0.1,2,0.2s1.4,0.2,2.3,0.4l-0.7,5.3
		c-0.4-0.1-0.8-0.1-1.2-0.2c-0.5-0.1-0.9-0.1-1.5-0.1c-1.5,0-2.6,0.4-3.3,1.3c-0.7,0.8-1.1,2-1.1,3.6v3.5h5.6v5H274v25.3H267.2z"/>
	<path d="M299.5,153.6l-2.9-0.1c-1.3,0-2.4,0.3-3.3,0.8c-0.9,0.6-1.6,1.4-2.1,2.4v21.1h-6.8v-30.3h6.2l0.4,4.4
		c0.8-1.5,1.8-2.8,3-3.6c1.2-0.9,2.6-1.3,4.2-1.3c0.4,0,0.8,0,1.1,0.1c0.4,0.1,0.7,0.1,1,0.2L299.5,153.6z"/>
	<path d="M316.8,178.4c-4.4,0-7.9-1.4-10.4-4.2s-3.7-6.4-3.7-10.9v-1.1c0-4.4,1.2-8.1,3.7-11c2.5-2.9,5.7-4.3,9.7-4.3
		c4.1,0,7.2,1.3,9.2,3.8c2.1,2.5,3.1,5.9,3.1,10.1v3.7h-18.7l-0.1,0.1c0.1,2.5,0.7,4.5,2,6.1c1.2,1.5,3.1,2.3,5.6,2.3
		c1.8,0,3.5-0.2,4.8-0.7s2.6-1.1,3.8-1.9l2.2,4.5c-1.2,1-2.7,1.9-4.6,2.5S319.3,178.4,316.8,178.4z M316.1,152.4
		c-1.8,0-3.2,0.6-4.3,1.9s-1.7,2.9-2,5l0.1,0.1h11.8v-0.5c0-1.9-0.5-3.5-1.4-4.7C319.5,153,318.1,152.4,316.1,152.4z"/>
	<path d="M332.7,163c0-4.8,1-8.7,3.1-11.7c2.1-3,5-4.4,8.7-4.4c1.8,0,3.3,0.4,4.7,1.1c1.3,0.7,2.5,1.8,3.4,3.1l0.8-3.7h5.5v42h-6.8
		v-14.5c-0.9,1.1-2,2-3.3,2.6c-1.3,0.6-2.7,0.9-4.3,0.9c-3.7,0-6.6-1.4-8.7-4.1c-2.1-2.7-3.1-6.3-3.1-10.7V163z M339.5,163.6
		c0,2.8,0.5,5.1,1.6,6.8c1.1,1.7,2.8,2.5,5.1,2.5c1.4,0,2.6-0.3,3.5-0.8c1-0.6,1.8-1.3,2.4-2.4v-14.1c-0.6-1-1.4-1.8-2.4-2.4
		c-1-0.6-2.1-0.9-3.4-0.9c-2.3,0-4,1-5.1,3c-1.1,2-1.7,4.6-1.7,7.7V163.6z"/>
	<path d="M385.4,173.3c-0.9,1.6-2.1,2.9-3.6,3.8c-1.5,0.9-3.2,1.3-5.1,1.3c-3.2,0-5.8-1.1-7.6-3.2c-1.8-2.1-2.7-5.5-2.7-10v-17.7
		h6.8v17.8c0,2.9,0.4,4.9,1.3,6c0.8,1.1,2.1,1.6,3.9,1.6c1.6,0,3-0.3,4.1-0.9c1.1-0.6,2-1.4,2.6-2.6v-21.9h6.8v30.3H386L385.4,173.3
		z"/>
	<path d="M411.8,178.4c-4.4,0-7.9-1.4-10.4-4.2s-3.7-6.4-3.7-10.9v-1.1c0-4.4,1.2-8.1,3.7-11c2.5-2.9,5.7-4.3,9.7-4.3
		c4.1,0,7.2,1.3,9.2,3.8c2.1,2.5,3.1,5.9,3.1,10.1v3.7h-18.7l-0.1,0.1c0.1,2.5,0.7,4.5,2,6.1c1.2,1.5,3.1,2.3,5.6,2.3
		c1.8,0,3.5-0.2,4.8-0.7s2.6-1.1,3.8-1.9l2.2,4.5c-1.2,1-2.7,1.9-4.6,2.5S414.3,178.4,411.8,178.4z M420,141.3v0.7h-5.5l-4-3.9
		l-4,3.9h-5.4v-0.7l7.4-6.7h4L420,141.3z M411.1,152.4c-1.8,0-3.2,0.6-4.3,1.9s-1.7,2.9-2,5l0.1,0.1h11.8v-0.5
		c0-1.9-0.5-3.5-1.4-4.7C414.5,153,413.1,152.4,411.1,152.4z"/>
	<path d="M435.2,147.5l0.4,4.4c1-1.5,2.2-2.8,3.7-3.6c1.5-0.9,3.2-1.3,5.1-1.3c3.2,0,5.6,1,7.4,2.9c1.8,1.9,2.6,5,2.6,9.1v18.9h-6.8
		V159c0-2.4-0.5-4-1.4-5c-0.9-1-2.3-1.5-4.1-1.5c-1.5,0-2.7,0.3-3.8,0.8s-1.9,1.3-2.5,2.3v22.2H429v-30.3H435.2z"/>
	<path d="M473.9,172.9c1.6,0,2.9-0.5,3.9-1.5c1.1-1,1.6-2.2,1.6-3.7h6.2l0.1,0.2c0.1,2.8-1.1,5.3-3.4,7.3c-2.3,2.1-5.1,3.1-8.4,3.1
		c-4.4,0-7.7-1.4-10.1-4.3c-2.4-2.9-3.6-6.5-3.6-10.9v-1c0-4.4,1.2-8,3.6-10.9c2.4-2.9,5.7-4.3,10.1-4.3c3.5,0,6.4,1.1,8.6,3.2
		c2.2,2.1,3.3,4.8,3.2,8.1l-0.1,0.2h-6.2c0-1.7-0.5-3.1-1.5-4.2c-1-1.2-2.4-1.7-4-1.7c-2.4,0-4.2,0.9-5.2,2.8
		c-1.1,1.9-1.6,4.2-1.6,7v1c0,2.8,0.5,5.2,1.6,7C469.6,172,471.4,172.9,473.9,172.9z"/>
	<path d="M498.6,140h-6.8v-6h6.8V140z M498.6,177.8h-6.8v-30.3h6.8V177.8z"/>
	<path d="M524.5,177.8c-0.2-0.8-0.4-1.5-0.6-2.2s-0.3-1.5-0.3-2.2c-0.9,1.4-2.1,2.6-3.7,3.6c-1.5,1-3.2,1.4-5.1,1.4
		c-3.2,0-5.6-0.8-7.3-2.4c-1.7-1.6-2.5-3.9-2.5-6.7c0-2.9,1.2-5.2,3.5-6.8c2.3-1.6,5.6-2.5,9.8-2.5h5.3v-2.7c0-1.6-0.5-2.8-1.4-3.7
		c-0.9-0.9-2.3-1.3-4-1.3c-1.6,0-2.8,0.4-3.7,1.1c-0.9,0.7-1.4,1.7-1.4,2.9l-6.6,0l0-0.2c-0.1-2.4,0.9-4.5,3.2-6.4s5.2-2.8,8.9-2.8
		c3.5,0,6.4,0.9,8.5,2.7c2.2,1.8,3.2,4.4,3.2,7.7v13.5c0,1.3,0.1,2.5,0.3,3.6c0.2,1.1,0.4,2.3,0.8,3.4H524.5z M516.2,172.9
		c1.7,0,3.2-0.4,4.6-1.3c1.4-0.9,2.3-1.8,2.7-2.9v-4.5h-5.4c-2,0-3.5,0.5-4.6,1.5s-1.7,2.1-1.7,3.5c0,1.2,0.4,2.1,1.1,2.8
		S514.7,172.9,516.2,172.9z"/>
</g>
<g class="st0">
	<path d="M680.2,44l0.4,4.4c1-1.5,2.2-2.8,3.7-3.6c1.5-0.9,3.2-1.3,5.1-1.3c3.2,0,5.6,1,7.4,2.9c1.8,1.9,2.6,5,2.6,9.1v18.9h-6.8
		V55.5c0-2.4-0.5-4-1.4-5c-0.9-1-2.3-1.5-4.1-1.5c-1.5,0-2.7,0.3-3.8,0.8s-1.9,1.3-2.5,2.3v22.2H674V44H680.2z"/>
	<path d="M725.5,69.8c-0.9,1.6-2.1,2.9-3.6,3.8c-1.5,0.9-3.2,1.3-5.1,1.3c-3.2,0-5.8-1.1-7.6-3.2c-1.8-2.1-2.7-5.5-2.7-10V44h6.8
		v17.8c0,2.9,0.4,4.9,1.3,6c0.8,1.1,2.1,1.6,3.9,1.6c1.6,0,3-0.3,4.1-0.9c1.1-0.6,2-1.4,2.6-2.6V44h6.8v30.3h-5.9L725.5,69.8z
		 M721.3,31.6h7.7l0.1,0.2l-7.6,7.3H716L721.3,31.6z"/>
	<path d="M745.3,44l0.4,3.9c1-1.4,2.2-2.5,3.7-3.3s3.2-1.2,5.2-1.2c2,0,3.7,0.4,5.1,1.3c1.4,0.9,2.5,2.2,3.2,4c0.9-1.7,2.2-3,3.7-4
		s3.3-1.4,5.4-1.4c3,0,5.4,1.1,7.2,3.2c1.8,2.1,2.6,5.3,2.6,9.6v18.1H775V56.2c0-2.7-0.4-4.5-1.3-5.6s-2.2-1.6-4-1.6
		c-1.5,0-2.7,0.4-3.7,1.2c-1,0.8-1.7,1.8-2.2,3.2c0,0.3,0,0.5,0,0.7c0,0.2,0,0.4,0,0.6v19.6H757V56.2c0-2.6-0.5-4.4-1.4-5.5
		c-0.9-1.1-2.2-1.7-4-1.7c-1.4,0-2.6,0.3-3.5,0.8c-1,0.5-1.7,1.3-2.3,2.3v22.2H739V44H745.3z"/>
	<path d="M801.8,74.9c-4.4,0-7.9-1.4-10.4-4.2s-3.7-6.4-3.7-10.9v-1.1c0-4.4,1.2-8.1,3.7-11c2.5-2.9,5.7-4.3,9.7-4.3
		c4.1,0,7.2,1.3,9.2,3.8c2.1,2.5,3.1,5.9,3.1,10.1v3.7h-18.7l-0.1,0.1c0.1,2.5,0.7,4.5,2,6.1c1.2,1.5,3.1,2.3,5.6,2.3
		c1.8,0,3.5-0.2,4.8-0.7s2.6-1.1,3.8-1.9l2.2,4.5c-1.2,1-2.7,1.9-4.6,2.5S804.3,74.9,801.8,74.9z M801.1,48.9
		c-1.8,0-3.2,0.6-4.3,1.9s-1.7,2.9-2,5l0.1,0.1h11.8v-0.5c0-1.9-0.5-3.5-1.4-4.7C804.5,49.5,803,48.9,801.1,48.9z"/>
	<path d="M834.1,50.1l-2.9-0.1c-1.3,0-2.4,0.3-3.3,0.8c-0.9,0.6-1.6,1.4-2.1,2.4v21.1H819V44h6.2l0.4,4.4c0.8-1.5,1.8-2.8,3-3.6
		c1.2-0.9,2.6-1.3,4.2-1.3c0.4,0,0.8,0,1.1,0.1s0.7,0.1,1,0.2L834.1,50.1z"/>
	<path d="M837.3,58.8c0-4.5,1.2-8.2,3.7-11.1s5.9-4.3,10.2-4.3c4.4,0,7.8,1.4,10.2,4.3s3.7,6.6,3.7,11.1v0.6c0,4.6-1.2,8.3-3.7,11.1
		c-2.5,2.9-5.9,4.3-10.2,4.3c-4.3,0-7.7-1.4-10.2-4.3s-3.7-6.6-3.7-11.1V58.8z M844.1,59.4c0,3,0.6,5.4,1.7,7.2
		c1.2,1.8,3,2.8,5.4,2.8c2.4,0,4.1-0.9,5.3-2.8c1.2-1.9,1.8-4.3,1.8-7.2v-0.6c0-2.9-0.6-5.3-1.8-7.2c-1.2-1.9-3-2.8-5.4-2.8
		c-2.4,0-4.1,0.9-5.3,2.8c-1.2,1.9-1.8,4.3-1.8,7.2V59.4z"/>
	<path d="M884.1,59.5c0-4.8,1-8.7,3.1-11.7s5-4.4,8.7-4.4c1.6,0,3.1,0.3,4.4,1c1.3,0.7,2.4,1.6,3.4,2.8V30.6h6.8v43.7H905l-0.8-3.8
		c-1,1.4-2.1,2.5-3.5,3.3c-1.4,0.8-3,1.1-4.8,1.1c-3.7,0-6.6-1.4-8.7-4.1s-3.1-6.3-3.1-10.7V59.5z M890.9,60.1c0,2.8,0.5,5,1.6,6.7
		c1.1,1.7,2.8,2.5,5.1,2.5c1.4,0,2.7-0.3,3.7-0.9s1.8-1.5,2.5-2.6V52.5c-0.6-1.1-1.5-2-2.5-2.6c-1-0.6-2.2-0.9-3.6-0.9
		c-2.3,0-4,1-5.1,2.9c-1.1,2-1.7,4.5-1.7,7.6V60.1z"/>
	<path d="M930.7,74.9c-4.4,0-7.9-1.4-10.4-4.2s-3.7-6.4-3.7-10.9v-1.1c0-4.4,1.2-8.1,3.7-11c2.5-2.9,5.7-4.3,9.7-4.3
		c4.1,0,7.2,1.3,9.2,3.8c2.1,2.5,3.1,5.9,3.1,10.1v3.7h-18.7l-0.1,0.1c0.1,2.5,0.7,4.5,2,6.1s3.1,2.3,5.6,2.3c1.8,0,3.5-0.2,4.8-0.7
		c1.4-0.4,2.6-1.1,3.8-1.9l2.2,4.5c-1.2,1-2.7,1.9-4.6,2.5C935.4,74.5,933.2,74.9,930.7,74.9z M929.9,48.9c-1.8,0-3.2,0.6-4.3,1.9
		s-1.7,2.9-2,5l0.1,0.1h11.8v-0.5c0-1.9-0.5-3.5-1.4-4.7C933.3,49.5,931.9,48.9,929.9,48.9z"/>
	<path d="M988.7,60.1c0,4.4-1,8-3.1,10.7c-2.1,2.7-5,4-8.7,4c-1.9,0-3.6-0.4-5-1.2c-1.4-0.8-2.6-1.9-3.5-3.4l-0.8,4h-5.5V30.6h6.8
		v16.8c0.9-1.3,2.1-2.3,3.4-3c1.3-0.7,2.8-1,4.6-1c3.8,0,6.7,1.5,8.8,4.4c2.1,3,3.1,6.9,3.1,11.7V60.1z M981.9,59.5
		c0-3.2-0.5-5.7-1.6-7.6s-2.8-2.9-5.2-2.9c-1.5,0-2.8,0.3-3.8,1c-1,0.7-1.8,1.6-2.4,2.8v12.7c0.6,1.2,1.4,2.2,2.4,2.8
		c1,0.7,2.3,1,3.9,1c2.4,0,4.1-0.8,5.1-2.5c1.1-1.7,1.6-3.9,1.6-6.7V59.5z"/>
	<path d="M1007.5,74.9c-4.4,0-7.9-1.4-10.4-4.2s-3.7-6.4-3.7-10.9v-1.1c0-4.4,1.2-8.1,3.7-11c2.5-2.9,5.7-4.3,9.7-4.3
		c4.1,0,7.2,1.3,9.2,3.8c2.1,2.5,3.1,5.9,3.1,10.1v3.7h-18.7l-0.1,0.1c0.1,2.5,0.7,4.5,2,6.1s3.1,2.3,5.6,2.3c1.8,0,3.5-0.2,4.8-0.7
		c1.4-0.4,2.6-1.1,3.8-1.9l2.2,4.5c-1.2,1-2.7,1.9-4.6,2.5C1012.2,74.5,1010,74.9,1007.5,74.9z M1006.8,48.9c-1.8,0-3.2,0.6-4.3,1.9
		s-1.7,2.9-2,5l0.1,0.1h11.8v-0.5c0-1.9-0.5-3.5-1.4-4.7C1010.1,49.5,1008.7,48.9,1006.8,48.9z"/>
	<path d="M1030.8,44l0.4,4.4c1-1.5,2.2-2.8,3.7-3.6c1.5-0.9,3.2-1.3,5.1-1.3c3.2,0,5.6,1,7.4,2.9c1.8,1.9,2.6,5,2.6,9.1v18.9h-6.8
		V55.5c0-2.4-0.5-4-1.4-5s-2.3-1.5-4.1-1.5c-1.5,0-2.7,0.3-3.8,0.8s-1.9,1.3-2.5,2.3v22.2h-6.8V44H1030.8z"/>
	<path d="M1070,74.9c-4.4,0-7.9-1.4-10.4-4.2s-3.7-6.4-3.7-10.9v-1.1c0-4.4,1.2-8.1,3.7-11c2.5-2.9,5.7-4.3,9.7-4.3
		c4.1,0,7.2,1.3,9.2,3.8c2.1,2.5,3.1,5.9,3.1,10.1v3.7h-18.7l-0.1,0.1c0.1,2.5,0.7,4.5,2,6.1s3.1,2.3,5.6,2.3c1.8,0,3.5-0.2,4.8-0.7
		c1.4-0.4,2.6-1.1,3.8-1.9l2.2,4.5c-1.2,1-2.7,1.9-4.6,2.5C1074.7,74.5,1072.5,74.9,1070,74.9z M1069.3,48.9c-1.8,0-3.2,0.6-4.3,1.9
		s-1.7,2.9-2,5l0.1,0.1h11.8v-0.5c0-1.9-0.5-3.5-1.4-4.7C1072.7,49.5,1071.2,48.9,1069.3,48.9z"/>
	<path d="M1089.4,74.3V49h-4.6v-5h4.6v-3.5c0-3.3,0.9-5.9,2.7-7.7c1.8-1.8,4.4-2.7,7.7-2.7c0.7,0,1.3,0.1,2,0.2
		c0.7,0.1,1.4,0.2,2.3,0.4l-0.7,5.3c-0.4-0.1-0.8-0.1-1.2-0.2c-0.5-0.1-0.9-0.1-1.5-0.1c-1.5,0-2.6,0.4-3.3,1.3
		c-0.7,0.8-1.1,2-1.1,3.6V44h5.6v5h-5.6v25.3H1089.4z"/>
	<path d="M1113.8,74.3h-6.8V44h6.8V74.3z M1112.6,31.6h7.7l0.1,0.2l-7.6,7.3h-5.5L1112.6,31.6z"/>
	<path d="M1134,69.4c1.5,0,2.9-0.5,3.9-1.5s1.6-2.2,1.6-3.7h6.2l0.1,0.2c0.1,2.8-1.1,5.3-3.4,7.3c-2.3,2.1-5.1,3.1-8.4,3.1
		c-4.4,0-7.7-1.4-10.1-4.3c-2.4-2.9-3.6-6.5-3.6-10.9v-1c0-4.4,1.2-8,3.6-10.9c2.4-2.9,5.7-4.3,10.1-4.3c3.5,0,6.4,1.1,8.6,3.2
		c2.2,2.1,3.3,4.8,3.2,8.1l-0.1,0.2h-6.2c0-1.7-0.5-3.1-1.5-4.2c-1-1.2-2.4-1.7-4-1.7c-2.4,0-4.2,0.9-5.2,2.8
		c-1.1,1.9-1.6,4.2-1.6,7v1c0,2.8,0.5,5.2,1.6,7C1129.8,68.5,1131.6,69.4,1134,69.4z"/>
	<path d="M1158.8,36.5h-6.8v-6h6.8V36.5z M1158.8,74.3h-6.8V44h6.8V74.3z"/>
	<path d="M1165.1,58.8c0-4.5,1.2-8.2,3.7-11.1s5.9-4.3,10.2-4.3c4.4,0,7.8,1.4,10.2,4.3s3.7,6.6,3.7,11.1v0.6
		c0,4.6-1.2,8.3-3.7,11.1c-2.5,2.9-5.9,4.3-10.2,4.3c-4.3,0-7.7-1.4-10.2-4.3s-3.7-6.6-3.7-11.1V58.8z M1171.9,59.4
		c0,3,0.6,5.4,1.7,7.2c1.2,1.8,3,2.8,5.4,2.8c2.4,0,4.1-0.9,5.3-2.8c1.2-1.9,1.8-4.3,1.8-7.2v-0.6c0-2.9-0.6-5.3-1.8-7.2
		c-1.2-1.9-3-2.8-5.4-2.8c-2.4,0-4.1,0.9-5.3,2.8c-1.2,1.9-1.8,4.3-1.8,7.2V59.4z"/>
	<path d="M1215.9,66c0-1-0.4-1.9-1.3-2.6s-2.6-1.3-5-1.8c-3.6-0.7-6.3-1.8-8.2-3.2c-1.9-1.4-2.8-3.3-2.8-5.7c0-2.5,1.1-4.7,3.2-6.5
		c2.1-1.8,5-2.7,8.5-2.7c3.6,0,6.5,0.9,8.8,2.8c2.2,1.9,3.3,4.1,3.2,6.7l-0.1,0.2h-6.5c0-1.2-0.5-2.3-1.5-3.2
		c-1-0.9-2.3-1.4-3.9-1.4c-1.6,0-2.9,0.4-3.8,1.1c-0.9,0.7-1.3,1.7-1.3,2.7c0,1,0.4,1.8,1.2,2.5c0.8,0.6,2.5,1.2,5,1.7
		c3.7,0.7,6.5,1.8,8.4,3.3c1.9,1.4,2.8,3.4,2.8,5.8c0,2.7-1.1,5-3.4,6.7c-2.3,1.7-5.2,2.6-8.9,2.6c-3.9,0-7.1-1-9.3-3
		c-2.3-2-3.4-4.3-3.2-6.9l0.1-0.2h6.3c0.1,1.8,0.7,3,1.9,3.8c1.2,0.8,2.7,1.2,4.4,1.2c1.7,0,3.1-0.3,4-1
		C1215.4,68,1215.9,67.1,1215.9,66z"/>
	<path d="M1261.3,74.3c-0.2-0.8-0.4-1.5-0.6-2.2c-0.2-0.7-0.3-1.5-0.3-2.2c-0.9,1.4-2.1,2.6-3.7,3.6s-3.2,1.4-5.1,1.4
		c-3.2,0-5.6-0.8-7.3-2.4s-2.5-3.9-2.5-6.7c0-2.9,1.2-5.2,3.5-6.8c2.3-1.6,5.6-2.5,9.8-2.5h5.3v-2.7c0-1.6-0.5-2.8-1.4-3.7
		c-0.9-0.9-2.3-1.3-4-1.3c-1.5,0-2.8,0.4-3.7,1.1c-0.9,0.7-1.4,1.7-1.4,2.9l-6.6,0l0-0.2c-0.1-2.4,0.9-4.5,3.2-6.4
		c2.3-1.8,5.2-2.8,8.9-2.8c3.5,0,6.4,0.9,8.5,2.7c2.2,1.8,3.2,4.4,3.2,7.7v13.5c0,1.3,0.1,2.5,0.3,3.6c0.2,1.1,0.4,2.3,0.8,3.4
		H1261.3z M1252.9,69.4c1.7,0,3.2-0.4,4.6-1.3c1.4-0.9,2.3-1.8,2.7-2.9v-4.5h-5.4c-2,0-3.5,0.5-4.6,1.5c-1.1,1-1.7,2.1-1.7,3.5
		c0,1.2,0.4,2.1,1.1,2.8C1250.4,69.1,1251.5,69.4,1252.9,69.4z"/>
	<path d="M1286.5,69.4c1.6,0,2.9-0.5,3.9-1.5c1.1-1,1.6-2.2,1.6-3.7h6.2l0.1,0.2c0.1,2.8-1.1,5.3-3.4,7.3c-2.3,2.1-5.1,3.1-8.4,3.1
		c-4.4,0-7.7-1.4-10.1-4.3c-2.4-2.9-3.6-6.5-3.6-10.9v-1c0-4.4,1.2-8,3.6-10.9c2.4-2.9,5.7-4.3,10.1-4.3c3.5,0,6.4,1.1,8.6,3.2
		c2.2,2.1,3.3,4.8,3.2,8.1l-0.1,0.2h-6.2c0-1.7-0.5-3.1-1.5-4.2c-1-1.2-2.4-1.7-4-1.7c-2.4,0-4.2,0.9-5.2,2.8
		c-1.1,1.9-1.6,4.2-1.6,7v1c0,2.8,0.5,5.2,1.6,7C1282.3,68.5,1284.1,69.4,1286.5,69.4z"/>
	<path d="M1311.3,36.5h-6.8v-6h6.8V36.5z M1311.3,74.3h-6.8V44h6.8V74.3z"/>
	<path d="M1317.6,59.5c0-4.8,1-8.7,3.1-11.7c2.1-3,5-4.4,8.7-4.4c1.6,0,3.1,0.3,4.4,1s2.4,1.6,3.4,2.8V30.6h6.8v43.7h-5.5l-0.8-3.8
		c-1,1.4-2.1,2.5-3.5,3.3c-1.4,0.8-3,1.1-4.8,1.1c-3.7,0-6.6-1.4-8.7-4.1c-2.1-2.7-3.1-6.3-3.1-10.7V59.5z M1324.4,60.1
		c0,2.8,0.5,5,1.6,6.7c1.1,1.7,2.8,2.5,5.1,2.5c1.4,0,2.7-0.3,3.7-0.9s1.8-1.5,2.5-2.6V52.5c-0.6-1.1-1.5-2-2.5-2.6
		c-1-0.6-2.2-0.9-3.6-0.9c-2.3,0-4,1-5.1,2.9c-1.1,2-1.7,4.5-1.7,7.6V60.1z"/>
	<path d="M1364.3,74.9c-4.4,0-7.9-1.4-10.4-4.2c-2.5-2.8-3.7-6.4-3.7-10.9v-1.1c0-4.4,1.2-8.1,3.7-11c2.5-2.9,5.7-4.3,9.7-4.3
		c4.1,0,7.2,1.3,9.2,3.8c2.1,2.5,3.1,5.9,3.1,10.1v3.7h-18.7l-0.1,0.1c0.1,2.5,0.7,4.5,2,6.1s3.1,2.3,5.6,2.3c1.8,0,3.4-0.2,4.8-0.7
		c1.4-0.4,2.6-1.1,3.8-1.9l2.2,4.5c-1.2,1-2.7,1.9-4.6,2.5S1366.7,74.9,1364.3,74.9z M1363.5,48.9c-1.8,0-3.2,0.6-4.3,1.9
		s-1.7,2.9-2,5l0.1,0.1h11.8v-0.5c0-1.9-0.5-3.5-1.4-4.7C1366.9,49.5,1365.5,48.9,1363.5,48.9z"/>
	<path d="M1387.6,44l0.4,4.4c1-1.5,2.2-2.8,3.7-3.6c1.5-0.9,3.2-1.3,5.1-1.3c3.2,0,5.6,1,7.4,2.9c1.8,1.9,2.6,5,2.6,9.1v18.9h-6.8
		V55.5c0-2.4-0.5-4-1.4-5s-2.3-1.5-4.1-1.5c-1.5,0-2.7,0.3-3.8,0.8s-1.9,1.3-2.5,2.3v22.2h-6.8V44H1387.6z"/>
	<path d="M1422.6,36.6V44h5.4v5h-5.4v16.8c0,1.3,0.3,2.1,0.8,2.7c0.5,0.5,1.3,0.8,2.2,0.8c0.4,0,0.7,0,1.1-0.1
		c0.4-0.1,0.7-0.2,1-0.3l0.7,5c-0.6,0.3-1.3,0.6-2.1,0.7c-0.8,0.2-1.6,0.3-2.5,0.3c-2.5,0-4.5-0.7-5.9-2.2s-2.1-3.8-2.1-6.9V49h-4.6
		v-5h4.6v-7.4H1422.6z"/>
	<path d="M1451.8,74.3c-0.2-0.8-0.4-1.5-0.6-2.2c-0.2-0.7-0.3-1.5-0.3-2.2c-0.9,1.4-2.1,2.6-3.7,3.6s-3.2,1.4-5.1,1.4
		c-3.2,0-5.6-0.8-7.3-2.4c-1.7-1.6-2.5-3.9-2.5-6.7c0-2.9,1.2-5.2,3.5-6.8c2.3-1.6,5.6-2.5,9.8-2.5h5.3v-2.7c0-1.6-0.5-2.8-1.4-3.7
		c-0.9-0.9-2.3-1.3-4-1.3c-1.5,0-2.8,0.4-3.7,1.1c-0.9,0.7-1.4,1.7-1.4,2.9l-6.6,0l0-0.2c-0.1-2.4,0.9-4.5,3.2-6.4
		c2.3-1.8,5.2-2.8,8.9-2.8c3.5,0,6.4,0.9,8.5,2.7s3.2,4.4,3.2,7.7v13.5c0,1.3,0.1,2.5,0.3,3.6c0.2,1.1,0.4,2.3,0.8,3.4H1451.8z
		 M1443.5,69.4c1.7,0,3.2-0.4,4.6-1.3c1.4-0.9,2.3-1.8,2.7-2.9v-4.5h-5.4c-2,0-3.5,0.5-4.7,1.5c-1.1,1-1.7,2.1-1.7,3.5
		c0,1.2,0.4,2.1,1.1,2.8C1441,69.1,1442.1,69.4,1443.5,69.4z M1447.6,31h7.7l0.1,0.2l-7.6,7.3h-5.5L1447.6,31z"/>
	<path d="M1479.9,50.1l-2.9-0.1c-1.3,0-2.4,0.3-3.3,0.8c-0.9,0.6-1.6,1.4-2.1,2.4v21.1h-6.8V44h6.2l0.4,4.4c0.8-1.5,1.8-2.8,3-3.6
		c1.2-0.9,2.6-1.3,4.2-1.3c0.4,0,0.8,0,1.1,0.1c0.4,0.1,0.7,0.1,1,0.2L1479.9,50.1z"/>
	<path d="M1492.2,36.5h-6.8v-6h6.8V36.5z M1492.2,74.3h-6.8V44h6.8V74.3z"/>
	<path d="M1498.5,58.8c0-4.5,1.2-8.2,3.7-11.1c2.5-2.9,5.9-4.3,10.2-4.3c4.4,0,7.8,1.4,10.2,4.3s3.7,6.6,3.7,11.1v0.6
		c0,4.6-1.2,8.3-3.7,11.1c-2.5,2.9-5.9,4.3-10.2,4.3c-4.3,0-7.7-1.4-10.2-4.3c-2.5-2.9-3.7-6.6-3.7-11.1V58.8z M1505.3,59.4
		c0,3,0.6,5.4,1.7,7.2c1.2,1.8,3,2.8,5.4,2.8c2.4,0,4.2-0.9,5.3-2.8c1.2-1.9,1.8-4.3,1.8-7.2v-0.6c0-2.9-0.6-5.3-1.8-7.2
		c-1.2-1.9-3-2.8-5.4-2.8c-2.4,0-4.1,0.9-5.3,2.8c-1.2,1.9-1.8,4.3-1.8,7.2V59.4z"/>
	<path d="M1549.3,66c0-1-0.4-1.9-1.3-2.6c-0.9-0.7-2.6-1.3-5-1.8c-3.6-0.7-6.3-1.8-8.2-3.2c-1.9-1.4-2.8-3.3-2.8-5.7
		c0-2.5,1.1-4.7,3.2-6.5c2.1-1.8,5-2.7,8.5-2.7c3.6,0,6.5,0.9,8.8,2.8c2.2,1.9,3.3,4.1,3.2,6.7l-0.1,0.2h-6.5c0-1.2-0.5-2.3-1.5-3.2
		c-1-0.9-2.3-1.4-3.9-1.4c-1.6,0-2.9,0.4-3.8,1.1c-0.9,0.7-1.3,1.7-1.3,2.7c0,1,0.4,1.8,1.2,2.5c0.8,0.6,2.5,1.2,5,1.7
		c3.7,0.7,6.5,1.8,8.4,3.3c1.9,1.4,2.8,3.4,2.8,5.8c0,2.7-1.1,5-3.4,6.7s-5.2,2.6-8.9,2.6c-3.9,0-7-1-9.3-3c-2.3-2-3.4-4.3-3.2-6.9
		l0.1-0.2h6.3c0.1,1.8,0.7,3,1.9,3.8c1.2,0.8,2.7,1.2,4.4,1.2c1.7,0,3.1-0.3,4-1C1548.8,68,1549.3,67.1,1549.3,66z"/>
</g>
<g class="st0">
	<path d="M737.7,120.6h10.6v6.2h-10.6V139h-6.6v-12.1h-10.7v-6.2h10.7v-11.3h6.6V120.6z"/>
	<path d="M774.5,112.8l0.4,4.4c1-1.5,2.2-2.8,3.7-3.6c1.5-0.9,3.2-1.3,5.1-1.3c3.2,0,5.6,1,7.4,2.9c1.8,1.9,2.6,5,2.6,9.1v18.9h-6.8
		v-18.8c0-2.4-0.5-4-1.4-5c-0.9-1-2.3-1.5-4.1-1.5c-1.5,0-2.7,0.3-3.8,0.8s-1.9,1.3-2.5,2.3v22.2h-6.8v-30.3H774.5z"/>
	<path d="M819.7,138.6c-0.9,1.6-2.1,2.9-3.6,3.8c-1.5,0.9-3.2,1.3-5.1,1.3c-3.2,0-5.8-1.1-7.6-3.2c-1.8-2.1-2.7-5.5-2.7-10v-17.7
		h6.8v17.8c0,2.9,0.4,4.9,1.3,6c0.8,1.1,2.1,1.6,3.9,1.6c1.6,0,3-0.3,4.1-0.9c1.1-0.6,2-1.4,2.6-2.6v-21.9h6.8v30.3h-5.9
		L819.7,138.6z M815.6,100.4h7.7l0.1,0.2l-7.6,7.3h-5.5L815.6,100.4z"/>
	<path d="M839.5,112.8l0.4,3.9c1-1.4,2.2-2.5,3.7-3.3s3.2-1.2,5.2-1.2c2,0,3.7,0.4,5.1,1.3s2.5,2.2,3.2,4c0.9-1.7,2.2-3,3.7-4
		s3.3-1.4,5.4-1.4c3,0,5.4,1.1,7.2,3.2c1.8,2.1,2.6,5.3,2.6,9.6v18.1h-6.8V125c0-2.7-0.4-4.5-1.3-5.6c-0.9-1.1-2.2-1.6-4-1.6
		c-1.5,0-2.7,0.4-3.7,1.2c-1,0.8-1.7,1.8-2.2,3.2c0,0.3,0,0.5,0,0.7c0,0.2,0,0.4,0,0.6v19.6h-6.8V125c0-2.6-0.5-4.4-1.4-5.5
		c-0.9-1.1-2.2-1.7-4-1.7c-1.4,0-2.6,0.3-3.5,0.8s-1.7,1.3-2.3,2.3v22.2h-6.8v-30.3H839.5z"/>
	<path d="M896,143.7c-4.4,0-7.9-1.4-10.4-4.2s-3.7-6.4-3.7-10.9v-1.1c0-4.4,1.2-8.1,3.7-11c2.5-2.9,5.7-4.3,9.7-4.3
		c4.1,0,7.2,1.3,9.2,3.8c2.1,2.5,3.1,5.9,3.1,10.1v3.7h-18.7l-0.1,0.1c0.1,2.5,0.7,4.5,2,6.1c1.2,1.5,3.1,2.3,5.6,2.3
		c1.8,0,3.5-0.2,4.8-0.7c1.4-0.4,2.6-1.1,3.8-1.9l2.2,4.5c-1.2,1-2.7,1.9-4.6,2.5C900.7,143.3,898.5,143.7,896,143.7z M895.3,117.7
		c-1.8,0-3.2,0.6-4.3,1.9s-1.7,2.9-2,5l0.1,0.1H901v-0.5c0-1.9-0.5-3.5-1.4-4.7C898.7,118.3,897.3,117.7,895.3,117.7z"/>
	<path d="M928.3,118.9l-2.9-0.1c-1.3,0-2.4,0.3-3.3,0.8c-0.9,0.6-1.6,1.4-2.1,2.4v21.1h-6.8v-30.3h6.2l0.4,4.4
		c0.8-1.5,1.8-2.8,3-3.6c1.2-0.9,2.6-1.3,4.2-1.3c0.4,0,0.8,0,1.1,0.1s0.7,0.1,1,0.2L928.3,118.9z"/>
	<path d="M931.5,127.6c0-4.5,1.2-8.2,3.7-11.1s5.9-4.3,10.2-4.3c4.4,0,7.8,1.4,10.2,4.3s3.7,6.6,3.7,11.1v0.6
		c0,4.6-1.2,8.3-3.7,11.1c-2.5,2.9-5.9,4.3-10.2,4.3c-4.3,0-7.7-1.4-10.2-4.3s-3.7-6.6-3.7-11.1V127.6z M938.3,128.2
		c0,3,0.6,5.4,1.7,7.2c1.2,1.8,3,2.8,5.4,2.8c2.4,0,4.1-0.9,5.3-2.8c1.2-1.9,1.8-4.3,1.8-7.2v-0.6c0-2.9-0.6-5.3-1.8-7.2
		c-1.2-1.9-3-2.8-5.4-2.8c-2.4,0-4.1,0.9-5.3,2.8c-1.2,1.9-1.8,4.3-1.8,7.2V128.2z"/>
	<path d="M982.3,134.8c0-1-0.4-1.9-1.3-2.6s-2.6-1.3-5-1.8c-3.6-0.7-6.3-1.8-8.2-3.2c-1.9-1.4-2.8-3.3-2.8-5.7
		c0-2.5,1.1-4.7,3.2-6.5c2.1-1.8,5-2.7,8.5-2.7c3.6,0,6.5,0.9,8.8,2.8c2.2,1.9,3.3,4.1,3.2,6.7l-0.1,0.2H982c0-1.2-0.5-2.3-1.5-3.2
		c-1-0.9-2.3-1.4-3.9-1.4c-1.6,0-2.9,0.4-3.8,1.1c-0.9,0.7-1.3,1.7-1.3,2.7c0,1,0.4,1.8,1.2,2.5c0.8,0.6,2.5,1.2,5,1.7
		c3.7,0.7,6.5,1.8,8.4,3.3c1.9,1.4,2.8,3.4,2.8,5.8c0,2.7-1.1,5-3.4,6.7c-2.3,1.7-5.2,2.6-8.9,2.6c-3.9,0-7.1-1-9.3-3
		c-2.3-2-3.4-4.3-3.2-6.9l0.1-0.2h6.3c0.1,1.8,0.7,3,1.9,3.8c1.2,0.8,2.7,1.2,4.4,1.2c1.7,0,3.1-0.3,4-1
		C981.8,136.8,982.3,135.9,982.3,134.8z"/>
	<path d="M1008.1,128.3c0-4.8,1-8.7,3.1-11.7s5-4.4,8.7-4.4c1.6,0,3.1,0.3,4.4,1c1.3,0.7,2.4,1.6,3.4,2.8V99.4h6.8v43.7h-5.5
		l-0.8-3.8c-1,1.4-2.1,2.5-3.5,3.3c-1.4,0.8-3,1.1-4.8,1.1c-3.7,0-6.6-1.4-8.7-4.1s-3.1-6.3-3.1-10.7V128.3z M1015,128.9
		c0,2.8,0.5,5,1.6,6.7c1.1,1.7,2.8,2.5,5.1,2.5c1.4,0,2.7-0.3,3.7-0.9s1.8-1.5,2.5-2.6v-13.2c-0.6-1.1-1.5-2-2.5-2.6
		c-1-0.6-2.2-0.9-3.6-0.9c-2.3,0-4,1-5.1,2.9c-1.1,2-1.7,4.5-1.7,7.6V128.9z"/>
	<path d="M1054.8,143.7c-4.4,0-7.9-1.4-10.4-4.2s-3.7-6.4-3.7-10.9v-1.1c0-4.4,1.2-8.1,3.7-11c2.5-2.9,5.7-4.3,9.7-4.3
		c4.1,0,7.2,1.3,9.2,3.8c2.1,2.5,3.1,5.9,3.1,10.1v3.7h-18.7l-0.1,0.1c0.1,2.5,0.7,4.5,2,6.1s3.1,2.3,5.6,2.3c1.8,0,3.5-0.2,4.8-0.7
		c1.4-0.4,2.6-1.1,3.8-1.9l2.2,4.5c-1.2,1-2.7,1.9-4.6,2.5C1059.4,143.3,1057.2,143.7,1054.8,143.7z M1054,117.7
		c-1.8,0-3.2,0.6-4.3,1.9s-1.7,2.9-2,5l0.1,0.1h11.8v-0.5c0-1.9-0.5-3.5-1.4-4.7C1057.4,118.3,1056,117.7,1054,117.7z"/>
	<path d="M1116.7,129.7l0.1,0.2c0.1,4.1-1.3,7.4-4,10s-6.5,3.8-11.1,3.8c-4.7,0-8.6-1.6-11.5-4.8c-3-3.2-4.4-7.3-4.4-12.3v-7.8
		c0-5,1.5-9.1,4.4-12.3c2.9-3.2,6.7-4.8,11.4-4.8c4.8,0,8.6,1.2,11.3,3.7c2.8,2.4,4.1,5.8,4,10.1l-0.1,0.2h-6.6
		c0-2.7-0.7-4.8-2.2-6.3c-1.5-1.4-3.6-2.2-6.5-2.2c-2.8,0-5,1.1-6.6,3.3c-1.6,2.2-2.4,5-2.4,8.3v7.8c0,3.4,0.8,6.2,2.5,8.4
		c1.6,2.2,3.9,3.3,6.7,3.3c2.8,0,4.9-0.7,6.3-2.2s2.2-3.6,2.2-6.3H1116.7z"/>
	<path d="M1144.6,133.5h-14.5l-3.1,9.5h-7l14.2-40.8h6.5l14.1,40.8h-7L1144.6,133.5z M1132,127.9h10.7l-5.2-16.1h-0.2L1132,127.9z"
		/>
	<path d="M1185.7,107.7h-12.6v35.3h-6.8v-35.3h-12.4v-5.5h31.8V107.7z"/>
	<path d="M1205.1,134.8c0-1-0.4-1.9-1.3-2.6s-2.6-1.3-5-1.8c-3.6-0.7-6.3-1.8-8.2-3.2c-1.9-1.4-2.8-3.3-2.8-5.7
		c0-2.5,1.1-4.7,3.2-6.5c2.1-1.8,5-2.7,8.5-2.7c3.6,0,6.5,0.9,8.8,2.8c2.2,1.9,3.3,4.1,3.2,6.7l-0.1,0.2h-6.5c0-1.2-0.5-2.3-1.5-3.2
		c-1-0.9-2.3-1.4-3.9-1.4c-1.6,0-2.9,0.4-3.8,1.1c-0.9,0.7-1.3,1.7-1.3,2.7c0,1,0.4,1.8,1.2,2.5c0.8,0.6,2.5,1.2,5,1.7
		c3.7,0.7,6.5,1.8,8.4,3.3c1.9,1.4,2.8,3.4,2.8,5.8c0,2.7-1.1,5-3.4,6.7c-2.3,1.7-5.2,2.6-8.9,2.6c-3.9,0-7.1-1-9.3-3
		c-2.3-2-3.4-4.3-3.2-6.9l0.1-0.2h6.3c0.1,1.8,0.7,3,1.9,3.8c1.2,0.8,2.7,1.2,4.4,1.2c1.7,0,3.1-0.3,4-1
		C1204.6,136.8,1205.1,135.9,1205.1,134.8z"/>
	<path d="M1231,128.3c0-4.8,1-8.7,3.1-11.7s5-4.4,8.7-4.4c1.6,0,3.1,0.3,4.4,1c1.3,0.7,2.4,1.6,3.4,2.8V99.4h6.8v43.7h-5.5l-0.8-3.8
		c-1,1.4-2.1,2.5-3.5,3.3c-1.4,0.8-3,1.1-4.8,1.1c-3.7,0-6.6-1.4-8.7-4.1s-3.1-6.3-3.1-10.7V128.3z M1237.8,128.9
		c0,2.8,0.5,5,1.6,6.7c1.1,1.7,2.8,2.5,5.1,2.5c1.4,0,2.7-0.3,3.7-0.9s1.8-1.5,2.5-2.6v-13.2c-0.6-1.1-1.5-2-2.5-2.6
		c-1-0.6-2.2-0.9-3.6-0.9c-2.3,0-4,1-5.1,2.9c-1.1,2-1.7,4.5-1.7,7.6V128.9z"/>
	<path d="M1277.6,143.7c-4.4,0-7.9-1.4-10.4-4.2s-3.7-6.4-3.7-10.9v-1.1c0-4.4,1.2-8.1,3.7-11c2.5-2.9,5.7-4.3,9.7-4.3
		c4.1,0,7.2,1.3,9.2,3.8c2.1,2.5,3.1,5.9,3.1,10.1v3.7h-18.7l-0.1,0.1c0.1,2.5,0.7,4.5,2,6.1s3.1,2.3,5.6,2.3c1.8,0,3.5-0.2,4.8-0.7
		c1.4-0.4,2.6-1.1,3.8-1.9l2.2,4.5c-1.2,1-2.7,1.9-4.6,2.5C1282.2,143.3,1280.1,143.7,1277.6,143.7z M1276.8,117.7
		c-1.8,0-3.2,0.6-4.3,1.9s-1.7,2.9-2,5l0.1,0.1h11.8v-0.5c0-1.9-0.5-3.5-1.4-4.7C1280.2,118.3,1278.8,117.7,1276.8,117.7z"/>
	<path d="M1307.8,127.6c0-4.5,1.2-8.2,3.7-11.1s5.9-4.3,10.2-4.3c4.4,0,7.8,1.4,10.2,4.3s3.7,6.6,3.7,11.1v0.6
		c0,4.6-1.2,8.3-3.7,11.1c-2.5,2.9-5.9,4.3-10.2,4.3c-4.3,0-7.7-1.4-10.2-4.3s-3.7-6.6-3.7-11.1V127.6z M1314.6,128.2
		c0,3,0.6,5.4,1.7,7.2c1.2,1.8,3,2.8,5.4,2.8c2.4,0,4.1-0.9,5.3-2.8c1.2-1.9,1.8-4.3,1.8-7.2v-0.6c0-2.9-0.6-5.3-1.8-7.2
		c-1.2-1.9-3-2.8-5.4-2.8c-2.4,0-4.1,0.9-5.3,2.8c-1.2,1.9-1.8,4.3-1.8,7.2V128.2z M1323.8,99.8h7.7l0.1,0.2l-7.6,7.3h-5.5
		L1323.8,99.8z"/>
	<path d="M1368.1,128.9c0,4.4-1,8-3.1,10.7c-2.1,2.7-5,4-8.7,4c-1.9,0-3.6-0.4-5-1.2c-1.4-0.8-2.6-1.9-3.5-3.4l-0.8,4h-5.5V99.4h6.8
		v16.8c0.9-1.3,2.1-2.3,3.4-3c1.3-0.7,2.8-1,4.6-1c3.8,0,6.7,1.5,8.8,4.4c2.1,3,3.1,6.9,3.1,11.7V128.9z M1361.3,128.3
		c0-3.2-0.5-5.7-1.6-7.6s-2.8-2.9-5.2-2.9c-1.5,0-2.8,0.3-3.8,1c-1,0.7-1.8,1.6-2.4,2.8v12.7c0.6,1.2,1.4,2.2,2.4,2.8
		c1,0.7,2.3,1,3.9,1c2.4,0,4.1-0.8,5.1-2.5c1.1-1.7,1.6-3.9,1.6-6.7V128.3z"/>
	<path d="M1381.3,105.3h-6.8v-6h6.8V105.3z M1381.3,143.1h-6.8v-30.3h6.8V143.1z"/>
	<path d="M1397.6,105.4v7.4h5.4v5h-5.4v16.8c0,1.3,0.3,2.1,0.8,2.7c0.5,0.5,1.3,0.8,2.2,0.8c0.4,0,0.7,0,1.1-0.1
		c0.4-0.1,0.7-0.2,1-0.3l0.7,5c-0.6,0.3-1.3,0.6-2.1,0.7c-0.8,0.2-1.6,0.3-2.5,0.3c-2.5,0-4.5-0.7-5.9-2.2s-2.1-3.8-2.1-6.9v-16.8
		h-4.6v-5h4.6v-7.4H1397.6z"/>
	<path d="M1407.3,127.6c0-4.5,1.2-8.2,3.7-11.1c2.5-2.9,5.9-4.3,10.2-4.3c4.4,0,7.8,1.4,10.2,4.3s3.7,6.6,3.7,11.1v0.6
		c0,4.6-1.2,8.3-3.7,11.1c-2.5,2.9-5.9,4.3-10.2,4.3c-4.3,0-7.7-1.4-10.2-4.3c-2.5-2.9-3.7-6.6-3.7-11.1V127.6z M1414.1,128.2
		c0,3,0.6,5.4,1.7,7.2c1.2,1.8,3,2.8,5.4,2.8c2.4,0,4.2-0.9,5.3-2.8c1.2-1.9,1.8-4.3,1.8-7.2v-0.6c0-2.9-0.6-5.3-1.8-7.2
		c-1.2-1.9-3-2.8-5.4-2.8c-2.4,0-4.1,0.9-5.3,2.8c-1.2,1.9-1.8,4.3-1.8,7.2V128.2z"/>
	<path d="M1458.1,134.8c0-1-0.4-1.9-1.3-2.6c-0.9-0.7-2.6-1.3-5-1.8c-3.6-0.7-6.3-1.8-8.2-3.2c-1.9-1.4-2.8-3.3-2.8-5.7
		c0-2.5,1.1-4.7,3.2-6.5c2.1-1.8,5-2.7,8.5-2.7c3.6,0,6.5,0.9,8.8,2.8c2.2,1.9,3.3,4.1,3.2,6.7l-0.1,0.2h-6.5c0-1.2-0.5-2.3-1.5-3.2
		c-1-0.9-2.3-1.4-3.9-1.4c-1.6,0-2.9,0.4-3.8,1.1c-0.9,0.7-1.3,1.7-1.3,2.7c0,1,0.4,1.8,1.2,2.5c0.8,0.6,2.5,1.2,5,1.7
		c3.7,0.7,6.5,1.8,8.4,3.3c1.9,1.4,2.8,3.4,2.8,5.8c0,2.7-1.1,5-3.4,6.7s-5.2,2.6-8.9,2.6c-3.9,0-7-1-9.3-3c-2.3-2-3.4-4.3-3.2-6.9
		l0.1-0.2h6.3c0.1,1.8,0.7,3,1.9,3.8c1.2,0.8,2.7,1.2,4.4,1.2c1.7,0,3.1-0.3,4-1C1457.6,136.8,1458.1,135.9,1458.1,134.8z"/>
	<path d="M1475.7,124.1l-6.5-2l1.4-4.6l6.7,2.3l-0.1-7h4.7l-0.1,7.2l6.5-2.3l1.4,4.7l-6.7,2l4.1,5.6l-3.9,2.9l-4-5.9l-3.9,5.7
		l-3.9-2.8L1475.7,124.1z"/>
</g>
<g class="st0">
	<path d="M745.4,206l0.4,4.4c1-1.5,2.2-2.8,3.7-3.6c1.5-0.9,3.2-1.3,5.1-1.3c3.2,0,5.6,1,7.4,2.9c1.8,1.9,2.6,5,2.6,9.1v18.9h-6.8
		v-18.8c0-2.4-0.5-4-1.4-5c-0.9-1-2.3-1.5-4.1-1.5c-1.5,0-2.7,0.3-3.8,0.8s-1.9,1.3-2.5,2.3v22.2h-6.8V206H745.4z"/>
	<path d="M790.7,231.8c-0.9,1.6-2.1,2.9-3.6,3.8c-1.5,0.9-3.2,1.3-5.1,1.3c-3.2,0-5.8-1.1-7.6-3.2c-1.8-2.1-2.7-5.5-2.7-10V206h6.8
		v17.8c0,2.9,0.4,4.9,1.3,6c0.8,1.1,2.1,1.6,3.9,1.6c1.6,0,3-0.3,4.1-0.9c1.1-0.6,2-1.4,2.6-2.6V206h6.8v30.3h-5.9L790.7,231.8z
		 M786.5,193.6h7.7l0.1,0.2l-7.6,7.3h-5.5L786.5,193.6z"/>
	<path d="M810.5,206l0.4,3.9c1-1.4,2.2-2.5,3.7-3.3s3.2-1.2,5.2-1.2c2,0,3.7,0.4,5.1,1.3c1.4,0.9,2.5,2.2,3.2,4c0.9-1.7,2.2-3,3.7-4
		s3.3-1.4,5.4-1.4c3,0,5.4,1.1,7.2,3.2c1.8,2.1,2.6,5.3,2.6,9.6v18.1h-6.8v-18.1c0-2.7-0.4-4.5-1.3-5.6c-0.9-1.1-2.2-1.6-4-1.6
		c-1.5,0-2.7,0.4-3.7,1.2c-1,0.8-1.7,1.8-2.2,3.2c0,0.3,0,0.5,0,0.7c0,0.2,0,0.4,0,0.6v19.6h-6.8v-18.1c0-2.6-0.5-4.4-1.4-5.5
		c-0.9-1.1-2.2-1.7-4-1.7c-1.4,0-2.6,0.3-3.5,0.8c-1,0.5-1.7,1.3-2.3,2.3v22.2h-6.8V206H810.5z"/>
	<path d="M867,236.9c-4.4,0-7.9-1.4-10.4-4.2s-3.7-6.4-3.7-10.9v-1.1c0-4.4,1.2-8.1,3.7-11c2.5-2.9,5.7-4.3,9.7-4.3
		c4.1,0,7.2,1.3,9.2,3.8c2.1,2.5,3.1,5.9,3.1,10.1v3.7h-18.7l-0.1,0.1c0.1,2.5,0.7,4.5,2,6.1s3.1,2.3,5.6,2.3c1.8,0,3.5-0.2,4.8-0.7
		c1.4-0.4,2.6-1.1,3.8-1.9l2.2,4.5c-1.2,1-2.7,1.9-4.6,2.5C871.7,236.5,869.5,236.9,867,236.9z M866.3,210.9c-1.8,0-3.2,0.6-4.3,1.9
		s-1.7,2.9-2,5l0.1,0.1h11.8v-0.5c0-1.9-0.5-3.5-1.4-4.7C869.7,211.5,868.2,210.9,866.3,210.9z"/>
	<path d="M899.3,212.1l-2.9-0.1c-1.3,0-2.4,0.3-3.3,0.8c-0.9,0.6-1.6,1.4-2.1,2.4v21.1h-6.8V206h6.2l0.4,4.4c0.8-1.5,1.8-2.8,3-3.6
		c1.2-0.9,2.6-1.3,4.2-1.3c0.4,0,0.8,0,1.1,0.1c0.4,0.1,0.7,0.1,1,0.2L899.3,212.1z"/>
	<path d="M902.5,220.8c0-4.5,1.2-8.2,3.7-11.1s5.9-4.3,10.2-4.3c4.4,0,7.8,1.4,10.2,4.3s3.7,6.6,3.7,11.1v0.6
		c0,4.6-1.2,8.3-3.7,11.1c-2.5,2.9-5.9,4.3-10.2,4.3c-4.3,0-7.7-1.4-10.2-4.3s-3.7-6.6-3.7-11.1V220.8z M909.3,221.4
		c0,3,0.6,5.4,1.7,7.2c1.2,1.8,2.9,2.8,5.4,2.8c2.4,0,4.1-0.9,5.3-2.8c1.2-1.9,1.8-4.3,1.8-7.2v-0.6c0-2.9-0.6-5.3-1.8-7.2
		c-1.2-1.9-3-2.8-5.4-2.8c-2.4,0-4.1,0.9-5.3,2.8c-1.2,1.9-1.8,4.3-1.8,7.2V221.4z"/>
	<path d="M956.8,206l0.4,3.9c1-1.4,2.2-2.5,3.7-3.3s3.2-1.2,5.2-1.2c2,0,3.7,0.4,5.1,1.3c1.4,0.9,2.5,2.2,3.2,4c0.9-1.7,2.2-3,3.7-4
		s3.3-1.4,5.4-1.4c3,0,5.4,1.1,7.2,3.2c1.8,2.1,2.6,5.3,2.6,9.6v18.1h-6.8v-18.1c0-2.7-0.4-4.5-1.3-5.6c-0.9-1.1-2.2-1.6-4-1.6
		c-1.5,0-2.7,0.4-3.7,1.2c-1,0.8-1.7,1.8-2.2,3.2c0,0.3,0,0.5,0,0.7c0,0.2,0,0.4,0,0.6v19.6h-6.8v-18.1c0-2.6-0.5-4.4-1.4-5.5
		c-0.9-1.1-2.2-1.7-4-1.7c-1.4,0-2.6,0.3-3.5,0.8c-1,0.5-1.7,1.3-2.3,2.3v22.2h-6.8V206H956.8z"/>
	<path d="M1013.3,236.9c-4.4,0-7.9-1.4-10.4-4.2s-3.7-6.4-3.7-10.9v-1.1c0-4.4,1.2-8.1,3.7-11c2.5-2.9,5.7-4.3,9.7-4.3
		c4.1,0,7.2,1.3,9.2,3.8c2.1,2.5,3.1,5.9,3.1,10.1v3.7h-18.7l-0.1,0.1c0.1,2.5,0.7,4.5,2,6.1c1.2,1.5,3.1,2.3,5.6,2.3
		c1.8,0,3.5-0.2,4.8-0.7c1.4-0.4,2.6-1.1,3.8-1.9l2.2,4.5c-1.2,1-2.7,1.9-4.6,2.5C1018,236.5,1015.8,236.9,1013.3,236.9z
		 M1012.6,210.9c-1.8,0-3.2,0.6-4.3,1.9s-1.7,2.9-2,5l0.1,0.1h11.8v-0.5c0-1.9-0.5-3.5-1.4-4.7
		C1016,211.5,1014.5,210.9,1012.6,210.9z M1014.1,193h7.7l0.1,0.2l-7.6,7.3h-5.5L1014.1,193z"/>
	<path d="M1029.2,221.5c0-4.8,1-8.7,3.1-11.7c2.1-3,5-4.4,8.7-4.4c1.6,0,3.1,0.3,4.4,1c1.3,0.7,2.4,1.6,3.4,2.8v-16.7h6.8v43.7h-5.5
		l-0.8-3.8c-1,1.4-2.1,2.5-3.5,3.3c-1.4,0.8-3,1.1-4.8,1.1c-3.7,0-6.6-1.4-8.7-4.1c-2.1-2.7-3.1-6.3-3.1-10.7V221.5z M1036,222.1
		c0,2.8,0.5,5,1.6,6.7s2.8,2.5,5.1,2.5c1.4,0,2.7-0.3,3.7-0.9c1-0.6,1.8-1.5,2.5-2.6v-13.2c-0.6-1.1-1.5-2-2.5-2.6
		c-1-0.6-2.2-0.9-3.6-0.9c-2.3,0-4,1-5.1,2.9c-1.1,2-1.7,4.5-1.7,7.6V222.1z"/>
	<path d="M1070.2,198.5h-6.8v-6h6.8V198.5z M1070.2,236.3h-6.8V206h6.8V236.3z"/>
	<path d="M1076.6,220.8c0-4.5,1.2-8.2,3.7-11.1s5.9-4.3,10.2-4.3c4.4,0,7.8,1.4,10.2,4.3s3.7,6.6,3.7,11.1v0.6
		c0,4.6-1.2,8.3-3.7,11.1c-2.5,2.9-5.9,4.3-10.2,4.3c-4.3,0-7.7-1.4-10.2-4.3s-3.7-6.6-3.7-11.1V220.8z M1083.4,221.4
		c0,3,0.6,5.4,1.7,7.2c1.2,1.8,2.9,2.8,5.4,2.8c2.4,0,4.1-0.9,5.3-2.8c1.2-1.9,1.8-4.3,1.8-7.2v-0.6c0-2.9-0.6-5.3-1.8-7.2
		c-1.2-1.9-3-2.8-5.4-2.8c-2.4,0-4.1,0.9-5.3,2.8c-1.2,1.9-1.8,4.3-1.8,7.2V221.4z"/>
	<path d="M1123.4,221.5c0-4.8,1-8.7,3.1-11.7c2.1-3,5-4.4,8.7-4.4c1.6,0,3.1,0.3,4.4,1c1.3,0.7,2.4,1.6,3.4,2.8v-16.7h6.8v43.7h-5.5
		l-0.8-3.8c-1,1.4-2.1,2.5-3.5,3.3c-1.4,0.8-3,1.1-4.8,1.1c-3.7,0-6.6-1.4-8.7-4.1c-2.1-2.7-3.1-6.3-3.1-10.7V221.5z M1130.2,222.1
		c0,2.8,0.5,5,1.6,6.7s2.8,2.5,5.1,2.5c1.4,0,2.7-0.3,3.7-0.9c1-0.6,1.8-1.5,2.5-2.6v-13.2c-0.6-1.1-1.5-2-2.5-2.6
		c-1-0.6-2.2-0.9-3.6-0.9c-2.3,0-4,1-5.1,2.9c-1.1,2-1.7,4.5-1.7,7.6V222.1z"/>
	<path d="M1170,236.9c-4.4,0-7.9-1.4-10.4-4.2c-2.5-2.8-3.7-6.4-3.7-10.9v-1.1c0-4.4,1.2-8.1,3.7-11c2.5-2.9,5.7-4.3,9.7-4.3
		c4.1,0,7.2,1.3,9.2,3.8c2.1,2.5,3.1,5.9,3.1,10.1v3.7h-18.7l-0.1,0.1c0.1,2.5,0.7,4.5,2,6.1c1.2,1.5,3.1,2.3,5.6,2.3
		c1.8,0,3.4-0.2,4.8-0.7s2.6-1.1,3.8-1.9l2.2,4.5c-1.2,1-2.7,1.9-4.6,2.5S1172.5,236.9,1170,236.9z M1169.2,210.9
		c-1.8,0-3.2,0.6-4.3,1.9s-1.7,2.9-2,5l0.1,0.1h11.8v-0.5c0-1.9-0.5-3.5-1.4-4.7C1172.6,211.5,1171.2,210.9,1169.2,210.9z"/>
	<path d="M1212,226l0.5,2.5h0.2l0.5-2.5l6-20.1h7l-10.8,30.3h-5.9l-10.8-30.3h7L1212,226z"/>
	<path d="M1237.7,236.3h-6.8V206h6.8V236.3z M1236.5,193.6h7.7l0.1,0.2l-7.6,7.3h-5.5L1236.5,193.6z"/>
	<path d="M1251.7,206l0.4,4.4c1-1.5,2.2-2.8,3.7-3.6c1.5-0.9,3.2-1.3,5.1-1.3c3.2,0,5.6,1,7.4,2.9c1.8,1.9,2.6,5,2.6,9.1v18.9h-6.8
		v-18.8c0-2.4-0.5-4-1.4-5c-0.9-1-2.3-1.5-4.1-1.5c-1.5,0-2.7,0.3-3.8,0.8s-1.9,1.3-2.5,2.3v22.2h-6.8V206H1251.7z"/>
	<path d="M1290.4,231.4c1.5,0,2.9-0.5,3.9-1.5c1.1-1,1.6-2.2,1.6-3.7h6.2l0.1,0.2c0.1,2.8-1.1,5.3-3.4,7.3c-2.3,2.1-5.1,3.1-8.4,3.1
		c-4.4,0-7.7-1.4-10.1-4.3c-2.4-2.9-3.6-6.5-3.6-10.9v-1c0-4.4,1.2-8,3.6-10.9c2.4-2.9,5.7-4.3,10.1-4.3c3.5,0,6.4,1.1,8.6,3.2
		c2.2,2.1,3.3,4.8,3.2,8.1l-0.1,0.2h-6.2c0-1.7-0.5-3.1-1.5-4.2c-1-1.2-2.4-1.7-4-1.7c-2.4,0-4.2,0.9-5.2,2.8
		c-1.1,1.9-1.6,4.2-1.6,7v1c0,2.8,0.5,5.2,1.6,7C1286.2,230.5,1288,231.4,1290.4,231.4z"/>
	<path d="M1326.8,231.8c-0.9,1.6-2.1,2.9-3.6,3.8c-1.5,0.9-3.2,1.3-5.1,1.3c-3.2,0-5.8-1.1-7.6-3.2s-2.7-5.5-2.7-10V206h6.8v17.8
		c0,2.9,0.4,4.9,1.3,6c0.8,1.1,2.1,1.6,3.9,1.6c1.6,0,3-0.3,4.1-0.9c1.1-0.6,2-1.4,2.6-2.6V206h6.8v30.3h-5.9L1326.8,231.8z"/>
	<path d="M1347.7,236.3h-6.8v-43.7h6.8V236.3z"/>
	<path d="M1354,220.8c0-4.5,1.2-8.2,3.7-11.1s5.9-4.3,10.2-4.3c4.4,0,7.8,1.4,10.2,4.3s3.7,6.6,3.7,11.1v0.6c0,4.6-1.2,8.3-3.7,11.1
		c-2.5,2.9-5.9,4.3-10.2,4.3c-4.3,0-7.7-1.4-10.2-4.3s-3.7-6.6-3.7-11.1V220.8z M1360.8,221.4c0,3,0.6,5.4,1.7,7.2
		c1.2,1.8,2.9,2.8,5.4,2.8c2.4,0,4.1-0.9,5.3-2.8c1.2-1.9,1.8-4.3,1.8-7.2v-0.6c0-2.9-0.6-5.3-1.8-7.2c-1.2-1.9-3-2.8-5.4-2.8
		c-2.4,0-4.1,0.9-5.3,2.8c-1.2,1.9-1.8,4.3-1.8,7.2V221.4z"/>
	<path d="M1404.8,228c0-1-0.4-1.9-1.3-2.6c-0.9-0.7-2.6-1.3-5-1.8c-3.6-0.7-6.3-1.8-8.2-3.2c-1.9-1.4-2.8-3.3-2.8-5.7
		c0-2.5,1.1-4.7,3.2-6.5c2.1-1.8,5-2.7,8.5-2.7c3.6,0,6.5,0.9,8.8,2.8c2.2,1.9,3.3,4.1,3.2,6.7l-0.1,0.2h-6.5c0-1.2-0.5-2.3-1.5-3.2
		c-1-0.9-2.3-1.4-3.9-1.4c-1.6,0-2.9,0.4-3.8,1.1c-0.9,0.7-1.3,1.7-1.3,2.7c0,1,0.4,1.8,1.2,2.5s2.5,1.2,5,1.7
		c3.7,0.7,6.5,1.8,8.4,3.3c1.9,1.4,2.8,3.4,2.8,5.8c0,2.7-1.1,5-3.4,6.7c-2.3,1.7-5.2,2.6-8.9,2.6c-3.9,0-7.1-1-9.3-3
		c-2.3-2-3.4-4.3-3.2-6.9l0.1-0.2h6.3c0.1,1.8,0.7,3,1.9,3.8c1.2,0.8,2.7,1.2,4.4,1.2c1.7,0,3.1-0.3,4-1
		C1404.3,230,1404.8,229.1,1404.8,228z"/>
	<path d="M1430.6,221.5c0-4.8,1-8.7,3.1-11.7c2.1-3,5-4.4,8.7-4.4c1.6,0,3.1,0.3,4.4,1c1.3,0.7,2.4,1.6,3.4,2.8v-16.7h6.8v43.7h-5.5
		l-0.8-3.8c-1,1.4-2.1,2.5-3.5,3.3c-1.4,0.8-3,1.1-4.8,1.1c-3.7,0-6.6-1.4-8.7-4.1c-2.1-2.7-3.1-6.3-3.1-10.7V221.5z M1437.4,222.1
		c0,2.8,0.5,5,1.6,6.7c1.1,1.7,2.8,2.5,5.1,2.5c1.4,0,2.7-0.3,3.7-0.9c1-0.6,1.8-1.5,2.5-2.6v-13.2c-0.6-1.1-1.5-2-2.5-2.6
		c-1-0.6-2.2-0.9-3.6-0.9c-2.3,0-4,1-5.1,2.9c-1.1,2-1.7,4.5-1.7,7.6V222.1z"/>
	<path d="M1463.1,220.8c0-4.5,1.2-8.2,3.7-11.1c2.5-2.9,5.9-4.3,10.2-4.3c4.3,0,7.8,1.4,10.2,4.3s3.7,6.6,3.7,11.1v0.6
		c0,4.6-1.2,8.3-3.7,11.1c-2.5,2.9-5.9,4.3-10.2,4.3c-4.3,0-7.7-1.4-10.2-4.3c-2.5-2.9-3.7-6.6-3.7-11.1V220.8z M1469.9,221.4
		c0,3,0.6,5.4,1.7,7.2c1.2,1.8,2.9,2.8,5.4,2.8c2.4,0,4.2-0.9,5.3-2.8c1.2-1.9,1.8-4.3,1.8-7.2v-0.6c0-2.9-0.6-5.3-1.8-7.2
		c-1.2-1.9-3-2.8-5.4-2.8c-2.4,0-4.1,0.9-5.3,2.8c-1.2,1.9-1.8,4.3-1.8,7.2V221.4z"/>
</g>
<g class="st0">
	<path d="M811.8,305.7c-4.4,0-7.9-1.4-10.4-4.2s-3.7-6.4-3.7-10.9v-1.1c0-4.4,1.2-8.1,3.7-11c2.5-2.9,5.7-4.3,9.7-4.3
		c4.1,0,7.2,1.3,9.2,3.8c2.1,2.5,3.1,5.9,3.1,10.1v3.7h-18.7l-0.1,0.1c0.1,2.5,0.7,4.5,2,6.1c1.2,1.5,3.1,2.3,5.6,2.3
		c1.8,0,3.5-0.2,4.8-0.7c1.4-0.4,2.6-1.1,3.8-1.9l2.2,4.5c-1.2,1-2.7,1.9-4.6,2.5C816.5,305.3,814.3,305.7,811.8,305.7z
		 M811.1,279.7c-1.8,0-3.2,0.6-4.3,1.9s-1.7,2.9-2,5l0.1,0.1h11.8v-0.5c0-1.9-0.5-3.5-1.4-4.7C814.5,280.3,813.1,279.7,811.1,279.7z
		"/>
	<path d="M846,296.8c0-1-0.4-1.9-1.3-2.6s-2.6-1.3-5-1.8c-3.6-0.7-6.3-1.8-8.2-3.2c-1.9-1.4-2.8-3.3-2.8-5.7c0-2.5,1.1-4.7,3.2-6.5
		c2.1-1.8,5-2.7,8.5-2.7c3.6,0,6.5,0.9,8.8,2.8c2.2,1.9,3.3,4.1,3.2,6.7l-0.1,0.2h-6.5c0-1.2-0.5-2.3-1.5-3.2
		c-1-0.9-2.3-1.4-3.9-1.4c-1.6,0-2.9,0.4-3.8,1.1c-0.9,0.7-1.3,1.7-1.3,2.7c0,1,0.4,1.8,1.2,2.5c0.8,0.6,2.5,1.2,5,1.7
		c3.7,0.7,6.5,1.8,8.4,3.3c1.9,1.4,2.8,3.4,2.8,5.8c0,2.7-1.1,5-3.4,6.7c-2.3,1.7-5.2,2.6-8.9,2.6c-3.9,0-7.1-1-9.3-3
		c-2.3-2-3.4-4.3-3.2-6.9l0.1-0.2h6.3c0.1,1.8,0.7,3,1.9,3.8c1.2,0.8,2.7,1.2,4.4,1.2c1.7,0,3.1-0.3,4-1
		C845.6,298.8,846,297.9,846,296.8z"/>
	<path d="M867.6,267.4v7.4h5.4v5h-5.4v16.8c0,1.3,0.3,2.1,0.8,2.7s1.3,0.8,2.2,0.8c0.4,0,0.7,0,1.1-0.1c0.4-0.1,0.7-0.2,1-0.3l0.7,5
		c-0.6,0.3-1.3,0.6-2.1,0.7c-0.8,0.2-1.6,0.3-2.5,0.3c-2.5,0-4.5-0.7-5.9-2.2s-2.1-3.8-2.1-6.9v-16.8h-4.6v-5h4.6v-7.4H867.6z"/>
	<path d="M896.7,305.1c-0.2-0.8-0.4-1.5-0.6-2.2c-0.2-0.7-0.3-1.5-0.3-2.2c-0.9,1.4-2.1,2.6-3.7,3.6s-3.2,1.4-5.1,1.4
		c-3.2,0-5.6-0.8-7.3-2.4s-2.5-3.9-2.5-6.7c0-2.9,1.2-5.2,3.5-6.8c2.3-1.6,5.6-2.5,9.8-2.5h5.3v-2.7c0-1.6-0.5-2.8-1.4-3.7
		c-0.9-0.9-2.3-1.3-4-1.3c-1.5,0-2.8,0.4-3.7,1.1c-0.9,0.7-1.4,1.7-1.4,2.9l-6.6,0l0-0.2c-0.1-2.4,0.9-4.5,3.2-6.4
		c2.3-1.8,5.2-2.8,8.9-2.8c3.5,0,6.4,0.9,8.5,2.7c2.2,1.8,3.2,4.4,3.2,7.7v13.5c0,1.3,0.1,2.5,0.3,3.6c0.2,1.1,0.4,2.3,0.8,3.4
		H896.7z M888.4,300.2c1.7,0,3.2-0.4,4.6-1.3c1.4-0.9,2.3-1.8,2.7-2.9v-4.5h-5.4c-2,0-3.5,0.5-4.6,1.5c-1.1,1-1.7,2.1-1.7,3.5
		c0,1.2,0.4,2.1,1.1,2.8C885.9,299.9,887,300.2,888.4,300.2z"/>
	<path d="M936.3,290.9c0,4.4-1,8-3.1,10.7c-2.1,2.7-5,4-8.7,4c-1.9,0-3.6-0.4-5-1.2c-1.4-0.8-2.6-1.9-3.5-3.4l-0.8,4h-5.5v-43.7h6.8
		v16.8c0.9-1.3,2.1-2.3,3.4-3c1.3-0.7,2.8-1,4.6-1c3.8,0,6.7,1.5,8.8,4.4c2.1,3,3.1,6.9,3.1,11.7V290.9z M929.5,290.3
		c0-3.2-0.5-5.7-1.6-7.6s-2.8-2.9-5.2-2.9c-1.5,0-2.8,0.3-3.8,1c-1,0.7-1.8,1.6-2.4,2.8v12.7c0.6,1.2,1.4,2.2,2.4,2.8
		c1,0.7,2.3,1,3.9,1c2.4,0,4.1-0.8,5.1-2.5c1.1-1.7,1.6-3.9,1.6-6.7V290.3z"/>
	<path d="M955,305.7c-4.4,0-7.9-1.4-10.4-4.2s-3.7-6.4-3.7-10.9v-1.1c0-4.4,1.2-8.1,3.7-11c2.5-2.9,5.7-4.3,9.7-4.3
		c4.1,0,7.2,1.3,9.2,3.8c2.1,2.5,3.1,5.9,3.1,10.1v3.7h-18.7l-0.1,0.1c0.1,2.5,0.7,4.5,2,6.1s3.1,2.3,5.6,2.3c1.8,0,3.5-0.2,4.8-0.7
		c1.4-0.4,2.6-1.1,3.8-1.9l2.2,4.5c-1.2,1-2.7,1.9-4.6,2.5C959.7,305.3,957.5,305.7,955,305.7z M954.3,279.7c-1.8,0-3.2,0.6-4.3,1.9
		s-1.7,2.9-2,5l0.1,0.1H960v-0.5c0-1.9-0.5-3.5-1.4-4.7C957.7,280.3,956.3,279.7,954.3,279.7z"/>
	<path d="M979.5,305.1h-6.8v-43.7h6.8V305.1z"/>
	<path d="M999.9,305.7c-4.4,0-7.9-1.4-10.4-4.2s-3.7-6.4-3.7-10.9v-1.1c0-4.4,1.2-8.1,3.7-11c2.5-2.9,5.7-4.3,9.7-4.3
		c4.1,0,7.2,1.3,9.2,3.8c2.1,2.5,3.1,5.9,3.1,10.1v3.7h-18.7l-0.1,0.1c0.1,2.5,0.7,4.5,2,6.1s3.1,2.3,5.6,2.3c1.8,0,3.5-0.2,4.8-0.7
		c1.4-0.4,2.6-1.1,3.8-1.9l2.2,4.5c-1.2,1-2.7,1.9-4.6,2.5C1004.6,305.3,1002.4,305.7,999.9,305.7z M999.2,279.7
		c-1.8,0-3.2,0.6-4.3,1.9s-1.7,2.9-2,5l0.1,0.1h11.8v-0.5c0-1.9-0.5-3.5-1.4-4.7C1002.6,280.3,1001.2,279.7,999.2,279.7z"/>
	<path d="M1029.5,300.2c1.6,0,2.9-0.5,3.9-1.5c1.1-1,1.6-2.2,1.6-3.7h6.2l0.1,0.2c0.1,2.8-1.1,5.3-3.4,7.3c-2.3,2.1-5.1,3.1-8.4,3.1
		c-4.4,0-7.7-1.4-10.1-4.3c-2.4-2.9-3.6-6.5-3.6-10.9v-1c0-4.4,1.2-8,3.6-10.9c2.4-2.9,5.7-4.3,10.1-4.3c3.5,0,6.4,1.1,8.6,3.2
		c2.2,2.1,3.3,4.8,3.2,8.1l-0.1,0.2h-6.2c0-1.7-0.5-3.1-1.5-4.2c-1-1.2-2.4-1.7-4-1.7c-2.4,0-4.2,0.9-5.2,2.8
		c-1.1,1.9-1.6,4.2-1.6,7v1c0,2.8,0.5,5.2,1.6,7C1025.2,299.3,1027,300.2,1029.5,300.2z"/>
	<path d="M1054.2,267.3h-6.8v-6h6.8V267.3z M1054.2,305.1h-6.8v-30.3h6.8V305.1z"/>
	<path d="M1068,274.8l0.4,3.9c1-1.4,2.2-2.5,3.7-3.3s3.2-1.2,5.2-1.2c2,0,3.7,0.4,5.1,1.3s2.5,2.2,3.2,4c0.9-1.7,2.2-3,3.7-4
		s3.3-1.4,5.4-1.4c3,0,5.4,1.1,7.2,3.2c1.8,2.1,2.6,5.3,2.6,9.6v18.1h-6.8V287c0-2.7-0.4-4.5-1.3-5.6c-0.9-1.1-2.2-1.6-4-1.6
		c-1.5,0-2.7,0.4-3.7,1.2c-1,0.8-1.7,1.8-2.2,3.2c0,0.3,0,0.5,0,0.7c0,0.2,0,0.4,0,0.6v19.6h-6.8V287c0-2.6-0.5-4.4-1.4-5.5
		c-0.9-1.1-2.2-1.7-4-1.7c-1.4,0-2.6,0.3-3.5,0.8s-1.7,1.3-2.3,2.3v22.2h-6.8v-30.3H1068z"/>
	<path d="M1124.6,305.7c-4.4,0-7.9-1.4-10.4-4.2s-3.7-6.4-3.7-10.9v-1.1c0-4.4,1.2-8.1,3.7-11c2.5-2.9,5.7-4.3,9.7-4.3
		c4.1,0,7.2,1.3,9.2,3.8c2.1,2.5,3.1,5.9,3.1,10.1v3.7h-18.7l-0.1,0.1c0.1,2.5,0.7,4.5,2,6.1c1.2,1.5,3.1,2.3,5.6,2.3
		c1.8,0,3.5-0.2,4.8-0.7c1.4-0.4,2.6-1.1,3.8-1.9l2.2,4.5c-1.2,1-2.7,1.9-4.6,2.5C1129.2,305.3,1127.1,305.7,1124.6,305.7z
		 M1123.8,279.7c-1.8,0-3.2,0.6-4.3,1.9s-1.7,2.9-2,5l0.1,0.1h11.8v-0.5c0-1.9-0.5-3.5-1.4-4.7
		C1127.2,280.3,1125.8,279.7,1123.8,279.7z"/>
	<path d="M1147.9,274.8l0.4,4.4c1-1.5,2.2-2.8,3.7-3.6c1.5-0.9,3.2-1.3,5.1-1.3c3.2,0,5.6,1,7.4,2.9c1.8,1.9,2.6,5,2.6,9.1v18.9
		h-6.8v-18.8c0-2.4-0.5-4-1.4-5s-2.3-1.5-4.1-1.5c-1.5,0-2.7,0.3-3.8,0.8s-1.9,1.3-2.5,2.3v22.2h-6.8v-30.3H1147.9z"/>
	<path d="M1182.9,267.4v7.4h5.4v5h-5.4v16.8c0,1.3,0.3,2.1,0.8,2.7s1.3,0.8,2.2,0.8c0.4,0,0.7,0,1.1-0.1c0.4-0.1,0.7-0.2,1-0.3
		l0.7,5c-0.6,0.3-1.3,0.6-2.1,0.7c-0.8,0.2-1.6,0.3-2.5,0.3c-2.5,0-4.5-0.7-5.9-2.2s-2.1-3.8-2.1-6.9v-16.8h-4.6v-5h4.6v-7.4H1182.9
		z"/>
	<path d="M1192.6,289.6c0-4.5,1.2-8.2,3.7-11.1s5.9-4.3,10.2-4.3c4.4,0,7.8,1.4,10.2,4.3s3.7,6.6,3.7,11.1v0.6
		c0,4.6-1.2,8.3-3.7,11.1c-2.5,2.9-5.9,4.3-10.2,4.3c-4.3,0-7.7-1.4-10.2-4.3s-3.7-6.6-3.7-11.1V289.6z M1199.4,290.2
		c0,3,0.6,5.4,1.7,7.2c1.2,1.8,3,2.8,5.4,2.8c2.4,0,4.2-0.9,5.3-2.8c1.2-1.9,1.8-4.3,1.8-7.2v-0.6c0-2.9-0.6-5.3-1.8-7.2
		c-1.2-1.9-3-2.8-5.4-2.8c-2.4,0-4.1,0.9-5.3,2.8c-1.2,1.9-1.8,4.3-1.8,7.2V290.2z"/>
	<path d="M1255.3,279.3l8.6-15.1h8.1l-12.5,20.2l13,20.6h-8.2l-8.9-15.3l-8.9,15.3h-8.1l12.8-20.6l-12.5-20.2h8L1255.3,279.3z"/>
	<path d="M1308.8,305.1h-6.8v-34.5h-8.7v-5.4l15.5-1.5V305.1z"/>
	<path d="M1331.4,305.1h-6.8v-6.5h6.8V305.1z"/>
	<path d="M1366.1,290.5c0,4.7-1.2,8.4-3.6,11.1c-2.4,2.7-5.7,4.1-9.7,4.1s-7.3-1.4-9.7-4.1c-2.4-2.7-3.7-6.4-3.7-11.1v-11.6
		c0-4.7,1.2-8.4,3.6-11.1c2.4-2.7,5.7-4.1,9.7-4.1c4.1,0,7.3,1.4,9.7,4.1c2.4,2.7,3.7,6.4,3.7,11.1V290.5z M1359.3,277.9
		c0-2.7-0.6-4.9-1.7-6.4c-1.2-1.5-2.8-2.3-4.8-2.3c-2.1,0-3.7,0.8-4.8,2.3c-1.1,1.5-1.7,3.7-1.7,6.4v13.6c0,2.8,0.6,4.9,1.7,6.5
		c1.2,1.5,2.8,2.3,4.9,2.3s3.7-0.8,4.8-2.3c1.1-1.5,1.7-3.7,1.7-6.5V277.9z"/>
	<path d="M1398.7,290.5c0,4.7-1.2,8.4-3.6,11.1c-2.4,2.7-5.7,4.1-9.7,4.1s-7.3-1.4-9.7-4.1c-2.4-2.7-3.7-6.4-3.7-11.1v-11.6
		c0-4.7,1.2-8.4,3.6-11.1c2.4-2.7,5.7-4.1,9.7-4.1c4.1,0,7.3,1.4,9.7,4.1c2.4,2.7,3.7,6.4,3.7,11.1V290.5z M1391.9,277.9
		c0-2.7-0.6-4.9-1.7-6.4c-1.2-1.5-2.8-2.3-4.8-2.3c-2.1,0-3.7,0.8-4.8,2.3c-1.1,1.5-1.7,3.7-1.7,6.4v13.6c0,2.8,0.6,4.9,1.7,6.5
		c1.2,1.5,2.8,2.3,4.9,2.3s3.7-0.8,4.8-2.3c1.1-1.5,1.7-3.7,1.7-6.5V277.9z"/>
	<path d="M1431.3,290.5c0,4.7-1.2,8.4-3.6,11.1c-2.4,2.7-5.7,4.1-9.7,4.1c-4.1,0-7.3-1.4-9.7-4.1c-2.4-2.7-3.7-6.4-3.7-11.1v-11.6
		c0-4.7,1.2-8.4,3.6-11.1c2.4-2.7,5.7-4.1,9.7-4.1s7.3,1.4,9.7,4.1c2.4,2.7,3.7,6.4,3.7,11.1V290.5z M1424.5,277.9
		c0-2.7-0.6-4.9-1.7-6.4c-1.2-1.5-2.8-2.3-4.8-2.3c-2.1,0-3.7,0.8-4.8,2.3c-1.1,1.5-1.7,3.7-1.7,6.4v13.6c0,2.8,0.6,4.9,1.7,6.5
		s2.8,2.3,4.9,2.3c2.1,0,3.7-0.8,4.8-2.3c1.1-1.5,1.7-3.7,1.7-6.5V277.9z"/>
</g>
<g class="st0">
	<path d="M592.2,155.6h-24.1V150h24.1V155.6z M592.2,167.5h-24.1v-5.6h24.1V167.5z"/>
</g>
<g>
	<rect x="624.5" y="170" width="980.5" height="5"/>
</g>
</svg>
