<?xml version="1.0" encoding="utf-8"?>
<!-- Generator: Adobe Illustrator 28.0.0, SVG Export Plug-In . SVG Version: 6.00 Build 0)  -->
<svg version="1.1" id="Layer_1" xmlns="http://www.w3.org/2000/svg" xmlns:xlink="http://www.w3.org/1999/xlink" x="0px" y="0px"
	 viewBox="0 0 1366 768" style="enable-background:new 0 0 1366 768;" xml:space="preserve">
<style type="text/css">
	.st0{fill:#CCC103;}
	.st1{fill:#1A1502;}
	.st2{fill:#FAF4F6;}
	.st3{fill:#F0E303;}
</style>
<g>
	<g>
		
			<rect x="283.2" y="80" transform="matrix(0.994 0.1095 -0.1095 0.994 45.9019 -72.5005)" class="st0" width="799.9" height="603.5"/>
	</g>
	<g>
		<path class="st1" d="M308.3,731l0-0.5L253.5,129l0.5,0l797.1-72.5l0,0.5l54.7,601.5l-0.5,0L308.3,731z M254.6,129.9l54.6,600
			l795.6-72.4l-54.6-600L254.6,129.9z"/>
	</g>
	<g>
		<rect x="281.4" y="88.7" class="st2" width="799.9" height="603.5"/>
	</g>
	<g>
		<path class="st3" d="M1045.4,656.3h-728V124.7h728V656.3z M318.4,655.3h726V125.7h-726V655.3z"/>
	</g>
	<g>
		<g>
			<path d="M318.9,140.2c-4.7-4.7-7-11.4-7-20.1c0-16.5,11.9-35.3,35.6-56.2l8.4,9c-8.4,8.8-14.8,16.4-19.1,22.7
				c-4.3,6.3-6.6,12.6-6.7,18.7c2.8-1.1,6.7-1.6,11.6-1.6c5.8,0,10.6,1.6,14.5,4.7c3.9,3.2,5.8,7.2,5.8,12.1c0,5.5-2.3,9.8-6.9,12.9
				c-4.6,3.2-10.3,4.7-17.2,4.7C329.9,147.3,323.6,144.9,318.9,140.2z M383.8,140.8c-4.7-4.8-7-11.6-7-20.2c0-8.6,3.2-17.7,9.5-27.2
				c6.3-9.5,15-19.1,26.1-28.8l8.4,9c-8.6,9.1-15,16.8-19.3,22.8c-4.2,6.1-6.4,12.3-6.6,18.6c3-1.2,6.9-1.8,11.6-1.8
				c5.8,0,10.7,1.6,14.6,4.9c4,3.3,5.9,7.3,5.9,12c0,5.3-2.3,9.6-7,12.9c-4.7,3.3-10.3,5-17,5C394.9,148.1,388.5,145.7,383.8,140.8z
				"/>
		</g>
	</g>
	<g>
		<g>
			<path d="M944.1,597.9c4.7,4.8,7,11.6,7,20.2c0,8.6-3.2,17.7-9.5,27.2c-6.3,9.5-15,19.1-26.1,28.8l-8.4-9
				c8.6-9.1,15-16.8,19.3-22.8s6.4-12.3,6.6-18.6c-3,1.2-6.9,1.8-11.6,1.8c-5.8,0-10.7-1.6-14.6-4.9c-4-3.3-5.9-7.3-5.9-12
				c0-5.3,2.3-9.6,7-12.9c4.7-3.3,10.3-5,17-5C933,590.6,939.4,593,944.1,597.9z M1009,598.5c4.7,4.7,7,11.4,7,20.1
				c0,16.5-11.9,35.3-35.6,56.2l-8.4-9c8.4-8.8,14.8-16.4,19.1-22.7c4.3-6.3,6.6-12.6,6.7-18.7c-2.8,1.1-6.7,1.6-11.6,1.6
				c-5.8,0-10.6-1.6-14.5-4.7c-3.9-3.2-5.8-7.2-5.8-12.1c0-5.5,2.3-9.8,6.9-12.9c4.6-3.2,10.3-4.7,17.2-4.7
				C997.9,591.4,1004.3,593.8,1009,598.5z"/>
		</g>
	</g>
	<g>
		<path d="M411.9,219.2h-14.4l-2.3,6.8h-9.8l14-38.6h10.9l14,38.6h-10L411.9,219.2z M404.7,197.8l-4.7,14.1h9.5L404.7,197.8z"/>
		<path d="M442,194.9c7.7,0,13.1,4.2,14.7,11.5h-10c-0.8-2.1-2.3-3.5-4.9-3.5c-3.4,0-5.7,2.6-5.7,7.8s2.3,7.8,5.7,7.8
			c2.6,0,4.1-1.3,4.9-3.5h10c-1.6,7.1-7,11.5-14.7,11.5c-9,0-15.4-6-15.4-15.8C426.6,201,432.9,194.9,442,194.9z"/>
		<path d="M460.8,187.1c0-2.9,2.3-5.1,5.6-5.1c3.3,0,5.6,2.3,5.6,5.1c0,2.8-2.3,5.1-5.6,5.1C463.1,192.1,460.8,189.9,460.8,187.1z
			 M461.7,195.3h9.4V226h-9.4V195.3z"/>
		<path d="M489.6,194.9c4.1,0,7.6,1.9,9.5,4.7v-14.2h9.4V226h-9.4v-4.4c-1.7,2.8-4.9,4.8-9.5,4.8c-7.5,0-13.5-6.2-13.5-15.8
			S482.1,194.9,489.6,194.9z M492.3,203.1c-3.5,0-6.7,2.6-6.7,7.5s3.2,7.6,6.7,7.6c3.6,0,6.7-2.7,6.7-7.6
			C499.1,205.8,495.9,203.1,492.3,203.1z"/>
		<path d="M528.9,226.5c-9,0-15.5-6-15.5-15.8c0-9.7,6.4-15.8,15.5-15.8c9,0,15.3,5.9,15.3,15.3c0,0.9-0.1,1.8-0.2,2.7h-21.3
			c0.3,4,2.8,5.9,5.8,5.9c2.6,0,4.1-1.3,4.9-3h10C542,221.8,536.6,226.5,528.9,226.5z M522.8,207.7h11.8c0-3.4-2.6-5.3-5.8-5.3
			C525.7,202.4,523.4,204.3,522.8,207.7z"/>
		<path d="M570.3,209.3c0-4.2-2.3-6.5-5.9-6.5c-3.6,0-5.9,2.3-5.9,6.5V226h-9.4v-30.7h9.4v4.1c1.9-2.6,5.2-4.4,9.3-4.4
			c7.1,0,11.8,4.8,11.8,13.1V226h-9.3V209.3z"/>
		<path d="M587.7,203.1H584v-7.8h3.7v-7.5h9.4v7.5h6.2v7.8h-6.2v12.3c0,1.8,0.8,2.6,2.9,2.6h3.4v8h-4.8c-6.4,0-10.8-2.7-10.8-10.7
			V203.1z"/>
		<path d="M622.2,226.5c-9,0-15.5-6-15.5-15.8c0-9.7,6.4-15.8,15.5-15.8c9,0,15.3,5.9,15.3,15.3c0,0.9-0.1,1.8-0.2,2.7H616
			c0.3,4,2.8,5.9,5.8,5.9c2.6,0,4.1-1.3,4.9-3h10C635.3,221.8,629.8,226.5,622.2,226.5z M616.1,207.7h11.8c0-3.4-2.6-5.3-5.8-5.3
			C619,202.4,616.6,204.3,616.1,207.7z"/>
		<path d="M665.8,194.9c4.1,0,7.6,1.9,9.5,4.7v-14.2h9.4V226h-9.4v-4.4c-1.7,2.8-4.9,4.8-9.5,4.8c-7.5,0-13.5-6.2-13.5-15.8
			S658.2,194.9,665.8,194.9z M668.5,203.1c-3.5,0-6.7,2.6-6.7,7.5s3.2,7.6,6.7,7.6c3.6,0,6.7-2.7,6.7-7.6
			C675.2,205.8,672.1,203.1,668.5,203.1z"/>
		<path d="M705.4,226.5c-9,0-15.8-6-15.8-15.8c0-9.7,7-15.8,15.9-15.8c9,0,15.9,6,15.9,15.8C721.5,220.4,714.4,226.5,705.4,226.5z
			 M705.4,218.3c3.4,0,6.5-2.5,6.5-7.6c0-5.2-3.1-7.6-6.4-7.6c-3.4,0-6.4,2.4-6.4,7.6C699.1,215.8,702,218.3,705.4,218.3z"/>
		<path d="M739.6,203.1h-3.7v-7.8h3.7v-7.5h9.4v7.5h6.2v7.8H749v12.3c0,1.8,0.8,2.6,2.9,2.6h3.4v8h-4.8c-6.4,0-10.8-2.7-10.8-10.7
			V203.1z"/>
		<path d="M769.9,226h-9.4v-30.7h9.4v5.1c2.1-3.2,5.5-5.4,9.6-5.4v10h-2.6c-4.5,0-7,1.5-7,6.8V226z"/>
		<path d="M795.7,194.9c4.6,0,7.8,2.1,9.5,4.8v-4.3h9.4V226h-9.4v-4.3c-1.7,2.7-4.9,4.8-9.5,4.8c-7.5,0-13.5-6.2-13.5-15.8
			S788.1,194.9,795.7,194.9z M798.4,203.1c-3.5,0-6.7,2.6-6.7,7.5s3.2,7.6,6.7,7.6c3.6,0,6.7-2.7,6.7-7.6
			C805.1,205.8,802,203.1,798.4,203.1z"/>
		<path d="M840.2,194.9c7.6,0,13.5,6,13.5,15.7s-6,15.8-13.5,15.8c-4.5,0-7.8-2-9.5-4.7v4.3h-9.4v-40.7h9.4v14.4
			C832.5,196.9,835.8,194.9,840.2,194.9z M837.4,203.1c-3.5,0-6.7,2.7-6.7,7.6c0,4.9,3.2,7.6,6.7,7.6c3.6,0,6.8-2.7,6.8-7.6
			S841,203.1,837.4,203.1z"/>
		<path d="M870.4,194.9c4.6,0,7.8,2.1,9.5,4.8v-4.3h9.4V226h-9.4v-4.3c-1.7,2.7-4.9,4.8-9.5,4.8c-7.5,0-13.5-6.2-13.5-15.8
			S862.8,194.9,870.4,194.9z M873.1,203.1c-3.5,0-6.7,2.6-6.7,7.5s3.2,7.6,6.7,7.6c3.6,0,6.7-2.7,6.7-7.6
			C879.8,205.8,876.7,203.1,873.1,203.1z"/>
		<path d="M896,185.3h9.4V226H896V185.3z"/>
		<path d="M912.3,185.3h9.4v14.1c1.9-2.6,5.2-4.5,9.5-4.5c7,0,11.7,4.8,11.7,13.1V226h-9.3v-16.7c0-4.2-2.3-6.5-5.9-6.5
			c-3.6,0-5.9,2.3-5.9,6.5V226h-9.4V185.3z"/>
		<path d="M963.3,226.5c-9,0-15.8-6-15.8-15.8c0-9.7,7-15.8,15.9-15.8c9,0,15.9,6,15.9,15.8C979.4,220.4,972.3,226.5,963.3,226.5z
			 M963.3,218.3c3.4,0,6.5-2.5,6.5-7.6c0-5.2-3.1-7.6-6.4-7.6c-3.4,0-6.4,2.4-6.4,7.6C957,215.8,959.9,218.3,963.3,218.3z"/>
	</g>
	<g>
		<path d="M407.1,293.3c-4.1,0-7.1-2.9-7.1-7.4c0-4.5,2.9-7.3,7.1-7.3c4.1,0,6.8,2.9,6.8,6.8c0,0.5,0,0.9-0.1,1.4h-11.4
			c0.2,2.9,2.2,4.5,4.6,4.5c2.1,0,3.5-1.1,4-2.6h2.6C412.9,291.3,410.6,293.3,407.1,293.3z M402.5,284.9h9c0-2.8-2.1-4.3-4.5-4.3
			C404.7,280.6,402.7,282.2,402.5,284.9z M409.5,272.8v2.1l-5.5,3V276L409.5,272.8z"/>
		<path d="M434,278.6c2.7,0,4.5,1.4,5.3,2.8v-2.6h2.4v14.3h-2.4v-2.7c-0.9,1.5-2.7,2.9-5.3,2.9c-3.8,0-6.7-3-6.7-7.4
			C427.3,281.5,430.2,278.6,434,278.6z M434.5,280.7c-2.6,0-4.8,1.9-4.8,5.3c0,3.4,2.2,5.3,4.8,5.3c2.6,0,4.8-2,4.8-5.3
			C439.4,282.6,437.1,280.7,434.5,280.7z"/>
		<path d="M453.7,278.6c2.6,0,4.5,1.4,5.3,2.8v-2.6h2.4v21H459v-9.4c-0.8,1.5-2.7,2.9-5.4,2.9c-3.8,0-6.7-3-6.7-7.4
			C447,281.5,449.9,278.6,453.7,278.6z M454.2,280.7c-2.6,0-4.8,1.9-4.8,5.3c0,3.4,2.2,5.3,4.8,5.3c2.6,0,4.8-2,4.8-5.3
			C459,282.6,456.8,280.7,454.2,280.7z"/>
		<path d="M480.2,293.1h-2.4V291c-0.9,1.5-2.7,2.3-4.6,2.3c-3.3,0-5.9-2-5.9-6.1v-8.4h2.3v8c0,2.9,1.6,4.4,4,4.4
			c2.4,0,4.1-1.5,4.1-4.6v-7.8h2.4V293.1z"/>
		<path d="M492.4,293.3c-4.1,0-7.1-2.9-7.1-7.4c0-4.5,2.9-7.3,7.1-7.3c4.1,0,6.8,2.9,6.8,6.8c0,0.5,0,0.9-0.1,1.4h-11.4
			c0.2,2.9,2.2,4.5,4.6,4.5c2.1,0,3.5-1.1,4-2.6h2.6C498.3,291.3,496,293.3,492.4,293.3z M487.8,284.9h9c0-2.8-2.1-4.3-4.5-4.3
			C490,280.6,488.1,282.2,487.8,284.9z"/>
		<path d="M504.5,273.8h2.4v19.3h-2.4V273.8z"/>
		<path d="M519.1,293.3c-4.1,0-7.1-2.9-7.1-7.4c0-4.5,2.9-7.3,7.1-7.3c4.1,0,6.8,2.9,6.8,6.8c0,0.5,0,0.9-0.1,1.4h-11.4
			c0.2,2.9,2.2,4.5,4.6,4.5c2.1,0,3.5-1.1,4-2.6h2.6C525,291.3,522.7,293.3,519.1,293.3z M514.5,284.9h9c0-2.8-2.1-4.3-4.5-4.3
			C516.7,280.6,514.8,282.2,514.5,284.9z"/>
		<path d="M546.1,278.6c2.6,0,4.5,1.4,5.3,2.8v-2.6h2.4v21h-2.4v-9.4c-0.8,1.5-2.7,2.9-5.4,2.9c-3.8,0-6.7-3-6.7-7.4
			C539.3,281.5,542.3,278.6,546.1,278.6z M546.6,280.7c-2.6,0-4.8,1.9-4.8,5.3c0,3.4,2.2,5.3,4.8,5.3c2.6,0,4.8-2,4.8-5.3
			C551.4,282.6,549.2,280.7,546.6,280.7z"/>
		<path d="M572.5,293.1h-2.4V291c-0.9,1.5-2.7,2.3-4.6,2.3c-3.3,0-5.9-2-5.9-6.1v-8.4h2.3v8c0,2.9,1.6,4.4,4,4.4
			c2.4,0,4.1-1.5,4.1-4.6v-7.8h2.4V293.1z"/>
		<path d="M584.8,293.3c-4.1,0-7.1-2.9-7.1-7.4c0-4.5,2.9-7.3,7.1-7.3c4.1,0,6.8,2.9,6.8,6.8c0,0.5,0,0.9-0.1,1.4h-11.4
			c0.2,2.9,2.2,4.5,4.6,4.5c2.1,0,3.5-1.1,4-2.6h2.6C590.6,291.3,588.3,293.3,584.8,293.3z M580.2,284.9h9c0-2.8-2.1-4.3-4.5-4.3
			C582.4,280.6,580.4,282.2,580.2,284.9z"/>
		<path d="M612.1,293.3c-4,0-7.1-2.9-7.1-7.4c0-4.5,3.2-7.3,7.2-7.3c4.1,0,7.2,2.8,7.2,7.3C619.4,290.5,616.2,293.3,612.1,293.3z
			 M612.1,291.3c2.5,0,4.9-1.7,4.9-5.3c0-3.6-2.4-5.3-4.8-5.3c-2.5,0-4.8,1.7-4.8,5.3C607.4,289.6,609.6,291.3,612.1,291.3z"/>
		<path d="M630.7,278.6c3.5,0,5.9,1.8,6.6,4.8h-2.6c-0.5-1.7-1.9-2.8-4-2.8c-2.6,0-4.5,1.8-4.5,5.3c0,3.5,1.9,5.4,4.5,5.4
			c2.1,0,3.5-1,4-2.8h2.6c-0.7,2.8-3,4.8-6.6,4.8c-4.1,0-7-2.9-7-7.4C623.7,281.5,626.6,278.6,630.7,278.6z"/>
		<path d="M648.7,293.3c-4,0-7.1-2.9-7.1-7.4c0-4.5,3.2-7.3,7.2-7.3c4.1,0,7.2,2.8,7.2,7.3C656,290.5,652.8,293.3,648.7,293.3z
			 M648.7,291.3c2.5,0,4.9-1.7,4.9-5.3c0-3.6-2.4-5.3-4.8-5.3c-2.5,0-4.8,1.7-4.8,5.3C644,289.6,646.2,291.3,648.7,291.3z"/>
		<path d="M663.6,293.1h-2.4v-14.3h2.4v2.3c0.8-1.6,2.3-2.6,4.6-2.6v2.4h-0.6c-2.3,0-4,1-4,4.3V293.1z"/>
		<path d="M675.4,293.1H673v-14.3h2.4v2.3c0.8-1.6,2.3-2.6,4.6-2.6v2.4h-0.6c-2.3,0-4,1-4,4.3V293.1z"/>
		<path d="M691,293.3c-4.1,0-7.1-2.9-7.1-7.4c0-4.5,2.9-7.3,7.1-7.3c4.1,0,6.8,2.9,6.8,6.8c0,0.5,0,0.9-0.1,1.4h-11.4
			c0.2,2.9,2.2,4.5,4.6,4.5c2.1,0,3.5-1.1,4-2.6h2.6C696.8,291.3,694.5,293.3,691,293.3z M686.4,284.9h9c0-2.8-2.1-4.3-4.5-4.3
			C688.6,280.6,686.6,282.2,686.4,284.9z"/>
		<path d="M719.8,278.6c3.8,0,6.8,2.9,6.8,7.3c0,4.4-2.9,7.4-6.8,7.4c-2.6,0-4.5-1.4-5.3-2.9v9.4h-2.4v-21h2.4v2.6
			C715.3,280,717.2,278.6,719.8,278.6z M719.3,280.7c-2.6,0-4.8,2-4.8,5.3c0,3.4,2.3,5.3,4.8,5.3c2.6,0,4.8-2,4.8-5.3
			C724.1,282.6,721.9,280.7,719.3,280.7z"/>
		<path d="M737.9,293.3c-4.1,0-7.1-2.9-7.1-7.4c0-4.5,2.9-7.3,7.1-7.3c4.1,0,6.8,2.9,6.8,6.8c0,0.5,0,0.9-0.1,1.4h-11.4
			c0.2,2.9,2.2,4.5,4.6,4.5c2.1,0,3.5-1.1,4-2.6h2.6C743.7,291.3,741.5,293.3,737.9,293.3z M733.3,284.9h9c0-2.8-2.1-4.3-4.5-4.3
			C735.5,280.6,733.6,282.2,733.3,284.9z"/>
		<path d="M750,273.8h2.4v19.3H750V273.8z"/>
		<path d="M764.7,293.3c-4,0-7.1-2.9-7.1-7.4c0-4.5,3.2-7.3,7.2-7.3c4.1,0,7.2,2.8,7.2,7.3C772,290.5,768.7,293.3,764.7,293.3z
			 M764.7,291.3c2.5,0,4.9-1.7,4.9-5.3c0-3.6-2.4-5.3-4.8-5.3c-2.5,0-4.8,1.7-4.8,5.3C760,289.6,762.2,291.3,764.7,291.3z"/>
		<path d="M792.4,293.3c-4.1,0-7.1-2.9-7.1-7.4c0-4.5,2.9-7.3,7.1-7.3c4.1,0,6.8,2.9,6.8,6.8c0,0.5,0,0.9-0.1,1.4h-11.4
			c0.2,2.9,2.2,4.5,4.6,4.5c2.1,0,3.5-1.1,4-2.6h2.6C798.2,291.3,795.9,293.3,792.4,293.3z M787.8,284.9h9c0-2.8-2.1-4.3-4.5-4.3
			C790,280.6,788,282.2,787.8,284.9z"/>
		<path d="M808.5,287.8l-3.3,5.3h-2.5l4.6-7.1l-4.6-7.2h2.7l3.4,5.3l3.2-5.3h2.5l-4.6,7.1l4.6,7.2h-2.7L808.5,287.8z"/>
		<path d="M825.2,293.3c-4.1,0-7.1-2.9-7.1-7.4c0-4.5,2.9-7.3,7.1-7.3c4.1,0,6.8,2.9,6.8,6.8c0,0.5,0,0.9-0.1,1.4h-11.4
			c0.2,2.9,2.2,4.5,4.6,4.5c2.1,0,3.5-1.1,4-2.6h2.6C831,291.3,828.7,293.3,825.2,293.3z M820.6,284.9h9c0-2.8-2.1-4.3-4.5-4.3
			C822.7,280.6,820.8,282.2,820.6,284.9z"/>
		<path d="M839.6,293.1h-2.4v-14.3h2.4v2.3c0.8-1.6,2.3-2.6,4.6-2.6v2.4h-0.6c-2.3,0-4,1-4,4.3V293.1z"/>
		<path d="M855.1,278.6c3.5,0,5.9,1.8,6.6,4.8h-2.6c-0.5-1.7-1.9-2.8-4-2.8c-2.6,0-4.5,1.8-4.5,5.3c0,3.5,1.9,5.4,4.5,5.4
			c2.1,0,3.5-1,4-2.8h2.6c-0.7,2.8-3,4.8-6.6,4.8c-4.1,0-7-2.9-7-7.4C848.1,281.5,851,278.6,855.1,278.6z"/>
		<path d="M870.6,272.8v2.1l-5.5,3V276L870.6,272.8z M866.9,278.8h2.4v14.3h-2.4V278.8z"/>
		<path d="M881.4,278.6c3.5,0,5.9,1.8,6.6,4.8h-2.6c-0.5-1.7-1.9-2.8-4-2.8c-2.6,0-4.5,1.8-4.5,5.3c0,3.5,1.9,5.4,4.5,5.4
			c2.1,0,3.5-1,4-2.8h2.6c-0.7,2.8-3,4.8-6.6,4.8c-4.1,0-7-2.9-7-7.4C874.5,281.5,877.4,278.6,881.4,278.6z"/>
		<path d="M892.9,274.9c0-0.9,0.7-1.6,1.6-1.6c0.9,0,1.6,0.7,1.6,1.6c0,0.9-0.7,1.6-1.6,1.6C893.6,276.5,892.9,275.8,892.9,274.9z
			 M893.2,278.8h2.4v14.3h-2.4V278.8z"/>
		<path d="M908,293.3c-4,0-7.1-2.9-7.1-7.4c0-4.5,3.2-7.3,7.2-7.3c4.1,0,7.2,2.8,7.2,7.3C915.3,290.5,912,293.3,908,293.3z
			 M908,291.3c2.5,0,4.9-1.7,4.9-5.3c0-3.6-2.4-5.3-4.8-5.3c-2.5,0-4.8,1.7-4.8,5.3C903.3,289.6,905.5,291.3,908,291.3z"/>
		<path d="M935.4,278.6c2.2,0,4.3,1.1,5.3,2.8v-7.5h2.4v19.3h-2.4v-2.7c-0.9,1.6-2.7,2.9-5.3,2.9c-3.8,0-6.8-3-6.8-7.4
			C928.6,281.5,931.6,278.6,935.4,278.6z M935.9,280.7c-2.6,0-4.8,1.9-4.8,5.3c0,3.4,2.2,5.3,4.8,5.3c2.6,0,4.8-2,4.8-5.3
			C940.7,282.6,938.5,280.7,935.9,280.7z"/>
		<path d="M955.4,293.3c-4,0-7.1-2.9-7.1-7.4c0-4.5,3.2-7.3,7.2-7.3c4.1,0,7.2,2.8,7.2,7.3C962.7,290.5,959.5,293.3,955.4,293.3z
			 M955.4,291.3c2.5,0,4.9-1.7,4.9-5.3c0-3.6-2.4-5.3-4.8-5.3c-2.5,0-4.8,1.7-4.8,5.3C950.7,289.6,952.9,291.3,955.4,291.3z"/>
		<path d="M355.1,328.8h-1.8v-2h1.8v-3.6h2.4v3.6h3.7v2h-3.7v8.4c0,1.4,0.5,1.9,2,1.9h1.7v2H359c-2.5,0-4-1-4-3.9V328.8z"/>
		<path d="M368.5,341.1h-2.4v-14.3h2.4v2.3c0.8-1.6,2.3-2.6,4.6-2.6v2.4h-0.6c-2.3,0-4,1-4,4.3V341.1z"/>
		<path d="M383.8,326.6c2.7,0,4.5,1.4,5.3,2.8v-2.6h2.4v14.3h-2.4v-2.7c-0.9,1.5-2.7,2.9-5.3,2.9c-3.8,0-6.7-3-6.7-7.4
			C377,329.5,380,326.6,383.8,326.6z M384.3,328.7c-2.6,0-4.8,1.9-4.8,5.3c0,3.4,2.2,5.3,4.8,5.3c2.6,0,4.8-2,4.8-5.3
			C389.1,330.6,386.9,328.7,384.3,328.7z"/>
		<path d="M405.3,326.6c3.9,0,6.8,2.9,6.8,7.3c0,4.4-2.9,7.4-6.8,7.4c-2.6,0-4.5-1.3-5.3-2.9v2.6h-2.4v-19.3h2.4v7.7
			C400.9,327.9,402.8,326.6,405.3,326.6z M404.8,328.7c-2.6,0-4.8,2-4.8,5.3c0,3.4,2.3,5.3,4.8,5.3c2.6,0,4.8-2,4.8-5.3
			C409.6,330.6,407.4,328.7,404.8,328.7z"/>
		<path d="M423.1,326.6c2.7,0,4.5,1.4,5.3,2.8v-2.6h2.4v14.3h-2.4v-2.7c-0.9,1.5-2.7,2.9-5.3,2.9c-3.8,0-6.7-3-6.7-7.4
			C416.4,329.5,419.3,326.6,423.1,326.6z M423.6,328.7c-2.6,0-4.8,1.9-4.8,5.3c0,3.4,2.2,5.3,4.8,5.3c2.6,0,4.8-2,4.8-5.3
			C428.4,330.6,426.2,328.7,423.6,328.7z"/>
		<path d="M436.9,321.8h2.4v19.3h-2.4V321.8z"/>
		<path d="M445.4,321.8h2.4v7.1c0.9-1.5,2.7-2.3,4.7-2.3c3.2,0,5.7,2,5.7,6.1v8.4h-2.3V333c0-2.9-1.6-4.4-4-4.4
			c-2.4,0-4.1,1.5-4.1,4.6v7.9h-2.4V321.8z"/>
		<path d="M470.4,341.3c-4,0-7.1-2.9-7.1-7.4c0-4.5,3.2-7.3,7.2-7.3c4.1,0,7.2,2.8,7.2,7.3C477.7,338.5,474.4,341.3,470.4,341.3z
			 M470.4,339.3c2.5,0,4.9-1.7,4.9-5.3c0-3.6-2.4-5.3-4.8-5.3c-2.5,0-4.8,1.7-4.8,5.3C465.7,337.6,467.9,339.3,470.4,339.3z"/>
		<path d="M497.8,326.6c2.7,0,4.5,1.4,5.3,2.8v-2.6h2.4v14.3h-2.4v-2.7c-0.9,1.5-2.7,2.9-5.3,2.9c-3.8,0-6.7-3-6.7-7.4
			C491,329.5,494,326.6,497.8,326.6z M498.3,328.7c-2.6,0-4.8,1.9-4.8,5.3c0,3.4,2.2,5.3,4.8,5.3c2.6,0,4.8-2,4.8-5.3
			C503.1,330.6,500.9,328.7,498.3,328.7z"/>
		<path d="M525.7,341.3c-3.3,0-5.7-1.8-5.8-4.4h2.4c0.1,1.4,1.4,2.4,3.4,2.4c1.9,0,2.9-0.9,2.9-2.1c0-3.2-8.4-1.3-8.4-6.6
			c0-2.2,2.1-4,5.2-4c3.1,0,5.2,1.7,5.4,4.5h-2.4c-0.1-1.4-1.2-2.5-3.1-2.5c-1.7,0-2.8,0.8-2.8,2c0,3.4,8.3,1.5,8.4,6.6
			C530.9,339.6,528.8,341.3,525.7,341.3z"/>
		<path d="M542.5,341.3c-4.1,0-7.1-2.9-7.1-7.4c0-4.5,2.9-7.3,7.1-7.3c4.1,0,6.8,2.9,6.8,6.8c0,0.5,0,0.9-0.1,1.4h-11.4
			c0.2,2.9,2.2,4.5,4.6,4.5c2.1,0,3.5-1.1,4-2.6h2.6C548.3,339.3,546,341.3,542.5,341.3z M537.9,332.9h9c0-2.8-2.1-4.3-4.5-4.3
			C540.1,328.6,538.1,330.2,537.9,332.9z"/>
		<path d="M556.9,341.1h-2.4v-14.3h2.4v2.3c0.8-1.6,2.3-2.6,4.6-2.6v2.4h-0.6c-2.3,0-4,1-4,4.3V341.1z"/>
		<path d="M567.2,326.8l4.5,12.1l4.4-12.1h2.5l-5.6,14.3h-2.8l-5.6-14.3H567.2z"/>
		<path d="M582.6,322.9c0-0.9,0.7-1.6,1.6-1.6c0.9,0,1.6,0.7,1.6,1.6c0,0.9-0.7,1.6-1.6,1.6C583.3,324.5,582.6,323.8,582.6,322.9z
			 M583,326.8h2.4v14.3H583V326.8z"/>
		<path d="M597.5,326.6c3.5,0,5.9,1.8,6.6,4.8h-2.6c-0.5-1.7-1.9-2.8-4-2.8c-2.6,0-4.5,1.8-4.5,5.3c0,3.5,1.9,5.4,4.5,5.4
			c2.1,0,3.5-1,4-2.8h2.6c-0.7,2.6-2.7,4.5-5.9,4.8v1.3c2,0,3.4,0.9,3.4,2.6c0,1.6-1.3,2.7-3.2,2.7h-3v-1.5h2.5
			c1.1,0,1.7-0.3,1.7-1.1c0-0.8-0.5-1.1-1.7-1.1h-1.3v-2.8c-3.6-0.4-6.1-3.1-6.1-7.3C590.6,329.5,593.5,326.6,597.5,326.6z"/>
		<path d="M615.6,341.3c-4,0-7.1-2.9-7.1-7.4c0-4.5,3.2-7.3,7.2-7.3c4.1,0,7.2,2.8,7.2,7.3C622.9,338.5,619.6,341.3,615.6,341.3z
			 M615.6,339.3c2.5,0,4.9-1.7,4.9-5.3c0-3.6-2.4-5.3-4.8-5.3c-2.5,0-4.8,1.7-4.8,5.3C610.9,337.6,613.1,339.3,615.6,339.3z"/>
		<path d="M643,326.6c2.2,0,4.3,1.1,5.3,2.8v-7.5h2.4v19.3h-2.4v-2.7c-0.9,1.6-2.7,2.9-5.3,2.9c-3.8,0-6.8-3-6.8-7.4
			C636.2,329.5,639.2,326.6,643,326.6z M643.5,328.7c-2.6,0-4.8,1.9-4.8,5.3c0,3.4,2.2,5.3,4.8,5.3c2.6,0,4.8-2,4.8-5.3
			C648.3,330.6,646.1,328.7,643.5,328.7z"/>
		<path d="M662.7,326.6c2.7,0,4.5,1.4,5.3,2.8v-2.6h2.4v14.3H668v-2.7c-0.9,1.5-2.7,2.9-5.3,2.9c-3.8,0-6.7-3-6.7-7.4
			C655.9,329.5,658.9,326.6,662.7,326.6z M663.2,328.7c-2.6,0-4.8,1.9-4.8,5.3c0,3.4,2.2,5.3,4.8,5.3c2.6,0,4.8-2,4.8-5.3
			C668,330.6,665.8,328.7,663.2,328.7z"/>
		<path d="M691.7,341.3c-4.1,0-7.1-2.9-7.1-7.4c0-4.5,2.9-7.3,7.1-7.3c4.1,0,6.8,2.9,6.8,6.8c0,0.5,0,0.9-0.1,1.4h-11.4
			c0.2,2.9,2.2,4.5,4.6,4.5c2.1,0,3.5-1.1,4-2.6h2.6C697.5,339.3,695.2,341.3,691.7,341.3z M687.1,332.9h9c0-2.8-2.1-4.3-4.5-4.3
			C689.3,328.6,687.3,330.2,687.1,332.9z"/>
		<path d="M724.3,333c0-2.9-1.6-4.4-3.9-4.4c-2.4,0-4,1.5-4,4.6v7.9H714V333c0-2.9-1.6-4.4-3.9-4.4c-2.4,0-4,1.5-4,4.6v7.9h-2.4
			v-14.3h2.4v2.1c0.9-1.5,2.6-2.3,4.5-2.3c2.3,0,4.3,1,5.2,3.2c0.8-2.1,2.9-3.2,5-3.2c3.3,0,5.8,2,5.8,6.1v8.4h-2.3V333z"/>
		<path d="M740.3,326.6c3.8,0,6.8,2.9,6.8,7.3c0,4.4-2.9,7.4-6.8,7.4c-2.6,0-4.5-1.4-5.3-2.9v9.4h-2.4v-21h2.4v2.6
			C735.9,328,737.7,326.6,740.3,326.6z M739.8,328.7c-2.6,0-4.8,2-4.8,5.3c0,3.4,2.3,5.3,4.8,5.3c2.6,0,4.8-2,4.8-5.3
			C744.7,330.6,742.5,328.7,739.8,328.7z"/>
		<path d="M754.7,341.1h-2.4v-14.3h2.4v2.3c0.8-1.6,2.3-2.6,4.6-2.6v2.4h-0.6c-2.3,0-4,1-4,4.3V341.1z"/>
		<path d="M770.3,341.3c-4.1,0-7.1-2.9-7.1-7.4c0-4.5,2.9-7.3,7.1-7.3c4.1,0,6.8,2.9,6.8,6.8c0,0.5,0,0.9-0.1,1.4h-11.4
			c0.2,2.9,2.2,4.5,4.6,4.5c2.1,0,3.5-1.1,4-2.6h2.6C776.1,339.3,773.8,341.3,770.3,341.3z M765.7,332.9h9c0-2.8-2.1-4.3-4.5-4.3
			C767.8,328.6,765.9,330.2,765.7,332.9z"/>
		<path d="M787.4,341.3c-3.3,0-5.7-1.8-5.8-4.4h2.4c0.1,1.4,1.4,2.4,3.4,2.4c1.9,0,2.9-0.9,2.9-2.1c0-3.2-8.4-1.3-8.4-6.6
			c0-2.2,2.1-4,5.2-4c3.1,0,5.2,1.7,5.4,4.5h-2.4c-0.1-1.4-1.2-2.5-3.1-2.5c-1.7,0-2.8,0.8-2.8,2c0,3.4,8.3,1.5,8.4,6.6
			C792.6,339.6,790.5,341.3,787.4,341.3z"/>
		<path d="M803.9,326.6c2.7,0,4.5,1.4,5.3,2.8v-2.6h2.4v14.3h-2.4v-2.7c-0.9,1.5-2.7,2.9-5.3,2.9c-3.8,0-6.7-3-6.7-7.4
			C797.1,329.5,800,326.6,803.9,326.6z M804.3,328.7c-2.6,0-4.8,1.9-4.8,5.3c0,3.4,2.2,5.3,4.8,5.3c2.6,0,4.8-2,4.8-5.3
			C809.2,330.6,806.9,328.7,804.3,328.7z"/>
		<path d="M817.5,337.8h2.6l-2.9,7h-1.6L817.5,337.8z"/>
		<path d="M841.6,326.6c3.8,0,6.8,2.9,6.8,7.3c0,4.4-2.9,7.4-6.8,7.4c-2.6,0-4.5-1.4-5.3-2.9v9.4h-2.4v-21h2.4v2.6
			C837.2,328,839,326.6,841.6,326.6z M841.1,328.7c-2.6,0-4.8,2-4.8,5.3c0,3.4,2.3,5.3,4.8,5.3c2.6,0,4.8-2,4.8-5.3
			C846,330.6,843.8,328.7,841.1,328.7z"/>
		<path d="M856,341.1h-2.4v-14.3h2.4v2.3c0.8-1.6,2.3-2.6,4.6-2.6v2.4H860c-2.3,0-4,1-4,4.3V341.1z"/>
		<path d="M871.6,341.3c-4,0-7.1-2.9-7.1-7.4c0-4.5,3.2-7.3,7.2-7.3c4.1,0,7.2,2.8,7.2,7.3C878.9,338.5,875.7,341.3,871.6,341.3z
			 M871.6,339.3c2.5,0,4.9-1.7,4.9-5.3c0-3.6-2.4-5.3-4.8-5.3c-2.5,0-4.8,1.7-4.8,5.3C866.9,337.6,869.1,339.3,871.6,339.3z"/>
		<path d="M885,326.8l4.5,12.1l4.4-12.1h2.5l-5.6,14.3H888l-5.6-14.3H885z"/>
		<path d="M907,341.3c-4,0-7.1-2.9-7.1-7.4c0-4.5,3.2-7.3,7.2-7.3c4.1,0,7.2,2.8,7.2,7.3C914.4,338.5,911.1,341.3,907,341.3z
			 M907,339.3c2.5,0,4.9-1.7,4.9-5.3c0-3.6-2.4-5.3-4.8-5.3c-2.5,0-4.8,1.7-4.8,5.3C902.4,337.6,904.6,339.3,907,339.3z"/>
		<path d="M925.6,326.6c3.5,0,5.9,1.8,6.6,4.8h-2.6c-0.5-1.7-1.9-2.8-4-2.8c-2.6,0-4.5,1.8-4.5,5.3c0,3.5,1.9,5.4,4.5,5.4
			c2.1,0,3.5-1,4-2.8h2.6c-0.7,2.8-3,4.8-6.6,4.8c-4.1,0-7-2.9-7-7.4C918.7,329.5,921.6,326.6,925.6,326.6z"/>
		<path d="M943.3,326.6c2.7,0,4.5,1.4,5.3,2.8v-2.6h2.4v14.3h-2.4v-2.7c-0.9,1.5-2.7,2.9-5.3,2.9c-3.8,0-6.7-3-6.7-7.4
			C936.6,329.5,939.5,326.6,943.3,326.6z M943.8,328.7c-2.6,0-4.8,1.9-4.8,5.3c0,3.4,2.2,5.3,4.8,5.3c2.6,0,4.8-2,4.8-5.3
			C948.6,330.6,946.4,328.7,943.8,328.7z"/>
		<path d="M967.6,333c0-2.9-1.6-4.4-4-4.4c-2.4,0-4.1,1.5-4.1,4.6v7.9h-2.4v-14.3h2.4v2c0.9-1.5,2.7-2.3,4.6-2.3
			c3.3,0,5.8,2,5.8,6.1v8.4h-2.3V333z"/>
		<path d="M981.8,326.6c2.2,0,4.3,1.1,5.3,2.8v-7.5h2.4v19.3h-2.4v-2.7c-0.9,1.6-2.7,2.9-5.3,2.9c-3.8,0-6.8-3-6.8-7.4
			C975,329.5,977.9,326.6,981.8,326.6z M982.2,328.7c-2.6,0-4.8,1.9-4.8,5.3c0,3.4,2.2,5.3,4.8,5.3c2.6,0,4.8-2,4.8-5.3
			C987.1,330.6,984.8,328.7,982.2,328.7z"/>
		<path d="M1001.8,341.3c-4,0-7.1-2.9-7.1-7.4c0-4.5,3.2-7.3,7.2-7.3c4.1,0,7.2,2.8,7.2,7.3C1009.1,338.5,1005.8,341.3,1001.8,341.3
			z M1001.8,339.3c2.5,0,4.9-1.7,4.9-5.3c0-3.6-2.4-5.3-4.8-5.3c-2.5,0-4.8,1.7-4.8,5.3C997.1,337.6,999.3,339.3,1001.8,339.3z"/>
		<path d="M380,369.8h2.4v19.3H380V369.8z"/>
		<path d="M394.7,389.3c-4.1,0-7.1-2.9-7.1-7.4c0-4.5,2.9-7.3,7.1-7.3c4.1,0,6.8,2.9,6.8,6.8c0,0.5,0,0.9-0.1,1.4h-11.4
			c0.2,2.9,2.2,4.5,4.6,4.5c2.1,0,3.5-1.1,4-2.6h2.6C400.5,387.3,398.2,389.3,394.7,389.3z M390.1,380.9h9c0-2.8-2.1-4.3-4.5-4.3
			C392.3,376.6,390.4,378.2,390.1,380.9z"/>
		<path d="M411.8,389.3c-3.3,0-5.7-1.8-5.8-4.4h2.4c0.1,1.4,1.4,2.4,3.4,2.4c1.9,0,2.9-0.9,2.9-2.1c0-3.2-8.4-1.3-8.4-6.6
			c0-2.2,2.1-4,5.2-4c3.1,0,5.2,1.7,5.4,4.5h-2.4c-0.1-1.4-1.2-2.5-3.1-2.5c-1.7,0-2.8,0.8-2.8,2c0,3.4,8.3,1.5,8.4,6.6
			C417,387.6,415,389.3,411.8,389.3z"/>
		<path d="M428.3,374.6c2.7,0,4.5,1.4,5.3,2.8v-2.6h2.4v14.3h-2.4v-2.7c-0.9,1.5-2.7,2.9-5.3,2.9c-3.8,0-6.7-3-6.7-7.4
			C421.5,377.5,424.5,374.6,428.3,374.6z M428.8,376.7c-2.6,0-4.8,1.9-4.8,5.3s2.2,5.3,4.8,5.3c2.6,0,4.8-2,4.8-5.3
			C433.6,378.6,431.4,376.7,428.8,376.7z M428,370.6c1.4,0,1.9,1.2,3,1.2c0.6,0,1-0.4,1.1-1.1h1.4c-0.2,1.8-1.2,2.7-2.6,2.7
			c-1.4,0-1.9-1.2-3-1.2c-0.6,0-1,0.4-1.1,1.1h-1.4C425.7,371.5,426.7,370.6,428,370.6z"/>
		<path d="M448.3,389.3c-4,0-7.1-2.9-7.1-7.4c0-4.5,3.2-7.3,7.2-7.3c4.1,0,7.2,2.8,7.2,7.3C455.6,386.5,452.4,389.3,448.3,389.3z
			 M448.3,387.3c2.5,0,4.9-1.7,4.9-5.3c0-3.6-2.4-5.3-4.8-5.3c-2.5,0-4.8,1.7-4.8,5.3C443.6,385.6,445.8,387.3,448.3,387.3z"/>
		<path d="M475.9,374.6c3.5,0,5.9,1.8,6.6,4.8H480c-0.5-1.7-1.9-2.8-4-2.8c-2.6,0-4.5,1.8-4.5,5.3c0,3.5,1.9,5.4,4.5,5.4
			c2.1,0,3.5-1,4-2.8h2.6c-0.7,2.8-3,4.8-6.6,4.8c-4.1,0-7-2.9-7-7.4C469,377.5,471.9,374.6,475.9,374.6z"/>
		<path d="M494,389.3c-4,0-7.1-2.9-7.1-7.4c0-4.5,3.2-7.3,7.2-7.3c4.1,0,7.2,2.8,7.2,7.3C501.3,386.5,498,389.3,494,389.3z
			 M494,387.3c2.5,0,4.9-1.7,4.9-5.3c0-3.6-2.4-5.3-4.8-5.3c-2.5,0-4.8,1.7-4.8,5.3C489.3,385.6,491.5,387.3,494,387.3z"/>
		<path d="M508.9,389.1h-2.4v-14.3h2.4v2.3c0.8-1.6,2.3-2.6,4.6-2.6v2.4h-0.6c-2.3,0-4,1-4,4.3V389.1z"/>
		<path d="M526,374.6c3.8,0,6.8,2.9,6.8,7.3c0,4.4-2.9,7.4-6.8,7.4c-2.6,0-4.5-1.4-5.3-2.9v9.4h-2.4v-21h2.4v2.6
			C521.5,376,523.4,374.6,526,374.6z M525.5,376.7c-2.6,0-4.8,2-4.8,5.3c0,3.4,2.3,5.3,4.8,5.3c2.6,0,4.8-2,4.8-5.3
			S528.1,376.7,525.5,376.7z"/>
		<path d="M544.2,389.3c-4,0-7.1-2.9-7.1-7.4c0-4.5,3.2-7.3,7.2-7.3c4.1,0,7.2,2.8,7.2,7.3C551.5,386.5,548.2,389.3,544.2,389.3z
			 M544.2,387.3c2.5,0,4.9-1.7,4.9-5.3c0-3.6-2.4-5.3-4.8-5.3c-2.5,0-4.8,1.7-4.8,5.3C539.5,385.6,541.7,387.3,544.2,387.3z"/>
		<path d="M559.1,389.1h-2.4v-14.3h2.4v2.3c0.8-1.6,2.3-2.6,4.6-2.6v2.4H563c-2.3,0-4,1-4,4.3V389.1z"/>
		<path d="M574.4,374.6c2.7,0,4.5,1.4,5.3,2.8v-2.6h2.4v14.3h-2.4v-2.7c-0.9,1.5-2.7,2.9-5.3,2.9c-3.8,0-6.7-3-6.7-7.4
			C567.6,377.5,570.5,374.6,574.4,374.6z M574.8,376.7c-2.6,0-4.8,1.9-4.8,5.3s2.2,5.3,4.8,5.3c2.6,0,4.8-2,4.8-5.3
			C579.7,378.6,577.4,376.7,574.8,376.7z"/>
		<path d="M588.2,369.8h2.4v19.3h-2.4V369.8z"/>
		<path d="M611.9,389.3c-4,0-7.1-2.9-7.1-7.4c0-4.5,3.2-7.3,7.2-7.3c4.1,0,7.2,2.8,7.2,7.3C619.2,386.5,616,389.3,611.9,389.3z
			 M611.9,387.3c2.5,0,4.9-1.7,4.9-5.3c0-3.6-2.4-5.3-4.8-5.3c-2.5,0-4.8,1.7-4.8,5.3C607.2,385.6,609.4,387.3,611.9,387.3z"/>
		<path d="M637.1,389.1h-2.4V387c-0.9,1.5-2.7,2.3-4.6,2.3c-3.3,0-5.9-2-5.9-6.1v-8.4h2.3v8c0,2.9,1.6,4.4,4,4.4
			c2.4,0,4.1-1.5,4.1-4.6v-7.8h2.4V389.1z"/>
		<path d="M659.9,374.6c3.8,0,6.8,2.9,6.8,7.3c0,4.4-2.9,7.4-6.8,7.4c-2.6,0-4.5-1.4-5.3-2.9v9.4h-2.4v-21h2.4v2.6
			C655.4,376,657.3,374.6,659.9,374.6z M659.4,376.7c-2.6,0-4.8,2-4.8,5.3c0,3.4,2.3,5.3,4.8,5.3c2.6,0,4.8-2,4.8-5.3
			S662,376.7,659.4,376.7z"/>
		<path d="M678,389.3c-4.1,0-7.1-2.9-7.1-7.4c0-4.5,2.9-7.3,7.1-7.3c4.1,0,6.8,2.9,6.8,6.8c0,0.5,0,0.9-0.1,1.4h-11.4
			c0.2,2.9,2.2,4.5,4.6,4.5c2.1,0,3.5-1.1,4-2.6h2.6C683.9,387.3,681.6,389.3,678,389.3z M673.4,380.9h9c0-2.8-2.1-4.3-4.5-4.3
			C675.6,376.6,673.7,378.2,673.4,380.9z"/>
		<path d="M692.5,389.1h-2.4v-14.3h2.4v2.3c0.8-1.6,2.3-2.6,4.6-2.6v2.4h-0.6c-2.3,0-4,1-4,4.3V389.1z"/>
		<path d="M702.4,376.8h-1.8v-2h1.8v-3.6h2.4v3.6h3.7v2h-3.7v8.4c0,1.4,0.5,1.9,2,1.9h1.7v2h-2.1c-2.5,0-4-1-4-3.9V376.8z"/>
		<path d="M726.1,389.1h-2.4V387c-0.9,1.5-2.7,2.3-4.6,2.3c-3.3,0-5.9-2-5.9-6.1v-8.4h2.3v8c0,2.9,1.6,4.4,4,4.4
			c2.4,0,4.1-1.5,4.1-4.6v-7.8h2.4V389.1z"/>
		<path d="M734.5,389.1h-2.4v-14.3h2.4v2.3c0.8-1.6,2.3-2.6,4.6-2.6v2.4h-0.6c-2.3,0-4,1-4,4.3V389.1z"/>
		<path d="M751.7,374.6c3.9,0,6.8,2.9,6.8,7.3c0,4.4-2.9,7.4-6.8,7.4c-2.6,0-4.5-1.3-5.3-2.9v2.6H744v-19.3h2.4v7.7
			C747.2,375.9,749.1,374.6,751.7,374.6z M751.2,376.7c-2.6,0-4.8,2-4.8,5.3c0,3.4,2.3,5.3,4.8,5.3c2.6,0,4.8-2,4.8-5.3
			S753.8,376.7,751.2,376.7z"/>
		<path d="M769.5,374.6c2.7,0,4.5,1.4,5.3,2.8v-2.6h2.4v14.3h-2.4v-2.7c-0.9,1.5-2.7,2.9-5.3,2.9c-3.8,0-6.7-3-6.7-7.4
			C762.8,377.5,765.7,374.6,769.5,374.6z M770,376.7c-2.6,0-4.8,1.9-4.8,5.3s2.2,5.3,4.8,5.3c2.6,0,4.8-2,4.8-5.3
			C774.8,378.6,772.6,376.7,770,376.7z"/>
		<path d="M789.4,374.6c3.5,0,5.9,1.8,6.6,4.8h-2.6c-0.5-1.7-1.9-2.8-4-2.8c-2.6,0-4.5,1.8-4.5,5.3c0,3.5,1.9,5.4,4.5,5.4
			c2.1,0,3.5-1,4-2.8h2.6c-0.7,2.6-2.7,4.5-5.9,4.8v1.3c2,0,3.4,0.9,3.4,2.6c0,1.6-1.3,2.7-3.2,2.7h-3v-1.5h2.5
			c1.1,0,1.7-0.3,1.7-1.1c0-0.8-0.5-1.1-1.7-1.1h-1.3v-2.8c-3.6-0.4-6.1-3.2-6.1-7.3C782.4,377.5,785.3,374.6,789.4,374.6z"/>
		<path d="M807.1,374.6c2.7,0,4.5,1.4,5.3,2.8v-2.6h2.4v14.3h-2.4v-2.7c-0.9,1.5-2.7,2.9-5.3,2.9c-3.8,0-6.7-3-6.7-7.4
			C800.3,377.5,803.3,374.6,807.1,374.6z M807.6,376.7c-2.6,0-4.8,1.9-4.8,5.3s2.2,5.3,4.8,5.3c2.6,0,4.8-2,4.8-5.3
			C812.4,378.6,810.2,376.7,807.6,376.7z M806.8,370.6c1.4,0,1.9,1.2,3,1.2c0.6,0,1-0.4,1.1-1.1h1.4c-0.2,1.8-1.2,2.7-2.6,2.7
			c-1.4,0-1.9-1.2-3-1.2c-0.6,0-1,0.4-1.1,1.1h-1.4C804.5,371.5,805.4,370.6,806.8,370.6z"/>
		<path d="M827.1,389.3c-4,0-7.1-2.9-7.1-7.4c0-4.5,3.2-7.3,7.2-7.3c4.1,0,7.2,2.8,7.2,7.3C834.4,386.5,831.2,389.3,827.1,389.3z
			 M827.1,387.3c2.5,0,4.9-1.7,4.9-5.3c0-3.6-2.4-5.3-4.8-5.3c-2.5,0-4.8,1.7-4.8,5.3C822.4,385.6,824.6,387.3,827.1,387.3z"/>
		<path d="M849.1,376.8h-1.8v-2h1.8v-1c0-3.2,1.6-4.6,5.2-4.6v2c-2.1,0-2.8,0.8-2.8,2.6v1h3v2h-3v12.3h-2.4V376.8z"/>
		<path d="M871.9,389.1h-2.4V387c-0.9,1.5-2.7,2.3-4.6,2.3c-3.3,0-5.9-2-5.9-6.1v-8.4h2.3v8c0,2.9,1.6,4.4,4,4.4
			c2.4,0,4.1-1.5,4.1-4.6v-7.8h2.4V389.1z"/>
		<path d="M888.5,381c0-2.9-1.6-4.4-4-4.4c-2.4,0-4.1,1.5-4.1,4.6v7.9H878v-14.3h2.4v2c0.9-1.5,2.7-2.3,4.6-2.3c3.3,0,5.8,2,5.8,6.1
			v8.4h-2.3V381z"/>
		<path d="M902.8,374.6c3.5,0,5.9,1.8,6.6,4.8h-2.6c-0.5-1.7-1.9-2.8-4-2.8c-2.6,0-4.5,1.8-4.5,5.3c0,3.5,1.9,5.4,4.5,5.4
			c2.1,0,3.5-1,4-2.8h2.6c-0.7,2.8-3,4.8-6.6,4.8c-4.1,0-7-2.9-7-7.4C895.9,377.5,898.8,374.6,902.8,374.6z"/>
		<path d="M914.3,370.9c0-0.9,0.7-1.6,1.6-1.6c0.9,0,1.6,0.7,1.6,1.6c0,0.9-0.7,1.6-1.6,1.6C915,372.5,914.3,371.8,914.3,370.9z
			 M914.7,374.8h2.4v14.3h-2.4V374.8z"/>
		<path d="M929.4,389.3c-4,0-7.1-2.9-7.1-7.4c0-4.5,3.2-7.3,7.2-7.3c4.1,0,7.2,2.8,7.2,7.3C936.7,386.5,933.4,389.3,929.4,389.3z
			 M929.4,387.3c2.5,0,4.9-1.7,4.9-5.3c0-3.6-2.4-5.3-4.8-5.3c-2.5,0-4.8,1.7-4.8,5.3C924.7,385.6,926.9,387.3,929.4,387.3z"/>
		<path d="M952.3,381c0-2.9-1.6-4.4-4-4.4c-2.4,0-4.1,1.5-4.1,4.6v7.9h-2.4v-14.3h2.4v2c0.9-1.5,2.7-2.3,4.6-2.3
			c3.3,0,5.8,2,5.8,6.1v8.4h-2.3V381z"/>
		<path d="M966.5,374.6c2.7,0,4.5,1.4,5.3,2.8v-2.6h2.4v14.3h-2.4v-2.7c-0.9,1.5-2.7,2.9-5.3,2.9c-3.8,0-6.7-3-6.7-7.4
			C959.7,377.5,962.7,374.6,966.5,374.6z M967,376.7c-2.6,0-4.8,1.9-4.8,5.3s2.2,5.3,4.8,5.3c2.6,0,4.8-2,4.8-5.3
			C971.8,378.6,969.6,376.7,967,376.7z"/>
		<path d="M980.3,369.8h2.4v19.3h-2.4V369.8z"/>
		<path d="M375.6,422.6c2.6,0,4.5,1.4,5.3,2.8v-2.6h2.4v21h-2.4v-9.4c-0.8,1.5-2.7,2.9-5.4,2.9c-3.8,0-6.7-3-6.7-7.4
			C368.9,425.5,371.8,422.6,375.6,422.6z M376.1,424.7c-2.6,0-4.8,1.9-4.8,5.3s2.2,5.3,4.8,5.3c2.6,0,4.8-2,4.8-5.3
			C380.9,426.6,378.7,424.7,376.1,424.7z"/>
		<path d="M402.1,437.1h-2.4V435c-0.9,1.5-2.7,2.3-4.6,2.3c-3.3,0-5.9-2-5.9-6.1v-8.4h2.3v8c0,2.9,1.6,4.4,4,4.4
			c2.4,0,4.1-1.5,4.1-4.6v-7.8h2.4V437.1z"/>
		<path d="M414.3,437.3c-4.1,0-7.1-2.9-7.1-7.4c0-4.5,2.9-7.3,7.1-7.3c4.1,0,6.8,2.9,6.8,6.8c0,0.5,0,0.9-0.1,1.4h-11.4
			c0.2,2.9,2.2,4.5,4.6,4.5c2.1,0,3.5-1.1,4-2.6h2.6C420.2,435.3,417.9,437.3,414.3,437.3z M409.7,428.9h9c0-2.8-2.1-4.3-4.5-4.3
			C411.9,424.6,410,426.2,409.7,428.9z"/>
		<path d="M441.5,422.6c3.5,0,5.9,1.8,6.6,4.8h-2.6c-0.5-1.7-1.9-2.8-4-2.8c-2.6,0-4.5,1.8-4.5,5.3c0,3.5,1.9,5.4,4.5,5.4
			c2.1,0,3.5-1,4-2.8h2.6c-0.7,2.8-3,4.8-6.6,4.8c-4.1,0-7-2.9-7-7.4C434.5,425.5,437.4,422.6,441.5,422.6z"/>
		<path d="M459.2,422.6c2.7,0,4.5,1.4,5.3,2.8v-2.6h2.4v14.3h-2.4v-2.7c-0.9,1.5-2.7,2.9-5.3,2.9c-3.8,0-6.7-3-6.7-7.4
			C452.4,425.5,455.3,422.6,459.2,422.6z M459.6,424.7c-2.6,0-4.8,1.9-4.8,5.3s2.2,5.3,4.8,5.3c2.6,0,4.8-2,4.8-5.3
			C464.5,426.6,462.2,424.7,459.6,424.7z"/>
		<path d="M485.6,437.1h-2.4V435c-0.9,1.5-2.7,2.3-4.6,2.3c-3.3,0-5.9-2-5.9-6.1v-8.4h2.3v8c0,2.9,1.6,4.4,4,4.4
			c2.4,0,4.1-1.5,4.1-4.6v-7.8h2.4V437.1z"/>
		<path d="M496.8,437.3c-3.3,0-5.7-1.8-5.8-4.4h2.4c0.1,1.4,1.4,2.4,3.4,2.4c1.9,0,2.9-0.9,2.9-2.1c0-3.2-8.4-1.3-8.4-6.6
			c0-2.2,2.1-4,5.2-4c3.1,0,5.2,1.7,5.4,4.5h-2.4c-0.1-1.4-1.2-2.5-3.1-2.5c-1.7,0-2.8,0.8-2.8,2c0,3.4,8.3,1.5,8.4,6.6
			C502,435.6,499.9,437.3,496.8,437.3z"/>
		<path d="M513.5,437.3c-4.1,0-7.1-2.9-7.1-7.4c0-4.5,2.9-7.3,7.1-7.3c4.1,0,6.8,2.9,6.8,6.8c0,0.5,0,0.9-0.1,1.4h-11.4
			c0.2,2.9,2.2,4.5,4.6,4.5c2.1,0,3.5-1.1,4-2.6h2.6C519.4,435.3,517.1,437.3,513.5,437.3z M508.9,428.9h9c0-2.8-2.1-4.3-4.5-4.3
			C511.1,424.6,509.2,426.2,508.9,428.9z"/>
		<path d="M540.5,422.6c2.7,0,4.5,1.4,5.3,2.8v-2.6h2.4v14.3h-2.4v-2.7c-0.9,1.5-2.7,2.9-5.3,2.9c-3.8,0-6.7-3-6.7-7.4
			C533.7,425.5,536.7,422.6,540.5,422.6z M541,424.7c-2.6,0-4.8,1.9-4.8,5.3s2.2,5.3,4.8,5.3c2.6,0,4.8-2,4.8-5.3
			C545.8,426.6,543.6,424.7,541,424.7z"/>
		<path d="M583.9,429c0-2.9-1.6-4.4-3.9-4.4c-2.4,0-4,1.5-4,4.6v7.9h-2.3V429c0-2.9-1.6-4.4-3.9-4.4c-2.4,0-4,1.5-4,4.6v7.9h-2.4
			v-14.3h2.4v2.1c0.9-1.5,2.6-2.3,4.5-2.3c2.3,0,4.3,1,5.2,3.2c0.8-2.1,2.9-3.2,5.1-3.2c3.3,0,5.8,2,5.8,6.1v8.4h-2.3V429z"/>
		<path d="M598.4,437.3c-4,0-7.1-2.9-7.1-7.4c0-4.5,3.2-7.3,7.2-7.3c4.1,0,7.2,2.8,7.2,7.3C605.8,434.5,602.5,437.3,598.4,437.3z
			 M598.4,435.3c2.5,0,4.9-1.7,4.9-5.3c0-3.6-2.4-5.3-4.8-5.3c-2.5,0-4.8,1.7-4.8,5.3C593.8,433.6,596,435.3,598.4,435.3z"/>
		<path d="M613.3,437.1H611v-14.3h2.4v2.3c0.8-1.6,2.3-2.6,4.6-2.6v2.4h-0.6c-2.3,0-4,1-4,4.3V437.1z"/>
		<path d="M623.3,424.8h-1.8v-2h1.8v-3.6h2.4v3.6h3.7v2h-3.7v8.4c0,1.4,0.5,1.9,2,1.9h1.7v2h-2.1c-2.5,0-4-1-4-3.9V424.8z"/>
		<path d="M640.5,437.3c-4.1,0-7.1-2.9-7.1-7.4c0-4.5,2.9-7.3,7.1-7.3c4.1,0,6.8,2.9,6.8,6.8c0,0.5,0,0.9-0.1,1.4h-11.4
			c0.2,2.9,2.2,4.5,4.6,4.5c2.1,0,3.5-1.1,4-2.6h2.6C646.3,435.3,644,437.3,640.5,437.3z M635.9,428.9h9c0-2.8-2.1-4.3-4.5-4.3
			C638.1,424.6,636.1,426.2,635.9,428.9z"/>
		<path d="M652.4,433.8h2.6l-2.9,7h-1.6L652.4,433.8z"/>
		<path d="M675,437.3c-4,0-7.1-2.9-7.1-7.4c0-4.5,3.2-7.3,7.2-7.3c4.1,0,7.2,2.8,7.2,7.3C682.3,434.5,679.1,437.3,675,437.3z
			 M675,435.3c2.5,0,4.9-1.7,4.9-5.3c0-3.6-2.4-5.3-4.8-5.3c-2.5,0-4.8,1.7-4.8,5.3C670.3,433.6,672.5,435.3,675,435.3z"/>
		<path d="M700.2,437.1h-2.4V435c-0.9,1.5-2.7,2.3-4.6,2.3c-3.3,0-5.9-2-5.9-6.1v-8.4h2.3v8c0,2.9,1.6,4.4,4,4.4
			c2.4,0,4.1-1.5,4.1-4.6v-7.8h2.4V437.1z"/>
		<path d="M723,422.6c3.8,0,6.8,2.9,6.8,7.3c0,4.4-2.9,7.4-6.8,7.4c-2.6,0-4.5-1.4-5.3-2.9v9.4h-2.4v-21h2.4v2.6
			C718.5,424,720.4,422.6,723,422.6z M722.5,424.7c-2.6,0-4.8,2-4.8,5.3c0,3.4,2.3,5.3,4.8,5.3c2.6,0,4.8-2,4.8-5.3
			S725.1,424.7,722.5,424.7z"/>
		<path d="M741.2,437.3c-4.1,0-7.1-2.9-7.1-7.4c0-4.5,2.9-7.3,7.1-7.3c4.1,0,6.8,2.9,6.8,6.8c0,0.5,0,0.9-0.1,1.4h-11.4
			c0.2,2.9,2.2,4.5,4.6,4.5c2.1,0,3.5-1.1,4-2.6h2.6C747,435.3,744.7,437.3,741.2,437.3z M736.5,428.9h9c0-2.8-2.1-4.3-4.5-4.3
			C738.7,424.6,736.8,426.2,736.5,428.9z"/>
		<path d="M755.6,437.1h-2.4v-14.3h2.4v2.3c0.8-1.6,2.3-2.6,4.6-2.6v2.4h-0.6c-2.3,0-4,1-4,4.3V437.1z"/>
		<path d="M770.9,422.6c2.2,0,4.3,1.1,5.3,2.8v-7.5h2.4v19.3h-2.4v-2.7c-0.9,1.6-2.7,2.9-5.3,2.9c-3.8,0-6.8-3-6.8-7.4
			C764.1,425.5,767.1,422.6,770.9,422.6z M771.3,424.7c-2.6,0-4.8,1.9-4.8,5.3s2.2,5.3,4.8,5.3c2.6,0,4.8-2,4.8-5.3
			C776.2,426.6,774,424.7,771.3,424.7z"/>
		<path d="M790.6,422.6c2.7,0,4.5,1.4,5.3,2.8v-2.6h2.4v14.3h-2.4v-2.7c-0.9,1.5-2.7,2.9-5.3,2.9c-3.8,0-6.7-3-6.7-7.4
			C783.8,425.5,786.7,422.6,790.6,422.6z M791,424.7c-2.6,0-4.8,1.9-4.8,5.3s2.2,5.3,4.8,5.3c2.6,0,4.8-2,4.8-5.3
			C795.9,426.6,793.6,424.7,791,424.7z"/>
		<path d="M804.2,433.8h2.6l-2.9,7h-1.6L804.2,433.8z"/>
		<path d="M826.8,437.3c-4,0-7.1-2.9-7.1-7.4c0-4.5,3.2-7.3,7.2-7.3c4.1,0,7.2,2.8,7.2,7.3C834.2,434.5,830.9,437.3,826.8,437.3z
			 M826.8,435.3c2.5,0,4.9-1.7,4.9-5.3c0-3.6-2.4-5.3-4.8-5.3c-2.5,0-4.8,1.7-4.8,5.3C822.2,433.6,824.4,435.3,826.8,435.3z"/>
		<path d="M852,437.1h-2.4V435c-0.9,1.5-2.7,2.3-4.6,2.3c-3.3,0-5.9-2-5.9-6.1v-8.4h2.3v8c0,2.9,1.6,4.4,4,4.4
			c2.4,0,4.1-1.5,4.1-4.6v-7.8h2.4V437.1z"/>
		<path d="M869.5,437.1h-2.4v-14.3h2.4v2.3c0.8-1.6,2.3-2.6,4.6-2.6v2.4h-0.6c-2.3,0-4,1-4,4.3V437.1z"/>
		<path d="M885.1,437.3c-4.1,0-7.1-2.9-7.1-7.4c0-4.5,2.9-7.3,7.1-7.3c4.1,0,6.8,2.9,6.8,6.8c0,0.5,0,0.9-0.1,1.4h-11.4
			c0.2,2.9,2.2,4.5,4.6,4.5c2.1,0,3.5-1.1,4-2.6h2.6C890.9,435.3,888.6,437.3,885.1,437.3z M880.5,428.9h9c0-2.8-2.1-4.3-4.5-4.3
			C882.7,424.6,880.7,426.2,880.5,428.9z"/>
		<path d="M903,422.6c2.2,0,4.3,1.1,5.3,2.8v-7.5h2.4v19.3h-2.4v-2.7c-0.9,1.6-2.7,2.9-5.3,2.9c-3.8,0-6.8-3-6.8-7.4
			C896.3,425.5,899.2,422.6,903,422.6z M903.5,424.7c-2.6,0-4.8,1.9-4.8,5.3s2.2,5.3,4.8,5.3c2.6,0,4.8-2,4.8-5.3
			C908.3,426.6,906.1,424.7,903.5,424.7z"/>
		<path d="M929.5,437.1h-2.4V435c-0.9,1.5-2.7,2.3-4.6,2.3c-3.3,0-5.9-2-5.9-6.1v-8.4h2.3v8c0,2.9,1.6,4.4,4,4.4
			c2.4,0,4.1-1.5,4.1-4.6v-7.8h2.4V437.1z"/>
		<path d="M941.6,422.6c3.5,0,5.9,1.8,6.6,4.8h-2.6c-0.5-1.7-1.9-2.8-4-2.8c-2.6,0-4.5,1.8-4.5,5.3c0,3.5,1.9,5.4,4.5,5.4
			c2.1,0,3.5-1,4-2.8h2.6c-0.7,2.6-2.7,4.5-5.9,4.8v1.3c2,0,3.4,0.9,3.4,2.6c0,1.6-1.3,2.7-3.2,2.7h-3v-1.5h2.5
			c1.1,0,1.7-0.3,1.7-1.1c0-0.8-0.5-1.1-1.7-1.1h-1.3v-2.8c-3.6-0.4-6.1-3.2-6.1-7.3C934.7,425.5,937.6,422.6,941.6,422.6z"/>
		<path d="M959.3,422.6c2.7,0,4.5,1.4,5.3,2.8v-2.6h2.4v14.3h-2.4v-2.7c-0.9,1.5-2.7,2.9-5.3,2.9c-3.8,0-6.7-3-6.7-7.4
			C952.6,425.5,955.5,422.6,959.3,422.6z M959.8,424.7c-2.6,0-4.8,1.9-4.8,5.3s2.2,5.3,4.8,5.3c2.6,0,4.8-2,4.8-5.3
			C964.6,426.6,962.4,424.7,959.8,424.7z M959,418.6c1.4,0,1.9,1.2,3,1.2c0.6,0,1-0.4,1.1-1.1h1.4c-0.2,1.8-1.2,2.7-2.6,2.7
			c-1.4,0-1.9-1.2-3-1.2c-0.6,0-1,0.4-1.1,1.1h-1.4C956.7,419.5,957.7,418.6,959,418.6z"/>
		<path d="M979.3,437.3c-4,0-7.1-2.9-7.1-7.4c0-4.5,3.2-7.3,7.2-7.3c4.1,0,7.2,2.8,7.2,7.3C986.7,434.5,983.4,437.3,979.3,437.3z
			 M979.3,435.3c2.5,0,4.9-1.7,4.9-5.3c0-3.6-2.4-5.3-4.8-5.3c-2.5,0-4.8,1.7-4.8,5.3C974.7,433.6,976.9,435.3,979.3,435.3z"/>
		<path d="M991.7,433.8h2.6l-2.9,7h-1.6L991.7,433.8z"/>
		<path d="M365.6,470.6c3.8,0,6.8,2.9,6.8,7.3c0,4.4-2.9,7.4-6.8,7.4c-2.6,0-4.5-1.4-5.3-2.9v9.4h-2.4v-21h2.4v2.6
			C361.2,472,363,470.6,365.6,470.6z M365.1,472.7c-2.6,0-4.8,2-4.8,5.3c0,3.4,2.3,5.3,4.8,5.3c2.6,0,4.8-2,4.8-5.3
			S367.8,472.7,365.1,472.7z"/>
		<path d="M383.8,485.3c-4.1,0-7.1-2.9-7.1-7.4c0-4.5,2.9-7.3,7.1-7.3c4.1,0,6.8,2.9,6.8,6.8c0,0.5,0,0.9-0.1,1.4h-11.4
			c0.2,2.9,2.2,4.5,4.6,4.5c2.1,0,3.5-1.1,4-2.6h2.6C389.6,483.3,387.3,485.3,383.8,485.3z M379.2,476.9h9c0-2.8-2.1-4.3-4.5-4.3
			C381.4,472.6,379.4,474.2,379.2,476.9z"/>
		<path d="M398.2,485.1h-2.4v-14.3h2.4v2.3c0.8-1.6,2.3-2.6,4.6-2.6v2.4h-0.6c-2.3,0-4,1-4,4.3V485.1z"/>
		<path d="M428.2,477c0-2.9-1.6-4.4-3.9-4.4c-2.4,0-4,1.5-4,4.6v7.9h-2.3V477c0-2.9-1.6-4.4-3.9-4.4c-2.4,0-4,1.5-4,4.6v7.9h-2.4
			v-14.3h2.4v2.1c0.9-1.5,2.6-2.3,4.5-2.3c2.3,0,4.3,1,5.2,3.2c0.8-2.1,2.9-3.2,5.1-3.2c3.3,0,5.8,2,5.8,6.1v8.4h-2.3V477z"/>
		<path d="M442.4,470.6c2.7,0,4.5,1.4,5.3,2.8v-2.6h2.4v14.3h-2.4v-2.7c-0.9,1.5-2.7,2.9-5.3,2.9c-3.8,0-6.7-3-6.7-7.4
			C435.6,473.5,438.6,470.6,442.4,470.6z M442.9,472.7c-2.6,0-4.8,1.9-4.8,5.3s2.2,5.3,4.8,5.3c2.6,0,4.8-2,4.8-5.3
			C447.7,474.6,445.5,472.7,442.9,472.7z"/>
		<path d="M466.6,477c0-2.9-1.6-4.4-4-4.4c-2.4,0-4.1,1.5-4.1,4.6v7.9h-2.4v-14.3h2.4v2c0.9-1.5,2.7-2.3,4.6-2.3
			c3.3,0,5.8,2,5.8,6.1v8.4h-2.3V477z"/>
		<path d="M481.1,485.3c-4.1,0-7.1-2.9-7.1-7.4c0-4.5,2.9-7.3,7.1-7.3c4.1,0,6.8,2.9,6.8,6.8c0,0.5,0,0.9-0.1,1.4h-11.4
			c0.2,2.9,2.2,4.5,4.6,4.5c2.1,0,3.5-1.1,4-2.6h2.6C486.9,483.3,484.6,485.3,481.1,485.3z M476.5,476.9h9c0-2.8-2.1-4.3-4.5-4.3
			C478.7,472.6,476.8,474.2,476.5,476.9z"/>
		<path d="M503.6,477c0-2.9-1.6-4.4-4-4.4c-2.4,0-4.1,1.5-4.1,4.6v7.9h-2.4v-14.3h2.4v2c0.9-1.5,2.7-2.3,4.6-2.3
			c3.3,0,5.8,2,5.8,6.1v8.4h-2.3V477z"/>
		<path d="M512.4,472.8h-1.8v-2h1.8v-3.6h2.4v3.6h3.7v2h-3.7v8.4c0,1.4,0.5,1.9,2,1.9h1.7v2h-2.1c-2.5,0-4-1-4-3.9V472.8z"/>
		<path d="M529.6,485.3c-4.1,0-7.1-2.9-7.1-7.4c0-4.5,2.9-7.3,7.1-7.3c4.1,0,6.8,2.9,6.8,6.8c0,0.5,0,0.9-0.1,1.4H525
			c0.2,2.9,2.2,4.5,4.6,4.5c2.1,0,3.5-1.1,4-2.6h2.6C535.4,483.3,533.2,485.3,529.6,485.3z M525,476.9h9c0-2.8-2.1-4.3-4.5-4.3
			C527.2,472.6,525.3,474.2,525,476.9z"/>
		<path d="M556.9,485.3c-4,0-7.1-2.9-7.1-7.4c0-4.5,3.2-7.3,7.2-7.3c4.1,0,7.2,2.8,7.2,7.3C564.2,482.5,561,485.3,556.9,485.3z
			 M556.9,483.3c2.5,0,4.9-1.7,4.9-5.3c0-3.6-2.4-5.3-4.8-5.3c-2.5,0-4.8,1.7-4.8,5.3C552.2,481.6,554.4,483.3,556.9,483.3z"/>
		<path d="M582.1,485.1h-2.4V483c-0.9,1.5-2.7,2.3-4.6,2.3c-3.3,0-5.9-2-5.9-6.1v-8.4h2.3v8c0,2.9,1.6,4.4,4,4.4
			c2.4,0,4.1-1.5,4.1-4.6v-7.8h2.4V485.1z"/>
		<path d="M597.7,472.8h-1.8v-2h1.8v-3.6h2.4v3.6h3.7v2h-3.7v8.4c0,1.4,0.5,1.9,2,1.9h1.7v2h-2.1c-2.5,0-4-1-4-3.9V472.8z"/>
		<path d="M614.9,485.3c-4.1,0-7.1-2.9-7.1-7.4c0-4.5,2.9-7.3,7.1-7.3c4.1,0,6.8,2.9,6.8,6.8c0,0.5,0,0.9-0.1,1.4h-11.4
			c0.2,2.9,2.2,4.5,4.6,4.5c2.1,0,3.5-1.1,4-2.6h2.6C620.8,483.3,618.5,485.3,614.9,485.3z M610.3,476.9h9c0-2.8-2.1-4.3-4.5-4.3
			C612.5,472.6,610.6,474.2,610.3,476.9z"/>
		<path d="M647.6,477c0-2.9-1.6-4.4-3.9-4.4c-2.4,0-4,1.5-4,4.6v7.9h-2.3V477c0-2.9-1.6-4.4-3.9-4.4c-2.4,0-4,1.5-4,4.6v7.9H627
			v-14.3h2.4v2.1c0.9-1.5,2.6-2.3,4.5-2.3c2.3,0,4.3,1,5.2,3.2c0.8-2.1,2.9-3.2,5.1-3.2c3.3,0,5.8,2,5.8,6.1v8.4h-2.3V477z"/>
		<path d="M663.6,470.6c3.8,0,6.8,2.9,6.8,7.3c0,4.4-2.9,7.4-6.8,7.4c-2.6,0-4.5-1.4-5.3-2.9v9.4h-2.4v-21h2.4v2.6
			C659.1,472,661,470.6,663.6,470.6z M663.1,472.7c-2.6,0-4.8,2-4.8,5.3c0,3.4,2.3,5.3,4.8,5.3c2.6,0,4.8-2,4.8-5.3
			S665.7,472.7,663.1,472.7z"/>
		<path d="M681.8,485.3c-4,0-7.1-2.9-7.1-7.4c0-4.5,3.2-7.3,7.2-7.3c4.1,0,7.2,2.8,7.2,7.3C689.1,482.5,685.8,485.3,681.8,485.3z
			 M681.8,483.3c2.5,0,4.9-1.7,4.9-5.3c0-3.6-2.4-5.3-4.8-5.3c-2.5,0-4.8,1.7-4.8,5.3C677.1,481.6,679.3,483.3,681.8,483.3z"/>
		<path d="M696.7,485.1h-2.4v-14.3h2.4v2.3c0.8-1.6,2.3-2.6,4.6-2.6v2.4h-0.6c-2.3,0-4,1-4,4.3V485.1z"/>
		<path d="M712,470.6c2.7,0,4.5,1.4,5.3,2.8v-2.6h2.4v14.3h-2.4v-2.7c-0.9,1.5-2.7,2.9-5.3,2.9c-3.8,0-6.7-3-6.7-7.4
			C705.2,473.5,708.1,470.6,712,470.6z M712.4,472.7c-2.6,0-4.8,1.9-4.8,5.3s2.2,5.3,4.8,5.3c2.6,0,4.8-2,4.8-5.3
			C717.3,474.6,715,472.7,712.4,472.7z M715.4,464.8v2.1l-5.5,3V468L715.4,464.8z"/>
		<path d="M728.1,485.1h-2.4v-14.3h2.4v2.3c0.8-1.6,2.3-2.6,4.6-2.6v2.4h-0.6c-2.3,0-4,1-4,4.3V485.1z"/>
		<path d="M737.2,466.9c0-0.9,0.7-1.6,1.6-1.6c0.9,0,1.6,0.7,1.6,1.6s-0.7,1.6-1.6,1.6C737.9,468.5,737.2,467.8,737.2,466.9z
			 M737.6,470.8h2.4v14.3h-2.4V470.8z"/>
		<path d="M751.9,470.6c2.7,0,4.5,1.4,5.3,2.8v-2.6h2.4v14.3h-2.4v-2.7c-0.9,1.5-2.7,2.9-5.3,2.9c-3.8,0-6.7-3-6.7-7.4
			C745.2,473.5,748.1,470.6,751.9,470.6z M752.4,472.7c-2.6,0-4.8,1.9-4.8,5.3s2.2,5.3,4.8,5.3c2.6,0,4.8-2,4.8-5.3
			C757.2,474.6,755,472.7,752.4,472.7z"/>
		<path d="M765.6,481.8h2.6l-2.9,7h-1.6L765.6,481.8z"/>
		<path d="M787.9,470.6c2.2,0,4.3,1.1,5.3,2.8v-7.5h2.4v19.3h-2.4v-2.7c-0.9,1.6-2.7,2.9-5.3,2.9c-3.8,0-6.8-3-6.8-7.4
			C781.1,473.5,784,470.6,787.9,470.6z M788.3,472.7c-2.6,0-4.8,1.9-4.8,5.3s2.2,5.3,4.8,5.3c2.6,0,4.8-2,4.8-5.3
			C793.2,474.6,790.9,472.7,788.3,472.7z"/>
		<path d="M807.5,470.6c2.7,0,4.5,1.4,5.3,2.8v-2.6h2.4v14.3h-2.4v-2.7c-0.9,1.5-2.7,2.9-5.3,2.9c-3.8,0-6.7-3-6.7-7.4
			C800.8,473.5,803.7,470.6,807.5,470.6z M808,472.7c-2.6,0-4.8,1.9-4.8,5.3s2.2,5.3,4.8,5.3c2.6,0,4.8-2,4.8-5.3
			C812.9,474.6,810.6,472.7,808,472.7z"/>
		<path d="M836.4,470.6c3.5,0,5.9,1.8,6.6,4.8h-2.6c-0.5-1.7-1.9-2.8-4-2.8c-2.6,0-4.5,1.8-4.5,5.3c0,3.5,1.9,5.4,4.5,5.4
			c2.1,0,3.5-1,4-2.8h2.6c-0.7,2.8-3,4.8-6.6,4.8c-4.1,0-7-2.9-7-7.4C829.5,473.5,832.4,470.6,836.4,470.6z"/>
		<path d="M854.1,470.6c2.7,0,4.5,1.4,5.3,2.8v-2.6h2.4v14.3h-2.4v-2.7c-0.9,1.5-2.7,2.9-5.3,2.9c-3.8,0-6.7-3-6.7-7.4
			C847.4,473.5,850.3,470.6,854.1,470.6z M854.6,472.7c-2.6,0-4.8,1.9-4.8,5.3s2.2,5.3,4.8,5.3c2.6,0,4.8-2,4.8-5.3
			C859.4,474.6,857.2,472.7,854.6,472.7z"/>
		<path d="M875.6,470.6c3.8,0,6.8,2.9,6.8,7.3c0,4.4-2.9,7.4-6.8,7.4c-2.6,0-4.5-1.4-5.3-2.9v9.4h-2.4v-21h2.4v2.6
			C871.2,472,873,470.6,875.6,470.6z M875.1,472.7c-2.6,0-4.8,2-4.8,5.3c0,3.4,2.3,5.3,4.8,5.3c2.6,0,4.8-2,4.8-5.3
			S877.8,472.7,875.1,472.7z"/>
		<path d="M893.5,470.6c2.7,0,4.5,1.4,5.3,2.8v-2.6h2.4v14.3h-2.4v-2.7c-0.9,1.5-2.7,2.9-5.3,2.9c-3.8,0-6.7-3-6.7-7.4
			C886.7,473.5,889.7,470.6,893.5,470.6z M894,472.7c-2.6,0-4.8,1.9-4.8,5.3s2.2,5.3,4.8,5.3c2.6,0,4.8-2,4.8-5.3
			C898.8,474.6,896.6,472.7,894,472.7z"/>
		<path d="M913.3,470.6c3.5,0,5.9,1.8,6.6,4.8h-2.6c-0.5-1.7-1.9-2.8-4-2.8c-2.6,0-4.5,1.8-4.5,5.3c0,3.5,1.9,5.4,4.5,5.4
			c2.1,0,3.5-1,4-2.8h2.6c-0.7,2.8-3,4.8-6.6,4.8c-4.1,0-7-2.9-7-7.4C906.4,473.5,909.3,470.6,913.3,470.6z"/>
		<path d="M924.8,466.9c0-0.9,0.7-1.6,1.6-1.6c0.9,0,1.6,0.7,1.6,1.6s-0.7,1.6-1.6,1.6C925.5,468.5,924.8,467.8,924.8,466.9z
			 M925.2,470.8h2.4v14.3h-2.4V470.8z"/>
		<path d="M939.6,470.6c2.2,0,4.3,1.1,5.3,2.8v-7.5h2.4v19.3h-2.4v-2.7c-0.9,1.6-2.7,2.9-5.3,2.9c-3.8,0-6.8-3-6.8-7.4
			C932.8,473.5,935.7,470.6,939.6,470.6z M940,472.7c-2.6,0-4.8,1.9-4.8,5.3s2.2,5.3,4.8,5.3c2.6,0,4.8-2,4.8-5.3
			C944.8,474.6,942.6,472.7,940,472.7z"/>
		<path d="M959.2,470.6c2.7,0,4.5,1.4,5.3,2.8v-2.6h2.4v14.3h-2.4v-2.7c-0.9,1.5-2.7,2.9-5.3,2.9c-3.8,0-6.7-3-6.7-7.4
			C952.4,473.5,955.4,470.6,959.2,470.6z M959.7,472.7c-2.6,0-4.8,1.9-4.8,5.3s2.2,5.3,4.8,5.3c2.6,0,4.8-2,4.8-5.3
			C964.5,474.6,962.3,472.7,959.7,472.7z"/>
		<path d="M978.9,470.6c2.2,0,4.3,1.1,5.3,2.8v-7.5h2.4v19.3h-2.4v-2.7c-0.9,1.6-2.7,2.9-5.3,2.9c-3.8,0-6.8-3-6.8-7.4
			C972.1,473.5,975.1,470.6,978.9,470.6z M979.3,472.7c-2.6,0-4.8,1.9-4.8,5.3s2.2,5.3,4.8,5.3c2.6,0,4.8-2,4.8-5.3
			C984.2,474.6,982,472.7,979.3,472.7z"/>
		<path d="M998.8,485.3c-4.1,0-7.1-2.9-7.1-7.4c0-4.5,2.9-7.3,7.1-7.3c4.1,0,6.8,2.9,6.8,6.8c0,0.5,0,0.9-0.1,1.4h-11.4
			c0.2,2.9,2.2,4.5,4.6,4.5c2.1,0,3.5-1.1,4-2.6h2.6C1004.7,483.3,1002.4,485.3,998.8,485.3z M994.2,476.9h9c0-2.8-2.1-4.3-4.5-4.3
			C996.4,472.6,994.5,474.2,994.2,476.9z"/>
		<path d="M570.4,518.6c3.8,0,6.8,2.9,6.8,7.3c0,4.4-2.9,7.4-6.8,7.4c-2.6,0-4.5-1.4-5.3-2.9v9.4h-2.4v-21h2.4v2.6
			C565.9,520,567.8,518.6,570.4,518.6z M569.9,520.7c-2.6,0-4.8,2-4.8,5.3c0,3.4,2.3,5.3,4.8,5.3c2.6,0,4.8-2,4.8-5.3
			S572.5,520.7,569.9,520.7z"/>
		<path d="M588.2,518.6c2.7,0,4.5,1.4,5.3,2.8v-2.6h2.4v14.3h-2.4v-2.7c-0.9,1.5-2.7,2.9-5.3,2.9c-3.8,0-6.7-3-6.7-7.4
			C581.5,521.5,584.4,518.6,588.2,518.6z M588.7,520.7c-2.6,0-4.8,1.9-4.8,5.3s2.2,5.3,4.8,5.3c2.6,0,4.8-2,4.8-5.3
			C593.5,522.6,591.3,520.7,588.7,520.7z"/>
		<path d="M604.4,533.1H602v-14.3h2.4v2.3c0.8-1.6,2.3-2.6,4.6-2.6v2.4h-0.6c-2.3,0-4,1-4,4.3V533.1z"/>
		<path d="M619.7,518.6c2.7,0,4.5,1.4,5.3,2.8v-2.6h2.4v14.3H625v-2.7c-0.9,1.5-2.7,2.9-5.3,2.9c-3.8,0-6.7-3-6.7-7.4
			C612.9,521.5,615.9,518.6,619.7,518.6z M620.2,520.7c-2.6,0-4.8,1.9-4.8,5.3s2.2,5.3,4.8,5.3c2.6,0,4.8-2,4.8-5.3
			C625,522.6,622.8,520.7,620.2,520.7z"/>
		<path d="M648.7,533.3c-4,0-7.1-2.9-7.1-7.4c0-4.5,3.2-7.3,7.2-7.3c4.1,0,7.2,2.8,7.2,7.3C656,530.5,652.8,533.3,648.7,533.3z
			 M648.7,531.3c2.5,0,4.9-1.7,4.9-5.3c0-3.6-2.4-5.3-4.8-5.3c-2.5,0-4.8,1.7-4.8,5.3C644,529.6,646.3,531.3,648.7,531.3z"/>
		<path d="M670.8,520.8H669v-2h1.8v-3.6h2.4v3.6h3.7v2h-3.7v8.4c0,1.4,0.5,1.9,2,1.9h1.7v2h-2.1c-2.5,0-4-1-4-3.9V520.8z"/>
		<path d="M684.2,533.1h-2.4v-14.3h2.4v2.3c0.8-1.6,2.3-2.6,4.6-2.6v2.4h-0.6c-2.3,0-4,1-4,4.3V533.1z"/>
		<path d="M699.5,518.6c2.7,0,4.5,1.4,5.3,2.8v-2.6h2.4v14.3h-2.4v-2.7c-0.9,1.5-2.7,2.9-5.3,2.9c-3.8,0-6.7-3-6.7-7.4
			C692.7,521.5,695.7,518.6,699.5,518.6z M700,520.7c-2.6,0-4.8,1.9-4.8,5.3s2.2,5.3,4.8,5.3c2.6,0,4.8-2,4.8-5.3
			C704.8,522.6,702.6,520.7,700,520.7z"/>
		<path d="M721,518.6c3.9,0,6.8,2.9,6.8,7.3c0,4.4-2.9,7.4-6.8,7.4c-2.6,0-4.5-1.3-5.3-2.9v2.6h-2.4v-19.3h2.4v7.7
			C716.6,519.9,718.5,518.6,721,518.6z M720.5,520.7c-2.6,0-4.8,2-4.8,5.3c0,3.4,2.3,5.3,4.8,5.3c2.6,0,4.8-2,4.8-5.3
			S723.1,520.7,720.5,520.7z"/>
		<path d="M738.9,518.6c2.7,0,4.5,1.4,5.3,2.8v-2.6h2.4v14.3h-2.4v-2.7c-0.9,1.5-2.7,2.9-5.3,2.9c-3.8,0-6.7-3-6.7-7.4
			C732.1,521.5,735,518.6,738.9,518.6z M739.3,520.7c-2.6,0-4.8,1.9-4.8,5.3s2.2,5.3,4.8,5.3c2.6,0,4.8-2,4.8-5.3
			C744.2,522.6,741.9,520.7,739.3,520.7z"/>
		<path d="M752.7,513.8h2.4v19.3h-2.4V513.8z"/>
		<path d="M761.1,513.8h2.4v7.1c0.9-1.5,2.7-2.3,4.7-2.3c3.2,0,5.7,2,5.7,6.1v8.4h-2.3V525c0-2.9-1.6-4.4-4-4.4
			c-2.4,0-4.1,1.5-4.1,4.6v7.9h-2.4V513.8z"/>
		<path d="M786.1,533.3c-4,0-7.1-2.9-7.1-7.4c0-4.5,3.2-7.3,7.2-7.3c4.1,0,7.2,2.8,7.2,7.3C793.4,530.5,790.2,533.3,786.1,533.3z
			 M786.1,531.3c2.5,0,4.9-1.7,4.9-5.3c0-3.6-2.4-5.3-4.8-5.3c-2.5,0-4.8,1.7-4.8,5.3C781.4,529.6,783.6,531.3,786.1,531.3z"/>
		<path d="M799.4,533.3c-0.9,0-1.6-0.7-1.6-1.6s0.7-1.6,1.6-1.6c0.9,0,1.6,0.7,1.6,1.6S800.2,533.3,799.4,533.3z"/>
	</g>
	<g>
		<g>
			<rect x="558.9" y="590" class="st3" width="244.9" height="18.5"/>
		</g>
		<g>
			<path d="M586.4,597.8h-6.8v-18.1h6.5c3.8,0,5.8,2.1,5.8,4.6c0,2.3-1.4,3.6-3.2,4.2c2,0.3,3.6,2.2,3.6,4.5
				C592.3,595.7,590.2,597.8,586.4,597.8z M585.9,581.6H582v5.9h4c2.2,0,3.5-1.1,3.5-2.9C589.5,582.8,588.3,581.6,585.9,581.6z
				 M586.1,589.5H582v6.4h4.2c2.3,0,3.7-1.2,3.7-3.2C590,590.7,588.4,589.5,586.1,589.5z"/>
			<path d="M606.7,579.7c4.3,0,6.3,2.4,6.3,5.3c0,2.3-1.3,4.5-4.3,5.2l4.6,7.6h-2.8l-4.3-7.4h-2.9v7.4h-2.4v-18.1H606.7z
				 M606.7,581.6h-3.5v6.9h3.5c2.7,0,3.9-1.5,3.9-3.5C610.5,583,609.4,581.6,606.7,581.6z"/>
			<path d="M632.6,593.8h-7.9l-1.5,4h-2.5l6.6-18h2.7l6.5,18H634L632.6,593.8z M628.6,582.7l-3.3,9.2h6.6L628.6,582.7z"/>
			<path d="M650.3,598c-3.6,0-6.2-2-6.3-5h2.5c0.2,1.5,1.2,3,3.7,3c2.3,0,3.6-1.3,3.6-3c0-4.9-9.8-1.8-9.8-8.5c0-3,2.4-5,6-5
				c3.5,0,5.7,1.9,6,4.7h-2.6c-0.2-1.2-1.3-2.6-3.5-2.6c-2-0.1-3.5,1-3.5,2.9c0,4.7,9.8,1.8,9.8,8.5
				C656.4,595.5,654.3,598,650.3,598z"/>
			<path d="M665.1,579.7h2.4v18.1h-2.4V579.7z"/>
			<path d="M679,579.7v16.2h6.4v1.9h-8.7v-18.1H679z"/>
			<path d="M693,594.5h2.6l-2.9,7h-1.6L693,594.5z"/>
			<path d="M717.1,581.2h-2.5V579h4.9v18.8h-2.4V581.2z"/>
			<path d="M731.8,592.8c0.3,2,1.6,3.1,3.8,3.1c2.8,0,4.2-1.9,4.2-7.4c-0.8,1.6-2.6,2.5-4.7,2.5c-3.5,0-6-2.2-6-6.1
				c0-3.6,2.1-6.2,6.2-6.2c5.1,0,6.6,3.6,6.6,9.4c0,6.3-1.4,9.8-6.4,9.8c-3.7,0-5.6-2.3-5.8-5.1H731.8z M739.5,585
				c0-2.6-1.5-4.3-4.2-4.3c-2.4,0-4,1.7-4,4.2c0,2.4,1.4,4.2,4.2,4.2C737.8,589,739.5,587.5,739.5,585z"/>
			<path d="M762,579.1v1.8l-7.2,17h-2.4l7.3-16.7h-10v-2H762z"/>
			<path d="M780.3,583.5c-0.4-1.8-1.4-2.9-3.6-2.9c-3,0-4.6,2.1-4.6,7.7c0.8-1.8,2.9-2.9,5.1-2.9c3.5,0,5.9,2.3,5.9,6.3
				c0,3.4-2,6.2-6.1,6.2c-5.6,0-6.9-4-6.9-9.7c0-5.9,1.9-9.6,6.7-9.6c3.6,0,5.4,2.2,5.7,4.9H780.3z M772.4,591.4
				c0,2.5,1.5,4.5,4.4,4.5c2.4,0,4-1.6,4-4.2c0-2.7-1.4-4.3-4.1-4.3C774.6,587.4,772.4,588.6,772.4,591.4z"/>
		</g>
	</g>
</g>
</svg>
