<?xml version="1.0" encoding="utf-8"?>
<!-- Generator: Adobe Illustrator 28.0.0, SVG Export Plug-In . SVG Version: 6.00 Build 0)  -->
<svg version="1.1" id="Layer_1" xmlns="http://www.w3.org/2000/svg" xmlns:xlink="http://www.w3.org/1999/xlink" x="0px" y="0px"
	 viewBox="0 0 818 269.7" style="enable-background:new 0 0 818 269.7;" xml:space="preserve">
<style type="text/css">
	.st0{fill:#FFFFFF;}
	.st1{fill:#333333;}
</style>
<g>
	<g>
		<g>
			<polygon class="st0" points="314.7,165.3 409,2 503.3,165.3 			"/>
		</g>
		<g>
			<path class="st1" d="M409,4l46.3,80.1l46.3,80.1H409h-92.5l46.3-80.1L409,4 M409,0l-48,83.1l-48,83.1h96h96l-48-83.1L409,0L409,0
				z"/>
		</g>
	</g>
	<g>
		<g>
			<rect x="518" y="33.7" class="st0" width="299" height="94"/>
		</g>
		<g>
			<path class="st1" d="M816,34.7v92H519v-92H816 M818,32.7H517v96h301V32.7L818,32.7z"/>
		</g>
	</g>
	<g>
		<g>
			<rect x="259" y="194.7" class="st0" width="299" height="74"/>
		</g>
		<g>
			<path class="st1" d="M557,195.7v72H260v-72H557 M559,193.7H258v76h301V193.7L559,193.7z"/>
		</g>
	</g>
	<g>
		<g>
			<rect x="1" y="33.7" class="st0" width="299" height="94"/>
		</g>
		<g>
			<path class="st1" d="M299,34.7v92H2v-92H299 M301,32.7H0v96h301V32.7L301,32.7z"/>
		</g>
	</g>
	<g>
		<path class="st1" d="M122.3,63.7v4.6h-2.6V55.6h4.9c1.5,0,2.6,0.4,3.5,1.1s1.3,1.7,1.3,3s-0.4,2.2-1.3,3s-2,1.1-3.5,1.1H122.3z
			 M122.3,61.8h2.3c0.7,0,1.3-0.2,1.6-0.6s0.6-0.9,0.6-1.5c0-0.6-0.2-1.1-0.5-1.5s-0.9-0.6-1.6-0.6h-2.3V61.8z"/>
		<path class="st1" d="M135,68.6c-1.4,0-2.5-0.4-3.3-1.3s-1.2-2-1.2-3.4v-0.4c0-1.4,0.4-2.6,1.2-3.5s1.8-1.4,3.2-1.4
			c1.3,0,2.3,0.4,2.9,1.2s1,1.8,1,3.2v1.3h-5.7l0,0.1c0,0.7,0.2,1.2,0.6,1.6s0.9,0.6,1.6,0.6c0.6,0,1.1-0.1,1.5-0.2s0.8-0.3,1.2-0.5
			l0.7,1.6c-0.4,0.3-0.9,0.6-1.5,0.8S135.7,68.6,135,68.6z M134.8,60.7c-0.5,0-0.9,0.2-1.2,0.5s-0.4,0.8-0.5,1.4l0,0h3.1v-0.2
			c0-0.6-0.1-1-0.3-1.3S135.3,60.7,134.8,60.7z"/>
		<path class="st1" d="M145.4,65.8c0-0.3-0.1-0.5-0.4-0.7s-0.8-0.4-1.5-0.5c-1.1-0.2-2-0.6-2.5-1s-0.9-1.1-0.9-1.8
			c0-0.8,0.3-1.5,1-2.1s1.6-0.9,2.8-0.9c1.2,0,2.2,0.3,2.9,0.9s1.1,1.3,1,2.1l0,0.1h-2.5c0-0.4-0.1-0.7-0.4-0.9s-0.6-0.4-1.1-0.4
			c-0.4,0-0.7,0.1-1,0.3s-0.4,0.5-0.4,0.8c0,0.3,0.1,0.5,0.4,0.7s0.8,0.4,1.5,0.5c1.2,0.2,2,0.6,2.6,1s0.9,1.1,0.9,1.9
			c0,0.9-0.4,1.6-1.1,2.1s-1.7,0.8-2.9,0.8c-1.3,0-2.3-0.3-3-1s-1.1-1.4-1.1-2.2l0-0.1h2.3c0,0.5,0.2,0.9,0.5,1.1s0.7,0.3,1.2,0.3
			c0.5,0,0.8-0.1,1.1-0.3S145.4,66.1,145.4,65.8z"/>
		<path class="st1" d="M154.7,65.8c0-0.3-0.1-0.5-0.4-0.7s-0.8-0.4-1.5-0.5c-1.1-0.2-2-0.6-2.5-1s-0.9-1.1-0.9-1.8
			c0-0.8,0.3-1.5,1-2.1s1.6-0.9,2.8-0.9c1.2,0,2.2,0.3,2.9,0.9s1.1,1.3,1,2.1l0,0.1h-2.5c0-0.4-0.1-0.7-0.4-0.9s-0.6-0.4-1.1-0.4
			c-0.4,0-0.7,0.1-1,0.3s-0.4,0.5-0.4,0.8c0,0.3,0.1,0.5,0.4,0.7s0.8,0.4,1.5,0.5c1.2,0.2,2,0.6,2.6,1s0.9,1.1,0.9,1.9
			c0,0.9-0.4,1.6-1.1,2.1s-1.7,0.8-2.9,0.8c-1.3,0-2.3-0.3-3-1s-1.1-1.4-1.1-2.2l0-0.1h2.3c0,0.5,0.2,0.9,0.5,1.1s0.7,0.3,1.2,0.3
			c0.5,0,0.8-0.1,1.1-0.3S154.7,66.1,154.7,65.8z"/>
		<path class="st1" d="M158.4,63.5c0-1.4,0.4-2.6,1.2-3.5s1.9-1.4,3.3-1.4c1.4,0,2.5,0.5,3.3,1.4s1.2,2.1,1.2,3.5v0.2
			c0,1.4-0.4,2.6-1.2,3.5s-1.9,1.3-3.3,1.3c-1.4,0-2.5-0.4-3.3-1.3s-1.2-2.1-1.2-3.5V63.5z M161,63.7c0,0.9,0.2,1.6,0.5,2.1
			s0.8,0.8,1.5,0.8c0.7,0,1.1-0.3,1.5-0.8s0.5-1.2,0.5-2.1v-0.2c0-0.8-0.2-1.5-0.5-2.1s-0.8-0.8-1.5-0.8c-0.7,0-1.1,0.3-1.5,0.8
			s-0.5,1.2-0.5,2.1V63.7z"/>
		<path class="st1" d="M174.6,68.4c-0.1-0.2-0.2-0.4-0.2-0.7s-0.1-0.5-0.1-0.7c-0.3,0.5-0.6,0.8-1,1.2s-0.9,0.5-1.5,0.5
			c-1,0-1.8-0.3-2.3-0.8s-0.8-1.2-0.8-2.1c0-0.9,0.4-1.7,1.1-2.2s1.8-0.8,3.1-0.8h1.4V62c0-0.5-0.1-0.8-0.4-1.1s-0.6-0.4-1.1-0.4
			c-0.4,0-0.7,0.1-1,0.3s-0.3,0.5-0.3,0.8H169l0-0.1c0-0.8,0.3-1.5,1.1-2.1s1.7-0.9,2.9-0.9c1.1,0,2.1,0.3,2.8,0.9s1.1,1.4,1.1,2.5
			V66c0,0.4,0,0.9,0.1,1.3s0.2,0.8,0.3,1.2H174.6z M172.3,66.7c0.4,0,0.8-0.1,1.2-0.3s0.6-0.5,0.7-0.8v-1.3h-1.4
			c-0.5,0-1,0.1-1.2,0.4s-0.4,0.6-0.4,1c0,0.3,0.1,0.6,0.3,0.8S171.9,66.7,172.3,66.7z"/>
		<path class="st1" d="M181.4,68.4h-2.6V54.7h2.6V68.4z"/>
		<path class="st1" d="M36.6,83L36.6,83c0,1-0.3,1.9-1,2.6s-1.7,1-2.9,1c-1.2,0-2.2-0.4-2.9-1.3s-1.1-1.9-1.1-3.3v-1.9
			c0-1.3,0.4-2.4,1.1-3.3c0.8-0.9,1.7-1.3,2.9-1.3s2.2,0.3,2.9,1s1.1,1.5,1,2.6l0,0h-1.4c0-0.7-0.2-1.3-0.7-1.8s-1.1-0.7-1.9-0.7
			c-0.8,0-1.4,0.3-1.9,1s-0.7,1.5-0.7,2.4V82c0,1,0.2,1.8,0.7,2.4s1.1,1,1.9,1c0.8,0,1.4-0.2,1.9-0.6c0.4-0.4,0.7-1,0.7-1.8H36.6z"
			/>
		<path class="st1" d="M38,82.4c0-1.2,0.3-2.1,1-2.9c0.6-0.8,1.5-1.1,2.6-1.1c1.1,0,2,0.4,2.6,1.1c0.6,0.8,1,1.7,1,2.9v0.2
			c0,1.2-0.3,2.1-1,2.9s-1.5,1.1-2.6,1.1s-2-0.4-2.6-1.1c-0.6-0.8-1-1.7-1-2.9V82.4z M39.4,82.5c0,0.8,0.2,1.5,0.5,2.1
			c0.4,0.5,0.9,0.8,1.6,0.8c0.7,0,1.2-0.3,1.6-0.8s0.5-1.2,0.5-2.1v-0.2c0-0.8-0.2-1.5-0.5-2.1c-0.4-0.6-0.9-0.8-1.6-0.8
			c-0.7,0-1.2,0.3-1.6,0.8c-0.4,0.6-0.5,1.2-0.5,2.1V82.5z"/>
		<path class="st1" d="M48.1,78.5l0.1,1.2c0.3-0.4,0.6-0.7,1-1c0.4-0.2,0.9-0.3,1.4-0.3c0.9,0,1.5,0.3,2,0.8s0.7,1.3,0.7,2.3v5h-1.4
			v-5c0-0.7-0.1-1.2-0.4-1.5s-0.7-0.4-1.3-0.4c-0.4,0-0.8,0.1-1.1,0.3c-0.3,0.2-0.6,0.4-0.7,0.8v5.9h-1.4v-7.9H48.1z"/>
		<path class="st1" d="M56.8,79.5c0.3-0.4,0.6-0.7,1-0.9c0.4-0.2,0.8-0.3,1.3-0.3c0.8,0,1.5,0.3,2,0.8s0.7,1.3,0.7,2.3v5h-1.4v-5
			c0-0.7-0.1-1.1-0.4-1.5s-0.7-0.5-1.3-0.5c-0.4,0-0.8,0.1-1.1,0.3c-0.3,0.2-0.6,0.4-0.8,0.7v5.9h-1.4V75h1.4V79.5z"/>
		<path class="st1" d="M67.2,86.5c-1.1,0-2-0.4-2.7-1.1c-0.6-0.7-1-1.7-1-2.9v-0.3c0-1.1,0.3-2.1,1-2.8s1.5-1.1,2.4-1.1
			c1.1,0,1.9,0.3,2.4,1s0.8,1.5,0.8,2.6v0.8h-5.1l0,0c0,0.8,0.2,1.4,0.5,1.9c0.4,0.5,0.9,0.7,1.6,0.7c0.5,0,0.9-0.1,1.3-0.2
			c0.4-0.1,0.7-0.3,0.9-0.6l0.6,0.9c-0.3,0.3-0.7,0.5-1.1,0.7C68.4,86.4,67.8,86.5,67.2,86.5z M67,79.5c-0.5,0-0.9,0.2-1.2,0.6
			c-0.3,0.4-0.5,0.9-0.6,1.5l0,0h3.6v-0.1c0-0.6-0.1-1.1-0.4-1.4S67.6,79.5,67,79.5z"/>
		<path class="st1" d="M74.9,85.4c0.4,0,0.8-0.1,1.2-0.4s0.5-0.7,0.5-1.1h1.3l0,0c0,0.7-0.3,1.3-0.9,1.8s-1.3,0.8-2.1,0.8
			c-1.1,0-2-0.4-2.6-1.1s-0.9-1.7-0.9-2.8v-0.3c0-1.1,0.3-2.1,0.9-2.8c0.6-0.8,1.5-1.1,2.6-1.1c0.9,0,1.6,0.3,2.2,0.8
			c0.6,0.5,0.8,1.2,0.8,2l0,0h-1.3c0-0.5-0.2-0.9-0.5-1.2c-0.3-0.3-0.7-0.5-1.2-0.5c-0.7,0-1.2,0.3-1.5,0.8c-0.3,0.5-0.5,1.2-0.5,2
			v0.3c0,0.8,0.2,1.5,0.5,2C73.7,85.1,74.2,85.4,74.9,85.4z"/>
		<path class="st1" d="M81.2,76.4h-1.4V75h1.4V76.4z M81.2,86.4h-1.4v-7.9h1.4V86.4z"/>
		<path class="st1" d="M84.7,78.5l0.1,1c0.3-0.4,0.6-0.7,1-0.9s0.9-0.3,1.4-0.3s1,0.1,1.4,0.4c0.4,0.2,0.7,0.6,0.9,1.1
			c0.3-0.5,0.6-0.8,1-1.1c0.4-0.3,0.9-0.4,1.4-0.4c0.8,0,1.4,0.3,1.9,0.8c0.5,0.6,0.7,1.4,0.7,2.5v4.7H93v-4.8
			c0-0.8-0.1-1.3-0.4-1.7s-0.7-0.5-1.2-0.5c-0.5,0-0.9,0.2-1.2,0.5s-0.5,0.8-0.5,1.3v0.1v5h-1.5v-4.8c0-0.7-0.1-1.3-0.4-1.6
			c-0.3-0.3-0.7-0.5-1.2-0.5c-0.4,0-0.8,0.1-1.1,0.3s-0.5,0.4-0.7,0.8v5.9h-1.4v-7.9H84.7z"/>
		<path class="st1" d="M99.8,86.5c-1.1,0-2-0.4-2.7-1.1c-0.6-0.7-1-1.7-1-2.9v-0.3c0-1.1,0.3-2.1,1-2.8s1.5-1.1,2.4-1.1
			c1.1,0,1.9,0.3,2.4,1s0.8,1.5,0.8,2.6v0.8h-5.1l0,0c0,0.8,0.2,1.4,0.5,1.9c0.4,0.5,0.9,0.7,1.6,0.7c0.5,0,0.9-0.1,1.3-0.2
			c0.4-0.1,0.7-0.3,0.9-0.6l0.6,0.9c-0.3,0.3-0.7,0.5-1.1,0.7C101,86.4,100.4,86.5,99.8,86.5z M99.6,79.5c-0.5,0-0.9,0.2-1.2,0.6
			c-0.3,0.4-0.5,0.9-0.6,1.5l0,0h3.6v-0.1c0-0.6-0.1-1.1-0.4-1.4S100.1,79.5,99.6,79.5z"/>
		<path class="st1" d="M105.6,78.5l0.1,1.2c0.3-0.4,0.6-0.7,1-1c0.4-0.2,0.9-0.3,1.4-0.3c0.9,0,1.5,0.3,2,0.8s0.7,1.3,0.7,2.3v5
			h-1.4v-5c0-0.7-0.1-1.2-0.4-1.5s-0.7-0.4-1.3-0.4c-0.4,0-0.8,0.1-1.1,0.3c-0.3,0.2-0.6,0.4-0.7,0.8v5.9h-1.4v-7.9H105.6z"/>
		<path class="st1" d="M114.9,76.6v1.9h1.5v1.1h-1.5v4.8c0,0.4,0.1,0.6,0.2,0.8c0.2,0.2,0.4,0.2,0.6,0.2c0.1,0,0.2,0,0.3,0
			c0.1,0,0.2,0,0.3-0.1l0.2,1c-0.1,0.1-0.3,0.2-0.5,0.2s-0.4,0.1-0.6,0.1c-0.6,0-1.1-0.2-1.4-0.5s-0.5-0.9-0.5-1.7v-4.8h-1.3v-1.1
			h1.3v-1.9H114.9z"/>
		<path class="st1" d="M117.6,82.4c0-1.2,0.3-2.1,1-2.9c0.6-0.8,1.5-1.1,2.6-1.1c1.1,0,2,0.4,2.6,1.1c0.6,0.8,1,1.7,1,2.9v0.2
			c0,1.2-0.3,2.1-1,2.9s-1.5,1.1-2.6,1.1s-2-0.4-2.6-1.1c-0.6-0.8-1-1.7-1-2.9V82.4z M119,82.5c0,0.8,0.2,1.5,0.5,2.1
			c0.4,0.5,0.9,0.8,1.6,0.8c0.7,0,1.2-0.3,1.6-0.8s0.5-1.2,0.5-2.1v-0.2c0-0.8-0.2-1.5-0.5-2.1c-0.4-0.6-0.9-0.8-1.6-0.8
			c-0.7,0-1.2,0.3-1.6,0.8c-0.4,0.6-0.5,1.2-0.5,2.1V82.5z"/>
		<path class="st1" d="M127.7,86l-1.1,2.2h-0.9l0.5-2.3v-1.2h1.4V86z"/>
		<path class="st1" d="M141.4,86.4H140v-4.7h-5.2v4.7h-1.4V75.7h1.4v4.8h5.2v-4.8h1.4V86.4z"/>
		<path class="st1" d="M148.6,86.4c0-0.2-0.1-0.5-0.1-0.6c0-0.2,0-0.4,0-0.6c-0.3,0.4-0.6,0.7-1.1,1c-0.4,0.3-0.9,0.4-1.4,0.4
			c-0.8,0-1.5-0.2-1.9-0.6c-0.4-0.4-0.6-1-0.6-1.7c0-0.8,0.3-1.3,0.9-1.8c0.6-0.4,1.4-0.6,2.5-0.6h1.6V81c0-0.5-0.1-0.8-0.4-1.1
			c-0.3-0.3-0.7-0.4-1.2-0.4c-0.5,0-0.8,0.1-1.1,0.4s-0.4,0.5-0.4,0.8l-1.4,0l0,0c0-0.6,0.2-1.1,0.8-1.6s1.3-0.7,2.2-0.7
			c0.9,0,1.6,0.2,2.2,0.7c0.5,0.5,0.8,1.1,0.8,2v3.8c0,0.3,0,0.6,0,0.8s0.1,0.5,0.2,0.8H148.6z M146.2,85.3c0.5,0,1-0.1,1.4-0.4
			s0.7-0.6,0.8-0.9v-1.3h-1.6c-0.6,0-1,0.1-1.4,0.4c-0.3,0.3-0.5,0.6-0.5,1c0,0.4,0.1,0.6,0.3,0.8S145.7,85.3,146.2,85.3z"/>
		<path class="st1" d="M158.7,82.7c0,1.1-0.3,2.1-0.8,2.8c-0.5,0.7-1.3,1.1-2.3,1.1c-0.5,0-1-0.1-1.4-0.3c-0.4-0.2-0.7-0.5-1-0.9
			l-0.2,1.1h-1.1V75h1.4v4.4c0.2-0.4,0.6-0.6,0.9-0.8c0.4-0.2,0.8-0.3,1.3-0.3c1,0,1.7,0.4,2.3,1.2s0.8,1.8,0.8,3.1V82.7z
			 M157.3,82.6c0-0.9-0.2-1.6-0.5-2.2c-0.3-0.6-0.8-0.9-1.5-0.9c-0.4,0-0.8,0.1-1.1,0.3s-0.5,0.5-0.7,0.9v3.4
			c0.2,0.4,0.4,0.7,0.7,0.9c0.3,0.2,0.7,0.3,1.1,0.3c0.7,0,1.2-0.2,1.5-0.7s0.5-1.1,0.5-1.9V82.6z"/>
		<path class="st1" d="M162,76.4h-1.4V75h1.4V76.4z M162,86.4h-1.4v-7.9h1.4V86.4z"/>
		<path class="st1" d="M165.8,86.4h-1.4V75h1.4V86.4z"/>
		<path class="st1" d="M169.6,76.4h-1.4V75h1.4V76.4z M169.6,86.4h-1.4v-7.9h1.4V86.4z"/>
		<path class="st1" d="M171.5,82.6c0-1.3,0.3-2.3,0.8-3.1s1.3-1.2,2.3-1.2c0.5,0,0.9,0.1,1.2,0.3c0.4,0.2,0.7,0.4,0.9,0.7V75h1.4
			v11.4h-1.1l-0.2-1c-0.3,0.4-0.6,0.7-1,0.9s-0.8,0.3-1.3,0.3c-1,0-1.7-0.4-2.3-1.1c-0.5-0.7-0.8-1.6-0.8-2.8V82.6z M172.9,82.7
			c0,0.8,0.2,1.4,0.5,1.9s0.8,0.7,1.5,0.7c0.4,0,0.8-0.1,1.1-0.3s0.5-0.5,0.7-0.8v-3.7c-0.2-0.3-0.4-0.6-0.7-0.8
			c-0.3-0.2-0.7-0.3-1.1-0.3c-0.7,0-1.2,0.3-1.5,0.9c-0.3,0.6-0.5,1.3-0.5,2.2V82.7z"/>
		<path class="st1" d="M185.2,86.4c0-0.2-0.1-0.5-0.1-0.6c0-0.2,0-0.4,0-0.6c-0.3,0.4-0.6,0.7-1.1,1c-0.4,0.3-0.9,0.4-1.4,0.4
			c-0.8,0-1.5-0.2-1.9-0.6c-0.4-0.4-0.6-1-0.6-1.7c0-0.8,0.3-1.3,0.9-1.8c0.6-0.4,1.4-0.6,2.5-0.6h1.6V81c0-0.5-0.1-0.8-0.4-1.1
			c-0.3-0.3-0.7-0.4-1.2-0.4c-0.5,0-0.8,0.1-1.1,0.4s-0.4,0.5-0.4,0.8l-1.4,0l0,0c0-0.6,0.2-1.1,0.8-1.6s1.3-0.7,2.2-0.7
			c0.9,0,1.6,0.2,2.2,0.7c0.5,0.5,0.8,1.1,0.8,2v3.8c0,0.3,0,0.6,0,0.8s0.1,0.5,0.2,0.8H185.2z M182.8,85.3c0.5,0,1-0.1,1.4-0.4
			s0.7-0.6,0.8-0.9v-1.3h-1.6c-0.6,0-1,0.1-1.4,0.4c-0.3,0.3-0.5,0.6-0.5,1c0,0.4,0.1,0.6,0.3,0.8S182.4,85.3,182.8,85.3z"/>
		<path class="st1" d="M188.2,82.6c0-1.3,0.3-2.3,0.8-3.1s1.3-1.2,2.3-1.2c0.5,0,0.9,0.1,1.2,0.3c0.4,0.2,0.7,0.4,0.9,0.7V75h1.4
			v11.4h-1.1l-0.2-1c-0.3,0.4-0.6,0.7-1,0.9s-0.8,0.3-1.3,0.3c-1,0-1.7-0.4-2.3-1.1c-0.5-0.7-0.8-1.6-0.8-2.8V82.6z M189.7,82.7
			c0,0.8,0.2,1.4,0.5,1.9s0.8,0.7,1.5,0.7c0.4,0,0.8-0.1,1.1-0.3s0.5-0.5,0.7-0.8v-3.7c-0.2-0.3-0.4-0.6-0.7-0.8
			c-0.3-0.2-0.7-0.3-1.1-0.3c-0.7,0-1.2,0.3-1.5,0.9c-0.3,0.6-0.5,1.3-0.5,2.2V82.7z"/>
		<path class="st1" d="M200.4,86.5c-1.1,0-2-0.4-2.7-1.1c-0.6-0.7-1-1.7-1-2.9v-0.3c0-1.1,0.3-2.1,1-2.8s1.5-1.1,2.4-1.1
			c1.1,0,1.9,0.3,2.4,1s0.8,1.5,0.8,2.6v0.8h-5.1l0,0c0,0.8,0.2,1.4,0.5,1.9c0.4,0.5,0.9,0.7,1.6,0.7c0.5,0,0.9-0.1,1.3-0.2
			c0.4-0.1,0.7-0.3,0.9-0.6l0.6,0.9c-0.3,0.3-0.7,0.5-1.1,0.7C201.6,86.4,201,86.5,200.4,86.5z M200.2,79.5c-0.5,0-0.9,0.2-1.2,0.6
			c-0.3,0.4-0.5,0.9-0.6,1.5l0,0h3.6v-0.1c0-0.6-0.1-1.1-0.4-1.4S200.7,79.5,200.2,79.5z"/>
		<path class="st1" d="M206.2,86l-1.1,2.2h-0.9l0.5-2.3v-1.2h1.4V86z"/>
		<path class="st1" d="M211.8,86.4V75.7h3.4c1.4,0,2.5,0.4,3.4,1.3c0.8,0.9,1.3,2,1.3,3.3v1.5c0,1.4-0.4,2.5-1.3,3.3
			c-0.8,0.9-2,1.3-3.4,1.3H211.8z M213.3,76.9v8.4h1.9c1,0,1.8-0.3,2.3-1c0.6-0.6,0.9-1.5,0.9-2.5v-1.5c0-1-0.3-1.8-0.9-2.5
			c-0.6-0.6-1.3-1-2.3-1H213.3z"/>
		<path class="st1" d="M225.1,86.5c-1.1,0-2-0.4-2.7-1.1c-0.6-0.7-1-1.7-1-2.9v-0.3c0-1.1,0.3-2.1,1-2.8s1.5-1.1,2.4-1.1
			c1.1,0,1.9,0.3,2.4,1s0.8,1.5,0.8,2.6v0.8H223l0,0c0,0.8,0.2,1.4,0.5,1.9c0.4,0.5,0.9,0.7,1.6,0.7c0.5,0,0.9-0.1,1.3-0.2
			c0.4-0.1,0.7-0.3,0.9-0.6l0.6,0.9c-0.3,0.3-0.7,0.5-1.1,0.7C226.3,86.4,225.7,86.5,225.1,86.5z M224.9,79.5
			c-0.5,0-0.9,0.2-1.2,0.6c-0.3,0.4-0.5,0.9-0.6,1.5l0,0h3.6v-0.1c0-0.6-0.1-1.1-0.4-1.4S225.4,79.5,224.9,79.5z"/>
		<path class="st1" d="M234.3,84.3c0-0.3-0.1-0.6-0.4-0.8c-0.2-0.2-0.7-0.4-1.4-0.5c-0.9-0.2-1.6-0.5-2.1-0.8s-0.8-0.8-0.8-1.5
			c0-0.6,0.3-1.2,0.8-1.7c0.5-0.5,1.3-0.7,2.1-0.7c0.9,0,1.6,0.2,2.2,0.7s0.8,1.1,0.8,1.7l0,0h-1.4c0-0.3-0.2-0.7-0.5-0.9
			c-0.3-0.3-0.7-0.4-1.1-0.4c-0.5,0-0.9,0.1-1.1,0.3s-0.4,0.5-0.4,0.8c0,0.3,0.1,0.6,0.3,0.7c0.2,0.2,0.7,0.3,1.3,0.5
			c1,0.2,1.7,0.5,2.2,0.9s0.8,0.9,0.8,1.5c0,0.7-0.3,1.3-0.9,1.7c-0.6,0.4-1.3,0.7-2.2,0.7c-1,0-1.8-0.3-2.4-0.8s-0.9-1.1-0.8-1.8
			l0,0h1.4c0,0.5,0.2,0.9,0.6,1.1s0.8,0.4,1.3,0.4c0.5,0,0.9-0.1,1.2-0.3C234.1,84.9,234.3,84.6,234.3,84.3z"/>
		<path class="st1" d="M239.5,76.6v1.9h1.5v1.1h-1.5v4.8c0,0.4,0.1,0.6,0.2,0.8c0.2,0.2,0.4,0.2,0.6,0.2c0.1,0,0.2,0,0.3,0
			c0.1,0,0.2,0,0.3-0.1l0.2,1c-0.1,0.1-0.3,0.2-0.5,0.2s-0.4,0.1-0.6,0.1c-0.6,0-1.1-0.2-1.4-0.5s-0.5-0.9-0.5-1.7v-4.8h-1.3v-1.1
			h1.3v-1.9H239.5z"/>
		<path class="st1" d="M246.3,79.7l-0.7,0c-0.4,0-0.7,0.1-1,0.3c-0.3,0.2-0.5,0.4-0.6,0.8v5.7h-1.4v-7.9h1.3l0.1,1.2
			c0.2-0.4,0.5-0.7,0.8-1c0.3-0.2,0.7-0.3,1.1-0.3c0.1,0,0.2,0,0.3,0c0.1,0,0.2,0,0.2,0.1L246.3,79.7z"/>
		<path class="st1" d="M250.9,86.5c-1.1,0-2-0.4-2.7-1.1c-0.6-0.7-1-1.7-1-2.9v-0.3c0-1.1,0.3-2.1,1-2.8s1.5-1.1,2.4-1.1
			c1.1,0,1.9,0.3,2.4,1s0.8,1.5,0.8,2.6v0.8h-5.1l0,0c0,0.8,0.2,1.4,0.5,1.9c0.4,0.5,0.9,0.7,1.6,0.7c0.5,0,0.9-0.1,1.3-0.2
			c0.4-0.1,0.7-0.3,0.9-0.6l0.6,0.9c-0.3,0.3-0.7,0.5-1.1,0.7C252.2,86.4,251.6,86.5,250.9,86.5z M250.7,79.5
			c-0.5,0-0.9,0.2-1.2,0.6c-0.3,0.4-0.5,0.9-0.6,1.5l0,0h3.6v-0.1c0-0.6-0.1-1.1-0.4-1.4S251.3,79.5,250.7,79.5z"/>
		<path class="st1" d="M256.9,85.3h4.6v1.1h-6.3v-1l4.3-5.8h-4.2v-1.1h6v1L256.9,85.3z"/>
		<path class="st1" d="M267.9,86.4c0-0.2-0.1-0.5-0.1-0.6c0-0.2,0-0.4,0-0.6c-0.3,0.4-0.6,0.7-1.1,1c-0.4,0.3-0.9,0.4-1.4,0.4
			c-0.8,0-1.5-0.2-1.9-0.6c-0.4-0.4-0.6-1-0.6-1.7c0-0.8,0.3-1.3,0.9-1.8c0.6-0.4,1.4-0.6,2.5-0.6h1.6V81c0-0.5-0.1-0.8-0.4-1.1
			c-0.3-0.3-0.7-0.4-1.2-0.4c-0.5,0-0.8,0.1-1.1,0.4s-0.4,0.5-0.4,0.8l-1.4,0l0,0c0-0.6,0.2-1.1,0.8-1.6s1.3-0.7,2.2-0.7
			c0.9,0,1.6,0.2,2.2,0.7c0.5,0.5,0.8,1.1,0.8,2v3.8c0,0.3,0,0.6,0,0.8s0.1,0.5,0.2,0.8H267.9z M265.5,85.3c0.5,0,1-0.1,1.4-0.4
			s0.7-0.6,0.8-0.9v-1.3h-1.6c-0.6,0-1,0.1-1.4,0.4c-0.3,0.3-0.5,0.6-0.5,1c0,0.4,0.1,0.6,0.3,0.8S265.1,85.3,265.5,85.3z"/>
		<path class="st1" d="M272.6,86l-1.1,2.2h-0.9l0.5-2.3v-1.2h1.4V86z"/>
		<path class="st1" d="M24.1,104.4h-1.5V93.7h1.5V104.4z"/>
		<path class="st1" d="M27.8,96.5l0.1,1.2c0.3-0.4,0.6-0.7,1-1c0.4-0.2,0.9-0.3,1.4-0.3c0.9,0,1.5,0.3,2,0.8s0.7,1.3,0.7,2.3v5h-1.4
			v-5c0-0.7-0.1-1.2-0.4-1.5s-0.7-0.4-1.3-0.4c-0.4,0-0.8,0.1-1.1,0.3c-0.3,0.2-0.6,0.4-0.7,0.8v5.9h-1.4v-7.9H27.8z"/>
		<path class="st1" d="M37.1,94.6v1.9h1.5v1.1h-1.5v4.8c0,0.4,0.1,0.6,0.2,0.8c0.2,0.2,0.4,0.2,0.6,0.2c0.1,0,0.2,0,0.3,0
			c0.1,0,0.2,0,0.3-0.1l0.2,1c-0.1,0.1-0.3,0.2-0.5,0.2s-0.4,0.1-0.6,0.1c-0.6,0-1.1-0.2-1.4-0.5s-0.5-0.9-0.5-1.7v-4.8h-1.3v-1.1
			h1.3v-1.9H37.1z"/>
		<path class="st1" d="M43.4,104.5c-1.1,0-2-0.4-2.7-1.1c-0.6-0.7-1-1.7-1-2.9v-0.3c0-1.1,0.3-2.1,1-2.8s1.5-1.1,2.4-1.1
			c1.1,0,1.9,0.3,2.4,1s0.8,1.5,0.8,2.6v0.8h-5.1l0,0c0,0.8,0.2,1.4,0.5,1.9c0.4,0.5,0.9,0.7,1.6,0.7c0.5,0,0.9-0.1,1.3-0.2
			c0.4-0.1,0.7-0.3,0.9-0.6l0.6,0.9c-0.3,0.3-0.7,0.5-1.1,0.7C44.6,104.4,44.1,104.5,43.4,104.5z M43.2,97.5c-0.5,0-0.9,0.2-1.2,0.6
			c-0.3,0.4-0.5,0.9-0.6,1.5l0,0h3.6v-0.1c0-0.6-0.1-1.1-0.4-1.4S43.8,97.5,43.2,97.5z"/>
		<path class="st1" d="M49.5,104.4h-1.4V93h1.4V104.4z"/>
		<path class="st1" d="M53.3,94.4h-1.4V93h1.4V94.4z M53.3,104.4h-1.4v-7.9h1.4V104.4z"/>
		<path class="st1" d="M55.3,100.6c0-1.3,0.3-2.3,0.8-3.1s1.3-1.2,2.3-1.2c0.5,0,0.9,0.1,1.3,0.3c0.4,0.2,0.7,0.5,1,0.9l0.2-1H62v8
			c0,1-0.3,1.8-0.9,2.3s-1.4,0.8-2.6,0.8c-0.4,0-0.8-0.1-1.2-0.2s-0.8-0.2-1.2-0.4l0.2-1.1c0.3,0.1,0.6,0.3,1,0.4
			c0.4,0.1,0.8,0.1,1.2,0.1c0.7,0,1.2-0.2,1.5-0.5s0.5-0.8,0.5-1.5v-0.9c-0.3,0.3-0.6,0.6-0.9,0.8s-0.8,0.3-1.3,0.3
			c-1,0-1.7-0.4-2.3-1.1c-0.5-0.7-0.8-1.6-0.8-2.8V100.6z M56.7,100.7c0,0.8,0.2,1.4,0.5,1.9s0.8,0.7,1.5,0.7c0.4,0,0.8-0.1,1.1-0.3
			c0.3-0.2,0.5-0.5,0.7-0.8v-3.6c-0.2-0.3-0.4-0.6-0.7-0.8c-0.3-0.2-0.7-0.3-1.1-0.3c-0.7,0-1.2,0.3-1.5,0.9
			c-0.3,0.6-0.5,1.3-0.5,2.2V100.7z"/>
		<path class="st1" d="M67.3,104.5c-1.1,0-2-0.4-2.7-1.1c-0.6-0.7-1-1.7-1-2.9v-0.3c0-1.1,0.3-2.1,1-2.8s1.5-1.1,2.4-1.1
			c1.1,0,1.9,0.3,2.4,1s0.8,1.5,0.8,2.6v0.8h-5.1l0,0c0,0.8,0.2,1.4,0.5,1.9c0.4,0.5,0.9,0.7,1.6,0.7c0.5,0,0.9-0.1,1.3-0.2
			c0.4-0.1,0.7-0.3,0.9-0.6l0.6,0.9c-0.3,0.3-0.7,0.5-1.1,0.7C68.6,104.4,68,104.5,67.3,104.5z M69.2,94.8V95H68L67,93.9L65.9,95
			h-1.2v-0.2l1.8-1.7h0.9L69.2,94.8z M67.1,97.5c-0.5,0-0.9,0.2-1.2,0.6c-0.3,0.4-0.5,0.9-0.6,1.5l0,0h3.6v-0.1
			c0-0.6-0.1-1.1-0.4-1.4S67.7,97.5,67.1,97.5z"/>
		<path class="st1" d="M73.2,96.5l0.1,1.2c0.3-0.4,0.6-0.7,1-1c0.4-0.2,0.9-0.3,1.4-0.3c0.9,0,1.5,0.3,2,0.8s0.7,1.3,0.7,2.3v5h-1.4
			v-5c0-0.7-0.1-1.2-0.4-1.5s-0.7-0.4-1.3-0.4c-0.4,0-0.8,0.1-1.1,0.3c-0.3,0.2-0.6,0.4-0.7,0.8v5.9h-1.4v-7.9H73.2z"/>
		<path class="st1" d="M83.6,103.4c0.4,0,0.8-0.1,1.2-0.4s0.5-0.7,0.5-1.1h1.3l0,0c0,0.7-0.3,1.3-0.9,1.8s-1.3,0.8-2.1,0.8
			c-1.1,0-2-0.4-2.6-1.1s-0.9-1.7-0.9-2.8v-0.3c0-1.1,0.3-2.1,0.9-2.8c0.6-0.8,1.5-1.1,2.6-1.1c0.9,0,1.6,0.3,2.2,0.8
			c0.6,0.5,0.8,1.2,0.8,2l0,0h-1.3c0-0.5-0.2-0.9-0.5-1.2c-0.3-0.3-0.7-0.5-1.2-0.5c-0.7,0-1.2,0.3-1.5,0.8c-0.3,0.5-0.5,1.2-0.5,2
			v0.3c0,0.8,0.2,1.5,0.5,2C82.4,103.1,82.9,103.4,83.6,103.4z"/>
		<path class="st1" d="M89.9,94.4h-1.4V93h1.4V94.4z M89.9,104.4h-1.4v-7.9h1.4V104.4z"/>
		<path class="st1" d="M96.9,104.4c0-0.2-0.1-0.5-0.1-0.6c0-0.2,0-0.4,0-0.6c-0.3,0.4-0.6,0.7-1.1,1c-0.4,0.3-0.9,0.4-1.4,0.4
			c-0.8,0-1.5-0.2-1.9-0.6c-0.4-0.4-0.6-1-0.6-1.7c0-0.8,0.3-1.3,0.9-1.8c0.6-0.4,1.4-0.6,2.5-0.6h1.6V99c0-0.5-0.1-0.8-0.4-1.1
			c-0.3-0.3-0.7-0.4-1.2-0.4c-0.5,0-0.8,0.1-1.1,0.4s-0.4,0.5-0.4,0.8l-1.4,0l0,0c0-0.6,0.2-1.1,0.8-1.6s1.3-0.7,2.2-0.7
			c0.9,0,1.6,0.2,2.2,0.7c0.5,0.5,0.8,1.1,0.8,2v3.8c0,0.3,0,0.6,0,0.8s0.1,0.5,0.2,0.8H96.9z M94.6,103.3c0.5,0,1-0.1,1.4-0.4
			s0.7-0.6,0.8-0.9v-1.3h-1.6c-0.6,0-1,0.1-1.4,0.4c-0.3,0.3-0.5,0.6-0.5,1c0,0.4,0.1,0.6,0.3,0.8S94.1,103.3,94.6,103.3z"/>
		<path class="st1" d="M101.6,104l-1.1,2.2h-0.9l0.5-2.3v-1.2h1.4V104z"/>
		<path class="st1" d="M112.5,102.4L112.5,102.4l3.4-8.7h1.8v10.7h-1.4v-8l0,0l-3.2,8h-1l-3.3-8.3l0,0v8.3h-1.4V93.7h1.9
			L112.5,102.4z"/>
		<path class="st1" d="M119.7,100.4c0-1.2,0.3-2.1,1-2.9c0.6-0.8,1.5-1.1,2.6-1.1c1.1,0,2,0.4,2.6,1.1c0.6,0.8,1,1.7,1,2.9v0.2
			c0,1.2-0.3,2.1-1,2.9s-1.5,1.1-2.6,1.1s-2-0.4-2.6-1.1c-0.6-0.8-1-1.7-1-2.9V100.4z M121.1,100.5c0,0.8,0.2,1.5,0.5,2.1
			c0.4,0.5,0.9,0.8,1.6,0.8c0.7,0,1.2-0.3,1.6-0.8s0.5-1.2,0.5-2.1v-0.2c0-0.8-0.2-1.5-0.5-2.1c-0.4-0.6-0.9-0.8-1.6-0.8
			c-0.7,0-1.2,0.3-1.6,0.8c-0.4,0.6-0.5,1.2-0.5,2.1V100.5z"/>
		<path class="st1" d="M130.6,94.6v1.9h1.5v1.1h-1.5v4.8c0,0.4,0.1,0.6,0.2,0.8c0.2,0.2,0.4,0.2,0.6,0.2c0.1,0,0.2,0,0.3,0
			c0.1,0,0.2,0,0.3-0.1l0.2,1c-0.1,0.1-0.3,0.2-0.5,0.2s-0.4,0.1-0.6,0.1c-0.6,0-1.1-0.2-1.4-0.5s-0.5-0.9-0.5-1.7v-4.8h-1.3v-1.1
			h1.3v-1.9H130.6z"/>
		<path class="st1" d="M135.2,94.4h-1.4V93h1.4V94.4z M135.2,104.4h-1.4v-7.9h1.4V104.4z"/>
		<path class="st1" d="M140,102.1l0.1,0.6h0l0.1-0.6l1.8-5.6h1.5l-2.9,7.9h-1.1l-3-7.9h1.5L140,102.1z"/>
		<path class="st1" d="M149.7,104.4c0-0.2-0.1-0.5-0.1-0.6c0-0.2,0-0.4,0-0.6c-0.3,0.4-0.6,0.7-1.1,1c-0.4,0.3-0.9,0.4-1.4,0.4
			c-0.8,0-1.5-0.2-1.9-0.6c-0.4-0.4-0.6-1-0.6-1.7c0-0.8,0.3-1.3,0.9-1.8c0.6-0.4,1.4-0.6,2.5-0.6h1.6V99c0-0.5-0.1-0.8-0.4-1.1
			c-0.3-0.3-0.7-0.4-1.2-0.4c-0.5,0-0.8,0.1-1.1,0.4s-0.4,0.5-0.4,0.8l-1.4,0l0,0c0-0.6,0.2-1.1,0.8-1.6s1.3-0.7,2.2-0.7
			c0.9,0,1.6,0.2,2.2,0.7c0.5,0.5,0.8,1.1,0.8,2v3.8c0,0.3,0,0.6,0,0.8s0.1,0.5,0.2,0.8H149.7z M147.3,103.3c0.5,0,1-0.1,1.4-0.4
			s0.7-0.6,0.8-0.9v-1.3h-1.6c-0.6,0-1,0.1-1.4,0.4c-0.3,0.3-0.5,0.6-0.5,1c0,0.4,0.1,0.6,0.3,0.8S146.9,103.3,147.3,103.3z"/>
		<path class="st1" d="M156.2,103.4c0.4,0,0.8-0.1,1.2-0.4s0.5-0.7,0.5-1.1h1.3l0,0c0,0.7-0.3,1.3-0.9,1.8s-1.3,0.8-2.1,0.8
			c-1.1,0-2-0.4-2.6-1.1s-0.9-1.7-0.9-2.8v-0.3c0-1.1,0.3-2.1,0.9-2.8c0.6-0.8,1.5-1.1,2.6-1.1c0.9,0,1.6,0.3,2.2,0.8
			c0.6,0.5,0.8,1.2,0.8,2l0,0h-1.3c0-0.5-0.2-0.9-0.5-1.2c-0.3-0.3-0.7-0.5-1.2-0.5c-0.7,0-1.2,0.3-1.5,0.8c-0.3,0.5-0.5,1.2-0.5,2
			v0.3c0,0.8,0.2,1.5,0.5,2C155,103.1,155.5,103.4,156.2,103.4z M156.6,104.5l-0.1,0.4c0.3,0.1,0.6,0.2,0.8,0.4s0.3,0.5,0.3,0.9
			c0,0.5-0.2,0.8-0.6,1.1s-0.9,0.4-1.7,0.4l-0.1-0.8c0.4,0,0.6-0.1,0.8-0.2c0.2-0.1,0.3-0.3,0.3-0.5c0-0.2-0.1-0.4-0.3-0.5
			s-0.5-0.2-0.9-0.2l0.2-1H156.6z"/>
		<path class="st1" d="M165.8,104.4c0-0.2-0.1-0.5-0.1-0.6c0-0.2,0-0.4,0-0.6c-0.3,0.4-0.6,0.7-1.1,1c-0.4,0.3-0.9,0.4-1.4,0.4
			c-0.8,0-1.5-0.2-1.9-0.6c-0.4-0.4-0.6-1-0.6-1.7c0-0.8,0.3-1.3,0.9-1.8c0.6-0.4,1.4-0.6,2.5-0.6h1.6V99c0-0.5-0.1-0.8-0.4-1.1
			c-0.3-0.3-0.7-0.4-1.2-0.4c-0.5,0-0.8,0.1-1.1,0.4s-0.4,0.5-0.4,0.8l-1.4,0l0,0c0-0.6,0.2-1.1,0.8-1.6s1.3-0.7,2.2-0.7
			c0.9,0,1.6,0.2,2.2,0.7c0.5,0.5,0.8,1.1,0.8,2v3.8c0,0.3,0,0.6,0,0.8s0.1,0.5,0.2,0.8H165.8z M166.5,93.2c0,0.5-0.1,0.8-0.4,1.2
			c-0.3,0.3-0.7,0.5-1.1,0.5c-0.3,0-0.7-0.1-1.1-0.3c-0.4-0.2-0.7-0.3-0.9-0.3c-0.2,0-0.4,0.1-0.5,0.2c-0.1,0.2-0.2,0.4-0.2,0.6
			l-0.8-0.2c0-0.5,0.1-0.8,0.4-1.2s0.7-0.5,1.1-0.5c0.3,0,0.6,0.1,1,0.3s0.7,0.3,1,0.3c0.2,0,0.4-0.1,0.5-0.2
			c0.1-0.2,0.2-0.4,0.2-0.6L166.5,93.2z M163.4,103.3c0.5,0,1-0.1,1.4-0.4s0.7-0.6,0.8-0.9v-1.3H164c-0.6,0-1,0.1-1.4,0.4
			c-0.3,0.3-0.5,0.6-0.5,1c0,0.4,0.1,0.6,0.3,0.8S163,103.3,163.4,103.3z"/>
		<path class="st1" d="M168.8,100.4c0-1.2,0.3-2.1,1-2.9c0.6-0.8,1.5-1.1,2.6-1.1c1.1,0,2,0.4,2.6,1.1c0.6,0.8,1,1.7,1,2.9v0.2
			c0,1.2-0.3,2.1-1,2.9s-1.5,1.1-2.6,1.1s-2-0.4-2.6-1.1c-0.6-0.8-1-1.7-1-2.9V100.4z M170.3,100.5c0,0.8,0.2,1.5,0.5,2.1
			c0.4,0.5,0.9,0.8,1.6,0.8c0.7,0,1.2-0.3,1.6-0.8s0.5-1.2,0.5-2.1v-0.2c0-0.8-0.2-1.5-0.5-2.1c-0.4-0.6-0.9-0.8-1.6-0.8
			c-0.7,0-1.2,0.3-1.6,0.8c-0.4,0.6-0.5,1.2-0.5,2.1V100.5z"/>
		<path class="st1" d="M179,104l-1.1,2.2H177l0.5-2.3v-1.2h1.4V104z"/>
		<path class="st1" d="M186,100.1v4.3h-1.4V93.7h4.1c1.1,0,2,0.3,2.7,0.9s0.9,1.4,0.9,2.3c0,1-0.3,1.7-0.9,2.3s-1.5,0.9-2.7,0.9H186
			z M186,99h2.6c0.7,0,1.3-0.2,1.6-0.6c0.4-0.4,0.5-0.9,0.5-1.5s-0.2-1.1-0.5-1.5c-0.4-0.4-0.9-0.6-1.6-0.6H186V99z"/>
		<path class="st1" d="M197.1,104.5c-1.1,0-2-0.4-2.7-1.1c-0.6-0.7-1-1.7-1-2.9v-0.3c0-1.1,0.3-2.1,1-2.8s1.5-1.1,2.4-1.1
			c1.1,0,1.9,0.3,2.4,1s0.8,1.5,0.8,2.6v0.8H195l0,0c0,0.8,0.2,1.4,0.5,1.9c0.4,0.5,0.9,0.7,1.6,0.7c0.5,0,0.9-0.1,1.3-0.2
			c0.4-0.1,0.7-0.3,0.9-0.6l0.6,0.9c-0.3,0.3-0.7,0.5-1.1,0.7C198.3,104.4,197.8,104.5,197.1,104.5z M196.9,97.5
			c-0.5,0-0.9,0.2-1.2,0.6c-0.3,0.4-0.5,0.9-0.6,1.5l0,0h3.6v-0.1c0-0.6-0.1-1.1-0.4-1.4S197.5,97.5,196.9,97.5z"/>
		<path class="st1" d="M205.4,97.7l-0.7,0c-0.4,0-0.7,0.1-1,0.3c-0.3,0.2-0.5,0.4-0.6,0.8v5.7h-1.4v-7.9h1.3l0.1,1.2
			c0.2-0.4,0.5-0.7,0.8-1c0.3-0.2,0.7-0.3,1.1-0.3c0.1,0,0.2,0,0.3,0c0.1,0,0.2,0,0.2,0.1L205.4,97.7z"/>
		<path class="st1" d="M211.5,102.3c0-0.3-0.1-0.6-0.4-0.8c-0.2-0.2-0.7-0.4-1.4-0.5c-0.9-0.2-1.6-0.5-2.1-0.8s-0.8-0.8-0.8-1.5
			c0-0.6,0.3-1.2,0.8-1.7c0.5-0.5,1.3-0.7,2.1-0.7c0.9,0,1.6,0.2,2.2,0.7s0.8,1.1,0.8,1.7l0,0h-1.4c0-0.3-0.2-0.7-0.5-0.9
			c-0.3-0.3-0.7-0.4-1.1-0.4c-0.5,0-0.9,0.1-1.1,0.3s-0.4,0.5-0.4,0.8c0,0.3,0.1,0.6,0.3,0.7c0.2,0.2,0.7,0.3,1.3,0.5
			c1,0.2,1.7,0.5,2.2,0.9s0.8,0.9,0.8,1.5c0,0.7-0.3,1.3-0.9,1.7c-0.6,0.4-1.3,0.7-2.2,0.7c-1,0-1.8-0.3-2.4-0.8s-0.9-1.1-0.8-1.8
			l0,0h1.4c0,0.5,0.2,0.9,0.6,1.1s0.8,0.4,1.3,0.4c0.5,0,0.9-0.1,1.2-0.3C211.4,102.9,211.5,102.6,211.5,102.3z"/>
		<path class="st1" d="M214.4,100.4c0-1.2,0.3-2.1,1-2.9c0.6-0.8,1.5-1.1,2.6-1.1c1.1,0,2,0.4,2.6,1.1c0.6,0.8,1,1.7,1,2.9v0.2
			c0,1.2-0.3,2.1-1,2.9s-1.5,1.1-2.6,1.1s-2-0.4-2.6-1.1c-0.6-0.8-1-1.7-1-2.9V100.4z M215.9,100.5c0,0.8,0.2,1.5,0.5,2.1
			c0.4,0.5,0.9,0.8,1.6,0.8c0.7,0,1.2-0.3,1.6-0.8s0.5-1.2,0.5-2.1v-0.2c0-0.8-0.2-1.5-0.5-2.1c-0.4-0.6-0.9-0.8-1.6-0.8
			c-0.7,0-1.2,0.3-1.6,0.8c-0.4,0.6-0.5,1.2-0.5,2.1V100.5z"/>
		<path class="st1" d="M224.6,96.5l0.1,1.2c0.3-0.4,0.6-0.7,1-1c0.4-0.2,0.9-0.3,1.4-0.3c0.9,0,1.5,0.3,2,0.8s0.7,1.3,0.7,2.3v5
			h-1.4v-5c0-0.7-0.1-1.2-0.4-1.5s-0.7-0.4-1.3-0.4c-0.4,0-0.8,0.1-1.1,0.3c-0.3,0.2-0.6,0.4-0.7,0.8v5.9h-1.4v-7.9H224.6z"/>
		<path class="st1" d="M236.7,104.4c0-0.2-0.1-0.5-0.1-0.6c0-0.2,0-0.4,0-0.6c-0.3,0.4-0.6,0.7-1.1,1c-0.4,0.3-0.9,0.4-1.4,0.4
			c-0.8,0-1.5-0.2-1.9-0.6c-0.4-0.4-0.6-1-0.6-1.7c0-0.8,0.3-1.3,0.9-1.8c0.6-0.4,1.4-0.6,2.5-0.6h1.6V99c0-0.5-0.1-0.8-0.4-1.1
			c-0.3-0.3-0.7-0.4-1.2-0.4c-0.5,0-0.8,0.1-1.1,0.4s-0.4,0.5-0.4,0.8l-1.4,0l0,0c0-0.6,0.2-1.1,0.8-1.6s1.3-0.7,2.2-0.7
			c0.9,0,1.6,0.2,2.2,0.7c0.5,0.5,0.8,1.1,0.8,2v3.8c0,0.3,0,0.6,0,0.8s0.1,0.5,0.2,0.8H236.7z M234.3,103.3c0.5,0,1-0.1,1.4-0.4
			s0.7-0.6,0.8-0.9v-1.3h-1.6c-0.6,0-1,0.1-1.4,0.4c-0.3,0.3-0.5,0.6-0.5,1c0,0.4,0.1,0.6,0.3,0.8S233.9,103.3,234.3,103.3z"/>
		<path class="st1" d="M241.6,104.4h-1.4V93h1.4V104.4z"/>
		<path class="st1" d="M245.4,94.4H244V93h1.4V94.4z M245.4,104.4H244v-7.9h1.4V104.4z"/>
		<path class="st1" d="M247.3,100.6c0-1.3,0.3-2.3,0.8-3.1s1.3-1.2,2.3-1.2c0.5,0,0.9,0.1,1.2,0.3c0.4,0.2,0.7,0.4,0.9,0.7V93h1.4
			v11.4h-1.1l-0.2-1c-0.3,0.4-0.6,0.7-1,0.9s-0.8,0.3-1.3,0.3c-1,0-1.7-0.4-2.3-1.1c-0.5-0.7-0.8-1.6-0.8-2.8V100.6z M248.7,100.7
			c0,0.8,0.2,1.4,0.5,1.9s0.8,0.7,1.5,0.7c0.4,0,0.8-0.1,1.1-0.3s0.5-0.5,0.7-0.8v-3.7c-0.2-0.3-0.4-0.6-0.7-0.8
			c-0.3-0.2-0.7-0.3-1.1-0.3c-0.7,0-1.2,0.3-1.5,0.9c-0.3,0.6-0.5,1.3-0.5,2.2V100.7z"/>
		<path class="st1" d="M261,104.4c0-0.2-0.1-0.5-0.1-0.6c0-0.2,0-0.4,0-0.6c-0.3,0.4-0.6,0.7-1.1,1c-0.4,0.3-0.9,0.4-1.4,0.4
			c-0.8,0-1.5-0.2-1.9-0.6c-0.4-0.4-0.6-1-0.6-1.7c0-0.8,0.3-1.3,0.9-1.8c0.6-0.4,1.4-0.6,2.5-0.6h1.6V99c0-0.5-0.1-0.8-0.4-1.1
			c-0.3-0.3-0.7-0.4-1.2-0.4c-0.5,0-0.8,0.1-1.1,0.4s-0.4,0.5-0.4,0.8l-1.4,0l0,0c0-0.6,0.2-1.1,0.8-1.6s1.3-0.7,2.2-0.7
			c0.9,0,1.6,0.2,2.2,0.7c0.5,0.5,0.8,1.1,0.8,2v3.8c0,0.3,0,0.6,0,0.8s0.1,0.5,0.2,0.8H261z M258.6,103.3c0.5,0,1-0.1,1.4-0.4
			s0.7-0.6,0.8-0.9v-1.3h-1.6c-0.6,0-1,0.1-1.4,0.4c-0.3,0.3-0.5,0.6-0.5,1c0,0.4,0.1,0.6,0.3,0.8S258.2,103.3,258.6,103.3z"/>
		<path class="st1" d="M264.1,100.6c0-1.3,0.3-2.3,0.8-3.1s1.3-1.2,2.3-1.2c0.5,0,0.9,0.1,1.2,0.3c0.4,0.2,0.7,0.4,0.9,0.7V93h1.4
			v11.4h-1.1l-0.2-1c-0.3,0.4-0.6,0.7-1,0.9s-0.8,0.3-1.3,0.3c-1,0-1.7-0.4-2.3-1.1c-0.5-0.7-0.8-1.6-0.8-2.8V100.6z M265.5,100.7
			c0,0.8,0.2,1.4,0.5,1.9s0.8,0.7,1.5,0.7c0.4,0,0.8-0.1,1.1-0.3s0.5-0.5,0.7-0.8v-3.7c-0.2-0.3-0.4-0.6-0.7-0.8
			c-0.3-0.2-0.7-0.3-1.1-0.3c-0.7,0-1.2,0.3-1.5,0.9c-0.3,0.6-0.5,1.3-0.5,2.2V100.7z"/>
		<path class="st1" d="M276.2,104.5c-1.1,0-2-0.4-2.7-1.1c-0.6-0.7-1-1.7-1-2.9v-0.3c0-1.1,0.3-2.1,1-2.8s1.5-1.1,2.4-1.1
			c1.1,0,1.9,0.3,2.4,1s0.8,1.5,0.8,2.6v0.8h-5.1l0,0c0,0.8,0.2,1.4,0.5,1.9c0.4,0.5,0.9,0.7,1.6,0.7c0.5,0,0.9-0.1,1.3-0.2
			c0.4-0.1,0.7-0.3,0.9-0.6l0.6,0.9c-0.3,0.3-0.7,0.5-1.1,0.7C277.4,104.4,276.9,104.5,276.2,104.5z M276,97.5
			c-0.5,0-0.9,0.2-1.2,0.6c-0.3,0.4-0.5,0.9-0.6,1.5l0,0h3.6v-0.1c0-0.6-0.1-1.1-0.4-1.4S276.6,97.5,276,97.5z"/>
	</g>
	<g>
		<path class="st1" d="M634.4,65.6h-4.1l-0.9,2.8h-2.7l4.3-12.8h2.6l4.3,12.8h-2.7L634.4,65.6z M630.9,63.6h2.9l-1.4-4.5h-0.1
			L630.9,63.6z"/>
		<path class="st1" d="M641,58.9l0.1,1.3c0.3-0.5,0.7-0.8,1.1-1.1s1-0.4,1.6-0.4c0.6,0,1.1,0.1,1.6,0.4s0.8,0.7,1,1.2
			c0.3-0.5,0.7-0.9,1.1-1.2s1-0.4,1.7-0.4c0.9,0,1.7,0.3,2.2,1s0.8,1.7,0.8,3v5.6h-2.6v-5.7c0-0.8-0.1-1.3-0.4-1.6s-0.6-0.4-1-0.4
			c-0.4,0-0.7,0.1-0.9,0.2s-0.5,0.4-0.6,0.7c0,0.1,0,0.2,0,0.3s0,0.2,0,0.2v6.2h-2.6v-5.7c0-0.7-0.1-1.3-0.4-1.6s-0.6-0.5-1.1-0.5
			c-0.3,0-0.6,0.1-0.9,0.2s-0.5,0.3-0.6,0.6v6.9h-2.6v-9.5H641z"/>
		<path class="st1" d="M662.7,63.9c0,1.4-0.3,2.6-0.9,3.4s-1.5,1.3-2.7,1.3c-0.6,0-1-0.1-1.5-0.4s-0.8-0.6-1-1l-0.2,1.2h-2.2V54.7
			h2.6v5.2c0.3-0.4,0.6-0.7,1-0.9s0.8-0.3,1.3-0.3c1.2,0,2.1,0.5,2.8,1.4s0.9,2.1,0.9,3.6V63.9z M660.2,63.7c0-0.9-0.1-1.7-0.4-2.2
			s-0.7-0.8-1.4-0.8c-0.4,0-0.7,0.1-1,0.3s-0.5,0.4-0.7,0.7v4c0.2,0.3,0.4,0.5,0.7,0.7s0.6,0.2,1,0.2c0.7,0,1.1-0.2,1.4-0.7
			s0.4-1.1,0.4-2V63.7z"/>
		<path class="st1" d="M667,56.6h-2.6v-1.9h2.6V56.6z M667,68.4h-2.6v-9.5h2.6V68.4z"/>
		<path class="st1" d="M673.2,68.6c-1.4,0-2.5-0.4-3.3-1.3s-1.2-2-1.2-3.4v-0.4c0-1.4,0.4-2.6,1.2-3.5s1.8-1.4,3.2-1.4
			c1.3,0,2.3,0.4,2.9,1.2s1,1.8,1,3.2v1.3h-5.7l0,0.1c0,0.7,0.2,1.2,0.6,1.6s0.9,0.6,1.6,0.6c0.6,0,1.1-0.1,1.5-0.2s0.8-0.3,1.2-0.5
			l0.7,1.6c-0.4,0.3-0.9,0.6-1.5,0.8S674,68.6,673.2,68.6z M673.1,60.7c-0.5,0-0.9,0.2-1.2,0.5s-0.4,0.8-0.5,1.4l0,0h3.1v-0.2
			c0-0.6-0.1-1-0.3-1.3S673.6,60.7,673.1,60.7z"/>
		<path class="st1" d="M680.9,58.9l0.1,1.4c0.3-0.5,0.7-0.9,1.2-1.1s1-0.4,1.6-0.4c1,0,1.7,0.3,2.2,0.9s0.8,1.6,0.8,2.9v5.8h-2.6
			v-5.8c0-0.7-0.1-1.2-0.4-1.4s-0.6-0.4-1.1-0.4c-0.4,0-0.7,0.1-1,0.2s-0.5,0.3-0.7,0.6v6.9h-2.6v-9.5H680.9z"/>
		<path class="st1" d="M691.8,56.6v2.3h1.6v1.8h-1.6v4.8c0,0.4,0.1,0.6,0.2,0.8s0.4,0.2,0.6,0.2c0.1,0,0.3,0,0.4,0s0.2,0,0.3-0.1
			l0.2,1.9c-0.3,0.1-0.5,0.2-0.8,0.2s-0.5,0.1-0.8,0.1c-0.9,0-1.6-0.2-2-0.7s-0.7-1.3-0.7-2.3v-4.9h-1.4v-1.8h1.4v-2.3H691.8z"/>
		<path class="st1" d="M700.6,68.4c-0.1-0.2-0.2-0.4-0.2-0.7s-0.1-0.5-0.1-0.7c-0.3,0.5-0.6,0.8-1,1.2s-0.9,0.5-1.5,0.5
			c-1,0-1.8-0.3-2.3-0.8s-0.8-1.2-0.8-2.1c0-0.9,0.4-1.7,1.1-2.2s1.8-0.8,3.1-0.8h1.4V62c0-0.5-0.1-0.8-0.4-1.1s-0.6-0.4-1.1-0.4
			c-0.4,0-0.7,0.1-1,0.3s-0.3,0.5-0.3,0.8h-2.5l0-0.1c0-0.8,0.3-1.5,1.1-2.1s1.7-0.9,2.9-0.9c1.1,0,2.1,0.3,2.8,0.9s1.1,1.4,1.1,2.5
			V66c0,0.4,0,0.9,0.1,1.3s0.2,0.8,0.3,1.2H700.6z M698.2,66.7c0.4,0,0.8-0.1,1.2-0.3s0.6-0.5,0.7-0.8v-1.3h-1.4
			c-0.5,0-1,0.1-1.2,0.4s-0.4,0.6-0.4,1c0,0.3,0.1,0.6,0.3,0.8S697.8,66.7,698.2,66.7z"/>
		<path class="st1" d="M707.3,68.4h-2.6V54.7h2.6V68.4z"/>
		<path class="st1" d="M542,81.4h-4.4v3.8h5.1v1.1h-6.6V75.7h6.5v1.1h-5v3.4h4.4V81.4z"/>
		<path class="st1" d="M543.8,82.6c0-1.3,0.3-2.3,0.8-3.1s1.3-1.2,2.3-1.2c0.5,0,0.9,0.1,1.3,0.3c0.4,0.2,0.7,0.4,0.9,0.8l0.2-0.9
			h1.1v11H549v-3.8c-0.3,0.3-0.6,0.5-0.9,0.7s-0.7,0.2-1.2,0.2c-1,0-1.7-0.4-2.3-1.1c-0.5-0.7-0.8-1.6-0.8-2.8V82.6z M545.3,82.7
			c0,0.8,0.2,1.4,0.5,1.9c0.3,0.5,0.8,0.7,1.5,0.7c0.4,0,0.7-0.1,1-0.3c0.3-0.2,0.5-0.4,0.7-0.7v-4c-0.2-0.3-0.4-0.5-0.7-0.7
			c-0.3-0.2-0.6-0.3-1-0.3c-0.7,0-1.2,0.3-1.5,0.9s-0.5,1.3-0.5,2.2V82.7z"/>
		<path class="st1" d="M557.7,85.2c-0.2,0.4-0.6,0.8-1,1s-0.8,0.3-1.4,0.3c-0.9,0-1.5-0.3-2-0.8s-0.7-1.4-0.7-2.6v-4.7h1.4v4.7
			c0,0.8,0.1,1.4,0.4,1.7c0.2,0.3,0.6,0.5,1.2,0.5c0.5,0,0.9-0.1,1.3-0.3s0.6-0.5,0.8-0.9v-5.7h1.4v7.9h-1.3L557.7,85.2z"/>
		<path class="st1" d="M562.8,76.4h-1.4V75h1.4V76.4z M562.8,86.4h-1.4v-7.9h1.4V86.4z"/>
		<path class="st1" d="M571.7,82.7c0,1.1-0.3,2.1-0.8,2.8c-0.5,0.7-1.3,1.1-2.3,1.1c-0.5,0-0.9-0.1-1.3-0.2
			c-0.4-0.2-0.7-0.4-0.9-0.7v3.9H565v-11h1.1l0.2,1c0.3-0.4,0.6-0.7,1-0.9c0.4-0.2,0.8-0.3,1.3-0.3c1,0,1.7,0.4,2.3,1.2
			c0.5,0.8,0.8,1.8,0.8,3.1V82.7z M570.3,82.6c0-0.9-0.2-1.6-0.5-2.2c-0.4-0.6-0.9-0.9-1.6-0.9c-0.4,0-0.8,0.1-1.1,0.3
			s-0.5,0.4-0.7,0.8v3.8c0.2,0.3,0.4,0.6,0.7,0.8c0.3,0.2,0.7,0.3,1.1,0.3c0.7,0,1.2-0.2,1.6-0.8s0.5-1.1,0.5-1.9V82.6z"/>
		<path class="st1" d="M578.4,86.4c0-0.2-0.1-0.5-0.1-0.6c0-0.2,0-0.4,0-0.6c-0.3,0.4-0.6,0.7-1.1,1c-0.4,0.3-0.9,0.4-1.4,0.4
			c-0.8,0-1.5-0.2-1.9-0.6c-0.4-0.4-0.6-1-0.6-1.7c0-0.8,0.3-1.3,0.9-1.8c0.6-0.4,1.4-0.6,2.5-0.6h1.6V81c0-0.5-0.1-0.8-0.4-1.1
			c-0.3-0.3-0.7-0.4-1.2-0.4c-0.5,0-0.8,0.1-1.1,0.4c-0.3,0.2-0.4,0.5-0.4,0.8l-1.4,0l0,0c0-0.6,0.2-1.1,0.8-1.6s1.3-0.7,2.2-0.7
			c0.9,0,1.6,0.2,2.2,0.7c0.5,0.5,0.8,1.1,0.8,2v3.8c0,0.3,0,0.6,0,0.8s0.1,0.5,0.2,0.8H578.4z M576,85.3c0.5,0,1-0.1,1.4-0.4
			s0.7-0.6,0.8-0.9v-1.3h-1.6c-0.6,0-1,0.1-1.4,0.4c-0.3,0.3-0.5,0.6-0.5,1c0,0.4,0.1,0.6,0.3,0.8S575.6,85.3,576,85.3z"/>
		<path class="st1" d="M583,78.5l0.1,1c0.3-0.4,0.6-0.7,1-0.9s0.9-0.3,1.4-0.3s1,0.1,1.4,0.4c0.4,0.2,0.7,0.6,0.9,1.1
			c0.3-0.5,0.6-0.8,1-1.1c0.4-0.3,0.9-0.4,1.4-0.4c0.8,0,1.4,0.3,1.9,0.8c0.5,0.6,0.7,1.4,0.7,2.5v4.7h-1.4v-4.8
			c0-0.8-0.1-1.3-0.4-1.7c-0.3-0.3-0.7-0.5-1.2-0.5c-0.5,0-0.9,0.2-1.2,0.5s-0.5,0.8-0.5,1.3v0.1v5h-1.5v-4.8c0-0.7-0.1-1.3-0.4-1.6
			c-0.3-0.3-0.7-0.5-1.2-0.5c-0.4,0-0.8,0.1-1.1,0.3s-0.5,0.4-0.7,0.8v5.9h-1.4v-7.9H583z"/>
		<path class="st1" d="M598.1,86.5c-1.1,0-2-0.4-2.7-1.1c-0.6-0.7-1-1.7-1-2.9v-0.3c0-1.1,0.3-2.1,1-2.8s1.5-1.1,2.4-1.1
			c1.1,0,1.9,0.3,2.4,1s0.8,1.5,0.8,2.6v0.8H596l0,0c0,0.8,0.2,1.4,0.5,1.9c0.4,0.5,0.9,0.7,1.6,0.7c0.5,0,0.9-0.1,1.3-0.2
			c0.4-0.1,0.7-0.3,0.9-0.6l0.6,0.9c-0.3,0.3-0.7,0.5-1.1,0.7C599.4,86.4,598.8,86.5,598.1,86.5z M597.9,79.5
			c-0.5,0-0.9,0.2-1.2,0.6c-0.3,0.4-0.5,0.9-0.6,1.5l0,0h3.6v-0.1c0-0.6-0.1-1.1-0.4-1.4S598.5,79.5,597.9,79.5z"/>
		<path class="st1" d="M604,78.5l0.1,1.2c0.3-0.4,0.6-0.7,1-1c0.4-0.2,0.9-0.3,1.4-0.3c0.9,0,1.5,0.3,2,0.8s0.7,1.3,0.7,2.3v5h-1.4
			v-5c0-0.7-0.1-1.2-0.4-1.5s-0.7-0.4-1.3-0.4c-0.4,0-0.8,0.1-1.1,0.3c-0.3,0.2-0.6,0.4-0.7,0.8v5.9h-1.4v-7.9H604z"/>
		<path class="st1" d="M613.2,76.6v1.9h1.5v1.1h-1.5v4.8c0,0.4,0.1,0.6,0.2,0.8c0.2,0.2,0.4,0.2,0.6,0.2c0.1,0,0.2,0,0.3,0
			c0.1,0,0.2,0,0.3-0.1l0.2,1c-0.1,0.1-0.3,0.2-0.5,0.2c-0.2,0.1-0.4,0.1-0.6,0.1c-0.6,0-1.1-0.2-1.4-0.5c-0.3-0.4-0.5-0.9-0.5-1.7
			v-4.8h-1.3v-1.1h1.3v-1.9H613.2z"/>
		<path class="st1" d="M616,82.4c0-1.2,0.3-2.1,1-2.9c0.6-0.8,1.5-1.1,2.6-1.1c1.1,0,2,0.4,2.6,1.1c0.6,0.8,1,1.7,1,2.9v0.2
			c0,1.2-0.3,2.1-1,2.9s-1.5,1.1-2.6,1.1s-2-0.4-2.6-1.1c-0.6-0.8-1-1.7-1-2.9V82.4z M617.4,82.5c0,0.8,0.2,1.5,0.5,2.1
			c0.4,0.5,0.9,0.8,1.6,0.8c0.7,0,1.2-0.3,1.6-0.8s0.5-1.2,0.5-2.1v-0.2c0-0.8-0.2-1.5-0.5-2.1c-0.4-0.6-0.9-0.8-1.6-0.8
			c-0.7,0-1.2,0.3-1.6,0.8c-0.4,0.6-0.5,1.2-0.5,2.1V82.5z"/>
		<path class="st1" d="M629.4,84.3c0-0.3-0.1-0.6-0.4-0.8c-0.2-0.2-0.7-0.4-1.4-0.5c-0.9-0.2-1.7-0.5-2.2-0.8s-0.8-0.8-0.8-1.5
			c0-0.6,0.3-1.2,0.8-1.7c0.5-0.5,1.3-0.7,2.1-0.7c0.9,0,1.6,0.2,2.2,0.7s0.8,1.1,0.8,1.7l0,0h-1.4c0-0.3-0.2-0.7-0.5-0.9
			c-0.3-0.3-0.7-0.4-1.1-0.4c-0.5,0-0.9,0.1-1.1,0.3s-0.4,0.5-0.4,0.8c0,0.3,0.1,0.6,0.3,0.7c0.2,0.2,0.7,0.3,1.3,0.5
			c1,0.2,1.7,0.5,2.2,0.9s0.8,0.9,0.8,1.5c0,0.7-0.3,1.3-0.9,1.7c-0.6,0.4-1.3,0.7-2.2,0.7c-1,0-1.8-0.3-2.4-0.8s-0.9-1.1-0.8-1.8
			l0,0h1.4c0,0.5,0.2,0.9,0.6,1.1c0.4,0.2,0.8,0.4,1.3,0.4c0.5,0,0.9-0.1,1.2-0.3C629.3,84.9,629.4,84.6,629.4,84.3z"/>
		<path class="st1" d="M633.9,86l-1.1,2.2H632l0.5-2.3v-1.2h1.4V86z"/>
		<path class="st1" d="M645.5,81.7H641v4.7h-1.4V75.7h6.7v1.1H641v3.7h4.5V81.7z"/>
		<path class="st1" d="M650.8,86.5c-1.1,0-2-0.4-2.7-1.1c-0.6-0.7-1-1.7-1-2.9v-0.3c0-1.1,0.3-2.1,1-2.8c0.7-0.7,1.5-1.1,2.4-1.1
			c1.1,0,1.9,0.3,2.4,1c0.5,0.7,0.8,1.5,0.8,2.6v0.8h-5.1l0,0c0,0.8,0.2,1.4,0.5,1.9c0.4,0.5,0.9,0.7,1.6,0.7c0.5,0,0.9-0.1,1.3-0.2
			c0.4-0.1,0.7-0.3,0.9-0.6l0.6,0.9c-0.3,0.3-0.7,0.5-1.1,0.7C652,86.4,651.4,86.5,650.8,86.5z M650.5,79.5c-0.5,0-0.9,0.2-1.2,0.6
			c-0.3,0.4-0.5,0.9-0.6,1.5l0,0h3.6v-0.1c0-0.6-0.1-1.1-0.4-1.4S651.1,79.5,650.5,79.5z"/>
		<path class="st1" d="M659.1,79.7l-0.7,0c-0.4,0-0.7,0.1-1,0.3c-0.3,0.2-0.5,0.4-0.6,0.8v5.7h-1.4v-7.9h1.3l0.1,1.2
			c0.2-0.4,0.5-0.7,0.8-1c0.3-0.2,0.7-0.3,1.1-0.3c0.1,0,0.2,0,0.3,0c0.1,0,0.2,0,0.2,0.1L659.1,79.7z"/>
		<path class="st1" d="M664.3,79.7l-0.7,0c-0.4,0-0.7,0.1-1,0.3c-0.3,0.2-0.5,0.4-0.6,0.8v5.7h-1.4v-7.9h1.3l0.1,1.2
			c0.2-0.4,0.5-0.7,0.8-1c0.3-0.2,0.7-0.3,1.1-0.3c0.1,0,0.2,0,0.3,0c0.1,0,0.2,0,0.2,0.1L664.3,79.7z"/>
		<path class="st1" d="M670.7,86.4c0-0.2-0.1-0.5-0.1-0.6c0-0.2,0-0.4,0-0.6c-0.3,0.4-0.6,0.7-1.1,1c-0.4,0.3-0.9,0.4-1.4,0.4
			c-0.8,0-1.5-0.2-1.9-0.6s-0.6-1-0.6-1.7c0-0.8,0.3-1.3,0.9-1.8c0.6-0.4,1.4-0.6,2.5-0.6h1.6V81c0-0.5-0.1-0.8-0.4-1.1
			c-0.3-0.3-0.7-0.4-1.2-0.4c-0.5,0-0.8,0.1-1.1,0.4s-0.4,0.5-0.4,0.8l-1.4,0l0,0c0-0.6,0.2-1.1,0.8-1.6c0.6-0.5,1.3-0.7,2.2-0.7
			c0.9,0,1.6,0.2,2.2,0.7c0.5,0.5,0.8,1.1,0.8,2v3.8c0,0.3,0,0.6,0,0.8s0.1,0.5,0.2,0.8H670.7z M668.3,85.3c0.5,0,1-0.1,1.4-0.4
			s0.7-0.6,0.8-0.9v-1.3h-1.6c-0.6,0-1,0.1-1.4,0.4s-0.5,0.6-0.5,1c0,0.4,0.1,0.6,0.3,0.8C667.6,85.2,667.9,85.3,668.3,85.3z"/>
		<path class="st1" d="M675.4,78.5l0.1,1c0.3-0.4,0.6-0.7,1-0.9c0.4-0.2,0.9-0.3,1.4-0.3s1,0.1,1.4,0.4c0.4,0.2,0.7,0.6,0.9,1.1
			c0.3-0.5,0.6-0.8,1-1.1c0.4-0.3,0.9-0.4,1.4-0.4c0.8,0,1.4,0.3,1.9,0.8c0.5,0.6,0.7,1.4,0.7,2.5v4.7h-1.4v-4.8
			c0-0.8-0.1-1.3-0.4-1.7s-0.7-0.5-1.2-0.5c-0.5,0-0.9,0.2-1.2,0.5c-0.3,0.3-0.5,0.8-0.5,1.3v0.1v5h-1.5v-4.8c0-0.7-0.1-1.3-0.4-1.6
			c-0.3-0.3-0.7-0.5-1.2-0.5c-0.4,0-0.8,0.1-1.1,0.3s-0.5,0.4-0.7,0.8v5.9h-1.4v-7.9H675.4z"/>
		<path class="st1" d="M690.5,86.5c-1.1,0-2-0.4-2.7-1.1s-1-1.7-1-2.9v-0.3c0-1.1,0.3-2.1,1-2.8c0.7-0.7,1.5-1.1,2.4-1.1
			c1.1,0,1.9,0.3,2.4,1c0.5,0.7,0.8,1.5,0.8,2.6v0.8h-5.1l0,0c0,0.8,0.2,1.4,0.5,1.9c0.4,0.5,0.9,0.7,1.6,0.7c0.5,0,0.9-0.1,1.3-0.2
			c0.4-0.1,0.7-0.3,0.9-0.6l0.6,0.9c-0.3,0.3-0.7,0.5-1.1,0.7C691.7,86.4,691.1,86.5,690.5,86.5z M690.2,79.5
			c-0.5,0-0.9,0.2-1.2,0.6c-0.3,0.4-0.5,0.9-0.6,1.5l0,0h3.6v-0.1c0-0.6-0.1-1.1-0.4-1.4S690.8,79.5,690.2,79.5z"/>
		<path class="st1" d="M696.3,78.5l0.1,1.2c0.3-0.4,0.6-0.7,1-1c0.4-0.2,0.8-0.3,1.4-0.3c0.9,0,1.5,0.3,2,0.8s0.7,1.3,0.7,2.3v5H700
			v-5c0-0.7-0.1-1.2-0.4-1.5c-0.3-0.3-0.7-0.4-1.3-0.4c-0.4,0-0.8,0.1-1.1,0.3c-0.3,0.2-0.6,0.4-0.7,0.8v5.9H695v-7.9H696.3z"/>
		<path class="st1" d="M705.6,76.6v1.9h1.5v1.1h-1.5v4.8c0,0.4,0.1,0.6,0.2,0.8c0.2,0.2,0.4,0.2,0.6,0.2c0.1,0,0.2,0,0.3,0
			c0.1,0,0.2,0,0.3-0.1l0.2,1c-0.1,0.1-0.3,0.2-0.5,0.2s-0.4,0.1-0.6,0.1c-0.6,0-1.1-0.2-1.4-0.5s-0.5-0.9-0.5-1.7v-4.8h-1.3v-1.1
			h1.3v-1.9H705.6z"/>
		<path class="st1" d="M713.5,86.4c0-0.2-0.1-0.5-0.1-0.6c0-0.2,0-0.4,0-0.6c-0.3,0.4-0.6,0.7-1.1,1c-0.4,0.3-0.9,0.4-1.4,0.4
			c-0.8,0-1.5-0.2-1.9-0.6c-0.4-0.4-0.6-1-0.6-1.7c0-0.8,0.3-1.3,0.9-1.8c0.6-0.4,1.4-0.6,2.5-0.6h1.6V81c0-0.5-0.1-0.8-0.4-1.1
			c-0.3-0.3-0.7-0.4-1.2-0.4c-0.5,0-0.8,0.1-1.1,0.4s-0.4,0.5-0.4,0.8l-1.4,0l0,0c0-0.6,0.2-1.1,0.8-1.6c0.6-0.5,1.3-0.7,2.2-0.7
			c0.9,0,1.6,0.2,2.2,0.7c0.5,0.5,0.8,1.1,0.8,2v3.8c0,0.3,0,0.6,0,0.8s0.1,0.5,0.2,0.8H713.5z M711.1,85.3c0.5,0,1-0.1,1.4-0.4
			s0.7-0.6,0.8-0.9v-1.3h-1.6c-0.6,0-1,0.1-1.4,0.4c-0.3,0.3-0.5,0.6-0.5,1c0,0.4,0.1,0.6,0.3,0.8C710.3,85.2,710.7,85.3,711.1,85.3
			z"/>
		<path class="st1" d="M721.5,84.3c0-0.3-0.1-0.6-0.4-0.8s-0.7-0.4-1.4-0.5c-0.9-0.2-1.6-0.5-2.2-0.8c-0.5-0.4-0.8-0.8-0.8-1.5
			c0-0.6,0.3-1.2,0.8-1.7s1.3-0.7,2.1-0.7c0.9,0,1.6,0.2,2.2,0.7s0.8,1.1,0.8,1.7l0,0h-1.4c0-0.3-0.2-0.7-0.5-0.9s-0.7-0.4-1.1-0.4
			c-0.5,0-0.9,0.1-1.1,0.3c-0.3,0.2-0.4,0.5-0.4,0.8c0,0.3,0.1,0.6,0.3,0.7c0.2,0.2,0.7,0.3,1.3,0.5c1,0.2,1.7,0.5,2.2,0.9
			c0.5,0.4,0.8,0.9,0.8,1.5c0,0.7-0.3,1.3-0.9,1.7c-0.6,0.4-1.3,0.7-2.2,0.7c-1,0-1.8-0.3-2.4-0.8c-0.6-0.5-0.9-1.1-0.8-1.8l0,0h1.4
			c0,0.5,0.2,0.9,0.6,1.1s0.8,0.4,1.3,0.4c0.5,0,0.9-0.1,1.2-0.3C721.3,84.9,721.5,84.6,721.5,84.3z"/>
		<path class="st1" d="M726,86l-1.1,2.2H724l0.5-2.3v-1.2h1.4V86z"/>
		<path class="st1" d="M736.9,84.4L736.9,84.4l3.4-8.7h1.8v10.7h-1.4v-8l0,0l-3.2,8h-1l-3.3-8.3l0,0v8.3h-1.4V75.7h1.9L736.9,84.4z"
			/>
		<path class="st1" d="M749.3,86.4c0-0.2-0.1-0.5-0.1-0.6c0-0.2,0-0.4,0-0.6c-0.3,0.4-0.6,0.7-1.1,1c-0.4,0.3-0.9,0.4-1.4,0.4
			c-0.8,0-1.5-0.2-1.9-0.6c-0.4-0.4-0.6-1-0.6-1.7c0-0.8,0.3-1.3,0.9-1.8c0.6-0.4,1.4-0.6,2.5-0.6h1.6V81c0-0.5-0.1-0.8-0.4-1.1
			c-0.3-0.3-0.7-0.4-1.2-0.4c-0.5,0-0.8,0.1-1.1,0.4c-0.3,0.2-0.4,0.5-0.4,0.8l-1.4,0l0,0c0-0.6,0.2-1.1,0.8-1.6s1.3-0.7,2.2-0.7
			c0.9,0,1.6,0.2,2.2,0.7c0.5,0.5,0.8,1.1,0.8,2v3.8c0,0.3,0,0.6,0,0.8s0.1,0.5,0.2,0.8H749.3z M746.9,85.3c0.5,0,1-0.1,1.4-0.4
			s0.7-0.6,0.8-0.9v-1.3h-1.6c-0.6,0-1,0.1-1.4,0.4c-0.3,0.3-0.5,0.6-0.5,1c0,0.4,0.1,0.6,0.3,0.8S746.5,85.3,746.9,85.3z
			 M748.1,75.1h1.7l0,0l-2,1.9h-1.1L748.1,75.1z"/>
		<path class="st1" d="M752.3,82.6c0-1.3,0.3-2.3,0.8-3.1s1.3-1.2,2.3-1.2c0.5,0,0.9,0.1,1.3,0.3c0.4,0.2,0.7,0.4,0.9,0.8l0.2-0.9
			h1.1v11h-1.4v-3.8c-0.3,0.3-0.6,0.5-0.9,0.7s-0.7,0.2-1.2,0.2c-1,0-1.7-0.4-2.3-1.1c-0.5-0.7-0.8-1.6-0.8-2.8V82.6z M753.8,82.7
			c0,0.8,0.2,1.4,0.5,1.9c0.3,0.5,0.8,0.7,1.5,0.7c0.4,0,0.7-0.1,1-0.3c0.3-0.2,0.5-0.4,0.7-0.7v-4c-0.2-0.3-0.4-0.5-0.7-0.7
			c-0.3-0.2-0.6-0.3-1-0.3c-0.7,0-1.2,0.3-1.5,0.9s-0.5,1.3-0.5,2.2V82.7z"/>
		<path class="st1" d="M766.2,85.2c-0.2,0.4-0.6,0.8-1,1s-0.8,0.3-1.4,0.3c-0.9,0-1.5-0.3-2-0.8s-0.7-1.4-0.7-2.6v-4.7h1.4v4.7
			c0,0.8,0.1,1.4,0.4,1.7c0.2,0.3,0.6,0.5,1.2,0.5c0.5,0,0.9-0.1,1.3-0.3s0.6-0.5,0.8-0.9v-5.7h1.4v7.9h-1.3L766.2,85.2z"/>
		<path class="st1" d="M771.3,76.4h-1.4V75h1.4V76.4z M771.3,86.4h-1.4v-7.9h1.4V86.4z"/>
		<path class="st1" d="M774.8,78.5l0.1,1.2c0.3-0.4,0.6-0.7,1-1c0.4-0.2,0.9-0.3,1.4-0.3c0.9,0,1.5,0.3,2,0.8s0.7,1.3,0.7,2.3v5
			h-1.4v-5c0-0.7-0.1-1.2-0.4-1.5s-0.7-0.4-1.3-0.4c-0.4,0-0.8,0.1-1.1,0.3c-0.3,0.2-0.6,0.4-0.7,0.8v5.9h-1.4v-7.9H774.8z"/>
		<path class="st1" d="M786.9,86.4c0-0.2-0.1-0.5-0.1-0.6c0-0.2,0-0.4,0-0.6c-0.3,0.4-0.6,0.7-1.1,1c-0.4,0.3-0.9,0.4-1.4,0.4
			c-0.8,0-1.5-0.2-1.9-0.6c-0.4-0.4-0.6-1-0.6-1.7c0-0.8,0.3-1.3,0.9-1.8c0.6-0.4,1.4-0.6,2.5-0.6h1.6V81c0-0.5-0.1-0.8-0.4-1.1
			c-0.3-0.3-0.7-0.4-1.2-0.4c-0.5,0-0.8,0.1-1.1,0.4c-0.3,0.2-0.4,0.5-0.4,0.8l-1.4,0l0,0c0-0.6,0.2-1.1,0.8-1.6s1.3-0.7,2.2-0.7
			c0.9,0,1.6,0.2,2.2,0.7c0.5,0.5,0.8,1.1,0.8,2v3.8c0,0.3,0,0.6,0,0.8s0.1,0.5,0.2,0.8H786.9z M784.5,85.3c0.5,0,1-0.1,1.4-0.4
			s0.7-0.6,0.8-0.9v-1.3h-1.6c-0.6,0-1,0.1-1.4,0.4c-0.3,0.3-0.5,0.6-0.5,1c0,0.4,0.1,0.6,0.3,0.8S784.1,85.3,784.5,85.3z"/>
		<path class="st1" d="M794.9,84.3c0-0.3-0.1-0.6-0.4-0.8c-0.2-0.2-0.7-0.4-1.4-0.5c-0.9-0.2-1.6-0.5-2.1-0.8s-0.8-0.8-0.8-1.5
			c0-0.6,0.3-1.2,0.8-1.7c0.5-0.5,1.3-0.7,2.1-0.7c0.9,0,1.6,0.2,2.2,0.7s0.8,1.1,0.8,1.7l0,0h-1.4c0-0.3-0.2-0.7-0.5-0.9
			c-0.3-0.3-0.7-0.4-1.1-0.4c-0.5,0-0.9,0.1-1.1,0.3s-0.4,0.5-0.4,0.8c0,0.3,0.1,0.6,0.3,0.7c0.2,0.2,0.7,0.3,1.3,0.5
			c1,0.2,1.7,0.5,2.2,0.9s0.8,0.9,0.8,1.5c0,0.7-0.3,1.3-0.9,1.7c-0.6,0.4-1.3,0.7-2.2,0.7c-1,0-1.8-0.3-2.4-0.8S790,84.7,790,84
			l0,0h1.4c0,0.5,0.2,0.9,0.6,1.1c0.4,0.2,0.8,0.4,1.3,0.4c0.5,0,0.9-0.1,1.2-0.3C794.7,84.9,794.9,84.6,794.9,84.3z"/>
		<path class="st1" d="M799.4,86l-1.1,2.2h-0.9l0.5-2.3v-1.2h1.4V86z"/>
		<path class="st1" d="M553.7,102.4L553.7,102.4l3.5-8.7h1.8v10.7h-1.4v-8l0,0l-3.2,8h-1l-3.3-8.3l0,0v8.3h-1.4V93.7h1.9
			L553.7,102.4z"/>
		<path class="st1" d="M566.1,104.4c0-0.2-0.1-0.5-0.1-0.6c0-0.2,0-0.4,0-0.6c-0.3,0.4-0.6,0.7-1.1,1c-0.4,0.3-0.9,0.4-1.4,0.4
			c-0.8,0-1.5-0.2-1.9-0.6s-0.6-1-0.6-1.7c0-0.8,0.3-1.3,0.9-1.8c0.6-0.4,1.4-0.6,2.5-0.6h1.6V99c0-0.5-0.1-0.8-0.4-1.1
			c-0.3-0.3-0.7-0.4-1.2-0.4c-0.5,0-0.8,0.1-1.1,0.4s-0.4,0.5-0.4,0.8l-1.4,0l0,0c0-0.6,0.2-1.1,0.8-1.6c0.6-0.5,1.3-0.7,2.2-0.7
			c0.9,0,1.6,0.2,2.2,0.7c0.5,0.5,0.8,1.1,0.8,2v3.8c0,0.3,0,0.6,0,0.8s0.1,0.5,0.2,0.8H566.1z M563.7,103.3c0.5,0,1-0.1,1.4-0.4
			s0.7-0.6,0.8-0.9v-1.3h-1.6c-0.6,0-1,0.1-1.4,0.4s-0.5,0.6-0.5,1c0,0.4,0.1,0.6,0.3,0.8C563,103.2,563.3,103.3,563.7,103.3z"/>
		<path class="st1" d="M570.8,96.5l0.1,1.2c0.3-0.4,0.6-0.7,1-1c0.4-0.2,0.9-0.3,1.4-0.3c0.9,0,1.5,0.3,2,0.8s0.7,1.3,0.7,2.3v5
			h-1.4v-5c0-0.7-0.1-1.2-0.4-1.5c-0.3-0.3-0.7-0.4-1.3-0.4c-0.4,0-0.8,0.1-1.1,0.3s-0.6,0.4-0.7,0.8v5.9h-1.4v-7.9H570.8z"/>
		<path class="st1" d="M583,103.2c-0.2,0.4-0.6,0.8-1,1s-0.8,0.3-1.4,0.3c-0.9,0-1.5-0.3-2-0.8c-0.5-0.6-0.7-1.4-0.7-2.6v-4.7h1.4
			v4.7c0,0.8,0.1,1.4,0.4,1.7s0.6,0.5,1.2,0.5c0.5,0,0.9-0.1,1.3-0.3c0.3-0.2,0.6-0.5,0.8-0.9v-5.7h1.4v7.9h-1.3L583,103.2z"/>
		<path class="st1" d="M588.5,94.6v1.9h1.5v1.1h-1.5v4.8c0,0.4,0.1,0.6,0.2,0.8s0.4,0.2,0.6,0.2c0.1,0,0.2,0,0.3,0
			c0.1,0,0.2,0,0.3-0.1l0.2,1c-0.1,0.1-0.3,0.2-0.5,0.2s-0.4,0.1-0.6,0.1c-0.6,0-1.1-0.2-1.4-0.5s-0.5-0.9-0.5-1.7v-4.8h-1.3v-1.1
			h1.3v-1.9H588.5z"/>
		<path class="st1" d="M594.9,104.5c-1.1,0-2-0.4-2.7-1.1s-1-1.7-1-2.9v-0.3c0-1.1,0.3-2.1,1-2.8c0.7-0.7,1.5-1.1,2.4-1.1
			c1.1,0,1.9,0.3,2.4,1c0.5,0.7,0.8,1.5,0.8,2.6v0.8h-5.1l0,0c0,0.8,0.2,1.4,0.5,1.9c0.4,0.5,0.9,0.7,1.6,0.7c0.5,0,0.9-0.1,1.3-0.2
			c0.4-0.1,0.7-0.3,0.9-0.6l0.6,0.9c-0.3,0.3-0.7,0.5-1.1,0.7C596.1,104.4,595.5,104.5,594.9,104.5z M594.6,97.5
			c-0.5,0-0.9,0.2-1.2,0.6c-0.3,0.4-0.5,0.9-0.6,1.5l0,0h3.6v-0.1c0-0.6-0.1-1.1-0.4-1.4S595.2,97.5,594.6,97.5z"/>
		<path class="st1" d="M600.7,96.5l0.1,1.2c0.3-0.4,0.6-0.7,1-1c0.4-0.2,0.8-0.3,1.4-0.3c0.9,0,1.5,0.3,2,0.8s0.7,1.3,0.7,2.3v5
			h-1.4v-5c0-0.7-0.1-1.2-0.4-1.5c-0.3-0.3-0.7-0.4-1.3-0.4c-0.4,0-0.8,0.1-1.1,0.3c-0.3,0.2-0.6,0.4-0.7,0.8v5.9h-1.4v-7.9H600.7z"
			/>
		<path class="st1" d="M611.1,103.4c0.4,0,0.8-0.1,1.2-0.4s0.5-0.7,0.5-1.1h1.3l0,0c0,0.7-0.3,1.3-0.9,1.8s-1.3,0.8-2.1,0.8
			c-1.1,0-2-0.4-2.6-1.1s-0.9-1.7-0.9-2.8v-0.3c0-1.1,0.3-2.1,0.9-2.8c0.6-0.8,1.5-1.1,2.6-1.1c0.9,0,1.6,0.3,2.2,0.8
			c0.6,0.5,0.8,1.2,0.8,2l0,0h-1.3c0-0.5-0.2-0.9-0.5-1.2s-0.7-0.5-1.2-0.5c-0.7,0-1.2,0.3-1.5,0.8c-0.3,0.5-0.5,1.2-0.5,2v0.3
			c0,0.8,0.2,1.5,0.5,2C609.9,103.1,610.4,103.4,611.1,103.4z M611.5,104.5l-0.1,0.4c0.3,0.1,0.6,0.2,0.8,0.4s0.3,0.5,0.3,0.9
			c0,0.5-0.2,0.8-0.6,1.1s-0.9,0.4-1.7,0.4l-0.1-0.8c0.4,0,0.6-0.1,0.8-0.2c0.2-0.1,0.3-0.3,0.3-0.5c0-0.2-0.1-0.4-0.3-0.5
			s-0.5-0.2-0.9-0.2l0.2-1H611.5z"/>
		<path class="st1" d="M620.7,104.4c0-0.2-0.1-0.5-0.1-0.6c0-0.2,0-0.4,0-0.6c-0.3,0.4-0.6,0.7-1.1,1c-0.4,0.3-0.9,0.4-1.4,0.4
			c-0.8,0-1.5-0.2-1.9-0.6s-0.6-1-0.6-1.7c0-0.8,0.3-1.3,0.9-1.8c0.6-0.4,1.4-0.6,2.5-0.6h1.6V99c0-0.5-0.1-0.8-0.4-1.1
			c-0.3-0.3-0.7-0.4-1.2-0.4c-0.5,0-0.8,0.1-1.1,0.4s-0.4,0.5-0.4,0.8l-1.4,0l0,0c0-0.6,0.2-1.1,0.8-1.6c0.6-0.5,1.3-0.7,2.2-0.7
			c0.9,0,1.6,0.2,2.2,0.7c0.5,0.5,0.8,1.1,0.8,2v3.8c0,0.3,0,0.6,0,0.8s0.1,0.5,0.2,0.8H620.7z M621.4,93.2c0,0.5-0.1,0.8-0.4,1.2
			s-0.7,0.5-1.1,0.5c-0.3,0-0.7-0.1-1.1-0.3c-0.4-0.2-0.7-0.3-0.9-0.3c-0.2,0-0.4,0.1-0.5,0.2c-0.1,0.2-0.2,0.4-0.2,0.6l-0.8-0.2
			c0-0.5,0.1-0.8,0.4-1.2s0.7-0.5,1.1-0.5c0.3,0,0.6,0.1,1,0.3s0.7,0.3,1,0.3c0.2,0,0.4-0.1,0.5-0.2c0.1-0.2,0.2-0.4,0.2-0.6
			L621.4,93.2z M618.3,103.3c0.5,0,1-0.1,1.4-0.4s0.7-0.6,0.8-0.9v-1.3h-1.6c-0.6,0-1,0.1-1.4,0.4s-0.5,0.6-0.5,1
			c0,0.4,0.1,0.6,0.3,0.8C617.5,103.2,617.9,103.3,618.3,103.3z"/>
		<path class="st1" d="M623.7,100.4c0-1.2,0.3-2.1,1-2.9c0.6-0.8,1.5-1.1,2.6-1.1c1.1,0,2,0.4,2.6,1.1c0.6,0.8,1,1.7,1,2.9v0.2
			c0,1.2-0.3,2.1-1,2.9s-1.5,1.1-2.6,1.1s-2-0.4-2.6-1.1c-0.6-0.8-1-1.7-1-2.9V100.4z M625.2,100.5c0,0.8,0.2,1.5,0.5,2.1
			c0.4,0.5,0.9,0.8,1.6,0.8c0.7,0,1.2-0.3,1.6-0.8c0.4-0.5,0.5-1.2,0.5-2.1v-0.2c0-0.8-0.2-1.5-0.5-2.1c-0.4-0.6-0.9-0.8-1.6-0.8
			c-0.7,0-1.2,0.3-1.6,0.8c-0.4,0.6-0.5,1.2-0.5,2.1V100.5z"/>
		<path class="st1" d="M633.8,104l-1.1,2.2h-0.9l0.5-2.3v-1.2h1.4V104z"/>
		<path class="st1" d="M647.1,101L647.1,101c0,1-0.3,1.9-1,2.6s-1.7,1-2.9,1c-1.2,0-2.2-0.4-2.9-1.3s-1.1-1.9-1.1-3.3v-1.9
			c0-1.3,0.4-2.4,1.1-3.3c0.8-0.9,1.7-1.3,2.9-1.3s2.2,0.3,2.9,1s1.1,1.5,1,2.6l0,0h-1.4c0-0.7-0.2-1.3-0.7-1.8s-1.1-0.7-1.9-0.7
			c-0.8,0-1.4,0.3-1.9,1s-0.7,1.5-0.7,2.4v1.9c0,1,0.2,1.8,0.7,2.4s1.1,1,1.9,1c0.8,0,1.4-0.2,1.9-0.6c0.4-0.4,0.7-1,0.7-1.8H647.1z
			"/>
		<path class="st1" d="M653.6,104.4c0-0.2-0.1-0.5-0.1-0.6c0-0.2,0-0.4,0-0.6c-0.3,0.4-0.6,0.7-1.1,1c-0.4,0.3-0.9,0.4-1.4,0.4
			c-0.8,0-1.5-0.2-1.9-0.6s-0.6-1-0.6-1.7c0-0.8,0.3-1.3,0.9-1.8c0.6-0.4,1.4-0.6,2.5-0.6h1.6V99c0-0.5-0.1-0.8-0.4-1.1
			c-0.3-0.3-0.7-0.4-1.2-0.4c-0.5,0-0.8,0.1-1.1,0.4s-0.4,0.5-0.4,0.8l-1.4,0l0,0c0-0.6,0.2-1.1,0.8-1.6c0.6-0.5,1.3-0.7,2.2-0.7
			c0.9,0,1.6,0.2,2.2,0.7c0.5,0.5,0.8,1.1,0.8,2v3.8c0,0.3,0,0.6,0,0.8s0.1,0.5,0.2,0.8H653.6z M651.3,103.3c0.5,0,1-0.1,1.4-0.4
			s0.7-0.6,0.8-0.9v-1.3h-1.6c-0.6,0-1,0.1-1.4,0.4s-0.5,0.6-0.5,1c0,0.4,0.1,0.6,0.3,0.8C650.5,103.2,650.8,103.3,651.3,103.3z"/>
		<path class="st1" d="M658.6,104.4h-1.4V93h1.4V104.4z"/>
		<path class="st1" d="M660.5,100.4c0-1.2,0.3-2.1,1-2.9c0.6-0.8,1.5-1.1,2.6-1.1c1.1,0,2,0.4,2.6,1.1c0.6,0.8,1,1.7,1,2.9v0.2
			c0,1.2-0.3,2.1-1,2.9s-1.5,1.1-2.6,1.1s-2-0.4-2.6-1.1c-0.6-0.8-1-1.7-1-2.9V100.4z M661.9,100.5c0,0.8,0.2,1.5,0.5,2.1
			c0.4,0.5,0.9,0.8,1.6,0.8c0.7,0,1.2-0.3,1.6-0.8c0.4-0.5,0.5-1.2,0.5-2.1v-0.2c0-0.8-0.2-1.5-0.5-2.1c-0.4-0.6-0.9-0.8-1.6-0.8
			c-0.7,0-1.2,0.3-1.6,0.8c-0.4,0.6-0.5,1.2-0.5,2.1V100.5z"/>
		<path class="st1" d="M673.1,97.7l-0.7,0c-0.4,0-0.7,0.1-1,0.3c-0.3,0.2-0.5,0.4-0.6,0.8v5.7h-1.4v-7.9h1.3l0.1,1.2
			c0.2-0.4,0.5-0.7,0.8-1c0.3-0.2,0.7-0.3,1.1-0.3c0.1,0,0.2,0,0.3,0c0.1,0,0.2,0,0.2,0.1L673.1,97.7z"/>
		<path class="st1" d="M674.9,105.3h-1.2l4.5-11.6h1.2L674.9,105.3z"/>
		<path class="st1" d="M686.9,99.7h-4.5v4.7H681V93.7h6.7v1.1h-5.2v3.7h4.5V99.7z"/>
		<path class="st1" d="M692.6,97.7l-0.7,0c-0.4,0-0.7,0.1-1,0.3c-0.3,0.2-0.5,0.4-0.6,0.8v5.7h-1.4v-7.9h1.3l0.1,1.2
			c0.2-0.4,0.5-0.7,0.8-1c0.3-0.2,0.7-0.3,1.1-0.3c0.1,0,0.2,0,0.3,0c0.1,0,0.2,0,0.2,0.1L692.6,97.7z"/>
		<path class="st1" d="M695.7,94.4h-1.4V93h1.4V94.4z M695.7,104.4h-1.4v-7.9h1.4V104.4z"/>
		<path class="st1" d="M697.6,100.4c0-1.2,0.3-2.1,1-2.9c0.6-0.8,1.5-1.1,2.6-1.1c1.1,0,2,0.4,2.6,1.1c0.6,0.8,1,1.7,1,2.9v0.2
			c0,1.2-0.3,2.1-1,2.9s-1.5,1.1-2.6,1.1s-2-0.4-2.6-1.1c-0.6-0.8-1-1.7-1-2.9V100.4z M699,100.5c0,0.8,0.2,1.5,0.5,2.1
			c0.4,0.5,0.9,0.8,1.6,0.8c0.7,0,1.2-0.3,1.6-0.8c0.4-0.5,0.5-1.2,0.5-2.1v-0.2c0-0.8-0.2-1.5-0.5-2.1c-0.4-0.6-0.9-0.8-1.6-0.8
			c-0.7,0-1.2,0.3-1.6,0.8c-0.4,0.6-0.5,1.2-0.5,2.1V100.5z"/>
		<path class="st1" d="M707.7,104l-1.1,2.2h-0.9l0.5-2.3v-1.2h1.4V104z"/>
		<path class="st1" d="M719.2,99.4h-4.4v3.8h5.1v1.1h-6.6V93.7h6.5v1.1h-5v3.4h4.4V99.4z"/>
		<path class="st1" d="M722.7,96.5l0.1,1.2c0.3-0.4,0.6-0.7,1-1c0.4-0.2,0.9-0.3,1.4-0.3c0.9,0,1.5,0.3,2,0.8s0.7,1.3,0.7,2.3v5
			h-1.4v-5c0-0.7-0.1-1.2-0.4-1.5s-0.7-0.4-1.3-0.4c-0.4,0-0.8,0.1-1.1,0.3c-0.3,0.2-0.6,0.4-0.7,0.8v5.9h-1.4v-7.9H722.7z"/>
		<path class="st1" d="M729.7,100.6c0-1.3,0.3-2.3,0.8-3.1s1.3-1.2,2.3-1.2c0.5,0,0.9,0.1,1.3,0.3c0.4,0.2,0.7,0.5,1,0.9l0.2-1h1.1
			v8c0,1-0.3,1.8-0.9,2.3c-0.6,0.5-1.4,0.8-2.6,0.8c-0.4,0-0.8-0.1-1.2-0.2s-0.8-0.2-1.2-0.4l0.2-1.1c0.3,0.1,0.6,0.3,1,0.4
			c0.4,0.1,0.8,0.1,1.2,0.1c0.7,0,1.2-0.2,1.5-0.5s0.5-0.8,0.5-1.5v-0.9c-0.3,0.3-0.6,0.6-0.9,0.8s-0.8,0.3-1.3,0.3
			c-1,0-1.7-0.4-2.3-1.1c-0.5-0.7-0.8-1.6-0.8-2.8V100.6z M731.1,100.7c0,0.8,0.2,1.4,0.5,1.9s0.8,0.7,1.5,0.7
			c0.4,0,0.8-0.1,1.1-0.3c0.3-0.2,0.5-0.5,0.7-0.8v-3.6c-0.2-0.3-0.4-0.6-0.7-0.8c-0.3-0.2-0.7-0.3-1.1-0.3c-0.7,0-1.2,0.3-1.5,0.9
			c-0.3,0.6-0.5,1.3-0.5,2.2V100.7z"/>
		<path class="st1" d="M741.7,104.5c-1.1,0-2-0.4-2.7-1.1c-0.6-0.7-1-1.7-1-2.9v-0.3c0-1.1,0.3-2.1,1-2.8s1.5-1.1,2.4-1.1
			c1.1,0,1.9,0.3,2.4,1s0.8,1.5,0.8,2.6v0.8h-5.1l0,0c0,0.8,0.2,1.4,0.5,1.9c0.4,0.5,0.9,0.7,1.6,0.7c0.5,0,0.9-0.1,1.3-0.2
			c0.4-0.1,0.7-0.3,0.9-0.6l0.6,0.9c-0.3,0.3-0.7,0.5-1.1,0.7C743,104.4,742.4,104.5,741.7,104.5z M741.5,97.5
			c-0.5,0-0.9,0.2-1.2,0.6c-0.3,0.4-0.5,0.9-0.6,1.5l0,0h3.6v-0.1c0-0.6-0.1-1.1-0.4-1.4S742.1,97.5,741.5,97.5z"/>
		<path class="st1" d="M747.6,96.5l0.1,1.2c0.3-0.4,0.6-0.7,1-1c0.4-0.2,0.9-0.3,1.4-0.3c0.9,0,1.5,0.3,2,0.8s0.7,1.3,0.7,2.3v5
			h-1.4v-5c0-0.7-0.1-1.2-0.4-1.5s-0.7-0.4-1.3-0.4c-0.4,0-0.8,0.1-1.1,0.3c-0.3,0.2-0.6,0.4-0.7,0.8v5.9h-1.4v-7.9H747.6z"/>
		<path class="st1" d="M756.3,97.5c0.3-0.4,0.6-0.7,1-0.9c0.4-0.2,0.8-0.3,1.3-0.3c0.8,0,1.5,0.3,2,0.8s0.7,1.3,0.7,2.3v5h-1.4v-5
			c0-0.7-0.1-1.1-0.4-1.5s-0.7-0.5-1.3-0.5c-0.4,0-0.8,0.1-1.1,0.3c-0.3,0.2-0.6,0.4-0.8,0.7v5.9h-1.4V93h1.4V97.5z"/>
		<path class="st1" d="M768.2,104.4c0-0.2-0.1-0.5-0.1-0.6c0-0.2,0-0.4,0-0.6c-0.3,0.4-0.6,0.7-1.1,1c-0.4,0.3-0.9,0.4-1.4,0.4
			c-0.8,0-1.5-0.2-1.9-0.6c-0.4-0.4-0.6-1-0.6-1.7c0-0.8,0.3-1.3,0.9-1.8c0.6-0.4,1.4-0.6,2.5-0.6h1.6V99c0-0.5-0.1-0.8-0.4-1.1
			c-0.3-0.3-0.7-0.4-1.2-0.4c-0.5,0-0.8,0.1-1.1,0.4c-0.3,0.2-0.4,0.5-0.4,0.8l-1.4,0l0,0c0-0.6,0.2-1.1,0.8-1.6s1.3-0.7,2.2-0.7
			c0.9,0,1.6,0.2,2.2,0.7c0.5,0.5,0.8,1.1,0.8,2v3.8c0,0.3,0,0.6,0,0.8s0.1,0.5,0.2,0.8H768.2z M765.8,103.3c0.5,0,1-0.1,1.4-0.4
			s0.7-0.6,0.8-0.9v-1.3h-1.6c-0.6,0-1,0.1-1.4,0.4c-0.3,0.3-0.5,0.6-0.5,1c0,0.4,0.1,0.6,0.3,0.8S765.4,103.3,765.8,103.3z"/>
		<path class="st1" d="M775.4,97.7l-0.7,0c-0.4,0-0.7,0.1-1,0.3c-0.3,0.2-0.5,0.4-0.6,0.8v5.7h-1.4v-7.9h1.3l0.1,1.2
			c0.2-0.4,0.5-0.7,0.8-1c0.3-0.2,0.7-0.3,1.1-0.3c0.1,0,0.2,0,0.3,0c0.1,0,0.2,0,0.2,0.1L775.4,97.7z"/>
		<path class="st1" d="M778.4,94.4H777V93h1.4V94.4z M778.4,104.4H777v-7.9h1.4V104.4z"/>
		<path class="st1" d="M785.5,104.4c0-0.2-0.1-0.5-0.1-0.6c0-0.2,0-0.4,0-0.6c-0.3,0.4-0.6,0.7-1.1,1c-0.4,0.3-0.9,0.4-1.4,0.4
			c-0.8,0-1.5-0.2-1.9-0.6s-0.6-1-0.6-1.7c0-0.8,0.3-1.3,0.9-1.8c0.6-0.4,1.4-0.6,2.5-0.6h1.6V99c0-0.5-0.1-0.8-0.4-1.1
			c-0.3-0.3-0.7-0.4-1.2-0.4c-0.5,0-0.8,0.1-1.1,0.4s-0.4,0.5-0.4,0.8l-1.4,0l0,0c0-0.6,0.2-1.1,0.8-1.6c0.6-0.5,1.3-0.7,2.2-0.7
			c0.9,0,1.6,0.2,2.2,0.7c0.5,0.5,0.8,1.1,0.8,2v3.8c0,0.3,0,0.6,0,0.8s0.1,0.5,0.2,0.8H785.5z M783.1,103.3c0.5,0,1-0.1,1.4-0.4
			s0.7-0.6,0.8-0.9v-1.3h-1.6c-0.6,0-1,0.1-1.4,0.4s-0.5,0.6-0.5,1c0,0.4,0.1,0.6,0.3,0.8C782.4,103.2,782.7,103.3,783.1,103.3z"/>
	</g>
	<g>
		<path class="st1" d="M351.4,225.2L351.4,225.2c0,1.4-0.4,2.5-1.2,3.3s-2,1.2-3.5,1.2c-1.5,0-2.8-0.5-3.7-1.5
			c-0.9-1-1.4-2.3-1.4-3.8v-2.5c0-1.6,0.5-2.8,1.4-3.8c0.9-1,2.1-1.5,3.6-1.5c1.6,0,2.8,0.4,3.7,1.1s1.3,1.8,1.3,3.2l0,0.1h-2.5
			c0-0.8-0.2-1.4-0.6-1.8c-0.4-0.4-1-0.6-1.8-0.6c-0.8,0-1.4,0.3-1.8,0.9c-0.4,0.6-0.6,1.4-0.6,2.4v2.6c0,1,0.2,1.8,0.7,2.4
			s1.1,0.9,1.9,0.9c0.8,0,1.3-0.2,1.7-0.6c0.4-0.4,0.6-1,0.6-1.8H351.4z"/>
		<path class="st1" d="M352.6,224.5c0-1.4,0.4-2.6,1.2-3.5c0.8-0.9,1.9-1.4,3.3-1.4c1.4,0,2.5,0.5,3.3,1.4s1.2,2.1,1.2,3.5v0.2
			c0,1.4-0.4,2.6-1.2,3.5c-0.8,0.9-1.9,1.3-3.3,1.3c-1.4,0-2.5-0.5-3.3-1.3c-0.8-0.9-1.2-2.1-1.2-3.5V224.5z M355.2,224.7
			c0,0.9,0.2,1.6,0.5,2.1c0.3,0.5,0.8,0.8,1.5,0.8c0.7,0,1.1-0.3,1.5-0.8s0.5-1.2,0.5-2.1v-0.2c0-0.8-0.2-1.5-0.5-2.1
			s-0.8-0.8-1.5-0.8c-0.7,0-1.1,0.3-1.5,0.8c-0.3,0.5-0.5,1.2-0.5,2.1V224.7z"/>
		<path class="st1" d="M365.6,219.9l0.1,1.3c0.3-0.5,0.7-0.8,1.1-1.1c0.5-0.2,1-0.4,1.6-0.4c0.6,0,1.1,0.1,1.6,0.4s0.8,0.7,1,1.2
			c0.3-0.5,0.7-0.9,1.1-1.2s1-0.4,1.7-0.4c0.9,0,1.7,0.3,2.2,1c0.5,0.7,0.8,1.7,0.8,3v5.6h-2.6v-5.7c0-0.8-0.1-1.3-0.4-1.6
			s-0.6-0.4-1-0.4c-0.4,0-0.7,0.1-0.9,0.2c-0.3,0.2-0.5,0.4-0.6,0.7c0,0.1,0,0.2,0,0.3c0,0.1,0,0.2,0,0.2v6.2h-2.6v-5.7
			c0-0.7-0.1-1.3-0.4-1.6c-0.2-0.3-0.6-0.5-1.1-0.5c-0.3,0-0.6,0.1-0.9,0.2c-0.3,0.1-0.5,0.3-0.6,0.6v6.9h-2.6v-9.5H365.6z"/>
		<path class="st1" d="M387.3,224.9c0,1.4-0.3,2.5-1,3.4s-1.6,1.3-2.7,1.3c-0.5,0-0.9-0.1-1.3-0.3c-0.4-0.2-0.7-0.5-1-0.8v4.6h-2.6
			v-13.2h2.3l0.1,1.1c0.3-0.4,0.6-0.7,1-1c0.4-0.2,0.9-0.3,1.4-0.3c1.2,0,2.1,0.5,2.7,1.4s1,2.1,1,3.6V224.9z M384.8,224.7
			c0-0.9-0.1-1.6-0.4-2.2s-0.8-0.8-1.4-0.8c-0.4,0-0.7,0.1-1,0.2s-0.5,0.4-0.6,0.7v4.2c0.2,0.3,0.4,0.5,0.6,0.6s0.6,0.2,1,0.2
			c0.6,0,1.1-0.2,1.4-0.7s0.4-1.1,0.4-2V224.7z"/>
		<path class="st1" d="M388.5,224.5c0-1.4,0.4-2.6,1.2-3.5c0.8-0.9,1.9-1.4,3.3-1.4c1.4,0,2.5,0.5,3.3,1.4s1.2,2.1,1.2,3.5v0.2
			c0,1.4-0.4,2.6-1.2,3.5c-0.8,0.9-1.9,1.3-3.3,1.3c-1.4,0-2.5-0.5-3.3-1.3c-0.8-0.9-1.2-2.1-1.2-3.5V224.5z M391.1,224.7
			c0,0.9,0.2,1.6,0.5,2.1c0.3,0.5,0.8,0.8,1.5,0.8c0.7,0,1.1-0.3,1.5-0.8s0.5-1.2,0.5-2.1v-0.2c0-0.8-0.2-1.5-0.5-2.1
			s-0.8-0.8-1.5-0.8c-0.7,0-1.1,0.3-1.5,0.8c-0.3,0.5-0.5,1.2-0.5,2.1V224.7z"/>
		<path class="st1" d="M404.1,222.1l-0.9,0c-0.4,0-0.7,0.1-0.9,0.2s-0.4,0.4-0.6,0.7v6.4h-2.6v-9.5h2.4l0.1,1.4
			c0.2-0.5,0.5-0.9,0.9-1.2c0.4-0.3,0.8-0.4,1.2-0.4c0.1,0,0.2,0,0.4,0c0.1,0,0.2,0,0.3,0.1L404.1,222.1z"/>
		<path class="st1" d="M408.6,217.6v2.3h1.6v1.8h-1.6v4.8c0,0.4,0.1,0.6,0.2,0.8s0.4,0.2,0.6,0.2c0.1,0,0.3,0,0.4,0
			c0.1,0,0.2,0,0.3-0.1l0.2,1.9c-0.3,0.1-0.5,0.2-0.8,0.2c-0.2,0-0.5,0.1-0.8,0.1c-0.9,0-1.6-0.2-2-0.7s-0.7-1.3-0.7-2.3v-4.9h-1.4
			v-1.8h1.4v-2.3H408.6z"/>
		<path class="st1" d="M417.4,229.4c-0.1-0.2-0.2-0.4-0.2-0.7s-0.1-0.5-0.1-0.7c-0.3,0.5-0.6,0.8-1,1.2s-0.9,0.5-1.5,0.5
			c-1,0-1.8-0.3-2.3-0.8c-0.5-0.5-0.8-1.2-0.8-2.1c0-0.9,0.4-1.7,1.1-2.2c0.7-0.5,1.8-0.8,3.1-0.8h1.4V223c0-0.5-0.1-0.8-0.4-1.1
			s-0.6-0.4-1.1-0.4c-0.4,0-0.7,0.1-1,0.3c-0.2,0.2-0.3,0.5-0.3,0.8h-2.5l0-0.1c0-0.8,0.3-1.5,1.1-2.1c0.7-0.6,1.7-0.9,2.9-0.9
			c1.1,0,2.1,0.3,2.8,0.9s1.1,1.4,1.1,2.5v3.9c0,0.4,0,0.9,0.1,1.3s0.2,0.8,0.3,1.2H417.4z M415.1,227.7c0.4,0,0.8-0.1,1.2-0.3
			s0.6-0.5,0.7-0.8v-1.3h-1.4c-0.5,0-1,0.1-1.2,0.4s-0.4,0.6-0.4,1c0,0.3,0.1,0.6,0.3,0.8C414.4,227.6,414.7,227.7,415.1,227.7z"/>
		<path class="st1" d="M423.9,219.9l0.1,1.3c0.3-0.5,0.7-0.8,1.1-1.1c0.5-0.2,1-0.4,1.6-0.4c0.6,0,1.1,0.1,1.6,0.4s0.8,0.7,1,1.2
			c0.3-0.5,0.7-0.9,1.1-1.2s1-0.4,1.7-0.4c0.9,0,1.7,0.3,2.2,1c0.5,0.7,0.8,1.7,0.8,3v5.6h-2.6v-5.7c0-0.8-0.1-1.3-0.4-1.6
			s-0.6-0.4-1-0.4c-0.4,0-0.7,0.1-0.9,0.2c-0.3,0.2-0.5,0.4-0.6,0.7c0,0.1,0,0.2,0,0.3c0,0.1,0,0.2,0,0.2v6.2H427v-5.7
			c0-0.7-0.1-1.3-0.4-1.6c-0.2-0.3-0.6-0.5-1.1-0.5c-0.3,0-0.6,0.1-0.9,0.2c-0.3,0.1-0.5,0.3-0.6,0.6v6.9h-2.6v-9.5H423.9z"/>
		<path class="st1" d="M441.2,229.6c-1.4,0-2.5-0.4-3.3-1.3c-0.8-0.9-1.2-2-1.2-3.4v-0.4c0-1.4,0.4-2.6,1.2-3.5s1.8-1.4,3.2-1.4
			c1.3,0,2.3,0.4,2.9,1.2c0.7,0.8,1,1.8,1,3.2v1.3h-5.7l0,0.1c0,0.7,0.2,1.2,0.6,1.6s0.9,0.6,1.6,0.6c0.6,0,1.1-0.1,1.5-0.2
			s0.8-0.3,1.2-0.5l0.7,1.6c-0.4,0.3-0.9,0.6-1.5,0.8S442,229.6,441.2,229.6z M441,221.7c-0.5,0-0.9,0.2-1.2,0.5
			c-0.3,0.4-0.4,0.8-0.5,1.4l0,0h3.1v-0.2c0-0.6-0.1-1-0.3-1.3C441.9,221.8,441.5,221.7,441,221.7z"/>
		<path class="st1" d="M448.8,219.9l0.1,1.4c0.3-0.5,0.7-0.9,1.2-1.1s1-0.4,1.6-0.4c1,0,1.7,0.3,2.2,0.9c0.5,0.6,0.8,1.6,0.8,2.9
			v5.8h-2.6v-5.8c0-0.7-0.1-1.2-0.4-1.4c-0.2-0.3-0.6-0.4-1.1-0.4c-0.4,0-0.7,0.1-1,0.2c-0.3,0.1-0.5,0.3-0.7,0.6v6.9h-2.6v-9.5
			H448.8z"/>
		<path class="st1" d="M459.7,217.6v2.3h1.6v1.8h-1.6v4.8c0,0.4,0.1,0.6,0.2,0.8s0.4,0.2,0.6,0.2c0.1,0,0.3,0,0.4,0
			c0.1,0,0.2,0,0.3-0.1l0.2,1.9c-0.3,0.1-0.5,0.2-0.8,0.2c-0.2,0-0.5,0.1-0.8,0.1c-0.9,0-1.6-0.2-2-0.7s-0.7-1.3-0.7-2.3v-4.9h-1.4
			v-1.8h1.4v-2.3H459.7z"/>
		<path class="st1" d="M468.5,229.4c-0.1-0.2-0.2-0.4-0.2-0.7s-0.1-0.5-0.1-0.7c-0.3,0.5-0.6,0.8-1,1.2s-0.9,0.5-1.5,0.5
			c-1,0-1.8-0.3-2.3-0.8c-0.5-0.5-0.8-1.2-0.8-2.1c0-0.9,0.4-1.7,1.1-2.2c0.7-0.5,1.8-0.8,3.1-0.8h1.4V223c0-0.5-0.1-0.8-0.4-1.1
			s-0.6-0.4-1.1-0.4c-0.4,0-0.7,0.1-1,0.3c-0.2,0.2-0.3,0.5-0.3,0.8h-2.5l0-0.1c0-0.8,0.3-1.5,1.1-2.1c0.7-0.6,1.7-0.9,2.9-0.9
			c1.1,0,2.1,0.3,2.8,0.9s1.1,1.4,1.1,2.5v3.9c0,0.4,0,0.9,0.1,1.3s0.2,0.8,0.3,1.2H468.5z M466.2,227.7c0.4,0,0.8-0.1,1.2-0.3
			s0.6-0.5,0.7-0.8v-1.3h-1.4c-0.5,0-1,0.1-1.2,0.4s-0.4,0.6-0.4,1c0,0.3,0.1,0.6,0.3,0.8C465.5,227.6,465.8,227.7,466.2,227.7z"/>
		<path class="st1" d="M475.3,229.4h-2.6v-13.7h2.6V229.4z"/>
		<path class="st1" d="M308.8,244.6h-4l-1,2.7h-1.5l3.8-10.7h1.2l3.8,10.7h-1.5L308.8,244.6z M305.2,243.4h3.2l-1.6-4.6h0
			L305.2,243.4z"/>
		<path class="st1" d="M315.7,246.4c0.4,0,0.8-0.1,1.2-0.4s0.5-0.7,0.5-1.1h1.3l0,0c0,0.7-0.3,1.3-0.9,1.8s-1.3,0.8-2.1,0.8
			c-1.1,0-2-0.4-2.6-1.1s-0.9-1.7-0.9-2.8v-0.3c0-1.1,0.3-2.1,0.9-2.8c0.6-0.8,1.5-1.1,2.6-1.1c0.9,0,1.6,0.3,2.2,0.8
			c0.6,0.5,0.8,1.2,0.8,2l0,0h-1.3c0-0.5-0.2-0.9-0.5-1.2c-0.3-0.3-0.7-0.5-1.2-0.5c-0.7,0-1.2,0.3-1.5,0.8c-0.3,0.5-0.5,1.2-0.5,2
			v0.3c0,0.8,0.2,1.5,0.5,2C314.5,246.1,315,246.4,315.7,246.4z"/>
		<path class="st1" d="M323.7,247.5c-1.1,0-2-0.4-2.7-1.1c-0.6-0.7-1-1.7-1-2.9v-0.3c0-1.1,0.3-2.1,1-2.8s1.5-1.1,2.4-1.1
			c1.1,0,1.9,0.3,2.4,1c0.5,0.7,0.8,1.5,0.8,2.6v0.8h-5.1l0,0c0,0.8,0.2,1.4,0.5,1.9c0.4,0.5,0.9,0.7,1.6,0.7c0.5,0,0.9-0.1,1.3-0.2
			c0.4-0.1,0.7-0.3,0.9-0.6l0.6,0.9c-0.3,0.3-0.7,0.5-1.1,0.7C324.9,247.4,324.4,247.5,323.7,247.5z M323.5,240.5
			c-0.5,0-0.9,0.2-1.2,0.6c-0.3,0.4-0.5,0.9-0.6,1.5l0,0h3.6v-0.1c0-0.6-0.1-1.1-0.4-1.4S324.1,240.5,323.5,240.5z"/>
		<path class="st1" d="M329.9,237.4h-1.4V236h1.4V237.4z M329.9,247.4h-1.4v-7.9h1.4V247.4z"/>
		<path class="st1" d="M334.1,237.6v1.9h1.5v1.1h-1.5v4.8c0,0.4,0.1,0.6,0.2,0.8c0.2,0.2,0.4,0.2,0.6,0.2c0.1,0,0.2,0,0.3,0
			c0.1,0,0.2,0,0.3-0.1l0.2,1c-0.1,0.1-0.3,0.2-0.5,0.2s-0.4,0.1-0.6,0.1c-0.6,0-1.1-0.2-1.4-0.5s-0.5-0.9-0.5-1.7v-4.8h-1.3v-1.1
			h1.3v-1.9H334.1z"/>
		<path class="st1" d="M342,247.4c0-0.2-0.1-0.5-0.1-0.6c0-0.2,0-0.4,0-0.6c-0.3,0.4-0.6,0.7-1.1,1c-0.4,0.3-0.9,0.4-1.4,0.4
			c-0.8,0-1.5-0.2-1.9-0.6c-0.4-0.4-0.6-1-0.6-1.7c0-0.8,0.3-1.3,0.9-1.8c0.6-0.4,1.4-0.6,2.5-0.6h1.6V242c0-0.5-0.1-0.8-0.4-1.1
			c-0.3-0.3-0.7-0.4-1.2-0.4c-0.5,0-0.8,0.1-1.1,0.4s-0.4,0.5-0.4,0.8l-1.4,0l0,0c0-0.6,0.2-1.1,0.8-1.6s1.3-0.7,2.2-0.7
			c0.9,0,1.6,0.2,2.2,0.7c0.5,0.5,0.8,1.1,0.8,2v3.8c0,0.3,0,0.6,0,0.8s0.1,0.5,0.2,0.8H342z M339.6,246.3c0.5,0,1-0.1,1.4-0.4
			c0.4-0.3,0.7-0.6,0.8-0.9v-1.3h-1.6c-0.6,0-1,0.1-1.4,0.4c-0.3,0.3-0.5,0.6-0.5,1c0,0.4,0.1,0.6,0.3,0.8S339.2,246.3,339.6,246.3z
			"/>
		<path class="st1" d="M349.1,240.7l-0.7,0c-0.4,0-0.7,0.1-1,0.3c-0.3,0.2-0.5,0.4-0.6,0.8v5.7h-1.4v-7.9h1.3l0.1,1.2
			c0.2-0.4,0.5-0.7,0.8-1c0.3-0.2,0.7-0.3,1.1-0.3c0.1,0,0.2,0,0.3,0c0.1,0,0.2,0,0.2,0.1L349.1,240.7z"/>
		<path class="st1" d="M351,247l-1.1,2.2H349l0.5-2.3v-1.2h1.4V247z"/>
		<path class="st1" d="M358.1,243.1v4.3h-1.4v-10.7h4.1c1.1,0,2,0.3,2.7,0.9s0.9,1.4,0.9,2.3c0,1-0.3,1.7-0.9,2.3
			c-0.6,0.6-1.5,0.9-2.7,0.9H358.1z M358.1,242h2.6c0.7,0,1.3-0.2,1.6-0.6c0.4-0.4,0.5-0.9,0.5-1.5s-0.2-1.1-0.5-1.5
			c-0.4-0.4-0.9-0.6-1.6-0.6h-2.6V242z"/>
		<path class="st1" d="M369.7,240.7l-0.7,0c-0.4,0-0.7,0.1-1,0.3c-0.3,0.2-0.5,0.4-0.6,0.8v5.7h-1.4v-7.9h1.3l0.1,1.2
			c0.2-0.4,0.5-0.7,0.8-1c0.3-0.2,0.7-0.3,1.1-0.3c0.1,0,0.2,0,0.3,0c0.1,0,0.2,0,0.2,0.1L369.7,240.7z"/>
		<path class="st1" d="M374.3,247.5c-1.1,0-2-0.4-2.7-1.1c-0.6-0.7-1-1.7-1-2.9v-0.3c0-1.1,0.3-2.1,1-2.8s1.5-1.1,2.4-1.1
			c1.1,0,1.9,0.3,2.4,1c0.5,0.7,0.8,1.5,0.8,2.6v0.8h-5.1l0,0c0,0.8,0.2,1.4,0.5,1.9c0.4,0.5,0.9,0.7,1.6,0.7c0.5,0,0.9-0.1,1.3-0.2
			c0.4-0.1,0.7-0.3,0.9-0.6l0.6,0.9c-0.3,0.3-0.7,0.5-1.1,0.7C375.6,247.4,375,247.5,374.3,247.5z M374.1,240.5
			c-0.5,0-0.9,0.2-1.2,0.6c-0.3,0.4-0.5,0.9-0.6,1.5l0,0h3.6v-0.1c0-0.6-0.1-1.1-0.4-1.4S374.7,240.5,374.1,240.5z"/>
		<path class="st1" d="M385.7,243.7c0,1.1-0.3,2.1-0.8,2.8c-0.5,0.7-1.3,1.1-2.3,1.1c-0.5,0-0.9-0.1-1.3-0.2
			c-0.4-0.2-0.7-0.4-0.9-0.7v3.9h-1.4v-11h1.1l0.2,1c0.3-0.4,0.6-0.7,1-0.9c0.4-0.2,0.8-0.3,1.3-0.3c1,0,1.7,0.4,2.3,1.2
			c0.5,0.8,0.8,1.8,0.8,3.1V243.7z M384.2,243.6c0-0.9-0.2-1.6-0.5-2.2c-0.4-0.6-0.9-0.9-1.6-0.9c-0.4,0-0.8,0.1-1.1,0.3
			s-0.5,0.4-0.7,0.8v3.8c0.2,0.3,0.4,0.6,0.7,0.8c0.3,0.2,0.7,0.3,1.1,0.3c0.7,0,1.2-0.2,1.6-0.8s0.5-1.1,0.5-1.9V243.6z"/>
		<path class="st1" d="M392.3,247.4c0-0.2-0.1-0.5-0.1-0.6c0-0.2,0-0.4,0-0.6c-0.3,0.4-0.6,0.7-1.1,1c-0.4,0.3-0.9,0.4-1.4,0.4
			c-0.8,0-1.5-0.2-1.9-0.6c-0.4-0.4-0.6-1-0.6-1.7c0-0.8,0.3-1.3,0.9-1.8c0.6-0.4,1.4-0.6,2.5-0.6h1.6V242c0-0.5-0.1-0.8-0.4-1.1
			c-0.3-0.3-0.7-0.4-1.2-0.4c-0.5,0-0.8,0.1-1.1,0.4s-0.4,0.5-0.4,0.8l-1.4,0l0,0c0-0.6,0.2-1.1,0.8-1.6s1.3-0.7,2.2-0.7
			c0.9,0,1.6,0.2,2.2,0.7c0.5,0.5,0.8,1.1,0.8,2v3.8c0,0.3,0,0.6,0,0.8s0.1,0.5,0.2,0.8H392.3z M389.9,246.3c0.5,0,1-0.1,1.4-0.4
			c0.4-0.3,0.7-0.6,0.8-0.9v-1.3h-1.6c-0.6,0-1,0.1-1.4,0.4c-0.3,0.3-0.5,0.6-0.5,1c0,0.4,0.1,0.6,0.3,0.8S389.5,246.3,389.9,246.3z
			"/>
		<path class="st1" d="M399.4,240.7l-0.7,0c-0.4,0-0.7,0.1-1,0.3c-0.3,0.2-0.5,0.4-0.6,0.8v5.7h-1.4v-7.9h1.3l0.1,1.2
			c0.2-0.4,0.5-0.7,0.8-1c0.3-0.2,0.7-0.3,1.1-0.3c0.1,0,0.2,0,0.3,0c0.1,0,0.2,0,0.2,0.1L399.4,240.7z"/>
		<path class="st1" d="M405.8,247.4c0-0.2-0.1-0.5-0.1-0.6c0-0.2,0-0.4,0-0.6c-0.3,0.4-0.6,0.7-1.1,1c-0.4,0.3-0.9,0.4-1.4,0.4
			c-0.8,0-1.5-0.2-1.9-0.6c-0.4-0.4-0.6-1-0.6-1.7c0-0.8,0.3-1.3,0.9-1.8c0.6-0.4,1.4-0.6,2.5-0.6h1.6V242c0-0.5-0.1-0.8-0.4-1.1
			c-0.3-0.3-0.7-0.4-1.2-0.4c-0.5,0-0.8,0.1-1.1,0.4s-0.4,0.5-0.4,0.8l-1.4,0l0,0c0-0.6,0.2-1.1,0.8-1.6s1.3-0.7,2.2-0.7
			c0.9,0,1.6,0.2,2.2,0.7c0.5,0.5,0.8,1.1,0.8,2v3.8c0,0.3,0,0.6,0,0.8s0.1,0.5,0.2,0.8H405.8z M403.4,246.3c0.5,0,1-0.1,1.4-0.4
			c0.4-0.3,0.7-0.6,0.8-0.9v-1.3H404c-0.6,0-1,0.1-1.4,0.4c-0.3,0.3-0.5,0.6-0.5,1c0,0.4,0.1,0.6,0.3,0.8S403,246.3,403.4,246.3z"/>
		<path class="st1" d="M412.9,240.7l-0.7,0c-0.4,0-0.7,0.1-1,0.3c-0.3,0.2-0.5,0.4-0.6,0.8v5.7h-1.4v-7.9h1.3l0.1,1.2
			c0.2-0.4,0.5-0.7,0.8-1c0.3-0.2,0.7-0.3,1.1-0.3c0.1,0,0.2,0,0.3,0c0.1,0,0.2,0,0.2,0.1L412.9,240.7z"/>
		<path class="st1" d="M414.8,247l-1.1,2.2h-0.9l0.5-2.3v-1.2h1.4V247z"/>
		<path class="st1" d="M428,244L428,244c0,1-0.3,1.9-1,2.6s-1.7,1-2.9,1c-1.2,0-2.2-0.4-2.9-1.3s-1.1-1.9-1.1-3.3v-1.9
			c0-1.3,0.4-2.4,1.1-3.3c0.8-0.9,1.7-1.3,2.9-1.3s2.2,0.3,2.9,1s1.1,1.5,1,2.6l0,0h-1.4c0-0.7-0.2-1.3-0.7-1.8
			c-0.4-0.4-1.1-0.7-1.9-0.7c-0.8,0-1.4,0.3-1.9,1c-0.5,0.7-0.7,1.5-0.7,2.4v1.9c0,1,0.2,1.8,0.7,2.4s1.1,1,1.9,1
			c0.8,0,1.4-0.2,1.9-0.6c0.4-0.4,0.7-1,0.7-1.8H428z"/>
		<path class="st1" d="M429.4,243.4c0-1.2,0.3-2.1,1-2.9c0.6-0.8,1.5-1.1,2.6-1.1c1.1,0,2,0.4,2.6,1.1c0.6,0.8,1,1.7,1,2.9v0.2
			c0,1.2-0.3,2.1-1,2.9s-1.5,1.1-2.6,1.1s-2-0.4-2.6-1.1c-0.6-0.8-1-1.7-1-2.9V243.4z M430.8,243.5c0,0.8,0.2,1.5,0.5,2.1
			c0.4,0.5,0.9,0.8,1.6,0.8c0.7,0,1.2-0.3,1.6-0.8s0.5-1.2,0.5-2.1v-0.2c0-0.8-0.2-1.5-0.5-2.1c-0.4-0.6-0.9-0.8-1.6-0.8
			c-0.7,0-1.2,0.3-1.6,0.8c-0.4,0.6-0.5,1.2-0.5,2.1V243.5z"/>
		<path class="st1" d="M439.5,239.5l0.1,1c0.3-0.4,0.6-0.7,1-0.9s0.9-0.3,1.4-0.3s1,0.1,1.4,0.4c0.4,0.2,0.7,0.6,0.9,1.1
			c0.3-0.5,0.6-0.8,1-1.1c0.4-0.3,0.9-0.4,1.4-0.4c0.8,0,1.4,0.3,1.9,0.8c0.5,0.6,0.7,1.4,0.7,2.5v4.7h-1.4v-4.8
			c0-0.8-0.1-1.3-0.4-1.7c-0.3-0.3-0.7-0.5-1.2-0.5c-0.5,0-0.9,0.2-1.2,0.5s-0.5,0.8-0.5,1.3v0.1v5H443v-4.8c0-0.7-0.1-1.3-0.4-1.6
			c-0.3-0.3-0.7-0.5-1.2-0.5c-0.4,0-0.8,0.1-1.1,0.3c-0.3,0.2-0.5,0.4-0.7,0.8v5.9h-1.4v-7.9H439.5z"/>
		<path class="st1" d="M456.4,246.2c-0.2,0.4-0.6,0.8-1,1s-0.8,0.3-1.4,0.3c-0.9,0-1.5-0.3-2-0.8s-0.7-1.4-0.7-2.6v-4.7h1.4v4.7
			c0,0.8,0.1,1.4,0.4,1.7c0.2,0.3,0.6,0.5,1.2,0.5c0.5,0,0.9-0.1,1.3-0.3s0.6-0.5,0.8-0.9v-5.7h1.4v7.9h-1.3L456.4,246.2z"/>
		<path class="st1" d="M461.2,239.5l0.1,1.2c0.3-0.4,0.6-0.7,1-1c0.4-0.2,0.9-0.3,1.4-0.3c0.9,0,1.5,0.3,2,0.8s0.7,1.3,0.7,2.3v5
			h-1.4v-5c0-0.7-0.1-1.2-0.4-1.5s-0.7-0.4-1.3-0.4c-0.4,0-0.8,0.1-1.1,0.3c-0.3,0.2-0.6,0.4-0.7,0.8v5.9h-1.4v-7.9H461.2z"/>
		<path class="st1" d="M470,237.4h-1.4V236h1.4V237.4z M470,247.4h-1.4v-7.9h1.4V247.4z"/>
		<path class="st1" d="M475.3,246.4c0.4,0,0.8-0.1,1.2-0.4s0.5-0.7,0.5-1.1h1.3l0,0c0,0.7-0.3,1.3-0.9,1.8s-1.3,0.8-2.1,0.8
			c-1.1,0-2-0.4-2.6-1.1s-0.9-1.7-0.9-2.8v-0.3c0-1.1,0.3-2.1,0.9-2.8c0.6-0.8,1.5-1.1,2.6-1.1c0.9,0,1.6,0.3,2.2,0.8
			c0.6,0.5,0.8,1.2,0.8,2l0,0H477c0-0.5-0.2-0.9-0.5-1.2c-0.3-0.3-0.7-0.5-1.2-0.5c-0.7,0-1.2,0.3-1.5,0.8c-0.3,0.5-0.5,1.2-0.5,2
			v0.3c0,0.8,0.2,1.5,0.5,2C474.1,246.1,474.6,246.4,475.3,246.4z"/>
		<path class="st1" d="M484.9,247.4c0-0.2-0.1-0.5-0.1-0.6c0-0.2,0-0.4,0-0.6c-0.3,0.4-0.6,0.7-1.1,1c-0.4,0.3-0.9,0.4-1.4,0.4
			c-0.8,0-1.5-0.2-1.9-0.6c-0.4-0.4-0.6-1-0.6-1.7c0-0.8,0.3-1.3,0.9-1.8c0.6-0.4,1.4-0.6,2.5-0.6h1.6V242c0-0.5-0.1-0.8-0.4-1.1
			c-0.3-0.3-0.7-0.4-1.2-0.4c-0.5,0-0.8,0.1-1.1,0.4c-0.3,0.2-0.4,0.5-0.4,0.8l-1.4,0l0,0c0-0.6,0.2-1.1,0.8-1.6s1.3-0.7,2.2-0.7
			c0.9,0,1.6,0.2,2.2,0.7c0.5,0.5,0.8,1.1,0.8,2v3.8c0,0.3,0,0.6,0,0.8s0.1,0.5,0.2,0.8H484.9z M482.5,246.3c0.5,0,1-0.1,1.4-0.4
			c0.4-0.3,0.7-0.6,0.8-0.9v-1.3h-1.6c-0.6,0-1,0.1-1.4,0.4c-0.3,0.3-0.5,0.6-0.5,1c0,0.4,0.1,0.6,0.3,0.8S482.1,246.3,482.5,246.3z
			"/>
		<path class="st1" d="M492,240.7l-0.7,0c-0.4,0-0.7,0.1-1,0.3c-0.3,0.2-0.5,0.4-0.6,0.8v5.7h-1.4v-7.9h1.3l0.1,1.2
			c0.2-0.4,0.5-0.7,0.8-1c0.3-0.2,0.7-0.3,1.1-0.3c0.1,0,0.2,0,0.3,0c0.1,0,0.2,0,0.2,0.1L492,240.7z"/>
		<path class="st1" d="M498,243.4h-4.3v-1.1h4.3V243.4z"/>
		<path class="st1" d="M504.9,245.3c0-0.3-0.1-0.6-0.4-0.8c-0.2-0.2-0.7-0.4-1.4-0.5c-0.9-0.2-1.7-0.5-2.2-0.8s-0.8-0.8-0.8-1.5
			c0-0.6,0.3-1.2,0.8-1.7c0.5-0.5,1.3-0.7,2.1-0.7c0.9,0,1.6,0.2,2.2,0.7s0.8,1.1,0.8,1.7l0,0h-1.4c0-0.3-0.2-0.7-0.5-0.9
			c-0.3-0.3-0.7-0.4-1.1-0.4c-0.5,0-0.9,0.1-1.1,0.3s-0.4,0.5-0.4,0.8c0,0.3,0.1,0.6,0.3,0.7c0.2,0.2,0.7,0.3,1.3,0.5
			c1,0.2,1.7,0.5,2.2,0.9s0.8,0.9,0.8,1.5c0,0.7-0.3,1.3-0.9,1.7c-0.6,0.4-1.3,0.7-2.2,0.7c-1,0-1.8-0.3-2.4-0.8s-0.9-1.1-0.8-1.8
			l0,0h1.4c0,0.5,0.2,0.9,0.6,1.1c0.4,0.2,0.8,0.4,1.3,0.4c0.5,0,0.9-0.1,1.2-0.3C504.8,245.9,504.9,245.6,504.9,245.3z"/>
		<path class="st1" d="M511.4,247.5c-1.1,0-2-0.4-2.7-1.1s-1-1.7-1-2.9v-0.3c0-1.1,0.3-2.1,1-2.8c0.7-0.7,1.5-1.1,2.4-1.1
			c1.1,0,1.9,0.3,2.4,1c0.5,0.7,0.8,1.5,0.8,2.6v0.8h-5.1l0,0c0,0.8,0.2,1.4,0.5,1.9c0.4,0.5,0.9,0.7,1.6,0.7c0.5,0,0.9-0.1,1.3-0.2
			c0.4-0.1,0.7-0.3,0.9-0.6l0.6,0.9c-0.3,0.3-0.7,0.5-1.1,0.7C512.6,247.4,512.1,247.5,511.4,247.5z M511.2,240.5
			c-0.5,0-0.9,0.2-1.2,0.6c-0.3,0.4-0.5,0.9-0.6,1.5l0,0h3.6v-0.1c0-0.6-0.1-1.1-0.4-1.4S511.8,240.5,511.2,240.5z"/>
	</g>
</g>
</svg>
