<?xml version="1.0" encoding="utf-8"?>
<!-- Generator: Adobe Illustrator 28.0.0, SVG Export Plug-In . SVG Version: 6.00 Build 0)  -->
<svg version="1.1" xmlns="http://www.w3.org/2000/svg" xmlns:xlink="http://www.w3.org/1999/xlink" x="0px" y="0px"
	 viewBox="0 0 268.2 268.2" style="enable-background:new 0 0 268.2 268.2;" xml:space="preserve">
<style type="text/css">
	.st0{fill:#FFFFFF;}
</style>
<g id="background">
</g>
<g id="object">
	<path class="st0" d="M208.7,149.7c-1.6-9.9-4.5-19.5-8.6-28.7c-2.4-5.4-12.3-16.4-12.5-21.6c0.4,8.2-3,16.4-9.1,21.9
		c-0.3-31.9-16.7-61.2-32.7-88.9c-2.4,26.5-9.5,52.6-20.7,76.7c2.8-11.6,0.5-23.8-1.7-35.5c-16.8,24.5-46.2,39.6-58.8,66.5
		c-7.6,16.3-7.9,35.9-0.8,52.5c6.1,14.1,17.7,24.7,31.8,31.5c0,0,0,0,0-0.1c-6.3-4.8-11-11.2-13.2-18.7c-2.9-10.2-1.2-21.7,4.5-30.7
		c9.4-14.8,27.8-21.3,39.5-34.4c0.4,7,0.9,14.3-1.7,20.9c8.4-13.3,14.5-28,18-43.3c7.2,17.4,14.6,35.8,12.3,54.5
		c3.9-2.8,6.6-7.3,7-12.1c-0.3,3.1,4.7,10.3,5.7,13.6c1.7,5.7,2.6,11.5,2.8,17.4c0.4,10.8-4,19.9-10.3,28.6
		c-4.5,6.3-10.7,10.4-17.7,12.7c0,0,0,0,0,0.1c22.9-1.9,44.4-12.4,55.2-32.7C206.2,183.9,211.6,167.7,208.7,149.7z"/>
</g>
</svg>
