<?xml version="1.0" encoding="utf-8"?>
<!-- Generator: Adobe Illustrator 28.0.0, SVG Export Plug-In . SVG Version: 6.00 Build 0)  -->
<svg version="1.1" xmlns="http://www.w3.org/2000/svg" xmlns:xlink="http://www.w3.org/1999/xlink" x="0px" y="0px"
	 viewBox="0 0 268.2 268.2" style="enable-background:new 0 0 268.2 268.2;" xml:space="preserve">
<style type="text/css">
	.st0{fill:#FFFFFF;}
</style>
<g id="background">
</g>
<g id="object">
	<g>
		<path class="st0" d="M33.8,151.8c1.2-3.8,2-7.9,3.7-11.4c6.2-13.1,21.1-20.2,35.8-17.5c14.1,2.6,25.3,15.1,26.4,29.5
			c1.4,18.2-11.5,33.9-29.4,35.8c-17.5,1.9-33.6-10.7-36.1-28.1c-0.1-0.4-0.3-0.8-0.4-1.3C33.8,156.5,33.8,154.2,33.8,151.8z
			 M85.2,155.3c-0.1-10.1-8.4-18.4-18.4-18.3c-10.1,0.1-18.3,8.5-18.2,18.4c0.1,10.1,8.5,18.4,18.4,18.3
			C77.1,173.6,85.3,165.3,85.2,155.3z"/>
		<path class="st0" d="M66.9,91c4,0.6,7.8,1.2,11.5,1.8c9.5,1.5,18.9,3,28.4,4.6c1,0.2,2,0.6,2.8,1.1c7.6,5,15.2,9.9,22.7,15
			c1.2,0.8,2.1,0.9,3.4,0.3c7.6-3.6,15.2-7.2,22.8-10.7c0.5-0.2,1-0.5,1.7-0.9c-0.7-1.1-1.3-2-1.9-3c-1.9-3-4-5.8-5.7-8.9
			c-1.5-2.7-3.6-4.1-6.5-5c-5.9-1.7-11.8-3.8-17.9-5.8c2.5-2.2,4.4-4.3,8.1-4.1c7.1,0.3,14.2,0.1,21.3,0.1c1.3,0,2.1,0.4,2.8,1.6
			c3.7,5.9,7.5,11.8,11.3,17.6c0.4,0.6,0.8,1.2,1.3,1.9c4.8-2.1,9.5-4.2,14.4-6.5c0.1,0.8,0.1,1.4,0.1,2c0,4.1,0,8.2,0,12.3
			c0,1.3-0.3,2.2-1.6,2.8c-1.5,0.8-2.8,1.8-4.4,2.8c3.1,4.8,6.1,9.5,9,14.1c21-6.1,36.6,6.5,41.5,19.3c5.8,15.5,0.1,32.1-14,40.6
			c-13.6,8.1-31.2,5.2-41.8-7c-10-11.5-12-31.6,2.5-45.8c-2.5-3.9-5-7.8-7.7-12c-3.1,3.5-6,6.9-8.9,10.2c-0.4,0.5-0.5,1.2-0.7,1.8
			c-2.9,10.3-5.7,20.6-8.5,30.9c-0.4,1.4-0.9,1.8-2.4,1.8c-11-0.1-21.9-0.1-32.9,0c-1.3,0-1.9-0.4-2.5-1.6
			c-5.7-11.9-11.4-23.7-17.2-35.6c-0.6-1.2-1.5-2.3-2.5-3.1c-9-7-18.1-13.9-27.2-20.9c-1.1-0.8-1.6-1.7-1.5-3.1
			C66.9,96.8,66.9,94.1,66.9,91z M187.2,144.1c-5.1,4.6-5.6,15-1,21.6c5.2,7.5,15.3,10.1,23.1,6.1c8.8-4.6,12.5-13.9,9.1-23.2
			c-2.7-7.5-11.9-13-19.1-11.3c3,4.8,6,9.5,9.1,14.3c-3.9,2.5-7.7,4.9-11.6,7.4C193.6,154,190.4,149.1,187.2,144.1z"/>
	</g>
</g>
</svg>
