<?xml version="1.0" encoding="utf-8"?>
<!-- Generator: Adobe Illustrator 28.0.0, SVG Export Plug-In . SVG Version: 6.00 Build 0)  -->
<svg version="1.1" xmlns="http://www.w3.org/2000/svg" xmlns:xlink="http://www.w3.org/1999/xlink" x="0px" y="0px"
	 viewBox="0 0 268.2 268.2" style="enable-background:new 0 0 268.2 268.2;" xml:space="preserve">
<style type="text/css">
	.st0{fill:#FFFFFF;}
</style>
<g id="background">
</g>
<g id="object">
	<path class="st0" d="M105.7,218.6c-3.2-1-5.8-2.7-6.6-6.2c-0.3-1.5-0.4-3.1-0.1-4.5c1.7-8.5,3.5-17,5.2-25.5c0.1-0.6,0.2-1.3,0-1.8
		c-1.6-3.8-3.4-7.5-5.4-11.2c-0.3,2.7-0.7,5.3-1,8c-0.3,2.1-0.3,4.2-0.8,6.2c-0.5,1.8-1.1,3.7-2.2,5.2c-6.1,8.1-12.4,16-18.5,24.1
		c-4.5,5.9-12.7,4.6-15.1-1.6c-1.3-3.2-0.6-6.1,1.5-8.8c3.9-5,7.8-10.1,11.7-15.2c0.6-0.8,1.2-1.6,1.8-2.4c4.3-5.6,4.3-5.6,5-12.6
		c0.8-7,1.7-14.1,2.5-21.1c0-0.4,0.1-0.8-0.1-1.1c-1.8-2.6-1.3-5.4-0.7-8.1c2.6-12,5.2-23.9,7.8-35.9c0.8-3.6,2.4-6.7,5.5-9
		c-5.7,1.6-11,1.2-15.8-2.1c-3.6-2.4-6.1-5.7-7.2-10c-2.2-8.4,1.9-17,9.7-20.6c7.8-3.5,17-0.8,21.8,6.4c5.2,7.7,3.4,16.3-4.7,24.1
		c2.3-0.2,5-0.6,7.6-0.5c5.1,0.2,9.2,2.8,12.1,6.8c1.5,2.1,3.4,3.2,5.6,4.1c5.8,2.3,11.9,2.9,18.1,2.9c3.3,0,6.7-0.3,10-0.6
		c1.3-0.1,2.3,0.1,3.1,1.2c0.7,1,1.5,1.8,2.6,3c0.3-1.4,0.7-2.6,0.8-3.7c0.1-1.5,1-1.8,2.2-1.8c3.2-0.1,6.2,2.3,6.8,5.4
		c0.7,3.4-1.1,6.8-4.4,7.7c-2.9,0.8-5.9,1.3-8.9,1.6c-5.2,0.4-10.4,0.5-15.6,0.8c-1.4,0.1-2.1-0.4-2.8-1.7c-1.1-2.1-2.3-4.4-3.9-6
		c-2.6-2.6-5.9-2.7-9.2-1.2c-3,1.4-4.6,4.6-4.4,8c0.1,1.7,0,3.5-0.4,5.2c-1.6,7.6-3.2,15.2-4.9,22.7c-0.4,1.9-1.4,3.7-2.4,5.4
		c-0.5,0.8-0.5,1.4-0.2,2.2c2.9,6.3,5.7,12.7,8.7,19.1c1.1,2.4,1.4,4.8,0.8,7.4c-2,9.2-3.9,18.4-5.7,27.6c-0.8,4.2-3.1,6.9-7.2,8.1
		C107.7,218.6,106.7,218.6,105.7,218.6z"/>
	<path class="st0" d="M180.2,116.4c0,3.3-0.1,6.4,0,9.4c0.1,1.7-0.4,2.7-2.2,2.8c-0.5,0-1,0.3-1.5,0.4c1,1.5,4.2,0.6,3.6,3.8
		c-1.8,0.3-3.6,0.6-5.8,1c1.8,1.1,3.2,2.1,4.8,2.9c0.9,0.5,1.2,1.1,1.2,2.1c-0.1,3.3,0,6.6,0,9.9c0,1.3,0,2.6-0.5,3.7
		c-0.8,1.9-0.7,3.7-0.1,5.6c0.8,2.5,1.4,5.1,2,7.6c0.1,0.6-0.1,1.5-0.4,2c-0.8,1.2-1.9,2.3-3,3.7c1.5,0.2,2.7,0.5,3.9,0.6
		c1,0.1,1.7,0.4,1.8,1.5c0.1,0.5,0.3,0.9,0.4,1.4c1,6.7,4.1,12.4,8.5,17.5c2.8,3.4,5.3,7,7.9,10.6c3.3,4.8,1.1,10.8-4.5,12
		c-2.7,0.6-5.1-0.2-6.9-2.2c-1.7-2-3.2-4.1-5-6.4c1.6-0.6,3-1.1,4.8-1.7c-1.7-0.5-3.1-1-4.7-1.5c0.3-0.7,0.5-1.3,0.8-2.1
		c-1.3,0.1-2.4,0.3-3.5,0.2c-0.6,0-1.3-0.3-1.6-0.7c-2.1-2.7-4.2-5.4-6.1-8.2c-0.8-1.2-1.3-2.5-1.7-3.9c-2.1-7.4-4-14.8-6-22.3
		c-0.7-2.7-0.7-2.7-3.8-2.2c0,3.4-0.1,6.8,0,10.2c0,1.2-0.4,1.9-1.5,2.4c-1.4,0.7-2.7,1.5-4.1,2.3c1.7,0.9,3.2,1.6,4.6,2.4
		c0.4,0.3,0.9,0.8,0.9,1.3c0.1,2.8,0.1,5.6,0,8.4c-0.1,2.2-0.9,4.1-2.5,5.6c-6.1,5.5-12.1,11.1-18.2,16.6c-3.1,2.7-7.2,2.6-10.1,0.1
		c-2.8-2.5-3.4-6.6-1.3-9.7c0.5-0.8,1.3-1.5,2-2.2c4.2-3.9,8.4-7.8,12.7-11.6c1.4-1.3,2.9-2.4,2.2-4.8c1.6,0,2.9,0,4.3,0
		c0.1-0.2,0.2-0.3,0.3-0.5c-1.1-1.1-2.1-2.3-3.2-3.3c-0.9-0.8-1.3-1.6-1.2-2.8c0.1-5.1,0.2-10.1,0-15.2c-0.2-6.2-0.6-12.5-0.9-18.7
		c-0.1-1.3,0.3-2.1,1.4-2.8c2.2-1.4,4.2-2.9,6.7-4.7c-2.3-0.4-4.2-0.8-6.2-1.1c-1.4-0.2-2.2-0.7-1.9-2.3c0.1-0.4,0-0.9,0-0.8
		c-1.1,0.9-2.5,2-3.7,3.2c-3.4,3-6.9,3.3-10.4,0.5c-5-3.9-8.1-9.2-10.5-14.9c-0.4-1-0.3-2.3-0.1-3.4c0.6-2.6,2.3-4.2,4.9-4.7
		c2.7-0.5,4.9,0.4,6.4,2.6c1.2,1.7,2.1,3.6,3.1,5.5c0.8,1.5,1.8,2.2,3.7,2.2c7.9,0.1,15.7-0.4,23.5-2c5.2-1.1,8.1-5.3,7.1-10.6
		c-0.1-0.4,0-1.1,0.3-1.3c3.1-2,5.4-4.7,7-8.1c4.9,1.7,9.7,3.4,14.9,5.3c-1.2,0.6-2,1.1-3.1,1.7c2.7,0.5,5.1,0.9,7.7,1.3
		c-0.2,1-0.4,1.7-0.6,2.5c0.1,0.1,0.2,0.2,0.3,0.2c2-0.4,2.9,0.7,3.8,2.3c2,3.8,4.2,7.5,6.2,11.3c1.7,3.3,0.7,7-2.4,8.7
		c-3.1,1.8-6.8,0.7-8.8-2.6c-2-3.4-3.8-6.8-5.6-10.3c-1.2-2.3-2.8-3.8-5.4-4.4C183.2,117.6,181.8,117,180.2,116.4z"/>
	<path class="st0" d="M170.4,80.6c-0.3,1-0.6,1.9-1,3.1c0.5-0.2,0.8-0.3,1.1-0.4c2.5-1,2.5-1,4.1,1.1c6.3,7.9,3.8,19.6-5.1,24.5
		c-1.1-1-2.1-2.2-3.4-3c-2-1.3-4.2-1.4-6.5-1c-2.5,0.4-5.1,0.7-7.6,1.2c-1.4,0.2-2.3-0.1-3.2-1.3c-5.1-6.2-4.8-15.2,0.9-21.6
		C154.7,77.5,163.8,76.3,170.4,80.6z"/>
	<path class="st0" d="M113.1,70c1.7-1.5,3.2-2.9,5-4.4c-2.3-0.5-4.4-1-6.6-1.5c1.1-2.6,2.2-5.1,3.4-8c-2.4,0.9-4.5,1.6-6.7,2.4
		c-1.1-1.9-2.3-3.9-3.6-6.1c-0.7,1.5-1.1,2.8-1.8,4c-0.6,1-0.4,2.7-1.9,2.9c-0.2-0.1-0.3-0.2-0.5-0.4c1.3-3,2.6-6.1,4-9.4
		c1.5,2.6,2.9,5,4.3,7.4c2.8-1,5.5-2,8.5-3.1c-1.4,3.2-2.7,6.2-4.1,9.3c2.5,0.6,4.9,1.1,7.6,1.7c-1.9,1.7-3.7,3.3-5.6,5
		c2.7,1.7,5.2,3.4,8.1,5.2c-3.6,1-6.8,2-10.1,2.9c-0.6-0.8-0.6-1.2,0.5-1.5c2.1-0.5,4.1-1.2,6.5-1.9C117.7,73,115.5,71.6,113.1,70z"
		/>
</g>
</svg>
