<?xml version="1.0" encoding="utf-8"?>
<!-- Generator: Adobe Illustrator 28.0.0, SVG Export Plug-In . SVG Version: 6.00 Build 0)  -->
<svg version="1.1" xmlns="http://www.w3.org/2000/svg" xmlns:xlink="http://www.w3.org/1999/xlink" x="0px" y="0px"
	 viewBox="0 0 268.2 268.2" style="enable-background:new 0 0 268.2 268.2;" xml:space="preserve">
<style type="text/css">
	.st0{fill:#FFFFFF;}
</style>
<g id="background">
</g>
<g id="object">
	<g>
		<g>
			<path class="st0" d="M147.4,126.2c1.1,2.6,1.5,5.3,1.3,7.9l72.4,6c1.2-14.4-1.1-28.9-6.7-42.2c-6.6-15.7-17.6-29.3-31.7-38.9
				l-41.2,59.9C144,120.7,146.1,123.2,147.4,126.2z"/>
			<path class="st0" d="M124.4,117.7l-32.5-65c-15.3,7.6-28,19.5-36.8,34.2c-7.4,12.4-11.7,26.5-12.5,40.9l72.6,4.1
				C115.4,126,118.8,120.5,124.4,117.7z"/>
			<path class="st0" d="M138.5,148.3c-5,2.1-10.4,1.6-14.7-0.8l-35.3,63.6c12.7,7,26.8,10.9,41.3,11.2c17.1,0.4,33.9-4.1,48.5-12.9
				l-37.7-62.2C140,147.6,139.2,148,138.5,148.3z"/>
		</g>
		<path class="st0" d="M136.1,121.4c6.3,2.6,9.3,9.7,6.7,16c-2.6,6.3-9.7,9.3-16,6.7c-6.3-2.6-9.3-9.7-6.7-16
			C122.7,121.9,129.8,118.9,136.1,121.4z"/>
	</g>
</g>
</svg>
