<?xml version="1.0" encoding="utf-8"?>
<!-- Generator: Adobe Illustrator 28.0.0, SVG Export Plug-In . SVG Version: 6.00 Build 0)  -->
<svg version="1.1" xmlns="http://www.w3.org/2000/svg" xmlns:xlink="http://www.w3.org/1999/xlink" x="0px" y="0px"
	 viewBox="0 0 268.2 268.2" style="enable-background:new 0 0 268.2 268.2;" xml:space="preserve">
<style type="text/css">
	.st0{fill:#FFFFFF;}
</style>
<g id="background">
</g>
<g id="object">
	<g>
		<path class="st0" d="M101.4,227c-2.8-13.8-5.5-27.3-8.3-41.1c-13.9-0.4-27.7-0.7-41.9-1.1c0.4-0.8,0.7-1.4,1-2c6-11,12-22,18-33
			c0.7-1.3,0.7-2.1-0.5-3.2c-9.6-8.3-19.1-16.7-28.6-25.1c-0.4-0.4-0.8-0.7-1.5-1.2c13.3-5.2,26.2-10.3,39.2-15.4
			c-2.1-13.8-4.1-27.4-6.3-41.5C85.9,68,99,72.4,112.3,76.8c7.2-11.8,14.5-23.7,21.8-35.7c0.5,0.7,0.9,1.2,1.2,1.8
			c6.6,10.8,13.2,21.5,19.7,32.3c0.8,1.3,1.4,1.6,2.9,1.1c11.9-4.1,23.7-8,35.6-12c0.7-0.2,1.4-0.4,2.3-0.7
			c-0.8,5.4-1.6,10.5-2.4,15.7c-1.2,8.2-2.5,16.4-3.8,24.6c-0.2,1.3,0.6,1.4,1.4,1.7c12,4.7,23.9,9.4,35.9,14.1
			c0.4,0.2,0.9,0.4,1.6,0.7c-0.6,0.6-1.1,1.1-1.6,1.6c-9.5,8.3-18.9,16.7-28.4,25c-1,0.9-1.2,1.5-0.5,2.7
			c6.1,11.1,12.2,22.2,18.2,33.3c0.3,0.6,0.6,1.2,1,2c-14.1,0.3-27.9,0.7-41.9,1c-2.8,13.7-5.5,27.3-8.3,41.1
			c-0.8-0.7-1.5-1.2-2.2-1.7c-9.8-7.8-19.5-15.6-29.3-23.4c-1.1-0.9-1.7-0.8-2.8,0c-9.9,8-19.9,15.9-29.8,23.9
			C102.5,226.2,102,226.5,101.4,227z M101.7,98.2c1,7,2,13.7,3.1,20.4c0.2,1.3-0.2,1.7-1.3,2.1c-1.9,0.6-3.7,1.4-5.5,2.1
			c-4.4,1.7-8.9,3.5-13.6,5.3c5.7,5,11.1,9.8,16.6,14.6c-3.5,6.5-7,12.8-10.5,19.4c0.9,0.1,1.6,0.1,2.2,0.1
			c6.1,0.2,12.2,0.3,18.3,0.4c1.2,0,1.7,0.3,1.9,1.6c0.8,4.3,1.7,8.6,2.6,12.8c0.5,2.4,1,4.7,1.5,7.3c5.4-4.3,10.5-8.3,15.5-12.4
			c1.3-1,2-1.2,3.4-0.1c4.7,3.9,9.6,7.7,14.4,11.5c0.4,0.3,0.8,0.5,1.3,0.8c1.4-6.8,2.8-13.4,4-20.1c0.2-1.2,0.7-1.5,1.8-1.5
			c6.2-0.1,12.3-0.3,18.5-0.4c0.6,0,1.3-0.1,2.1-0.2c-3.6-6.6-7.1-13-10.5-19.3c5.6-4.9,11-9.7,16.6-14.6c-7-2.8-13.8-5.4-20.6-8.1
			c1.1-7.3,2.2-14.4,3.3-21.8c-7.1,2.4-14,4.7-20.9,7c-3.8-6.3-7.6-12.5-11.5-18.8c-4,6.5-7.8,12.7-11.5,18.8
			C115.6,102.9,108.8,100.6,101.7,98.2z"/>
	</g>
</g>
</svg>
