<?xml version="1.0" encoding="utf-8"?>
<!-- Generator: Adobe Illustrator 27.9.0, SVG Export Plug-In . SVG Version: 6.00 Build 0)  -->
<svg version="1.1" xmlns="http://www.w3.org/2000/svg" xmlns:xlink="http://www.w3.org/1999/xlink" x="0px" y="0px"
	 viewBox="0 0 500 500" style="enable-background:new 0 0 500 500;" xml:space="preserve">
<style type="text/css">
	.st0{fill:#92E3A9;}
	.st1{opacity:0.7;}
	.st2{fill:#FFFFFF;}
	.st3{fill:#263238;}
	.st4{fill:#3A261B;}
</style>
<g id="Background_Simple">
	<g>
		<g>
			<path class="st0" d="M437.4,314.9c0,0,51.1-57.4,34.9-157.3C456,57.7,372.6,20.9,317.2,40.1c-55.4,19.2-67.8,52.7-113,71.8
				s-131.1,6-174,70.3c-42.9,64.3,11.9,170.8,81.7,237.6C181.6,486.7,359.8,444.8,437.4,314.9z"/>
		</g>
		<g class="st1">
			<path class="st2" d="M437.4,314.9c0,0,51.1-57.4,34.9-157.3C456,57.7,372.6,20.9,317.2,40.1c-55.4,19.2-67.8,52.7-113,71.8
				s-131.1,6-174,70.3c-42.9,64.3,11.9,170.8,81.7,237.6C181.6,486.7,359.8,444.8,437.4,314.9z"/>
		</g>
	</g>
</g>
<g id="Line_1_">
	<g>
		<rect x="61.6" y="475.8" class="st3" width="400.2" height="1"/>
	</g>
</g>
<g id="Plant">
	<g>
		<g>
			<g>
				
					<rect x="130.6" y="323.8" transform="matrix(0.9946 -0.104 0.104 0.9946 -40.9215 15.866)" class="st3" width="2" height="152.6"/>
			</g>
			<g>
				<g>
					<g>
						
							<rect x="132.2" y="436" transform="matrix(0.7262 -0.6875 0.6875 0.7262 -266.8349 212.3728)" class="st3" width="2" height="10.3"/>
					</g>
					<g>
						<path class="st0" d="M131.8,439.7c0,0,0.2-3.3-2.8-6c-1.8-1.6-11.3-5.6-12.3-2.3C115.8,435.1,125.5,442.3,131.8,439.7z"/>
						<path class="st3" d="M128.9,440.7c-3.5,0-7.3-1.8-9.9-4.1c-2.2-1.9-3.2-3.9-2.8-5.3c0.1-0.5,0.5-1.2,1.6-1.5
							c3.1-0.9,9.9,2.1,11.5,3.5c3.2,2.8,3,6.2,3,6.4l0,0.3l-0.3,0.1C131,440.5,130,440.7,128.9,440.7z M119.2,430.6
							c-0.4,0-0.8,0-1.1,0.1c-0.6,0.2-0.8,0.5-0.9,0.8c-0.3,1.1,0.7,2.7,2.5,4.3c3.1,2.7,8,4.7,11.6,3.4c0-0.8-0.4-3.3-2.6-5.3
							C127.4,432.9,122.2,430.6,119.2,430.6z"/>
					</g>
					<g>
						
							<rect x="127" y="431.5" transform="matrix(0.5289 -0.8487 0.8487 0.5289 -310.7968 313.8346)" class="st3" width="0.5" height="10.7"/>
					</g>
				</g>
				<g>
					<g>
						
							<rect x="134" y="453" transform="matrix(0.7262 -0.6875 0.6875 0.7262 -278.0235 218.2502)" class="st3" width="2" height="10.3"/>
					</g>
					<g>
						<path class="st0" d="M133.6,456.7c0,0,0.2-3.3-2.8-6c-1.8-1.6-11.3-5.6-12.3-2.3C117.5,452,127.3,459.2,133.6,456.7z"/>
						<path class="st3" d="M130.7,457.7c-3.5,0-7.3-1.8-9.9-4.1c-2.2-1.9-3.2-3.9-2.8-5.3c0.1-0.5,0.5-1.2,1.6-1.5
							c3.1-0.9,9.9,2.1,11.5,3.5c3.2,2.8,3,6.2,3,6.4l0,0.3l-0.3,0.1C132.8,457.5,131.8,457.7,130.7,457.7z M120.9,447.6
							c-0.4,0-0.8,0-1.1,0.1c-0.6,0.2-0.8,0.5-0.9,0.8c-0.3,1.1,0.7,2.7,2.5,4.3c3.1,2.7,8,4.7,11.6,3.4c0-0.8-0.4-3.2-2.6-5.3
							C129.2,449.9,123.9,447.6,120.9,447.6z"/>
					</g>
					<g>
						
							<rect x="128.8" y="448.5" transform="matrix(0.5289 -0.8487 0.8487 0.5289 -324.3599 323.3203)" class="st3" width="0.5" height="10.7"/>
					</g>
				</g>
				<g>
					<g>
						
							<rect x="127.9" y="394.6" transform="matrix(0.7262 -0.6875 0.6875 0.7262 -239.5519 198.0648)" class="st3" width="2" height="10.3"/>
					</g>
					<g>
						<path class="st0" d="M127.5,398.3c0,0,0.2-3.3-2.8-6c-1.8-1.6-11.3-5.6-12.3-2.3C111.5,393.7,121.2,400.8,127.5,398.3z"/>
						<path class="st3" d="M124.6,399.3c-3.5,0-7.3-1.8-9.9-4.1c-2.2-1.9-3.2-3.9-2.8-5.3c0.1-0.5,0.5-1.2,1.6-1.5
							c3.1-0.9,9.9,2.1,11.5,3.5c3.2,2.8,3,6.2,3,6.4l0,0.3l-0.3,0.1C126.7,399.1,125.7,399.3,124.6,399.3z M114.9,389.2
							c-0.4,0-0.8,0-1.1,0.1c-0.6,0.2-0.8,0.5-0.9,0.8c-0.3,1.1,0.7,2.7,2.5,4.3c3.1,2.7,8,4.7,11.6,3.4c0-0.8-0.4-3.2-2.6-5.3
							C123.1,391.5,117.8,389.2,114.9,389.2z"/>
					</g>
					<g>
						
							<rect x="122.7" y="390.1" transform="matrix(0.5289 -0.8487 0.8487 0.5289 -277.6913 290.66)" class="st3" width="0.5" height="10.7"/>
					</g>
				</g>
				<g>
					<g>
						
							<rect x="129.7" y="411.6" transform="matrix(0.7261 -0.6876 0.6876 0.7261 -250.7538 203.9663)" class="st3" width="2" height="10.3"/>
					</g>
					<g>
						<path class="st0" d="M129.3,415.3c0,0,0.2-3.3-2.8-6c-1.8-1.6-11.3-5.6-12.3-2.3C113.2,410.6,123,417.8,129.3,415.3z"/>
						<path class="st3" d="M126.4,416.3c-3.5,0-7.3-1.8-9.9-4.1c-2.2-1.9-3.2-3.9-2.8-5.3c0.1-0.5,0.5-1.2,1.6-1.5
							c3.1-0.9,9.9,2.1,11.5,3.5c3.2,2.8,3,6.2,3,6.4l0,0.3l-0.3,0.1C128.5,416.1,127.4,416.3,126.4,416.3z M116.6,406.2
							c-0.4,0-0.8,0-1.1,0.1c-0.6,0.2-0.8,0.5-0.9,0.8c-0.3,1.1,0.7,2.7,2.5,4.3c3.1,2.7,8,4.7,11.6,3.4c0-0.8-0.4-3.3-2.6-5.3
							C124.9,408.5,119.6,406.2,116.6,406.2z"/>
					</g>
					<g>
						
							<rect x="124.5" y="407.1" transform="matrix(0.5289 -0.8487 0.8487 0.5289 -291.2583 300.1573)" class="st3" width="0.5" height="10.7"/>
					</g>
				</g>
				<g>
					<g>
						
							<rect x="125" y="367.1" transform="matrix(0.7262 -0.6875 0.6875 0.7262 -221.3964 188.5522)" class="st3" width="2" height="10.3"/>
					</g>
					<g>
						<path class="st0" d="M124.6,370.7c0,0,0.2-3.3-2.8-6c-1.8-1.6-11.3-5.6-12.3-2.3C108.6,366.1,118.3,373.3,124.6,370.7z"/>
						<path class="st3" d="M121.7,371.8c-3.5,0-7.3-1.8-9.9-4.1c-2.2-1.9-3.2-3.9-2.8-5.3c0.1-0.5,0.5-1.2,1.6-1.5
							c3.1-0.9,9.9,2.1,11.5,3.5c3.2,2.8,3,6.2,3,6.4l0,0.3l-0.3,0.1C123.8,371.6,122.8,371.8,121.7,371.8z M112,361.7
							c-0.4,0-0.8,0-1.1,0.1c-0.6,0.2-0.8,0.5-0.9,0.8c-0.3,1.1,0.7,2.7,2.5,4.3c3.1,2.7,8,4.7,11.6,3.4c0-0.8-0.4-3.2-2.6-5.3
							C120.2,364,115,361.7,112,361.7z"/>
					</g>
					<g>
						
							<rect x="119.8" y="362.5" transform="matrix(0.5289 -0.8487 0.8487 0.5289 -255.6535 275.2331)" class="st3" width="0.5" height="10.7"/>
					</g>
				</g>
				<g>
					<g>
						
							<rect x="122.1" y="339.4" transform="matrix(0.7261 -0.6876 0.6876 0.7261 -203.1652 179.0066)" class="st3" width="2" height="10.3"/>
					</g>
					<g>
						<path class="st0" d="M121.7,343c0,0,0.2-3.3-2.8-6c-1.8-1.6-11.3-5.6-12.3-2.3C105.7,338.4,115.4,345.6,121.7,343z"/>
						<path class="st3" d="M118.8,344.1c-3.5,0-7.3-1.8-9.9-4.1c-2.2-1.9-3.2-3.9-2.8-5.3c0.1-0.5,0.5-1.2,1.6-1.5
							c3.1-0.9,9.9,2.1,11.5,3.5c3.2,2.8,3,6.2,3,6.4l0,0.3l-0.3,0.1C121,343.9,119.9,344.1,118.8,344.1z M109.1,334
							c-0.4,0-0.8,0-1.1,0.1c-0.6,0.2-0.8,0.5-0.9,0.8c-0.3,1.1,0.7,2.7,2.5,4.3c3.1,2.7,8,4.7,11.6,3.4c0-0.8-0.4-3.2-2.6-5.3
							C117.3,336.3,112.1,334,109.1,334z"/>
					</g>
					<g>
						
							<rect x="116.9" y="334.9" transform="matrix(0.5289 -0.8487 0.8487 0.5289 -233.5189 259.7384)" class="st3" width="0.5" height="10.7"/>
					</g>
				</g>
				<g>
					<g>
						
							<rect x="133.1" y="429.5" transform="matrix(0.5225 -0.8526 0.8526 0.5225 -301.0486 323.4132)" class="st3" width="10.3" height="2"/>
					</g>
					<g>
						<path class="st0" d="M139.3,428.7c0,0-0.9-3.2,1.5-6.4c1.4-2,9.9-7.9,11.5-4.8C154,420.9,146,430,139.3,428.7z"/>
						<path class="st3" d="M140.5,429.4c-0.4,0-0.9,0-1.3-0.1l-0.3-0.1l-0.1-0.3c0-0.1-0.9-3.5,1.6-6.9c1.3-1.7,7.3-6.1,10.5-5.8
							c1.1,0.1,1.6,0.7,1.8,1.1c0.7,1.4,0.1,3.5-1.6,5.8C148.7,426.4,144.5,429.4,140.5,429.4z M139.7,428.3
							c3.8,0.5,8.2-2.5,10.7-5.8c1.4-1.9,2-3.8,1.5-4.8c-0.1-0.2-0.4-0.5-1-0.6c-2.7-0.2-8.5,3.9-9.6,5.4
							C139.4,425.1,139.6,427.5,139.7,428.3z"/>
					</g>
					<g>
						
							<rect x="137.7" y="424.6" transform="matrix(0.7226 -0.6913 0.6913 0.7226 -253.9212 216.9781)" class="st3" width="11.3" height="0.5"/>
					</g>
				</g>
				<g>
					<g>
						
							<rect x="128.4" y="384.8" transform="matrix(0.5225 -0.8526 0.8526 0.5225 -265.2017 298.1194)" class="st3" width="10.3" height="2"/>
					</g>
					<g>
						<path class="st0" d="M134.6,384.1c0,0-0.9-3.2,1.5-6.4c1.4-2,9.9-7.9,11.5-4.8C149.4,376.3,141.3,385.3,134.6,384.1z"/>
						<path class="st3" d="M135.8,384.7c-0.4,0-0.9,0-1.3-0.1l-0.3-0.1l-0.1-0.3c0-0.1-0.9-3.5,1.6-6.9c1.3-1.7,7.3-6.1,10.5-5.8
							c1.1,0.1,1.6,0.7,1.8,1.1c0.7,1.4,0.1,3.5-1.6,5.8C144.1,381.7,139.8,384.7,135.8,384.7z M135,383.7c3.8,0.5,8.2-2.5,10.7-5.8
							c1.4-1.9,2-3.8,1.5-4.8c-0.1-0.2-0.4-0.5-1-0.6c-2.7-0.2-8.5,3.9-9.6,5.4C134.7,380.4,134.9,382.8,135,383.7z"/>
					</g>
					<g>
						
							<rect x="133.1" y="379.9" transform="matrix(0.7226 -0.6913 0.6913 0.7226 -224.3453 201.3683)" class="st3" width="11.3" height="0.5"/>
					</g>
				</g>
				<g>
					<g>
						
							<rect x="126.4" y="365.2" transform="matrix(0.5225 -0.8526 0.8526 0.5225 -249.4488 287.0037)" class="st3" width="10.3" height="2"/>
					</g>
					<g>
						<path class="st0" d="M132.6,364.5c0,0-0.9-3.2,1.5-6.4c1.4-2,9.9-7.9,11.5-4.8C147.3,356.7,139.2,365.7,132.6,364.5z"/>
						<path class="st3" d="M133.8,365.1c-0.4,0-0.9,0-1.3-0.1l-0.3-0.1l-0.1-0.3c0-0.1-0.9-3.5,1.6-6.9c1.3-1.7,7.3-6.1,10.5-5.8
							c1.1,0.1,1.6,0.7,1.8,1.1c0.7,1.4,0.1,3.5-1.6,5.8C142,362.1,137.8,365.1,133.8,365.1z M133,364c3.8,0.5,8.2-2.5,10.7-5.8
							c1.4-1.9,2-3.8,1.5-4.8c-0.1-0.2-0.4-0.5-1-0.6c-2.7-0.2-8.5,3.9-9.6,5.4C132.7,360.8,132.8,363.2,133,364z"/>
					</g>
					<g>
						
							<rect x="131" y="360.3" transform="matrix(0.7226 -0.6913 0.6913 0.7226 -211.3479 194.5083)" class="st3" width="11.3" height="0.5"/>
					</g>
				</g>
				<g>
					<g>
						
							<rect x="123.4" y="336.5" transform="matrix(0.5225 -0.8526 0.8526 0.5225 -226.3542 270.7079)" class="st3" width="10.3" height="2"/>
					</g>
					<g>
						<path class="st0" d="M129.6,335.7c0,0-0.9-3.2,1.5-6.4c1.4-2,9.9-7.9,11.5-4.8C144.3,327.9,136.2,336.9,129.6,335.7z"/>
						<path class="st3" d="M130.8,336.3c-0.4,0-0.9,0-1.3-0.1l-0.3-0.1l-0.1-0.3c0-0.1-0.9-3.5,1.6-6.9c1.3-1.7,7.3-6.1,10.5-5.8
							c1.1,0.1,1.6,0.7,1.8,1.1c0.7,1.4,0.1,3.5-1.6,5.8C139,333.3,134.8,336.3,130.8,336.3z M130,335.3c3.8,0.5,8.2-2.5,10.7-5.8
							c1.4-1.9,2-3.8,1.5-4.8c-0.1-0.2-0.4-0.5-1-0.6c-2.7-0.2-8.5,3.9-9.6,5.4C129.7,332,129.8,334.4,130,335.3z"/>
					</g>
					<g>
						
							<rect x="128" y="331.5" transform="matrix(0.7226 -0.6913 0.6913 0.7226 -192.2935 184.4514)" class="st3" width="11.3" height="0.5"/>
					</g>
					<g>
						<path class="st0" d="M123.5,323.4c0,0-0.9-3.2,1.5-6.4c1.4-2,9.9-7.9,11.5-4.8C138.3,315.6,130.2,324.6,123.5,323.4z"/>
						<path class="st3" d="M124.8,324c-0.4,0-0.9,0-1.3-0.1l-0.3-0.1l-0.1-0.3c0-0.1-0.9-3.5,1.6-6.9c1.3-1.7,7.3-6.1,10.5-5.8
							c1.1,0.1,1.6,0.7,1.8,1.1c0.7,1.4,0.1,3.5-1.6,5.8C133,321.1,128.7,324,124.8,324z M124,323c3.8,0.5,8.2-2.5,10.7-5.8
							c1.4-1.9,2-3.8,1.5-4.8c-0.1-0.2-0.4-0.5-1-0.6c-2.7-0.2-8.5,3.9-9.6,5.4C123.6,319.8,123.8,322.2,124,323z"/>
					</g>
					<g>
						
							<rect x="122" y="319.3" transform="matrix(0.7226 -0.6913 0.6913 0.7226 -185.484 176.8818)" class="st3" width="11.3" height="0.5"/>
					</g>
					<g>
						<path class="st0" d="M124,323.8c0,0-3.3,0.5-6.2-2.2c-1.8-1.6-6.8-10.7-3.5-12C117.8,308.3,125.9,317.3,124,323.8z"/>
						<path class="st3" d="M123.3,324.3c-1.2,0-3.6-0.3-5.9-2.4c-1.6-1.4-5.3-7.9-4.7-11.1c0.2-1.1,0.8-1.5,1.3-1.7
							c1.4-0.6,3.5,0.3,5.6,2.2c3.3,3.1,6,8.4,4.8,12.5l-0.1,0.3l-0.3,0.1C124.1,324.3,123.8,324.3,123.3,324.3z M115,310
							c-0.2,0-0.4,0-0.6,0.1c-0.2,0.1-0.6,0.3-0.7,1c-0.5,2.6,3,8.9,4.4,10.2c2.3,2.1,4.7,2.1,5.5,2.1c0.9-3.7-1.6-8.4-4.6-11.2
							C117.5,310.8,116.1,310,115,310z"/>
					</g>
					<g>
						
							<rect x="120.3" y="313.6" transform="matrix(0.7913 -0.6114 0.6114 0.7913 -170.056 140.3329)" class="st3" width="0.5" height="11.3"/>
					</g>
				</g>
			</g>
		</g>
		<g>
			<g>
				
					<rect x="92.2" y="409.4" transform="matrix(9.960040e-02 -0.995 0.995 9.960040e-02 -265.972 526.9408)" class="st3" width="131.9" height="2"/>
			</g>
			<g>
				<g>
					<g>
						
							<rect x="149" y="456.1" transform="matrix(0.8522 -0.5232 0.5232 0.8522 -219.1291 146.6408)" class="st3" width="2" height="10.3"/>
					</g>
					<g>
						<path class="st0" d="M148.9,459.4c0,0,0.9-3.2-1.5-6.4c-1.4-2-9.9-7.8-11.5-4.7C134.2,451.6,142.3,460.7,148.9,459.4z"/>
						<path class="st3" d="M147.7,460c-4,0-8.2-3-10.6-6.2c-1.7-2.3-2.3-4.4-1.6-5.8c0.2-0.5,0.8-1.1,1.8-1.1
							c3.2-0.3,9.3,4.1,10.5,5.8c2.5,3.4,1.6,6.7,1.6,6.9l-0.1,0.3l-0.3,0.1C148.6,460,148.2,460,147.7,460z M137.6,447.9
							c-0.1,0-0.1,0-0.2,0c-0.7,0.1-0.9,0.4-1,0.6c-0.5,1,0.1,2.8,1.5,4.8c2.4,3.3,6.8,6.3,10.7,5.8c0.1-0.8,0.3-3.2-1.5-5.7
							C145.9,451.8,140.4,447.9,137.6,447.9z"/>
					</g>
					<g>
						<polygon class="st3" points="148.8,459.6 141.1,452.2 141.4,451.9 149.1,459.3 						"/>
					</g>
				</g>
				<g>
					<g>
						
							<rect x="153.3" y="414.6" transform="matrix(0.8522 -0.5232 0.5232 0.8522 -196.8401 142.7831)" class="st3" width="2" height="10.3"/>
					</g>
					<g>
						<path class="st0" d="M153.2,418c0,0,0.9-3.2-1.5-6.4c-1.4-2-9.9-7.8-11.5-4.7C138.5,410.2,146.6,419.2,153.2,418z"/>
						<path class="st3" d="M152,418.6c-4,0-8.2-3-10.6-6.2c-1.7-2.3-2.3-4.4-1.6-5.8c0.2-0.5,0.8-1.1,1.8-1.1
							c3.2-0.3,9.3,4.1,10.5,5.8c2.5,3.4,1.6,6.7,1.6,6.9l-0.1,0.3l-0.3,0.1C152.9,418.6,152.5,418.6,152,418.6z M141.9,406.5
							c-0.1,0-0.1,0-0.2,0c-0.7,0.1-0.9,0.4-1,0.6c-0.5,1,0.1,2.8,1.5,4.8c2.4,3.3,6.8,6.3,10.7,5.8c0.1-0.8,0.3-3.2-1.5-5.7
							C150.2,410.4,144.7,406.5,141.9,406.5z"/>
					</g>
					<g>
						<polygon class="st3" points="153.1,418.2 145.4,410.8 145.7,410.4 153.4,417.9 						"/>
					</g>
				</g>
				<g>
					<g>
						
							<rect x="151.5" y="431.6" transform="matrix(0.8522 -0.5233 0.5233 0.8522 -205.994 144.388)" class="st3" width="2" height="10.3"/>
					</g>
					<g>
						<path class="st0" d="M151.5,435c0,0,0.9-3.2-1.5-6.4c-1.4-2-9.9-7.8-11.5-4.7C136.7,427.2,144.8,436.2,151.5,435z"/>
						<path class="st3" d="M150.2,435.6c-4,0-8.2-3-10.6-6.2c-1.7-2.3-2.3-4.4-1.6-5.8c0.2-0.5,0.8-1.1,1.8-1.1
							c3.2-0.3,9.3,4.1,10.5,5.8c2.5,3.4,1.6,6.7,1.6,6.9l-0.1,0.3l-0.3,0.1C151.1,435.6,150.7,435.6,150.2,435.6z M140.1,423.4
							c-0.1,0-0.1,0-0.2,0c-0.7,0.1-0.9,0.4-1,0.6c-0.5,1,0.1,2.8,1.5,4.8c2.4,3.3,6.8,6.3,10.7,5.8c0.1-0.8,0.3-3.2-1.5-5.7
							C148.5,427.3,142.9,423.4,140.1,423.4z"/>
					</g>
					<g>
						<polygon class="st3" points="151.3,435.2 143.6,427.8 143.9,427.4 151.7,434.8 						"/>
					</g>
				</g>
				<g>
					<g>
						
							<rect x="156.2" y="387.1" transform="matrix(0.8522 -0.5232 0.5232 0.8522 -181.9938 140.2051)" class="st3" width="2" height="10.3"/>
					</g>
					<g>
						<path class="st0" d="M156.1,390.5c0,0,0.9-3.2-1.5-6.4c-1.4-2-9.9-7.8-11.5-4.7C141.4,382.7,149.4,391.7,156.1,390.5z"/>
						<path class="st3" d="M154.9,391.1c-4,0-8.2-3-10.6-6.2c-1.7-2.3-2.3-4.4-1.6-5.8c0.2-0.5,0.8-1.1,1.8-1.1
							c3.2-0.3,9.3,4.1,10.5,5.8c2.5,3.4,1.6,6.7,1.6,6.9l-0.1,0.3l-0.3,0.1C155.8,391,155.3,391.1,154.9,391.1z M144.8,378.9
							c-0.1,0-0.1,0-0.2,0c-0.7,0.1-0.9,0.4-1,0.6c-0.5,1,0.1,2.8,1.5,4.8c2.4,3.3,6.8,6.3,10.7,5.8c0.1-0.8,0.3-3.2-1.5-5.7
							C153.1,382.8,147.5,378.9,144.8,378.9z"/>
					</g>
					<g>
						<polygon class="st3" points="155.9,390.6 148.2,383.2 148.6,382.9 156.3,390.3 						"/>
					</g>
				</g>
				<g>
					<g>
						
							<rect x="159" y="359.4" transform="matrix(0.8522 -0.5233 0.5233 0.8522 -167.0846 137.6188)" class="st3" width="2" height="10.3"/>
					</g>
					<g>
						<path class="st0" d="M159,362.8c0,0,0.9-3.2-1.5-6.4c-1.4-2-9.9-7.8-11.5-4.7C144.2,355,152.3,364,159,362.8z"/>
						<path class="st3" d="M157.7,363.4c-4,0-8.2-3-10.6-6.2c-1.7-2.3-2.3-4.4-1.6-5.8c0.2-0.5,0.8-1.1,1.8-1.1
							c3.2-0.3,9.3,4.1,10.5,5.8c2.5,3.4,1.6,6.7,1.6,6.9l-0.1,0.3l-0.3,0.1C158.6,363.4,158.2,363.4,157.7,363.4z M147.6,351.2
							c-0.1,0-0.1,0-0.2,0c-0.7,0.1-0.9,0.4-1,0.6c-0.5,1,0.1,2.8,1.5,4.8c2.4,3.3,6.8,6.3,10.7,5.8c0.1-0.8,0.3-3.2-1.5-5.7
							C155.9,355.1,150.4,351.2,147.6,351.2z"/>
					</g>
					<g>
						<polygon class="st3" points="158.8,363 151.1,355.6 151.4,355.2 159.2,362.6 						"/>
					</g>
				</g>
				<g>
					<g>
						
							<rect x="152" y="450.8" transform="matrix(0.6873 -0.7264 0.7264 0.6873 -279.0155 255.383)" class="st3" width="10.3" height="2"/>
					</g>
					<g>
						<path class="st0" d="M158.5,450.3c0,0-0.2-3.3,2.8-6c1.8-1.6,11.3-5.6,12.3-2.3C174.5,445.7,164.8,452.8,158.5,450.3z"/>
						<path class="st3" d="M161.4,451.3c-1.1,0-2.1-0.2-3.1-0.6l-0.3-0.1l0-0.3c0-0.1-0.2-3.6,3-6.4c1.6-1.4,8.4-4.4,11.5-3.5
							c1,0.3,1.4,1,1.6,1.5c0.4,1.5-0.6,3.4-2.8,5.3C168.7,449.5,164.9,451.3,161.4,451.3z M159,449.9c3.6,1.3,8.5-0.7,11.6-3.5
							c1.8-1.6,2.8-3.3,2.5-4.3c-0.1-0.3-0.2-0.6-0.9-0.8c-2.6-0.8-9.1,2-10.6,3.3C159.3,446.7,159,449.1,159,449.9z"/>
					</g>
					<g>
						
							<rect x="157.6" y="447" transform="matrix(0.8502 -0.5265 0.5265 0.8502 -211.0258 152.9883)" class="st3" width="11.3" height="0.5"/>
					</g>
				</g>
				<g>
					<g>
						
							<rect x="156.6" y="406.1" transform="matrix(0.6873 -0.7264 0.7264 0.6873 -245.131 244.7856)" class="st3" width="10.3" height="2"/>
					</g>
					<g>
						<path class="st0" d="M163.1,405.6c0,0-0.2-3.3,2.8-6c1.8-1.6,11.3-5.6,12.3-2.3C179.2,401,169.4,408.2,163.1,405.6z"/>
						<path class="st3" d="M166,406.6c-1.1,0-2.1-0.2-3.1-0.6l-0.3-0.1l0-0.3c0-0.1-0.2-3.6,3-6.4c1.6-1.4,8.4-4.5,11.5-3.5
							c1,0.3,1.4,1,1.6,1.5c0.4,1.5-0.6,3.4-2.8,5.3C173.3,404.8,169.5,406.6,166,406.6z M163.6,405.3c3.6,1.3,8.5-0.7,11.6-3.5
							c1.8-1.6,2.8-3.3,2.5-4.3c-0.1-0.3-0.2-0.6-0.9-0.8c-2.6-0.8-9.1,2-10.6,3.3C164,402,163.7,404.4,163.6,405.3z"/>
					</g>
					<g>
						
							<rect x="162.3" y="402.4" transform="matrix(0.8502 -0.5265 0.5265 0.8502 -186.8211 148.7378)" class="st3" width="11.3" height="0.5"/>
					</g>
				</g>
				<g>
					<g>
						
							<rect x="158.7" y="386.5" transform="matrix(0.6873 -0.7264 0.7264 0.6873 -230.2401 240.1286)" class="st3" width="10.3" height="2"/>
					</g>
					<g>
						<path class="st0" d="M165.2,386c0,0-0.2-3.3,2.8-6c1.8-1.6,11.3-5.6,12.3-2.3C181.2,381.4,171.5,388.6,165.2,386z"/>
						<path class="st3" d="M168.1,387c-1.1,0-2.1-0.2-3.1-0.6l-0.3-0.1l0-0.3c0-0.1-0.2-3.6,3-6.4c1.6-1.4,8.4-4.4,11.5-3.5
							c1,0.3,1.4,1,1.6,1.5c0.4,1.5-0.6,3.4-2.8,5.3C175.4,385.2,171.5,387,168.1,387z M165.7,385.6c3.6,1.3,8.5-0.7,11.6-3.5
							c1.8-1.6,2.8-3.3,2.5-4.3c-0.1-0.3-0.2-0.6-0.9-0.8c-2.6-0.8-9.1,2-10.6,3.3C166,382.4,165.7,384.8,165.7,385.6z"/>
					</g>
					<g>
						
							<rect x="164.3" y="382.8" transform="matrix(0.8502 -0.5265 0.5265 0.8502 -176.1842 146.8698)" class="st3" width="11.3" height="0.5"/>
					</g>
				</g>
				<g>
					<g>
						
							<rect x="161.6" y="357.7" transform="matrix(0.6873 -0.7264 0.7264 0.6873 -208.4099 233.3013)" class="st3" width="10.3" height="2"/>
					</g>
					<g>
						<path class="st0" d="M168.2,357.2c0,0-0.2-3.3,2.8-6c1.8-1.6,11.3-5.6,12.3-2.3C184.2,352.6,174.4,359.8,168.2,357.2z"/>
						<path class="st3" d="M171.1,358.3c-1.1,0-2.1-0.2-3.1-0.6l-0.3-0.1l0-0.3c0-0.1-0.2-3.6,3-6.4c1.6-1.4,8.4-4.4,11.5-3.5
							c1,0.3,1.4,1,1.6,1.5c0.4,1.5-0.6,3.4-2.8,5.3C178.4,356.4,174.5,358.3,171.1,358.3z M168.7,356.9c3.6,1.3,8.5-0.7,11.6-3.5
							c1.8-1.6,2.8-3.3,2.5-4.3c-0.1-0.3-0.2-0.6-0.9-0.8c-2.6-0.8-9.1,2-10.6,3.3C169,353.6,168.7,356,168.7,356.9z"/>
					</g>
					<g>
						
							<rect x="167.3" y="354" transform="matrix(0.8502 -0.5265 0.5265 0.8502 -160.5904 144.1314)" class="st3" width="11.3" height="0.5"/>
					</g>
					<g>
						<path class="st0" d="M164.8,344c0,0-0.2-3.3,2.8-6c1.8-1.6,11.3-5.6,12.3-2.3C180.8,339.4,171.1,346.5,164.8,344z"/>
						<path class="st3" d="M167.7,345c-1.1,0-2.1-0.2-3.1-0.6l-0.3-0.1l0-0.3c0-0.1-0.2-3.6,3-6.4c1.6-1.4,8.4-4.5,11.5-3.5
							c1,0.3,1.4,1,1.6,1.5c0.4,1.5-0.6,3.4-2.8,5.3C175,343.2,171.1,345,167.7,345z M165.3,343.6c3.6,1.3,8.5-0.7,11.6-3.5
							c1.8-1.6,2.8-3.3,2.5-4.3c-0.1-0.3-0.2-0.6-0.9-0.8c-2.6-0.8-9.1,2-10.6,3.3C165.6,340.4,165.3,342.8,165.3,343.6z"/>
					</g>
					<g>
						
							<rect x="163.9" y="340.7" transform="matrix(0.8502 -0.5265 0.5265 0.8502 -154.1212 140.3723)" class="st3" width="11.3" height="0.5"/>
					</g>
					<g>
						<path class="st0" d="M165.2,344.4c0,0-3.3-0.1-5.7-3.4c-1.4-2-4.4-11.9-1-12.4C162.3,328,168.4,338.4,165.2,344.4z"/>
						<path class="st3" d="M165.5,344.9l-0.3,0c-0.1,0-3.6-0.2-6-3.6c-1.3-1.7-3.5-8.8-2.3-11.8c0.4-1,1.1-1.3,1.7-1.4
							c1.5-0.2,3.4,1,5,3.3c2.6,3.7,4.2,9.4,2.1,13.3L165.5,344.9z M158.8,329c-0.1,0-0.2,0-0.2,0c-0.3,0-0.6,0.2-0.9,0.8
							c-1,2.5,1.1,9.3,2.2,10.8c1.8,2.5,4.1,3,5,3.2c1.6-3.5,0.2-8.6-2.2-11.9C161.4,330.1,159.9,329,158.8,329z"/>
					</g>
					<g>
						<polygon class="st3" points="165,344.5 160,334.3 160.5,334.1 165.4,344.3 						"/>
					</g>
				</g>
			</g>
		</g>
		<g>
			
				<rect x="50.4" y="379.2" transform="matrix(4.882754e-03 -1 1 4.882754e-03 -234.3643 524.8196)" class="st3" width="192.2" height="2"/>
		</g>
		<g>
			<g>
				<g>
					
						<rect x="143" y="435.2" transform="matrix(0.7936 -0.6084 0.6084 0.7936 -238.1605 178.5006)" class="st3" width="2" height="10.3"/>
				</g>
				<g>
					<path class="st0" d="M142.8,438.7c0,0,0.5-3.3-2.2-6.2c-1.6-1.8-10.7-6.8-12-3.5C127.3,432.4,136.3,440.6,142.8,438.7z"/>
					<path class="st3" d="M140.8,439.4c-3.7,0-7.8-2.4-10.4-5.1c-2-2.1-2.8-4.2-2.2-5.6c0.2-0.5,0.6-1.1,1.7-1.3
						c3.2-0.6,9.6,3.1,11.1,4.7c2.8,3.1,2.3,6.5,2.3,6.7l-0.1,0.3l-0.3,0.1C142.2,439.3,141.5,439.4,140.8,439.4z M130.7,428.3
						c-0.2,0-0.4,0-0.6,0c-0.7,0.1-0.9,0.5-1,0.7c-0.4,1,0.4,2.8,2,4.6c2.8,3,7.4,5.5,11.2,4.6c0.1-0.8,0-3.2-2.1-5.5
						C139,431.4,133.5,428.3,130.7,428.3z"/>
				</g>
				<g>
					
						<rect x="138.3" y="430" transform="matrix(0.6141 -0.7892 0.7892 0.6141 -290.1374 277.394)" class="st3" width="0.5" height="10.7"/>
				</g>
			</g>
			<g>
				<g>
					
						<rect x="143" y="399.7" transform="matrix(0.7936 -0.6085 0.6085 0.7936 -216.6001 171.2032)" class="st3" width="2" height="10.3"/>
				</g>
				<g>
					<path class="st0" d="M142.8,403.2c0,0,0.5-3.3-2.2-6.2c-1.6-1.8-10.7-6.8-12-3.5C127.3,397,136.3,405.1,142.8,403.2z"/>
					<path class="st3" d="M140.8,404c-3.7,0-7.8-2.4-10.4-5.1c-2-2.1-2.8-4.2-2.2-5.6c0.2-0.5,0.6-1.1,1.7-1.3
						c3.2-0.6,9.6,3.1,11.1,4.7c2.8,3.1,2.3,6.5,2.3,6.7l-0.1,0.3l-0.3,0.1C142.2,403.9,141.5,404,140.8,404z M130.7,392.9
						c-0.2,0-0.4,0-0.6,0c-0.7,0.1-0.9,0.5-1,0.7c-0.4,1,0.4,2.8,2,4.6c2.8,3,7.4,5.5,11.2,4.6c0.1-0.8,0-3.2-2.1-5.5
						C139.1,396,133.5,392.9,130.7,392.9z"/>
				</g>
				<g>
					
						<rect x="138.3" y="394.6" transform="matrix(0.6141 -0.7892 0.7892 0.6141 -262.1423 263.6811)" class="st3" width="0.5" height="10.7"/>
				</g>
			</g>
			<g>
				<g>
					
						<rect x="143" y="358.1" transform="matrix(0.7936 -0.6085 0.6085 0.7936 -191.2688 162.6095)" class="st3" width="2" height="10.3"/>
				</g>
				<g>
					<path class="st0" d="M142.8,361.6c0,0,0.5-3.3-2.2-6.2c-1.6-1.8-10.7-6.8-12-3.5C127.3,355.3,136.3,363.5,142.8,361.6z"/>
					<path class="st3" d="M140.8,362.4c-3.7,0-7.8-2.4-10.4-5.1c-2-2.1-2.8-4.2-2.2-5.6c0.2-0.5,0.6-1.1,1.7-1.3
						c3.2-0.6,9.6,3.1,11.1,4.7c2.8,3.1,2.3,6.5,2.3,6.7l-0.1,0.3l-0.3,0.1C142.2,362.3,141.5,362.4,140.8,362.4z M130.7,351.2
						c-0.2,0-0.4,0-0.6,0c-0.7,0.1-0.9,0.5-1,0.7c-0.4,1,0.4,2.8,2,4.6c2.8,3,7.4,5.5,11.2,4.6c0.1-0.8,0-3.2-2.1-5.5
						C139.1,354.3,133.5,351.2,130.7,351.2z"/>
				</g>
				<g>
					
						<rect x="138.3" y="352.9" transform="matrix(0.6141 -0.7892 0.7892 0.6141 -229.2873 247.6174)" class="st3" width="0.5" height="10.7"/>
				</g>
			</g>
			<g>
				<g>
					
						<rect x="143" y="330.4" transform="matrix(0.7936 -0.6084 0.6084 0.7936 -174.3956 156.8703)" class="st3" width="2" height="10.3"/>
				</g>
				<g>
					<path class="st0" d="M142.8,333.9c0,0,0.5-3.3-2.2-6.2c-1.6-1.8-10.7-6.8-12-3.5C127.3,327.6,136.3,335.8,142.8,333.9z"/>
					<path class="st3" d="M140.8,334.6c-3.7,0-7.8-2.4-10.4-5.1c-2-2.1-2.8-4.2-2.2-5.6c0.2-0.5,0.6-1.1,1.7-1.3
						c3.2-0.6,9.6,3.1,11.1,4.7c2.8,3.1,2.3,6.5,2.3,6.7l-0.1,0.3l-0.3,0.1C142.2,334.5,141.5,334.6,140.8,334.6z M130.7,323.5
						c-0.2,0-0.4,0-0.6,0c-0.7,0.1-0.9,0.5-1,0.7c-0.4,1,0.4,2.8,2,4.6c2.8,3,7.4,5.5,11.2,4.6c0.1-0.8,0-3.2-2.1-5.5
						C139.1,326.6,133.5,323.5,130.7,323.5z"/>
				</g>
				<g>
					
						<rect x="138.3" y="325.2" transform="matrix(0.6141 -0.7892 0.7892 0.6141 -207.4227 236.9489)" class="st3" width="0.5" height="10.7"/>
				</g>
			</g>
			<g>
				<g>
					
						<rect x="143" y="302.5" transform="matrix(0.7936 -0.6085 0.6085 0.7936 -157.4694 151.143)" class="st3" width="2" height="10.3"/>
				</g>
				<g>
					<path class="st0" d="M142.8,306c0,0,0.5-3.3-2.2-6.2c-1.6-1.8-10.7-6.8-12-3.5C127.3,299.8,136.3,307.9,142.8,306z"/>
					<path class="st3" d="M140.8,306.8c-3.7,0-7.8-2.4-10.4-5.1c-2-2.1-2.8-4.2-2.2-5.6c0.2-0.5,0.6-1.1,1.7-1.3
						c3.2-0.6,9.6,3.1,11.1,4.7c2.8,3.1,2.3,6.5,2.3,6.7l-0.1,0.3l-0.3,0.1C142.2,306.7,141.5,306.8,140.8,306.8z M130.7,295.7
						c-0.2,0-0.4,0-0.6,0c-0.7,0.1-0.9,0.5-1,0.7c-0.4,1,0.4,2.8,2,4.6c2.8,3,7.4,5.5,11.2,4.6c0.1-0.8,0-3.2-2.1-5.5
						C139.1,298.8,133.5,295.7,130.7,295.7z"/>
				</g>
				<g>
					
						<rect x="138.3" y="297.4" transform="matrix(0.6141 -0.7892 0.7892 0.6141 -185.4491 226.1837)" class="st3" width="0.5" height="10.7"/>
				</g>
			</g>
			<g>
				<g>
					
						<rect x="145" y="450.1" transform="matrix(0.6085 -0.7936 0.7936 0.6085 -299.2139 295.7621)" class="st3" width="10.3" height="2"/>
				</g>
				<g>
					<path class="st0" d="M151.4,449.5c0,0-0.5-3.3,2.2-6.2c1.6-1.8,10.7-6.8,12-3.5C166.8,443.2,157.9,451.4,151.4,449.5z"/>
					<path class="st3" d="M153.4,450.3c-0.7,0-1.5-0.1-2.2-0.3l-0.3-0.1l-0.1-0.3c0-0.1-0.6-3.5,2.3-6.7c1.4-1.6,7.9-5.3,11.1-4.7
						c1.1,0.2,1.5,0.8,1.7,1.3c0.6,1.4-0.2,3.5-2.2,5.6C161.2,447.9,157.1,450.3,153.4,450.3z M151.8,449.1
						c3.7,0.9,8.4-1.6,11.2-4.6c1.6-1.8,2.4-3.5,2-4.6c-0.1-0.2-0.3-0.6-1-0.7c-2.6-0.5-8.9,3-10.2,4.4
						C151.8,445.8,151.8,448.2,151.8,449.1z"/>
				</g>
				<g>
					
						<rect x="150.2" y="445.8" transform="matrix(0.7905 -0.6124 0.6124 0.7905 -240.526 188.8744)" class="st3" width="11.3" height="0.5"/>
				</g>
			</g>
			<g>
				<g>
					
						<rect x="145" y="393.7" transform="matrix(0.6085 -0.7936 0.7936 0.6085 -254.4606 273.6824)" class="st3" width="10.3" height="2"/>
				</g>
				<g>
					<path class="st0" d="M151.4,393.1c0,0-0.5-3.3,2.2-6.2c1.6-1.8,10.7-6.8,12-3.5C166.8,386.8,157.9,395,151.4,393.1z"/>
					<path class="st3" d="M153.4,393.9c-0.7,0-1.5-0.1-2.2-0.3l-0.3-0.1l-0.1-0.3c0-0.1-0.6-3.5,2.3-6.7c1.4-1.6,7.9-5.3,11.1-4.7
						c1.1,0.2,1.5,0.8,1.7,1.3c0.6,1.4-0.2,3.5-2.2,5.6C161.2,391.5,157.1,393.9,153.4,393.9z M151.8,392.7
						c3.7,0.9,8.4-1.6,11.2-4.6c1.6-1.8,2.4-3.5,2-4.6c-0.1-0.2-0.3-0.6-1-0.7c-2.6-0.5-8.9,3-10.2,4.4
						C151.8,389.5,151.8,391.9,151.8,392.7z"/>
				</g>
				<g>
					
						<rect x="150.2" y="389.4" transform="matrix(0.7905 -0.6124 0.6124 0.7905 -205.9869 177.0602)" class="st3" width="11.3" height="0.5"/>
				</g>
			</g>
			<g>
				<g>
					
						<rect x="145" y="365.9" transform="matrix(0.6085 -0.7936 0.7936 0.6085 -232.3721 262.7848)" class="st3" width="10.3" height="2"/>
				</g>
				<g>
					<path class="st0" d="M151.4,365.3c0,0-0.5-3.3,2.2-6.2c1.6-1.8,10.7-6.8,12-3.5C166.8,359,157.9,367.2,151.4,365.3z"/>
					<path class="st3" d="M153.4,366c-0.7,0-1.5-0.1-2.2-0.3l-0.3-0.1l-0.1-0.3c0-0.1-0.6-3.5,2.3-6.7c1.4-1.6,7.9-5.3,11.1-4.7
						c1.1,0.2,1.5,0.8,1.7,1.3c0.6,1.4-0.2,3.5-2.2,5.6C161.2,363.7,157.1,366,153.4,366z M151.8,364.9c3.7,0.9,8.4-1.6,11.2-4.6
						c1.6-1.8,2.4-3.5,2-4.6c-0.1-0.2-0.3-0.6-1-0.7c-2.6-0.5-8.9,3-10.2,4.4C151.8,361.6,151.8,364,151.8,364.9z"/>
				</g>
				<g>
					
						<rect x="150.2" y="361.6" transform="matrix(0.7905 -0.6124 0.6124 0.7905 -188.94 171.2292)" class="st3" width="11.3" height="0.5"/>
				</g>
			</g>
			<g>
				<g>
					
						<rect x="145" y="329.1" transform="matrix(0.6085 -0.7936 0.7936 0.6085 -203.1771 248.381)" class="st3" width="10.3" height="2"/>
				</g>
				<g>
					<path class="st0" d="M151.4,328.5c0,0-0.5-3.3,2.2-6.2c1.6-1.8,10.7-6.8,12-3.5C166.8,322.2,157.9,330.4,151.4,328.5z"/>
					<path class="st3" d="M153.4,329.2c-0.7,0-1.5-0.1-2.2-0.3l-0.3-0.1l-0.1-0.3c0-0.1-0.6-3.5,2.3-6.7c1.4-1.6,7.9-5.3,11.1-4.7
						c1.1,0.2,1.5,0.8,1.7,1.3c0.6,1.4-0.2,3.5-2.2,5.6C161.2,326.9,157.1,329.2,153.4,329.2z M151.8,328.1
						c3.7,0.9,8.4-1.6,11.2-4.6c1.6-1.8,2.4-3.5,2-4.6c-0.1-0.2-0.3-0.6-1-0.7c-2.6-0.5-8.9,3-10.2,4.4
						C151.8,324.8,151.8,327.2,151.8,328.1z"/>
				</g>
				<g>
					
						<rect x="150.2" y="324.8" transform="matrix(0.7905 -0.6124 0.6124 0.7905 -166.408 163.5221)" class="st3" width="11.3" height="0.5"/>
				</g>
			</g>
			<g>
				<g>
					
						<rect x="145" y="300.2" transform="matrix(0.6085 -0.7936 0.7936 0.6085 -180.2241 237.0568)" class="st3" width="10.3" height="2"/>
				</g>
				<g>
					<path class="st0" d="M151.4,299.5c0,0-0.5-3.3,2.2-6.2c1.6-1.8,10.7-6.8,12-3.5C166.8,293.3,157.9,301.4,151.4,299.5z"/>
					<path class="st3" d="M153.4,300.3c-0.7,0-1.5-0.1-2.2-0.3l-0.3-0.1l-0.1-0.3c0-0.1-0.6-3.5,2.3-6.7c1.4-1.6,7.9-5.3,11.1-4.7
						c1.1,0.2,1.5,0.8,1.7,1.3c0.6,1.4-0.2,3.5-2.2,5.6C161.2,298,157.1,300.3,153.4,300.3z M151.8,299.2c3.7,0.9,8.4-1.6,11.2-4.6
						c1.6-1.8,2.4-3.5,2-4.6c-0.1-0.2-0.3-0.6-1-0.7c-2.6-0.5-8.9,3-10.2,4.4C151.8,295.9,151.8,298.3,151.8,299.2z"/>
				</g>
				<g>
					
						<rect x="150.2" y="295.8" transform="matrix(0.7905 -0.6124 0.6124 0.7905 -148.6936 157.4628)" class="st3" width="11.3" height="0.5"/>
				</g>
				<g>
					<path class="st0" d="M146.6,286.7c0,0-0.5-3.3,2.2-6.2c1.6-1.8,10.7-6.8,12-3.5C162.1,280.5,153.2,288.6,146.6,286.7z"/>
					<path class="st3" d="M148.7,287.5c-0.7,0-1.5-0.1-2.2-0.3l-0.3-0.1l-0.1-0.3c0-0.1-0.6-3.5,2.3-6.7c1.4-1.6,7.9-5.3,11.1-4.7
						c1.1,0.2,1.5,0.8,1.7,1.3c0.6,1.4-0.2,3.5-2.2,5.6C156.5,285.1,152.4,287.5,148.7,287.5z M147.1,286.3
						c3.7,0.9,8.4-1.6,11.2-4.6c1.6-1.8,2.4-3.5,2-4.6c-0.1-0.2-0.3-0.6-1-0.7c-2.6-0.5-8.9,3-10.2,4.4
						C147.1,283.1,147,285.5,147.1,286.3z"/>
				</g>
				<g>
					
						<rect x="145.5" y="283" transform="matrix(0.7905 -0.6124 0.6124 0.7905 -141.8257 151.8849)" class="st3" width="11.3" height="0.5"/>
				</g>
				<g>
					<path class="st0" d="M147.1,287.1c0,0-3.3,0.2-6-2.8c-1.6-1.8-5.6-11.4-2.3-12.3C142.5,271.1,149.6,280.8,147.1,287.1z"/>
					<path class="st3" d="M146.9,287.6c-0.7,0-3.7-0.2-6.2-3c-1.4-1.6-4.4-8.4-3.5-11.5c0.3-1,1-1.4,1.5-1.6
						c1.5-0.4,3.4,0.6,5.3,2.8c3,3.4,5.1,8.9,3.5,13l-0.1,0.3l-0.3,0C147.1,287.6,147,287.6,146.9,287.6z M139.4,272.5
						c-0.1,0-0.3,0-0.4,0.1c-0.3,0.1-0.6,0.2-0.8,0.9c-0.8,2.6,2,9.1,3.3,10.6c2,2.3,4.4,2.6,5.3,2.6c1.3-3.6-0.7-8.5-3.4-11.6
						C141.9,273.4,140.4,272.5,139.4,272.5z"/>
				</g>
				<g>
					<polygon class="st3" points="146.9,287.2 140.9,277.6 141.3,277.4 147.3,287 					"/>
				</g>
			</g>
		</g>
	</g>
</g>
<g id="Character">
	<g>
		<g>
			<polygon class="st3" points="401,476.2 395.3,409.6 258.4,409.6 250.9,476.2 			"/>
			<path class="st3" d="M401.6,476.8H250.3l7.7-67.6h137.8l0,0.5L401.6,476.8z M251.4,475.8h149.1l-5.7-65.6H258.9L251.4,475.8z"/>
		</g>
		<g>
			<path class="st0" d="M317.2,207.7c0,0-40,11-57.5,24.2c-17.5,13.2-29.6,26.8-26.8,52.4c2.8,25.6,21.1,95.8,21.1,95.8
				s-2.5,28.5-2.5,30.2c0,1.7-0.3,6.5,5.9,6.8c6.2,0.3,80.6,3.4,97.2,3.7c16.6,0.3,38.6-1.4,41.2-3.4c2.5-2,3.9-5.1,4.2-8.5
				c0.3-3.4,3.1-44.8,3.1-44.8l0.3-18.6c0,0,18.3-60.9,19.4-80.6c1.1-19.7-6.2-26.2-14.4-32.4c-8.2-6.2-33.6-16.7-47.4-20.9
				C347.4,207.5,317.2,207.7,317.2,207.7z"/>
			<path class="st3" d="M358.4,421.3c-1.3,0-2.5,0-3.7,0c-16.8-0.3-90.8-3.4-97.3-3.7c-6.4-0.3-6.4-5.2-6.4-7.1l0-0.2
				c0-1.7,2.3-28.1,2.5-30.1c-0.7-2.8-18.4-70.8-21.1-95.8c-2.7-24.9,8.3-38.7,27-52.9c17.4-13.2,57.3-24.2,57.7-24.3l0.1,0
				c0.3,0,30.5-0.2,44.1,4c13.3,4,39.2,14.6,47.5,20.9c8.9,6.8,15.7,13.5,14.6,32.8c-1.1,19.3-18.7,78.3-19.4,80.7l-0.3,18.5
				c0,0.4-2.8,41.5-3.1,44.8c-0.3,3.7-1.9,6.8-4.4,8.8C393.6,419.8,373.9,421.3,358.4,421.3z M317.3,208.2
				c-1.8,0.5-40.4,11.3-57.3,24.1c-18.4,14-29.3,27.5-26.6,52c2.8,25.3,20.9,95.1,21.1,95.8l0,0.1l0,0.1c0,0.3-2.5,28.5-2.5,30.1
				l0,0.2c0,1.9,0,5.8,5.4,6c6.4,0.3,80.4,3.4,97.2,3.7c16.7,0.3,38.5-1.5,40.8-3.3c2.3-1.8,3.8-4.7,4-8.1
				c0.3-3.3,3.1-44.4,3.1-44.8l0.3-18.7c0.2-0.6,18.3-61,19.4-80.5c1.1-18.9-5.5-25.4-14.2-32c-8.3-6.3-33.9-16.8-47.2-20.8
				C347.8,208.1,318.9,208.2,317.3,208.2z"/>
		</g>
		<g>
			<path class="st3" d="M317.8,409h-1c0-1.7,0.7-3.4,1.5-5.2c1.4-3.3,3.2-7.3,2.9-14.8c-0.3-8.6,3.2-58.1,5.3-86.8l1,0.1
				c-2.1,28.7-5.6,78.1-5.3,86.7c0.3,7.7-1.6,12-3,15.2C318.4,406,317.8,407.4,317.8,409z"/>
		</g>
		<g>
			<path class="st3" d="M328,296.7l-1-0.1c0.6-7.4,0.9-12.1,0.9-12.1l1,0.1C328.9,284.6,328.6,289.3,328,296.7z"/>
		</g>
		<g>
			<polygon class="st3" points="346.3,319.8 348.8,350 363.2,349 			"/>
			<path class="st3" d="M348.4,350.6l-2.8-32.9l18.4,31.8L348.4,350.6z M347,322l2.3,27.5l13-0.9L347,322z"/>
		</g>
		<g>
			<path class="st3" d="M332.7,372.5c0,0,35-5.5,37.6-4.9c2.6,0.6,20.6,9.3,23.2,9.8c2.6,0.6,4.9,1.7,4.9,1.7l3.9,3.3l-1.3-9.9
				c0,0-5.2-6.4-16.8-11c-11.6-4.6-17.4-2-20-1.2C361.6,361.2,332.7,372.5,332.7,372.5z"/>
			<path class="st3" d="M403,383.6l-4.9-4.1c-0.3-0.2-2.5-1.2-4.8-1.7c-1.4-0.3-6.4-2.6-11.7-5c-5-2.3-10.2-4.6-11.5-4.9
				c-1.8-0.4-23.4,2.7-37.4,4.9l-4.6,0.7l4.3-1.7c1.2-0.5,29-11.3,31.6-12.2l0.5-0.2c2.8-1,8.8-3.1,19.8,1.4
				c11.6,4.6,16.8,10.9,17,11.1l0.1,0.1L403,383.6z M369.7,367c0.3,0,0.5,0,0.7,0c1.4,0.3,6.4,2.6,11.7,5c5,2.3,10.2,4.6,11.5,4.9
				c2.6,0.6,4.9,1.7,5,1.8l0.1,0.1l2.9,2.5l-1.1-8.5c-0.7-0.8-6-6.5-16.5-10.7c-10.7-4.3-16.4-2.3-19.1-1.3l-0.5,0.2
				c-2,0.7-19.1,7.3-27.3,10.5C346.3,369.9,365.4,367,369.7,367z"/>
		</g>
		<g>
			<path class="st2" d="M278.9,346.1l91-0.3c0,0,29.3-2.8,30.4-3.1c1.1-0.3,12.7,2.8,13.8,3.7c1.1,0.8,1.1,3.4,0.6,5.9
				c-0.6,2.5-0.6,2.5-0.6,2.5s0.8,4.5,0.8,6.5c0,2-2.3,2.5-2.5,3.4c-0.3,0.8,1.7,3.9-0.6,5.9c-2.3,2-2.3,2-2.3,2s-0.3,5.4-1.4,6.8
				c-1.1,1.4-4.5,3.9-5.9,3.1s-0.8-3.1-0.8-4.5s-0.6-2.8-2.3-2.8c-1.7,0-2,1.4-10.7-0.8c-8.7-2.3-18.3-9.9-19.2-10.1
				c-0.8-0.3-77.2,20.3-99.8,23.1s-24.5-0.3-25.4-3.9c-0.8-3.7-2.3-12.4-2.3-12.4l-3.9-17.2L278.9,346.1z"/>
			<path class="st3" d="M255.4,388.8c-9.4,0-10.9-2.4-11.6-5.4c-0.8-3.6-2.2-12.3-2.3-12.4l-4.1-17.7l0.5-0.1l41-7.6l91-0.3
				c11.7-1.1,29.5-2.9,30.3-3.1c1.4-0.3,13.2,2.9,14.2,3.7c1.7,1.3,1.1,4.9,0.8,6.4l-0.5,2.4c0.1,0.7,0.8,4.6,0.8,6.5
				c0,1.5-1.1,2.3-1.9,2.9c-0.3,0.2-0.7,0.5-0.7,0.6c0,0.1,0.1,0.6,0.2,1c0.3,1.3,0.9,3.6-0.9,5.2l-2.1,1.8
				c-0.1,1.1-0.4,5.5-1.5,6.8c-1.2,1.4-4.8,4.3-6.6,3.2c-1.4-0.8-1.2-2.6-1.1-4c0-0.3,0-0.7,0-0.9c0-0.9-0.2-2.3-1.8-2.3
				c-0.3,0-0.6,0.1-1,0.2c-1.3,0.3-3.1,0.7-9.9-1c-6.9-1.8-14.4-6.9-17.6-9.1c-0.7-0.5-1.3-0.9-1.5-1c-1,0.1-8,1.9-16.7,4.1
				c-23.4,5.9-66.9,17-82.9,19C263.5,388.5,258.9,388.8,255.4,388.8z M238.6,354.1l3.8,16.7c0,0.1,1.4,8.8,2.3,12.4
				c0.7,2.9,1.5,6.5,24.8,3.6c15.9-2,59.4-13,82.8-19c15.8-4,16.9-4.2,17.2-4.1c0.2,0.1,0.7,0.4,1.9,1.2c3.2,2.2,10.6,7.2,17.3,9
				c6.6,1.7,8.3,1.3,9.4,1c0.4-0.1,0.7-0.2,1.2-0.2c1.7,0,2.8,1.3,2.8,3.3c0,0.3,0,0.7-0.1,1c-0.1,1.2-0.2,2.5,0.7,3.1
				c1,0.6,4.1-1.5,5.3-3c0.8-1.1,1.2-5,1.3-6.5l0-0.2l2.4-2.1c1.4-1.2,0.9-2.8,0.6-4.1c-0.2-0.7-0.3-1.2-0.2-1.6
				c0.2-0.5,0.6-0.8,1.1-1.1c0.7-0.5,1.5-1.1,1.5-2.1c0-1.9-0.8-6.3-0.8-6.4l0-0.1l0.6-2.6c0.6-2.7,0.4-4.8-0.4-5.4
				c-1-0.8-12.3-3.8-13.4-3.6c-1.1,0.3-27.5,2.8-30.5,3.1l-91,0.3L238.6,354.1z"/>
		</g>
		<g>
			<path class="st0" d="M338.1,240.7c0,0,4.7-4.9,7.7-2.7c3,2.2,5.7,14.1,9.4,13.1c3.7-1,11.1-24,11.1-33.2c0-9.2-6.4-14.6-7.9-15.1
				c-1.5-0.5-39.3-1-43.8,0.7s-6.2,17.3-7.9,26.7c-1.7,9.4,2.2,11.6,4.7,10.4c2.5-1.2,12.1-5.2,14.4-5.2
				C327.9,235.5,338.1,240.7,338.1,240.7z"/>
			<path class="st3" d="M354.7,251.7c-2.3,0-4.1-3.8-5.8-7.5c-1.1-2.4-2.3-4.9-3.4-5.8c-2.6-1.9-7,2.6-7,2.7l-0.3,0.3l-0.3-0.2
				c-2.8-1.4-10.4-5.1-12.1-5.1c-2.1,0-11.7,3.9-14.1,5.1c-1.2,0.6-2.5,0.5-3.6-0.3c-1.2-0.9-3.1-3.5-1.8-10.6
				c0.3-1.6,0.6-3.4,0.9-5.2c1.6-9.5,3.4-20.3,7.3-21.9c4.5-1.8,42.5-1.3,44.1-0.8c1.7,0.6,8.3,6.1,8.3,15.6
				c0,9.1-7.4,32.6-11.5,33.6C355.1,251.6,354.9,251.7,354.7,251.7z M344,236.9c0.7,0,1.4,0.2,2.1,0.7c1.3,1,2.5,3.5,3.7,6.1
				c1.6,3.5,3.5,7.4,5.3,6.9c3.3-0.9,10.8-23.5,10.8-32.7c0-8.9-6.2-14.2-7.6-14.6c-1.5-0.4-38.9-1-43.5,0.7
				c-3.4,1.3-5.3,12.8-6.7,21.1c-0.3,1.9-0.6,3.6-0.9,5.2c-1.2,6.8,0.6,9,1.4,9.6c0.8,0.6,1.7,0.7,2.5,0.2
				c2.5-1.2,12.2-5.2,14.6-5.2c2.1,0,10.3,4.1,12.3,5.1C338.8,239.3,341.5,236.9,344,236.9z"/>
		</g>
		<g>
			<path class="st2" d="M363.4,188.5c0,0-3.5,17.5-4.9,21.9c-1.4,4.3-11.4,17.5-14,20.3s-10,16.4-12,16.7c-2,0.4-7.5-18.1-7.5-18.1
				s-7.1-12.2-8.5-15.4c-1.4-3.2-3.5-12.4-3.5-12.4s11.6,10,24,7.9s18.7-14.6,18.7-14.6L363.4,188.5z"/>
			<path class="st3" d="M332.4,248c-2,0-5.4-10-7.9-18.4c-0.6-1-7.1-12.3-8.5-15.4c-1.4-3.2-3.5-12.1-3.6-12.5l-0.4-1.5l1.2,1
				c0.1,0.1,11.6,9.9,23.6,7.8c12-2.1,18.3-14.2,18.4-14.3l0.1-0.2l8.8-7.2l-0.3,1.4c-0.1,0.7-3.6,17.6-4.9,21.9
				c-1.4,4.5-11.8,18-14.1,20.5c-1,1.1-2.9,4-4.8,7c-3.8,6-6.2,9.6-7.5,9.9C332.5,248,332.5,248,332.4,248z M313.8,202.8
				c0.7,2.7,2.2,8.6,3.2,10.9c1.4,3.1,8.4,15.2,8.4,15.3l0,0.1c2.5,8.3,5.8,17.4,7,17.8c0.9-0.2,4.4-5.7,6.8-9.4
				c2-3.1,3.8-6,4.9-7.2c2.6-2.8,12.6-16,13.9-20.1c1.1-3.6,3.8-16.2,4.6-20.4l-6.5,5.3c-0.6,1.2-7.1,12.7-19,14.8
				C326.7,211.7,317.1,205.3,313.8,202.8z"/>
		</g>
		<g>
			<g>
				<path class="st2" d="M315.3,153.6c0,0-3.5-3.7-5.4,2c-2,5.7,2,15.8,2,15.8L315.3,153.6z"/>
				<path class="st3" d="M312,173.2l-0.6-1.6c-0.2-0.4-4-10.4-2-16.2c0.7-2,1.7-3.2,2.9-3.4c1.8-0.4,3.3,1.2,3.3,1.3l0.2,0.2l0,0.2
					L312,173.2z M312.9,152.9c-0.1,0-0.2,0-0.3,0c-0.9,0.2-1.6,1.2-2.2,2.8c-1.4,4.1,0.4,10.7,1.4,13.8l3.1-15.7
					C314.4,153.5,313.7,152.9,312.9,152.9z"/>
			</g>
			<g>
				<path class="st2" d="M315.9,142c0,0-5.7,40.6-5.7,43c0,2.4-1.6,10.2,0.8,15.4c2.4,5.1,9.5,11.4,15.2,12.2
					c5.7,0.8,16.9-0.4,23.3-5.3c6.3-4.9,13.6-15.6,13.6-15.6s7.9-1.2,13-3.3c5.1-2.2,9.1-7.1,8.9-12.2c-0.2-5.1-3.3-9.1-3.3-9.1
					l-3-5.5l7.9-14.8c0,0-4.5-8.5-19.1-16.6c-14.6-8.1-27.6-10.6-33.7-10.6c-6.1,0-13.8,2.6-16,7.5C315.5,132,315.9,142,315.9,142z"
					/>
				<path class="st3" d="M329.8,213.3c-1.4,0-2.6-0.1-3.7-0.2c-6-0.8-13.1-7.3-15.6-12.5c-1.9-4.1-1.3-9.9-1-13.3
					c0.1-0.9,0.2-1.7,0.2-2.2c0-2.4,5.4-40.8,5.7-43c0-0.8-0.3-10.3,1.8-15.1c2.2-5.1,10-7.8,16.4-7.8c5.4,0,18.7,2.3,33.9,10.7
					c14.5,8.1,19.1,16.4,19.3,16.8l0.1,0.2l-7.9,14.8l2.8,5.3c0.1,0.1,3.2,4.1,3.4,9.3c0.2,5.1-3.6,10.3-9.2,12.7
					c-4.7,2-11.6,3.1-12.9,3.4c-1,1.5-7.7,10.9-13.6,15.5C344.5,211.8,335.9,213.3,329.8,213.3z M333.6,120.1
					c-6,0-13.4,2.5-15.5,7.2c-2.1,4.8-1.7,14.7-1.7,14.8l0,0l0,0c-0.1,0.4-5.7,40.6-5.7,42.9c0,0.5-0.1,1.3-0.2,2.3
					c-0.3,3.4-0.9,9,0.9,12.8c2.3,4.9,9.2,11.2,14.8,11.9c5.6,0.8,16.7-0.4,22.9-5.2c6.2-4.8,13.4-15.3,13.5-15.5l0.1-0.2l0.2,0
					c0.1,0,7.9-1.2,12.9-3.3c5.2-2.2,8.7-7,8.6-11.7c-0.2-4.9-3.2-8.7-3.2-8.8l-3.1-5.8l7.9-14.8c-0.8-1.4-5.8-9-18.8-16.1
					C352,122.3,339,120.1,333.6,120.1z"/>
			</g>
			<g>
				<path class="st3" d="M334.6,122.1c0,0,11.2,18.5,19.7,17.7c8.5-0.8,11-4.7,11-4.7l5.7,7.7c0,0-6.1,2.6-4.9,5.7
					c1.2,3.2,6.5,10.2,6.5,10.2l-4.3,18.5c0,0,3.3,0.6,3.9-0.6c0.6-1.2,3.5-8.5,3.5-8.5s1.2-0.8,2.6-1.2c1.4-0.4,3.2,0,3.2,0
					s2.2-7.3,3-7.5c0.8-0.2,8.7-2.4,11.6-10c3-7.7-1.6-19.9-11.8-29.6c-10.2-9.7-31.9-12.2-33.1-14c-1.2-1.8,5.5,0.8,4.1-3.2
					c-1.4-3.9-10-9.1-21.1-3.5c-11,5.5-9.5,11.6-8.3,13.6c1.2,2,1.2,2,1.2,2s-9.3-3.2-15.8,0.8c-6.5,3.9-9.7,11.8-6.7,12.6
					c3,0.8,6.7-1,6.7-1s-3.9,6.5-2.8,7.9c1.2,1.4,7.3,6.9,7.3,6.9s2.4-13.8,7.3-15.8S334.6,122.1,334.6,122.1z"/>
				<path class="st3" d="M370,178c-0.8,0-1.5-0.1-1.8-0.2l-0.5-0.1l4.4-18.8c-0.9-1.2-5.3-7.3-6.4-10.2c-1.1-3,3-5.3,4.6-6.1l-5-6.7
					c-1.1,1.2-4.2,3.8-11,4.4c-8.1,0.7-18.3-15-20-17.6c-1.5,0.5-6.8,2.3-11,4c-4.6,1.8-7,15.2-7,15.4l-0.2,0.9l-0.7-0.6
					c-0.3-0.2-6.1-5.6-7.3-6.9c-1.1-1.2,0.7-5,2-7.2c-1.4,0.5-3.7,1-5.7,0.5c-0.8-0.2-1.3-0.8-1.5-1.8c-0.4-3,2.9-8.6,8-11.7
					c5.3-3.2,12.1-1.9,14.9-1.2l-0.5-0.9c-0.3-0.6-1.4-2.7-0.6-5.5c1-3.3,4-6.2,9.1-8.8c7.5-3.7,13.2-2.4,16-1.3
					c2.9,1.2,5.1,3.1,5.8,5.1c0.3,0.9,0.3,1.6-0.1,2.1c-0.6,0.9-2,0.9-3.2,0.9c-0.3,0-0.6,0-0.9,0c0.6,0.4,3.2,1.1,5.8,1.8
					c7.5,2,20,5.3,27.1,12c10.2,9.6,15.1,22,11.9,30.1c-3,7.7-10.7,10-11.9,10.3c-0.5,0.5-1.7,4.1-2.7,7.2l-0.1,0.4l-0.5-0.1
					c0,0-1.7-0.4-2.9,0c-1,0.3-2,0.8-2.3,1c-0.4,1.1-3,7.3-3.5,8.4C372.3,177.8,371.1,178,370,178z M368.9,176.9
					c1.2,0.1,2.6,0.1,2.9-0.4c0.6-1.2,3.5-8.4,3.5-8.4l0.1-0.1l0.1-0.1c0.1,0,1.3-0.8,2.7-1.2c1.1-0.3,2.3-0.2,2.9-0.1
					c2.2-7.1,2.9-7.3,3.2-7.4c0.9-0.2,8.4-2.3,11.3-9.7c3-7.8-1.8-19.7-11.7-29c-6.9-6.5-19.3-9.8-26.7-11.8c-4.3-1.1-6-1.6-6.5-2.3
					c-0.2-0.4-0.3-0.7-0.1-1c0.3-0.5,1-0.5,1.9-0.5c0.9,0,2,0,2.4-0.5c0.2-0.2,0.2-0.7,0-1.2c-0.6-1.7-2.6-3.5-5.2-4.5
					c-2.6-1.1-8-2.3-15.2,1.3c-4.7,2.4-7.7,5.2-8.6,8.1c-0.7,2.5,0.2,4.3,0.5,4.7l1.9,3.1l-1.3-0.4c-0.1,0-9.1-3-15.3,0.7
					c-5.1,3.1-7.9,8.4-7.5,10.7c0.1,0.8,0.6,0.9,0.7,1c2.7,0.7,6.3-0.9,6.4-1l1.5-0.7l-0.9,1.4c-1.8,3-3.4,6.6-2.8,7.3
					c0.9,1.1,5,4.8,6.6,6.2c0.6-3.1,3-13.5,7.4-15.3c4.9-2,11.4-4.1,11.5-4.1l0.4-0.1l0.2,0.3c0.1,0.2,10.7,17.5,18.7,17.5
					c0.2,0,0.3,0,0.5,0c8.1-0.8,10.6-4.5,10.7-4.5l0.4-0.6l6.5,8.8l-0.6,0.2c-0.1,0-5.6,2.5-4.7,5.1c1.1,3,6.4,10.1,6.4,10.1
					l0.1,0.2L368.9,176.9z M351.5,105.6L351.5,105.6L351.5,105.6z"/>
			</g>
			<g>
				<polygon class="st3" points="333.3,178 322.1,173.6 332.3,154.4 330.6,148.9 331.6,148.6 333.4,154.5 323.5,173.1 333.6,177 
									"/>
			</g>
			<g>
				<path class="st3" d="M329.1,146.6c0,0-4.7-3.7-8.7-2.8c-3.9,1-1.6,1.6,1.2,2.6C324.4,147.4,329.9,149.9,329.1,146.6z"/>
				<path class="st3" d="M327.9,148.7c-1.3,0-3.1-0.6-5.2-1.5c-0.4-0.2-0.8-0.3-1.2-0.4l-0.7-0.3c-1.8-0.6-2.9-1-2.9-1.8
					c0-0.6,0.7-1,2.5-1.4c4.1-1,8.9,2.7,9.1,2.9l0.1,0.1l0,0.2c0.2,0.8,0.1,1.5-0.4,1.9C328.9,148.6,328.4,148.7,327.9,148.7z
					 M319,144.8c0.4,0.2,1.3,0.6,2.1,0.8l0.7,0.3c0.4,0.1,0.8,0.3,1.2,0.5c1.7,0.6,4.8,1.8,5.6,1.2c0.2-0.1,0.2-0.4,0.1-0.7
					c-0.8-0.6-4.8-3.4-8.1-2.6C319.6,144.5,319.2,144.7,319,144.8z"/>
			</g>
			<g>
				<path class="st3" d="M343.7,145.8c0,0-4.5,1.2-2.4,2.2c2.2,1,8.7-1,11.2,0c2.6,1,5.9,4.3,5.7,2.8c-0.2-1.6-1.8-4.7-5.3-5.9
					C349.4,143.6,343.7,145.8,343.7,145.8z"/>
				<path class="st3" d="M358.1,151.6c-0.5,0-1.3-0.5-2.4-1.3c-1-0.7-2.2-1.5-3.2-1.9c-1.2-0.5-3.4-0.2-5.6,0
					c-2.3,0.3-4.5,0.5-5.7,0c-0.6-0.3-0.9-0.7-0.9-1.1c0.1-1,2.1-1.7,3.3-2c0.5-0.2,6-2.2,9.6-1c3.7,1.2,5.4,4.5,5.7,6.3
					c0.1,0.5-0.1,0.8-0.3,0.9C358.3,151.6,358.2,151.6,358.1,151.6z M350.5,147.2c0.9,0,1.7,0.1,2.3,0.3c1.1,0.4,2.4,1.3,3.4,2
					c0.5,0.3,1.1,0.8,1.5,1c-0.4-1.7-1.9-4.2-4.9-5.2c-3.3-1.1-8.9,1-8.9,1l-0.1,0c-1.1,0.3-2.3,0.8-2.5,1.1c0,0,0.1,0.1,0.3,0.1
					c0.9,0.4,3.1,0.2,5.1,0C348,147.3,349.3,147.2,350.5,147.2z"/>
			</g>
			<g>
				<path class="st3" d="M326.5,155.3c-0.3,1.4-1.3,2.4-2.2,2.2c-0.8-0.2-1.3-1.5-0.9-3c0.3-1.4,1.3-2.4,2.2-2.2
					C326.4,152.6,326.9,153.9,326.5,155.3z"/>
			</g>
			<g>
				<path class="st3" d="M348,160.9c-0.3,1.4-1.3,2.4-2.2,2.2c-0.8-0.2-1.3-1.5-0.9-3c0.3-1.4,1.3-2.4,2.2-2.2
					C347.9,158.2,348.3,159.5,348,160.9z"/>
			</g>
			<g>
				<rect x="320.2" y="177.7" transform="matrix(0.55 -0.8351 0.8351 0.55 -8.1193 349.9989)" class="st3" width="1" height="9.7"/>
			</g>
		</g>
		<g>
			<g>
				<path class="st0" d="M399.8,227.7c0,0,27.9,10.7,33.3,26.8c5.4,16.1-1.4,36.4-4.2,44.8s-20.3,41.4-23.1,49.3
					c-2.8,7.9-7,17.5-7,17.5s-3.9-23.7-14.7-38.3c-10.7-14.7-13.2-27.9-13.2-27.9s19.4-34.4,24.5-45.1"/>
				<path class="st3" d="M398.5,367.8l-0.3-1.7c0-0.2-4.1-23.7-14.6-38.1c-10.7-14.6-13.3-28-13.3-28.1l0-0.2l0.1-0.2
					c0.2-0.3,19.5-34.5,24.5-45.1l0.9,0.4c-4.8,10.2-23,42.4-24.4,45c0.3,1.6,3.3,14,13.1,27.5c9,12.4,13.3,31.3,14.4,36.9
					c1.3-3,4.3-10,6.4-16c1.3-3.7,5.9-13,10.7-22.7c5.4-10.9,10.9-22.1,12.4-26.6c2.9-8.6,9.5-28.6,4.2-44.5
					c-5.2-15.7-32.7-26.4-33-26.5l0.4-0.9c1.1,0.4,28.2,11,33.6,27.1c5.4,16.2-1.3,36.5-4.2,45.1c-1.5,4.5-7.1,15.8-12.5,26.7
					c-4.8,9.7-9.3,18.9-10.7,22.6c-2.8,7.8-7,17.4-7.1,17.5L398.5,367.8z"/>
			</g>
			<g>
				<path class="st0" d="M373.7,293.9c0,0,5.7-2.9,7.6-1.9c1.9,1,26.3,14,29.5,28.9c3.2,14.9-1.6,27.6-4.4,33
					c-2.9,5.4-8.2,15.9-12.4,17.1c-4.1,1.3-7.6-32.7-16.2-50.4C369.3,302.8,373.7,293.9,373.7,293.9z"/>
				<path class="st3" d="M393.8,371.5c-0.2,0-0.5-0.1-0.7-0.2c-1.9-1.1-3.5-7.4-6-18.3c-2.4-10.4-5.5-23.4-9.7-32.3
					c-8.6-17.8-4.3-26.7-4.1-27.1l0.1-0.1l0.1-0.1c0.6-0.3,6-2.9,8.1-1.9c0.3,0.1,26.4,13.6,29.8,29.2c3.5,16.4-2.6,29.7-4.5,33.3
					l-0.3,0.6c-3.1,5.8-8.2,15.5-12.3,16.7C394.1,371.5,393.9,371.5,393.8,371.5z M374.1,294.3c-0.5,1.2-3.6,10,4.2,26.1
					c4.3,8.9,7.3,22,9.8,32.5c2,8.6,3.9,16.7,5.5,17.7c0.1,0.1,0.2,0.1,0.3,0c3.8-1.2,9-11,11.7-16.2l0.3-0.6
					c1.9-3.6,7.8-16.5,4.4-32.6c-3.2-15.1-29-28.4-29.2-28.5C379.9,291.8,376.3,293.2,374.1,294.3z"/>
			</g>
			<g>
				<path class="st3" d="M383.7,277.7l-1-0.3c0,0,5.1-17.2,7-24l1,0.3C388.7,260.5,383.7,277.7,383.7,277.7z"/>
			</g>
		</g>
		<g>
			<path class="st2" d="M332.3,216.5c0,0-7.9-11-14-18.3c-6.1-7.3-12.4-11.6-14.6-11c-2.2,0.6-3,2.8-1.6,5.3
				c1.4,2.6,7.9,8.3,9.1,9.9c1.2,1.6,3,7.3,3,7.3s-5.7,0.4-6.7,1.6c-1,1.2-2.4,4.3-2.4,4.3s-2,1-3,2.6c-1,1.6-1,2-1.2,2.8
				c-0.2,0.8-3,2.2-2.8,5.7c0.2,3.5,3.5,8.7,4.7,11c1.2,2.4,9.9,12.8,11.4,14.6c1.6,1.8,10.6,17.5,13,22.9
				c2.4,5.3,25.2,67,31.9,76.3c6.7,9.3,19.1,18.1,25.8,21.3c6.7,3.2,11.4-2.2,14.6-8.9c3.2-6.7,5.9-20.1-0.2-35.5
				c-6.1-15.4-18.1-28.6-27.4-36.5c-9.3-7.9-26.6-27.6-28.6-31.1c-2-3.5-4.5-11.4-4.5-11.4s5.1-15,5.5-18.5c0.4-3.5-1.6-9.9-1-12.6
				s3-8.3,3.9-10.6c1-2.4,4.3-6.3,2.6-8.1c-1.8-1.8-9.1,0.4-11.6,4.5C335.8,208.1,332.3,216.5,332.3,216.5z"/>
			<path class="st3" d="M388.9,374c-1.3,0-2.7-0.3-4.1-1c-6.4-3-19.1-11.9-26-21.4c-5.1-7.1-19.5-44.4-27.3-64.4
				c-2.4-6.2-4.1-10.7-4.7-12c-2.4-5.3-11.4-21-12.9-22.7c-1.6-1.8-10.3-12.3-11.5-14.7c-0.3-0.5-0.6-1.1-1-1.9
				c-1.5-2.7-3.6-6.5-3.8-9.4c-0.2-2.8,1.3-4.3,2.2-5.2c0.2-0.2,0.5-0.5,0.5-0.6l0.1-0.3c0.2-0.7,0.3-1.2,1.2-2.6
				c0.9-1.4,2.5-2.4,3-2.7c0.3-0.7,1.5-3.2,2.4-4.3c0.9-1.1,4.7-1.6,6.4-1.7c-0.5-1.5-1.8-5.3-2.7-6.5c-0.4-0.6-1.6-1.7-2.9-3
				c-2.4-2.3-5.3-5.2-6.2-6.9c-0.8-1.5-1-2.9-0.5-4.1c0.4-1,1.2-1.6,2.3-1.9c2.6-0.7,9.2,4.2,15.1,11.2c5.2,6.1,11.6,15.1,13.5,17.6
				c1-2.2,3.7-8.4,5.8-11.9c1.9-3,6-5,9-5.3c1.6-0.2,2.7,0.1,3.4,0.7c1.6,1.6,0,4.2-1.3,6.5c-0.5,0.8-0.9,1.5-1.2,2.1l-0.3,0.7
				c-1.1,2.6-3.1,7.4-3.6,9.8c-0.3,1.3,0.1,3.7,0.4,6c0.4,2.4,0.8,4.8,0.5,6.6c-0.4,3.4-4.9,16.8-5.5,18.5c0.4,1.1,2.7,8,4.4,11.2
				c1.9,3.4,19.2,23.1,28.5,31c5.9,5,20.4,18.6,27.5,36.6c5.8,14.5,3.9,28,0.2,35.9c-1.8,3.9-3.9,6.7-6.1,8.3
				C392.4,373.4,390.7,374,388.9,374z M304.1,187.6c-0.1,0-0.2,0-0.3,0c-0.8,0.2-1.4,0.7-1.7,1.4c-0.4,0.9-0.2,2,0.4,3.2
				c0.8,1.6,3.7,4.4,6,6.7c1.4,1.4,2.5,2.5,3,3.1c1.2,1.6,3,7.2,3,7.4l0.2,0.6l-0.6,0c-2.3,0.2-5.8,0.7-6.3,1.4
				c-0.9,1.1-2.3,4.2-2.3,4.2l-0.1,0.2l-0.2,0.1c0,0-1.9,0.9-2.8,2.4c-0.8,1.3-0.9,1.7-1.1,2.3l-0.1,0.3c-0.1,0.4-0.4,0.7-0.8,1.1
				c-0.8,0.9-2.1,2.2-2,4.5c0.1,2.7,2.3,6.4,3.6,8.9c0.4,0.7,0.8,1.4,1,1.9c1.1,2.3,9.8,12.7,11.4,14.5c1.6,1.8,10.7,17.6,13.1,23
				c0.6,1.3,2.3,5.8,4.7,12c7.7,20,22.1,57.2,27.2,64.1c6.8,9.4,19.3,18.1,25.6,21.1c2.9,1.4,5.6,1.2,8.1-0.7c2.1-1.5,4-4.2,5.8-7.9
				c3.6-7.6,5.4-20.9-0.2-35.1c-7.1-17.8-21.4-31.3-27.2-36.3c-9.3-7.9-26.7-27.8-28.7-31.3c-2-3.5-4.5-11.2-4.6-11.5l-0.1-0.2
				l0.1-0.2c0.1-0.1,5.1-15,5.5-18.4c0.2-1.7-0.2-4-0.5-6.3c-0.4-2.5-0.8-4.8-0.4-6.3c0.5-2.6,2.6-7.4,3.7-10l0.3-0.7
				c0.3-0.7,0.7-1.4,1.2-2.3c1.2-2,2.5-4.2,1.5-5.3c-0.4-0.4-1.3-0.6-2.5-0.4c-2.8,0.3-6.6,2.1-8.3,4.9c-2.5,4.1-6,12.5-6.1,12.5
				l-0.3,0.8l-0.5-0.7c-0.1-0.1-7.9-11.1-14-18.3C311.8,191.2,306.1,187.6,304.1,187.6z"/>
		</g>
		<g>
			<g>
				<path class="st0" d="M271.4,259.2c0.6-3.1,1-5.3,1-5.3"/>
				<path class="st3" d="M271.9,259.3l-1-0.2c0.6-3.1,1-5.3,1-5.3l1,0.2C272.9,254,272.5,256.2,271.9,259.3z"/>
			</g>
			<g>
				<path class="st0" d="M269.6,226.8c0,0-14.9,2-30.4,18.6c-15.5,16.6-8.7,56.1-7.3,64.3c1.4,8.2,3.7,33.3,3.7,33.3l39.7-13.2
					c0,0-6.5-44.3-7-48.2c-0.3-2,0.8-9,1.9-15.5"/>
				<path class="st3" d="M235,343.6L235,343c0-0.3-2.3-25.2-3.7-33.2c-5.3-30.9-2.7-53.8,7.5-64.7c15.4-16.6,30.6-18.7,30.7-18.8
					l0.1,1c-0.1,0-15,2.2-30.1,18.4c-9.9,10.6-12.5,33.3-7.2,63.8c1.3,7.4,3.3,28.7,3.6,32.7l38.7-12.9c-0.7-4.5-6.5-44.1-7-47.8
					c-0.2-1.7,0.4-7,1.9-15.7l1,0.2c-1.9,10.7-2.1,14.2-1.9,15.3c0.6,3.9,7,47.8,7,48.2l0.1,0.4L235,343.6z"/>
			</g>
			<g>
				<path class="st0" d="M231.5,334.2c0,0,3.9,21.1,5.9,22.3c2,1.1,32.7-7.3,36.1-7.9c3.4-0.6,5.4,0.3,5.4-2.5
					c0-2.8-2.8-16.1-4.5-18.3c-1.7-2.3-38.3,2.5-41.4,3.4C229.8,332,231.5,334.2,231.5,334.2z"/>
				<path class="st3" d="M238.2,357.1c-0.5,0-0.8,0-1-0.2c-2.1-1.2-5.4-18.7-6.1-22.5c-0.2-0.3-0.7-1.2-0.4-2.2
					c0.3-0.8,1-1.3,2.1-1.6c2.2-0.6,39.9-5.9,42-3.2c1.8,2.4,4.6,15.7,4.6,18.6c0,2.6-1.5,2.7-3.5,2.8c-0.7,0-1.4,0.1-2.3,0.2
					c-1,0.2-4.4,1-8.8,2.1C249.9,355,241.1,357.1,238.2,357.1z M270.5,327.6c-9.4,0-34.6,3.2-37.5,4c-0.6,0.2-1.3,0.4-1.5,1
					c-0.2,0.6,0.3,1.3,0.3,1.3l0.1,0.1l0,0.1c1.9,10.2,4.6,21.3,5.7,21.9c1.5,0.6,18-3.6,26.9-5.8c4.4-1.1,7.8-2,8.8-2.1
					c0.9-0.1,1.7-0.2,2.4-0.2c2.1-0.1,2.6-0.2,2.6-1.8c0-2.9-2.9-16-4.4-18C273.7,327.7,272.4,327.6,270.5,327.6z"/>
			</g>
			<g>
				<path class="st3" d="M275.7,329.1l-1.5-0.9c-0.1-0.1-9-5.4-20.3-9.8l0.4-0.9c8.6,3.4,15.8,7.3,18.9,9c-2.4-4.4-9.4-17.1-12.6-20
					l0.7-0.7c4,3.7,13.2,21.1,13.6,21.8L275.7,329.1z"/>
			</g>
			<g>
				<path class="st3" d="M251.9,317.6c-1.1-0.4-2.2-0.8-3.3-1.2l0.3-0.9c1.1,0.4,2.3,0.8,3.4,1.2L251.9,317.6z"/>
			</g>
		</g>
		<g>
			<path class="st3" d="M341.3,408.6l-0.3-0.9c8.3-3,14.4-5.7,17.9-8.2l0.6,0.8C355.9,402.8,349.7,405.7,341.3,408.6z"/>
		</g>
		<g>
			<path class="st3" d="M306.9,418.7l-0.2-1c0.2,0,15.7-3.7,30.3-8.6l0.3,0.9C322.7,415,307.1,418.7,306.9,418.7z"/>
		</g>
		<g>
			<path class="st3" d="M342.7,411.1l-0.2-1c9.7-2.4,21.4-7.8,29.6-11.8l0.4,0.9C364.3,403.3,352.5,408.7,342.7,411.1z"/>
		</g>
		<g>
			<path class="st3" d="M375.8,397.5l-0.5-0.9c2.6-1.3,4.2-2.2,4.2-2.2l0.5,0.9C380,395.3,378.5,396.1,375.8,397.5z"/>
		</g>
	</g>
</g>
<g id="Bubble">
	<g>
		<g>
			<path class="st2" d="M121.4,27.3c10.9-0.9,22.1,1.9,31.6,7.4c15.5-15.3,40.5-20,60.5-11.5c11.3,4.8,22.8,11.9,29.8,21.5
				c2.8,3.8,7.1,10,7.8,14.4c5.8,1.9,28,11.6,35.2,29.8c5.7,14.3,5.1,31.4-4.1,43.7c-9.3,12.3-25.7,18.8-40.9,16
				c-12.1,21.9-34.9,37.6-59.8,41c-12.3,1.7-25.3,0.4-36.3-5.4c-11-5.8-19.7-16.4-21.6-28.7C111.7,170.7,89,176,71.7,167.9
				c-17.3-8.2-27.7-29-23.6-47.8c-9.6-3.8-17.3-12.1-20.2-22.1c-2.9-9.9-1-21.1,5-29.5c5.2-7.2,13-12.1,21-16.1
				c4.3-2.1,13.3-2.8,19-0.7C76.7,45,95.2,29.5,121.4,27.3z"/>
		</g>
		<g>
			<path class="st2" d="M228.5,191.3c0.1-3.5,1.1-7.1,3.2-10c2.1-2.9,5.3-5,8.8-5.4c3,2.8,5.2,6.6,6.1,10.6c0.9,4.3,0.4,9-2.5,12.4
				c-2.8,3.3-8.2,4.6-11.7,2C229.4,198.9,228.4,194.9,228.5,191.3z"/>
		</g>
		<g>
			<path class="st2" d="M252.4,214.9c0.4-1.9,1.1-3.8,2.2-5.4s2.7-2.9,4.5-3.6c0.9-0.3,1.9-0.5,2.9-0.3c0.6,0.1,1.1,0.3,1.6,0.6
				l-0.3-0.3c3.6,1.5,6.4,4.7,7.4,8.5c0.6,2.1,0.5,4.5-0.7,6.3c-0.8,1.1-1.9,1.9-3.1,2.5c-2.5,1.3-5.3,2.1-8.1,1.7
				c-2.8-0.4-5.4-2.2-6.4-4.9C251.9,218.4,252.1,216.6,252.4,214.9z"/>
		</g>
		<g id="XMLID_11_">
			<g id="XMLID_91_">
				<path class="st4" d="M297.2,115.4c2.6-8.8,1.5-17.3-0.4-22.8c-0.9-2.8-2-4.9-2.8-6.3c-0.8-1.4-1.3-2.1-1.3-2.1s0.3,0.8,0.8,2.4
					c0.5,1.5,1.1,3.7,1.6,6.5c1,5.5,1.1,13.4-1.3,21.4c-1.2,4-2.9,7.6-4.9,10.6c-2,3-4.3,5.3-6.6,6.9c-2.2,1.6-4.4,2.5-5.9,2.9
					c-0.6,0.2-1.1,0.3-1.4,0.3c6.6-5.7,12.5-13.5,15.4-23c3.6-11.6,2.1-23.7-2.6-33c-1.1-2.3-2.5-4.5-4-6.5
					c-1.5-1.9-3.1-3.7-4.8-5.2c-3.4-3.1-7.1-5.3-10.5-7c-5.6-2.7-10.6-4.1-14.6-5c-0.7-2.4-1.8-4.9-3.1-7.4c-1.8-3.2-4.1-6-6.3-8.3
					c-2.3-2.2-4.6-4-6.7-5.2c-1-0.7-2-1.1-2.8-1.6c-0.8-0.4-1.6-0.8-2.2-1c-1.2-0.5-1.9-0.7-1.9-0.7s0.6,0.4,1.7,1.2
					c0.5,0.4,1.2,0.8,1.9,1.4c0.7,0.6,1.6,1.2,2.4,2c1.7,1.5,3.6,3.5,5.5,5.8c1.9,2.4,3.7,5.1,5.5,8.1c0.9,1.7,1.7,3.3,2.4,4.9
					c-1.6-0.3-2.8-0.5-3.7-0.6c-0.7-1.5-1.5-3.1-2.4-4.7c-3.4-6.2-8.7-13-16.2-18.8c-7.5-5.8-17.2-10.3-28-12.1
					c-10.8-1.8-21.5-0.5-30.4,2.6c-8.4,2.9-15.2,7.1-20.7,11.1c-1.1-0.8-2.3-1.6-3.6-2.3c-4.6-2.8-10.7-5.2-17.8-6.5
					c-7.1-1.2-15.3-1.1-23.3,1.3c-8,2.5-14.9,6.9-20.1,11.9c-4.1,3.9-7.3,8.2-9.5,12.2c-3.2-0.9-7.6-1.7-13-1
					c-3.1,0.4-6.5,1.2-9.9,2.8c-3.4,1.6-6.7,3.9-9.7,6.8c-6,5.7-11.6,13.2-14.8,22.4c-1.6,4.6-2.3,9.4-1.9,14.1
					c0.3,4.6,1.7,9,3.7,12.7c3.6,6.8,8.7,11.6,13.6,14.9c-1.3,3.7-2.4,8.3-2.5,13.5c-0.1,7.1,2.5,13.4,5.3,17
					c1.4,1.8,2.8,3.1,3.8,3.8c1,0.8,1.6,1.1,1.6,1.1s-0.5-0.5-1.2-1.5c-0.8-1-1.8-2.4-2.7-4.4c-1.9-3.8-3.4-9.6-3.3-16.1
					c0.1-4.4,0.6-8.5,1.2-12.1c0.5,0.3,1,0.6,1.4,0.8c-0.4,1.4-0.8,2.9-1.2,4.5c-1.3,6.4-0.9,14.8,3.2,22.7
					c3.9,7.9,11.3,15.3,21.2,18.6c4.8,1.7,9.7,2.4,14.4,2.8c4.7,0.4,9.3,0.4,13.6-0.1c8.7-0.9,16.2-3.8,21.7-7.5
					c1.4-0.9,2.7-1.9,3.9-2.9c2.3,3.6,5.8,8.2,10.9,13c5.7,5.3,13.4,10.8,23.2,14.5c2.7,1,5.5,1.9,8.5,2.5c0.6,0.3,1.2,0.7,1.9,1
					c2.2,1.1,4.9,2.1,7.9,2.9c3.1,0.8,6.6,1.3,10.3,1.4c3.7,0.1,7.2-0.3,10.3-1c3.1-0.7,5.9-1.6,8.1-2.5c1.1-0.4,2.1-0.9,2.9-1.4
					c0.9-0.4,1.6-0.8,2.1-1.2c1.1-0.7,1.8-1.1,1.8-1.1s-0.7,0.2-2,0.6c-0.6,0.2-1.4,0.4-2.3,0.7c-0.9,0.2-1.9,0.5-3.1,0.7
					c-2.3,0.5-5,1-8,1.3c-3,0.3-6.3,0.5-9.8,0.4c-1.7,0-3.4-0.1-5-0.3c3.2,0,6.5-0.3,9.8-0.8c11.9-2,22.7-7.2,30.4-14.2
					c7.9-6.9,12.9-15.1,15.8-22.4c1-2.6,1.8-5,2.3-7.2c2-0.1,4.2-0.2,6.5-0.5c7.6-1,16.7-3.6,25.2-9.5c1.4-1,2.8-2.1,4.2-3.3
					c0.4,0,1,0.1,1.8,0c1.6-0.1,4-0.6,6.7-1.9c2.7-1.3,5.5-3.6,8-6.7C293.9,123.7,296,119.8,297.2,115.4z M269,136.3
					c-7.9,5.8-16.5,8.8-23.8,10.2c-2.1,0.4-4,0.6-5.9,0.8c0.8-3.6,1.2-6.8,1.3-9.3c0.1-2.2,0.1-3.8,0-5c-0.1-1.1-0.1-1.7-0.1-1.7
					s0,0.6-0.1,1.7c0,1.1-0.1,2.8-0.4,4.9c-0.3,2.6-0.9,5.8-2.1,9.5c-4.2,0.3-7.8,0.2-10.6,0c-2.1-0.1-3.7-0.3-4.9-0.5
					c-1.1-0.2-1.7-0.2-1.7-0.2s0.6,0.1,1.7,0.4c1.1,0.3,2.7,0.6,4.8,0.9c2.7,0.4,6.1,0.7,10.2,0.7c-0.7,2.1-1.5,4.2-2.6,6.5
					c-3.2,6.8-8.4,14.5-16.1,20.8c-7.6,6.4-17.8,11.1-29.1,13c-11.3,1.8-22.5,0.7-31.9-2.5c-9.5-3.2-17.2-8.1-23.1-13
					c-5.3-4.5-9.1-8.8-11.6-12.1c0.4-0.4,0.8-0.7,1.2-1.1c1.1,1.4,2.3,2.8,3.6,4.2c4.1,4.3,8.6,7.5,12,9.5c3.4,2,5.6,2.9,5.6,2.9
					s-1.8-1.7-4.6-4.3c-2.8-2.7-6.5-6.4-10.5-10.5c-1.4-1.4-2.6-2.8-3.9-4.1c1.3-1.4,2.4-2.8,3.2-4c1-1.5,1.7-2.8,2.1-3.6
					c0.4-0.9,0.6-1.3,0.6-1.3s-0.3,0.4-0.8,1.2c-0.5,0.8-1.3,2-2.4,3.4c-0.9,1.1-2,2.3-3.4,3.6c-2.1-2.3-4-4.4-5.5-6.1
					c-2.5-2.9-4.1-4.8-4.1-4.8s0.8,2.3,2.7,5.7c1.1,2.1,2.6,4.6,4.6,7.2c-0.4,0.3-0.8,0.7-1.3,1c-1.2-1.7-2.2-3.1-2.8-4
					c-0.6-1-0.9-1.5-0.9-1.5s0.3,0.5,0.8,1.5c0.5,1,1.3,2.5,2.5,4.3c-1.2,0.9-2.6,1.8-4.1,2.6c-5.5,3.1-12.7,5.5-21,6
					c-4.1,0.3-8.5,0.2-13-0.3c-4.5-0.5-9.2-1.3-13.6-2.8c-8.9-3-15.8-9.6-19.7-16.7c-4-7.2-4.8-14.9-4.1-21.1
					c0.2-1.4,0.4-2.8,0.7-4.1c3.9,2.1,7.3,3.3,9.8,4.2c3.3,1.1,5.1,1.5,5.1,1.5s-1.8-0.6-4.9-2c-2.5-1.1-5.9-2.7-9.6-5.2
					c1-3.6,2.3-6.5,3.6-8.6c0.9-1.6,1.7-2.7,2.2-3.5c0.6-0.8,0.9-1.2,0.9-1.2s-0.3,0.4-1,1.1c-0.6,0.7-1.6,1.8-2.6,3.3
					c-1.4,1.9-3,4.7-4.2,8.2c-0.5-0.4-1.1-0.7-1.6-1.1c0.2-1,0.4-2,0.6-2.8c0.9-4.4,1.4-7.1,1.4-7.1s-1.3,2.4-3.1,6.6
					c-0.2,0.6-0.5,1.2-0.8,1.9c-4.3-3.5-8.7-8.2-11.6-14.4c-1.7-3.5-2.8-7.5-3-11.6c-0.2-4.2,0.5-8.5,1.9-12.8
					c2.9-8.5,8.1-15.8,13.6-21.4c2.8-2.8,5.7-5.1,8.8-6.8c3-1.7,6.2-2.6,9.1-3.2c4.9-0.9,9.2-0.6,12.4,0c-0.5,0.8-0.9,1.7-1.3,2.5
					c-2.3,4.9-3.5,9.1-4.1,12c-0.3,1.5-0.4,2.6-0.5,3.4C68.1,68,68,68.4,68,68.4s0.1-0.4,0.3-1.2c0.2-0.8,0.4-1.9,0.9-3.3
					c0.8-2.8,2.4-6.8,5.1-11.3c0.5-0.9,1.2-1.9,1.8-2.9c1.5,0.4,2.7,0.8,3.5,1.1c0.8,0.3,1.3,0.5,1.3,0.5s-0.4-0.2-1.2-0.6
					c-0.7-0.4-1.8-0.9-3.3-1.4c2.4-3.6,5.6-7.2,9.5-10.6c5.1-4.5,11.7-8.4,19.2-10.7c7.5-2.2,15.1-2.6,21.9-1.7
					c6.8,0.9,12.8,2.8,17.4,5.1c1.1,0.6,2.2,1.1,3.2,1.7c-5.6,4.2-9.6,8.1-12.4,10.9c-1.4,1.4-2.4,2.5-3.1,3.2
					c-0.7,0.8-1.1,1.1-1.1,1.1s0.4-0.4,1.2-1c0.8-0.7,1.9-1.7,3.4-3c3-2.5,7.3-6.1,13.1-9.9c0.2-0.1,0.4-0.2,0.5-0.3
					c2.3,1.4,4.2,2.8,5.6,3.9c1.2,0.9,2,1.7,2.6,2.2c0.6,0.5,0.9,0.8,0.9,0.8s-0.3-0.3-0.8-0.9c-0.5-0.6-1.2-1.5-2.3-2.5
					c-1.2-1.2-2.8-2.7-4.9-4.3c5.5-3.5,12.2-7,20-9.4c8.6-2.7,18.7-3.6,29-1.9c10.3,1.6,19.5,5.7,26.8,11
					c7.3,5.3,12.7,11.6,16.5,17.4c3.7,5.8,5.9,11.1,7.1,14.7c0.6,1.9,1,3.3,1.3,4.3c0.3,1,0.4,1.5,0.4,1.5s-0.1-0.5-0.2-1.6
					c-0.1-1-0.4-2.5-0.9-4.4c-0.7-2.8-1.8-6.4-3.7-10.6c0.9,0.2,2.3,0.6,3.9,1c0.5,1.2,0.9,2.3,1.3,3.4c1,2.8,1.7,5.5,2,7.8
					c0.3,1.1,0.3,2.2,0.5,3.1c0.1,0.9,0.2,1.7,0.2,2.4c0.1,1.3,0.1,2,0.1,2s0.1-0.7,0.4-2c0.1-0.7,0.3-1.5,0.3-2.4
					c0.1-0.9,0.2-2,0.2-3.2c0-2.4-0.3-5.3-1-8.4c-0.1-0.5-0.3-1-0.4-1.5c3.7,1.2,8.4,2.9,13.5,5.7c6.5,3.6,13.6,9.5,17.5,18.5
					c4,8.8,5.2,20,1.9,30.7C283.9,121.9,276.8,130.5,269,136.3z"/>
			</g>
			<g id="XMLID_99_">
				<path class="st4" d="M228.5,178.9c0,0,0.7-0.3,2-0.8c-1.1,1.2-2.1,2.6-2.9,4.1c-2.1,4.1-2.4,8.8-1.3,12.6
					c0.5,1.8,1.3,3.4,2.3,4.8c-0.2-0.1-0.4-0.3-0.6-0.4c-2.5-1.9-3.8-4.4-4.3-6.1c-0.2-0.9-0.4-1.6-0.4-2.1c0-0.5,0-0.8,0-0.8
					s0,0.3-0.1,0.8c-0.1,0.5-0.1,1.2,0,2.2c0.2,1.9,1.1,4.8,3.7,7.3c1.3,1.3,3,2.4,5,3.1c0.6,0.2,1.1,0.3,1.7,0.4
					c1.8,1,3.5,1.4,4.7,1.5c0.8,0.1,1.4,0.1,1.8,0.1c0.4,0,0.6,0,0.6,0s-0.2,0-0.6-0.1c-0.4-0.1-1-0.2-1.7-0.5
					c-0.5-0.2-1.2-0.5-1.8-0.8c0.7,0,1.4-0.1,2.1-0.2c4.8-0.8,9.8-4.1,12.2-9.3c1.2-2.6,1.8-5.4,1.6-8.1c-0.2-2.7-1.2-5.3-2.7-7.2
					c-1.5-2-3.4-3.4-5.4-4.3c-0.9-0.4-1.8-0.6-2.6-0.7c1.7-0.6,3.3-0.9,4.7-1.1c2.6-0.3,4.8-0.1,6.3,0.2c1.5,0.3,2.3,0.5,2.3,0.5
					s-0.7-0.4-2.2-1c-1.4-0.6-3.6-1.2-6.5-1.4c-2.8-0.1-6.4,0.3-9.9,2c-1.7,0.8-3.4,1.9-5,3.3c-0.2,0.1-0.5,0.3-0.7,0.4
					C229.3,178.3,228.5,178.9,228.5,178.9z M230.6,183.8c1.7-3.3,4.5-5.9,7.3-7.6c0.2,0,0.4-0.1,0.7-0.1c3.1-0.1,6.7,1.6,8.8,5
					c2.2,3.3,2.4,8,0.3,12.1c-2,4.2-5.8,7-9.7,7.9c-1.8,0.5-3.7,0.5-5.3,0.2c-1.7-1.8-3.2-4.2-3.7-7.2
					C228.5,190.9,228.9,187.2,230.6,183.8z"/>
			</g>
			<g id="XMLID_103_">
				<path class="st4" d="M265.2,205.1c-1.1-0.5-2.2-0.8-3.2-1.1c0.6-0.3,1.2-0.6,1.7-0.8c0.9-0.4,1.5-0.5,1.5-0.5s-0.6-0.1-1.6,0
					c-1,0-2.3,0.2-3.9,0.9c-1.7-0.2-3-0.2-4-0.3c-1.3,0-2.1,0-2.1,0s0.7,0.2,2,0.5c0.6,0.2,1.4,0.4,2.3,0.6
					c-1.3,0.8-2.7,1.9-3.9,3.5c-1.5,2.2-2.5,5.1-2.3,8.3c0.1,1.4,0.5,2.7,1,3.8c-1.8-0.7-3.3-1.5-4.4-2c-1.2-0.6-1.9-0.9-1.9-0.9
					s0.6,0.5,1.6,1.4c1,0.8,2.5,2.1,4.6,3.3c0.6,0.4,1.3,0.7,2,1.1c0.3,0.4,0.7,0.7,1,1c2.1,1.7,4.4,2.5,6.3,2.7
					c1.9,0.2,3.5-0.1,4.5-0.4c0.5-0.1,0.9-0.3,1.1-0.5c0.2-0.1,0.4-0.2,0.4-0.2s-0.1,0-0.4,0c-0.3,0-0.6,0.1-1.1,0.1
					c-1,0-2.4-0.1-4-0.7c-0.4-0.1-0.8-0.3-1.1-0.5c1.7-0.1,3.5-0.4,5.2-1.2c1.7-0.8,3.5-2.2,4.6-4.1c1.1-1.9,1.3-4.3,0.9-6.3
					c-0.5-2-1.5-3.6-2.7-4.9C267.9,206.7,266.5,205.8,265.2,205.1z M260.1,205.3c0.2,0.1,0.5,0.2,0.7,0.3c2.1,0.9,4.5,2.1,6.1,4.4
					c1.7,2.2,2.5,5.2,1.1,7.6c-1.4,2.4-4.4,3.8-7.1,4.1c-1.2,0.1-2.4,0-3.5-0.2c-1.2-1.5-2.1-3.3-2.3-5.5c-0.2-2.3,0.3-4.6,1.3-6.5
					C257.4,207.7,258.7,206.3,260.1,205.3z"/>
			</g>
		</g>
	</g>
</g>
<g id="Gears">
	<g>
		<path class="st4" d="M100.7,73L100.7,73c0,1.3-0.4,2.3-1.2,3c-0.8,0.7-1.9,1.1-3.3,1.1c-1.4,0-2.5-0.5-3.4-1.4
			c-0.9-0.9-1.3-2.2-1.3-3.6v-2.3c0-1.5,0.4-2.7,1.3-3.6c0.9-1,2-1.4,3.4-1.4c1.4,0,2.5,0.4,3.4,1.1c0.8,0.7,1.2,1.7,1.2,3l0,0h-2
			c0-0.8-0.2-1.4-0.7-1.9c-0.4-0.4-1.1-0.6-1.9-0.6c-0.8,0-1.5,0.3-1.9,1c-0.5,0.6-0.7,1.5-0.7,2.5v2.3c0,1,0.2,1.8,0.7,2.5
			c0.5,0.6,1.2,1,2,1c0.8,0,1.5-0.2,1.9-0.6c0.4-0.4,0.6-1.1,0.6-1.9H100.7z"/>
		<path class="st4" d="M102,72.4c0-1.3,0.4-2.4,1.1-3.3c0.7-0.9,1.7-1.3,3-1.3c1.3,0,2.3,0.4,3,1.3c0.7,0.9,1.1,2,1.1,3.3v0.2
			c0,1.4-0.4,2.5-1.1,3.3c-0.7,0.8-1.7,1.3-3,1.3c-1.3,0-2.3-0.4-3-1.3c-0.7-0.9-1.1-2-1.1-3.3V72.4z M104.1,72.6
			c0,0.9,0.2,1.6,0.5,2.1s0.9,0.8,1.6,0.8c0.7,0,1.2-0.3,1.6-0.8c0.4-0.6,0.5-1.3,0.5-2.1v-0.2c0-0.9-0.2-1.6-0.5-2.1
			c-0.4-0.6-0.9-0.8-1.6-0.8c-0.7,0-1.2,0.3-1.6,0.8c-0.3,0.6-0.5,1.3-0.5,2.1V72.6z"/>
		<path class="st4" d="M113.9,68l0.1,1.2c0.3-0.4,0.7-0.8,1.1-1s1-0.3,1.5-0.3c0.6,0,1.1,0.1,1.5,0.4s0.7,0.7,0.9,1.2
			c0.3-0.5,0.6-0.9,1.1-1.2s1-0.4,1.6-0.4c0.9,0,1.6,0.3,2.1,0.9c0.5,0.6,0.8,1.6,0.8,2.9V77h-2v-5.4c0-0.8-0.1-1.3-0.4-1.7
			c-0.3-0.3-0.7-0.5-1.2-0.5c-0.4,0-0.8,0.1-1.1,0.3s-0.5,0.5-0.6,0.9c0,0.1,0,0.2,0,0.2s0,0.1,0,0.2V77h-2v-5.4
			c0-0.8-0.1-1.3-0.4-1.6c-0.3-0.3-0.7-0.5-1.2-0.5c-0.4,0-0.8,0.1-1,0.2c-0.3,0.2-0.5,0.4-0.7,0.7V77h-2v-9H113.9z"/>
		<path class="st4" d="M126.5,72.4c0-1.3,0.4-2.4,1.1-3.3c0.7-0.9,1.7-1.3,3-1.3c1.3,0,2.3,0.4,3,1.3c0.7,0.9,1.1,2,1.1,3.3v0.2
			c0,1.4-0.4,2.5-1.1,3.3c-0.7,0.8-1.7,1.3-3,1.3c-1.3,0-2.3-0.4-3-1.3c-0.7-0.9-1.1-2-1.1-3.3V72.4z M128.5,72.6
			c0,0.9,0.2,1.6,0.5,2.1s0.9,0.8,1.6,0.8c0.7,0,1.2-0.3,1.6-0.8c0.4-0.6,0.5-1.3,0.5-2.1v-0.2c0-0.9-0.2-1.6-0.5-2.1
			c-0.4-0.6-0.9-0.8-1.6-0.8c-0.7,0-1.2,0.3-1.6,0.8c-0.3,0.6-0.5,1.3-0.5,2.1V72.6z"/>
		<path class="st4" d="M144.5,77.1c-1.3,0-2.3-0.4-3.1-1.2c-0.7-0.8-1.1-1.9-1.1-3.2v-0.3c0-1.3,0.4-2.4,1.1-3.3
			c0.7-0.9,1.7-1.3,2.9-1.3c1.2,0,2.1,0.4,2.7,1.1c0.6,0.7,0.9,1.7,0.9,3V73h-5.6l0,0c0,0.7,0.2,1.3,0.6,1.8s0.9,0.7,1.7,0.7
			c0.5,0,1-0.1,1.4-0.2c0.4-0.1,0.8-0.3,1.1-0.6l0.7,1.3c-0.3,0.3-0.8,0.6-1.4,0.8S145.2,77.1,144.5,77.1z M144.3,69.4
			c-0.5,0-0.9,0.2-1.3,0.6c-0.3,0.4-0.5,0.9-0.6,1.5l0,0h3.5v-0.2c0-0.6-0.1-1-0.4-1.4C145.3,69.6,144.9,69.4,144.3,69.4z"/>
		<path class="st4" d="M152.8,71.1l1.7-3.1h2.3l-2.8,4.4l2.9,4.5h-2.3l-1.7-3.2l-1.7,3.2h-2.3l2.9-4.5l-2.8-4.4h2.3L152.8,71.1z"/>
		<path class="st4" d="M163.6,77c-0.1-0.2-0.1-0.4-0.2-0.7c0-0.2-0.1-0.4-0.1-0.6c-0.3,0.4-0.6,0.8-1.1,1.1c-0.5,0.3-1,0.4-1.5,0.4
			c-0.9,0-1.7-0.2-2.2-0.7c-0.5-0.5-0.8-1.1-0.8-2c0-0.9,0.3-1.5,1-2c0.7-0.5,1.7-0.7,2.9-0.7h1.6v-0.8c0-0.5-0.1-0.8-0.4-1.1
			c-0.3-0.3-0.7-0.4-1.2-0.4c-0.5,0-0.8,0.1-1.1,0.3c-0.3,0.2-0.4,0.5-0.4,0.9l-1.9,0l0,0c0-0.7,0.3-1.3,1-1.9
			c0.7-0.5,1.5-0.8,2.6-0.8c1,0,1.9,0.3,2.5,0.8s1,1.3,1,2.3v4c0,0.4,0,0.7,0.1,1.1c0,0.3,0.1,0.7,0.2,1H163.6z M161.2,75.5
			c0.5,0,1-0.1,1.4-0.4c0.4-0.3,0.7-0.5,0.8-0.9v-1.3h-1.6c-0.6,0-1,0.1-1.4,0.4c-0.3,0.3-0.5,0.6-0.5,1c0,0.3,0.1,0.6,0.3,0.8
			C160.4,75.4,160.7,75.5,161.2,75.5z"/>
		<path class="st4" d="M170,65.8V68h1.6v1.5H170v5c0,0.4,0.1,0.6,0.2,0.8c0.2,0.2,0.4,0.2,0.6,0.2c0.1,0,0.2,0,0.3,0
			c0.1,0,0.2,0,0.3-0.1l0.2,1.5c-0.2,0.1-0.4,0.2-0.6,0.2c-0.2,0.1-0.5,0.1-0.7,0.1c-0.7,0-1.3-0.2-1.7-0.7c-0.4-0.4-0.6-1.1-0.6-2
			v-5h-1.4V68h1.4v-2.2H170z"/>
		<path class="st4" d="M178.7,77c-0.1-0.2-0.1-0.4-0.2-0.7c0-0.2-0.1-0.4-0.1-0.6c-0.3,0.4-0.6,0.8-1.1,1.1c-0.5,0.3-1,0.4-1.5,0.4
			c-0.9,0-1.7-0.2-2.2-0.7c-0.5-0.5-0.8-1.1-0.8-2c0-0.9,0.3-1.5,1-2c0.7-0.5,1.7-0.7,2.9-0.7h1.6v-0.8c0-0.5-0.1-0.8-0.4-1.1
			c-0.3-0.3-0.7-0.4-1.2-0.4c-0.5,0-0.8,0.1-1.1,0.3c-0.3,0.2-0.4,0.5-0.4,0.9l-1.9,0l0,0c0-0.7,0.3-1.3,1-1.9
			c0.7-0.5,1.5-0.8,2.6-0.8c1,0,1.9,0.3,2.5,0.8s1,1.3,1,2.3v4c0,0.4,0,0.7,0.1,1.1c0,0.3,0.1,0.7,0.2,1H178.7z M176.2,75.5
			c0.5,0,1-0.1,1.4-0.4c0.4-0.3,0.7-0.5,0.8-0.9v-1.3h-1.6c-0.6,0-1,0.1-1.4,0.4c-0.3,0.3-0.5,0.6-0.5,1c0,0.3,0.1,0.6,0.3,0.8
			C175.5,75.4,175.8,75.5,176.2,75.5z"/>
		<path class="st4" d="M184.4,68l0.1,1.2c0.3-0.4,0.7-0.8,1.1-1s1-0.3,1.5-0.3c0.6,0,1.1,0.1,1.5,0.4s0.7,0.7,0.9,1.2
			c0.3-0.5,0.6-0.9,1.1-1.2s1-0.4,1.6-0.4c0.9,0,1.6,0.3,2.1,0.9c0.5,0.6,0.8,1.6,0.8,2.9V77h-2v-5.4c0-0.8-0.1-1.3-0.4-1.7
			c-0.3-0.3-0.7-0.5-1.2-0.5c-0.4,0-0.8,0.1-1.1,0.3s-0.5,0.5-0.6,0.9c0,0.1,0,0.2,0,0.2s0,0.1,0,0.2V77h-2v-5.4
			c0-0.8-0.1-1.3-0.4-1.6c-0.3-0.3-0.7-0.5-1.2-0.5c-0.4,0-0.8,0.1-1,0.2c-0.3,0.2-0.5,0.4-0.7,0.7V77h-2v-9H184.4z"/>
		<path class="st4" d="M201.1,77.1c-1.3,0-2.3-0.4-3.1-1.2c-0.7-0.8-1.1-1.9-1.1-3.2v-0.3c0-1.3,0.4-2.4,1.1-3.3
			c0.7-0.9,1.7-1.3,2.9-1.3c1.2,0,2.1,0.4,2.7,1.1c0.6,0.7,0.9,1.7,0.9,3V73H199l0,0c0,0.7,0.2,1.3,0.6,1.8s0.9,0.7,1.7,0.7
			c0.5,0,1-0.1,1.4-0.2c0.4-0.1,0.8-0.3,1.1-0.6l0.7,1.3c-0.3,0.3-0.8,0.6-1.4,0.8S201.8,77.1,201.1,77.1z M200.9,69.4
			c-0.5,0-0.9,0.2-1.3,0.6c-0.3,0.4-0.5,0.9-0.6,1.5l0,0h3.5v-0.2c0-0.6-0.1-1-0.4-1.4C201.9,69.6,201.5,69.4,200.9,69.4z"/>
		<path class="st4" d="M208,68l0.1,1.3c0.3-0.5,0.7-0.8,1.1-1.1c0.4-0.3,0.9-0.4,1.5-0.4c0.9,0,1.7,0.3,2.2,0.9
			c0.5,0.6,0.8,1.5,0.8,2.7V77h-2v-5.6c0-0.7-0.1-1.2-0.4-1.5s-0.7-0.4-1.2-0.4c-0.4,0-0.8,0.1-1.1,0.2c-0.3,0.2-0.6,0.4-0.8,0.7V77
			h-2v-9H208z"/>
		<path class="st4" d="M218.4,65.8V68h1.6v1.5h-1.6v5c0,0.4,0.1,0.6,0.2,0.8c0.2,0.2,0.4,0.2,0.6,0.2c0.1,0,0.2,0,0.3,0
			c0.1,0,0.2,0,0.3-0.1l0.2,1.5c-0.2,0.1-0.4,0.2-0.6,0.2c-0.2,0.1-0.5,0.1-0.7,0.1c-0.7,0-1.3-0.2-1.7-0.7c-0.4-0.4-0.6-1.1-0.6-2
			v-5H215V68h1.4v-2.2H218.4z"/>
		<path class="st4" d="M225.5,77.1c-1.3,0-2.3-0.4-3.1-1.2c-0.7-0.8-1.1-1.9-1.1-3.2v-0.3c0-1.3,0.4-2.4,1.1-3.3
			c0.7-0.9,1.7-1.3,2.9-1.3c1.2,0,2.1,0.4,2.7,1.1c0.6,0.7,0.9,1.7,0.9,3V73h-5.6l0,0c0,0.7,0.2,1.3,0.6,1.8s0.9,0.7,1.7,0.7
			c0.5,0,1-0.1,1.4-0.2c0.4-0.1,0.8-0.3,1.1-0.6l0.7,1.3c-0.3,0.3-0.8,0.6-1.4,0.8S226.2,77.1,225.5,77.1z M225.2,69.4
			c-0.5,0-0.9,0.2-1.3,0.6c-0.3,0.4-0.5,0.9-0.6,1.5l0,0h3.5v-0.2c0-0.6-0.1-1-0.4-1.4C226.2,69.6,225.8,69.4,225.2,69.4z"/>
		<path class="st4" d="M84.2,93.2c0,1.3-0.3,2.4-0.9,3.2s-1.5,1.2-2.6,1.2c-0.5,0-1-0.1-1.4-0.3s-0.7-0.5-1-0.8v4.4h-2V88.4H78
			l0.2,1.1c0.3-0.4,0.6-0.7,1-1c0.4-0.2,0.9-0.3,1.4-0.3c1.1,0,2,0.4,2.6,1.3c0.6,0.9,0.9,2,0.9,3.5V93.2z M82.2,93
			c0-0.9-0.2-1.7-0.5-2.3c-0.3-0.6-0.9-0.9-1.5-0.9c-0.4,0-0.8,0.1-1.1,0.3c-0.3,0.2-0.5,0.4-0.7,0.8V95c0.2,0.3,0.4,0.6,0.7,0.7
			c0.3,0.2,0.7,0.3,1.1,0.3c0.7,0,1.2-0.3,1.5-0.8c0.3-0.5,0.5-1.2,0.5-2V93z"/>
		<path class="st4" d="M85.5,92.8c0-1.3,0.4-2.4,1.1-3.3c0.7-0.9,1.7-1.3,3-1.3c1.3,0,2.3,0.4,3,1.3c0.7,0.9,1.1,2,1.1,3.3V93
			c0,1.4-0.4,2.5-1.1,3.3c-0.7,0.8-1.7,1.3-3,1.3c-1.3,0-2.3-0.4-3-1.3c-0.7-0.9-1.1-2-1.1-3.3V92.8z M87.6,93
			c0,0.9,0.2,1.6,0.5,2.1s0.9,0.8,1.6,0.8c0.7,0,1.2-0.3,1.6-0.8c0.4-0.6,0.5-1.3,0.5-2.1v-0.2c0-0.9-0.2-1.6-0.5-2.1
			c-0.4-0.6-0.9-0.8-1.6-0.8c-0.7,0-1.2,0.3-1.6,0.8c-0.3,0.6-0.5,1.3-0.5,2.1V93z"/>
		<path class="st4" d="M100.6,94.9c0-0.3-0.1-0.6-0.4-0.8c-0.3-0.2-0.8-0.4-1.5-0.5c-1.1-0.2-1.9-0.5-2.4-1s-0.8-1-0.8-1.7
			c0-0.8,0.3-1.4,1-1.9c0.6-0.5,1.5-0.8,2.5-0.8c1.1,0,1.9,0.3,2.6,0.8c0.7,0.6,1,1.2,0.9,2l0,0h-1.9c0-0.4-0.1-0.7-0.4-1
			c-0.3-0.3-0.7-0.4-1.2-0.4c-0.5,0-0.9,0.1-1.1,0.3s-0.4,0.5-0.4,0.8c0,0.3,0.1,0.5,0.4,0.7s0.7,0.3,1.5,0.5c1.1,0.2,1.9,0.5,2.5,1
			c0.6,0.4,0.8,1,0.8,1.7c0,0.8-0.3,1.5-1,2c-0.7,0.5-1.5,0.8-2.6,0.8c-1.2,0-2.1-0.3-2.8-0.9s-1-1.3-1-2.1l0,0h1.9
			c0,0.5,0.2,0.9,0.6,1.1S98.5,96,99,96c0.5,0,0.9-0.1,1.2-0.3C100.5,95.5,100.6,95.3,100.6,94.9z"/>
		<path class="st4" d="M109.4,94.9c0-0.3-0.1-0.6-0.4-0.8c-0.3-0.2-0.8-0.4-1.5-0.5c-1.1-0.2-1.9-0.5-2.4-1s-0.8-1-0.8-1.7
			c0-0.8,0.3-1.4,1-1.9c0.6-0.5,1.5-0.8,2.5-0.8c1.1,0,1.9,0.3,2.6,0.8c0.7,0.6,1,1.2,0.9,2l0,0h-1.9c0-0.4-0.1-0.7-0.4-1
			c-0.3-0.3-0.7-0.4-1.2-0.4c-0.5,0-0.9,0.1-1.1,0.3s-0.4,0.5-0.4,0.8c0,0.3,0.1,0.5,0.4,0.7s0.7,0.3,1.5,0.5c1.1,0.2,1.9,0.5,2.5,1
			c0.6,0.4,0.8,1,0.8,1.7c0,0.8-0.3,1.5-1,2c-0.7,0.5-1.5,0.8-2.6,0.8c-1.2,0-2.1-0.3-2.8-0.9s-1-1.3-1-2.1l0,0h1.9
			c0,0.5,0.2,0.9,0.6,1.1s0.8,0.4,1.3,0.4c0.5,0,0.9-0.1,1.2-0.3C109.3,95.5,109.4,95.3,109.4,94.9z"/>
		<path class="st4" d="M112.9,92.8c0-1.3,0.4-2.4,1.1-3.3c0.7-0.9,1.7-1.3,3-1.3c1.3,0,2.3,0.4,3,1.3c0.7,0.9,1.1,2,1.1,3.3V93
			c0,1.4-0.4,2.5-1.1,3.3c-0.7,0.8-1.7,1.3-3,1.3c-1.3,0-2.3-0.4-3-1.3c-0.7-0.9-1.1-2-1.1-3.3V92.8z M114.9,93
			c0,0.9,0.2,1.6,0.5,2.1s0.9,0.8,1.6,0.8c0.7,0,1.2-0.3,1.6-0.8c0.4-0.6,0.5-1.3,0.5-2.1v-0.2c0-0.9-0.2-1.6-0.5-2.1
			c-0.4-0.6-0.9-0.8-1.6-0.8c-0.7,0-1.2,0.3-1.6,0.8c-0.3,0.6-0.5,1.3-0.5,2.1V93z"/>
		<path class="st4" d="M129.2,86.2h-2v-1.8h2V86.2z M129.2,97.4h-2v-9h2V97.4z"/>
		<path class="st4" d="M133.3,88.4l0.1,1.2c0.3-0.4,0.7-0.8,1.1-1s1-0.3,1.5-0.3c0.6,0,1.1,0.1,1.5,0.4s0.7,0.7,0.9,1.2
			c0.3-0.5,0.6-0.9,1.1-1.2s1-0.4,1.6-0.4c0.9,0,1.6,0.3,2.1,0.9c0.5,0.6,0.8,1.6,0.8,2.9v5.4h-2V92c0-0.8-0.1-1.3-0.4-1.7
			c-0.3-0.3-0.7-0.5-1.2-0.5c-0.4,0-0.8,0.1-1.1,0.3s-0.5,0.5-0.6,0.9c0,0.1,0,0.2,0,0.2s0,0.1,0,0.2v5.8h-2V92
			c0-0.8-0.1-1.3-0.4-1.6c-0.3-0.3-0.7-0.5-1.2-0.5c-0.4,0-0.8,0.1-1,0.2c-0.3,0.2-0.5,0.4-0.7,0.7v6.6h-2v-9H133.3z"/>
		<path class="st4" d="M154.2,93.2c0,1.3-0.3,2.4-0.9,3.2s-1.5,1.2-2.6,1.2c-0.5,0-1-0.1-1.4-0.3s-0.7-0.5-1-0.8v4.4h-2V88.4h1.7
			l0.2,1.1c0.3-0.4,0.6-0.7,1-1c0.4-0.2,0.9-0.3,1.4-0.3c1.1,0,2,0.4,2.6,1.3c0.6,0.9,0.9,2,0.9,3.5V93.2z M152.1,93
			c0-0.9-0.2-1.7-0.5-2.3c-0.3-0.6-0.9-0.9-1.5-0.9c-0.4,0-0.8,0.1-1.1,0.3c-0.3,0.2-0.5,0.4-0.7,0.8V95c0.2,0.3,0.4,0.6,0.7,0.7
			c0.3,0.2,0.7,0.3,1.1,0.3c0.7,0,1.2-0.3,1.5-0.8c0.3-0.5,0.5-1.2,0.5-2V93z"/>
		<path class="st4" d="M158.1,97.4h-2V84.4h2V97.4z"/>
		<path class="st4" d="M164.1,97.5c-1.3,0-2.3-0.4-3.1-1.2c-0.7-0.8-1.1-1.9-1.1-3.2v-0.3c0-1.3,0.4-2.4,1.1-3.3
			c0.7-0.9,1.7-1.3,2.9-1.3c1.2,0,2.1,0.4,2.7,1.1c0.6,0.7,0.9,1.7,0.9,3v1.1H162l0,0c0,0.7,0.2,1.3,0.6,1.8s0.9,0.7,1.7,0.7
			c0.5,0,1-0.1,1.4-0.2c0.4-0.1,0.8-0.3,1.1-0.6l0.7,1.3c-0.3,0.3-0.8,0.6-1.4,0.8S164.9,97.5,164.1,97.5z M163.9,89.8
			c-0.5,0-0.9,0.2-1.3,0.6c-0.3,0.4-0.5,0.9-0.6,1.5l0,0h3.5v-0.2c0-0.6-0.1-1-0.4-1.4C164.9,90,164.5,89.8,163.9,89.8z"/>
		<path class="st4" d="M171.1,88.4l0.1,1.2c0.3-0.4,0.7-0.8,1.1-1s1-0.3,1.5-0.3c0.6,0,1.1,0.1,1.5,0.4s0.7,0.7,0.9,1.2
			c0.3-0.5,0.6-0.9,1.1-1.2s1-0.4,1.6-0.4c0.9,0,1.6,0.3,2.1,0.9c0.5,0.6,0.8,1.6,0.8,2.9v5.4h-2V92c0-0.8-0.1-1.3-0.4-1.7
			c-0.3-0.3-0.7-0.5-1.2-0.5c-0.4,0-0.8,0.1-1.1,0.3s-0.5,0.5-0.6,0.9c0,0.1,0,0.2,0,0.2s0,0.1,0,0.2v5.8h-2V92
			c0-0.8-0.1-1.3-0.4-1.6c-0.3-0.3-0.7-0.5-1.2-0.5c-0.4,0-0.8,0.1-1,0.2c-0.3,0.2-0.5,0.4-0.7,0.7v6.6h-2v-9H171.1z"/>
		<path class="st4" d="M187.8,97.5c-1.3,0-2.3-0.4-3.1-1.2c-0.7-0.8-1.1-1.9-1.1-3.2v-0.3c0-1.3,0.4-2.4,1.1-3.3
			c0.7-0.9,1.7-1.3,2.9-1.3c1.2,0,2.1,0.4,2.7,1.1c0.6,0.7,0.9,1.7,0.9,3v1.1h-5.6l0,0c0,0.7,0.2,1.3,0.6,1.8s0.9,0.7,1.7,0.7
			c0.5,0,1-0.1,1.4-0.2c0.4-0.1,0.8-0.3,1.1-0.6l0.7,1.3c-0.3,0.3-0.8,0.6-1.4,0.8S188.5,97.5,187.8,97.5z M187.6,89.8
			c-0.5,0-0.9,0.2-1.3,0.6c-0.3,0.4-0.5,0.9-0.6,1.5l0,0h3.5v-0.2c0-0.6-0.1-1-0.4-1.4C188.6,90,188.2,89.8,187.6,89.8z"/>
		<path class="st4" d="M194.7,88.4l0.1,1.3c0.3-0.5,0.7-0.8,1.1-1.1c0.4-0.3,0.9-0.4,1.5-0.4c0.9,0,1.7,0.3,2.2,0.9
			c0.5,0.6,0.8,1.5,0.8,2.7v5.6h-2v-5.6c0-0.7-0.1-1.2-0.4-1.5s-0.7-0.4-1.2-0.4c-0.4,0-0.8,0.1-1.1,0.2c-0.3,0.2-0.6,0.4-0.8,0.7
			v6.6h-2v-9H194.7z"/>
		<path class="st4" d="M205.1,86.2v2.2h1.6v1.5h-1.6v5c0,0.4,0.1,0.6,0.2,0.8c0.2,0.2,0.4,0.2,0.6,0.2c0.1,0,0.2,0,0.3,0
			c0.1,0,0.2,0,0.3-0.1l0.2,1.5c-0.2,0.1-0.4,0.2-0.6,0.2c-0.2,0.1-0.5,0.1-0.7,0.1c-0.7,0-1.3-0.2-1.7-0.7c-0.4-0.4-0.6-1.1-0.6-2
			v-5h-1.4v-1.5h1.4v-2.2H205.1z"/>
		<path class="st4" d="M213.8,97.4c-0.1-0.2-0.1-0.4-0.2-0.7c0-0.2-0.1-0.4-0.1-0.6c-0.3,0.4-0.6,0.8-1.1,1.1
			c-0.5,0.3-1,0.4-1.5,0.4c-0.9,0-1.7-0.2-2.2-0.7c-0.5-0.5-0.8-1.1-0.8-2c0-0.9,0.3-1.5,1-2c0.7-0.5,1.7-0.7,2.9-0.7h1.6v-0.8
			c0-0.5-0.1-0.8-0.4-1.1c-0.3-0.3-0.7-0.4-1.2-0.4c-0.5,0-0.8,0.1-1.1,0.3c-0.3,0.2-0.4,0.5-0.4,0.9l-1.9,0l0,0
			c0-0.7,0.3-1.3,1-1.9c0.7-0.5,1.5-0.8,2.6-0.8c1,0,1.9,0.3,2.5,0.8s1,1.3,1,2.3v4c0,0.4,0,0.7,0.1,1.1c0,0.3,0.1,0.7,0.2,1H213.8z
			 M211.3,95.9c0.5,0,1-0.1,1.4-0.4c0.4-0.3,0.7-0.5,0.8-0.9v-1.3h-1.6c-0.6,0-1,0.1-1.4,0.4c-0.3,0.3-0.5,0.6-0.5,1
			c0,0.3,0.1,0.6,0.3,0.8C210.6,95.8,210.9,95.9,211.3,95.9z"/>
		<path class="st4" d="M222.1,90.2l-0.9,0c-0.4,0-0.7,0.1-1,0.2c-0.3,0.2-0.5,0.4-0.6,0.7v6.2h-2v-9h1.8l0.1,1.3
			c0.2-0.5,0.5-0.8,0.9-1.1c0.4-0.3,0.8-0.4,1.2-0.4c0.1,0,0.2,0,0.3,0c0.1,0,0.2,0,0.3,0.1L222.1,90.2z"/>
		<path class="st4" d="M233.2,97.4c-0.1-0.2-0.1-0.4-0.2-0.7c0-0.2-0.1-0.4-0.1-0.6c-0.3,0.4-0.6,0.8-1.1,1.1
			c-0.5,0.3-1,0.4-1.5,0.4c-0.9,0-1.7-0.2-2.2-0.7c-0.5-0.5-0.8-1.1-0.8-2c0-0.9,0.3-1.5,1-2c0.7-0.5,1.7-0.7,2.9-0.7h1.6v-0.8
			c0-0.5-0.1-0.8-0.4-1.1c-0.3-0.3-0.7-0.4-1.2-0.4c-0.5,0-0.8,0.1-1.1,0.3c-0.3,0.2-0.4,0.5-0.4,0.9l-1.9,0l0,0
			c0-0.7,0.3-1.3,1-1.9c0.7-0.5,1.5-0.8,2.6-0.8c1,0,1.9,0.3,2.5,0.8s1,1.3,1,2.3v4c0,0.4,0,0.7,0.1,1.1c0,0.3,0.1,0.7,0.2,1H233.2z
			 M230.7,95.9c0.5,0,1-0.1,1.4-0.4c0.4-0.3,0.7-0.5,0.8-0.9v-1.3h-1.6c-0.6,0-1,0.1-1.4,0.4c-0.3,0.3-0.5,0.6-0.5,1
			c0,0.3,0.1,0.6,0.3,0.8C230,95.8,230.3,95.9,230.7,95.9z"/>
		<path class="st4" d="M242.1,94.9c0-0.3-0.1-0.6-0.4-0.8c-0.3-0.2-0.8-0.4-1.5-0.5c-1.1-0.2-1.9-0.5-2.4-1s-0.8-1-0.8-1.7
			c0-0.8,0.3-1.4,1-1.9c0.6-0.5,1.5-0.8,2.5-0.8c1.1,0,1.9,0.3,2.6,0.8c0.7,0.6,1,1.2,0.9,2l0,0H242c0-0.4-0.1-0.7-0.4-1
			c-0.3-0.3-0.7-0.4-1.2-0.4c-0.5,0-0.9,0.1-1.1,0.3s-0.4,0.5-0.4,0.8c0,0.3,0.1,0.5,0.4,0.7s0.7,0.3,1.5,0.5c1.1,0.2,1.9,0.5,2.5,1
			c0.6,0.4,0.8,1,0.8,1.7c0,0.8-0.3,1.5-1,2c-0.7,0.5-1.5,0.8-2.6,0.8c-1.2,0-2.1-0.3-2.8-0.9s-1-1.3-1-2.1l0,0h1.9
			c0,0.5,0.2,0.9,0.6,1.1s0.8,0.4,1.3,0.4c0.5,0,0.9-0.1,1.2-0.3C241.9,95.5,242.1,95.3,242.1,94.9z"/>
		<path class="st4" d="M82.7,113.6c0,1.3-0.3,2.4-0.9,3.2s-1.5,1.2-2.6,1.2c-0.5,0-1-0.1-1.4-0.3s-0.7-0.5-1-0.8v4.4h-2v-12.4h1.7
			l0.2,1.1c0.3-0.4,0.6-0.7,1-1c0.4-0.2,0.9-0.3,1.4-0.3c1.1,0,2,0.4,2.6,1.3c0.6,0.9,0.9,2,0.9,3.5V113.6z M80.7,113.4
			c0-0.9-0.2-1.7-0.5-2.3c-0.3-0.6-0.9-0.9-1.5-0.9c-0.4,0-0.8,0.1-1.1,0.3c-0.3,0.2-0.5,0.4-0.7,0.8v4.1c0.2,0.3,0.4,0.6,0.7,0.7
			c0.3,0.2,0.7,0.3,1.1,0.3c0.7,0,1.2-0.3,1.5-0.8c0.3-0.5,0.5-1.2,0.5-2V113.4z"/>
		<path class="st4" d="M88.9,110.6l-0.9,0c-0.4,0-0.7,0.1-1,0.2c-0.3,0.2-0.5,0.4-0.6,0.7v6.2h-2v-9h1.8l0.1,1.3
			c0.2-0.5,0.5-0.8,0.9-1.1c0.4-0.3,0.8-0.4,1.2-0.4c0.1,0,0.2,0,0.3,0c0.1,0,0.2,0,0.3,0.1L88.9,110.6z"/>
		<path class="st4" d="M95.8,117.8c-0.1-0.2-0.1-0.4-0.2-0.7c0-0.2-0.1-0.4-0.1-0.6c-0.3,0.4-0.6,0.8-1.1,1.1
			c-0.5,0.3-1,0.4-1.5,0.4c-0.9,0-1.7-0.2-2.2-0.7c-0.5-0.5-0.8-1.1-0.8-2c0-0.9,0.3-1.5,1-2c0.7-0.5,1.7-0.7,2.9-0.7h1.6v-0.8
			c0-0.5-0.1-0.8-0.4-1.1c-0.3-0.3-0.7-0.4-1.2-0.4c-0.5,0-0.8,0.1-1.1,0.3c-0.3,0.2-0.4,0.5-0.4,0.9l-1.9,0l0,0
			c0-0.7,0.3-1.3,1-1.9c0.7-0.5,1.5-0.8,2.6-0.8c1,0,1.9,0.3,2.5,0.8s1,1.3,1,2.3v4c0,0.4,0,0.7,0.1,1.1c0,0.3,0.1,0.7,0.2,1H95.8z
			 M93.4,116.3c0.5,0,1-0.1,1.4-0.4c0.4-0.3,0.7-0.5,0.8-0.9v-1.3h-1.6c-0.6,0-1,0.1-1.4,0.4c-0.3,0.3-0.5,0.6-0.5,1
			c0,0.3,0.1,0.6,0.3,0.8C92.6,116.2,92.9,116.3,93.4,116.3z M94.6,105h2.3l0,0l-2.3,2.2H93L94.6,105z"/>
		<path class="st4" d="M102.2,106.6v2.2h1.6v1.5h-1.6v5c0,0.4,0.1,0.6,0.2,0.8c0.2,0.2,0.4,0.2,0.6,0.2c0.1,0,0.2,0,0.3,0
			c0.1,0,0.2,0,0.3-0.1l0.2,1.5c-0.2,0.1-0.4,0.2-0.6,0.2c-0.2,0.1-0.5,0.1-0.7,0.1c-0.7,0-1.3-0.2-1.7-0.7c-0.4-0.4-0.6-1.1-0.6-2
			v-5h-1.4v-1.5h1.4v-2.2H102.2z"/>
		<path class="st4" d="M107.6,106.6h-2v-1.8h2V106.6z M107.6,117.8h-2v-9h2V117.8z"/>
		<path class="st4" d="M113.5,116.3c0.5,0,0.8-0.1,1.2-0.4c0.3-0.3,0.5-0.7,0.5-1.1h1.8l0,0c0,0.8-0.3,1.6-1,2.2
			c-0.7,0.6-1.5,0.9-2.5,0.9c-1.3,0-2.3-0.4-3-1.3c-0.7-0.9-1.1-1.9-1.1-3.2v-0.3c0-1.3,0.4-2.4,1.1-3.2s1.7-1.3,3-1.3
			c1,0,1.9,0.3,2.5,0.9c0.7,0.6,1,1.4,0.9,2.4l0,0h-1.8c0-0.5-0.2-0.9-0.5-1.3s-0.7-0.5-1.2-0.5c-0.7,0-1.2,0.3-1.6,0.8
			c-0.3,0.6-0.5,1.2-0.5,2.1v0.3c0,0.8,0.2,1.5,0.5,2.1C112.3,116.1,112.8,116.3,113.5,116.3z"/>
		<path class="st4" d="M124.1,117.8c-0.1-0.2-0.1-0.4-0.2-0.7c0-0.2-0.1-0.4-0.1-0.6c-0.3,0.4-0.6,0.8-1.1,1.1
			c-0.5,0.3-1,0.4-1.5,0.4c-0.9,0-1.7-0.2-2.2-0.7c-0.5-0.5-0.8-1.1-0.8-2c0-0.9,0.3-1.5,1-2c0.7-0.5,1.7-0.7,2.9-0.7h1.6v-0.8
			c0-0.5-0.1-0.8-0.4-1.1c-0.3-0.3-0.7-0.4-1.2-0.4c-0.5,0-0.8,0.1-1.1,0.3c-0.3,0.2-0.4,0.5-0.4,0.9l-1.9,0l0,0
			c0-0.7,0.3-1.3,1-1.9c0.7-0.5,1.5-0.8,2.6-0.8c1,0,1.9,0.3,2.5,0.8s1,1.3,1,2.3v4c0,0.4,0,0.7,0.1,1.1c0,0.3,0.1,0.7,0.2,1H124.1z
			 M121.7,116.3c0.5,0,1-0.1,1.4-0.4c0.4-0.3,0.7-0.5,0.8-0.9v-1.3h-1.6c-0.6,0-1,0.1-1.4,0.4c-0.3,0.3-0.5,0.6-0.5,1
			c0,0.3,0.1,0.6,0.3,0.8C120.9,116.2,121.2,116.3,121.7,116.3z"/>
		<path class="st4" d="M133,115.3c0-0.3-0.1-0.6-0.4-0.8c-0.3-0.2-0.8-0.4-1.5-0.5c-1.1-0.2-1.9-0.5-2.4-1s-0.8-1-0.8-1.7
			c0-0.8,0.3-1.4,1-1.9c0.6-0.5,1.5-0.8,2.5-0.8c1.1,0,1.9,0.3,2.6,0.8c0.7,0.6,1,1.2,0.9,2l0,0h-1.9c0-0.4-0.1-0.7-0.4-1
			c-0.3-0.3-0.7-0.4-1.2-0.4c-0.5,0-0.9,0.1-1.1,0.3s-0.4,0.5-0.4,0.8c0,0.3,0.1,0.5,0.4,0.7s0.7,0.3,1.5,0.5c1.1,0.2,1.9,0.5,2.5,1
			c0.6,0.4,0.8,1,0.8,1.7c0,0.8-0.3,1.5-1,2c-0.7,0.5-1.5,0.8-2.6,0.8c-1.2,0-2.1-0.3-2.8-0.9s-1-1.3-1-2.1l0,0h1.9
			c0,0.5,0.2,0.9,0.6,1.1s0.8,0.4,1.3,0.4c0.5,0,0.9-0.1,1.2-0.3C132.9,115.9,133,115.7,133,115.3z"/>
		<path class="st4" d="M148,112.3h-4.7v3.8h5.6v1.6h-7.6v-12.1h7.5v1.6h-5.5v3.4h4.7V112.3z"/>
		<path class="st4" d="M157,114.7c0-0.5-0.2-0.9-0.5-1.2c-0.4-0.3-1-0.6-1.9-0.9c-1.3-0.4-2.3-0.8-3-1.4c-0.7-0.6-1.1-1.3-1.1-2.3
			c0-1,0.4-1.8,1.2-2.4s1.8-0.9,3-0.9c1.3,0,2.4,0.4,3.1,1.1c0.8,0.7,1.2,1.6,1.1,2.6l0,0H157c0-0.6-0.2-1.1-0.6-1.5
			c-0.4-0.4-1-0.6-1.7-0.6c-0.7,0-1.2,0.2-1.6,0.5c-0.4,0.3-0.6,0.7-0.6,1.2c0,0.5,0.2,0.8,0.6,1.1c0.4,0.3,1.1,0.6,2,0.9
			c1.3,0.4,2.2,0.8,2.9,1.4c0.7,0.6,1,1.4,1,2.3c0,1-0.4,1.8-1.2,2.4s-1.8,0.9-3.1,0.9c-1.2,0-2.3-0.3-3.2-1s-1.4-1.6-1.3-2.8l0,0
			h1.9c0,0.7,0.3,1.3,0.8,1.6c0.5,0.4,1.1,0.6,1.8,0.6c0.7,0,1.3-0.2,1.7-0.5C156.8,115.6,157,115.2,157,114.7z"/>
		<path class="st4" d="M170.1,116.1c-0.3,0.5-0.9,0.9-1.6,1.3c-0.7,0.4-1.7,0.6-2.8,0.6c-1.4,0-2.6-0.5-3.5-1.4
			c-0.9-0.9-1.4-2.1-1.4-3.6v-2.5c0-1.5,0.4-2.7,1.3-3.6c0.9-0.9,2-1.4,3.4-1.4c1.4,0,2.5,0.4,3.3,1.1s1.2,1.6,1.1,2.8l0,0H168
			c0-0.7-0.2-1.2-0.6-1.6c-0.4-0.4-1-0.6-1.8-0.6c-0.8,0-1.5,0.3-2,0.9c-0.5,0.6-0.8,1.4-0.8,2.4v2.5c0,1,0.3,1.8,0.8,2.4
			c0.5,0.6,1.2,0.9,2.1,0.9c0.6,0,1.2-0.1,1.5-0.2c0.4-0.1,0.7-0.3,0.9-0.5v-2.5h-2.5v-1.5h4.5V116.1z"/>
		<path class="st4" d="M178.4,108.8l0.1,1.3c0.3-0.5,0.7-0.8,1.1-1.1c0.4-0.3,0.9-0.4,1.5-0.4c0.9,0,1.7,0.3,2.2,0.9
			c0.5,0.6,0.8,1.5,0.8,2.7v5.6h-2v-5.6c0-0.7-0.1-1.2-0.4-1.5s-0.7-0.4-1.2-0.4c-0.4,0-0.8,0.1-1.1,0.2c-0.3,0.2-0.6,0.4-0.8,0.7
			v6.6h-2v-9H178.4z"/>
		<path class="st4" d="M191.6,117.8c-0.1-0.2-0.1-0.4-0.2-0.7c0-0.2-0.1-0.4-0.1-0.6c-0.3,0.4-0.6,0.8-1.1,1.1
			c-0.5,0.3-1,0.4-1.5,0.4c-0.9,0-1.7-0.2-2.2-0.7c-0.5-0.5-0.8-1.1-0.8-2c0-0.9,0.3-1.5,1-2c0.7-0.5,1.7-0.7,2.9-0.7h1.6v-0.8
			c0-0.5-0.1-0.8-0.4-1.1c-0.3-0.3-0.7-0.4-1.2-0.4c-0.5,0-0.8,0.1-1.1,0.3c-0.3,0.2-0.4,0.5-0.4,0.9l-1.9,0l0,0
			c0-0.7,0.3-1.3,1-1.9c0.7-0.5,1.5-0.8,2.6-0.8c1,0,1.9,0.3,2.5,0.8s1,1.3,1,2.3v4c0,0.4,0,0.7,0.1,1.1c0,0.3,0.1,0.7,0.2,1H191.6z
			 M189.1,116.3c0.5,0,1-0.1,1.4-0.4c0.4-0.3,0.7-0.5,0.8-0.9v-1.3h-1.6c-0.6,0-1,0.1-1.4,0.4c-0.3,0.3-0.5,0.6-0.5,1
			c0,0.3,0.1,0.6,0.3,0.8C188.4,116.2,188.7,116.3,189.1,116.3z"/>
		<path class="st4" d="M201.5,108.8l0.1,1.2c0.3-0.4,0.7-0.8,1.1-1s1-0.3,1.5-0.3c0.6,0,1.1,0.1,1.5,0.4s0.7,0.7,0.9,1.2
			c0.3-0.5,0.6-0.9,1.1-1.2s1-0.4,1.6-0.4c0.9,0,1.6,0.3,2.1,0.9c0.5,0.6,0.8,1.6,0.8,2.9v5.4h-2v-5.4c0-0.8-0.1-1.3-0.4-1.7
			c-0.3-0.3-0.7-0.5-1.2-0.5c-0.4,0-0.8,0.1-1.1,0.3s-0.5,0.5-0.6,0.9c0,0.1,0,0.2,0,0.2s0,0.1,0,0.2v5.8h-2v-5.4
			c0-0.8-0.1-1.3-0.4-1.6c-0.3-0.3-0.7-0.5-1.2-0.5c-0.4,0-0.8,0.1-1,0.2c-0.3,0.2-0.5,0.4-0.7,0.7v6.6h-2v-9H201.5z"/>
		<path class="st4" d="M216.6,106.6h-2v-1.8h2V106.6z M216.6,117.8h-2v-9h2V117.8z"/>
		<path class="st4" d="M220.7,108.8l0.1,1.3c0.3-0.5,0.7-0.8,1.1-1.1c0.4-0.3,0.9-0.4,1.5-0.4c0.9,0,1.7,0.3,2.2,0.9
			c0.5,0.6,0.8,1.5,0.8,2.7v5.6h-2v-5.6c0-0.7-0.1-1.2-0.4-1.5s-0.7-0.4-1.2-0.4c-0.4,0-0.8,0.1-1.1,0.2c-0.3,0.2-0.6,0.4-0.8,0.7
			v6.6h-2v-9H220.7z"/>
		<path class="st4" d="M230.5,110c0.3-0.4,0.7-0.7,1.1-1c0.4-0.2,0.9-0.3,1.4-0.3c1,0,1.7,0.3,2.2,0.9c0.5,0.6,0.8,1.5,0.8,2.8v5.5
			h-2v-5.5c0-0.7-0.1-1.2-0.4-1.5c-0.3-0.3-0.7-0.5-1.2-0.5c-0.4,0-0.8,0.1-1.1,0.2c-0.3,0.2-0.6,0.4-0.8,0.6v6.6h-2v-12.9h2V110z"
			/>
		<path class="st4" d="M243.5,117.8c-0.1-0.2-0.1-0.4-0.2-0.7c0-0.2-0.1-0.4-0.1-0.6c-0.3,0.4-0.6,0.8-1.1,1.1
			c-0.5,0.3-1,0.4-1.5,0.4c-0.9,0-1.7-0.2-2.2-0.7c-0.5-0.5-0.8-1.1-0.8-2c0-0.9,0.3-1.5,1-2c0.7-0.5,1.7-0.7,2.9-0.7h1.6v-0.8
			c0-0.5-0.1-0.8-0.4-1.1c-0.3-0.3-0.7-0.4-1.2-0.4c-0.5,0-0.8,0.1-1.1,0.3c-0.3,0.2-0.4,0.5-0.4,0.9l-1.9,0l0,0
			c0-0.7,0.3-1.3,1-1.9c0.7-0.5,1.5-0.8,2.6-0.8c1,0,1.9,0.3,2.5,0.8s1,1.3,1,2.3v4c0,0.4,0,0.7,0.1,1.1c0,0.3,0.1,0.7,0.2,1H243.5z
			 M241.1,116.3c0.5,0,1-0.1,1.4-0.4c0.4-0.3,0.7-0.5,0.8-0.9v-1.3h-1.6c-0.6,0-1,0.1-1.4,0.4c-0.3,0.3-0.5,0.6-0.5,1
			c0,0.3,0.1,0.6,0.3,0.8C240.3,116.2,240.6,116.3,241.1,116.3z"/>
		<path class="st4" d="M127.7,138.3c-1.3,0-2.3-0.4-3.1-1.2c-0.7-0.8-1.1-1.9-1.1-3.2v-0.3c0-1.3,0.4-2.4,1.1-3.3
			c0.7-0.9,1.7-1.3,2.9-1.3c1.2,0,2.1,0.4,2.7,1.1c0.6,0.7,0.9,1.7,0.9,3v1.1h-5.6l0,0c0,0.7,0.2,1.3,0.6,1.8s0.9,0.7,1.7,0.7
			c0.5,0,1-0.1,1.4-0.2c0.4-0.1,0.8-0.3,1.1-0.6l0.7,1.3c-0.3,0.3-0.8,0.6-1.4,0.8S128.4,138.3,127.7,138.3z M127.5,130.6
			c-0.5,0-0.9,0.2-1.3,0.6c-0.3,0.4-0.5,0.9-0.6,1.5l0,0h3.5v-0.2c0-0.6-0.1-1-0.4-1.4C128.5,130.8,128.1,130.6,127.5,130.6z"/>
		<path class="st4" d="M134.6,129.2l0.1,1.2c0.3-0.4,0.7-0.8,1.1-1s1-0.3,1.5-0.3c0.6,0,1.1,0.1,1.5,0.4s0.7,0.7,0.9,1.2
			c0.3-0.5,0.6-0.9,1.1-1.2s1-0.4,1.6-0.4c0.9,0,1.6,0.3,2.1,0.9c0.5,0.6,0.8,1.6,0.8,2.9v5.4h-2v-5.4c0-0.8-0.1-1.3-0.4-1.7
			c-0.3-0.3-0.7-0.5-1.2-0.5c-0.4,0-0.8,0.1-1.1,0.3s-0.5,0.5-0.6,0.9c0,0.1,0,0.2,0,0.2s0,0.1,0,0.2v5.8h-2v-5.4
			c0-0.8-0.1-1.3-0.4-1.6c-0.3-0.3-0.7-0.5-1.2-0.5c-0.4,0-0.8,0.1-1,0.2c-0.3,0.2-0.5,0.4-0.7,0.7v6.6h-2v-9H134.6z"/>
		<path class="st4" d="M155.5,134c0,1.3-0.3,2.4-0.9,3.2s-1.5,1.2-2.6,1.2c-0.5,0-1-0.1-1.4-0.3s-0.7-0.5-1-0.8v4.4h-2v-12.4h1.7
			l0.2,1.1c0.3-0.4,0.6-0.7,1-1c0.4-0.2,0.9-0.3,1.4-0.3c1.1,0,2,0.4,2.6,1.3c0.6,0.9,0.9,2,0.9,3.5V134z M153.4,133.8
			c0-0.9-0.2-1.7-0.5-2.3c-0.3-0.6-0.9-0.9-1.5-0.9c-0.4,0-0.8,0.1-1.1,0.3c-0.3,0.2-0.5,0.4-0.7,0.8v4.1c0.2,0.3,0.4,0.6,0.7,0.7
			c0.3,0.2,0.7,0.3,1.1,0.3c0.7,0,1.2-0.3,1.5-0.8c0.3-0.5,0.5-1.2,0.5-2V133.8z"/>
		<path class="st4" d="M161.7,131l-0.9,0c-0.4,0-0.7,0.1-1,0.2c-0.3,0.2-0.5,0.4-0.6,0.7v6.2h-2v-9h1.8l0.1,1.3
			c0.2-0.5,0.5-0.8,0.9-1.1c0.4-0.3,0.8-0.4,1.2-0.4c0.1,0,0.2,0,0.3,0c0.1,0,0.2,0,0.3,0.1L161.7,131z"/>
		<path class="st4" d="M166.8,138.3c-1.3,0-2.3-0.4-3.1-1.2c-0.7-0.8-1.1-1.9-1.1-3.2v-0.3c0-1.3,0.4-2.4,1.1-3.3
			c0.7-0.9,1.7-1.3,2.9-1.3c1.2,0,2.1,0.4,2.7,1.1c0.6,0.7,0.9,1.7,0.9,3v1.1h-5.6l0,0c0,0.7,0.2,1.3,0.6,1.8s0.9,0.7,1.7,0.7
			c0.5,0,1-0.1,1.4-0.2c0.4-0.1,0.8-0.3,1.1-0.6l0.7,1.3c-0.3,0.3-0.8,0.6-1.4,0.8S167.6,138.3,166.8,138.3z M166.6,130.6
			c-0.5,0-0.9,0.2-1.3,0.6c-0.3,0.4-0.5,0.9-0.6,1.5l0,0h3.5v-0.2c0-0.6-0.1-1-0.4-1.4C167.6,130.8,167.2,130.6,166.6,130.6z"/>
		<path class="st4" d="M177,135.7c0-0.3-0.1-0.6-0.4-0.8c-0.3-0.2-0.8-0.4-1.5-0.5c-1.1-0.2-1.9-0.5-2.4-1s-0.8-1-0.8-1.7
			c0-0.8,0.3-1.4,1-1.9c0.6-0.5,1.5-0.8,2.5-0.8c1.1,0,1.9,0.3,2.6,0.8c0.7,0.6,1,1.2,0.9,2l0,0h-1.9c0-0.4-0.1-0.7-0.4-1
			c-0.3-0.3-0.7-0.4-1.2-0.4c-0.5,0-0.9,0.1-1.1,0.3s-0.4,0.5-0.4,0.8c0,0.3,0.1,0.5,0.4,0.7s0.7,0.3,1.5,0.5c1.1,0.2,1.9,0.5,2.5,1
			c0.6,0.4,0.8,1,0.8,1.7c0,0.8-0.3,1.5-1,2c-0.7,0.5-1.5,0.8-2.6,0.8c-1.2,0-2.1-0.3-2.8-0.9s-1-1.3-1-2.1l0,0h1.9
			c0,0.5,0.2,0.9,0.6,1.1s0.8,0.4,1.3,0.4c0.5,0,0.9-0.1,1.2-0.3C176.8,136.3,177,136.1,177,135.7z"/>
		<path class="st4" d="M186.2,138.2c-0.1-0.2-0.1-0.4-0.2-0.7c0-0.2-0.1-0.4-0.1-0.6c-0.3,0.4-0.6,0.8-1.1,1.1
			c-0.5,0.3-1,0.4-1.5,0.4c-0.9,0-1.7-0.2-2.2-0.7c-0.5-0.5-0.8-1.1-0.8-2c0-0.9,0.3-1.5,1-2c0.7-0.5,1.7-0.7,2.9-0.7h1.6v-0.8
			c0-0.5-0.1-0.8-0.4-1.1c-0.3-0.3-0.7-0.4-1.2-0.4c-0.5,0-0.8,0.1-1.1,0.3c-0.3,0.2-0.4,0.5-0.4,0.9l-1.9,0l0,0
			c0-0.7,0.3-1.3,1-1.9c0.7-0.5,1.5-0.8,2.6-0.8c1,0,1.9,0.3,2.5,0.8s1,1.3,1,2.3v4c0,0.4,0,0.7,0.1,1.1c0,0.3,0.1,0.7,0.2,1H186.2z
			 M183.7,136.7c0.5,0,1-0.1,1.4-0.4c0.4-0.3,0.7-0.5,0.8-0.9v-1.3h-1.6c-0.6,0-1,0.1-1.4,0.4c-0.3,0.3-0.5,0.6-0.5,1
			c0,0.3,0.1,0.6,0.3,0.8C183,136.6,183.3,136.7,183.7,136.7z"/>
		<path class="st4" d="M191.8,134.8c0-0.8,0.1-1.4,0.3-1.7c0.2-0.3,0.6-0.8,1.2-1.3c0.4-0.4,0.8-0.8,1-1.2c0.3-0.4,0.4-0.8,0.4-1.3
			c0-0.5-0.1-1-0.4-1.2c-0.3-0.3-0.7-0.4-1.2-0.4c-0.5,0-0.8,0.1-1.2,0.4c-0.3,0.3-0.5,0.6-0.5,1.1h-1.9l0,0c0-1,0.3-1.8,1-2.3
			c0.7-0.6,1.6-0.8,2.6-0.8c1.2,0,2.1,0.3,2.7,0.9c0.7,0.6,1,1.4,1,2.5c0,0.7-0.2,1.4-0.6,2c-0.4,0.6-0.9,1.1-1.5,1.6
			c-0.3,0.3-0.5,0.5-0.6,0.8c-0.1,0.2-0.1,0.6-0.1,1.1H191.8z M193.8,138.2h-2.1v-1.9h2.1V138.2z"/>
	</g>
</g>
</svg>
