<?xml version="1.0" encoding="utf-8"?>
<!-- Generator: Adobe Illustrator 27.9.0, SVG Export Plug-In . SVG Version: 6.00 Build 0)  -->
<svg version="1.1" xmlns="http://www.w3.org/2000/svg" xmlns:xlink="http://www.w3.org/1999/xlink" x="0px" y="0px"
	 viewBox="0 0 460.4 458.6" style="enable-background:new 0 0 460.4 458.6;" xml:space="preserve">
<style type="text/css">
	.st0{fill:#92E3A9;}
	.st1{opacity:0.7;}
	.st2{fill:#FFFFFF;}
	.st3{fill:#263238;}
	.st4{fill:#3A261B;}
</style>
<g id="Background_Simple">
	<g>
		<g>
			<path class="st0" d="M422.4,297.3c0,0,51.1-57.4,34.9-157.3C441,40.1,357.6,3.3,302.2,22.5c-55.4,19.2-67.8,52.7-113,71.8
				s-131.1,6-174,70.3c-42.9,64.3,11.9,170.8,81.7,237.6C166.6,469.1,344.8,427.2,422.4,297.3z"/>
		</g>
		<g class="st1">
			<path class="st2" d="M422.4,297.3c0,0,51.1-57.4,34.9-157.3C441,40.1,357.6,3.3,302.2,22.5c-55.4,19.2-67.8,52.7-113,71.8
				s-131.1,6-174,70.3c-42.9,64.3,11.9,170.8,81.7,237.6C166.6,469.1,344.8,427.2,422.4,297.3z"/>
		</g>
	</g>
</g>
<g id="Line_1_">
	<g>
		<rect x="46.6" y="458.1" class="st3" width="400.2" height="1"/>
	</g>
</g>
<g id="Plant">
	<g>
		<g>
			<g>
				
					<rect x="115.6" y="306.2" transform="matrix(0.9946 -0.104 0.104 0.9946 -39.1704 14.2095)" class="st3" width="2" height="152.6"/>
			</g>
			<g>
				<g>
					<g>
						
							<rect x="117.2" y="418.4" transform="matrix(0.7262 -0.6875 0.6875 0.7262 -258.8345 197.2367)" class="st3" width="2" height="10.3"/>
					</g>
					<g>
						<path class="st0" d="M116.8,422.1c0,0,0.2-3.3-2.8-6c-1.8-1.6-11.3-5.6-12.3-2.3C100.8,417.5,110.5,424.6,116.8,422.1z"/>
						<path class="st3" d="M113.9,423.1c-3.5,0-7.3-1.8-9.9-4.1c-2.2-1.9-3.2-3.9-2.8-5.3c0.1-0.5,0.5-1.2,1.6-1.5
							c3.1-0.9,9.9,2.1,11.5,3.5c3.2,2.8,3,6.2,3,6.4l0,0.3l-0.3,0.1C116,422.9,115,423.1,113.9,423.1z M104.2,413
							c-0.4,0-0.8,0-1.1,0.1c-0.6,0.2-0.8,0.5-0.9,0.8c-0.3,1.1,0.7,2.7,2.5,4.3c3.1,2.7,8,4.7,11.6,3.4c0-0.8-0.4-3.3-2.6-5.3
							C112.4,415.3,107.2,413,104.2,413z"/>
					</g>
					<g>
						
							<rect x="112" y="413.9" transform="matrix(0.5289 -0.8487 0.8487 0.5289 -302.9173 292.8049)" class="st3" width="0.5" height="10.7"/>
					</g>
				</g>
				<g>
					<g>
						
							<rect x="119" y="435.4" transform="matrix(0.7262 -0.6875 0.6875 0.7262 -270.023 203.1134)" class="st3" width="2" height="10.3"/>
					</g>
					<g>
						<path class="st0" d="M118.6,439c0,0,0.2-3.3-2.8-6c-1.8-1.6-11.3-5.6-12.3-2.3C102.5,434.4,112.3,441.6,118.6,439z"/>
						<path class="st3" d="M115.7,440.1c-3.5,0-7.3-1.8-9.9-4.1c-2.2-1.9-3.2-3.9-2.8-5.3c0.1-0.5,0.5-1.2,1.6-1.5
							c3.1-0.9,9.9,2.1,11.5,3.5c3.2,2.8,3,6.2,3,6.4l0,0.3l-0.3,0.1C117.8,439.9,116.8,440.1,115.7,440.1z M105.9,430
							c-0.4,0-0.8,0-1.1,0.1c-0.6,0.2-0.8,0.5-0.9,0.8c-0.3,1.1,0.7,2.7,2.5,4.3c3.1,2.7,8,4.7,11.6,3.4c0-0.8-0.4-3.2-2.6-5.3
							C114.2,432.3,108.9,430,105.9,430z"/>
					</g>
					<g>
						
							<rect x="113.8" y="430.9" transform="matrix(0.5289 -0.8487 0.8487 0.5289 -316.4803 302.2912)" class="st3" width="0.5" height="10.7"/>
					</g>
				</g>
				<g>
					<g>
						
							<rect x="112.9" y="377" transform="matrix(0.7262 -0.6875 0.6875 0.7262 -231.5515 182.9287)" class="st3" width="2" height="10.3"/>
					</g>
					<g>
						<path class="st0" d="M112.5,380.7c0,0,0.2-3.3-2.8-6c-1.8-1.6-11.3-5.6-12.3-2.3C96.4,376.1,106.2,383.2,112.5,380.7z"/>
						<path class="st3" d="M109.6,381.7c-3.5,0-7.3-1.8-9.9-4.1c-2.2-1.9-3.2-3.9-2.8-5.3c0.1-0.5,0.5-1.2,1.6-1.5
							c3.1-0.9,9.9,2.1,11.5,3.5c3.2,2.8,3,6.2,3,6.4l0,0.3l-0.3,0.1C111.7,381.5,110.7,381.7,109.6,381.7z M99.9,371.6
							c-0.4,0-0.8,0-1.1,0.1c-0.6,0.2-0.8,0.5-0.9,0.8c-0.3,1.1,0.7,2.7,2.5,4.3c3.1,2.7,8,4.7,11.6,3.4c0-0.8-0.4-3.2-2.6-5.3
							C108.1,373.9,102.8,371.6,99.9,371.6z"/>
					</g>
					<g>
						
							<rect x="107.7" y="372.5" transform="matrix(0.5289 -0.8487 0.8487 0.5289 -269.8119 269.6302)" class="st3" width="0.5" height="10.7"/>
					</g>
				</g>
				<g>
					<g>
						
							<rect x="114.7" y="394" transform="matrix(0.7261 -0.6876 0.6876 0.7261 -242.7531 188.8279)" class="st3" width="2" height="10.3"/>
					</g>
					<g>
						<path class="st0" d="M114.3,397.6c0,0,0.2-3.3-2.8-6c-1.8-1.6-11.3-5.6-12.3-2.3C98.2,393,108,400.2,114.3,397.6z"/>
						<path class="st3" d="M111.4,398.7c-3.5,0-7.3-1.8-9.9-4.1c-2.2-1.9-3.2-3.9-2.8-5.3c0.1-0.5,0.5-1.2,1.6-1.5
							c3.1-0.9,9.9,2.1,11.5,3.5c3.2,2.8,3,6.2,3,6.4l0,0.3l-0.3,0.1C113.5,398.5,112.4,398.7,111.4,398.7z M101.6,388.6
							c-0.4,0-0.8,0-1.1,0.1c-0.6,0.2-0.8,0.5-0.9,0.8c-0.3,1.1,0.7,2.7,2.5,4.3c3.1,2.7,8,4.7,11.6,3.4c0-0.8-0.4-3.3-2.6-5.3
							C109.9,390.9,104.6,388.6,101.6,388.6z"/>
					</g>
					<g>
						
							<rect x="109.5" y="389.5" transform="matrix(0.5289 -0.8487 0.8487 0.5289 -283.3788 279.1275)" class="st3" width="0.5" height="10.7"/>
					</g>
				</g>
				<g>
					<g>
						
							<rect x="110" y="349.5" transform="matrix(0.7262 -0.6875 0.6875 0.7262 -213.3959 173.4153)" class="st3" width="2" height="10.3"/>
					</g>
					<g>
						<path class="st0" d="M109.6,353.1c0,0,0.2-3.3-2.8-6c-1.8-1.6-11.3-5.6-12.3-2.3C93.6,348.5,103.3,355.7,109.6,353.1z"/>
						<path class="st3" d="M106.7,354.1c-3.5,0-7.3-1.8-9.9-4.1c-2.2-1.9-3.2-3.9-2.8-5.3c0.1-0.5,0.5-1.2,1.6-1.5
							c3.1-0.9,9.9,2.1,11.5,3.5c3.2,2.8,3,6.2,3,6.4l0,0.3l-0.3,0.1C108.8,354,107.8,354.1,106.7,354.1z M97,344
							c-0.4,0-0.8,0-1.1,0.1c-0.6,0.2-0.8,0.5-0.9,0.8c-0.3,1.1,0.7,2.7,2.5,4.3c3.1,2.7,8,4.7,11.6,3.4c0-0.8-0.4-3.2-2.6-5.3
							C105.2,346.4,100,344,97,344z"/>
					</g>
					<g>
						
							<rect x="104.8" y="344.9" transform="matrix(0.5289 -0.8487 0.8487 0.5289 -247.774 254.2034)" class="st3" width="0.5" height="10.7"/>
					</g>
				</g>
				<g>
					<g>
						
							<rect x="107.1" y="321.8" transform="matrix(0.7261 -0.6876 0.6876 0.7261 -195.1645 163.8682)" class="st3" width="2" height="10.3"/>
					</g>
					<g>
						<path class="st0" d="M106.7,325.4c0,0,0.2-3.3-2.8-6c-1.8-1.6-11.3-5.6-12.3-2.3C90.7,320.8,100.4,328,106.7,325.4z"/>
						<path class="st3" d="M103.8,326.5c-3.5,0-7.3-1.8-9.9-4.1c-2.2-1.9-3.2-3.9-2.8-5.3c0.1-0.5,0.5-1.2,1.6-1.5
							c3.1-0.9,9.9,2.1,11.5,3.5c3.2,2.8,3,6.2,3,6.4l0,0.3l-0.3,0.1C106,326.3,104.9,326.5,103.8,326.5z M94.1,316.4
							c-0.4,0-0.8,0-1.1,0.1c-0.6,0.2-0.8,0.5-0.9,0.8c-0.3,1.1,0.7,2.7,2.5,4.3c3.1,2.7,8,4.7,11.6,3.4c0-0.8-0.4-3.2-2.6-5.3
							C102.3,318.7,97.1,316.4,94.1,316.4z"/>
					</g>
					<g>
						
							<rect x="101.9" y="317.2" transform="matrix(0.5289 -0.8487 0.8487 0.5289 -225.6394 238.7086)" class="st3" width="0.5" height="10.7"/>
					</g>
				</g>
				<g>
					<g>
						
							<rect x="118.1" y="411.9" transform="matrix(0.5225 -0.8526 0.8526 0.5225 -293.1954 302.2123)" class="st3" width="10.3" height="2"/>
					</g>
					<g>
						<path class="st0" d="M124.3,411.1c0,0-0.9-3.2,1.5-6.4c1.4-2,9.9-7.9,11.5-4.8C139,403.3,131,412.3,124.3,411.1z"/>
						<path class="st3" d="M125.5,411.7c-0.4,0-0.9,0-1.3-0.1l-0.3-0.1l-0.1-0.3c0-0.1-0.9-3.5,1.6-6.9c1.3-1.7,7.3-6.1,10.5-5.8
							c1.1,0.1,1.6,0.7,1.8,1.1c0.7,1.4,0.1,3.5-1.6,5.8C133.7,408.8,129.5,411.7,125.5,411.7z M124.7,410.7
							c3.8,0.5,8.2-2.5,10.7-5.8c1.4-1.9,2-3.8,1.5-4.8c-0.1-0.2-0.4-0.5-1-0.6c-2.7-0.2-8.5,3.9-9.6,5.4
							C124.4,407.5,124.6,409.9,124.7,410.7z"/>
					</g>
					<g>
						
							<rect x="122.7" y="407" transform="matrix(0.7226 -0.6913 0.6913 0.7226 -245.9081 201.7205)" class="st3" width="11.3" height="0.5"/>
					</g>
				</g>
				<g>
					<g>
						
							<rect x="113.4" y="367.2" transform="matrix(0.5225 -0.8526 0.8526 0.5225 -257.3484 276.9186)" class="st3" width="10.3" height="2"/>
					</g>
					<g>
						<path class="st0" d="M119.6,366.5c0,0-0.9-3.2,1.5-6.4c1.4-2,9.9-7.9,11.5-4.8C134.4,358.7,126.3,367.7,119.6,366.5z"/>
						<path class="st3" d="M120.8,367.1c-0.4,0-0.9,0-1.3-0.1l-0.3-0.1l-0.1-0.3c0-0.1-0.9-3.5,1.6-6.9c1.3-1.7,7.3-6.1,10.5-5.8
							c1.1,0.1,1.6,0.7,1.8,1.1c0.7,1.4,0.1,3.5-1.6,5.8C129.1,364.1,124.8,367.1,120.8,367.1z M120,366c3.8,0.5,8.2-2.5,10.7-5.8
							c1.4-1.9,2-3.8,1.5-4.8c-0.1-0.2-0.4-0.5-1-0.6c-2.7-0.2-8.5,3.9-9.6,5.4C119.7,362.8,119.9,365.2,120,366z"/>
					</g>
					<g>
						
							<rect x="118" y="362.3" transform="matrix(0.7226 -0.6913 0.6913 0.7226 -216.3322 186.1107)" class="st3" width="11.3" height="0.5"/>
					</g>
				</g>
				<g>
					<g>
						
							<rect x="111.4" y="347.6" transform="matrix(0.5225 -0.8526 0.8526 0.5225 -241.5956 265.8029)" class="st3" width="10.3" height="2"/>
					</g>
					<g>
						<path class="st0" d="M117.6,346.9c0,0-0.9-3.2,1.5-6.4c1.4-2,9.9-7.9,11.5-4.8C132.3,339,124.2,348.1,117.6,346.9z"/>
						<path class="st3" d="M118.8,347.5c-0.4,0-0.9,0-1.3-0.1l-0.3-0.1l-0.1-0.3c0-0.1-0.9-3.5,1.6-6.9c1.3-1.7,7.3-6.1,10.5-5.8
							c1.1,0.1,1.6,0.7,1.8,1.1c0.7,1.4,0.1,3.5-1.6,5.8C127,344.5,122.8,347.5,118.8,347.5z M118,346.4c3.8,0.5,8.2-2.5,10.7-5.8
							c1.4-1.9,2-3.8,1.5-4.8c-0.1-0.2-0.4-0.5-1-0.6c-2.7-0.2-8.5,3.9-9.6,5.4C117.7,343.2,117.8,345.6,118,346.4z"/>
					</g>
					<g>
						
							<rect x="116" y="342.7" transform="matrix(0.7226 -0.6913 0.6913 0.7226 -203.3347 179.2507)" class="st3" width="11.3" height="0.5"/>
					</g>
				</g>
				<g>
					<g>
						
							<rect x="108.4" y="318.8" transform="matrix(0.5225 -0.8526 0.8526 0.5225 -218.501 249.507)" class="st3" width="10.3" height="2"/>
					</g>
					<g>
						<path class="st0" d="M114.6,318.1c0,0-0.9-3.2,1.5-6.4c1.4-2,9.9-7.9,11.5-4.8C129.3,310.3,121.2,319.3,114.6,318.1z"/>
						<path class="st3" d="M115.8,318.7c-0.4,0-0.9,0-1.3-0.1l-0.3-0.1l-0.1-0.3c0-0.1-0.9-3.5,1.6-6.9c1.3-1.7,7.3-6.1,10.5-5.8
							c1.1,0.1,1.6,0.7,1.8,1.1c0.7,1.4,0.1,3.5-1.6,5.8C124,315.7,119.7,318.7,115.8,318.7z M115,317.6c3.8,0.5,8.2-2.5,10.7-5.8
							c1.4-1.9,2-3.8,1.5-4.8c-0.1-0.2-0.4-0.5-1-0.6c-2.7-0.2-8.5,3.9-9.6,5.4C114.7,314.4,114.8,316.8,115,317.6z"/>
					</g>
					<g>
						
							<rect x="113" y="313.9" transform="matrix(0.7226 -0.6913 0.6913 0.7226 -184.2803 169.1938)" class="st3" width="11.3" height="0.5"/>
					</g>
					<g>
						<path class="st0" d="M108.5,305.8c0,0-0.9-3.2,1.5-6.4c1.4-2,9.9-7.9,11.5-4.8C123.3,298,115.2,307,108.5,305.8z"/>
						<path class="st3" d="M109.8,306.4c-0.4,0-0.9,0-1.3-0.1l-0.3-0.1l-0.1-0.3c0-0.1-0.9-3.5,1.6-6.9c1.3-1.7,7.3-6.1,10.5-5.8
							c1.1,0.1,1.6,0.7,1.8,1.1c0.7,1.4,0.1,3.5-1.6,5.8C118,303.5,113.7,306.4,109.8,306.4z M109,305.4c3.8,0.5,8.2-2.5,10.7-5.8
							c1.4-1.9,2-3.8,1.5-4.8c-0.1-0.2-0.4-0.5-1-0.6c-2.7-0.2-8.5,3.9-9.6,5.4C108.6,302.2,108.8,304.5,109,305.4z"/>
					</g>
					<g>
						
							<rect x="107" y="301.7" transform="matrix(0.7226 -0.6913 0.6913 0.7226 -177.4708 161.6242)" class="st3" width="11.3" height="0.5"/>
					</g>
					<g>
						<path class="st0" d="M109,306.2c0,0-3.3,0.5-6.2-2.2c-1.8-1.6-6.8-10.7-3.5-12C102.8,290.7,110.9,299.6,109,306.2z"/>
						<path class="st3" d="M108.3,306.7c-1.2,0-3.6-0.3-5.9-2.4c-1.6-1.4-5.3-7.9-4.7-11.1c0.2-1.1,0.8-1.5,1.3-1.7
							c1.4-0.6,3.5,0.3,5.6,2.2c3.3,3.1,6,8.4,4.8,12.5l-0.1,0.3l-0.3,0.1C109.1,306.7,108.8,306.7,108.3,306.7z M100,292.4
							c-0.2,0-0.4,0-0.6,0.1c-0.2,0.1-0.6,0.3-0.7,1c-0.5,2.6,3,8.9,4.4,10.2c2.3,2.1,4.7,2.1,5.5,2.1c0.9-3.7-1.6-8.4-4.6-11.2
							C102.5,293.1,101.1,292.4,100,292.4z"/>
					</g>
					<g>
						
							<rect x="105.3" y="296" transform="matrix(0.7913 -0.6114 0.6114 0.7913 -162.4188 127.4858)" class="st3" width="0.5" height="11.3"/>
					</g>
				</g>
			</g>
		</g>
		<g>
			<g>
				
					<rect x="77.2" y="391.8" transform="matrix(9.960040e-02 -0.995 0.995 9.960040e-02 -261.9555 496.1552)" class="st3" width="131.9" height="2"/>
			</g>
			<g>
				<g>
					<g>
						
							<rect x="134" y="438.4" transform="matrix(0.8522 -0.5232 0.5232 0.8522 -212.1315 136.1884)" class="st3" width="2" height="10.3"/>
					</g>
					<g>
						<path class="st0" d="M133.9,441.8c0,0,0.9-3.2-1.5-6.4c-1.4-2-9.9-7.8-11.5-4.7C119.2,434,127.3,443,133.9,441.8z"/>
						<path class="st3" d="M132.7,442.4c-4,0-8.2-3-10.6-6.2c-1.7-2.3-2.3-4.4-1.6-5.8c0.2-0.5,0.8-1.1,1.8-1.1
							c3.2-0.3,9.3,4.1,10.5,5.8c2.5,3.4,1.6,6.7,1.6,6.9l-0.1,0.3l-0.3,0.1C133.6,442.4,133.2,442.4,132.7,442.4z M122.6,430.3
							c-0.1,0-0.1,0-0.2,0c-0.7,0.1-0.9,0.4-1,0.6c-0.5,1,0.1,2.8,1.5,4.8c2.4,3.3,6.8,6.3,10.7,5.8c0.1-0.8,0.3-3.2-1.5-5.7
							C130.9,434.2,125.4,430.3,122.6,430.3z"/>
					</g>
					<g>
						<polygon class="st3" points="133.8,442 126.1,434.6 126.4,434.2 134.1,441.6 						"/>
					</g>
				</g>
				<g>
					<g>
						
							<rect x="138.3" y="397" transform="matrix(0.8522 -0.5232 0.5232 0.8522 -189.8422 132.3298)" class="st3" width="2" height="10.3"/>
					</g>
					<g>
						<path class="st0" d="M138.2,400.4c0,0,0.9-3.2-1.5-6.4c-1.4-2-9.9-7.8-11.5-4.7C123.5,392.6,131.6,401.6,138.2,400.4z"/>
						<path class="st3" d="M137,401c-4,0-8.2-3-10.6-6.2c-1.7-2.3-2.3-4.4-1.6-5.8c0.2-0.5,0.8-1.1,1.8-1.1
							c3.2-0.3,9.3,4.1,10.5,5.8c2.5,3.4,1.6,6.7,1.6,6.9l-0.1,0.3l-0.3,0.1C137.9,401,137.5,401,137,401z M126.9,388.9
							c-0.1,0-0.1,0-0.2,0c-0.7,0.1-0.9,0.4-1,0.6c-0.5,1,0.1,2.8,1.5,4.8c2.4,3.3,6.8,6.3,10.7,5.8c0.1-0.8,0.3-3.2-1.5-5.7
							C135.2,392.8,129.7,388.9,126.9,388.9z"/>
					</g>
					<g>
						<polygon class="st3" points="138.1,400.6 130.4,393.2 130.7,392.8 138.4,400.2 						"/>
					</g>
				</g>
				<g>
					<g>
						
							<rect x="136.5" y="414" transform="matrix(0.8522 -0.5233 0.5233 0.8522 -198.9958 133.9336)" class="st3" width="2" height="10.3"/>
					</g>
					<g>
						<path class="st0" d="M136.5,417.4c0,0,0.9-3.2-1.5-6.4c-1.4-2-9.9-7.8-11.5-4.7C121.7,409.6,129.8,418.6,136.5,417.4z"/>
						<path class="st3" d="M135.2,418c-4,0-8.2-3-10.6-6.2c-1.7-2.3-2.3-4.4-1.6-5.8c0.2-0.5,0.8-1.1,1.8-1.1
							c3.2-0.3,9.3,4.1,10.5,5.8c2.5,3.4,1.6,6.7,1.6,6.9l-0.1,0.3l-0.3,0.1C136.1,418,135.7,418,135.2,418z M125.1,405.8
							c-0.1,0-0.1,0-0.2,0c-0.7,0.1-0.9,0.4-1,0.6c-0.5,1,0.1,2.8,1.5,4.8c2.4,3.3,6.8,6.3,10.7,5.8c0.1-0.8,0.3-3.2-1.5-5.7
							C133.5,409.7,127.9,405.8,125.1,405.8z"/>
					</g>
					<g>
						<polygon class="st3" points="136.3,417.6 128.6,410.2 128.9,409.8 136.7,417.2 						"/>
					</g>
				</g>
				<g>
					<g>
						
							<rect x="141.1" y="369.5" transform="matrix(0.8522 -0.5232 0.5232 0.8522 -174.9959 129.7518)" class="st3" width="2" height="10.3"/>
					</g>
					<g>
						<path class="st0" d="M141.1,372.9c0,0,0.9-3.2-1.5-6.4c-1.4-2-9.9-7.8-11.5-4.7C126.3,365,134.4,374.1,141.1,372.9z"/>
						<path class="st3" d="M139.9,373.5c-4,0-8.2-3-10.6-6.2c-1.7-2.3-2.3-4.4-1.6-5.8c0.2-0.5,0.8-1.1,1.8-1.1
							c3.2-0.3,9.3,4.1,10.5,5.8c2.5,3.4,1.6,6.7,1.6,6.9l-0.1,0.3l-0.3,0.1C140.8,373.4,140.3,373.5,139.9,373.5z M129.8,361.3
							c-0.1,0-0.1,0-0.2,0c-0.7,0.1-0.9,0.4-1,0.6c-0.5,1,0.1,2.8,1.5,4.8c2.4,3.3,6.8,6.3,10.7,5.8c0.1-0.8,0.3-3.2-1.5-5.7
							C138.1,365.2,132.5,361.3,129.8,361.3z"/>
					</g>
					<g>
						<polygon class="st3" points="140.9,373 133.2,365.6 133.6,365.3 141.3,372.7 						"/>
					</g>
				</g>
				<g>
					<g>
						
							<rect x="144" y="341.8" transform="matrix(0.8522 -0.5233 0.5233 0.8522 -160.0867 127.1653)" class="st3" width="2" height="10.3"/>
					</g>
					<g>
						<path class="st0" d="M144,345.2c0,0,0.9-3.2-1.5-6.4c-1.4-2-9.9-7.8-11.5-4.7C129.2,337.4,137.3,346.4,144,345.2z"/>
						<path class="st3" d="M142.7,345.8c-4,0-8.2-3-10.6-6.2c-1.7-2.3-2.3-4.4-1.6-5.8c0.2-0.5,0.8-1.1,1.8-1.1
							c3.2-0.3,9.3,4.1,10.5,5.8c2.5,3.4,1.6,6.7,1.6,6.9l-0.1,0.3l-0.3,0.1C143.6,345.7,143.2,345.8,142.7,345.8z M132.6,333.6
							c-0.1,0-0.1,0-0.2,0c-0.7,0.1-0.9,0.4-1,0.6c-0.5,1,0.1,2.8,1.5,4.8c2.4,3.3,6.8,6.3,10.7,5.8c0.1-0.8,0.3-3.2-1.5-5.7
							C140.9,337.5,135.4,333.6,132.6,333.6z"/>
					</g>
					<g>
						<polygon class="st3" points="143.8,345.3 136.1,337.9 136.4,337.6 144.1,345 						"/>
					</g>
				</g>
				<g>
					<g>
						
							<rect x="137" y="433.1" transform="matrix(0.6873 -0.7264 0.7264 0.6873 -270.9137 238.9788)" class="st3" width="10.3" height="2"/>
					</g>
					<g>
						<path class="st0" d="M143.5,432.7c0,0-0.2-3.3,2.8-6c1.8-1.6,11.3-5.6,12.3-2.3C159.5,428,149.8,435.2,143.5,432.7z"/>
						<path class="st3" d="M146.4,433.7c-1.1,0-2.1-0.2-3.1-0.6L143,433l0-0.3c0-0.1-0.2-3.6,3-6.4c1.6-1.4,8.4-4.4,11.5-3.5
							c1,0.3,1.4,1,1.6,1.5c0.4,1.5-0.6,3.4-2.8,5.3C153.7,431.9,149.9,433.7,146.4,433.7z M144,432.3c3.6,1.3,8.5-0.7,11.6-3.5
							c1.8-1.6,2.8-3.3,2.5-4.3c-0.1-0.3-0.2-0.6-0.9-0.8c-2.6-0.8-9.1,2-10.6,3.3C144.3,429.1,144,431.5,144,432.3z"/>
					</g>
					<g>
						
							<rect x="142.6" y="429.4" transform="matrix(0.8502 -0.5265 0.5265 0.8502 -204.0009 142.4512)" class="st3" width="11.3" height="0.5"/>
					</g>
				</g>
				<g>
					<g>
						
							<rect x="141.6" y="388.5" transform="matrix(0.6873 -0.7264 0.7264 0.6873 -237.0293 228.3814)" class="st3" width="10.3" height="2"/>
					</g>
					<g>
						<path class="st0" d="M148.1,388c0,0-0.2-3.3,2.8-6c1.8-1.6,11.3-5.6,12.3-2.3C164.2,383.4,154.4,390.6,148.1,388z"/>
						<path class="st3" d="M151,389c-1.1,0-2.1-0.2-3.1-0.6l-0.3-0.1l0-0.3c0-0.1-0.2-3.6,3-6.4c1.6-1.4,8.4-4.5,11.5-3.5
							c1,0.3,1.4,1,1.6,1.5c0.4,1.5-0.6,3.4-2.8,5.3C158.3,387.2,154.5,389,151,389z M148.6,387.7c3.6,1.3,8.5-0.7,11.6-3.5
							c1.8-1.6,2.8-3.3,2.5-4.3c-0.1-0.3-0.2-0.6-0.9-0.8c-2.6-0.8-9.1,2-10.6,3.3C149,384.4,148.7,386.8,148.6,387.7z"/>
					</g>
					<g>
						
							<rect x="147.3" y="384.8" transform="matrix(0.8502 -0.5265 0.5265 0.8502 -179.7961 138.2007)" class="st3" width="11.3" height="0.5"/>
					</g>
				</g>
				<g>
					<g>
						
							<rect x="143.6" y="368.9" transform="matrix(0.6873 -0.7264 0.7264 0.6873 -222.1384 223.7244)" class="st3" width="10.3" height="2"/>
					</g>
					<g>
						<path class="st0" d="M150.2,368.4c0,0-0.2-3.3,2.8-6c1.8-1.6,11.3-5.6,12.3-2.3C166.2,363.8,156.5,370.9,150.2,368.4z"/>
						<path class="st3" d="M153.1,369.4c-1.1,0-2.1-0.2-3.1-0.6l-0.3-0.1l0-0.3c0-0.1-0.2-3.6,3-6.4c1.6-1.4,8.4-4.4,11.5-3.5
							c1,0.3,1.4,1,1.6,1.5c0.4,1.5-0.6,3.4-2.8,5.3C160.4,367.6,156.5,369.4,153.1,369.4z M150.7,368c3.6,1.3,8.5-0.7,11.6-3.5
							c1.8-1.6,2.8-3.3,2.5-4.3c-0.1-0.3-0.2-0.6-0.9-0.8c-2.6-0.8-9.1,2-10.6,3.3C151,364.8,150.7,367.2,150.7,368z"/>
					</g>
					<g>
						
							<rect x="149.3" y="365.1" transform="matrix(0.8502 -0.5265 0.5265 0.8502 -169.1593 136.3326)" class="st3" width="11.3" height="0.5"/>
					</g>
				</g>
				<g>
					<g>
						
							<rect x="146.6" y="340.1" transform="matrix(0.6873 -0.7264 0.7264 0.6873 -200.3081 216.8971)" class="st3" width="10.3" height="2"/>
					</g>
					<g>
						<path class="st0" d="M153.2,339.6c0,0-0.2-3.3,2.8-6c1.8-1.6,11.3-5.6,12.3-2.3C169.2,335,159.4,342.2,153.2,339.6z"/>
						<path class="st3" d="M156.1,340.6c-1.1,0-2.1-0.2-3.1-0.6l-0.3-0.1l0-0.3c0-0.1-0.2-3.6,3-6.4c1.6-1.4,8.4-4.4,11.5-3.5
							c1,0.3,1.4,1,1.6,1.5c0.4,1.5-0.6,3.4-2.8,5.3C163.3,338.8,159.5,340.6,156.1,340.6z M153.7,339.3c3.6,1.3,8.5-0.7,11.6-3.5
							c1.8-1.6,2.8-3.3,2.5-4.3c-0.1-0.3-0.2-0.6-0.9-0.8c-2.6-0.8-9.1,2-10.6,3.3C154,336,153.7,338.4,153.7,339.3z"/>
					</g>
					<g>
						
							<rect x="152.3" y="336.4" transform="matrix(0.8502 -0.5265 0.5265 0.8502 -153.5654 133.5943)" class="st3" width="11.3" height="0.5"/>
					</g>
					<g>
						<path class="st0" d="M149.8,326.4c0,0-0.2-3.3,2.8-6c1.8-1.6,11.3-5.6,12.3-2.3C165.8,321.7,156.1,328.9,149.8,326.4z"/>
						<path class="st3" d="M152.7,327.4c-1.1,0-2.1-0.2-3.1-0.6l-0.3-0.1l0-0.3c0-0.1-0.2-3.6,3-6.4c1.6-1.4,8.4-4.5,11.5-3.5
							c1,0.3,1.4,1,1.6,1.5c0.4,1.5-0.6,3.4-2.8,5.3C160,325.6,156.1,327.4,152.7,327.4z M150.3,326c3.6,1.3,8.5-0.7,11.6-3.5
							c1.8-1.6,2.8-3.3,2.5-4.3c-0.1-0.3-0.2-0.6-0.9-0.8c-2.6-0.8-9.1,2-10.6,3.3C150.6,322.8,150.3,325.2,150.3,326z"/>
					</g>
					<g>
						
							<rect x="148.9" y="323.1" transform="matrix(0.8502 -0.5265 0.5265 0.8502 -147.0962 129.8351)" class="st3" width="11.3" height="0.5"/>
					</g>
					<g>
						<path class="st0" d="M150.2,326.8c0,0-3.3-0.1-5.7-3.4c-1.4-2-4.4-11.9-1-12.4C147.3,310.3,153.4,320.8,150.2,326.8z"/>
						<path class="st3" d="M150.5,327.3l-0.3,0c-0.1,0-3.6-0.2-6-3.6c-1.3-1.7-3.5-8.8-2.3-11.8c0.4-1,1.1-1.3,1.7-1.4
							c1.5-0.2,3.4,1,5,3.3c2.6,3.7,4.2,9.4,2.1,13.3L150.5,327.3z M143.8,311.4c-0.1,0-0.2,0-0.2,0c-0.3,0-0.6,0.2-0.9,0.8
							c-1,2.5,1.1,9.3,2.2,10.8c1.8,2.5,4.1,3,5,3.2c1.6-3.5,0.2-8.6-2.2-11.9C146.4,312.5,144.9,311.4,143.8,311.4z"/>
					</g>
					<g>
						<polygon class="st3" points="149.9,326.9 145,316.7 145.5,316.5 150.4,326.7 						"/>
					</g>
				</g>
			</g>
		</g>
		<g>
			
				<rect x="35.4" y="361.6" transform="matrix(4.882754e-03 -1 1 4.882754e-03 -231.6814 492.2914)" class="st3" width="192.2" height="2"/>
		</g>
		<g>
			<g>
				<g>
					
						<rect x="128" y="417.5" transform="matrix(0.7936 -0.6084 0.6084 0.7936 -230.5411 165.7379)" class="st3" width="2" height="10.3"/>
				</g>
				<g>
					<path class="st0" d="M127.8,421.1c0,0,0.5-3.3-2.2-6.2c-1.6-1.8-10.7-6.8-12-3.5C112.3,414.8,121.3,423,127.8,421.1z"/>
					<path class="st3" d="M125.8,421.8c-3.7,0-7.8-2.4-10.4-5.1c-2-2.1-2.8-4.2-2.2-5.6c0.2-0.5,0.6-1.1,1.7-1.3
						c3.2-0.6,9.6,3.1,11.1,4.7c2.8,3.1,2.3,6.5,2.3,6.7l-0.1,0.3l-0.3,0.1C127.2,421.7,126.5,421.8,125.8,421.8z M115.7,410.7
						c-0.2,0-0.4,0-0.6,0c-0.7,0.1-0.9,0.5-1,0.7c-0.4,1,0.4,2.8,2,4.6c2.8,3,7.4,5.5,11.2,4.6c0.1-0.8,0-3.2-2.1-5.5
						C124,413.8,118.5,410.7,115.7,410.7z"/>
				</g>
				<g>
					
						<rect x="123.3" y="412.4" transform="matrix(0.6141 -0.7892 0.7892 0.6141 -282.0269 258.7568)" class="st3" width="0.5" height="10.7"/>
				</g>
			</g>
			<g>
				<g>
					
						<rect x="128" y="382.1" transform="matrix(0.7936 -0.6085 0.6085 0.7936 -208.9804 158.4391)" class="st3" width="2" height="10.3"/>
				</g>
				<g>
					<path class="st0" d="M127.8,385.6c0,0,0.5-3.3-2.2-6.2c-1.6-1.8-10.7-6.8-12-3.5C112.3,379.3,121.3,387.5,127.8,385.6z"/>
					<path class="st3" d="M125.8,386.4c-3.7,0-7.8-2.4-10.4-5.1c-2-2.1-2.8-4.2-2.2-5.6c0.2-0.5,0.6-1.1,1.7-1.3
						c3.2-0.6,9.6,3.1,11.1,4.7c2.8,3.1,2.3,6.5,2.3,6.7l-0.1,0.3l-0.3,0.1C127.2,386.3,126.5,386.4,125.8,386.4z M115.7,375.2
						c-0.2,0-0.4,0-0.6,0c-0.7,0.1-0.9,0.5-1,0.7c-0.4,1,0.4,2.8,2,4.6c2.8,3,7.4,5.5,11.2,4.6c0.1-0.8,0-3.2-2.1-5.5
						C124,378.4,118.5,375.2,115.7,375.2z"/>
				</g>
				<g>
					
						<rect x="123.3" y="377" transform="matrix(0.6141 -0.7892 0.7892 0.6141 -254.0316 245.0456)" class="st3" width="0.5" height="10.7"/>
				</g>
			</g>
			<g>
				<g>
					
						<rect x="128" y="340.5" transform="matrix(0.7936 -0.6085 0.6085 0.7936 -183.6492 149.8454)" class="st3" width="2" height="10.3"/>
				</g>
				<g>
					<path class="st0" d="M127.8,344c0,0,0.5-3.3-2.2-6.2c-1.6-1.8-10.7-6.8-12-3.5C112.3,337.7,121.3,345.9,127.8,344z"/>
					<path class="st3" d="M125.8,344.7c-3.7,0-7.8-2.4-10.4-5.1c-2-2.1-2.8-4.2-2.2-5.6c0.2-0.5,0.6-1.1,1.7-1.3
						c3.2-0.6,9.6,3.1,11.1,4.7c2.8,3.1,2.3,6.5,2.3,6.7l-0.1,0.3l-0.3,0.1C127.2,344.6,126.5,344.7,125.8,344.7z M115.7,333.6
						c-0.2,0-0.4,0-0.6,0c-0.7,0.1-0.9,0.5-1,0.7c-0.4,1,0.4,2.8,2,4.6c2.8,3,7.4,5.5,11.2,4.6c0.1-0.8,0-3.2-2.1-5.5
						C124,336.7,118.5,333.6,115.7,333.6z"/>
				</g>
				<g>
					
						<rect x="123.3" y="335.3" transform="matrix(0.6141 -0.7892 0.7892 0.6141 -221.1767 228.9819)" class="st3" width="0.5" height="10.7"/>
				</g>
			</g>
			<g>
				<g>
					
						<rect x="128" y="312.7" transform="matrix(0.7936 -0.6084 0.6084 0.7936 -166.7762 144.1076)" class="st3" width="2" height="10.3"/>
				</g>
				<g>
					<path class="st0" d="M127.8,316.2c0,0,0.5-3.3-2.2-6.2c-1.6-1.8-10.7-6.8-12-3.5C112.3,310,121.3,318.1,127.8,316.2z"/>
					<path class="st3" d="M125.8,317c-3.7,0-7.8-2.4-10.4-5.1c-2-2.1-2.8-4.2-2.2-5.6c0.2-0.5,0.6-1.1,1.7-1.3
						c3.2-0.6,9.6,3.1,11.1,4.7c2.8,3.1,2.3,6.5,2.3,6.7l-0.1,0.3l-0.3,0.1C127.2,316.9,126.5,317,125.8,317z M115.7,305.9
						c-0.2,0-0.4,0-0.6,0c-0.7,0.1-0.9,0.5-1,0.7c-0.4,1,0.4,2.8,2,4.6c2.8,3,7.4,5.5,11.2,4.6c0.1-0.8,0-3.2-2.1-5.5
						C124,309,118.5,305.9,115.7,305.9z"/>
				</g>
				<g>
					
						<rect x="123.3" y="307.6" transform="matrix(0.6141 -0.7892 0.7892 0.6141 -199.3122 218.3116)" class="st3" width="0.5" height="10.7"/>
				</g>
			</g>
			<g>
				<g>
					
						<rect x="128" y="284.9" transform="matrix(0.7936 -0.6085 0.6085 0.7936 -149.8497 138.3789)" class="st3" width="2" height="10.3"/>
				</g>
				<g>
					<path class="st0" d="M127.8,288.4c0,0,0.5-3.3-2.2-6.2c-1.6-1.8-10.7-6.8-12-3.5C112.3,282.2,121.3,290.3,127.8,288.4z"/>
					<path class="st3" d="M125.8,289.2c-3.7,0-7.8-2.4-10.4-5.1c-2-2.1-2.8-4.2-2.2-5.6c0.2-0.5,0.6-1.1,1.7-1.3
						c3.2-0.6,9.6,3.1,11.1,4.7c2.8,3.1,2.3,6.5,2.3,6.7l-0.1,0.3l-0.3,0.1C127.2,289.1,126.5,289.2,125.8,289.2z M115.7,278.1
						c-0.2,0-0.4,0-0.6,0c-0.7,0.1-0.9,0.5-1,0.7c-0.4,1,0.4,2.8,2,4.6c2.8,3,7.4,5.5,11.2,4.6c0.1-0.8,0-3.2-2.1-5.5
						C124,281.2,118.5,278.1,115.7,278.1z"/>
				</g>
				<g>
					
						<rect x="123.3" y="279.8" transform="matrix(0.6141 -0.7892 0.7892 0.6141 -177.3385 207.5482)" class="st3" width="0.5" height="10.7"/>
				</g>
			</g>
			<g>
				<g>
					
						<rect x="130" y="432.5" transform="matrix(0.6085 -0.7936 0.7936 0.6085 -291.1111 276.9613)" class="st3" width="10.3" height="2"/>
				</g>
				<g>
					<path class="st0" d="M136.4,431.9c0,0-0.5-3.3,2.2-6.2c1.6-1.8,10.7-6.8,12-3.5C151.8,425.6,142.9,433.8,136.4,431.9z"/>
					<path class="st3" d="M138.4,432.7c-0.7,0-1.5-0.1-2.2-0.3l-0.3-0.1l-0.1-0.3c0-0.1-0.6-3.5,2.3-6.7c1.4-1.6,7.9-5.3,11.1-4.7
						c1.1,0.2,1.5,0.8,1.7,1.3c0.6,1.4-0.2,3.5-2.2,5.6C146.2,430.3,142.1,432.7,138.4,432.7z M136.8,431.5
						c3.7,0.9,8.4-1.6,11.2-4.6c1.6-1.8,2.4-3.5,2-4.6c-0.1-0.2-0.3-0.6-1-0.7c-2.6-0.5-8.9,3-10.2,4.4
						C136.8,428.2,136.8,430.6,136.8,431.5z"/>
				</g>
				<g>
					
						<rect x="135.2" y="428.2" transform="matrix(0.7905 -0.6124 0.6124 0.7905 -232.8823 175.9967)" class="st3" width="11.3" height="0.5"/>
				</g>
			</g>
			<g>
				<g>
					
						<rect x="130" y="376.1" transform="matrix(0.6085 -0.7936 0.7936 0.6085 -246.3579 254.8817)" class="st3" width="10.3" height="2"/>
				</g>
				<g>
					<path class="st0" d="M136.4,375.5c0,0-0.5-3.3,2.2-6.2c1.6-1.8,10.7-6.8,12-3.5C151.8,369.2,142.9,377.4,136.4,375.5z"/>
					<path class="st3" d="M138.4,376.3c-0.7,0-1.5-0.1-2.2-0.3l-0.3-0.1l-0.1-0.3c0-0.1-0.6-3.5,2.3-6.7c1.4-1.6,7.9-5.3,11.1-4.7
						c1.1,0.2,1.5,0.8,1.7,1.3c0.6,1.4-0.2,3.5-2.2,5.6C146.2,373.9,142.1,376.3,138.4,376.3z M136.8,375.1
						c3.7,0.9,8.4-1.6,11.2-4.6c1.6-1.8,2.4-3.5,2-4.6c-0.1-0.2-0.3-0.6-1-0.7c-2.6-0.5-8.9,3-10.2,4.4
						C136.8,371.8,136.8,374.2,136.8,375.1z"/>
				</g>
				<g>
					
						<rect x="135.2" y="371.8" transform="matrix(0.7905 -0.6124 0.6124 0.7905 -198.3432 164.1825)" class="st3" width="11.3" height="0.5"/>
				</g>
			</g>
			<g>
				<g>
					
						<rect x="130" y="348.3" transform="matrix(0.6085 -0.7936 0.7936 0.6085 -224.2694 243.984)" class="st3" width="10.3" height="2"/>
				</g>
				<g>
					<path class="st0" d="M136.4,347.6c0,0-0.5-3.3,2.2-6.2c1.6-1.8,10.7-6.8,12-3.5C151.8,341.4,142.9,349.5,136.4,347.6z"/>
					<path class="st3" d="M138.4,348.4c-0.7,0-1.5-0.1-2.2-0.3l-0.3-0.1l-0.1-0.3c0-0.1-0.6-3.5,2.3-6.7c1.4-1.6,7.9-5.3,11.1-4.7
						c1.1,0.2,1.5,0.8,1.7,1.3c0.6,1.4-0.2,3.5-2.2,5.6C146.2,346.1,142.1,348.4,138.4,348.4z M136.8,347.3
						c3.7,0.9,8.4-1.6,11.2-4.6c1.6-1.8,2.4-3.5,2-4.6c-0.1-0.2-0.3-0.6-1-0.7c-2.6-0.5-8.9,3-10.2,4.4
						C136.8,344,136.8,346.4,136.8,347.3z"/>
				</g>
				<g>
					
						<rect x="135.2" y="343.9" transform="matrix(0.7905 -0.6124 0.6124 0.7905 -181.2963 158.3515)" class="st3" width="11.3" height="0.5"/>
				</g>
			</g>
			<g>
				<g>
					
						<rect x="130" y="311.5" transform="matrix(0.6085 -0.7936 0.7936 0.6085 -195.0744 229.5803)" class="st3" width="10.3" height="2"/>
				</g>
				<g>
					<path class="st0" d="M136.4,310.9c0,0-0.5-3.3,2.2-6.2c1.6-1.8,10.7-6.8,12-3.5C151.8,304.6,142.9,312.8,136.4,310.9z"/>
					<path class="st3" d="M138.4,311.6c-0.7,0-1.5-0.1-2.2-0.3l-0.3-0.1l-0.1-0.3c0-0.1-0.6-3.5,2.3-6.7c1.4-1.6,7.9-5.3,11.1-4.7
						c1.1,0.2,1.5,0.8,1.7,1.3c0.6,1.4-0.2,3.5-2.2,5.6C146.2,309.3,142.1,311.6,138.4,311.6z M136.8,310.5
						c3.7,0.9,8.4-1.6,11.2-4.6c1.6-1.8,2.4-3.5,2-4.6c-0.1-0.2-0.3-0.6-1-0.7c-2.6-0.5-8.9,3-10.2,4.4
						C136.8,307.2,136.8,309.6,136.8,310.5z"/>
				</g>
				<g>
					
						<rect x="135.2" y="307.1" transform="matrix(0.7905 -0.6124 0.6124 0.7905 -158.7643 150.6444)" class="st3" width="11.3" height="0.5"/>
				</g>
			</g>
			<g>
				<g>
					
						<rect x="130" y="282.6" transform="matrix(0.6085 -0.7936 0.7936 0.6085 -172.1214 218.2561)" class="st3" width="10.3" height="2"/>
				</g>
				<g>
					<path class="st0" d="M136.4,281.9c0,0-0.5-3.3,2.2-6.2c1.6-1.8,10.7-6.8,12-3.5C151.8,275.7,142.9,283.8,136.4,281.9z"/>
					<path class="st3" d="M138.4,282.7c-0.7,0-1.5-0.1-2.2-0.3l-0.3-0.1l-0.1-0.3c0-0.1-0.6-3.5,2.3-6.7c1.4-1.6,7.9-5.3,11.1-4.7
						c1.1,0.2,1.5,0.8,1.7,1.3c0.6,1.4-0.2,3.5-2.2,5.6C146.2,280.4,142.1,282.7,138.4,282.7z M136.8,281.5
						c3.7,0.9,8.4-1.6,11.2-4.6c1.6-1.8,2.4-3.5,2-4.6c-0.1-0.2-0.3-0.6-1-0.7c-2.6-0.5-8.9,3-10.2,4.4
						C136.8,278.3,136.8,280.7,136.8,281.5z"/>
				</g>
				<g>
					
						<rect x="135.2" y="278.2" transform="matrix(0.7905 -0.6124 0.6124 0.7905 -141.0499 144.5851)" class="st3" width="11.3" height="0.5"/>
				</g>
				<g>
					<path class="st0" d="M131.6,269.1c0,0-0.5-3.3,2.2-6.2c1.6-1.8,10.7-6.8,12-3.5C147.1,262.9,138.2,271,131.6,269.1z"/>
					<path class="st3" d="M133.7,269.9c-0.7,0-1.5-0.1-2.2-0.3l-0.3-0.1l-0.1-0.3c0-0.1-0.6-3.5,2.3-6.7c1.4-1.6,7.9-5.3,11.1-4.7
						c1.1,0.2,1.5,0.8,1.7,1.3c0.6,1.4-0.2,3.5-2.2,5.6C141.5,267.5,137.4,269.9,133.7,269.9z M132.1,268.7
						c3.7,0.9,8.4-1.6,11.2-4.6c1.6-1.8,2.4-3.5,2-4.6c-0.1-0.2-0.3-0.6-1-0.7c-2.6-0.5-8.9,3-10.2,4.4
						C132.1,265.5,132,267.9,132.1,268.7z"/>
				</g>
				<g>
					
						<rect x="130.5" y="265.4" transform="matrix(0.7905 -0.6124 0.6124 0.7905 -134.182 139.0072)" class="st3" width="11.3" height="0.5"/>
				</g>
				<g>
					<path class="st0" d="M132.1,269.5c0,0-3.3,0.2-6-2.8c-1.6-1.8-5.6-11.4-2.3-12.3C127.5,253.4,134.6,263.2,132.1,269.5z"/>
					<path class="st3" d="M131.9,270c-0.7,0-3.7-0.2-6.2-3c-1.4-1.6-4.4-8.4-3.5-11.5c0.3-1,1-1.4,1.5-1.6c1.5-0.4,3.4,0.6,5.3,2.8
						c3,3.4,5.1,8.9,3.5,13l-0.1,0.3l-0.3,0C132.1,270,132,270,131.9,270z M124.4,254.9c-0.1,0-0.3,0-0.4,0.1
						c-0.3,0.1-0.6,0.2-0.8,0.9c-0.8,2.6,2,9.1,3.3,10.6c2,2.3,4.4,2.6,5.3,2.6c1.3-3.6-0.7-8.5-3.4-11.6
						C126.9,255.8,125.4,254.9,124.4,254.9z"/>
				</g>
				<g>
					<polygon class="st3" points="131.9,269.6 125.9,260 126.3,259.7 132.3,269.4 					"/>
				</g>
			</g>
		</g>
	</g>
</g>
<g id="Character">
	<g>
		<g>
			<polygon class="st3" points="386,458.6 380.3,392 243.4,392 235.9,458.6 			"/>
			<path class="st3" d="M386.6,459.1H235.3l7.7-67.6h137.8l0,0.5L386.6,459.1z M236.4,458.1h149.1l-5.7-65.6H243.9L236.4,458.1z"/>
		</g>
		<g>
			<path class="st0" d="M302.2,190.1c0,0-40,11-57.5,24.2c-17.5,13.2-29.6,26.8-26.8,52.4c2.8,25.6,21.1,95.8,21.1,95.8
				s-2.5,28.5-2.5,30.2c0,1.7-0.3,6.5,5.9,6.8c6.2,0.3,80.6,3.4,97.2,3.7c16.6,0.3,38.6-1.4,41.2-3.4c2.5-2,3.9-5.1,4.2-8.5
				c0.3-3.4,3.1-44.8,3.1-44.8l0.3-18.6c0,0,18.3-60.9,19.4-80.6c1.1-19.7-6.2-26.2-14.4-32.4c-8.2-6.2-33.6-16.7-47.4-20.9
				S302.2,190.1,302.2,190.1z"/>
			<path class="st3" d="M343.4,403.7c-1.3,0-2.5,0-3.7,0c-16.8-0.3-90.8-3.4-97.3-3.7c-6.4-0.3-6.4-5.2-6.4-7.1l0-0.2
				c0-1.7,2.3-28.1,2.5-30.1c-0.7-2.8-18.4-70.8-21.1-95.8c-2.7-24.9,8.3-38.7,27-52.9c17.4-13.2,57.3-24.2,57.7-24.3l0.1,0
				c0.3,0,30.5-0.2,44.1,4c13.3,4,39.2,14.6,47.5,20.9c8.9,6.8,15.7,13.5,14.6,32.8c-1.1,19.3-18.7,78.3-19.4,80.7l-0.3,18.5
				c0,0.4-2.8,41.5-3.1,44.8c-0.3,3.7-1.9,6.8-4.4,8.8C378.6,402.2,358.9,403.7,343.4,403.7z M302.3,190.6
				c-1.8,0.5-40.4,11.3-57.3,24.1c-18.4,14-29.3,27.5-26.6,52c2.8,25.3,20.9,95.1,21.1,95.8l0,0.1l0,0.1c0,0.3-2.5,28.5-2.5,30.1
				l0,0.2c0,1.9,0,5.8,5.4,6c6.4,0.3,80.4,3.4,97.2,3.7c16.7,0.3,38.5-1.5,40.8-3.3c2.3-1.8,3.8-4.7,4-8.1
				c0.3-3.3,3.1-44.4,3.1-44.8l0.3-18.7c0.2-0.6,18.3-61,19.4-80.5c1.1-18.9-5.5-25.4-14.2-32c-8.3-6.3-33.9-16.8-47.2-20.8
				C332.8,190.5,303.9,190.6,302.3,190.6z"/>
		</g>
		<g>
			<path class="st3" d="M302.8,391.4h-1c0-1.7,0.7-3.4,1.5-5.2c1.4-3.3,3.2-7.3,2.9-14.8c-0.3-8.6,3.2-58.1,5.3-86.8l1,0.1
				c-2.1,28.7-5.6,78.1-5.3,86.7c0.3,7.7-1.6,12-3,15.2C303.4,388.4,302.8,389.8,302.8,391.4z"/>
		</g>
		<g>
			<path class="st3" d="M313,279l-1-0.1c0.6-7.4,0.9-12.1,0.9-12.1l1,0.1C313.9,267,313.6,271.7,313,279z"/>
		</g>
		<g>
			<polygon class="st3" points="331.3,302.2 333.8,332.4 348.2,331.4 			"/>
			<path class="st3" d="M333.4,332.9l-2.8-32.9l18.4,31.8L333.4,332.9z M332,304.4l2.3,27.5l13-0.9L332,304.4z"/>
		</g>
		<g>
			<path class="st3" d="M317.7,354.9c0,0,35-5.5,37.6-4.9s20.6,9.3,23.2,9.8c2.6,0.6,4.9,1.7,4.9,1.7l3.9,3.3l-1.3-9.9
				c0,0-5.2-6.4-16.8-11c-11.6-4.6-17.4-2-20-1.2C346.6,343.6,317.7,354.9,317.7,354.9z"/>
			<path class="st3" d="M388,366l-4.9-4.1c-0.3-0.2-2.5-1.2-4.8-1.7c-1.4-0.3-6.4-2.6-11.7-5c-5-2.3-10.2-4.6-11.5-4.9
				c-1.8-0.4-23.4,2.7-37.4,4.9l-4.6,0.7l4.3-1.7c1.2-0.5,29-11.3,31.6-12.2l0.5-0.2c2.8-1,8.8-3.1,19.8,1.4
				c11.6,4.6,16.8,10.9,17,11.1l0.1,0.1L388,366z M354.7,349.4c0.3,0,0.5,0,0.7,0c1.4,0.3,6.4,2.6,11.7,5c5,2.3,10.2,4.6,11.5,4.9
				c2.6,0.6,4.9,1.7,5,1.8l0.1,0.1l2.9,2.5l-1.1-8.5c-0.7-0.8-6-6.5-16.5-10.7c-10.7-4.3-16.4-2.3-19.1-1.3l-0.5,0.2
				c-2,0.7-19.1,7.3-27.3,10.5C331.3,352.3,350.4,349.4,354.7,349.4z"/>
		</g>
		<g>
			<path class="st2" d="M263.9,328.5l91-0.3c0,0,29.3-2.8,30.4-3.1c1.1-0.3,12.7,2.8,13.8,3.7c1.1,0.8,1.1,3.4,0.6,5.9
				c-0.6,2.5-0.6,2.5-0.6,2.5s0.8,4.5,0.8,6.5c0,2-2.3,2.5-2.5,3.4c-0.3,0.8,1.7,3.9-0.6,5.9c-2.3,2-2.3,2-2.3,2s-0.3,5.4-1.4,6.8
				c-1.1,1.4-4.5,3.9-5.9,3.1c-1.4-0.8-0.8-3.1-0.8-4.5s-0.6-2.8-2.3-2.8c-1.7,0-2,1.4-10.7-0.8c-8.7-2.3-18.3-9.9-19.2-10.1
				c-0.8-0.3-77.2,20.3-99.8,23.1c-22.5,2.8-24.5-0.3-25.4-3.9c-0.8-3.7-2.3-12.4-2.3-12.4l-3.9-17.2L263.9,328.5z"/>
			<path class="st3" d="M240.4,371.2c-9.4,0-10.9-2.4-11.6-5.4c-0.8-3.6-2.2-12.3-2.3-12.4l-4.1-17.7l0.5-0.1l41-7.6l91-0.3
				c11.7-1.1,29.5-2.9,30.3-3.1c1.4-0.3,13.2,2.9,14.2,3.7c1.7,1.3,1.1,4.9,0.8,6.4l-0.5,2.4c0.1,0.7,0.8,4.6,0.8,6.5
				c0,1.5-1.1,2.3-1.9,2.9c-0.3,0.2-0.7,0.5-0.7,0.6c0,0.1,0.1,0.6,0.2,1c0.3,1.3,0.9,3.6-0.9,5.2l-2.1,1.8
				c-0.1,1.1-0.4,5.5-1.5,6.8c-1.2,1.4-4.8,4.3-6.6,3.2c-1.4-0.8-1.2-2.6-1.1-4c0-0.3,0-0.7,0-0.9c0-0.9-0.2-2.3-1.8-2.3
				c-0.3,0-0.6,0.1-1,0.2c-1.3,0.3-3.1,0.7-9.9-1c-6.9-1.8-14.4-6.9-17.6-9.1c-0.7-0.5-1.3-0.9-1.5-1c-1,0.1-8,1.9-16.7,4.1
				c-23.4,5.9-66.9,17-82.9,19C248.5,370.9,243.9,371.2,240.4,371.2z M223.6,336.5l3.8,16.7c0,0.1,1.4,8.8,2.3,12.4
				c0.7,2.9,1.5,6.5,24.8,3.6c15.9-2,59.4-13,82.8-19c15.8-4,16.9-4.2,17.2-4.1c0.2,0.1,0.7,0.4,1.9,1.2c3.2,2.2,10.6,7.2,17.3,9
				c6.6,1.7,8.3,1.3,9.4,1c0.4-0.1,0.7-0.2,1.2-0.2c1.7,0,2.8,1.3,2.8,3.3c0,0.3,0,0.7-0.1,1c-0.1,1.2-0.2,2.5,0.7,3.1
				c1,0.6,4.1-1.5,5.3-3c0.8-1.1,1.2-5,1.3-6.5l0-0.2l2.4-2.1c1.4-1.2,0.9-2.8,0.6-4.1c-0.2-0.7-0.3-1.2-0.2-1.6
				c0.2-0.5,0.6-0.8,1.1-1.1c0.7-0.5,1.5-1.1,1.5-2.1c0-1.9-0.8-6.3-0.8-6.4l0-0.1l0.6-2.6c0.6-2.7,0.4-4.8-0.4-5.4
				c-1-0.8-12.3-3.8-13.4-3.6c-1.1,0.3-27.5,2.8-30.5,3.1l-91,0.3L223.6,336.5z"/>
		</g>
		<g>
			<path class="st0" d="M323.1,223.1c0,0,4.7-4.9,7.7-2.7c3,2.2,5.7,14.1,9.4,13.1c3.7-1,11.1-24,11.1-33.2c0-9.2-6.4-14.6-7.9-15.1
				c-1.5-0.5-39.3-1-43.8,0.7s-6.2,17.3-7.9,26.7c-1.7,9.4,2.2,11.6,4.7,10.4c2.5-1.2,12.1-5.2,14.4-5.2
				C312.9,217.9,323.1,223.1,323.1,223.1z"/>
			<path class="st3" d="M339.7,234c-2.3,0-4.1-3.8-5.8-7.5c-1.1-2.4-2.3-4.9-3.4-5.8c-2.6-1.9-7,2.6-7,2.7l-0.3,0.3l-0.3-0.2
				c-2.8-1.4-10.4-5.1-12.1-5.1c-2.1,0-11.7,3.9-14.1,5.1c-1.2,0.6-2.5,0.5-3.6-0.3c-1.2-0.9-3.1-3.5-1.8-10.6
				c0.3-1.6,0.6-3.4,0.9-5.2c1.6-9.5,3.4-20.3,7.3-21.9c4.5-1.8,42.5-1.3,44.1-0.8c1.7,0.6,8.3,6.1,8.3,15.6
				c0,9.1-7.4,32.6-11.5,33.6C340.1,234,339.9,234,339.7,234z M329,219.3c0.7,0,1.4,0.2,2.1,0.7c1.3,1,2.5,3.5,3.7,6.1
				c1.6,3.5,3.5,7.4,5.3,6.9c3.3-0.9,10.8-23.5,10.8-32.7c0-8.9-6.2-14.2-7.6-14.6c-1.5-0.4-38.9-1-43.5,0.7
				c-3.4,1.3-5.3,12.8-6.7,21.1c-0.3,1.9-0.6,3.6-0.9,5.2c-1.2,6.8,0.6,9,1.4,9.6c0.8,0.6,1.7,0.7,2.5,0.2
				c2.5-1.2,12.2-5.2,14.6-5.2c2.1,0,10.3,4.1,12.3,5.1C323.8,221.7,326.5,219.3,329,219.3z"/>
		</g>
		<g>
			<path class="st2" d="M348.4,170.9c0,0-3.5,17.5-4.9,21.9c-1.4,4.3-11.4,17.5-14,20.3c-2.6,2.8-10,16.4-12,16.7
				c-2,0.4-7.5-18.1-7.5-18.1s-7.1-12.2-8.5-15.4c-1.4-3.2-3.5-12.4-3.5-12.4s11.6,10,24,7.9s18.7-14.6,18.7-14.6L348.4,170.9z"/>
			<path class="st3" d="M317.4,230.3c-2,0-5.4-10-7.9-18.4c-0.6-1-7.1-12.3-8.5-15.4c-1.4-3.2-3.5-12.1-3.6-12.5l-0.4-1.5l1.2,1
				c0.1,0.1,11.6,9.9,23.6,7.8c12-2.1,18.3-14.2,18.4-14.3l0.1-0.2l8.8-7.2l-0.3,1.4c-0.1,0.7-3.6,17.6-4.9,21.9
				c-1.4,4.5-11.8,18-14.1,20.5c-1,1.1-2.9,4-4.8,7c-3.8,6-6.2,9.6-7.5,9.9C317.5,230.3,317.5,230.3,317.4,230.3z M298.8,185.2
				c0.7,2.7,2.2,8.6,3.2,10.9c1.4,3.1,8.4,15.2,8.4,15.3l0,0.1c2.5,8.3,5.8,17.4,7,17.8c0.9-0.2,4.4-5.7,6.8-9.4
				c2-3.1,3.8-6,4.9-7.2c2.6-2.8,12.6-16,13.9-20.1c1.1-3.6,3.8-16.2,4.6-20.4l-6.5,5.3c-0.6,1.2-7.1,12.7-19,14.8
				C311.7,194.1,302,187.7,298.8,185.2z"/>
		</g>
		<g>
			<g>
				<path class="st2" d="M300.3,136c0,0-3.5-3.7-5.4,2c-2,5.7,2,15.8,2,15.8L300.3,136z"/>
				<path class="st3" d="M297,155.6l-0.6-1.6c-0.2-0.4-4-10.4-2-16.2c0.7-2,1.7-3.2,2.9-3.4c1.8-0.4,3.3,1.2,3.3,1.3l0.2,0.2l0,0.2
					L297,155.6z M297.9,135.3c-0.1,0-0.2,0-0.3,0c-0.9,0.2-1.6,1.2-2.2,2.8c-1.4,4.1,0.4,10.7,1.4,13.8l3.1-15.7
					C299.4,135.9,298.7,135.3,297.9,135.3z"/>
			</g>
			<g>
				<path class="st2" d="M300.9,124.4c0,0-5.7,40.6-5.7,43c0,2.4-1.6,10.2,0.8,15.4c2.4,5.1,9.5,11.4,15.2,12.2
					c5.7,0.8,16.9-0.4,23.3-5.3c6.3-4.9,13.6-15.6,13.6-15.6s7.9-1.2,13-3.3c5.1-2.2,9.1-7.1,8.9-12.2c-0.2-5.1-3.3-9.1-3.3-9.1
					l-3-5.5l7.9-14.8c0,0-4.5-8.5-19.1-16.6c-14.6-8.1-27.6-10.6-33.7-10.6c-6.1,0-13.8,2.6-16,7.5
					C300.5,114.4,300.9,124.4,300.9,124.4z"/>
				<path class="st3" d="M314.8,195.7c-1.4,0-2.6-0.1-3.7-0.2c-6-0.8-13.1-7.3-15.6-12.5c-1.9-4.1-1.3-9.9-1-13.3
					c0.1-0.9,0.2-1.7,0.2-2.2c0-2.4,5.4-40.8,5.7-43c0-0.8-0.3-10.3,1.8-15.1c2.2-5.1,10-7.8,16.4-7.8c5.4,0,18.7,2.3,33.9,10.7
					c14.5,8.1,19.1,16.4,19.3,16.8l0.1,0.2l-7.9,14.8l2.8,5.3c0.1,0.1,3.2,4.1,3.4,9.3c0.2,5.1-3.6,10.3-9.2,12.7
					c-4.7,2-11.6,3.1-12.9,3.4c-1,1.5-7.7,10.9-13.6,15.5C329.5,194.1,320.9,195.7,314.8,195.7z M318.6,102.5
					c-6,0-13.4,2.5-15.5,7.2c-2.1,4.8-1.7,14.7-1.7,14.8l0,0l0,0c-0.1,0.4-5.7,40.6-5.7,42.9c0,0.5-0.1,1.3-0.2,2.3
					c-0.3,3.4-0.9,9,0.9,12.8c2.3,4.9,9.2,11.2,14.8,11.9c5.6,0.8,16.7-0.4,22.9-5.2c6.2-4.8,13.4-15.3,13.5-15.5l0.1-0.2l0.2,0
					c0.1,0,7.9-1.2,12.9-3.3c5.2-2.2,8.7-7,8.6-11.7c-0.2-4.9-3.2-8.7-3.2-8.8l-3.1-5.8l7.9-14.8c-0.8-1.4-5.8-9-18.8-16.1
					C337,104.7,324,102.5,318.6,102.5z"/>
			</g>
			<g>
				<path class="st3" d="M319.6,104.5c0,0,11.2,18.5,19.7,17.7c8.5-0.8,11-4.7,11-4.7l5.7,7.7c0,0-6.1,2.6-4.9,5.7
					c1.2,3.2,6.5,10.2,6.5,10.2l-4.3,18.5c0,0,3.3,0.6,3.9-0.6c0.6-1.2,3.5-8.5,3.5-8.5s1.2-0.8,2.6-1.2c1.4-0.4,3.2,0,3.2,0
					s2.2-7.3,3-7.5c0.8-0.2,8.7-2.4,11.6-10c3-7.7-1.6-19.9-11.8-29.6s-31.9-12.2-33.1-14c-1.2-1.8,5.5,0.8,4.1-3.2
					c-1.4-3.9-10-9.1-21.1-3.5c-11,5.5-9.5,11.6-8.3,13.6c1.2,2,1.2,2,1.2,2s-9.3-3.2-15.8,0.8c-6.5,3.9-9.7,11.8-6.7,12.6
					c3,0.8,6.7-1,6.7-1s-3.9,6.5-2.8,7.9c1.2,1.4,7.3,6.9,7.3,6.9s2.4-13.8,7.3-15.8C313.1,106.7,319.6,104.5,319.6,104.5z"/>
				<path class="st3" d="M355,160.4c-0.8,0-1.5-0.1-1.8-0.2l-0.5-0.1l4.4-18.8c-0.9-1.2-5.3-7.3-6.4-10.2c-1.1-3,3-5.3,4.6-6.1
					l-5-6.7c-1.1,1.2-4.2,3.8-11,4.4c-8.1,0.7-18.3-15-20-17.6c-1.5,0.5-6.8,2.3-11,4c-4.6,1.8-7,15.2-7,15.4l-0.2,0.9l-0.7-0.6
					c-0.3-0.2-6.1-5.6-7.3-6.9c-1.1-1.2,0.7-5,2-7.2c-1.4,0.5-3.7,1-5.7,0.5c-0.8-0.2-1.3-0.8-1.5-1.8c-0.4-3,2.9-8.6,8-11.7
					c5.3-3.2,12.1-1.9,14.9-1.2l-0.5-0.9c-0.3-0.6-1.4-2.7-0.6-5.5c1-3.3,4-6.2,9.1-8.8c7.5-3.7,13.2-2.4,16-1.3
					c2.9,1.2,5.1,3.1,5.8,5.1c0.3,0.9,0.3,1.6-0.1,2.1c-0.6,0.9-2,0.9-3.2,0.9c-0.3,0-0.6,0-0.9,0c0.6,0.4,3.2,1.1,5.8,1.8
					c7.5,2,20,5.3,27.1,12c10.2,9.6,15.1,22,11.9,30.1c-3,7.7-10.7,10-11.9,10.3c-0.5,0.5-1.7,4.1-2.7,7.2l-0.1,0.4l-0.5-0.1
					c0,0-1.7-0.4-2.9,0c-1,0.3-2,0.8-2.3,1c-0.4,1.1-3,7.3-3.5,8.4C357.3,160.2,356.1,160.4,355,160.4z M353.9,159.3
					c1.2,0.1,2.6,0.1,2.9-0.4c0.6-1.2,3.5-8.4,3.5-8.4l0.1-0.1l0.1-0.1c0.1,0,1.3-0.8,2.7-1.2c1.1-0.3,2.3-0.2,2.9-0.1
					c2.2-7.1,2.9-7.3,3.2-7.4c0.9-0.2,8.4-2.3,11.3-9.7c3-7.8-1.8-19.7-11.7-29c-6.9-6.5-19.3-9.8-26.7-11.8c-4.3-1.1-6-1.6-6.5-2.3
					c-0.2-0.4-0.3-0.7-0.1-1c0.3-0.5,1-0.5,1.9-0.5c0.9,0,2,0,2.4-0.5c0.2-0.2,0.2-0.7,0-1.2c-0.6-1.7-2.6-3.5-5.2-4.5
					c-2.6-1.1-8-2.3-15.2,1.3c-4.7,2.4-7.7,5.2-8.6,8.1c-0.7,2.5,0.2,4.3,0.5,4.7l1.9,3.1l-1.3-0.4c-0.1,0-9.1-3-15.3,0.7
					c-5.1,3.1-7.9,8.4-7.5,10.7c0.1,0.8,0.6,0.9,0.7,1c2.7,0.7,6.3-0.9,6.4-1l1.5-0.7l-0.9,1.4c-1.8,3-3.4,6.6-2.8,7.3
					c0.9,1.1,5,4.8,6.6,6.2c0.6-3.1,3-13.5,7.4-15.3c4.9-2,11.4-4.1,11.5-4.1l0.4-0.1l0.2,0.3c0.1,0.2,10.7,17.5,18.7,17.5
					c0.2,0,0.3,0,0.5,0c8.1-0.8,10.6-4.5,10.7-4.5l0.4-0.6l6.5,8.8l-0.6,0.2c-0.1,0-5.6,2.5-4.7,5.1c1.1,3,6.4,10.1,6.4,10.1
					l0.1,0.2L353.9,159.3z M336.5,88L336.5,88L336.5,88z"/>
			</g>
			<g>
				<polygon class="st3" points="318.3,160.4 307.1,156 317.3,136.8 315.6,131.3 316.6,131 318.4,136.9 308.5,155.5 318.6,159.4 
									"/>
			</g>
			<g>
				<path class="st3" d="M314.1,129c0,0-4.7-3.7-8.7-2.8c-3.9,1-1.6,1.6,1.2,2.6C309.4,129.8,314.9,132.3,314.1,129z"/>
				<path class="st3" d="M312.9,131.1c-1.3,0-3.1-0.6-5.2-1.5c-0.4-0.2-0.8-0.3-1.2-0.4l-0.7-0.3c-1.8-0.6-2.9-1-2.9-1.8
					c0-0.6,0.7-1,2.5-1.4c4.1-1,8.9,2.7,9.1,2.9l0.1,0.1l0,0.2c0.2,0.8,0.1,1.5-0.4,1.9C313.9,131,313.4,131.1,312.9,131.1z
					 M304,127.2c0.4,0.2,1.3,0.6,2.1,0.8l0.7,0.3c0.4,0.1,0.8,0.3,1.2,0.5c1.7,0.6,4.8,1.8,5.6,1.2c0.2-0.1,0.2-0.4,0.1-0.7
					c-0.8-0.6-4.8-3.4-8.1-2.6C304.6,126.9,304.2,127.1,304,127.2z"/>
			</g>
			<g>
				<path class="st3" d="M328.7,128.2c0,0-4.5,1.2-2.4,2.2c2.2,1,8.7-1,11.2,0c2.6,1,5.9,4.3,5.7,2.8c-0.2-1.6-1.8-4.7-5.3-5.9
					C334.4,126,328.7,128.2,328.7,128.2z"/>
				<path class="st3" d="M343.1,134c-0.5,0-1.3-0.5-2.4-1.3c-1-0.7-2.2-1.5-3.2-1.9c-1.2-0.5-3.4-0.2-5.6,0c-2.3,0.3-4.5,0.5-5.7,0
					c-0.6-0.3-0.9-0.7-0.9-1.1c0.1-1,2.1-1.7,3.3-2c0.5-0.2,6-2.2,9.6-1c3.7,1.2,5.4,4.5,5.7,6.3c0.1,0.5-0.1,0.8-0.3,0.9
					C343.3,134,343.2,134,343.1,134z M335.5,129.6c0.9,0,1.7,0.1,2.3,0.3c1.1,0.4,2.4,1.3,3.4,2c0.5,0.3,1.1,0.8,1.5,1
					c-0.4-1.7-1.9-4.2-4.9-5.2c-3.3-1.1-8.9,1-8.9,1l-0.1,0c-1.1,0.3-2.3,0.8-2.5,1.1c0,0,0.1,0.1,0.3,0.1c0.9,0.4,3.1,0.2,5.1,0
					C333,129.7,334.3,129.6,335.5,129.6z"/>
			</g>
			<g>
				<path class="st3" d="M311.5,137.7c-0.3,1.4-1.3,2.4-2.2,2.2c-0.8-0.2-1.3-1.5-0.9-3c0.3-1.4,1.3-2.4,2.2-2.2
					C311.4,135,311.9,136.3,311.5,137.7z"/>
			</g>
			<g>
				<path class="st3" d="M333,143.3c-0.3,1.4-1.3,2.4-2.2,2.2c-0.8-0.2-1.3-1.5-0.9-3c0.3-1.4,1.3-2.4,2.2-2.2
					C332.9,140.6,333.3,141.9,333,143.3z"/>
			</g>
			<g>
				<rect x="305.2" y="160.1" transform="matrix(0.55 -0.8351 0.8351 0.55 -0.1612 329.545)" class="st3" width="1" height="9.7"/>
			</g>
		</g>
		<g>
			<g>
				<path class="st0" d="M384.8,210.1c0,0,27.9,10.7,33.3,26.8c5.4,16.1-1.4,36.4-4.2,44.8c-2.8,8.5-20.3,41.4-23.1,49.3
					c-2.8,7.9-7,17.5-7,17.5s-3.9-23.7-14.7-38.3c-10.7-14.7-13.2-27.9-13.2-27.9s19.4-34.4,24.5-45.1"/>
				<path class="st3" d="M383.5,350.2l-0.3-1.7c0-0.2-4.1-23.7-14.6-38.1c-10.7-14.6-13.3-28-13.3-28.1l0-0.2l0.1-0.2
					c0.2-0.3,19.5-34.5,24.5-45.1l0.9,0.4c-4.8,10.2-23,42.4-24.4,45c0.3,1.6,3.3,14,13.1,27.5c9,12.4,13.3,31.3,14.4,36.9
					c1.3-3,4.3-10,6.4-16c1.3-3.7,5.9-13,10.7-22.7c5.4-10.9,10.9-22.1,12.4-26.6c2.9-8.6,9.5-28.6,4.2-44.5
					c-5.2-15.7-32.7-26.4-33-26.5l0.4-0.9c1.1,0.4,28.2,11,33.6,27.1c5.4,16.2-1.3,36.5-4.2,45.1c-1.5,4.5-7.1,15.8-12.5,26.7
					c-4.8,9.7-9.3,18.9-10.7,22.6c-2.8,7.8-7,17.4-7.1,17.5L383.5,350.2z"/>
			</g>
			<g>
				<path class="st0" d="M358.7,276.3c0,0,5.7-2.9,7.6-1.9c1.9,1,26.3,14,29.5,28.9c3.2,14.9-1.6,27.6-4.4,33
					c-2.9,5.4-8.2,15.9-12.4,17.1c-4.1,1.3-7.6-32.7-16.2-50.4C354.3,285.2,358.7,276.3,358.7,276.3z"/>
				<path class="st3" d="M378.8,353.9c-0.2,0-0.5-0.1-0.7-0.2c-1.9-1.1-3.5-7.4-6-18.3c-2.4-10.4-5.5-23.4-9.7-32.3
					c-8.6-17.8-4.3-26.7-4.1-27.1l0.1-0.1l0.1-0.1c0.6-0.3,6-2.9,8.1-1.9c0.3,0.1,26.4,13.6,29.8,29.2c3.5,16.4-2.6,29.7-4.5,33.3
					l-0.3,0.6c-3.1,5.8-8.2,15.5-12.3,16.7C379,353.9,378.9,353.9,378.8,353.9z M359.1,276.6c-0.5,1.2-3.6,10,4.2,26.1
					c4.3,8.9,7.3,22,9.8,32.5c2,8.6,3.9,16.7,5.5,17.7c0.1,0.1,0.2,0.1,0.3,0c3.8-1.2,9-11,11.7-16.2l0.3-0.6
					c1.9-3.6,7.8-16.5,4.4-32.6c-3.2-15.1-29-28.4-29.2-28.5C364.9,274.2,361.3,275.6,359.1,276.6z"/>
			</g>
			<g>
				<path class="st3" d="M368.6,260.1l-1-0.3c0,0,5.1-17.2,7-24l1,0.3C373.7,242.9,368.6,260.1,368.6,260.1z"/>
			</g>
		</g>
		<g>
			<path class="st2" d="M317.3,198.9c0,0-7.9-11-14-18.3c-6.1-7.3-12.4-11.6-14.6-11c-2.2,0.6-3,2.8-1.6,5.3
				c1.4,2.6,7.9,8.3,9.1,9.9c1.2,1.6,3,7.3,3,7.3s-5.7,0.4-6.7,1.6s-2.4,4.3-2.4,4.3s-2,1-3,2.6c-1,1.6-1,2-1.2,2.8
				c-0.2,0.8-3,2.2-2.8,5.7c0.2,3.5,3.5,8.7,4.7,11c1.2,2.4,9.9,12.8,11.4,14.6s10.6,17.5,13,22.9c2.4,5.3,25.2,67,31.9,76.3
				c6.7,9.3,19.1,18.1,25.8,21.3c6.7,3.2,11.4-2.2,14.6-8.9c3.2-6.7,5.9-20.1-0.2-35.5c-6.1-15.4-18.1-28.6-27.4-36.5
				c-9.3-7.9-26.6-27.6-28.6-31.1c-2-3.5-4.5-11.4-4.5-11.4s5.1-15,5.5-18.5c0.4-3.5-1.6-9.9-1-12.6c0.6-2.8,3-8.3,3.9-10.6
				c1-2.4,4.3-6.3,2.6-8.1c-1.8-1.8-9.1,0.4-11.6,4.5C320.8,190.4,317.3,198.9,317.3,198.9z"/>
			<path class="st3" d="M373.9,356.4c-1.3,0-2.7-0.3-4.1-1c-6.4-3-19.1-11.9-26-21.4c-5.1-7.1-19.5-44.4-27.3-64.4
				c-2.4-6.2-4.1-10.7-4.7-12c-2.4-5.3-11.4-21-12.9-22.7c-1.6-1.8-10.3-12.3-11.5-14.7c-0.3-0.5-0.6-1.1-1-1.9
				c-1.5-2.7-3.6-6.5-3.8-9.4c-0.2-2.8,1.3-4.3,2.2-5.2c0.2-0.2,0.5-0.5,0.5-0.6l0.1-0.3c0.2-0.7,0.3-1.2,1.2-2.6
				c0.9-1.4,2.5-2.4,3-2.7c0.3-0.7,1.5-3.2,2.4-4.3c0.9-1.1,4.7-1.6,6.4-1.7c-0.5-1.5-1.8-5.3-2.7-6.5c-0.4-0.6-1.6-1.7-2.9-3
				c-2.4-2.3-5.3-5.2-6.2-6.9c-0.8-1.5-1-2.9-0.5-4.1c0.4-1,1.2-1.6,2.3-1.9c2.6-0.7,9.2,4.2,15.1,11.2c5.2,6.1,11.6,15.1,13.5,17.6
				c1-2.2,3.7-8.4,5.8-11.9c1.9-3,6-5,9-5.3c1.6-0.2,2.7,0.1,3.4,0.7c1.6,1.6,0,4.2-1.3,6.5c-0.5,0.8-0.9,1.5-1.2,2.1l-0.3,0.7
				c-1.1,2.6-3.1,7.4-3.6,9.8c-0.3,1.3,0.1,3.7,0.4,6c0.4,2.4,0.8,4.8,0.5,6.6c-0.4,3.4-4.9,16.8-5.5,18.5c0.4,1.1,2.7,8,4.4,11.2
				c1.9,3.4,19.2,23.1,28.5,31c5.9,5,20.4,18.6,27.5,36.6c5.8,14.5,3.9,28,0.2,35.9c-1.8,3.9-3.9,6.7-6.1,8.3
				C377.4,355.8,375.7,356.4,373.9,356.4z M289.1,170c-0.1,0-0.2,0-0.3,0c-0.8,0.2-1.4,0.7-1.7,1.4c-0.4,0.9-0.2,2,0.4,3.2
				c0.8,1.6,3.7,4.4,6,6.7c1.4,1.4,2.5,2.5,3,3.1c1.2,1.6,3,7.2,3,7.4l0.2,0.6l-0.6,0c-2.3,0.2-5.8,0.7-6.3,1.4
				c-0.9,1.1-2.3,4.2-2.3,4.2l-0.1,0.2l-0.2,0.1c0,0-1.9,0.9-2.8,2.4c-0.8,1.3-0.9,1.7-1.1,2.3l-0.1,0.3c-0.1,0.4-0.4,0.7-0.8,1.1
				c-0.8,0.9-2.1,2.2-2,4.5c0.1,2.7,2.3,6.4,3.6,8.9c0.4,0.7,0.8,1.4,1,1.9c1.1,2.3,9.8,12.7,11.4,14.5c1.6,1.8,10.7,17.6,13.1,23
				c0.6,1.3,2.3,5.8,4.7,12c7.7,20,22.1,57.2,27.2,64.1c6.8,9.4,19.3,18.1,25.6,21.1c2.9,1.4,5.6,1.2,8.1-0.7c2.1-1.5,4-4.2,5.8-7.9
				c3.6-7.6,5.4-20.9-0.2-35.1c-7.1-17.8-21.4-31.3-27.2-36.3c-9.3-7.9-26.7-27.8-28.7-31.3c-2-3.5-4.5-11.2-4.6-11.5l-0.1-0.2
				l0.1-0.2c0.1-0.1,5.1-15,5.5-18.4c0.2-1.7-0.2-4-0.5-6.3c-0.4-2.5-0.8-4.8-0.4-6.3c0.5-2.6,2.6-7.4,3.7-10l0.3-0.7
				c0.3-0.7,0.7-1.4,1.2-2.3c1.2-2,2.5-4.2,1.5-5.3c-0.4-0.4-1.3-0.6-2.5-0.4c-2.8,0.3-6.6,2.1-8.3,4.9c-2.5,4.1-6,12.5-6.1,12.5
				l-0.3,0.8l-0.5-0.7c-0.1-0.1-7.9-11.1-14-18.3C296.8,173.6,291.1,170,289.1,170z"/>
		</g>
		<g>
			<g>
				<path class="st0" d="M256.4,241.6c0.6-3.1,1-5.3,1-5.3"/>
				<path class="st3" d="M256.9,241.7l-1-0.2c0.6-3.1,1-5.3,1-5.3l1,0.2C257.9,236.4,257.4,238.5,256.9,241.7z"/>
			</g>
			<g>
				<path class="st0" d="M254.6,209.2c0,0-14.9,2-30.4,18.6c-15.5,16.6-8.7,56.1-7.3,64.3c1.4,8.2,3.7,33.3,3.7,33.3l39.7-13.2
					c0,0-6.5-44.3-7-48.2c-0.3-2,0.8-9,1.9-15.5"/>
				<path class="st3" d="M220,326l-0.1-0.6c0-0.3-2.3-25.2-3.7-33.2c-5.3-30.9-2.7-53.8,7.5-64.7c15.4-16.6,30.6-18.7,30.7-18.8
					l0.1,1c-0.1,0-15,2.2-30.1,18.4c-9.9,10.6-12.5,33.3-7.2,63.8c1.3,7.4,3.3,28.7,3.6,32.7l38.7-12.9c-0.7-4.5-6.5-44.1-7-47.8
					c-0.2-1.7,0.4-7,1.9-15.7l1,0.2c-1.9,10.7-2.1,14.2-1.9,15.3c0.6,3.9,7,47.8,7,48.2l0.1,0.4L220,326z"/>
			</g>
			<g>
				<path class="st0" d="M216.5,316.6c0,0,3.9,21.1,5.9,22.3c2,1.1,32.7-7.3,36.1-7.9c3.4-0.6,5.4,0.3,5.4-2.5s-2.8-16.1-4.5-18.3
					c-1.7-2.3-38.3,2.5-41.4,3.4C214.8,314.4,216.5,316.6,216.5,316.6z"/>
				<path class="st3" d="M223.2,339.5c-0.5,0-0.8,0-1-0.2c-2.1-1.2-5.4-18.7-6.1-22.5c-0.2-0.3-0.7-1.2-0.4-2.2
					c0.3-0.8,1-1.3,2.1-1.6c2.2-0.6,39.9-5.9,42-3.2c1.8,2.4,4.6,15.7,4.6,18.6c0,2.6-1.5,2.7-3.5,2.8c-0.7,0-1.4,0.1-2.3,0.2
					c-1,0.2-4.4,1-8.8,2.1C234.9,337.4,226.1,339.5,223.2,339.5z M255.5,310c-9.4,0-34.6,3.2-37.5,4c-0.6,0.2-1.3,0.4-1.5,1
					c-0.2,0.6,0.3,1.3,0.3,1.3l0.1,0.1l0,0.1c1.9,10.2,4.6,21.3,5.7,21.9c1.5,0.6,18-3.6,26.9-5.8c4.4-1.1,7.8-2,8.8-2.1
					c0.9-0.1,1.7-0.2,2.4-0.2c2.1-0.1,2.6-0.2,2.6-1.8c0-2.9-2.9-16-4.4-18C258.7,310.1,257.4,310,255.5,310z"/>
			</g>
			<g>
				<path class="st3" d="M260.7,311.5l-1.5-0.9c-0.1-0.1-9-5.4-20.3-9.8l0.4-0.9c8.6,3.4,15.8,7.3,18.9,9c-2.4-4.4-9.4-17.1-12.6-20
					l0.7-0.7c4,3.7,13.2,21.1,13.6,21.8L260.7,311.5z"/>
			</g>
			<g>
				<path class="st3" d="M236.9,300c-1.1-0.4-2.2-0.8-3.3-1.2l0.3-0.9c1.1,0.4,2.3,0.8,3.4,1.2L236.9,300z"/>
			</g>
		</g>
		<g>
			<path class="st3" d="M326.3,391l-0.3-0.9c8.3-3,14.4-5.7,17.9-8.2l0.6,0.8C340.9,385.2,334.7,388,326.3,391z"/>
		</g>
		<g>
			<path class="st3" d="M291.9,401.1l-0.2-1c0.2,0,15.7-3.7,30.3-8.6l0.3,0.9C307.7,397.3,292.1,401.1,291.9,401.1z"/>
		</g>
		<g>
			<path class="st3" d="M327.7,393.5l-0.2-1c9.7-2.4,21.4-7.8,29.6-11.8l0.4,0.9C349.3,385.7,337.5,391,327.7,393.5z"/>
		</g>
		<g>
			<path class="st3" d="M360.8,379.9l-0.5-0.9c2.6-1.3,4.2-2.2,4.2-2.2l0.5,0.9C365,377.7,363.5,378.5,360.8,379.9z"/>
		</g>
	</g>
</g>
<g id="Bubble">
	<g>
		<g>
			<path class="st2" d="M106.4,9.7c10.9-0.9,22.1,1.9,31.6,7.4c15.5-15.3,40.5-20,60.5-11.5c11.3,4.8,22.8,11.9,29.8,21.5
				c2.8,3.8,7.1,10,7.8,14.4c5.8,1.9,28,11.6,35.2,29.8c5.7,14.3,5.1,31.4-4.1,43.7c-9.3,12.3-25.7,18.8-40.9,16
				c-12.1,21.9-34.9,37.6-59.8,41c-12.3,1.7-25.3,0.4-36.3-5.4c-11-5.8-19.7-16.4-21.6-28.7c-11.9,15.1-34.5,20.4-51.8,12.3
				c-17.3-8.2-27.7-29-23.6-47.8c-9.6-3.8-17.3-12.1-20.2-22.1c-2.9-9.9-1-21.1,5-29.5c5.2-7.2,13-12.1,21-16.1
				c4.3-2.1,13.3-2.8,19-0.7C61.7,27.4,80.2,11.9,106.4,9.7z"/>
		</g>
		<g>
			<path class="st2" d="M213.5,173.7c0.1-3.5,1.1-7.1,3.2-10c2.1-2.9,5.3-5,8.8-5.4c3,2.8,5.2,6.6,6.1,10.6c0.9,4.3,0.4,9-2.5,12.4
				s-8.2,4.6-11.7,2C214.4,181.3,213.4,177.3,213.5,173.7z"/>
		</g>
		<g>
			<path class="st2" d="M237.4,197.3c0.4-1.9,1.1-3.8,2.2-5.4s2.7-2.9,4.5-3.6c0.9-0.3,1.9-0.5,2.9-0.3c0.6,0.1,1.1,0.3,1.6,0.6
				l-0.3-0.3c3.6,1.5,6.4,4.7,7.4,8.5c0.6,2.1,0.5,4.5-0.7,6.3c-0.8,1.1-1.9,1.9-3.1,2.5c-2.5,1.3-5.3,2.1-8.1,1.7
				c-2.8-0.4-5.4-2.2-6.4-4.9C236.9,200.8,237.1,199,237.4,197.3z"/>
		</g>
		<g id="XMLID_11_">
			<g id="XMLID_91_">
				<path class="st4" d="M282.2,97.8c2.6-8.8,1.5-17.3-0.4-22.8c-0.9-2.8-2-4.9-2.8-6.3c-0.8-1.4-1.3-2.1-1.3-2.1s0.3,0.8,0.8,2.4
					c0.5,1.5,1.1,3.7,1.6,6.5c1,5.5,1.1,13.4-1.3,21.4c-1.2,4-2.9,7.6-4.9,10.6c-2,3-4.3,5.3-6.6,6.9c-2.2,1.6-4.4,2.5-5.9,2.9
					c-0.6,0.2-1.1,0.3-1.4,0.3c6.6-5.7,12.5-13.5,15.4-23c3.6-11.6,2.1-23.7-2.6-33c-1.1-2.3-2.5-4.5-4-6.5
					c-1.5-1.9-3.1-3.7-4.8-5.2c-3.4-3.1-7.1-5.3-10.5-7c-5.6-2.7-10.6-4.1-14.6-5c-0.7-2.4-1.8-4.9-3.1-7.4c-1.8-3.2-4.1-6-6.3-8.3
					c-2.3-2.2-4.6-4-6.7-5.2c-1-0.7-2-1.1-2.8-1.6c-0.8-0.4-1.6-0.8-2.2-1c-1.2-0.5-1.9-0.7-1.9-0.7s0.6,0.4,1.7,1.2
					c0.5,0.4,1.2,0.8,1.9,1.4c0.7,0.6,1.6,1.2,2.4,2c1.7,1.5,3.6,3.5,5.5,5.8c1.9,2.4,3.7,5.1,5.5,8.1c0.9,1.7,1.7,3.3,2.4,4.9
					c-1.6-0.3-2.8-0.5-3.7-0.6c-0.7-1.5-1.5-3.1-2.4-4.7c-3.4-6.2-8.7-13-16.2-18.8c-7.5-5.8-17.2-10.3-28-12.1
					c-10.8-1.8-21.5-0.5-30.4,2.6c-8.4,2.9-15.2,7.1-20.7,11.1c-1.1-0.8-2.3-1.6-3.6-2.3c-4.6-2.8-10.7-5.2-17.8-6.5
					C105.3,4.4,97.2,4.6,89.1,7c-8,2.5-14.9,6.9-20.1,11.9c-4.1,3.9-7.3,8.2-9.5,12.2c-3.2-0.9-7.6-1.7-13-1
					c-3.1,0.4-6.5,1.2-9.9,2.8c-3.4,1.6-6.7,3.9-9.7,6.8C20.9,45.3,15.2,52.8,12,62c-1.6,4.6-2.3,9.4-1.9,14.1
					c0.3,4.6,1.7,9,3.7,12.7c3.6,6.8,8.7,11.6,13.6,14.9c-1.3,3.7-2.4,8.3-2.5,13.5c-0.1,7.1,2.5,13.4,5.3,17
					c1.4,1.8,2.8,3.1,3.8,3.8c1,0.8,1.6,1.1,1.6,1.1s-0.5-0.5-1.2-1.5c-0.8-1-1.8-2.4-2.7-4.4c-1.9-3.8-3.4-9.6-3.3-16.1
					c0.1-4.4,0.6-8.5,1.2-12.1c0.5,0.3,1,0.6,1.4,0.8c-0.4,1.4-0.8,2.9-1.2,4.5c-1.3,6.4-0.9,14.8,3.2,22.7
					c3.9,7.9,11.3,15.3,21.2,18.6c4.8,1.7,9.7,2.4,14.4,2.8c4.7,0.4,9.3,0.4,13.6-0.1c8.7-0.9,16.2-3.8,21.7-7.5
					c1.4-0.9,2.7-1.9,3.9-2.9c2.3,3.6,5.8,8.2,10.9,13c5.7,5.3,13.4,10.8,23.2,14.5c2.7,1,5.5,1.9,8.5,2.5c0.6,0.3,1.2,0.7,1.9,1
					c2.2,1.1,4.9,2.1,7.9,2.9c3.1,0.8,6.6,1.3,10.3,1.4c3.7,0.1,7.2-0.3,10.3-1c3.1-0.7,5.9-1.6,8.1-2.5c1.1-0.4,2.1-0.9,2.9-1.4
					c0.9-0.4,1.6-0.8,2.1-1.2c1.1-0.7,1.8-1.1,1.8-1.1s-0.7,0.2-2,0.6c-0.6,0.2-1.4,0.4-2.3,0.7c-0.9,0.2-1.9,0.5-3.1,0.7
					c-2.3,0.5-5,1-8,1.3c-3,0.3-6.3,0.5-9.8,0.4c-1.7,0-3.4-0.1-5-0.3c3.2,0,6.5-0.3,9.8-0.8c11.9-2,22.7-7.2,30.4-14.2
					c7.9-6.9,12.9-15.1,15.8-22.4c1-2.6,1.8-5,2.3-7.2c2-0.1,4.2-0.2,6.5-0.5c7.6-1,16.7-3.6,25.2-9.5c1.4-1,2.8-2.1,4.2-3.3
					c0.4,0,1,0.1,1.8,0c1.6-0.1,4-0.6,6.7-1.9c2.7-1.3,5.5-3.6,8-6.7C278.9,106.1,281,102.1,282.2,97.8z M254,118.7
					c-7.9,5.8-16.5,8.8-23.8,10.2c-2.1,0.4-4,0.6-5.9,0.8c0.8-3.6,1.2-6.8,1.3-9.3c0.1-2.2,0.1-3.8,0-5c-0.1-1.1-0.1-1.7-0.1-1.7
					s0,0.6-0.1,1.7c0,1.1-0.1,2.8-0.4,4.9c-0.3,2.6-0.9,5.8-2.1,9.5c-4.2,0.3-7.8,0.2-10.6,0c-2.1-0.1-3.7-0.3-4.9-0.5
					c-1.1-0.2-1.7-0.2-1.7-0.2s0.6,0.1,1.7,0.4c1.1,0.3,2.7,0.6,4.8,0.9c2.7,0.4,6.1,0.7,10.2,0.7c-0.7,2.1-1.5,4.2-2.6,6.5
					c-3.2,6.8-8.4,14.5-16.1,20.8c-7.6,6.4-17.8,11.1-29.1,13c-11.3,1.8-22.5,0.7-31.9-2.5c-9.5-3.2-17.2-8.1-23.1-13
					c-5.3-4.5-9.1-8.8-11.6-12.1c0.4-0.4,0.8-0.7,1.2-1.1c1.1,1.4,2.3,2.8,3.6,4.2c4.1,4.3,8.6,7.5,12,9.5c3.4,2,5.6,2.9,5.6,2.9
					s-1.8-1.7-4.6-4.3c-2.8-2.7-6.5-6.4-10.5-10.5c-1.4-1.4-2.6-2.8-3.9-4.1c1.3-1.4,2.4-2.8,3.2-4c1-1.5,1.7-2.8,2.1-3.6
					c0.4-0.9,0.6-1.3,0.6-1.3s-0.3,0.4-0.8,1.2c-0.5,0.8-1.3,2-2.4,3.4c-0.9,1.1-2,2.3-3.4,3.6c-2.1-2.3-4-4.4-5.5-6.1
					c-2.5-2.9-4.1-4.8-4.1-4.8s0.8,2.3,2.7,5.7c1.1,2.1,2.6,4.6,4.6,7.2c-0.4,0.3-0.8,0.7-1.3,1c-1.2-1.7-2.2-3.1-2.8-4
					c-0.6-1-0.9-1.5-0.9-1.5s0.3,0.5,0.8,1.5c0.5,1,1.3,2.5,2.5,4.3c-1.2,0.9-2.6,1.8-4.1,2.6c-5.5,3.1-12.7,5.5-21,6
					c-4.1,0.3-8.5,0.2-13-0.3c-4.5-0.5-9.2-1.3-13.6-2.8c-8.9-3-15.8-9.6-19.7-16.7c-4-7.2-4.8-14.9-4.1-21.1
					c0.2-1.4,0.4-2.8,0.7-4.1c3.9,2.1,7.3,3.3,9.8,4.2c3.3,1.1,5.1,1.5,5.1,1.5s-1.8-0.6-4.9-2c-2.5-1.1-5.9-2.7-9.6-5.2
					c1-3.6,2.3-6.5,3.6-8.6c0.9-1.6,1.7-2.7,2.2-3.5c0.6-0.8,0.9-1.2,0.9-1.2s-0.3,0.4-1,1.1c-0.6,0.7-1.6,1.8-2.6,3.3
					c-1.4,1.9-3,4.7-4.2,8.2c-0.5-0.4-1.1-0.7-1.6-1.1c0.2-1,0.4-2,0.6-2.8c0.9-4.4,1.4-7.1,1.4-7.1s-1.3,2.4-3.1,6.6
					c-0.2,0.6-0.5,1.2-0.8,1.9c-4.3-3.5-8.7-8.2-11.6-14.4c-1.7-3.5-2.8-7.5-3-11.6c-0.2-4.2,0.5-8.5,1.9-12.8
					c2.9-8.5,8.1-15.8,13.6-21.4c2.8-2.8,5.7-5.1,8.8-6.8c3-1.7,6.2-2.6,9.1-3.2c4.9-0.9,9.2-0.6,12.4,0c-0.5,0.8-0.9,1.7-1.3,2.5
					c-2.3,4.9-3.5,9.1-4.1,12c-0.3,1.5-0.4,2.6-0.5,3.4c-0.1,0.8-0.2,1.2-0.2,1.2s0.1-0.4,0.3-1.2c0.2-0.8,0.4-1.9,0.9-3.3
					c0.8-2.8,2.4-6.8,5.1-11.3c0.5-0.9,1.2-1.9,1.8-2.9c1.5,0.4,2.7,0.8,3.5,1.1c0.8,0.3,1.3,0.5,1.3,0.5s-0.4-0.2-1.2-0.6
					c-0.7-0.4-1.8-0.9-3.3-1.4c2.4-3.6,5.6-7.2,9.5-10.6c5.1-4.5,11.7-8.4,19.2-10.7c7.5-2.2,15.1-2.6,21.9-1.7
					c6.8,0.9,12.8,2.8,17.4,5.1c1.1,0.6,2.2,1.1,3.2,1.7c-5.6,4.2-9.6,8.1-12.4,10.9c-1.4,1.4-2.4,2.5-3.1,3.2
					c-0.7,0.8-1.1,1.1-1.1,1.1s0.4-0.4,1.2-1c0.8-0.7,1.9-1.7,3.4-3c3-2.5,7.3-6.1,13.1-9.9c0.2-0.1,0.4-0.2,0.5-0.3
					c2.3,1.4,4.2,2.8,5.6,3.9c1.2,0.9,2,1.7,2.6,2.2c0.6,0.5,0.9,0.8,0.9,0.8s-0.3-0.3-0.8-0.9c-0.5-0.6-1.2-1.5-2.3-2.5
					c-1.2-1.2-2.8-2.7-4.9-4.3c5.5-3.5,12.2-7,20-9.4c8.6-2.7,18.7-3.6,29-1.9c10.3,1.6,19.5,5.7,26.8,11
					c7.3,5.3,12.7,11.6,16.5,17.4c3.7,5.8,5.9,11.1,7.1,14.7c0.6,1.9,1,3.3,1.3,4.3c0.3,1,0.4,1.5,0.4,1.5s-0.1-0.5-0.2-1.6
					c-0.1-1-0.4-2.5-0.9-4.4c-0.7-2.8-1.8-6.4-3.7-10.6c0.9,0.2,2.3,0.6,3.9,1c0.5,1.2,0.9,2.3,1.3,3.4c1,2.8,1.7,5.5,2,7.8
					c0.3,1.1,0.3,2.2,0.5,3.1c0.1,0.9,0.2,1.7,0.2,2.4c0.1,1.3,0.1,2,0.1,2s0.1-0.7,0.4-2c0.1-0.7,0.3-1.5,0.3-2.4
					c0.1-0.9,0.2-2,0.2-3.2c0-2.4-0.3-5.3-1-8.4c-0.1-0.5-0.3-1-0.4-1.5c3.7,1.2,8.4,2.9,13.5,5.7c6.5,3.6,13.6,9.5,17.5,18.5
					c4,8.8,5.2,20,1.9,30.7C268.9,104.3,261.8,112.9,254,118.7z"/>
			</g>
			<g id="XMLID_99_">
				<path class="st4" d="M213.5,161.3c0,0,0.7-0.3,2-0.8c-1.1,1.2-2.1,2.6-2.9,4.1c-2.1,4.1-2.4,8.8-1.3,12.6
					c0.5,1.8,1.3,3.4,2.3,4.8c-0.2-0.1-0.4-0.3-0.6-0.4c-2.5-1.9-3.8-4.4-4.3-6.1c-0.2-0.9-0.4-1.6-0.4-2.1c0-0.5,0-0.8,0-0.8
					s0,0.3-0.1,0.8c-0.1,0.5-0.1,1.2,0,2.2c0.2,1.9,1.1,4.8,3.7,7.3c1.3,1.3,3,2.4,5,3.1c0.6,0.2,1.1,0.3,1.7,0.4
					c1.8,1,3.5,1.4,4.7,1.5c0.8,0.1,1.4,0.1,1.8,0.1c0.4,0,0.6,0,0.6,0s-0.2,0-0.6-0.1c-0.4-0.1-1-0.2-1.7-0.5
					c-0.5-0.2-1.2-0.5-1.8-0.8c0.7,0,1.4-0.1,2.1-0.2c4.8-0.8,9.8-4.1,12.2-9.3c1.2-2.6,1.8-5.4,1.6-8.1c-0.2-2.7-1.2-5.3-2.7-7.2
					c-1.5-2-3.4-3.4-5.4-4.3c-0.9-0.4-1.8-0.6-2.6-0.7c1.7-0.6,3.3-0.9,4.7-1.1c2.6-0.3,4.8-0.1,6.3,0.2c1.5,0.3,2.3,0.5,2.3,0.5
					s-0.7-0.4-2.2-1c-1.4-0.6-3.6-1.2-6.5-1.4c-2.8-0.1-6.4,0.3-9.9,2c-1.7,0.8-3.4,1.9-5,3.3c-0.2,0.1-0.5,0.3-0.7,0.4
					C214.3,160.7,213.5,161.3,213.5,161.3z M215.6,166.2c1.7-3.3,4.5-5.9,7.3-7.6c0.2,0,0.4-0.1,0.7-0.1c3.1-0.1,6.7,1.6,8.8,5
					c2.2,3.3,2.4,8,0.3,12.1c-2,4.2-5.8,7-9.7,7.9c-1.8,0.5-3.7,0.5-5.3,0.2c-1.7-1.8-3.2-4.2-3.7-7.2
					C213.5,173.3,213.9,169.6,215.6,166.2z"/>
			</g>
			<g id="XMLID_103_">
				<path class="st4" d="M250.2,187.5c-1.1-0.5-2.2-0.8-3.2-1.1c0.6-0.3,1.2-0.6,1.7-0.8c0.9-0.4,1.5-0.5,1.5-0.5s-0.6-0.1-1.6,0
					c-1,0-2.3,0.2-3.9,0.9c-1.7-0.2-3-0.2-4-0.3c-1.3,0-2.1,0-2.1,0s0.7,0.2,2,0.5c0.6,0.2,1.4,0.4,2.3,0.6
					c-1.3,0.8-2.7,1.9-3.9,3.5c-1.5,2.2-2.5,5.1-2.3,8.3c0.1,1.4,0.5,2.7,1,3.8c-1.8-0.7-3.3-1.5-4.4-2c-1.2-0.6-1.9-0.9-1.9-0.9
					s0.6,0.5,1.6,1.4c1,0.8,2.5,2.1,4.6,3.3c0.6,0.4,1.3,0.7,2,1.1c0.3,0.4,0.7,0.7,1,1c2.1,1.7,4.4,2.5,6.3,2.7
					c1.9,0.2,3.5-0.1,4.5-0.4c0.5-0.1,0.9-0.3,1.1-0.5c0.2-0.1,0.4-0.2,0.4-0.2s-0.1,0-0.4,0c-0.3,0-0.6,0.1-1.1,0.1
					c-1,0-2.4-0.1-4-0.7c-0.4-0.1-0.8-0.3-1.1-0.5c1.7-0.1,3.5-0.4,5.2-1.2c1.7-0.8,3.5-2.2,4.6-4.1c1.1-1.9,1.3-4.3,0.9-6.3
					c-0.5-2-1.5-3.6-2.7-4.9C252.9,189.1,251.5,188.1,250.2,187.5z M245.1,187.7c0.2,0.1,0.5,0.2,0.7,0.3c2.1,0.9,4.5,2.1,6.1,4.4
					c1.7,2.2,2.5,5.2,1.1,7.6c-1.4,2.4-4.4,3.8-7.1,4.1c-1.2,0.1-2.4,0-3.5-0.2c-1.2-1.5-2.1-3.3-2.3-5.5c-0.2-2.3,0.3-4.6,1.3-6.5
					C242.3,190.1,243.7,188.7,245.1,187.7z"/>
			</g>
		</g>
	</g>
</g>
<g id="Gears">
	<g>
		<path class="st4" d="M85.7,55.4L85.7,55.4c0,1.3-0.4,2.3-1.2,3c-0.8,0.7-1.9,1.1-3.3,1.1c-1.4,0-2.5-0.5-3.4-1.4
			c-0.9-0.9-1.3-2.2-1.3-3.6v-2.3c0-1.5,0.4-2.7,1.3-3.6c0.9-1,2-1.4,3.4-1.4c1.4,0,2.5,0.4,3.4,1.1c0.8,0.7,1.2,1.7,1.2,3l0,0h-2
			c0-0.8-0.2-1.4-0.7-1.9c-0.4-0.4-1.1-0.6-1.9-0.6c-0.8,0-1.5,0.3-1.9,1c-0.5,0.6-0.7,1.5-0.7,2.5v2.3c0,1,0.2,1.8,0.7,2.5
			c0.5,0.6,1.2,1,2,1c0.8,0,1.5-0.2,1.9-0.6c0.4-0.4,0.6-1.1,0.6-1.9H85.7z"/>
		<path class="st4" d="M87,54.8c0-1.3,0.4-2.4,1.1-3.3c0.7-0.9,1.7-1.3,3-1.3c1.3,0,2.3,0.4,3,1.3c0.7,0.9,1.1,2,1.1,3.3V55
			c0,1.4-0.4,2.5-1.1,3.3c-0.7,0.8-1.7,1.3-3,1.3c-1.3,0-2.3-0.4-3-1.3c-0.7-0.9-1.1-2-1.1-3.3V54.8z M89.1,55
			c0,0.9,0.2,1.6,0.5,2.1s0.9,0.8,1.6,0.8c0.7,0,1.2-0.3,1.6-0.8c0.4-0.6,0.5-1.3,0.5-2.1v-0.2c0-0.9-0.2-1.6-0.5-2.1
			c-0.4-0.6-0.9-0.8-1.6-0.8c-0.7,0-1.2,0.3-1.6,0.8c-0.3,0.6-0.5,1.3-0.5,2.1V55z"/>
		<path class="st4" d="M98.9,50.4l0.1,1.2c0.3-0.4,0.7-0.8,1.1-1s1-0.3,1.5-0.3c0.6,0,1.1,0.1,1.5,0.4s0.7,0.7,0.9,1.2
			c0.3-0.5,0.6-0.9,1.1-1.2s1-0.4,1.6-0.4c0.9,0,1.6,0.3,2.1,0.9c0.5,0.6,0.8,1.6,0.8,2.9v5.4h-2V54c0-0.8-0.1-1.3-0.4-1.7
			c-0.3-0.3-0.7-0.5-1.2-0.5c-0.4,0-0.8,0.1-1.1,0.3s-0.5,0.5-0.6,0.9c0,0.1,0,0.2,0,0.2s0,0.1,0,0.2v5.8h-2V54
			c0-0.8-0.1-1.3-0.4-1.6c-0.3-0.3-0.7-0.5-1.2-0.5c-0.4,0-0.8,0.1-1,0.2c-0.3,0.2-0.5,0.4-0.7,0.7v6.6h-2v-9H98.9z"/>
		<path class="st4" d="M111.5,54.8c0-1.3,0.4-2.4,1.1-3.3c0.7-0.9,1.7-1.3,3-1.3c1.3,0,2.3,0.4,3,1.3c0.7,0.9,1.1,2,1.1,3.3V55
			c0,1.4-0.4,2.5-1.1,3.3c-0.7,0.8-1.7,1.3-3,1.3c-1.3,0-2.3-0.4-3-1.3c-0.7-0.9-1.1-2-1.1-3.3V54.8z M113.5,55
			c0,0.9,0.2,1.6,0.5,2.1s0.9,0.8,1.6,0.8c0.7,0,1.2-0.3,1.6-0.8c0.4-0.6,0.5-1.3,0.5-2.1v-0.2c0-0.9-0.2-1.6-0.5-2.1
			c-0.4-0.6-0.9-0.8-1.6-0.8c-0.7,0-1.2,0.3-1.6,0.8c-0.3,0.6-0.5,1.3-0.5,2.1V55z"/>
		<path class="st4" d="M129.5,59.5c-1.3,0-2.3-0.4-3.1-1.2c-0.7-0.8-1.1-1.9-1.1-3.2v-0.3c0-1.3,0.4-2.4,1.1-3.3
			c0.7-0.9,1.7-1.3,2.9-1.3c1.2,0,2.1,0.4,2.7,1.1c0.6,0.7,0.9,1.7,0.9,3v1.1h-5.6l0,0c0,0.7,0.2,1.3,0.6,1.8s0.9,0.7,1.7,0.7
			c0.5,0,1-0.1,1.4-0.2c0.4-0.1,0.8-0.3,1.1-0.6l0.7,1.3c-0.3,0.3-0.8,0.6-1.4,0.8S130.2,59.5,129.5,59.5z M129.3,51.8
			c-0.5,0-0.9,0.2-1.3,0.6c-0.3,0.4-0.5,0.9-0.6,1.5l0,0h3.5v-0.2c0-0.6-0.1-1-0.4-1.4C130.3,52,129.9,51.8,129.3,51.8z"/>
		<path class="st4" d="M137.8,53.5l1.7-3.1h2.3l-2.8,4.4l2.9,4.5h-2.3l-1.7-3.2l-1.7,3.2h-2.3l2.9-4.5l-2.8-4.4h2.3L137.8,53.5z"/>
		<path class="st4" d="M148.6,59.4c-0.1-0.2-0.1-0.4-0.2-0.7c0-0.2-0.1-0.4-0.1-0.6c-0.3,0.4-0.6,0.8-1.1,1.1
			c-0.5,0.3-1,0.4-1.5,0.4c-0.9,0-1.7-0.2-2.2-0.7c-0.5-0.5-0.8-1.1-0.8-2c0-0.9,0.3-1.5,1-2c0.7-0.5,1.7-0.7,2.9-0.7h1.6v-0.8
			c0-0.5-0.1-0.8-0.4-1.1c-0.3-0.3-0.7-0.4-1.2-0.4c-0.5,0-0.8,0.1-1.1,0.3c-0.3,0.2-0.4,0.5-0.4,0.9l-1.9,0l0,0
			c0-0.7,0.3-1.3,1-1.9c0.7-0.5,1.5-0.8,2.6-0.8c1,0,1.9,0.3,2.5,0.8s1,1.3,1,2.3v4c0,0.4,0,0.7,0.1,1.1c0,0.3,0.1,0.7,0.2,1H148.6z
			 M146.2,57.9c0.5,0,1-0.1,1.4-0.4c0.4-0.3,0.7-0.5,0.8-0.9v-1.3h-1.6c-0.6,0-1,0.1-1.4,0.4c-0.3,0.3-0.5,0.6-0.5,1
			c0,0.3,0.1,0.6,0.3,0.8C145.4,57.8,145.7,57.9,146.2,57.9z"/>
		<path class="st4" d="M155,48.2v2.2h1.6v1.5H155v5c0,0.4,0.1,0.6,0.2,0.8c0.2,0.2,0.4,0.2,0.6,0.2c0.1,0,0.2,0,0.3,0
			c0.1,0,0.2,0,0.3-0.1l0.2,1.5c-0.2,0.1-0.4,0.2-0.6,0.2c-0.2,0.1-0.5,0.1-0.7,0.1c-0.7,0-1.3-0.2-1.7-0.7c-0.4-0.4-0.6-1.1-0.6-2
			v-5h-1.4v-1.5h1.4v-2.2H155z"/>
		<path class="st4" d="M163.7,59.4c-0.1-0.2-0.1-0.4-0.2-0.7c0-0.2-0.1-0.4-0.1-0.6c-0.3,0.4-0.6,0.8-1.1,1.1
			c-0.5,0.3-1,0.4-1.5,0.4c-0.9,0-1.7-0.2-2.2-0.7c-0.5-0.5-0.8-1.1-0.8-2c0-0.9,0.3-1.5,1-2c0.7-0.5,1.7-0.7,2.9-0.7h1.6v-0.8
			c0-0.5-0.1-0.8-0.4-1.1c-0.3-0.3-0.7-0.4-1.2-0.4c-0.5,0-0.8,0.1-1.1,0.3c-0.3,0.2-0.4,0.5-0.4,0.9l-1.9,0l0,0
			c0-0.7,0.3-1.3,1-1.9c0.7-0.5,1.5-0.8,2.6-0.8c1,0,1.9,0.3,2.5,0.8s1,1.3,1,2.3v4c0,0.4,0,0.7,0.1,1.1c0,0.3,0.1,0.7,0.2,1H163.7z
			 M161.2,57.9c0.5,0,1-0.1,1.4-0.4c0.4-0.3,0.7-0.5,0.8-0.9v-1.3h-1.6c-0.6,0-1,0.1-1.4,0.4c-0.3,0.3-0.5,0.6-0.5,1
			c0,0.3,0.1,0.6,0.3,0.8C160.5,57.8,160.8,57.9,161.2,57.9z"/>
		<path class="st4" d="M169.4,50.4l0.1,1.2c0.3-0.4,0.7-0.8,1.1-1s1-0.3,1.5-0.3c0.6,0,1.1,0.1,1.5,0.4s0.7,0.7,0.9,1.2
			c0.3-0.5,0.6-0.9,1.1-1.2s1-0.4,1.6-0.4c0.9,0,1.6,0.3,2.1,0.9c0.5,0.6,0.8,1.6,0.8,2.9v5.4h-2V54c0-0.8-0.1-1.3-0.4-1.7
			c-0.3-0.3-0.7-0.5-1.2-0.5c-0.4,0-0.8,0.1-1.1,0.3s-0.5,0.5-0.6,0.9c0,0.1,0,0.2,0,0.2s0,0.1,0,0.2v5.8h-2V54
			c0-0.8-0.1-1.3-0.4-1.6c-0.3-0.3-0.7-0.5-1.2-0.5c-0.4,0-0.8,0.1-1,0.2c-0.3,0.2-0.5,0.4-0.7,0.7v6.6h-2v-9H169.4z"/>
		<path class="st4" d="M186.1,59.5c-1.3,0-2.3-0.4-3.1-1.2c-0.7-0.8-1.1-1.9-1.1-3.2v-0.3c0-1.3,0.4-2.4,1.1-3.3
			c0.7-0.9,1.7-1.3,2.9-1.3c1.2,0,2.1,0.4,2.7,1.1c0.6,0.7,0.9,1.7,0.9,3v1.1H184l0,0c0,0.7,0.2,1.3,0.6,1.8s0.9,0.7,1.7,0.7
			c0.5,0,1-0.1,1.4-0.2c0.4-0.1,0.8-0.3,1.1-0.6l0.7,1.3c-0.3,0.3-0.8,0.6-1.4,0.8S186.8,59.5,186.1,59.5z M185.9,51.8
			c-0.5,0-0.9,0.2-1.3,0.6c-0.3,0.4-0.5,0.9-0.6,1.5l0,0h3.5v-0.2c0-0.6-0.1-1-0.4-1.4C186.9,52,186.5,51.8,185.9,51.8z"/>
		<path class="st4" d="M193,50.4l0.1,1.3c0.3-0.5,0.7-0.8,1.1-1.1c0.4-0.3,0.9-0.4,1.5-0.4c0.9,0,1.7,0.3,2.2,0.9
			c0.5,0.6,0.8,1.5,0.8,2.7v5.6h-2v-5.6c0-0.7-0.1-1.2-0.4-1.5s-0.7-0.4-1.2-0.4c-0.4,0-0.8,0.1-1.1,0.2c-0.3,0.2-0.6,0.4-0.8,0.7
			v6.6h-2v-9H193z"/>
		<path class="st4" d="M203.4,48.2v2.2h1.6v1.5h-1.6v5c0,0.4,0.1,0.6,0.2,0.8c0.2,0.2,0.4,0.2,0.6,0.2c0.1,0,0.2,0,0.3,0
			c0.1,0,0.2,0,0.3-0.1l0.2,1.5c-0.2,0.1-0.4,0.2-0.6,0.2c-0.2,0.1-0.5,0.1-0.7,0.1c-0.7,0-1.3-0.2-1.7-0.7c-0.4-0.4-0.6-1.1-0.6-2
			v-5H200v-1.5h1.4v-2.2H203.4z"/>
		<path class="st4" d="M210.5,59.5c-1.3,0-2.3-0.4-3.1-1.2c-0.7-0.8-1.1-1.9-1.1-3.2v-0.3c0-1.3,0.4-2.4,1.1-3.3
			c0.7-0.9,1.7-1.3,2.9-1.3c1.2,0,2.1,0.4,2.7,1.1c0.6,0.7,0.9,1.7,0.9,3v1.1h-5.6l0,0c0,0.7,0.2,1.3,0.6,1.8s0.9,0.7,1.7,0.7
			c0.5,0,1-0.1,1.4-0.2c0.4-0.1,0.8-0.3,1.1-0.6l0.7,1.3c-0.3,0.3-0.8,0.6-1.4,0.8S211.2,59.5,210.5,59.5z M210.2,51.8
			c-0.5,0-0.9,0.2-1.3,0.6c-0.3,0.4-0.5,0.9-0.6,1.5l0,0h3.5v-0.2c0-0.6-0.1-1-0.4-1.4C211.2,52,210.8,51.8,210.2,51.8z"/>
		<path class="st4" d="M69.2,75.6c0,1.3-0.3,2.4-0.9,3.2s-1.5,1.2-2.6,1.2c-0.5,0-1-0.1-1.4-0.3s-0.7-0.5-1-0.8v4.4h-2V70.8H63
			l0.2,1.1c0.3-0.4,0.6-0.7,1-1c0.4-0.2,0.9-0.3,1.4-0.3c1.1,0,2,0.4,2.6,1.3c0.6,0.9,0.9,2,0.9,3.5V75.6z M67.1,75.4
			c0-0.9-0.2-1.7-0.5-2.3c-0.3-0.6-0.9-0.9-1.5-0.9c-0.4,0-0.8,0.1-1.1,0.3c-0.3,0.2-0.5,0.4-0.7,0.8v4.1c0.2,0.3,0.4,0.6,0.7,0.7
			c0.3,0.2,0.7,0.3,1.1,0.3c0.7,0,1.2-0.3,1.5-0.8c0.3-0.5,0.5-1.2,0.5-2V75.4z"/>
		<path class="st4" d="M70.5,75.2c0-1.3,0.4-2.4,1.1-3.3c0.7-0.9,1.7-1.3,3-1.3c1.3,0,2.3,0.4,3,1.3c0.7,0.9,1.1,2,1.1,3.3v0.2
			c0,1.4-0.4,2.5-1.1,3.3c-0.7,0.8-1.7,1.3-3,1.3c-1.3,0-2.3-0.4-3-1.3c-0.7-0.9-1.1-2-1.1-3.3V75.2z M72.6,75.4
			c0,0.9,0.2,1.6,0.5,2.1s0.9,0.8,1.6,0.8c0.7,0,1.2-0.3,1.6-0.8c0.4-0.6,0.5-1.3,0.5-2.1v-0.2c0-0.9-0.2-1.6-0.5-2.1
			c-0.4-0.6-0.9-0.8-1.6-0.8c-0.7,0-1.2,0.3-1.6,0.8c-0.3,0.6-0.5,1.3-0.5,2.1V75.4z"/>
		<path class="st4" d="M85.6,77.3c0-0.3-0.1-0.6-0.4-0.8c-0.3-0.2-0.8-0.4-1.5-0.5c-1.1-0.2-1.9-0.5-2.4-1s-0.8-1-0.8-1.7
			c0-0.8,0.3-1.4,1-1.9c0.6-0.5,1.5-0.8,2.5-0.8c1.1,0,1.9,0.3,2.6,0.8c0.7,0.6,1,1.2,0.9,2l0,0h-1.9c0-0.4-0.1-0.7-0.4-1
			c-0.3-0.3-0.7-0.4-1.2-0.4c-0.5,0-0.9,0.1-1.1,0.3s-0.4,0.5-0.4,0.8c0,0.3,0.1,0.5,0.4,0.7s0.7,0.3,1.5,0.5c1.1,0.2,1.9,0.5,2.5,1
			c0.6,0.4,0.8,1,0.8,1.7c0,0.8-0.3,1.5-1,2c-0.7,0.5-1.5,0.8-2.6,0.8c-1.2,0-2.1-0.3-2.8-0.9s-1-1.3-1-2.1l0,0h1.9
			c0,0.5,0.2,0.9,0.6,1.1s0.8,0.4,1.3,0.4c0.5,0,0.9-0.1,1.2-0.3C85.5,77.9,85.6,77.6,85.6,77.3z"/>
		<path class="st4" d="M94.4,77.3c0-0.3-0.1-0.6-0.4-0.8c-0.3-0.2-0.8-0.4-1.5-0.5c-1.1-0.2-1.9-0.5-2.4-1s-0.8-1-0.8-1.7
			c0-0.8,0.3-1.4,1-1.9c0.6-0.5,1.5-0.8,2.5-0.8c1.1,0,1.9,0.3,2.6,0.8c0.7,0.6,1,1.2,0.9,2l0,0h-1.9c0-0.4-0.1-0.7-0.4-1
			c-0.3-0.3-0.7-0.4-1.2-0.4c-0.5,0-0.9,0.1-1.1,0.3s-0.4,0.5-0.4,0.8c0,0.3,0.1,0.5,0.4,0.7s0.7,0.3,1.5,0.5c1.1,0.2,1.9,0.5,2.5,1
			c0.6,0.4,0.8,1,0.8,1.7c0,0.8-0.3,1.5-1,2c-0.7,0.5-1.5,0.8-2.6,0.8c-1.2,0-2.1-0.3-2.8-0.9s-1-1.3-1-2.1l0,0h1.9
			c0,0.5,0.2,0.9,0.6,1.1s0.8,0.4,1.3,0.4c0.5,0,0.9-0.1,1.2-0.3C94.3,77.9,94.4,77.6,94.4,77.3z"/>
		<path class="st4" d="M97.9,75.2c0-1.3,0.4-2.4,1.1-3.3c0.7-0.9,1.7-1.3,3-1.3c1.3,0,2.3,0.4,3,1.3c0.7,0.9,1.1,2,1.1,3.3v0.2
			c0,1.4-0.4,2.5-1.1,3.3c-0.7,0.8-1.7,1.3-3,1.3c-1.3,0-2.3-0.4-3-1.3c-0.7-0.9-1.1-2-1.1-3.3V75.2z M99.9,75.4
			c0,0.9,0.2,1.6,0.5,2.1s0.9,0.8,1.6,0.8c0.7,0,1.2-0.3,1.6-0.8c0.4-0.6,0.5-1.3,0.5-2.1v-0.2c0-0.9-0.2-1.6-0.5-2.1
			c-0.4-0.6-0.9-0.8-1.6-0.8c-0.7,0-1.2,0.3-1.6,0.8c-0.3,0.6-0.5,1.3-0.5,2.1V75.4z"/>
		<path class="st4" d="M114.2,68.6h-2v-1.8h2V68.6z M114.2,79.8h-2v-9h2V79.8z"/>
		<path class="st4" d="M118.3,70.8l0.1,1.2c0.3-0.4,0.7-0.8,1.1-1s1-0.3,1.5-0.3c0.6,0,1.1,0.1,1.5,0.4s0.7,0.7,0.9,1.2
			c0.3-0.5,0.6-0.9,1.1-1.2s1-0.4,1.6-0.4c0.9,0,1.6,0.3,2.1,0.9c0.5,0.6,0.8,1.6,0.8,2.9v5.4h-2v-5.4c0-0.8-0.1-1.3-0.4-1.7
			c-0.3-0.3-0.7-0.5-1.2-0.5c-0.4,0-0.8,0.1-1.1,0.3s-0.5,0.5-0.6,0.9c0,0.1,0,0.2,0,0.2s0,0.1,0,0.2v5.8h-2v-5.4
			c0-0.8-0.1-1.3-0.4-1.6c-0.3-0.3-0.7-0.5-1.2-0.5c-0.4,0-0.8,0.1-1,0.2c-0.3,0.2-0.5,0.4-0.7,0.7v6.6h-2v-9H118.3z"/>
		<path class="st4" d="M139.1,75.6c0,1.3-0.3,2.4-0.9,3.2s-1.5,1.2-2.6,1.2c-0.5,0-1-0.1-1.4-0.3s-0.7-0.5-1-0.8v4.4h-2V70.8h1.7
			l0.2,1.1c0.3-0.4,0.6-0.7,1-1c0.4-0.2,0.9-0.3,1.4-0.3c1.1,0,2,0.4,2.6,1.3c0.6,0.9,0.9,2,0.9,3.5V75.6z M137.1,75.4
			c0-0.9-0.2-1.7-0.5-2.3c-0.3-0.6-0.9-0.9-1.5-0.9c-0.4,0-0.8,0.1-1.1,0.3c-0.3,0.2-0.5,0.4-0.7,0.8v4.1c0.2,0.3,0.4,0.6,0.7,0.7
			c0.3,0.2,0.7,0.3,1.1,0.3c0.7,0,1.2-0.3,1.5-0.8c0.3-0.5,0.5-1.2,0.5-2V75.4z"/>
		<path class="st4" d="M143.1,79.8h-2V66.8h2V79.8z"/>
		<path class="st4" d="M149.1,79.9c-1.3,0-2.3-0.4-3.1-1.2c-0.7-0.8-1.1-1.9-1.1-3.2v-0.3c0-1.3,0.4-2.4,1.1-3.3
			c0.7-0.9,1.7-1.3,2.9-1.3c1.2,0,2.1,0.4,2.7,1.1c0.6,0.7,0.9,1.7,0.9,3v1.1H147l0,0c0,0.7,0.2,1.3,0.6,1.8s0.9,0.7,1.7,0.7
			c0.5,0,1-0.1,1.4-0.2c0.4-0.1,0.8-0.3,1.1-0.6l0.7,1.3c-0.3,0.3-0.8,0.6-1.4,0.8S149.9,79.9,149.1,79.9z M148.9,72.2
			c-0.5,0-0.9,0.2-1.3,0.6c-0.3,0.4-0.5,0.9-0.6,1.5l0,0h3.5v-0.2c0-0.6-0.1-1-0.4-1.4C149.9,72.4,149.5,72.2,148.9,72.2z"/>
		<path class="st4" d="M156.1,70.8l0.1,1.2c0.3-0.4,0.7-0.8,1.1-1s1-0.3,1.5-0.3c0.6,0,1.1,0.1,1.5,0.4s0.7,0.7,0.9,1.2
			c0.3-0.5,0.6-0.9,1.1-1.2s1-0.4,1.6-0.4c0.9,0,1.6,0.3,2.1,0.9c0.5,0.6,0.8,1.6,0.8,2.9v5.4h-2v-5.4c0-0.8-0.1-1.3-0.4-1.7
			c-0.3-0.3-0.7-0.5-1.2-0.5c-0.4,0-0.8,0.1-1.1,0.3s-0.5,0.5-0.6,0.9c0,0.1,0,0.2,0,0.2s0,0.1,0,0.2v5.8h-2v-5.4
			c0-0.8-0.1-1.3-0.4-1.6c-0.3-0.3-0.7-0.5-1.2-0.5c-0.4,0-0.8,0.1-1,0.2c-0.3,0.2-0.5,0.4-0.7,0.7v6.6h-2v-9H156.1z"/>
		<path class="st4" d="M172.8,79.9c-1.3,0-2.3-0.4-3.1-1.2c-0.7-0.8-1.1-1.9-1.1-3.2v-0.3c0-1.3,0.4-2.4,1.1-3.3
			c0.7-0.9,1.7-1.3,2.9-1.3c1.2,0,2.1,0.4,2.7,1.1c0.6,0.7,0.9,1.7,0.9,3v1.1h-5.6l0,0c0,0.7,0.2,1.3,0.6,1.8s0.9,0.7,1.7,0.7
			c0.5,0,1-0.1,1.4-0.2c0.4-0.1,0.8-0.3,1.1-0.6l0.7,1.3c-0.3,0.3-0.8,0.6-1.4,0.8S173.5,79.9,172.8,79.9z M172.6,72.2
			c-0.5,0-0.9,0.2-1.3,0.6c-0.3,0.4-0.5,0.9-0.6,1.5l0,0h3.5v-0.2c0-0.6-0.1-1-0.4-1.4C173.6,72.4,173.2,72.2,172.6,72.2z"/>
		<path class="st4" d="M179.7,70.8l0.1,1.3c0.3-0.5,0.7-0.8,1.1-1.1c0.4-0.3,0.9-0.4,1.5-0.4c0.9,0,1.7,0.3,2.2,0.9
			c0.5,0.6,0.8,1.5,0.8,2.7v5.6h-2v-5.6c0-0.7-0.1-1.2-0.4-1.5s-0.7-0.4-1.2-0.4c-0.4,0-0.8,0.1-1.1,0.2c-0.3,0.2-0.6,0.4-0.8,0.7
			v6.6h-2v-9H179.7z"/>
		<path class="st4" d="M190.1,68.6v2.2h1.6v1.5h-1.6v5c0,0.4,0.1,0.6,0.2,0.8c0.2,0.2,0.4,0.2,0.6,0.2c0.1,0,0.2,0,0.3,0
			c0.1,0,0.2,0,0.3-0.1l0.2,1.5c-0.2,0.1-0.4,0.2-0.6,0.2c-0.2,0.1-0.5,0.1-0.7,0.1c-0.7,0-1.3-0.2-1.7-0.7c-0.4-0.4-0.6-1.1-0.6-2
			v-5h-1.4v-1.5h1.4v-2.2H190.1z"/>
		<path class="st4" d="M198.8,79.8c-0.1-0.2-0.1-0.4-0.2-0.7c0-0.2-0.1-0.4-0.1-0.6c-0.3,0.4-0.6,0.8-1.1,1.1
			c-0.5,0.3-1,0.4-1.5,0.4c-0.9,0-1.7-0.2-2.2-0.7c-0.5-0.5-0.8-1.1-0.8-2c0-0.9,0.3-1.5,1-2c0.7-0.5,1.7-0.7,2.9-0.7h1.6v-0.8
			c0-0.5-0.1-0.8-0.4-1.1c-0.3-0.3-0.7-0.4-1.2-0.4c-0.5,0-0.8,0.1-1.1,0.3c-0.3,0.2-0.4,0.5-0.4,0.9l-1.9,0l0,0
			c0-0.7,0.3-1.3,1-1.9c0.7-0.5,1.5-0.8,2.6-0.8c1,0,1.9,0.3,2.5,0.8s1,1.3,1,2.3v4c0,0.4,0,0.7,0.1,1.1c0,0.3,0.1,0.7,0.2,1H198.8z
			 M196.3,78.3c0.5,0,1-0.1,1.4-0.4c0.4-0.3,0.7-0.5,0.8-0.9v-1.3h-1.6c-0.6,0-1,0.1-1.4,0.4c-0.3,0.3-0.5,0.6-0.5,1
			c0,0.3,0.1,0.6,0.3,0.8C195.5,78.2,195.9,78.3,196.3,78.3z"/>
		<path class="st4" d="M207.1,72.6l-0.9,0c-0.4,0-0.7,0.1-1,0.2c-0.3,0.2-0.5,0.4-0.6,0.7v6.2h-2v-9h1.8l0.1,1.3
			c0.2-0.5,0.5-0.8,0.9-1.1c0.4-0.3,0.8-0.4,1.2-0.4c0.1,0,0.2,0,0.3,0c0.1,0,0.2,0,0.3,0.1L207.1,72.6z"/>
		<path class="st4" d="M218.2,79.8c-0.1-0.2-0.1-0.4-0.2-0.7c0-0.2-0.1-0.4-0.1-0.6c-0.3,0.4-0.6,0.8-1.1,1.1
			c-0.5,0.3-1,0.4-1.5,0.4c-0.9,0-1.7-0.2-2.2-0.7c-0.5-0.5-0.8-1.1-0.8-2c0-0.9,0.3-1.5,1-2c0.7-0.5,1.7-0.7,2.9-0.7h1.6v-0.8
			c0-0.5-0.1-0.8-0.4-1.1c-0.3-0.3-0.7-0.4-1.2-0.4c-0.5,0-0.8,0.1-1.1,0.3c-0.3,0.2-0.4,0.5-0.4,0.9l-1.9,0l0,0
			c0-0.7,0.3-1.3,1-1.9c0.7-0.5,1.5-0.8,2.6-0.8c1,0,1.9,0.3,2.5,0.8s1,1.3,1,2.3v4c0,0.4,0,0.7,0.1,1.1c0,0.3,0.1,0.7,0.2,1H218.2z
			 M215.7,78.3c0.5,0,1-0.1,1.4-0.4c0.4-0.3,0.7-0.5,0.8-0.9v-1.3h-1.6c-0.6,0-1,0.1-1.4,0.4c-0.3,0.3-0.5,0.6-0.5,1
			c0,0.3,0.1,0.6,0.3,0.8C215,78.2,215.3,78.3,215.7,78.3z"/>
		<path class="st4" d="M227.1,77.3c0-0.3-0.1-0.6-0.4-0.8c-0.3-0.2-0.8-0.4-1.5-0.5c-1.1-0.2-1.9-0.5-2.4-1s-0.8-1-0.8-1.7
			c0-0.8,0.3-1.4,1-1.9c0.6-0.5,1.5-0.8,2.5-0.8c1.1,0,1.9,0.3,2.6,0.8c0.7,0.6,1,1.2,0.9,2l0,0H227c0-0.4-0.1-0.7-0.4-1
			c-0.3-0.3-0.7-0.4-1.2-0.4c-0.5,0-0.9,0.1-1.1,0.3s-0.4,0.5-0.4,0.8c0,0.3,0.1,0.5,0.4,0.7s0.7,0.3,1.5,0.5c1.1,0.2,1.9,0.5,2.5,1
			c0.6,0.4,0.8,1,0.8,1.7c0,0.8-0.3,1.5-1,2c-0.7,0.5-1.5,0.8-2.6,0.8c-1.2,0-2.1-0.3-2.8-0.9s-1-1.3-1-2.1l0,0h1.9
			c0,0.5,0.2,0.9,0.6,1.1s0.8,0.4,1.3,0.4c0.5,0,0.9-0.1,1.2-0.3C226.9,77.9,227.1,77.6,227.1,77.3z"/>
		<path class="st4" d="M67.7,96c0,1.3-0.3,2.4-0.9,3.2s-1.5,1.2-2.6,1.2c-0.5,0-1-0.1-1.4-0.3s-0.7-0.5-1-0.8v4.4h-2V91.2h1.7
			l0.2,1.1c0.3-0.4,0.6-0.7,1-1c0.4-0.2,0.9-0.3,1.4-0.3c1.1,0,2,0.4,2.6,1.3c0.6,0.9,0.9,2,0.9,3.5V96z M65.7,95.8
			c0-0.9-0.2-1.7-0.5-2.3c-0.3-0.6-0.9-0.9-1.5-0.9c-0.4,0-0.8,0.1-1.1,0.3c-0.3,0.2-0.5,0.4-0.7,0.8v4.1c0.2,0.3,0.4,0.6,0.7,0.7
			c0.3,0.2,0.7,0.3,1.1,0.3c0.7,0,1.2-0.3,1.5-0.8c0.3-0.5,0.5-1.2,0.5-2V95.8z"/>
		<path class="st4" d="M73.9,93L73,93c-0.4,0-0.7,0.1-1,0.2c-0.3,0.2-0.5,0.4-0.6,0.7v6.2h-2v-9h1.8l0.1,1.3
			c0.2-0.5,0.5-0.8,0.9-1.1c0.4-0.3,0.8-0.4,1.2-0.4c0.1,0,0.2,0,0.3,0c0.1,0,0.2,0,0.3,0.1L73.9,93z"/>
		<path class="st4" d="M80.8,100.2c-0.1-0.2-0.1-0.4-0.2-0.7c0-0.2-0.1-0.4-0.1-0.6c-0.3,0.4-0.6,0.8-1.1,1.1
			c-0.5,0.3-1,0.4-1.5,0.4c-0.9,0-1.7-0.2-2.2-0.7c-0.5-0.5-0.8-1.1-0.8-2c0-0.9,0.3-1.5,1-2c0.7-0.5,1.7-0.7,2.9-0.7h1.6v-0.8
			c0-0.5-0.1-0.8-0.4-1.1c-0.3-0.3-0.7-0.4-1.2-0.4c-0.5,0-0.8,0.1-1.1,0.3c-0.3,0.2-0.4,0.5-0.4,0.9l-1.9,0l0,0
			c0-0.7,0.3-1.3,1-1.9C77.1,91.3,78,91,79,91c1,0,1.9,0.3,2.5,0.8s1,1.3,1,2.3v4c0,0.4,0,0.7,0.1,1.1c0,0.3,0.1,0.7,0.2,1H80.8z
			 M78.4,98.7c0.5,0,1-0.1,1.4-0.4c0.4-0.3,0.7-0.5,0.8-0.9v-1.3h-1.6c-0.6,0-1,0.1-1.4,0.4c-0.3,0.3-0.5,0.6-0.5,1
			c0,0.3,0.1,0.6,0.3,0.8C77.6,98.6,77.9,98.7,78.4,98.7z M79.6,87.4h2.3l0,0l-2.3,2.2H78L79.6,87.4z"/>
		<path class="st4" d="M87.2,89v2.2h1.6v1.5h-1.6v5c0,0.4,0.1,0.6,0.2,0.8c0.2,0.2,0.4,0.2,0.6,0.2c0.1,0,0.2,0,0.3,0
			c0.1,0,0.2,0,0.3-0.1L89,100c-0.2,0.1-0.4,0.2-0.6,0.2c-0.2,0.1-0.5,0.1-0.7,0.1c-0.7,0-1.3-0.2-1.7-0.7c-0.4-0.4-0.6-1.1-0.6-2
			v-5h-1.4v-1.5h1.4V89H87.2z"/>
		<path class="st4" d="M92.6,89h-2v-1.8h2V89z M92.6,100.2h-2v-9h2V100.2z"/>
		<path class="st4" d="M98.5,98.7c0.5,0,0.8-0.1,1.2-0.4c0.3-0.3,0.5-0.7,0.5-1.1h1.8l0,0c0,0.8-0.3,1.6-1,2.2
			c-0.7,0.6-1.5,0.9-2.5,0.9c-1.3,0-2.3-0.4-3-1.3c-0.7-0.9-1.1-1.9-1.1-3.2v-0.3c0-1.3,0.4-2.4,1.1-3.2s1.7-1.3,3-1.3
			c1,0,1.9,0.3,2.5,0.9c0.7,0.6,1,1.4,0.9,2.4l0,0h-1.8c0-0.5-0.2-0.9-0.5-1.3s-0.7-0.5-1.2-0.5c-0.7,0-1.2,0.3-1.6,0.8
			c-0.3,0.6-0.5,1.2-0.5,2.1v0.3c0,0.8,0.2,1.5,0.5,2.1C97.3,98.4,97.8,98.7,98.5,98.7z"/>
		<path class="st4" d="M109.1,100.2c-0.1-0.2-0.1-0.4-0.2-0.7c0-0.2-0.1-0.4-0.1-0.6c-0.3,0.4-0.6,0.8-1.1,1.1
			c-0.5,0.3-1,0.4-1.5,0.4c-0.9,0-1.7-0.2-2.2-0.7c-0.5-0.5-0.8-1.1-0.8-2c0-0.9,0.3-1.5,1-2c0.7-0.5,1.7-0.7,2.9-0.7h1.6v-0.8
			c0-0.5-0.1-0.8-0.4-1.1c-0.3-0.3-0.7-0.4-1.2-0.4c-0.5,0-0.8,0.1-1.1,0.3c-0.3,0.2-0.4,0.5-0.4,0.9l-1.9,0l0,0
			c0-0.7,0.3-1.3,1-1.9c0.7-0.5,1.5-0.8,2.6-0.8c1,0,1.9,0.3,2.5,0.8s1,1.3,1,2.3v4c0,0.4,0,0.7,0.1,1.1c0,0.3,0.1,0.7,0.2,1H109.1z
			 M106.7,98.7c0.5,0,1-0.1,1.4-0.4c0.4-0.3,0.7-0.5,0.8-0.9v-1.3h-1.6c-0.6,0-1,0.1-1.4,0.4c-0.3,0.3-0.5,0.6-0.5,1
			c0,0.3,0.1,0.6,0.3,0.8C105.9,98.6,106.2,98.7,106.7,98.7z"/>
		<path class="st4" d="M118,97.7c0-0.3-0.1-0.6-0.4-0.8c-0.3-0.2-0.8-0.4-1.5-0.5c-1.1-0.2-1.9-0.5-2.4-1s-0.8-1-0.8-1.7
			c0-0.8,0.3-1.4,1-1.9c0.6-0.5,1.5-0.8,2.5-0.8c1.1,0,1.9,0.3,2.6,0.8c0.7,0.6,1,1.2,0.9,2l0,0h-1.9c0-0.4-0.1-0.7-0.4-1
			c-0.3-0.3-0.7-0.4-1.2-0.4c-0.5,0-0.9,0.1-1.1,0.3s-0.4,0.5-0.4,0.8c0,0.3,0.1,0.5,0.4,0.7s0.7,0.3,1.5,0.5c1.1,0.2,1.9,0.5,2.5,1
			c0.6,0.4,0.8,1,0.8,1.7c0,0.8-0.3,1.5-1,2c-0.7,0.5-1.5,0.8-2.6,0.8c-1.2,0-2.1-0.3-2.8-0.9s-1-1.3-1-2.1l0,0h1.9
			c0,0.5,0.2,0.9,0.6,1.1s0.8,0.4,1.3,0.4c0.5,0,0.9-0.1,1.2-0.3C117.9,98.3,118,98,118,97.7z"/>
		<path class="st4" d="M133,94.7h-4.7v3.8h5.6v1.6h-7.6V88.1h7.5v1.6h-5.5v3.4h4.7V94.7z"/>
		<path class="st4" d="M142,97.1c0-0.5-0.2-0.9-0.5-1.2c-0.4-0.3-1-0.6-1.9-0.9c-1.3-0.4-2.3-0.8-3-1.4c-0.7-0.6-1.1-1.3-1.1-2.3
			c0-1,0.4-1.8,1.2-2.4s1.8-0.9,3-0.9c1.3,0,2.4,0.4,3.1,1.1c0.8,0.7,1.2,1.6,1.1,2.6l0,0H142c0-0.6-0.2-1.1-0.6-1.5
			c-0.4-0.4-1-0.6-1.7-0.6c-0.7,0-1.2,0.2-1.6,0.5c-0.4,0.3-0.6,0.7-0.6,1.2c0,0.5,0.2,0.8,0.6,1.1c0.4,0.3,1.1,0.6,2,0.9
			c1.3,0.4,2.2,0.8,2.9,1.4c0.7,0.6,1,1.4,1,2.3c0,1-0.4,1.8-1.2,2.4s-1.8,0.9-3.1,0.9c-1.2,0-2.3-0.3-3.2-1s-1.4-1.6-1.3-2.8l0,0
			h1.9c0,0.7,0.3,1.3,0.8,1.6c0.5,0.4,1.1,0.6,1.8,0.6c0.7,0,1.3-0.2,1.7-0.5C141.8,98,142,97.6,142,97.1z"/>
		<path class="st4" d="M155.1,98.5c-0.3,0.5-0.9,0.9-1.6,1.3c-0.7,0.4-1.7,0.6-2.8,0.6c-1.4,0-2.6-0.5-3.5-1.4
			c-0.9-0.9-1.4-2.1-1.4-3.6v-2.5c0-1.5,0.4-2.7,1.3-3.6c0.9-0.9,2-1.4,3.4-1.4c1.4,0,2.5,0.4,3.3,1.1s1.2,1.6,1.1,2.8l0,0H153
			c0-0.7-0.2-1.2-0.6-1.6c-0.4-0.4-1-0.6-1.8-0.6c-0.8,0-1.5,0.3-2,0.9c-0.5,0.6-0.8,1.4-0.8,2.4v2.5c0,1,0.3,1.8,0.8,2.4
			c0.5,0.6,1.2,0.9,2.1,0.9c0.6,0,1.2-0.1,1.5-0.2c0.4-0.1,0.7-0.3,0.9-0.5v-2.5h-2.5V94h4.5V98.5z"/>
		<path class="st4" d="M163.4,91.2l0.1,1.3c0.3-0.5,0.7-0.8,1.1-1.1c0.4-0.3,0.9-0.4,1.5-0.4c0.9,0,1.7,0.3,2.2,0.9
			c0.5,0.6,0.8,1.5,0.8,2.7v5.6h-2v-5.6c0-0.7-0.1-1.2-0.4-1.5s-0.7-0.4-1.2-0.4c-0.4,0-0.8,0.1-1.1,0.2c-0.3,0.2-0.6,0.4-0.8,0.7
			v6.6h-2v-9H163.4z"/>
		<path class="st4" d="M176.6,100.2c-0.1-0.2-0.1-0.4-0.2-0.7c0-0.2-0.1-0.4-0.1-0.6c-0.3,0.4-0.6,0.8-1.1,1.1
			c-0.5,0.3-1,0.4-1.5,0.4c-0.9,0-1.7-0.2-2.2-0.7c-0.5-0.5-0.8-1.1-0.8-2c0-0.9,0.3-1.5,1-2c0.7-0.5,1.7-0.7,2.9-0.7h1.6v-0.8
			c0-0.5-0.1-0.8-0.4-1.1c-0.3-0.3-0.7-0.4-1.2-0.4c-0.5,0-0.8,0.1-1.1,0.3c-0.3,0.2-0.4,0.5-0.4,0.9l-1.9,0l0,0
			c0-0.7,0.3-1.3,1-1.9c0.7-0.5,1.5-0.8,2.6-0.8c1,0,1.9,0.3,2.5,0.8s1,1.3,1,2.3v4c0,0.4,0,0.7,0.1,1.1c0,0.3,0.1,0.7,0.2,1H176.6z
			 M174.1,98.7c0.5,0,1-0.1,1.4-0.4c0.4-0.3,0.7-0.5,0.8-0.9v-1.3h-1.6c-0.6,0-1,0.1-1.4,0.4c-0.3,0.3-0.5,0.6-0.5,1
			c0,0.3,0.1,0.6,0.3,0.8C173.4,98.6,173.7,98.7,174.1,98.7z"/>
		<path class="st4" d="M186.5,91.2l0.1,1.2c0.3-0.4,0.7-0.8,1.1-1s1-0.3,1.5-0.3c0.6,0,1.1,0.1,1.5,0.4s0.7,0.7,0.9,1.2
			c0.3-0.5,0.6-0.9,1.1-1.2s1-0.4,1.6-0.4c0.9,0,1.6,0.3,2.1,0.9c0.5,0.6,0.8,1.6,0.8,2.9v5.4h-2v-5.4c0-0.8-0.1-1.3-0.4-1.7
			c-0.3-0.3-0.7-0.5-1.2-0.5c-0.4,0-0.8,0.1-1.1,0.3s-0.5,0.5-0.6,0.9c0,0.1,0,0.2,0,0.2s0,0.1,0,0.2v5.8h-2v-5.4
			c0-0.8-0.1-1.3-0.4-1.6c-0.3-0.3-0.7-0.5-1.2-0.5c-0.4,0-0.8,0.1-1,0.2c-0.3,0.2-0.5,0.4-0.7,0.7v6.6h-2v-9H186.5z"/>
		<path class="st4" d="M201.6,89h-2v-1.8h2V89z M201.6,100.2h-2v-9h2V100.2z"/>
		<path class="st4" d="M205.7,91.2l0.1,1.3c0.3-0.5,0.7-0.8,1.1-1.1c0.4-0.3,0.9-0.4,1.5-0.4c0.9,0,1.7,0.3,2.2,0.9
			c0.5,0.6,0.8,1.5,0.8,2.7v5.6h-2v-5.6c0-0.7-0.1-1.2-0.4-1.5s-0.7-0.4-1.2-0.4c-0.4,0-0.8,0.1-1.1,0.2c-0.3,0.2-0.6,0.4-0.8,0.7
			v6.6h-2v-9H205.7z"/>
		<path class="st4" d="M215.5,92.3c0.3-0.4,0.7-0.7,1.1-1c0.4-0.2,0.9-0.3,1.4-0.3c1,0,1.7,0.3,2.2,0.9c0.5,0.6,0.8,1.5,0.8,2.8v5.5
			h-2v-5.5c0-0.7-0.1-1.2-0.4-1.5c-0.3-0.3-0.7-0.5-1.2-0.5c-0.4,0-0.8,0.1-1.1,0.2c-0.3,0.2-0.6,0.4-0.8,0.6v6.6h-2V87.2h2V92.3z"
			/>
		<path class="st4" d="M228.5,100.2c-0.1-0.2-0.1-0.4-0.2-0.7c0-0.2-0.1-0.4-0.1-0.6c-0.3,0.4-0.6,0.8-1.1,1.1
			c-0.5,0.3-1,0.4-1.5,0.4c-0.9,0-1.7-0.2-2.2-0.7c-0.5-0.5-0.8-1.1-0.8-2c0-0.9,0.3-1.5,1-2c0.7-0.5,1.7-0.7,2.9-0.7h1.6v-0.8
			c0-0.5-0.1-0.8-0.4-1.1c-0.3-0.3-0.7-0.4-1.2-0.4c-0.5,0-0.8,0.1-1.1,0.3c-0.3,0.2-0.4,0.5-0.4,0.9l-1.9,0l0,0
			c0-0.7,0.3-1.3,1-1.9c0.7-0.5,1.5-0.8,2.6-0.8c1,0,1.9,0.3,2.5,0.8s1,1.3,1,2.3v4c0,0.4,0,0.7,0.1,1.1c0,0.3,0.1,0.7,0.2,1H228.5z
			 M226.1,98.7c0.5,0,1-0.1,1.4-0.4c0.4-0.3,0.7-0.5,0.8-0.9v-1.3h-1.6c-0.6,0-1,0.1-1.4,0.4c-0.3,0.3-0.5,0.6-0.5,1
			c0,0.3,0.1,0.6,0.3,0.8C225.3,98.6,225.6,98.7,226.1,98.7z"/>
		<path class="st4" d="M112.7,120.7c-1.3,0-2.3-0.4-3.1-1.2c-0.7-0.8-1.1-1.9-1.1-3.2v-0.3c0-1.3,0.4-2.4,1.1-3.3
			c0.7-0.9,1.7-1.3,2.9-1.3c1.2,0,2.1,0.4,2.7,1.1c0.6,0.7,0.9,1.7,0.9,3v1.1h-5.6l0,0c0,0.7,0.2,1.3,0.6,1.8s0.9,0.7,1.7,0.7
			c0.5,0,1-0.1,1.4-0.2c0.4-0.1,0.8-0.3,1.1-0.6l0.7,1.3c-0.3,0.3-0.8,0.6-1.4,0.8S113.4,120.7,112.7,120.7z M112.5,113
			c-0.5,0-0.9,0.2-1.3,0.6c-0.3,0.4-0.5,0.9-0.6,1.5l0,0h3.5V115c0-0.6-0.1-1-0.4-1.4C113.5,113.2,113.1,113,112.5,113z"/>
		<path class="st4" d="M119.6,111.6l0.1,1.2c0.3-0.4,0.7-0.8,1.1-1s1-0.3,1.5-0.3c0.6,0,1.1,0.1,1.5,0.4s0.7,0.7,0.9,1.2
			c0.3-0.5,0.6-0.9,1.1-1.2s1-0.4,1.6-0.4c0.9,0,1.6,0.3,2.1,0.9c0.5,0.6,0.8,1.6,0.8,2.9v5.4h-2v-5.4c0-0.8-0.1-1.3-0.4-1.7
			c-0.3-0.3-0.7-0.5-1.2-0.5c-0.4,0-0.8,0.1-1.1,0.3s-0.5,0.5-0.6,0.9c0,0.1,0,0.2,0,0.2s0,0.1,0,0.2v5.8h-2v-5.4
			c0-0.8-0.1-1.3-0.4-1.6c-0.3-0.3-0.7-0.5-1.2-0.5c-0.4,0-0.8,0.1-1,0.2c-0.3,0.2-0.5,0.4-0.7,0.7v6.6h-2v-9H119.6z"/>
		<path class="st4" d="M140.4,116.4c0,1.3-0.3,2.4-0.9,3.2s-1.5,1.2-2.6,1.2c-0.5,0-1-0.1-1.4-0.3s-0.7-0.5-1-0.8v4.4h-2v-12.4h1.7
			l0.2,1.1c0.3-0.4,0.6-0.7,1-1c0.4-0.2,0.9-0.3,1.4-0.3c1.1,0,2,0.4,2.6,1.3c0.6,0.9,0.9,2,0.9,3.5V116.4z M138.4,116.2
			c0-0.9-0.2-1.7-0.5-2.3c-0.3-0.6-0.9-0.9-1.5-0.9c-0.4,0-0.8,0.1-1.1,0.3c-0.3,0.2-0.5,0.4-0.7,0.8v4.1c0.2,0.3,0.4,0.6,0.7,0.7
			c0.3,0.2,0.7,0.3,1.1,0.3c0.7,0,1.2-0.3,1.5-0.8c0.3-0.5,0.5-1.2,0.5-2V116.2z"/>
		<path class="st4" d="M146.7,113.4l-0.9,0c-0.4,0-0.7,0.1-1,0.2c-0.3,0.2-0.5,0.4-0.6,0.7v6.2h-2v-9h1.8l0.1,1.3
			c0.2-0.5,0.5-0.8,0.9-1.1c0.4-0.3,0.8-0.4,1.2-0.4c0.1,0,0.2,0,0.3,0c0.1,0,0.2,0,0.3,0.1L146.7,113.4z"/>
		<path class="st4" d="M151.8,120.7c-1.3,0-2.3-0.4-3.1-1.2c-0.7-0.8-1.1-1.9-1.1-3.2v-0.3c0-1.3,0.4-2.4,1.1-3.3
			c0.7-0.9,1.7-1.3,2.9-1.3c1.2,0,2.1,0.4,2.7,1.1c0.6,0.7,0.9,1.7,0.9,3v1.1h-5.6l0,0c0,0.7,0.2,1.3,0.6,1.8s0.9,0.7,1.7,0.7
			c0.5,0,1-0.1,1.4-0.2c0.4-0.1,0.8-0.3,1.1-0.6l0.7,1.3c-0.3,0.3-0.8,0.6-1.4,0.8S152.6,120.7,151.8,120.7z M151.6,113
			c-0.5,0-0.9,0.2-1.3,0.6c-0.3,0.4-0.5,0.9-0.6,1.5l0,0h3.5V115c0-0.6-0.1-1-0.4-1.4C152.6,113.2,152.2,113,151.6,113z"/>
		<path class="st4" d="M162,118.1c0-0.3-0.1-0.6-0.4-0.8c-0.3-0.2-0.8-0.4-1.5-0.5c-1.1-0.2-1.9-0.5-2.4-1s-0.8-1-0.8-1.7
			c0-0.8,0.3-1.4,1-1.9c0.6-0.5,1.5-0.8,2.5-0.8c1.1,0,1.9,0.3,2.6,0.8c0.7,0.6,1,1.2,0.9,2l0,0h-1.9c0-0.4-0.1-0.7-0.4-1
			c-0.3-0.3-0.7-0.4-1.2-0.4c-0.5,0-0.9,0.1-1.1,0.3s-0.4,0.5-0.4,0.8c0,0.3,0.1,0.5,0.4,0.7s0.7,0.3,1.5,0.5c1.1,0.2,1.9,0.5,2.5,1
			c0.6,0.4,0.8,1,0.8,1.7c0,0.8-0.3,1.5-1,2c-0.7,0.5-1.5,0.8-2.6,0.8c-1.2,0-2.1-0.3-2.8-0.9s-1-1.3-1-2.1l0,0h1.9
			c0,0.5,0.2,0.9,0.6,1.1s0.8,0.4,1.3,0.4c0.5,0,0.9-0.1,1.2-0.3C161.8,118.7,162,118.4,162,118.1z"/>
		<path class="st4" d="M171.2,120.6c-0.1-0.2-0.1-0.4-0.2-0.7c0-0.2-0.1-0.4-0.1-0.6c-0.3,0.4-0.6,0.8-1.1,1.1
			c-0.5,0.3-1,0.4-1.5,0.4c-0.9,0-1.7-0.2-2.2-0.7c-0.5-0.5-0.8-1.1-0.8-2c0-0.9,0.3-1.5,1-2c0.7-0.5,1.7-0.7,2.9-0.7h1.6v-0.8
			c0-0.5-0.1-0.8-0.4-1.1c-0.3-0.3-0.7-0.4-1.2-0.4c-0.5,0-0.8,0.1-1.1,0.3c-0.3,0.2-0.4,0.5-0.4,0.9l-1.9,0l0,0
			c0-0.7,0.3-1.3,1-1.9c0.7-0.5,1.5-0.8,2.6-0.8c1,0,1.9,0.3,2.5,0.8s1,1.3,1,2.3v4c0,0.4,0,0.7,0.1,1.1c0,0.3,0.1,0.7,0.2,1H171.2z
			 M168.7,119.1c0.5,0,1-0.1,1.4-0.4c0.4-0.3,0.7-0.5,0.8-0.9v-1.3h-1.6c-0.6,0-1,0.1-1.4,0.4c-0.3,0.3-0.5,0.6-0.5,1
			c0,0.3,0.1,0.6,0.3,0.8C168,119,168.3,119.1,168.7,119.1z"/>
		<path class="st4" d="M176.8,117.1c0-0.8,0.1-1.4,0.3-1.7c0.2-0.3,0.6-0.8,1.2-1.3c0.4-0.4,0.8-0.8,1-1.2c0.3-0.4,0.4-0.8,0.4-1.3
			c0-0.5-0.1-1-0.4-1.2c-0.3-0.3-0.7-0.4-1.2-0.4c-0.5,0-0.8,0.1-1.2,0.4c-0.3,0.3-0.5,0.6-0.5,1.1h-1.9l0,0c0-1,0.3-1.8,1-2.3
			c0.7-0.6,1.6-0.8,2.6-0.8c1.2,0,2.1,0.3,2.7,0.9c0.7,0.6,1,1.4,1,2.5c0,0.7-0.2,1.4-0.6,2c-0.4,0.6-0.9,1.1-1.5,1.6
			c-0.3,0.3-0.5,0.5-0.6,0.8c-0.1,0.2-0.1,0.6-0.1,1.1H176.8z M178.8,120.6h-2.1v-1.9h2.1V120.6z"/>
	</g>
</g>
</svg>
