<?xml version="1.0" encoding="UTF-8"?><svg id="PATTERN" xmlns="http://www.w3.org/2000/svg" xmlns:xlink="http://www.w3.org/1999/xlink" viewBox="0 0 500 500"><defs><style>.cls-1{clip-path:url(#clippath-4);}.cls-1,.cls-2,.cls-3,.cls-4,.cls-5,.cls-6,.cls-7,.cls-8,.cls-9,.cls-10,.cls-11,.cls-12,.cls-13,.cls-14,.cls-15,.cls-16,.cls-17,.cls-18,.cls-19{fill:none;}.cls-20,.cls-21,.cls-22,.cls-23,.cls-9,.cls-24,.cls-25,.cls-13,.cls-18,.cls-19{stroke-linecap:round;stroke-linejoin:round;}.cls-20,.cls-21,.cls-22,.cls-23,.cls-9,.cls-24,.cls-25,.cls-18,.cls-19{stroke:#1a2e35;}.cls-20,.cls-26{fill:#737373;}.cls-2{clip-path:url(#clippath-2);}.cls-27,.cls-25{fill:#fff;}.cls-3{clip-path:url(#clippath-6);}.cls-4{clip-path:url(#clippath-9);}.cls-28,.cls-21{fill:#af0;}.cls-5{clip-path:url(#clippath-12);}.cls-6{opacity:.42;}.cls-29,.cls-14{opacity:.2;}.cls-7{clip-path:url(#clippath-7);}.cls-23{fill:#707070;}.cls-8{clip-path:url(#clippath-10);}.cls-10{clip-path:url(#clippath-5);}.cls-24,.cls-30{fill:#1a2e35;}.cls-31{fill:#c6ff00;opacity:.22;}.cls-11{clip-path:url(#clippath-3);}.cls-12{clip-path:url(#clippath-11);}.cls-13{stroke:#4c4c4c;}.cls-15{clip-path:url(#clippath);}.cls-16{clip-path:url(#clippath-1);}.cls-17{clip-path:url(#clippath-8);}.cls-18{stroke-width:3px;}.cls-19{stroke-width:.5px;}</style><clipPath id="clippath"><path class="cls-21" d="m235.66,239.33s20.69,15.89,33.99,21.8c13.3,5.91,49.14,7.39,50.99,7.39l-2.59,5.17,18.11,17,12.56-12.93,2.59,16.26s38.8-3.33,48.77-10.72c9.98-7.39,18.11-20.32,18.11-20.32,0,0-9.67-38.22-28.08-61.34-25.19-31.62-60.6-46.56-84.62-51.73s-49.51,1.11-65.4,11.45c-15.89,10.35-18.84,24.76-18.84,24.76,0,0,17.37,33.99,17.37,42.12s-2.96,11.09-2.96,11.09Z"/></clipPath><clipPath id="clippath-1"><path class="cls-25" d="m85.53,220.64s-3.11,5.59-1.86,9.01c1.24,3.42,13.36,9.01,16.16,9.01s5.28-4.97,5.28-6.52-15.84-12.43-16.78-13.67c-.93-1.24-2.8,2.17-2.8,2.17Z"/></clipPath><clipPath id="clippath-2"><path class="cls-25" d="m90.19,210.7s-6.52,5.9-6.21,9.32c.31,3.42,8.7,10.25,13.67,13.98,4.97,3.73,9.32.31,9.94-2.17.62-2.49-3.11-4.97-5.28-8.7-2.17-3.73-9.63-13.05-9.63-13.05,0,0-1.86-.93-2.49.62Z"/></clipPath><clipPath id="clippath-3"><path class="cls-25" d="m101.68,200.45s-7.15,3.73-10.56,7.15-.93,6.21,1.86,10.87c2.8,4.66,8.39,13.67,12.12,13.67s10.25-3.42,10.25-7.77-10.25-23.92-10.25-23.92h-3.42Z"/></clipPath><clipPath id="clippath-4"><path class="cls-25" d="m118.15,198.81c-.03-4.39-4.75-7.16-8.71-5.25-4.01,1.93-8.78,4.72-9.31,7.2-.93,4.35,10.25,25.16,11.5,25.79,1.24.62,13.36-1.86,11.5-6.83-1.86-4.97-4.97-18.02-4.97-20.82,0-.03,0-.06,0-.08Z"/></clipPath><clipPath id="clippath-5"><path class="cls-25" d="m133.06,217.54s-9.32,1.55-12.74,4.66c-3.42,3.11-10.56,11.18-10.25,12.74.31,1.55,2.17,4.35,5.59,4.35s10.25-4.66,14.6-6.83c4.35-2.17,4.97-7.15,5.28-9.94"/></clipPath><clipPath id="clippath-6"><path class="cls-25" d="m135.16,197.94s5.54,18.11,7.76,20.69c2.22,2.59,4.8,4.8,5.91,5.91,1.11,1.11,1.48,10.35,2.59,11.09s2.96.74,7.02-1.48c1.03-.56,5.17,3.69,5.17,3.69,0,0,7.02-10.35,11.09-12.56s18.11,5.54,17.37,8.13c-.74,2.59-11.82,16.63-11.82,18.11s4.43,5.17,4.43,6.65,7.76,7.76,12.19,3.33,12.93-18.48,12.93-18.48l39.91-.37-14.04-16.63s-2.59-13.3-8.87-23.28c-6.28-9.98-16.26-13.67-16.26-13.67,0,0-.37-17-4.06-27.71s-9.24-19.21-18.84-23.28c-9.61-4.06-27.34,1.11-42.49,8.5-15.15,7.39-25.87,24.39-30.3,35.1s2.22,28.45,2.22,28.45l8.87-11.82v12.19l9.24-12.56Z"/></clipPath><clipPath id="clippath-7"><path class="cls-25" d="m353.54,214.2s-14.04-3.33-25.5-.74c-11.45,2.59-36.95,35.1-45.45,42.12-8.5,7.02-28.45,21.8-28.45,21.8,0,0-12.19-6.65-18.11-11.09-5.91-4.43-12.19-2.22-14.04.74-1.85,2.96-3.33,8.87-3.33,8.87,0,0-9.24,2.59-11.45,6.28-2.22,3.7-1.11,9.24.74,10.72,1.85,1.48,4.06,3.33,4.06,3.33,0,0-4.43,8.13-2.59,9.61,1.85,1.48,5.54,3.7,5.54,3.7,0,0-2.22,5.17-.37,7.02,1.85,1.85,5.54,3.7,5.54,3.7,0,0,0,4.43,3.33,5.17,3.33.74,17.37-3.33,22.17-3.7s21.43-12.19,23.65-13.67c2.22-1.48,34.36-12.56,51.73-19.58,17.37-7.02,38.43-21.8,44.71-40.65,6.28-18.84-4.43-29.56-7.02-30.67"/></clipPath><clipPath id="clippath-8"><path class="cls-25" d="m115.11,358.35s-3.65,19.04-5.22,25.3c-1.56,6.26-12.64,33.71-12.64,33.71,0,0-.87,1.19-2.35,1.3h-13.56s-2.35-1.3-1.56-2.61c.78-1.3,2.09-6.52,3.91-6.52s10.69,1.3,12.26.26c1.56-1.04,1.17-22.5,2.21-26.41,1.04-3.91,2.35-11.47,2.61-12.52.26-1.04-.78-17.47-.78-17.47l15.13,4.95Z"/></clipPath><clipPath id="clippath-9"><path class="cls-25" d="m123.4,308.42s-3.67,4.8-9.59,7.62c-5.92,2.82-9.03,9.59-10.72,14.67-1.69,5.08-5.64,24.54-5.64,24.54l18.34,7.34,3.1-11.28,16.93,13.82s-5.36,19.18-.85,33.01,12.87,19.24,19.36,20.94c0,0,30.62.97,43.6-.73,12.98-1.69,11.24-13.44,11.24-13.44,0,0,9.31,8.75,19.75,12.41,10.44,3.67,87.27,1.57,87.27,1.57,0,0-.66-6.09-4.05-8.34-3.39-2.26-9.03-2.82-12.13-1.97-3.1.85-12.13,3.39-12.13,3.39,0,0-9.31-7.62-22.01-13.82-12.7-6.21-26.24-3.95-26.24-3.95,0,0-16.64-19.75-32.73-28.78s-18.62-8.75-18.62-8.75c0,0-2.82-5.08-6.77-8.46-3.95-3.39-7.34-5.64-7.34-5.64,0,0-4.51-23.98-11.57-33.85l19.11-3.58s-1.19-7.94-.33-9.28c2.54-3.95,7.46-13.94-1.28-12.25-8.75,1.69-14.11,5.92-19.75,6.77-5.64.85-10.16,2.26-15.8,5.92-5.64,3.67-4.8,7.05-11,9.31-6.21,2.26-10.16,2.82-10.16,2.82Z"/></clipPath><clipPath id="clippath-10"><path class="cls-20" d="m206.91,365.4c-16.08-9.03-18.62-8.75-18.62-8.75,0,0-2.82-5.08-6.77-8.46-3.95-3.39-7.34-5.64-7.34-5.64,0,0-4.51-23.98-11.57-33.85l19.11-3.58s-1.19-7.94-.33-9.28c2.54-3.95,7.46-13.94-1.28-12.25-8.75,1.69-14.11,5.92-19.75,6.77-5.64.85-10.16,2.26-15.8,5.92-5.64,3.67-4.8,7.05-11,9.31-6.21,2.26-10.16,2.82-10.16,2.82,0,0-3.67,4.8-9.59,7.62-5.92,2.82-9.03,9.59-10.72,14.67-1.69,5.08-5.64,24.54-5.64,24.54l18.34,7.33,3.1-11.28,16.93,13.82s-5.36,19.18-.85,33.01c4.51,13.82,12.87,19.24,19.36,20.94,0,0,.67.02,1.84.05,1.01-3.93,5.25-15.99,20.59-24.21,18.55-9.94,21.87-4.97,29.16-4.97,6.01,0,12.7-5.39,22.65-7.48-6.08-5.91-13.93-12.72-21.65-17.05Z"/></clipPath><clipPath id="clippath-11"><path class="cls-25" d="m116.07,290.64s5.08,8.18,5.92,13.82c.85,5.64-.56,5.08-.56,10.72s5.92,14.95,17.77,13.82c11.85-1.13,12.7-12.13,9.03-17.77-3.67-5.64-7.34-7.62-9.31-11.28-1.97-3.67-3.39-5.92-3.39-5.92l-19.47-3.39Z"/></clipPath><clipPath id="clippath-12"><path class="cls-25" d="m118.67,260.72s2.58,11.19-.29,18.64c-2.87,7.46-5.16,10.33-4.59,11.19.57.86,6.31,3.44,10.04,4.88,3.73,1.43,10.9,4.3,14.92,2.29,4.02-2.01,7.17-12.33,6.6-18.07-.57-5.74-6.02-12.05-7.74-16.64-1.72-4.59-2.58-4.3-7.74-5.45-5.16-1.15-11.19,3.16-11.19,3.16Z"/></clipPath></defs><rect class="cls-31" x="-1.25" y="-1.25" width="502.5" height="502.5"/><g class="cls-6"><path class="cls-28" d="m73.01,396.64s46.73,59.17,126.58,61.58c79.85,2.41,151.25-47.37,210.17-86.17,58.91-38.8,78.24-103.69,48.83-157.22-29.41-53.53-82.79-35.21-146.91-72.85-64.11-37.64-75.48-57.39-149.8-54.01-74.32,3.38-135.84,82.78-133.13,171.74,2.71,88.96,44.26,136.93,44.26,136.93Z"/></g><path class="cls-9" d="m433.4,79.22h-163.62c-1.25,0-2.26.85-2.26,1.9v241.67c0,1.05,1.01,1.9,2.26,1.9h163.62c1.25,0,2.26-.85,2.26-1.9V81.11c0-1.05-1.01-1.9-2.26-1.9Zm-131.84,241.67h-29.52v-43.68h29.52v43.68Zm0-47.47h-29.52v-58.6h29.52v58.6Zm0-62.39h-29.52v-64.87h29.52v64.87Zm0-68.66h-29.52v-59.35h29.52v59.35Zm4.52-59.35h32.5v59.35h-32.5v-59.35Zm0,63.14h32.5v64.87h-32.5v-64.87Zm0,68.66h32.5v58.6h-32.5v-58.6Zm0,62.39h32.5v43.68h-32.5v-43.68Zm88.27,43.68h-29.75v-43.68h29.75v43.68Zm0-47.47h-29.75v-58.6h29.75v58.6Zm0-62.39h-29.75v-64.87h29.75v64.87Zm0-68.66h-29.75v-59.35h29.75v59.35Zm36.79,178.53h-32.27v-43.68h32.27v43.68Zm0-47.47h-32.27v-58.6h32.27v58.6Zm0-62.39h-32.27v-64.87h32.27v64.87Zm0-68.66h-32.27v-59.35h32.27v59.35Zm-79.73-62.8v244.47"/><rect class="cls-9" x="194.45" y="117.29" width="43.14" height="57.71"/><rect class="cls-9" x="202.29" y="127.78" width="27.45" height="36.72"/><rect class="cls-9" x="56.72" y="143.62" width="35.3" height="47.21"/><rect class="cls-9" x="63.14" y="152.21" width="22.46" height="30.05"/><path class="cls-25" d="m304.39,407.82s-11.6,1.98-16.52,4.13c-4.92,2.15-13.78,3.26-15.26,4.73-1.48,1.48-2.59,2.22-2.59,2.22h44.34s-2.96-9.98-9.98-11.09Z"/><path class="cls-24" d="m321.76,272.58s-43.23,25.5-57.27,39.17c-14.04,13.67-19.58,22.54-16.26,28.08,3.33,5.54,42.12,70.95,42.12,70.95l14.04-2.96s-22.91-62.45-21.06-66.88c1.85-4.43,60.97-27.71,60.97-27.71,0,0-12.19,32.89-9.24,38.43,2.96,5.54,35.1,59.12,35.1,59.12l18.11.74s-22.54-58.38-21.06-60.23c1.48-1.85,30.67-32.52,42.86-55.8,12.19-23.28-1.11-39.91-1.11-39.91l-78.71,10.72-8.5,6.28Z"/><path class="cls-25" d="m370.16,410.78s-16.63,4.43-18.11,5.91c-1.48,1.48-1.48,2.96-1.48,2.96h39.91s.74-3.7-2.22-8.13l-18.11-.74Z"/><path class="cls-28" d="m235.66,239.33s20.69,15.89,33.99,21.8c13.3,5.91,49.14,7.39,50.99,7.39l-2.59,5.17,18.11,17,12.56-12.93,2.59,16.26s38.8-3.33,48.77-10.72c9.98-7.39,18.11-20.32,18.11-20.32,0,0-9.67-38.22-28.08-61.34-25.19-31.62-60.6-46.56-84.62-51.73s-49.51,1.11-65.4,11.45c-15.89,10.35-18.84,24.76-18.84,24.76,0,0,17.37,33.99,17.37,42.12s-2.96,11.09-2.96,11.09Z"/><g class="cls-15"><g class="cls-14"><path d="m299.24,179.88c-.55-.24-.47-.17,0,0h0Z"/><path d="m369.46,246.81c-5.9-1.18-5.51-6.3-7.87-9.84-2.36-3.54-28.73-31.09-22.83-31.88,5.9-.79,22.04-13.38,19.68-12.2s-24.8,9.05-24.8,9.05c0,0-16.92-4.33-9.05-7.08,7.87-2.76,21.65-16.92,21.65-16.92,0,0-19.29,11.41-22.04,12.2-2.76.79-10.63-2.76-10.63-2.76l9.05-17.32s-4.72,8.66-7.48,9.05c-2.76.39-2.76-8.27-3.94-11.41-1.18-3.15-.79,7.08-3.94,11.41-1.96,2.69-6.66,1.27-8.04.76.43.19,1.22.55,2.52,1.2,7.87,3.94,49.2,42.12,45.26,47.23-3.94,5.12-64.55,8.66-75.96,2.76-11.41-5.9-12.2-10.23-16.92-14.17s3.94,9.05,2.76,8.27-16.92-7.87-16.92-7.87l-3.01,3.88c1.02,3.02,1.66,5.52,1.66,7.07,0,8.13-2.96,11.09-2.96,11.09,0,0,20.69,15.89,33.99,21.8,13.3,5.91,49.14,7.39,50.99,7.39l-2.59,5.17,18.11,17,12.56-12.93,2.59,16.26s.22-.02.6-.05c3.98-6.67,10.12-18.33,12.82-23.14,3.54-6.3,2.76-13.38,2.76-13.38,0,0,1.18-2.76,8.27-3.94,7.08-1.18,21.65-6.3,21.65-6.3,0,0-22.04.79-27.95-.39Z"/></g></g><path class="cls-9" d="m235.66,239.33s20.69,15.89,33.99,21.8c13.3,5.91,49.14,7.39,50.99,7.39l-2.59,5.17,18.11,17,12.56-12.93,2.59,16.26s38.8-3.33,48.77-10.72c9.98-7.39,18.11-20.32,18.11-20.32,0,0-9.67-38.22-28.08-61.34-25.19-31.62-60.6-46.56-84.62-51.73s-49.51,1.11-65.4,11.45c-15.89,10.35-18.84,24.76-18.84,24.76,0,0,17.37,33.99,17.37,42.12s-2.96,11.09-2.96,11.09Z"/><path class="cls-9" d="m233.64,181.31s16.68,5.92,20.45,25.29"/><path class="cls-9" d="m241.71,190.46s9.69,13.99,10.22,24.21"/><path class="cls-9" d="m311.12,160.86s3.23,18.29-4.84,32.82c0,0,14.53-12.38,17.22-30.67"/><path class="cls-9" d="m300.9,203.91s34.98-6.46,50.04-32.29"/><path class="cls-9" d="m364.12,190.64c1.8-1.39,3.53-2.85,5.17-4.4"/><path class="cls-9" d="m307.89,213.6s25.6-4.14,47.22-16.9"/><path class="cls-9" d="m396.12,248.52c1.26-.47,2.53-.99,3.79-1.56"/><path class="cls-9" d="m350.94,249.65s18.74,5.98,39.07.78"/><path class="cls-21" d="m236.77,248.93s11.17,4.96,13.39,6.07c2.22,1.11-7.47-5.7-8.95-10.87s-5.91-8.5-7.39-4.8c-1.48,3.7,2.96,9.61,2.96,9.61Z"/><path class="cls-21" d="m225.32,241.17s9.61,7.76,11.45,7.76,12.93-6.28,12.93-6.28c0,0-14.41-2.59-18.48-3.33s-5.91,1.85-5.91,1.85Z"/><path class="cls-25" d="m115.35,194.55s1.86-.03,6.21,1.86c4.35,1.9,19.57,11.5,21.75,11.81,2.17.31,21.44-6.21,26.72-4.04,5.28,2.17,4.97,17.09,1.86,22.06-3.11,4.97-31.69,4.35-31.69,4.35,0,0-.93,3.73-7.77,5.9-6.83,2.17-15.53-2.17-15.53-2.17,0,0,1.24,2.49-5.28,2.49s-13.98-3.42-16.16-4.97c-2.17-1.55-6.83-17.09-1.55-21.44,5.28-4.35,21.44-15.84,21.44-15.84Z"/><path class="cls-29" d="m118.34,210.93s-.37-6.27,1.84-6.27,9.22,6.64,9.59,10.7c.37,4.06,1.84,3.32-1.11,6.27-2.95,2.95-8.11,7.38-11.8.74-3.69-6.64,1.48-11.43,1.48-11.43Z"/><path class="cls-27" d="m85.53,220.64s-3.11,5.59-1.86,9.01c1.24,3.42,13.36,9.01,16.16,9.01s5.28-4.97,5.28-6.52-15.84-12.43-16.78-13.67c-.93-1.24-2.8,2.17-2.8,2.17Z"/><g class="cls-16"><path class="cls-29" d="m99.82,238.66c2.8,0,5.28-4.97,5.28-6.52,0-.45-1.35-1.7-3.27-3.26-2.84,3.61-4.42,6.89-5.24,8.96,1.41.51,2.58.82,3.23.82Z"/></g><path class="cls-9" d="m85.53,220.64s-3.11,5.59-1.86,9.01c1.24,3.42,13.36,9.01,16.16,9.01s5.28-4.97,5.28-6.52-15.84-12.43-16.78-13.67c-.93-1.24-2.8,2.17-2.8,2.17Z"/><path class="cls-27" d="m90.19,210.7s-6.52,5.9-6.21,9.32c.31,3.42,8.7,10.25,13.67,13.98,4.97,3.73,9.32.31,9.94-2.17.62-2.49-3.11-4.97-5.28-8.7-2.17-3.73-9.63-13.05-9.63-13.05,0,0-1.86-.93-2.49.62Z"/><g class="cls-2"><path class="cls-29" d="m104.35,225.98c-2.88,3.01-4.83,5.97-6.14,8.4,4.73,3.07,8.78-.16,9.37-2.55.45-1.79-1.37-3.59-3.23-5.85Z"/></g><path class="cls-9" d="m90.19,210.7s-6.52,5.9-6.21,9.32c.31,3.42,8.7,10.25,13.67,13.98,4.97,3.73,9.32.31,9.94-2.17.62-2.49-3.11-4.97-5.28-8.7-2.17-3.73-9.63-13.05-9.63-13.05,0,0-1.86-.93-2.49.62Z"/><path class="cls-27" d="m101.68,200.45s-7.15,3.73-10.56,7.15-.93,6.21,1.86,10.87c2.8,4.66,8.39,13.67,12.12,13.67s10.25-3.42,10.25-7.77-10.25-23.92-10.25-23.92h-3.42Z"/><g class="cls-11"><path class="cls-29" d="m101.12,229.82c1.42,1.4,2.79,2.32,3.98,2.32,3.73,0,10.25-3.42,10.25-7.77,0-1.13-.69-3.28-1.71-5.85-.96.64-2.09,1.41-3.42,2.36-4.03,2.89-6.96,6.04-9.1,8.94Z"/></g><path class="cls-9" d="m101.68,200.45s-7.15,3.73-10.56,7.15-.93,6.21,1.86,10.87c2.8,4.66,8.39,13.67,12.12,13.67s10.25-3.42,10.25-7.77-10.25-23.92-10.25-23.92h-3.42Z"/><path class="cls-27" d="m118.15,198.81c-.03-4.39-4.75-7.16-8.71-5.25-4.01,1.93-8.78,4.72-9.31,7.2-.93,4.35,10.25,25.16,11.5,25.79,1.24.62,13.36-1.86,11.5-6.83-1.86-4.97-4.97-18.02-4.97-20.82,0-.03,0-.06,0-.08Z"/><g class="cls-1"><path class="cls-29" d="m118.15,198.9s0-.06,0-.08c-.02-2.29-1.31-4.13-3.1-5.1-1.7,4.48,1.22,14.56,2.18,19.06,1.11,5.16,4.79-.37-7.01,8.11-.53.38-1.02.77-1.51,1.16,1.43,2.55,2.57,4.33,2.92,4.5,1.24.62,13.36-1.86,11.5-6.83-1.86-4.97-4.97-18.02-4.97-20.82Z"/></g><path class="cls-9" d="m118.15,198.81c-.03-4.39-4.75-7.16-8.71-5.25-4.01,1.93-8.78,4.72-9.31,7.2-.93,4.35,10.25,25.16,11.5,25.79,1.24.62,13.36-1.86,11.5-6.83-1.86-4.97-4.97-18.02-4.97-20.82,0-.03,0-.06,0-.08Z"/><path class="cls-27" d="m133.06,217.54s-9.32,1.55-12.74,4.66c-3.42,3.11-10.56,11.18-10.25,12.74.31,1.55,2.17,4.35,5.59,4.35s10.25-4.66,14.6-6.83c4.35-2.17,4.97-7.15,5.28-9.94"/><g class="cls-10"><path class="cls-29" d="m133.08,230.11c-.94-.08-2.09-.28-3.31-.74-2.5-.94-6.58-6.62-7.77-8.34-.64.36-1.22.75-1.68,1.17-3.42,3.11-10.56,11.18-10.25,12.74.31,1.55,2.17,4.35,5.59,4.35s10.25-4.66,14.6-6.83c1.2-.6,2.11-1.42,2.81-2.34Z"/></g><path class="cls-9" d="m133.06,217.54s-9.32,1.55-12.74,4.66c-3.42,3.11-10.56,11.18-10.25,12.74.31,1.55,2.17,4.35,5.59,4.35s10.25-4.66,14.6-6.83c4.35-2.17,4.97-7.15,5.28-9.94"/><polygon class="cls-25" points="163.61 233.04 168.78 238.96 182.45 221.96 177.28 219 163.61 233.04"/><path class="cls-20" d="m187.26,224.18s-7.02,6.28-5.91,10.72c1.11,4.43,4.06,7.02,4.06,7.02l8.5-14.04-6.65-3.69Z"/><polygon class="cls-25" points="184.3 250.41 179.5 243.02 193.91 227.87 194.65 236.37 184.3 250.41"/><path class="cls-19" d="m163.33,247.07c0,.81-.66,1.48-1.48,1.48s-1.48-.66-1.48-1.48.66-1.48,1.48-1.48,1.48.66,1.48,1.48Z"/><line class="cls-9" x1="177.41" y1="255.19" x2="171.75" y2="269.93"/><line class="cls-9" x1="169.48" y1="248.39" x2="163.25" y2="255.19"/><line class="cls-9" x1="162.68" y1="242.73" x2="150.78" y2="247.83"/><path class="cls-19" d="m169.23,257.03c0,.41-.33.74-.74.74s-.74-.33-.74-.74.33-.74.74-.74.74.33.74.74Z"/><path class="cls-19" d="m174.03,243.94c0,.51-.41.92-.92.92s-.92-.41-.92-.92.41-.92.92-.92.92.41.92.92Z"/><path class="cls-27" d="m135.16,197.94s5.54,18.11,7.76,20.69c2.22,2.59,4.8,4.8,5.91,5.91,1.11,1.11,1.48,10.35,2.59,11.09s2.96.74,7.02-1.48c1.03-.56,5.17,3.69,5.17,3.69,0,0,7.02-10.35,11.09-12.56s18.11,5.54,17.37,8.13c-.74,2.59-11.82,16.63-11.82,18.11s4.43,5.17,4.43,6.65,7.76,7.76,12.19,3.33,12.93-18.48,12.93-18.48l39.91-.37-14.04-16.63s-2.59-13.3-8.87-23.28c-6.28-9.98-16.26-13.67-16.26-13.67,0,0-.37-17-4.06-27.71s-9.24-19.21-18.84-23.28c-9.61-4.06-27.34,1.11-42.49,8.5-15.15,7.39-25.87,24.39-30.3,35.1s2.22,28.45,2.22,28.45l8.87-11.82v12.19l9.24-12.56Z"/><g class="cls-3"><path class="cls-29" d="m235.66,226.02s-.54-2.74-1.7-6.67l-28.23-17.05,2.61,8.06s2.69,6.99,2.69,12.91-12.91,33.36-12.91,33.36l11.67-13.62,39.91-.37-14.04-16.63Z"/><path class="cls-29" d="m154.73,218.29s-6.19-3.83-3.83-8.84,9.14-5.31,9.14-5.31c0,0,1.47-.29-.59,5.9-2.06,6.19-4.72,8.25-4.72,8.25Z"/><g class="cls-14"><path d="m154,193.69l5.54-6.09s1.99,4.48,7.37,6.63c5.38,2.15,13.99,5.38,18.83,4.3,4.84-1.08,8.07-2.69,5.38-7.53-2.69-4.84-2.15-5.38-4.84-9.15-2.69-3.77-17.76-13.45-28.52-11.84-10.76,1.61-17.76,5.38-21.52,8.07-3.77,2.69-8.61,16.68-8.61,16.68l5.03,6.57,2.5-3.4s.57,1.85,1.41,4.45l15.82-12.47,1.61,3.77Z"/><path d="m158.44,234.15c1.03-.56,5.17,3.69,5.17,3.69,0,0,.03-.04.07-.1,1.1-2.34,2.56-5.03,4.02-6.49.69-.69,1.64-1.45,2.74-2.2,1.51-1.66,3.02-3.1,4.26-3.77.89-.49,2.27-.49,3.86-.18,1.81-.56,3.65-.92,5.36-.92,5.9,0,15.03,6.78,15.03,6.78,0,0-7.07-6.78-15.33-9.73-8.25-2.95-23.08,5.6-23.08,5.6l1.81,2.84s-2.31-1.08-5.55.4c-3.24,1.47-5.37,5.55-5.37,5.55,1.11.74,2.96.74,7.02-1.48Z"/></g></g><path class="cls-9" d="m135.16,197.94s5.54,18.11,7.76,20.69c2.22,2.59,4.8,4.8,5.91,5.91,1.11,1.11,1.48,10.35,2.59,11.09s2.96.74,7.02-1.48c1.03-.56,5.17,3.69,5.17,3.69,0,0,7.02-10.35,11.09-12.56s18.11,5.54,17.37,8.13c-.74,2.59-11.82,16.63-11.82,18.11s4.43,5.17,4.43,6.65,7.76,7.76,12.19,3.33,12.93-18.48,12.93-18.48l39.91-.37-14.04-16.63s-2.59-13.3-8.87-23.28c-6.28-9.98-16.26-13.67-16.26-13.67,0,0-.37-17-4.06-27.71s-9.24-19.21-18.84-23.28c-9.61-4.06-27.34,1.11-42.49,8.5-15.15,7.39-25.87,24.39-30.3,35.1s2.22,28.45,2.22,28.45l8.87-11.82v12.19l9.24-12.56Z"/><line class="cls-9" x1="156.92" y1="218.84" x2="160.27" y2="212.64"/><path class="cls-30" d="m160.62,216.26c1.3.88,1.97,2.16,1.49,2.87-.48.71-1.92.58-3.22-.3-1.3-.88-1.16-1.09-.69-1.8.48-.71,1.11-1.65,2.41-.77Z"/><path class="cls-9" d="m159.24,232.27s1.81-.52,3.1-2.58-1.81-2.84-1.81-2.84c0,0,6.46-5.17,18.6-4.91"/><path class="cls-18" d="m151.78,216.05s-5.17-10.72,4.8-14.04"/><path class="cls-24" d="m150.68,187.22l7.02-7.76s.37,5.54,1.85,8.13,3.69,5.91,3.69,5.91l3.33-5.17s3.33,4.06,7.39,5.17c4.06,1.11,12.56.37,14.04.37s-1.11-5.54-1.11-5.54c0,0,5.17,4.8,5.17,4.8-1.58-1.47-.91-8.07-.3-9.95,1.51-4.7,4.73-4.91,9.17-4.09,9.98,1.85,4.8,23.21,4.8,23.21l2.59,3.39,9.61-5.91-5.54-1.48,4.06-1.85-5.91-7.39s-.37-17-4.06-27.71-9.24-19.21-18.84-23.28c-9.61-4.06-27.34,1.11-42.49,8.5-15.15,7.39-25.87,24.39-30.3,35.1s2.22,28.45,2.22,28.45l8.87-11.82v12.19l9.24-12.56,19.21-20.32-3.7,9.61Z"/><path class="cls-13" d="m136.46,180.04c3.46-6.15,9.04-13.7,17.28-18.68"/><path class="cls-13" d="m131.81,190.34s.59-1.91,1.89-4.82"/><path class="cls-13" d="m152.15,154.26c2.13-1.3,4.4-2.43,6.79-3.31"/><path class="cls-13" d="m129.96,178.82s5.78-11.36,16.03-20.07"/><line class="cls-13" x1="164.31" y1="159.01" x2="166" y2="156.15"/><line class="cls-13" x1="155.22" y1="174.36" x2="161.26" y2="164.16"/><path class="cls-13" d="m169.71,163.96s-2.97,11.15-1.49,16.72"/><path class="cls-13" d="m174.54,174.36s-2.6,7.8,1.49,14.12"/><path class="cls-13" d="m179.75,158.38s2.6,11.15,2.6,17.46"/><path class="cls-13" d="m191.16,159.43c2.1,3.28,4.03,6.83,4.2,8.98"/><path class="cls-13" d="m185.69,151.69s1.14,1.47,2.65,3.58"/><path class="cls-21" d="m210.54,189.07s14.04,9.98,17,18.48c2.96,8.5,3.7,22.17,3.7,22.17,0,0,24.76,5.54,23.65,1.85-1.11-3.7-5.91-5.17-9.24-17.37-3.33-12.19-9.98-22.54-15.52-29.19-5.54-6.65-10.72-7.02-10.72-7.02,0,0-8.13,7.39-8.87,11.09Z"/><path class="cls-21" d="m260.42,206.81c0,7.76.74,18.84,9.24,25.5,8.5,6.65,35.47,16.63,35.47,16.63,0,0,26.97,15.52,40.28,12.93,13.3-2.59,24.76-18.48,21.06-32.15s-20.69-22.54-33.63-33.26c-12.93-10.72-36.58-24.76-47.67-25.13-11.09-.37-21.8,8.5-21.8,8.5"/><path class="cls-9" d="m320.81,216.83s7.53-10.76,19.91-10.76"/><path class="cls-9" d="m315.96,218.98s3.77-17.22,13.45-20.45"/><path class="cls-27" d="m353.54,214.2s-14.04-3.33-25.5-.74c-11.45,2.59-36.95,35.1-45.45,42.12-8.5,7.02-28.45,21.8-28.45,21.8,0,0-12.19-6.65-18.11-11.09-5.91-4.43-12.19-2.22-14.04.74-1.85,2.96-3.33,8.87-3.33,8.87,0,0-9.24,2.59-11.45,6.28-2.22,3.7-1.11,9.24.74,10.72,1.85,1.48,4.06,3.33,4.06,3.33,0,0-4.43,8.13-2.59,9.61,1.85,1.48,5.54,3.7,5.54,3.7,0,0-2.22,5.17-.37,7.02,1.85,1.85,5.54,3.7,5.54,3.7,0,0,0,4.43,3.33,5.17,3.33.74,17.37-3.33,22.17-3.7s21.43-12.19,23.65-13.67c2.22-1.48,34.36-12.56,51.73-19.58,17.37-7.02,38.43-21.8,44.71-40.65,6.28-18.84-4.43-29.56-7.02-30.67"/><g class="cls-7"><path class="cls-29" d="m351.59,268.92c-.35-6.64-.92-12.8-1.63-15.94-1.84-8.11-18.44-24.71-23.97-26.19-5.53-1.48-18.44.74-15.49,2.21,2.95,1.48,14.38,10.33,12.54,16.97-1.84,6.64-5.53,13.28-5.53,13.28l14.02-10.7s4.43,5.16,5.9,9.22c1.48,4.06.37,16.97-6.64,21.39-7.01,4.43-41.31,19.18-56.8,23.6-15.49,4.43-23.6,11.8-32.82,14.02-9.22,2.21-14.02,4.79-18.44,2.58-4.43-2.21-3.32-4.06-2.95-8.48.37-4.43-2.21-2.95-2.95-5.9-.74-2.95,2.58-6.64,4.06-9.96,1.48-3.32-4.43-4.06-5.9-9.59s1.84-8.85,1.84-8.85l-.09-.05c-2.83.98-7.94,3.04-9.51,5.66-2.22,3.7-1.11,9.24.74,10.72,1.85,1.48,4.06,3.33,4.06,3.33,0,0-4.43,8.13-2.59,9.61,1.85,1.48,5.54,3.7,5.54,3.7,0,0-2.22,5.17-.37,7.02s5.54,3.7,5.54,3.7c0,0,0,4.43,3.33,5.17,3.33.74,17.37-3.33,22.17-3.7s21.43-12.19,23.65-13.67c2.22-1.48,34.36-12.56,51.73-19.58,10.16-4.11,21.58-10.87,30.57-19.55Z"/></g><path class="cls-9" d="m353.54,214.2s-14.04-3.33-25.5-.74c-11.45,2.59-36.95,35.1-45.45,42.12-8.5,7.02-28.45,21.8-28.45,21.8,0,0-12.19-6.65-18.11-11.09-5.91-4.43-12.19-2.22-14.04.74-1.85,2.96-3.33,8.87-3.33,8.87,0,0-9.24,2.59-11.45,6.28-2.22,3.7-1.11,9.24.74,10.72,1.85,1.48,4.06,3.33,4.06,3.33,0,0-4.43,8.13-2.59,9.61,1.85,1.48,5.54,3.7,5.54,3.7,0,0-2.22,5.17-.37,7.02,1.85,1.85,5.54,3.7,5.54,3.7,0,0,0,4.43,3.33,5.17,3.33.74,17.37-3.33,22.17-3.7s21.43-12.19,23.65-13.67c2.22-1.48,34.36-12.56,51.73-19.58,17.37-7.02,38.43-21.8,44.71-40.65,6.28-18.84-4.43-29.56-7.02-30.67"/><path class="cls-9" d="m218.67,275.91s7.23-4.45,12.44-5.49"/><path class="cls-9" d="m333.21,245.98s-6.49,9.59-23.71,17.66"/><line class="cls-9" x1="306.28" y1="265.25" x2="298.75" y2="269.56"/><path class="cls-21" d="m353.54,214.2s-14.04-3.33-25.5-.74c-3.27.74-7.69,3.93-12.53,8.26,7.31,3.25,16.4,8.56,23.99,16.87,8.54,9.36,12.16,20.17,14.17,28.24,5.41-5.66,9.74-12.06,12.06-19.01,5.12-15.36-1.05-25.32-4.91-29.08"/><path class="cls-21" d="m307.35,229.35s16.63,4.06,25.87,16.63c9.24,12.56,7.39,31.78,7.39,31.78,0,0,3.33,2.96,5.17,1.11,1.85-1.85,12.93-9.98,15.15-15.89,2.22-5.91,2.59-13.3-8.13-27.34-10.72-14.04-26.23-22.54-30.67-22.91-4.43-.37-13.3,9.98-16.63,12.19-3.33,2.22,1.85,4.43,1.85,4.43Z"/><path class="cls-24" d="m118.67,249.82s-11.19-2.58-21.8,5.74c-10.61,8.32-9.47,22.09-5.74,28.97,3.73,6.88,2.01,11.19-5.16,20.37-7.17,9.18-10.61,23.52,3.73,31.26,14.34,7.74,31.84-6.02,40.73-14.05,8.89-8.03,13.19-18.07,13.19-23.81s-8.32-24.95-7.74-28.11c.57-3.16,8.32-4.02,8.6-8.89.29-4.88-10.9-20.37-25.82-11.47Z"/><path class="cls-13" d="m112.49,291.78s-6.69,4.83-9.29,12.63,2.97,13,5.57,13"/><path class="cls-13" d="m109.52,255.36s-14.12,10.03-14.12,20.06,7.06,15.61,3.34,22.29c-3.72,6.69-15.98,10.4-14.12,21.55,1.86,11.15,12.75,11.61,15.61,11.52"/><path class="cls-13" d="m113.61,256.85s-5.95,4.46-4.46,10.78,4.46,8.17,3.34,11.89"/><path class="cls-27" d="m115.11,358.35s-3.65,19.04-5.22,25.3c-1.56,6.26-12.64,33.71-12.64,33.71,0,0-.87,1.19-2.35,1.3h-13.56s-2.35-1.3-1.56-2.61c.78-1.3,2.09-6.52,3.91-6.52s10.69,1.3,12.26.26c1.56-1.04,1.17-22.5,2.21-26.41,1.04-3.91,2.35-11.47,2.61-12.52.26-1.04-.78-17.47-.78-17.47l15.13,4.95Z"/><g class="cls-17"><g class="cls-14"><path d="m100.76,370.87c-.26,1.04-1.56,8.61-2.61,12.52-.81,3.05-.75,16.76-1.43,23.15,1.04-4.45,2.85-12.78,3.85-20.57,1.46-11.35,3.66-23.06,3.66-23.06l9.7,1.43c.68-3.48,1.16-5.98,1.16-5.98l-15.13-4.95s1.04,16.43.78,17.47Z"/><path d="m84.47,414.52s.37-2.56-.79-4.98c-1.83,0-3.13,5.22-3.91,6.52-.78,1.3,1.56,2.61,1.56,2.61h1.8c-1.85-2.43,1.33-4.14,1.33-4.14Z"/></g></g><path class="cls-9" d="m115.11,358.35s-3.65,19.04-5.22,25.3c-1.56,6.26-12.64,33.71-12.64,33.71,0,0-.87,1.19-2.35,1.3h-13.56s-2.35-1.3-1.56-2.61c.78-1.3,2.09-6.52,3.91-6.52s10.69,1.3,12.26.26c1.56-1.04,1.17-22.5,2.21-26.41,1.04-3.91,2.35-11.47,2.61-12.52.26-1.04-.78-17.47-.78-17.47l15.13,4.95Z"/><path class="cls-9" d="m91.25,414.23s-7.67,1.48-8.1,1.57c-1.08.22-1.94,2.49,2.23,2.75"/><path class="cls-22" d="m193.82,419.16h40.31s4.38-.88,3.8-4.97c-.58-4.09-10.22-9.05-17.23-9.05s-14.6,3.8-16.36,3.8-10.81,4.38-10.51,10.22Z"/><path class="cls-23" d="m208.1,406.91s6.22,2.07,4.61,7.15c-1.61,5.07-9.91,5.53-14.75,5.07-4.84-.46-10.14-3.92-6.68-8.53s16.83-3.69,16.83-3.69Z"/><path class="cls-27" d="m123.4,308.42s-3.67,4.8-9.59,7.62c-5.92,2.82-9.03,9.59-10.72,14.67-1.69,5.08-5.64,24.54-5.64,24.54l18.34,7.34,3.1-11.28,16.93,13.82s-5.36,19.18-.85,33.01,12.87,19.24,19.36,20.94c0,0,30.62.97,43.6-.73,12.98-1.69,11.24-13.44,11.24-13.44,0,0,9.31,8.75,19.75,12.41,10.44,3.67,87.27,1.57,87.27,1.57,0,0-.66-6.09-4.05-8.34-3.39-2.26-9.03-2.82-12.13-1.97-3.1.85-12.13,3.39-12.13,3.39,0,0-9.31-7.62-22.01-13.82-12.7-6.21-26.24-3.95-26.24-3.95,0,0-16.64-19.75-32.73-28.78s-18.62-8.75-18.62-8.75c0,0-2.82-5.08-6.77-8.46-3.95-3.39-7.34-5.64-7.34-5.64,0,0-4.51-23.98-11.57-33.85l19.11-3.58s-1.19-7.94-.33-9.28c2.54-3.95,7.46-13.94-1.28-12.25-8.75,1.69-14.11,5.92-19.75,6.77-5.64.85-10.16,2.26-15.8,5.92-5.64,3.67-4.8,7.05-11,9.31-6.21,2.26-10.16,2.82-10.16,2.82Z"/><g class="cls-4"><path class="cls-29" d="m208.1,406.91c-1.2,6.95-9.6,8.8-21.3,6.1-11.7-2.7-24.28-6.34-24.28-6.34l-8.55,12.29c.12.03.25.08.37.11,0,0,30.62.97,43.6-.73,12.92-1.69,11.25-13.34,11.24-13.44-.51.36-.89,1-1.07,2.01Z"/><path class="cls-29" d="m209.24,406.25c0-.83-.08-1.35-.08-1.35,0,0,9.31,8.75,19.75,12.41,10.44,3.67,87.27,1.57,87.27,1.57,0,0-.21-1.87-.96-3.92-13.78-3.56-23.74-.6-29.42-.6s-40.5-4.05-50.4-7.2c-9.9-3.15-31.05-19.35-31.05-19.35-1.56-2.12-15.75-3.15-15.75-3.15,11.38,6.4,18.26,17.3,20.65,21.59Z"/></g><path class="cls-9" d="m123.4,308.42s-3.67,4.8-9.59,7.62c-5.92,2.82-9.03,9.59-10.72,14.67-1.69,5.08-5.64,24.54-5.64,24.54l18.34,7.34,3.1-11.28,16.93,13.82s-5.36,19.18-.85,33.01,12.87,19.24,19.36,20.94c0,0,30.62.97,43.6-.73,12.98-1.69,11.24-13.44,11.24-13.44,0,0,9.31,8.75,19.75,12.41,10.44,3.67,87.27,1.57,87.27,1.57,0,0-.66-6.09-4.05-8.34-3.39-2.26-9.03-2.82-12.13-1.97-3.1.85-12.13,3.39-12.13,3.39,0,0-9.31-7.62-22.01-13.82-12.7-6.21-26.24-3.95-26.24-3.95,0,0-16.64-19.75-32.73-28.78s-18.62-8.75-18.62-8.75c0,0-2.82-5.08-6.77-8.46-3.95-3.39-7.34-5.64-7.34-5.64,0,0-4.51-23.98-11.57-33.85l19.11-3.58s-1.19-7.94-.33-9.28c2.54-3.95,7.46-13.94-1.28-12.25-8.75,1.69-14.11,5.92-19.75,6.77-5.64.85-10.16,2.26-15.8,5.92-5.64,3.67-4.8,7.05-11,9.31-6.21,2.26-10.16,2.82-10.16,2.82Z"/><path class="cls-26" d="m206.91,365.4c-16.08-9.03-18.62-8.75-18.62-8.75,0,0-2.82-5.08-6.77-8.46-3.95-3.39-7.34-5.64-7.34-5.64,0,0-4.51-23.98-11.57-33.85l19.11-3.58s-1.19-7.94-.33-9.28c2.54-3.95,7.46-13.94-1.28-12.25-8.75,1.69-14.11,5.92-19.75,6.77-5.64.85-10.16,2.26-15.8,5.92-5.64,3.67-4.8,7.05-11,9.31-6.21,2.26-10.16,2.82-10.16,2.82,0,0-3.67,4.8-9.59,7.62-5.92,2.82-9.03,9.59-10.72,14.67-1.69,5.08-5.64,24.54-5.64,24.54l18.34,7.33,3.1-11.28,16.93,13.82s-5.36,19.18-.85,33.01c4.51,13.82,12.87,19.24,19.36,20.94,0,0,.67.02,1.84.05,1.01-3.93,5.25-15.99,20.59-24.21,18.55-9.94,21.87-4.97,29.16-4.97,6.01,0,12.7-5.39,22.65-7.48-6.08-5.91-13.93-12.72-21.65-17.05Z"/><g class="cls-8"><path class="cls-30" d="m113.81,316.03c-5.92,2.82-9.03,9.59-10.72,14.67-1.69,5.08-5.64,24.54-5.64,24.54l18.34,7.33,3.1-11.28,16.93,13.82s-5.36,19.18-.85,33.01c4.51,13.82,12.87,19.24,19.36,20.94,0,0,.67.02,1.84.05.58-2.24,2.21-7.13,6.35-12.44-10.6-6.3-12.99-8.65-17.95-16.5-5.57-8.83,1.39-19.51,1.39-24.15s-3.72-3.72-11.61-10.22-14.86-20.44-14.86-20.44l-4.38,22.98-14.2-6.72s.46-6.97,2.32-15.79c1.86-8.83,10.58-19.8,10.58-19.8Z"/><path class="cls-30" d="m166.86,333.98s-15.33,14.86-16.26,17.65c-.93,2.79,15.33-3.72,16.26-17.65Z"/><polygon class="cls-30" points="162.61 308.7 150.79 304.11 181.39 295.84 181.72 305.12 162.61 308.7"/><path class="cls-30" d="m158.96,379.5s10.22.93,17.19-4.18c6.97-5.11,6.97-4.64,6.97.46s-1.86,8.82-1.86,8.82c0,0-10.22-3.25-22.29-5.11Z"/></g><path class="cls-9" d="m206.91,365.4c-16.08-9.03-18.62-8.75-18.62-8.75,0,0-2.82-5.08-6.77-8.46-3.95-3.39-7.34-5.64-7.34-5.64,0,0-4.51-23.98-11.57-33.85l19.11-3.58s-1.19-7.94-.33-9.28c2.54-3.95,7.46-13.94-1.28-12.25-8.75,1.69-14.11,5.92-19.75,6.77-5.64.85-10.16,2.26-15.8,5.92-5.64,3.67-4.8,7.05-11,9.31-6.21,2.26-10.16,2.82-10.16,2.82,0,0-3.67,4.8-9.59,7.62-5.92,2.82-9.03,9.59-10.72,14.67-1.69,5.08-5.64,24.54-5.64,24.54l18.34,7.33,3.1-11.28,16.93,13.82s-5.36,19.18-.85,33.01c4.51,13.82,12.87,19.24,19.36,20.94,0,0,.67.02,1.84.05,1.01-3.93,5.25-15.99,20.59-24.21,18.55-9.94,21.87-4.97,29.16-4.97,6.01,0,12.7-5.39,22.65-7.48-6.08-5.91-13.93-12.72-21.65-17.05Z"/><path class="cls-27" d="m116.07,290.64s5.08,8.18,5.92,13.82c.85,5.64-.56,5.08-.56,10.72s5.92,14.95,17.77,13.82c11.85-1.13,12.7-12.13,9.03-17.77-3.67-5.64-7.34-7.62-9.31-11.28-1.97-3.67-3.39-5.92-3.39-5.92l-19.47-3.39Z"/><g class="cls-12"><path class="cls-29" d="m136.3,295.3l-8.9-2.69-11.33-1.97s5.08,8.18,5.92,13.82c.14.94.22,1.7.25,2.35l15-9.89c-.37-.64-.68-1.19-.94-1.63Z"/></g><path class="cls-9" d="m116.07,290.64s5.08,8.18,5.92,13.82c.85,5.64-.56,5.08-.56,10.72s5.92,14.95,17.77,13.82c11.85-1.13,12.7-12.13,9.03-17.77-3.67-5.64-7.34-7.62-9.31-11.28-1.97-3.67-3.39-5.92-3.39-5.92l-19.47-3.39Z"/><path class="cls-25" d="m112.07,282.23s-6.02-4.3-6.6-.57c-.57,3.73,3.73,5.16,3.73,5.16l2.87-4.59Z"/><path class="cls-27" d="m118.67,260.72s2.58,11.19-.29,18.64c-2.87,7.46-5.16,10.33-4.59,11.19.57.86,6.31,3.44,10.04,4.88,3.73,1.43,10.9,4.3,14.92,2.29,4.02-2.01,7.17-12.33,6.6-18.07-.57-5.74-6.02-12.05-7.74-16.64-1.72-4.59-2.58-4.3-7.74-5.45-5.16-1.15-11.19,3.16-11.19,3.16Z"/><g class="cls-5"><path class="cls-29" d="m137.24,296.93c-5.45.47-14.35-7.67-14.35-16.67,0-4.85-1.7-9.42-3.26-12.62.25,3.66.14,8.13-1.24,11.73-2.87,7.46-5.16,10.33-4.59,11.19.57.86,6.31,3.44,10.04,4.88,3.73,1.43,10.9,4.3,14.92,2.29.59-.3,1.16-.79,1.71-1.41-1.12.31-2.21.53-3.22.62Z"/></g><path class="cls-9" d="m118.67,260.72s2.58,11.19-.29,18.64c-2.87,7.46-5.16,10.33-4.59,11.19.57.86,6.31,3.44,10.04,4.88,3.73,1.43,10.9,4.3,14.92,2.29,4.02-2.01,7.17-12.33,6.6-18.07-.57-5.74-6.02-12.05-7.74-16.64-1.72-4.59-2.58-4.3-7.74-5.45-5.16-1.15-11.19,3.16-11.19,3.16Z"/><path class="cls-9" d="m132.44,267.89s-.57,3.73,1.15,4.59,2.87-.57,3.44,2.58c.57,3.16-4.02,4.02-4.02,4.02"/><path class="cls-30" d="m127.53,272.2c.32,1.2.03,2.32-.64,2.5-.68.18-1.48-.64-1.8-1.84-.32-1.2-.03-2.32.64-2.5.68-.18,1.48.64,1.8,1.84Z"/><path class="cls-30" d="m137.79,285.06c.32,1.2.03,2.32-.64,2.5-.68.18-1.48-.64-1.8-1.84-.32-1.2-.03-2.32.64-2.5.68-.18,1.48.64,1.8,1.84Z"/><path class="cls-30" d="m136.56,268.52c.32,1.2.03,2.32-.64,2.5-.68.18-1.48-.64-1.8-1.84-.32-1.2-.03-2.32.64-2.5.68-.18,1.48.64,1.8,1.84Z"/><path class="cls-9" d="m122.06,270.33s1.53-4.13,4.75-4.13"/><path class="cls-9" d="m132.62,264.82s1.53-1.99,4.59.15"/><path class="cls-25" d="m125.8,311.41s-4.43,1.83-7.56,1.83-1.04,2.61,2.61,2.87,7.82-3.39,7.82-3.39c0,0,.52-.26-2.87-1.3Z"/><path class="cls-25" d="m133.88,308.02s-8.75,2.07-11.36,2.85c-2.61.78-1.42,9.66-1.42,9.66,0,0,1.3,1.56,2.35.26,1.04-1.3,2.35-7.56,2.35-7.56,0,0,7.04,2.61,9.65,2.61s6.78-5.48,18.26-8.08c5.31-1.21,19.04-2.87,32.34-14.86,5.65-5.09,3.91-13.04-2.87-13.82-6.78-.78-13.82,3.13-18.26,6-4.43,2.87-17.47,16.43-20.6,18.26s-2.87,2.09-4.95,2.61c-2.09.52-5.48,2.09-5.48,2.09Z"/><path class="cls-25" d="m129.45,309.58s-4.43,1.04-4.69,2.35c-.26,1.3-2.61,10.95-1.04,10.95s3.13-1.3,3.39-3.13c.26-1.83,1.56-7.04,1.56-7.04"/><path class="cls-25" d="m132.84,309.58s-4.43,1.04-4.69,2.35c-.26,1.3-2.61,10.95-1.04,10.95s3.13-1.3,3.39-3.13,1.56-7.04,1.56-7.04"/><path class="cls-25" d="m135.71,309.32s-3.14.74-3.33,1.66c-.18.92-1.85,7.76-.74,7.76s2.22-.92,2.4-2.22c.18-1.29,1.11-4.99,1.11-4.99"/><path class="cls-9" d="m153.89,380s16.57-2.98,33.79,6.96"/><path class="cls-9" d="m209.16,404.9s-3.26-7.34-15.51-16.29"/><path class="cls-20" d="m293.38,417.44c.21.64.62,1.27,1.14,1.88,12.47-.18,21.67-.43,21.67-.43,0,0-.66-6.09-4.05-8.34-3.39-2.26-9.03-2.82-12.13-1.97-3.1.85-12.13,3.39-12.13,3.39l7.49.51s-3.31.99-1.99,4.97Z"/></svg>