<?xml version="1.0" encoding="utf-8"?>
<!-- Generator: Adobe Illustrator 27.7.0, SVG Export Plug-In . SVG Version: 6.00 Build 0)  -->
<svg version="1.1" xmlns="http://www.w3.org/2000/svg" xmlns:xlink="http://www.w3.org/1999/xlink" x="0px" y="0px"
	 viewBox="0 0 500 500" style="enable-background:new 0 0 500 500;" xml:space="preserve">
<style type="text/css">
	.st0{fill:#C6FF00;}
	.st1{opacity:0.7;fill:#FFFFFF;}
	.st2{fill:none;stroke:#263238;stroke-miterlimit:10;}
	.st3{opacity:0.5;fill:#FFFFFF;}
	.st4{fill:none;stroke:#263238;stroke-linecap:round;stroke-linejoin:round;stroke-miterlimit:10;}
	.st5{fill:#263238;stroke:#263238;stroke-linecap:round;stroke-linejoin:round;stroke-miterlimit:10;}
	.st6{fill:none;stroke:#C6FF00;stroke-linecap:round;stroke-linejoin:round;stroke-miterlimit:10;}
	.st7{fill:#263238;}
	.st8{fill:none;stroke:#C6FF00;stroke-miterlimit:10;}
	.st9{fill:#FFFFFF;stroke:#263238;stroke-linecap:round;stroke-linejoin:round;stroke-miterlimit:10;}
	.st10{fill:#5E5E5E;stroke:#263238;stroke-linecap:round;stroke-linejoin:round;stroke-miterlimit:10;}
	.st11{fill:#3B3B3B;stroke:#263238;stroke-linecap:round;stroke-linejoin:round;stroke-miterlimit:10;}
	.st12{fill:#C6FF00;stroke:#263238;stroke-linecap:round;stroke-linejoin:round;stroke-miterlimit:10;}
	.st13{opacity:0.3;}
	.st14{opacity:0.3;clip-path:url(#XMLID_00000024715928137151527080000004801142822633559716_);}
	.st15{fill:none;stroke:#6E6E6E;stroke-linecap:round;stroke-linejoin:round;stroke-miterlimit:10;}
	.st16{opacity:0.3;clip-path:url(#XMLID_00000055707439020990598320000012340757118056615854_);}
	.st17{opacity:0.3;clip-path:url(#XMLID_00000075129753182546551860000007714287626341182091_);}
	.st18{opacity:0.3;clip-path:url(#XMLID_00000022522936961607719630000007136205289625519260_);}
	.st19{fill:#525252;stroke:#263238;stroke-linecap:round;stroke-linejoin:round;stroke-miterlimit:10;}
	.st20{opacity:0.3;clip-path:url(#XMLID_00000064327098188389937360000017432124075185408400_);}
</style>
<g id="Background_Simple">
	<g>
		<path class="st0" d="M374.3,115.9c0,0-40.7-35.8-95.9-22.6c-55.1,13.2-79.7,59.4-112.2,90.6c-17,16.3-41.5,21.7-61.4,34
			c-63.8,39.4-58,133.4-11.3,170.5c40.5,32.1,92.3,37.2,160.7,17.1c68.4-20.1,117.3-31.9,161.6-95
			C460.1,247.4,424.3,164.3,374.3,115.9z"/>
		<path class="st1" d="M374.3,115.9c0,0-40.7-35.8-95.9-22.6c-55.1,13.2-79.7,59.4-112.2,90.6c-17,16.3-41.5,21.7-61.4,34
			c-63.8,39.4-58,133.4-11.3,170.5c40.5,32.1,92.3,37.2,160.7,17.1c68.4-20.1,117.3-31.9,161.6-95
			C460.1,247.4,424.3,164.3,374.3,115.9z"/>
	</g>
</g>
<g id="Floor">
	<line class="st2" x1="49" y1="431" x2="448" y2="431"/>
	<g>
		<ellipse class="st0" cx="245.6" cy="453.7" rx="172.8" ry="16.2"/>
		<ellipse class="st3" cx="245.6" cy="453.7" rx="172.8" ry="16.2"/>
	</g>
</g>
<g id="Plants">
	<g>
		<g>
			<path class="st0" d="M352.8,427.6c0,0-32.9-50.1-27.9-61.6c4.9-11.5,22.2,8.2,22.2,8.2s-25.5-67.4-8.2-82.2
				c17.3-14.8,23,60.8,23,60.8s15.6-43.6,27.9-27.1c12.3,16.4-18.9,51-18.9,51s21.4,0.8,15.6,14.8c-5.8,14-21.4,28.8-21.4,28.8
				L352.8,427.6z"/>
			<path class="st4" d="M343.8,416c0,0-19.7-27.9-9.9-33.7c9.9-5.8,14.8,11.5,14.8,11.5s0.8-75.6,16.4-69.9
				c15.6,5.8,9.9,51.8,9.9,51.8s19.7-13.2,18.9,5.8c-0.8,18.9-27.1,35.3-27.1,35.3"/>
			<line class="st4" x1="361.8" y1="417.7" x2="344.6" y2="398.8"/>
			<line class="st4" x1="362.7" y1="426.7" x2="361.8" y2="379.9"/>
			<line class="st4" x1="363.5" y1="411.1" x2="379.1" y2="390.6"/>
		</g>
		<polygon class="st5" points="377.5,412.8 333.9,412.8 338.2,451.4 373.1,451.4 		"/>
	</g>
</g>
<g id="Icons">
	<path class="st6" d="M239.6,168.3c0,0,0.5-11.9-8.6-15.6c-9.2-3.7-22.1,1.8-25.2,8.7c-3.1,6.9-2.7,12.1-13.3,28.4
		c-10.5,16.4-19,31.1-53.4,35.4c-34.4,4.2-70.5-20.3-64.5-56.3c6-36,36.1-48.8,58.7-33.6c22.7,15.2,28.9,28.8,50,23.4
		c21-5.4,14.6-67-9.3-88.8c-23.9-21.8-46.7,8.2-45.8,38.4c0.9,30.3,18.7,58.5,36.9,62.9c18.1,4.5,38-14.9,40.2-33.6
		c2.2-18.7,14.1-35.9,32.4-29.2c18.3,6.7,23.5,34.4,44.2,43.1c20.7,8.7,56.5-14.9,64.2-48.1s-13-70-47.7-69.5
		c-34.7,0.6-25.8,47.2-37.7,46.7c-11.9-0.5,2.6-22.4-20.4-32.4s-45.4-3.8-51.8,18.2c-6.4,22,9.3,60.7,30.4,64.9
		c21.1,4.2,33.6,4,47.8,24.3c14.2,20.3,33.6,22.5,50.9,15.9c17.2-6.6,13.5-35.1,34.1-54.5c20.6-19.4,49.6-0.3,49.2,31.6
		c-0.4,31.9-17.6,29.5-40.5,29.9c-22.9,0.4-40.1,16.5-40,36.5c0.1,20,30.7,23.4,51.3,21.8c20.6-1.6,17.7-10.3,19.4-35.6
		s35.4-29.5,31.8-0.3c-3.6,29.2-22.5,24-29.9,42.4c-7.4,18.4,12.2,32.3-12.8,43.2c-25,10.9-23.8-10.7-23.7-28.4
		c0.1-17.8-5.6-14.4-31.1-19s-36.2-27.4-17.1-46.7c19.2-19.3,5.2-18.2-7.4-9.8c-12.6,8.4-44.7-31.9-55.6-37.7
		c-10.8-5.8-2.8,1.7-1.3,11.9C245.4,167.1,239.6,168.3,239.6,168.3z"/>
	<g>
		
			<ellipse transform="matrix(0.4724 -0.8814 0.8814 0.4724 -97.5086 201.6905)" class="st4" cx="119.7" cy="182.3" rx="27.4" ry="27.4"/>
		
			<ellipse transform="matrix(0.1479 -0.989 0.989 0.1479 -78.2862 273.7079)" class="st4" cx="119.7" cy="182.3" rx="22.3" ry="22.3"/>
		<g>
			<path class="st7" d="M118.3,180.5l-9.9-6.7l-0.7,1.1l9.9,6.7C117.7,181.2,117.9,180.8,118.3,180.5z"/>
			<path class="st7" d="M118.1,183.9l-9.2,16.1l1.1,0.6l9.2-16.1C118.8,184.4,118.4,184.2,118.1,183.9z"/>
		</g>
		<path class="st4" d="M122,182.1c-0.1-1.3-1.2-2.2-2.5-2.1s-2.2,1.2-2.1,2.5c0.1,1.3,1.2,2.2,2.5,2.1
			C121.1,184.5,122.1,183.4,122,182.1z"/>
	</g>
	<g>
		<path class="st4" d="M181.3,106.6l-22.5,1.8c-0.6,0-1.1-0.4-1.2-1l-0.6-7.4c0-0.6,0.4-1.1,1-1.2l22.5-1.8c0.6,0,1.1,0.4,1.2,1
			l0.6,7.4C182.3,106,181.9,106.5,181.3,106.6z"/>
		<path class="st4" d="M159.3,108.3l-3.5,36.3c-0.1,1.4,0.3,2.8,1.1,3.8l0,0c1.1,1.5,2.9,2.3,4.8,2.1l23.4-1.9
			c2-0.2,3.7-1.4,4.5-3.2l0.4-0.9c0.6-1.2,0.6-2.7,0.2-4l-9.4-34"/>
		<path class="st4" d="M159.4,98.1c0,0-0.7-0.6,0.7-2.5c1.4-2,5-0.1,5.9-3.3c1-3.2-1.8-4.1-2.1-8.8c-0.2-4.6,5.4-6,7.8-3.3
			c3.4,3.8,2.2,8.9,2.2,8.9s-1.5,4.2,1.9,3.9c1-0.1,4.9,1.2,4.2,4"/>
		<path class="st4" d="M170.4,110.6l-8.7,0.7l-2.3,29.8c-0.1,1.4,0.4,2.9,1.4,3.9l0,0c1,1.1,2.5,1.7,4,1.5l4-0.3"/>
		<path class="st4" d="M184,144.5l-3.2,0.3c-1.1,0.1-2.1-0.7-2.2-1.8l-3.7-32.7l4.9-0.4"/>
	</g>
	<g>
		<path class="st4" d="M245.6,103.1l-45,3.6c-1,0.1-1.9-0.7-1.9-1.7l-2.1-26.5c-0.1-1,0.7-1.9,1.7-1.9l45-3.6c1-0.1,1.9,0.7,1.9,1.7
			l2.1,26.5C247.4,102.2,246.6,103.1,245.6,103.1z"/>
		
			<rect x="197.7" y="87.3" transform="matrix(0.9968 -7.979528e-02 7.979528e-02 0.9968 -6.6678 18.0187)" class="st4" width="48.8" height="10.2"/>
		<ellipse transform="matrix(0.9503 -0.3114 0.3114 0.9503 -13.1711 75.5237)" class="st4" cx="229.9" cy="79" rx="1.4" ry="1.4"/>
		<path class="st4" d="M236.7,78.5c0.1,0.8-0.5,1.4-1.3,1.5c-0.8,0.1-1.4-0.5-1.5-1.3s0.5-1.4,1.3-1.5S236.7,77.7,236.7,78.5z"/>
		<path class="st4" d="M242.1,78c0.1,0.8-0.5,1.4-1.3,1.5c-0.8,0.1-1.4-0.5-1.5-1.3c-0.1-0.8,0.5-1.4,1.3-1.5
			C241.4,76.7,242.1,77.3,242.1,78z"/>
	</g>
	<g>
		<path class="st4" d="M274.8,71.6c0,0-1.1,13.3,6.4,22.6c7.5,9.4,21.3,16.5,17.7,29.6l36.4-25.7c0,0,0.3-9.6-6.1-14.1
			c-6.4-4.5-12.3-7.2-14.4-15.9c-2.1-8.7-3.5-16.5-3.5-16.5L274.8,71.6z"/>
		<path class="st4" d="M276.3,85.8l-17.2,10.5c0,0,4.4,7.8,9.2,13.7c4.8,6,16.5,9.8,19.1,17c2.6,7.1,0.9,14.1,0.9,14.1l33.6-23.5
			c0,0,1.4-5.2-2-9"/>
		<line class="st4" x1="294.7" y1="99.6" x2="318.7" y2="83.7"/>
		<line class="st4" x1="297.1" y1="104.2" x2="323.6" y2="87.6"/>
		<line class="st4" x1="301" y1="109" x2="327.5" y2="91.1"/>
		<line class="st4" x1="281.6" y1="116.8" x2="293.4" y2="109.1"/>
		<line class="st4" x1="285.7" y1="120.6" x2="296" y2="113.7"/>
		<g>
			<path class="st7" d="M290.7,79.4c0.4,1,0.7,2,0.4,3.1c1.2,0.4,1.7,1.4,2.3,2.5c0,0.1,0.1,0.2,0.2,0.3c0.4,0.8,1,1.8,1,2.7
				c0,0.9-0.4,1.1-1,1.6c-0.6,0.5-1.5,0.8-2.1,1.2c-2-4.3-4-8.6-5.9-12.9c0.7-0.3,1.3-0.8,2-1c0.7-0.2,1-0.4,1.7,0.1
				c0.6,0.5,1,1.4,1.3,2.1C290.6,79,290.7,79.3,290.7,79.4z M289.2,82.6c0.2-0.1,0.3-0.1,0.5-0.3c0.2-0.2,0.3-0.2,0.3-0.6
				c-0.1-0.4-0.3-1-0.5-1.5c-0.1-0.1-0.2-0.6-0.3-0.8c-0.1-0.2-0.3-0.8-0.5-0.9c-0.2-0.2-0.4-0.1-0.6-0.1c-0.2,0.1-0.3,0.2-0.5,0.2
				C288.2,79.9,288.7,81.2,289.2,82.6z M292.2,88.3c0.2-0.1,0.3-0.1,0.5-0.3c0.2-0.2,0.4-0.3,0.3-0.7c-0.1-0.4-0.4-1-0.6-1.3
				c-0.2-0.4-0.3-0.6-0.5-0.9c-0.2-0.4-0.5-0.9-0.8-1.2c-0.3-0.3-0.4-0.2-0.7-0.2c-0.3,0.1-0.4,0.2-0.6,0.3
				C290.6,85.5,291.4,87,292.2,88.3z"/>
			<path class="st7" d="M296.6,88c-2.4-4.2-4.3-8.2-6-12.7c0.4-0.2,0.9-0.4,1.3-0.7c1.7,4.6,3.5,8.5,6,12.7
				C297.4,87.6,297,87.8,296.6,88z"/>
			<path class="st7" d="M299.2,86.6c-2.8-4.3-4.3-7.9-6-12.8c0.5-0.3,0.9-0.5,1.4-0.8c1.5,4.2,2.4,7.6,5.1,11.3
				c0.6-0.4,1.3-0.7,1.9-1.1c0.3,0.5,0.6,1,1,1.5C301.4,85.4,300.3,86,299.2,86.6z"/>
			<path class="st7" d="M303.3,84.2c-2.6-4.2-4.3-8.2-6-12.8c0.5-0.3,1-0.6,1.5-1c1.6,3.9,3,7.6,5.2,11.2c0.7-0.4,1.3-0.9,2-1.3
				c0.3,0.5,0.6,1.1,0.9,1.6C305.7,82.7,304.5,83.4,303.3,84.2z"/>
			<path class="st7" d="M305.5,78c-0.1-0.2-0.4-0.8-0.5-1.1c0.5-0.3,1-0.7,1.5-1c0.2,0.4,0.4,0.8,0.6,1.2c0.2,0.4,0.6,1,0.9,1.3
				c0.3,0.3,0.5,0.3,0.8,0.1c0.3-0.2,0.4-0.3,0.3-0.7c-0.1-0.4-0.3-0.8-0.5-1.2c-0.2-0.4-0.5-0.9-0.9-1.2c-0.4-0.3-0.8-0.6-1.3-0.8
				c-0.4-0.2-0.8-0.3-1.2-0.5c-0.5-0.2-1-0.5-1.4-0.9c-0.4-0.4-0.8-1-1-1.5c-0.3-0.9-0.7-1.8-0.6-2.7c0.1-0.9,0.5-1.4,1.2-1.8
				c0.7-0.4,1.3-0.6,2-0.1c0.7,0.5,1.2,1.5,1.6,2.4c0.1,0.1,0.4,0.6,0.3,0.8c-0.3,0.3-0.9,0.5-1.3,0.8c-0.1-0.3-0.2-0.6-0.4-0.9
				c-0.2-0.4-0.4-1-0.7-1.3c-0.3-0.3-0.4-0.3-0.7-0.1s-0.4,0.3-0.4,0.6c0,0.3,0.1,0.7,0.3,1c0.1,0.3,0.3,0.6,0.6,0.9
				c0.3,0.2,0.6,0.4,1,0.6c0.4,0.2,0.9,0.5,1.3,0.6c0.7,0.4,1.2,0.7,1.7,1.2c0.5,0.5,0.9,1.1,1.2,1.7c0.5,0.9,0.9,1.9,0.9,2.8
				c0,0.9-0.4,1.3-1.1,1.8c-0.7,0.5-1.3,0.6-2.1,0.1C306.7,79.9,306.1,79,305.5,78z"/>
		</g>
		<g>
			<path class="st7" d="M275.9,101.3c0.5,0.9,1,1.7,0.8,2.7c1.3,0.3,2,1.2,2.8,2.1c0,0,0.2,0.2,0.2,0.2c0.6,0.7,1.3,1.6,1.4,2.4
				c0.1,0.8-0.3,1.1-0.9,1.5s-1.5,0.8-2.2,1.3c-2.7-3.7-5.4-7.4-7.9-11.3c0.7-0.3,1.4-0.8,2.1-1.1c0.7-0.3,1.1-0.4,1.8-0.1
				c0.7,0.4,1.2,1.2,1.7,1.8C275.7,101,275.8,101.2,275.9,101.3z M274.6,104.3c0.2-0.1,0.3-0.1,0.5-0.3c0.2-0.2,0.3-0.2,0.2-0.6
				c-0.1-0.4-0.4-0.9-0.7-1.3c-0.1-0.1-0.3-0.5-0.4-0.7c-0.1-0.2-0.4-0.7-0.7-0.8c-0.2-0.2-0.4-0.1-0.6,0c-0.2,0.1-0.3,0.2-0.5,0.2
				C273.2,102,273.9,103.1,274.6,104.3z M278.5,109.3c0.2-0.1,0.3-0.1,0.5-0.3c0.2-0.2,0.4-0.3,0.3-0.6c-0.1-0.3-0.5-0.9-0.8-1.2
				c-0.3-0.3-0.4-0.5-0.7-0.8c-0.3-0.3-0.7-0.8-1-1c-0.3-0.2-0.5-0.2-0.8-0.1s-0.4,0.2-0.6,0.3C276.5,106.9,277.5,108.1,278.5,109.3
				z"/>
			<path class="st7" d="M283.3,108.7c-3.1-3.6-5.6-7.1-8-11.1c0.5-0.2,0.9-0.5,1.4-0.7c2.4,4.1,4.7,7.5,8,11.1
				C284.1,108.2,283.7,108.5,283.3,108.7z"/>
			<path class="st7" d="M286,107.2c-3.5-3.7-5.6-6.8-8-11.1c0.5-0.3,1-0.6,1.4-0.8c2.1,3.7,3.5,6.7,6.8,9.8c0.6-0.4,1.3-0.8,1.9-1.2
				c0.4,0.4,0.8,0.9,1.2,1.3C288.3,105.9,287.1,106.6,286,107.2z"/>
		</g>
	</g>
	<g>
		<g>
			<path class="st2" d="M353.1,134.7l1.6,2.5c0.4-0.3,0.8-0.6,1.2-0.8l-1.8-2.4c0.2-0.3,0.5-0.8,0.3-1.1c-0.3-0.4-1-0.3-1.7,0.2
				c-0.7,0.5-1,1.1-0.7,1.5C352.3,134.9,352.8,134.8,353.1,134.7z"/>
			<path class="st2" d="M346.1,141l4.2,2.1c0.2-0.5,0.4-1,0.7-1.5l-4.3-1.9c0-0.4,0-1-0.3-1.2c-0.4-0.2-1.1,0.3-1.5,1.1
				c-0.4,0.8-0.3,1.6,0.1,1.8C345.4,141.5,345.9,141.2,346.1,141z"/>
			<path class="st2" d="M346.4,150.3l3-0.2c0-0.2-0.1-0.5-0.1-0.7c0-0.2,0-0.5,0-0.7l-3,0.3c-0.1-0.3-0.5-0.8-0.8-0.8
				c-0.4,0-0.8,0.7-0.7,1.5c0.1,0.8,0.5,1.4,0.9,1.4C346.1,151.1,346.3,150.6,346.4,150.3z"/>
			<path class="st2" d="M361,129.8l0.2,4.7c0.3,0,0.6-0.1,0.8-0.1c0.3,0,0.6,0,0.9,0l-0.5-4.7c0.4-0.2,0.9-0.5,0.9-0.8
				c0-0.5-0.8-0.8-1.7-0.8c-0.9,0.1-1.6,0.5-1.5,1C360.2,129.5,360.7,129.7,361,129.8z"/>
			<path class="st2" d="M368.6,135.4c0.5,0.2,0.9,0.4,1.3,0.6l1.2-2.7c0.4,0,0.9,0,1.1-0.3c0.2-0.4-0.2-1-1-1.4
				c-0.7-0.3-1.5-0.3-1.7,0.1c-0.1,0.2,0.2,0.7,0.4,0.9L368.6,135.4z"/>
			<path class="st2" d="M374.2,139.7c0.4,0.4,0.7,0.9,1,1.4l3.8-2.8c0.3,0.2,0.9,0.5,1.2,0.4c0.4-0.3,0.3-1.1-0.2-1.8
				c-0.5-0.7-1.2-1.1-1.6-0.8c-0.2,0.2-0.2,0.8-0.1,1.1L374.2,139.7z"/>
			<path class="st2" d="M380.7,145.5c-0.3,0-0.5,0.5-0.6,0.8l-3,0.2c0,0.2,0.1,0.5,0.1,0.7c0,0.2,0,0.5,0,0.7l3-0.3
				c0.1,0.3,0.5,0.8,0.8,0.8c0.4,0,0.8-0.7,0.7-1.5C381.5,146.1,381.1,145.5,380.7,145.5z"/>
			<path class="st2" d="M380.4,155.7l-4.2-2.1c-0.2,0.5-0.4,1-0.7,1.5l4.3,1.9c0,0.4,0,1,0.3,1.2c0.4,0.2,1.1-0.3,1.5-1.1
				c0.4-0.8,0.3-1.6-0.1-1.8C381.1,155.1,380.6,155.4,380.4,155.7z"/>
			<path class="st2" d="M373.4,161.9l-1.6-2.5c-0.4,0.3-0.8,0.6-1.2,0.8l1.8,2.4c-0.2,0.3-0.5,0.8-0.3,1.1c0.3,0.4,1,0.3,1.7-0.2
				c0.7-0.5,1-1.1,0.7-1.5C374.2,161.8,373.7,161.8,373.4,161.9z"/>
			<path class="st2" d="M352.3,156.9c-0.4-0.4-0.7-0.9-1-1.4l-3.8,2.8c-0.3-0.2-0.9-0.5-1.2-0.4c-0.4,0.3-0.3,1.1,0.2,1.8
				c0.5,0.7,1.2,1.1,1.6,0.8c0.2-0.2,0.2-0.8,0.1-1.1L352.3,156.9z"/>
			<path class="st2" d="M365.4,166.8l-0.2-4.7c-0.3,0-0.6,0.1-0.8,0.1c-0.3,0-0.6,0-0.9,0l0.5,4.7c-0.4,0.2-0.9,0.5-0.9,0.8
				c0,0.5,0.8,0.8,1.7,0.8c0.9-0.1,1.6-0.5,1.5-1C366.3,167.2,365.8,166.9,365.4,166.8z"/>
			<path class="st2" d="M357.9,161.2c-0.5-0.2-0.9-0.4-1.3-0.6l-1.2,2.7c-0.4,0-0.9,0-1.1,0.3c-0.2,0.4,0.2,1,1,1.4
				c0.7,0.3,1.5,0.3,1.7-0.1c0.1-0.2-0.2-0.7-0.4-0.9L357.9,161.2z"/>
		</g>
		
			<ellipse transform="matrix(0.9857 -0.1685 0.1685 0.9857 -19.7968 63.324)" class="st2" cx="363.2" cy="148.3" rx="13.9" ry="13.9"/>
		<path class="st2" d="M363.5,137.6c0.1,0.8-0.5,1.4-1.3,1.5c-0.8,0.1-1.5-0.5-1.5-1.2c-0.1-0.8,0.5-1.4,1.3-1.5
			C362.7,136.3,363.4,136.9,363.5,137.6z"/>
		<path class="st2" d="M355.7,149.3c0.1,0.8-0.5,1.4-1.3,1.5c-0.8,0.1-1.5-0.5-1.5-1.2c-0.1-0.8,0.5-1.4,1.3-1.5
			C355,148,355.7,148.6,355.7,149.3z"/>
		<path class="st2" d="M361.8,145.3c0.1,0.8-0.5,1.4-1.3,1.5c-0.8,0.1-1.5-0.5-1.5-1.2c-0.1-0.8,0.5-1.4,1.3-1.5
			C361.1,144,361.8,144.5,361.8,145.3z"/>
		<path class="st2" d="M359.4,157.4c0.1,0.8-0.5,1.4-1.3,1.5c-0.8,0.1-1.5-0.5-1.5-1.2c-0.1-0.8,0.5-1.4,1.3-1.5
			C358.7,156.1,359.4,156.6,359.4,157.4z"/>
		<path class="st2" d="M374.6,150.4c0.1,0.8-0.5,1.4-1.3,1.5c-0.8,0.1-1.5-0.5-1.5-1.2c-0.1-0.8,0.5-1.4,1.3-1.5
			C373.8,149.1,374.5,149.7,374.6,150.4z"/>
		<path class="st2" d="M364.5,153.1c0.1,0.8-0.5,1.4-1.3,1.5c-0.8,0.1-1.5-0.5-1.5-1.2c-0.1-0.8,0.5-1.4,1.3-1.5
			C363.8,151.8,364.4,152.4,364.5,153.1z"/>
		<path class="st2" d="M368.7,147.3c0.1,0.8-0.5,1.4-1.3,1.5c-0.8,0.1-1.5-0.5-1.5-1.2c-0.1-0.8,0.5-1.4,1.3-1.5
			C367.9,146,368.6,146.5,368.7,147.3z"/>
		<path class="st2" d="M371.6,140.7c0.1,0.8-0.5,1.4-1.3,1.5c-0.8,0.1-1.5-0.5-1.5-1.2c-0.1-0.8,0.5-1.4,1.3-1.5
			C370.9,139.3,371.6,139.9,371.6,140.7z"/>
		<path class="st2" d="M369.7,157.3c0.1,0.8-0.5,1.4-1.3,1.5c-0.8,0.1-1.5-0.5-1.5-1.2c-0.1-0.8,0.5-1.4,1.3-1.5
			C368.9,156,369.6,156.5,369.7,157.3z"/>
		<path class="st2" d="M356.5,140.6c0.1,0.8-0.5,1.4-1.3,1.5c-0.8,0.1-1.5-0.5-1.5-1.2c-0.1-0.8,0.5-1.4,1.3-1.5
			C355.8,139.3,356.5,139.9,356.5,140.6z"/>
	</g>
	<g>
		<path class="st4" d="M334.3,193.4l45.9,0.6c0,0-1.2,27.2-7.7,34.6l-45.9-5.3C326.6,223.3,335.1,214.3,334.3,193.4z"/>
		<polyline class="st4" points="380.2,193.9 382.5,225.1 375.2,224.1 		"/>
		<g>
			<path class="st4" d="M338.3,201.3l37.3,1.5c0,0-1.3,14.4-4.7,19.8l-37.9-3.9C332.9,218.8,338.5,209.6,338.3,201.3z"/>
			<path class="st4" d="M341.9,201.5c0,0-1.5,12.2-5.3,17.7"/>
			<path class="st4" d="M346.8,202c0,0-1.5,12.2-5.3,17.7"/>
			<path class="st4" d="M351.3,202.1c0,0-1.5,12.2-5.3,17.7"/>
			<path class="st4" d="M355.3,202.2c0,0-1.5,12.2-5.3,17.7"/>
			<path class="st4" d="M359.6,202.5c0,0-1.5,12.2-5.3,17.7"/>
			<path class="st4" d="M363.7,202.9c0,0-1.4,12.9-5.2,18.3"/>
			<path class="st4" d="M367.5,202.8c0,0-1.6,13.1-5.5,18.6"/>
			<path class="st4" d="M371.3,203.2c0,0-1,13.1-4.8,18.5"/>
			<line class="st4" x1="338.1" y1="204.7" x2="374.8" y2="207.4"/>
			<line class="st4" x1="337.3" y1="208.3" x2="374.2" y2="211.4"/>
			<line class="st4" x1="336.2" y1="212" x2="373.2" y2="215.5"/>
			<line class="st4" x1="334.9" y1="215.5" x2="371.9" y2="219.2"/>
		</g>
		<path class="st4" d="M341.7,195.9c-1.3,0.1-2.4-1-2.5-2.5c-0.1-1.5,0.8-2.8,2.1-2.9c1.3-0.1,2.4,1,2.5,2.5"/>
		<path class="st4" d="M347.1,196.1c-1.3,0.1-2.4-1-2.5-2.5c-0.1-1.5,0.8-2.8,2.1-2.9c1.3-0.1,2.4,1,2.5,2.5"/>
		<path class="st4" d="M352.5,196.4c-1.3,0.1-2.4-1-2.5-2.5s0.8-2.8,2.1-2.9c1.3-0.1,2.4,1,2.5,2.5"/>
		<path class="st4" d="M357.9,196.6c-1.3,0.1-2.4-1-2.5-2.5c-0.1-1.5,0.8-2.8,2.1-2.9c1.3-0.1,2.4,1,2.5,2.5"/>
		<path class="st4" d="M363.3,196.9c-1.3,0.1-2.4-1-2.5-2.5c-0.1-1.5,0.8-2.8,2.1-2.9c1.3-0.1,2.4,1,2.5,2.5"/>
		<path class="st4" d="M368.7,197.1c-1.3,0.1-2.4-1-2.5-2.5c-0.1-1.5,0.8-2.8,2.1-2.9c1.3-0.1,2.4,1,2.5,2.5"/>
		<path class="st4" d="M374.1,197.3c-1.3,0.1-2.4-1-2.5-2.5c-0.1-1.5,0.8-2.8,2.1-2.9c1.3-0.1,2.4,1,2.5,2.5"/>
	</g>
	<path class="st8" d="M133.3,135.3c0,0-21.5-27.9-9.4-62.2s51.2-26.3,54.9-7.4c3.7,18.9-19,11.9-19.7-5.1c-0.6-17,21.9-41,56.9-38.6
		c35,2.4,29.1,30.2,43,29.1c14-1.1,8.7-20.7,36.4-25.9c27.7-5.2,35.8,3.8,38.2,42.8c2.4,39,11.1,36.9,37.7,36.2
		c26.6-0.6,48.7,35.3,30.7,50.8c-18,15.5-34.4,5-63.8,25.8c-29.4,20.9-46.4,20.7-28.8,47.5c17.7,26.7,53,6.1,64.2,34.1
		c11.1,28,3.7,55.2-18.9,41.5c-22.6-13.7-55.1-77.7-72.7-85.2c-17.6-7.5-77.9-2.6-109.9,23.6c-31.9,26.2-77.5,21.7-89.5-17.3
		c-12-39-18.9-60.7,11.6-76.4c30.6-15.8,56.2-0.1,71.6,15.7c15.3,15.8,48.6-3.2,47.8-22.3c-0.8-19.2-36.3-56.3-26.7-83.7
		c9.6-27.4,48.2-26.8,59.4,2.6c11.2,29.4,1.3,44.3,8.2,65.2c6.9,20.9,32,39.6,53.7,32.7c21.7-6.9,21.1-23.2,40.4-49.9
		s68-20.2,73.3,19.3c5.4,39.5-31.5,41-31.6,58c-0.1,17,24.6,2.5,18.3,34.8c-6.3,32.3-30.9,21-50.7,32.9s-8.5,42.1-34.2,35.3
		c0,0-11,2.5-18.3-35.6c-7.3-38.1-37.3-59.2-64.8-51.9"/>
</g>
<g id="Character">
	<g>
		<g>
			<path class="st9" d="M190.4,360.1l-0.3,1.4l-17.7,91.8c-0.5,2.4,1.5,4.6,4.1,4.6l0,0c1.9,0,3.6-1.2,4-3l23.6-92.2L190.4,360.1z"
				/>
			<path class="st9" d="M269.9,360.1l0.3,1.4l17.7,91.8c0.5,2.4-1.5,4.6-4.1,4.6l0,0c-1.9,0-3.6-1.2-4-3l-23.6-92.2L269.9,360.1z"/>
			<path class="st10" d="M247.6,242.8c0,0-17.9-4.8-33.8,1.1c-15.8,5.9-21.6,16.1-37.5,39.2c-15.8,23.1-14.8,38.2-10.6,52.1
				c4.2,14,16.4,30.1,53.3,36.6c25.8,4.5,71-2.6,80.9-31.8c3.8-11.3,2.5-23.7-0.3-35c-4.9-19.7-16.3-36.2-29.4-51.4
				C262.9,244.9,247.6,242.8,247.6,242.8z"/>
			<path class="st11" d="M246.3,248.6c0,0-16.3-4.4-30.7,1c-14.4,5.4-19.7,14.7-34.1,35.7c-14.4,21-13.4,34.7-9.6,47.4
				c3.8,12.7,14.9,27.4,48.5,33.2c23.5,4.1,64.6-2.4,73.6-29c3.5-10.2,2.3-21.5-0.3-31.8c-4.4-17.9-14.8-33-26.7-46.8
				C260.2,250.5,246.3,248.6,246.3,248.6z"/>
		</g>
		<path class="st12" d="M199.9,291.4c0,0-17.6,11.2-23.4,27.5c-5.8,16.4,3.4,32.7,20.4,39.6s53.8,6.3,73.6-2.9
			c19.8-9.1,20.9-23.1,19-38.1c-1.9-15-14.8-26.9-26.1-35.3c-11.4-8.4-46.1-3.3-53.2,1.3C203,288,199.9,291.4,199.9,291.4z"/>
		<path class="st13" d="M202.6,295.7c0,0-5.1,0.8-11.4,6.7c-6.3,5.9-11.4,14.7-7.6,12.2c3.8-2.5,9.3-9.3,13.9-8
			c4.6,1.3,2.9,10.9,14.3,14.3c11.4,3.4,16,2.5,29.5-0.8c13.5-3.4,17.3-3.8,24.8,0.8c7.6,4.6,14.3,4.6,14.3-3.4
			c0-8-7.2-12.2-18.1-17.3C251.5,295.3,220.7,290.2,202.6,295.7z"/>
		<path class="st5" d="M225.2,223.4c0,0-15.8,3-30.7,10s-12.8,18.5-9.4,31.7c3.4,13.2,17,40.4,20.3,45.2c3.3,4.9,19.3-3.4,19.3-3.4
			s14.6,2.8,24.7,1.7c10.2-1.1,11.6-1.2,11.6-1.2s17.2-2.8,18.1-3.8c0.9-1,7.3-13,10.7-23.2c7.5-21.9,7.4-29.9,7-39.2
			c-0.3-7.2-19.1-16.3-25.8-17c-6.7-0.7-21-2.5-25.9-1.8C240.1,223,233.7,223,225.2,223.4z"/>
		<g>
			<path class="st9" d="M263,212.7c0,0,2.9,0.1,3,5.1c0.2,5-2.8,7.9-4.4,9.2c-1.6,1.2-4.5,1.1-4.5-0.8c-0.1-1.9,3-15.1,3-15.1
				L263,212.7z"/>
			<path class="st9" d="M218.5,215.3c0,0-3.1-0.1-2.9,4.1c0.2,4.3,0.7,7.1,1.8,8.9s4.3,1.5,4.3,1.5l-2.2-14.6L218.5,215.3z"/>
			<g>
				<defs>
					<path id="XMLID_3_" d="M217.3,215.9c0,0,2.3,10.1,4.2,15.7c1.9,5.6,3.9,9.6,9.3,13.9c5.4,4.3,6.7,7.3,12.3,4.5
						c5.6-2.8,11.6-7.1,14.5-16.5c3-9.4,5.5-18.5,5.9-19.9c0.4-1.4-2.2-14.9-6-21.3c-3.8-6.5-9.5-6.7-18.8-0.7
						C229.4,197.6,218.6,206.1,217.3,215.9z"/>
				</defs>
				<use xlink:href="#XMLID_3_"  style="overflow:visible;fill:#FFFFFF;"/>
				<clipPath id="XMLID_00000000191847467271245870000018053503359930561450_">
					<use xlink:href="#XMLID_3_"  style="overflow:visible;"/>
				</clipPath>
				<path style="opacity:0.3;clip-path:url(#XMLID_00000000191847467271245870000018053503359930561450_);" d="M260.9,222.7
					c1.4-4.7,2.4-8.3,2.6-9.1c0.4-1.4-2.2-14.9-6-21.3c-3.8-6.5-9.5-6.7-18.8-0.7c-9.3,6.1-20.1,14.5-21.4,24.3c0,0,0.6,2.6,1.4,5.9
					c5.4,0.6,22.5,1.4,26.7-11.2c1.8-5.4,3.1-9.3,4-12.1C248.2,205,248.9,215.2,260.9,222.7z"/>
				
					<use xlink:href="#XMLID_3_"  style="overflow:visible;fill:none;stroke:#263238;stroke-linecap:round;stroke-linejoin:round;stroke-miterlimit:10;"/>
			</g>
			<path class="st4" d="M242,222.3c0,0-0.4,8.8-0.3,10.9s-3.7,3-4.8-0.3"/>
			<path class="st7" d="M233.3,223.5c0.1,1.7-0.6,3.1-1.4,3.1c-0.9,0-1.6-1.3-1.7-3c-0.1-1.7,0.6-3.1,1.4-3.1
				C232.5,220.5,233.2,221.8,233.3,223.5z"/>
			<path class="st7" d="M248.4,223c0.1,1.7-0.6,3.1-1.4,3.1c-0.9,0-1.6-1.3-1.7-3c-0.1-1.7,0.6-3.1,1.4-3.1
				C247.6,219.9,248.4,221.3,248.4,223z"/>
			<line class="st4" x1="227.7" y1="219.5" x2="235.6" y2="215.2"/>
			<line class="st4" x1="245.1" y1="215.5" x2="253.3" y2="219.7"/>
		</g>
		<g>
			<g>
				<path class="st5" d="M254.4,174.1c0,0,2.4-4.8,11-9c8.6-4.1,23.8,1.7,29.3,10.7c5.6,9,7.5,22,7.5,22s-3.4,3.9-9.2,6.5
					c-5.8,2.6-13.1,4.3-13.1,4.3s2.8-6.3-0.1-19.7c-2.9-13.4-10.7-18.8-14.9-17.2c-4.2,1.6-8.4,4.1-8.4,4.1S254,177.4,254.4,174.1z"
					/>
				<path class="st15" d="M257.4,173.7c0,0,7-8.3,18.7-6.2c11.7,2.2,20.8,22.4,19.8,32.9"/>
				<path class="st15" d="M258.8,173.2c0,0,7.8-6.2,17.2-1.9c9.4,4.4,10.5,14.5,10.5,14.5"/>
			</g>
			<g>
				<path class="st5" d="M250.4,175.2c0,0-6.5-7.8-21-4.4c-14.6,3.4-20.8,12.9-23.3,24.1c-2.4,11.2-4.1,15.6-3.1,17.2
					c1,1.6,6.9,5.7,16.8,6.2c10,0.6,16.9-4,22.6-10.1c5.7-6.1,8-12.6,8-12.6s-0.1,9.5,3.7,15c3.8,5.5,11.3,9.3,12.2,9.2
					s3.7-8.4,4.9-21.5c1.2-13.1-6.1-22.8-12.3-24.2C252.6,172.7,250.4,175.2,250.4,175.2z"/>
				<g>
					<path class="st15" d="M248.4,179.6c0,0-6.3-9.5-19.4-5.7c-13.1,3.8-17.4,17-17.3,17.7"/>
					<path class="st15" d="M249,188.5c0,0-5.8,15.4-19.6,21.2c-13.8,5.8-19.4,0.8-22.4-3.6"/>
					<path class="st15" d="M247.2,186c0,0-4.1,10.8-16.7,14.9c-12.6,4-13.4-3.5-13.4-3.5"/>
					<path class="st15" d="M252.2,186.5c0,0,7.2,1.1,8.2,8.5c1,7.3,2,16,6.8,15.9"/>
					<path class="st15" d="M253.1,183.9c0,0,10.8-3,15.3,3.7"/>
				</g>
			</g>
			<path class="st15" d="M254.4,174.1c0,0,0.4-13.3,14.1-16.2"/>
			<path class="st15" d="M250.4,175.2c0,0-6.8-15.4-29.2-6.9"/>
		</g>
		<g>
			<path class="st9" d="M212.4,241.4c0,0-1.2-5.9-1.2-6.8c0-0.9,2.9-5.1,4.2-7.5c1.3-2.4,2.2-4.6,3-2s1.1,3.8,0.5,5.7
				c-0.6,1.9-2.2,4.8-2.1,6.2C216.8,238.4,213.5,245.2,212.4,241.4z"/>
			<g>
				<defs>
					<path id="XMLID_1_" d="M202.4,301.8c1.1,3.3,5.3,14.3,8,16.8c2.7,2.5,7.6,6.8,12.3-0.2c4.7-7.1,9.2-24.5,10.1-31.9
						c0.9-7.4,2-23.1,2.5-26.2c0.6-3.1,3-20.7,2.2-21.9c-0.8-1.2-20.1-9.7-20.1-9.7s-6,11.6-5.4,14.4c0.6,2.8,10.6,17.4,10.7,19.3
						c0.1,1.9-3.6,10.1-7.9,15.7c-4.3,5.6-8.6,9.3-10.4,14.4"/>
				</defs>
				<use xlink:href="#XMLID_1_"  style="overflow:visible;fill:#FFFFFF;"/>
				<clipPath id="XMLID_00000083774478308854456540000010214360259064021904_">
					<use xlink:href="#XMLID_1_"  style="overflow:visible;"/>
				</clipPath>
				<path style="opacity:0.3;clip-path:url(#XMLID_00000083774478308854456540000010214360259064021904_);" d="M210.1,284
					c8.3,4.4,19,1.8,23.3-2.4c0.8-7.9,1.5-18.8,2-21.4c0.3-1.5,1-6.5,1.6-11.3c-1.6,0.5-5.5,1.2-11.4-0.7c-6.6-2.1-11.7-6.5-13-7.8
					c-0.3,1.1-0.5,2-0.3,2.6c0.6,2.8,10.6,17.4,10.7,19.3c0.1,1.9-3.6,10.1-7.9,15.7C213.3,280.3,211.6,282.2,210.1,284z"/>
				
					<use xlink:href="#XMLID_1_"  style="overflow:visible;fill:none;stroke:#263238;stroke-linecap:round;stroke-linejoin:round;stroke-miterlimit:10;"/>
			</g>
			<path class="st5" d="M211.1,282.8c-2.8,3.3-5.3,6.2-6.5,9.7l-2.2,9.3c1.1,3.3,5.3,14.3,8,16.8c2.7,2.5,7.6,6.8,12.3-0.2
				c3.6-5.4,7.1-16.8,8.9-25.2C215.5,294.7,211.9,286.9,211.1,282.8z"/>
			<line class="st4" x1="222.2" y1="230.8" x2="218.9" y2="244"/>
			<line class="st4" x1="228.7" y1="234.4" x2="226.6" y2="246.6"/>
			<line class="st4" x1="234.3" y1="236.8" x2="232.3" y2="248.7"/>
		</g>
		<g>
			<path class="st9" d="M265.8,240.1c0,0,0.7-6,0.7-6.9c0-0.9-3.3-4.9-4.8-7.2c-1.5-2.3-2.5-4.4-3.2-1.8c-0.6,2.6-0.8,3.8,0,5.7
				c0.8,1.9,2.6,4.6,2.6,6.1C261.2,237.4,265,243.9,265.8,240.1z"/>
			<g>
				<defs>
					<path id="XMLID_2_" d="M280.4,299.5c-0.8,3.4-4.2,14.6-6.7,17.3c-2.5,2.7-7.1,7.4-12.3,0.7c-5.2-6.7-11.1-23.8-12.6-31.1
						c-1.5-7.3-3.7-22.9-4.6-25.9c-0.8-3.1-4.6-20.5-3.9-21.7c0.7-1.2,19.3-11.2,19.3-11.2s6.8,11.1,6.5,14
						c-0.4,2.9-9.3,18.1-9.2,20c0.1,1.9,4.4,9.8,9.1,15.1s9.3,8.6,11.4,13.5"/>
				</defs>
				<use xlink:href="#XMLID_2_"  style="overflow:visible;fill:#FFFFFF;"/>
				<clipPath id="XMLID_00000143592382876957126670000001934662163882330283_">
					<use xlink:href="#XMLID_2_"  style="overflow:visible;"/>
				</clipPath>
				<path style="opacity:0.3;clip-path:url(#XMLID_00000143592382876957126670000001934662163882330283_);" d="M256.9,261.8
					c-0.1-1.9,8.8-17.2,9.2-20c0-0.3,0-0.7-0.1-1.2c-0.5,0.9-1.4,1.9-3.1,2.4c-4.1,1.2-14.8,9.9-19.8,7c-0.4-0.3-0.8-0.4-1.2-0.5
					c0.9,4.8,2,9.6,2.4,11.1c0.8,3.1,3.1,18.6,4.6,25.9c0.3,1.6,0.9,3.7,1.6,6.1c4-5.2,8.5-11.9,12.3-19.9
					C259.5,268.1,257,263.2,256.9,261.8z"/>
				
					<use xlink:href="#XMLID_2_"  style="overflow:visible;fill:none;stroke:#263238;stroke-linecap:round;stroke-linejoin:round;stroke-miterlimit:10;"/>
			</g>
			<path class="st5" d="M277.5,290.4c-1.6-3.8-4.7-6.6-8.2-10.1c-6.8,14.1-16.4,11.7-19.4,10.6c2.3,8.3,7.1,21.2,11.5,26.7
				c5.2,6.7,9.8,2,12.3-0.7c2.5-2.7,5.9-14,6.7-17.3L277.5,290.4z"/>
			<line class="st4" x1="255.2" y1="230.3" x2="259.5" y2="243.2"/>
			<line class="st4" x1="249" y1="234.3" x2="252" y2="246.3"/>
			<line class="st4" x1="243.6" y1="237.1" x2="246.5" y2="248.9"/>
		</g>
		<path class="st5" d="M216.2,324.4c0,0,17.2-0.3,26.9,0c9.7,0.3,8.6,19.4,0.3,25.1c-8.4,5.7-14.9,4.5-23.5,3.8
			C211.2,352.5,210.4,332.5,216.2,324.4z"/>
		<g>
			<g>
				<defs>
					<path id="XMLID_4_" d="M230.1,342.8c0.1-6.7-2.2-12.9-9.2-17.2c-7.7-4.7-17.9,0.3-25.6,14.6c-7.7,14.3-12.3,43.5-9.1,61
						c3.2,17.4,7.5,45.3,10.6,51.2c3.1,6,11.9,11.7,16,13.7c4,2,11.7,4.9,18.8,3.2c7.1-1.7,8.9-11.8,5.4-17.4
						c-3.4-5.6-16.8-7.2-20.6-13.9c-3.8-6.7-6.6-13.4-5.4-19.2c1.2-5.8,2.5-27.4,9.7-45.6C223.9,365,229.9,353.2,230.1,342.8z"/>
				</defs>
				<use xlink:href="#XMLID_4_"  style="overflow:visible;fill:#FFFFFF;"/>
				<clipPath id="XMLID_00000160186482158493105510000005435399886524905863_">
					<use xlink:href="#XMLID_4_"  style="overflow:visible;"/>
				</clipPath>
				<path style="opacity:0.3;clip-path:url(#XMLID_00000160186482158493105510000005435399886524905863_);" d="M236.9,451.9
					c-3.4-5.6-16.8-7.2-20.6-13.9c-3.8-6.7-6.6-13.4-5.4-19.2c1.2-5.8,2.5-27.4,9.7-45.6c3.3-8.3,9.3-20.1,9.5-30.5
					c0.1-6.7-2.2-12.9-9.2-17.2c-1.5-0.9-3.1-1.5-4.8-1.6l0,0.4c0,0,10.2,5.7,10.2,18.3c0,12.6-8.5,25.5-23.9,38.5
					c-5.3,4.5-11.6,9.2-17,14.8c0.2,1.8,0.4,3.6,0.7,5.3c3.2,17.4,7.5,45.3,10.6,51.2c3.1,6,11.9,11.7,16,13.7
					c4,2,11.7,4.9,18.8,3.2C238.6,467.6,240.4,457.5,236.9,451.9z"/>
				
					<use xlink:href="#XMLID_4_"  style="overflow:visible;fill:none;stroke:#263238;stroke-linecap:round;stroke-linejoin:round;stroke-miterlimit:10;"/>
			</g>
			<g>
				<path class="st19" d="M236.9,451.9c-3.3-5.3-15.5-7.1-20-13c-2.1-1-8-3.2-11,1.2c-3.7,5.5-2.3,13.7-2.3,13.7s-4.9-3.8-8.6-6.5
					c0.6,2.2,1.2,3.9,1.7,5c3.1,6,11.9,11.7,16,13.7c4,2,11.7,4.9,18.8,3.2C238.6,467.6,240.4,457.5,236.9,451.9z"/>
				<path class="st9" d="M231.5,469.4c5.8-1.4,8.1-8.5,6.8-14.1c-1.2,6.3-4.4,12.9-12.9,12.2c-10-0.8-21.1-8.2-27.2-12.9
					c3.8,5.2,11.1,9.8,14.6,11.6C216.8,468.1,224.4,471.1,231.5,469.4z"/>
			</g>
		</g>
		<g>
			<g>
				<defs>
					<path id="XMLID_5_" d="M261.1,335.9c0,0-9.4-11.8-18-11.5c-8.6,0.3-12.6,8.4-11.8,20.2c0.8,11.8,8.3,38.8,12.1,53.7
						c3.8,14.9,0.3,34.4-0.6,40.2s-2.6,8-3.6,8.4c-1.1,0.4-12.7,5.5-20.8,8.3c-8.1,2.8-9.4,6.5-3.6,9.8c5.9,3.4,20,6.8,30.2,3.5
						c23-7.3,18.1-13.2,21.7-35.4C271.7,402.7,282,362.5,261.1,335.9z"/>
				</defs>
				<use xlink:href="#XMLID_5_"  style="overflow:visible;fill:#FFFFFF;"/>
				<clipPath id="XMLID_00000109752387511729364830000011244117993294114695_">
					<use xlink:href="#XMLID_5_"  style="overflow:visible;"/>
				</clipPath>
				<path style="opacity:0.3;clip-path:url(#XMLID_00000109752387511729364830000011244117993294114695_);" d="M262.4,337.6
					c1,2.3,1.8,4.9,2.5,7.9c4.1,19-7.3,30.4-21.1,31.2c-2.2,0.1-4.1,0.2-5.9,0.2c2,7.9,4.1,15.6,5.5,21.4
					c3.8,14.9,0.3,34.4-0.6,40.2s-2.6,8-3.6,8.4c-1.1,0.4-12.7,5.5-20.8,8.3c-8.1,2.8-9.4,6.5-3.6,9.8c5.9,3.4,20,6.8,30.2,3.5
					c23-7.3,18.1-13.2,21.7-35.4C271.6,403.3,281.5,364.3,262.4,337.6z"/>
				
					<use xlink:href="#XMLID_5_"  style="overflow:visible;fill:none;stroke:#263238;stroke-linecap:round;stroke-linejoin:round;stroke-miterlimit:10;"/>
			</g>
			<path class="st19" d="M264.8,458c0.7-2.1,0.6-4.9,0.4-8.2c-5.6,3.2-11,4.7-11,4.7s-0.2-5.4-4.3-9.9c-3-3.3-7.3-0.6-9.4,1.1
				c-0.4,0.6-0.9,1-1.2,1.1c-1.1,0.4-12.7,5.5-20.8,8.3c-8.1,2.8-9.4,6.5-3.6,9.8c5.9,3.4,20,6.8,30.3,3.5
				C255.4,465.2,262.9,464.2,264.8,458z"/>
			<path class="st9" d="M264.8,458c0.1-0.3,0.2-0.6,0.2-0.8c-10.2,6.5-22.6,11-37.5,9.5c-11.9-1.2-15.1-4.9-15.9-7.2
				c-1,1.8,0.1,3.7,3.3,5.5c5.9,3.4,20,6.8,30.3,3.5C255.4,465.2,262.9,464.2,264.8,458z"/>
		</g>
	</g>
</g>
</svg>
