<?xml version="1.0" encoding="utf-8"?>
<!-- Generator: Adobe Illustrator 27.7.0, SVG Export Plug-In . SVG Version: 6.00 Build 0)  -->
<svg version="1.1" xmlns="http://www.w3.org/2000/svg" xmlns:xlink="http://www.w3.org/1999/xlink" x="0px" y="0px"
	 viewBox="0 0 500 500" style="enable-background:new 0 0 500 500;" xml:space="preserve">
<style type="text/css">
	.st0{fill:#FAFAFA;}
	.st1{opacity:0.25;}
	.st2{fill:#BA68C8;}
	.st3{fill:#E0E0E0;}
	.st4{fill:#455A64;}
	.st5{fill:#37474F;}
	.st6{fill:#263238;}
	.st7{fill:#FFBDA7;}
	.st8{fill:#B16668;}
	.st9{fill:#F0997A;}
	.st10{fill:#F28F8F;}
	.st11{fill:#FFA8A7;}
	.st12{fill:#FFFFFF;}
	.st13{opacity:0.5;fill:#FFFFFF;}
	.st14{opacity:0.5;}
	.st15{opacity:0.8;}
	.st16{opacity:0.8;fill:#FFFFFF;}
</style>
<g id="Floor">
	<path id="Floor_00000107580658230954330200000001971256659486645429_" class="st0" d="M77.7,248.2c-95.2,55-95.2,144,0,199
		c95.2,55,249.5,55,344.7,0c95.2-55,95.2-144,0-199C327.2,193.3,172.8,193.3,77.7,248.2z"/>
</g>
<g id="Thoughts_00000100374018034888262090000018077862183324887989_">
	<g id="Thoughts" class="st1">
		<g>
			<g>
				<path class="st2" d="M178.7,375.2c-28.9,0-57-9-81-26.1c-30.4-21.7-50.5-54-56.6-90.7l0,0c-6.1-36.8,2.5-73.8,24.2-104.2
					c21.7-30.4,54-50.5,90.7-56.6c36.8-6.1,73.8,2.5,104.2,24.2c30.4,21.7,50.5,54,56.6,90.7c6.1,36.8-2.5,73.8-24.2,104.2
					c-21.7,30.4-54,50.5-90.7,56.6C194.2,374.5,186.4,375.2,178.7,375.2z M179.2,96.5c-7.6,0-15.3,0.6-23,1.9
					c-36.5,6.1-68.5,26.1-90.1,56.3c-21.6,30.2-30.1,67-24.1,103.5c6.1,36.5,26.1,68.5,56.3,90.1c30.2,21.6,67,30.1,103.5,24.1
					c36.5-6.1,68.5-26.1,90.1-56.3c21.6-30.2,30.1-67,24.1-103.5c-6.1-36.5-26.1-68.5-56.3-90.1C235.8,105.4,207.9,96.5,179.2,96.5z
					"/>
			</g>
		</g>
		<g>
			<g>
				<path class="st2" d="M232.4,375.1c-29,0-57.3-9-81.4-26.3c-30.6-21.8-50.8-54.2-56.9-91.2c-6.1-37,2.5-74.1,24.3-104.7
					c21.8-30.6,54.2-50.8,91.2-56.9c36.9-6.1,74.1,2.5,104.7,24.3c30.6,21.8,50.8,54.2,56.9,91.2c6.1,37-2.5,74.1-24.3,104.7
					c-21.8,30.6-54.2,50.8-91.2,56.9C247.9,374.5,240.1,375.1,232.4,375.1z M232.8,95.1c-7.7,0-15.4,0.6-23.1,1.9
					c-36.7,6.1-68.9,26.2-90.6,56.5c-21.7,30.4-30.3,67.3-24.2,104c11.3,68.2,70.6,116.6,137.6,116.6c7.6,0,15.2-0.6,23-1.9
					c36.7-6.1,68.9-26.2,90.6-56.5c21.7-30.4,30.3-67.3,24.2-104c-6.1-36.7-26.2-68.9-56.5-90.6C289.7,104.1,261.6,95.1,232.8,95.1z
					"/>
			</g>
		</g>
		<g>
			<g>
				<path class="st2" d="M292.1,368.7c-67.4,0-127.1-48.8-138.5-117.4C141,174.9,192.8,102.4,269.2,89.7c37-6.1,74.1,2.5,104.7,24.3
					c30.6,21.8,50.8,54.2,56.9,91.2c12.7,76.4-39.1,148.9-115.5,161.6C307.5,368.1,299.8,368.7,292.1,368.7z M154.6,251.1
					c12.6,75.9,84.6,127.4,160.5,114.7c75.9-12.6,127.4-84.6,114.7-160.5c-6.1-36.7-26.2-68.9-56.5-90.6
					C343,93.1,306,84.5,269.3,90.6C193.4,103.3,142,175.3,154.6,251.1z"/>
			</g>
		</g>
		<g>
			<g>
				<path class="st2" d="M183.3,329.7c-67.4,0-127.1-48.8-138.5-117.4C32.1,135.9,83.9,63.4,160.3,50.7c37-6.1,74.1,2.5,104.7,24.3
					c30.6,21.8,50.8,54.2,56.9,91.2c12.7,76.4-39.1,148.9-115.5,161.6C198.6,329.1,190.9,329.7,183.3,329.7z M45.7,212.1
					c12.6,75.9,84.6,127.4,160.5,114.7c75.9-12.6,127.4-84.6,114.7-160.5c-6.1-36.7-26.2-68.9-56.5-90.6
					c-30.4-21.7-67.3-30.3-104-24.2C84.6,64.2,33.1,136.2,45.7,212.1z"/>
			</g>
		</g>
		<g>
			<g>
				<path class="st2" d="M207,334.9c-67.4,0-127.1-48.8-138.5-117.4C55.8,141.1,107.6,68.6,184,55.9c36.9-6.1,74.1,2.5,104.7,24.3
					c30.6,21.8,50.8,54.2,56.9,91.2c6.1,37-2.5,74.1-24.3,104.7c-21.8,30.6-54.2,50.8-91.2,56.9C222.3,334.3,214.6,334.9,207,334.9z
					 M69.4,217.3C82,293.2,154,344.7,229.9,332.1c75.9-12.6,127.4-84.6,114.7-160.5c-6.1-36.7-26.2-68.9-56.5-90.6
					c-30.4-21.7-67.3-30.3-104-24.2C108.3,69.4,56.8,141.4,69.4,217.3z"/>
			</g>
		</g>
		<g>
			<g>
				<path class="st2" d="M214.7,323.5c-17,0-33.6-5.3-47.7-15.4c-17.9-12.8-29.8-31.8-33.4-53.4c-3.6-21.7,1.5-43.4,14.3-61.4
					c12.8-17.9,31.8-29.8,53.4-33.4c44.8-7.4,87.3,22.9,94.7,67.7c3.6,21.7-1.5,43.4-14.3,61.4c-12.8,17.9-31.8,29.8-53.4,33.4
					C223.8,323.1,219.2,323.5,214.7,323.5z M214.9,159.7c-4.4,0-8.9,0.4-13.4,1.1c-21.4,3.6-40.2,15.3-52.8,33
					c-12.7,17.7-17.7,39.2-14.1,60.7c3.6,21.4,15.3,40.2,33,52.8c17.7,12.7,39.2,17.7,60.6,14.1c21.4-3.6,40.2-15.3,52.8-33
					c12.7-17.7,17.7-39.2,14.1-60.7C288.5,188,253.9,159.7,214.9,159.7z"/>
			</g>
		</g>
		<g>
			<g>
				<path class="st2" d="M253.2,264.3c-39.5,0-74.5-28.6-81.2-68.8c-3.6-21.7,1.5-43.4,14.3-61.4c12.8-17.9,31.8-29.8,53.4-33.4
					c44.8-7.4,87.3,22.9,94.7,67.7c3.6,21.7-1.5,43.4-14.3,61.4c-12.8,17.9-31.8,29.8-53.4,33.4C262.2,264,257.7,264.3,253.2,264.3z
					 M253.3,100.6c-4.4,0-8.9,0.4-13.4,1.1c-21.4,3.6-40.2,15.3-52.8,33c-12.7,17.7-17.7,39.2-14.1,60.6c6.6,39.8,41.2,68,80.2,68
					c4.4,0,8.9-0.4,13.4-1.1c21.4-3.6,40.2-15.3,52.8-33c12.7-17.7,17.7-39.2,14.1-60.7C326.9,128.9,292.3,100.6,253.3,100.6z"/>
			</g>
		</g>
		<g>
			<g>
				<path class="st2" d="M235.3,278.1c-39.5,0-74.5-28.6-81.2-68.8c-7.4-44.8,22.9-87.3,67.7-94.7c44.8-7.5,87.3,22.9,94.7,67.7
					c7.4,44.8-22.9,87.3-67.7,94.7C244.3,277.7,239.8,278.1,235.3,278.1z M155.1,209.1c7.4,44.3,49.4,74.3,93.6,66.9
					c44.3-7.4,74.3-49.4,66.9-93.6c-7.4-44.3-49.4-74.3-93.6-66.9C177.8,122.8,147.7,164.8,155.1,209.1L155.1,209.1z"/>
			</g>
		</g>
		<g>
			<g>
				<path class="st2" d="M273.7,231.2c-39.5,0-74.5-28.6-81.2-68.8c-3.6-21.7,1.5-43.4,14.3-61.4c12.8-17.9,31.8-29.8,53.4-33.4
					c21.7-3.6,43.4,1.5,61.4,14.3c17.9,12.8,29.8,31.8,33.4,53.4c3.6,21.7-1.5,43.4-14.3,61.4c-12.8,17.9-31.8,29.8-53.4,33.4
					C282.7,230.8,278.2,231.2,273.7,231.2z M193.5,162.2c7.4,44.3,49.4,74.3,93.6,66.9c21.4-3.6,40.2-15.3,52.8-33
					c12.7-17.7,17.7-39.2,14.1-60.6c-3.6-21.4-15.3-40.2-33-52.8C303.4,70,281.8,65,260.4,68.6c-21.4,3.6-40.2,15.3-52.8,33
					C194.9,119.3,189.9,140.8,193.5,162.2z"/>
			</g>
		</g>
		<g>
			<g>
				<path class="st2" d="M245.2,236.9c-37.4,0-70.5-27.1-76.8-65.2l0,0c-3.4-20.5,1.4-41.1,13.5-58.1c12.1-17,30.1-28.2,50.6-31.6
					c42.4-7.1,82.6,21.7,89.7,64.1c7,42.4-21.7,82.6-64.1,89.7C253.7,236.6,249.4,236.9,245.2,236.9z M169.3,171.6
					c7,41.9,46.7,70.3,88.6,63.3c41.9-7,70.3-46.7,63.3-88.6c-7-41.9-46.7-70.3-88.6-63.3c-20.3,3.4-38,14.4-50,31.2
					C170.6,131,165.9,151.4,169.3,171.6z"/>
			</g>
		</g>
		<g>
			<g>
				<path class="st2" d="M172.2,251.6c-39.5,0-74.5-28.6-81.2-68.8c-3.6-21.7,1.5-43.4,14.3-61.4c12.8-17.9,31.8-29.8,53.4-33.4
					c44.8-7.4,87.3,22.9,94.7,67.7c3.6,21.7-1.5,43.4-14.3,61.4c-12.8,17.9-31.8,29.8-53.4,33.4
					C181.2,251.2,176.6,251.6,172.2,251.6z M172.2,87.9c-4.4,0-8.9,0.4-13.4,1.1c-21.4,3.6-40.2,15.3-52.8,33
					c-12.7,17.7-17.7,39.2-14.1,60.6c6.6,39.8,41.2,68,80.2,68c4.4,0,8.9-0.4,13.4-1.1c21.4-3.6,40.2-15.3,52.8-33
					c12.7-17.7,17.7-39.2,14.1-60.7C245.9,116.2,211.3,87.9,172.2,87.9z"/>
			</g>
		</g>
		<g>
			<g>
				<path class="st2" d="M229.5,302.1c-29,0-57.3-9-81.4-26.3c-30.6-21.8-50.8-54.2-56.9-91.2c-6.1-37,2.5-74.1,24.3-104.7
					c21.8-30.6,54.2-50.8,91.2-56.9c36.9-6.1,74.1,2.5,104.7,24.3c30.6,21.8,50.8,54.2,56.9,91.2c6.1,37-2.5,74.1-24.3,104.7
					c-21.8,30.6-54.2,50.8-91.2,56.9C245,301.4,237.2,302.1,229.5,302.1z M229.9,22c-7.7,0-15.4,0.6-23.1,1.9
					c-36.7,6.1-68.9,26.2-90.6,56.5c-21.7,30.4-30.3,67.3-24.2,104c6.1,36.7,26.2,68.9,56.5,90.6c30.4,21.7,67.3,30.3,104,24.2
					c36.7-6.1,68.9-26.2,90.6-56.5c21.7-30.4,30.3-67.3,24.2-104c-6.1-36.7-26.2-68.9-56.5-90.6C286.8,31,258.7,22,229.9,22z"/>
			</g>
		</g>
		<g>
			<g>
				<path class="st2" d="M282.8,313.1c-29,0-57.3-9-81.4-26.3c-30.6-21.8-50.8-54.2-56.9-91.2c-6.1-37,2.5-74.1,24.3-104.7
					c21.8-30.6,54.2-50.8,91.2-56.9c37-6.1,74.1,2.5,104.7,24.3c30.6,21.8,50.8,54.2,56.9,91.2C434.2,226,382.4,298.5,306,311.2
					C298.3,312.5,290.5,313.1,282.8,313.1z M283.2,33.1c-7.7,0-15.4,0.6-23.1,1.9c-36.7,6.1-68.9,26.2-90.6,56.5
					c-21.7,30.4-30.3,67.3-24.2,104c6.1,36.7,26.2,68.9,56.5,90.6c30.4,21.7,67.3,30.3,104,24.2c75.9-12.6,127.4-84.6,114.7-160.5
					c-6.1-36.7-26.2-68.9-56.5-90.6C340.1,42.1,312,33.1,283.2,33.1z"/>
			</g>
		</g>
	</g>
</g>
<g id="Shadow">
	<path id="Shadow_00000103257088883020645610000003149117662077672609_" class="st3" d="M448.2,432c-4.8-3.7-9.7-7.5-14.5-11.2
		c-4.5-3.5-9-7-12.5-11.4c-3-3.8-5.3-9.6-5.5-14.4c-0.1-1.9,0.2-3.8,1.1-5.5c1.7-3.3,5-4.6,8-6.4c3.2-1.9,6.2-4,9.2-6.2
		c5.8-4.5,11.2-9.7,15.8-15.3c11.1-13.4,20.5-29.6,17.2-47.5c-0.9-4.8-3.2-10.7-8.4-12.3c0.6,4.5,1.3,9.2-0.4,13.4
		c-1.8-0.3-2.5-2.3-3-4c-1.4-4.8-3.8-9.3-7-13.2c-2-2.5-4.8-4.9-8-4.7c-0.1,1.6,0.9,3.1,1.7,4.5c2.6,4.6,4.1,9.8,4.2,15.1
		c0,0.7,0,1.4-0.3,2.1c-0.3,0.6-1.1,1.1-1.8,0.8c-0.5-0.2-0.7-0.6-1-1.1c-3.1-5.1-6.8-9.9-11.8-13.1c-1.2-0.8-2.6-1.5-4.1-1.3
		c-0.2,1.1,0.6,2.2,1.3,3.1c4.2,5.9,6.3,13.3,5.9,20.5c-0.1,2-0.7,4.3-2.7,4.9c-5.8,1.5-5.8-8.7-7.9-11.5c-0.2-0.2-0.4-0.5-0.7-0.5
		c-0.3,0-0.5,0.2-0.6,0.5c-1.4,2-2,4.4-2.2,6.9c-0.3,3.4-0.1,6.9,0.7,10.2c1.3,5.7,4.4,12.3,0,17.3c-11.9,13.5-36.2,13.4-50,3
		c-7-5.3-9.5-14.4-11-22.9c-0.5-2.6-0.9-5.3-2.3-7.5c-1.4-2.1-3.5-3.7-5.7-4.9c-11.1-6.6-24.5-8.2-37.4-8.9
		c-28.1-1.6-56.8,0.4-84.3,6.5c-12.5,2.8-25.7,3.4-38.4,5.8c-10.4,2-20.5,4.5-30.9,5.8c-11,1.4-21.9,4-31.7,9.1
		c-11.4,6-21.3,15.7-25,27.9c-1.1,3.6-1.7,7.5-0.1,10.9c1.4,3,4.4,5.1,7.3,6.8c6.4,3.8,13.4,6.6,20.7,8.3c2.5,0.6,6.2,1.6,6.9,4.5
		c1.6,6.7-14.7,9.6-18.5,10.4c-9.6,2.1-19.6,2.7-29.1,0.4c-3.8-0.9-7.6-2.4-10.4-5c-2.8-2.6-4.5-6.7-3.4-10.4
		c0.9-3.2,3.7-5.6,5.2-8.6c0.9-1.8,2.9-10.3-0.5-10.9c-1.9-0.3-2.9,4-4.1,5c-2,1.7-5.5,2-7.2,0c-0.7-0.9-1-2-1.2-3.1
		c-0.6-4,0.4-8.3,2.7-11.6c1.4-2.1,3.4-3.9,5.6-5.2c1-0.6,5.5-1.5,5.5-2.4c0-0.3-0.1-0.5-0.2-0.8c-0.9-1.5-2.9-2.2-4.7-2.3
		c-6.4-0.5-12.5,2.7-15.4,8.2c-0.3,0.5-0.5,1-0.9,1.4c-0.4,0.4-1,0.7-1.5,0.5c-0.5-0.1-0.9-0.6-1-1.1c-0.1-0.5-0.1-1.1,0-1.6
		c0.5-3.7,1.6-7.3,2.7-10.9c0.9-2.9,2.9-5.6,3.2-8.7c0-0.3,0-0.7-0.2-1c-0.2-0.2-0.5-0.3-0.9-0.3c-3.2-0.3-5.9,2.3-7.8,4.9
		c-3.3,4.4-5.6,9.5-7,14.8c-0.3,1-1.2,2.3-2.5,1.8c-0.5-0.2-0.8-0.8-0.9-1.3c-0.7-2.5-0.2-5.1,0.7-7.5c0.9-2.4,2.3-4.6,3.5-6.9
		c0.1-0.3,0.3-0.6,0.1-0.9c-0.1-0.1-0.3-0.2-0.5-0.2c-1.2-0.1-2.4,0.6-3.4,1.4c-5.5,4.4-7.8,10.5-9.7,17.1
		c-3.4,12.3-2.8,24.7,2.9,36.3c9.2,18.8,30.3,29.2,49.9,34.6c14.2,3.9,29.1,5.3,43.8,5.1c1,0,1.9,0,2.9-0.1
		c10.4-0.3,21.3-1,31.5-3.6c9.5-2.4,19.8-1.8,29.7-2.2c4.7-0.2,9.5-0.3,14,0.9c5,1.4,9.3,4.3,13.9,6.7c14.6,7.5,31.2,7.8,46.9,11.2
		c6.4,1.4,14.2,2.5,20,5.6c5.5,3,10.9,6.8,16.4,10c6.2,3.5,12.4,7.1,19,9.7c10.9,4.3,23.4,4.7,34.6,1.7c5.1-1.4,9.6-4.1,13.1-8.2
		c1.7-2,3.1-4.1,4.8-6.1c1.2-1.4,2.5-2.7,4.3-3.1c1.2-0.3,2.5-0.2,3.8-0.1c2.8,0.4,5.6,0.9,8.3,1.7c5.2,1.5,10.2,3.6,15.6,4.6
		c5.4,1,11,1.3,16.5,0.6c8.9-1.2,19.3-5.9,24.9-13c2.4-3,3.9-7,3.1-10.8C456,438.2,452,434.9,448.2,432z"/>
</g>
<g id="Character">
	<g id="Character_00000035515676141575152010000005519914863479334279_">
		<path class="st4" d="M209.9,399.1c-22.5-8.3-32.2-20.1-38.6-34.9c-5.9-13.7-5.9-24-5.9-24s20.8,3.6,41.9,1.4
			c21.2-2.2,28.6-3.6,28.6-3.6L209.9,399.1z"/>
		<g id="Top_00000124136806567777658820000012788225781968977833_">
			<g>
				<path class="st5" d="M259,187.3c18.9,5.4,29.5,16,45.5,34.2c17.5,19.8,23.9,28.4,23.9,28.4l-4.5,45.5
					c-14,2.5-28.6-11.3-52.3-39.1L259,187.3z"/>
			</g>
			<g id="Chest_00000142164078375804333650000017755984066400145851_">
				<g>
					<path id="XMLID_00000044161787874237411980000008146689769759856545_" class="st2" d="M272.8,236.2
						c-0.2-33.4-7.8-46.9-14.7-49.2c0,0-24.6-9.8-51.9-5.2c-7.7,1.3-20.6,5.9-30.2,9.4c-6.1,2.2-14.6,18.8-16.7,38.7
						c-1.7,16.1-1.6,29.6-0.6,56.5c1.1,28.2,2,34.1,4.8,57.1c43.9,10.7,92.8-3.4,116.8-44.7c-2.6-8.3-4.1-16.6-5.3-29.5
						C273.6,254.7,272.9,246.4,272.8,236.2z"/>
				</g>
				<g id="Head_2_">
					<path class="st6" d="M206.6,174.5c-0.8-9.1-6.3-19.2-9.7-27.4c-3.2-7.9-5-13.9-4-21c0.6-4.2,3.7-9.6,7-10.6
						c-2.3-15.9,10.1-22.2,16.4-23.1c2.4-0.4,6.4-0.9,8.8-1.7c3.5-1.1,4.5-3.8,7.4-5.9c5-3.6,12.9-3,15.4,3.3
						c3.5-3.8,7.7-3.3,12.5-1.7c4.6,1.6,6.4,5.7,5.6,10c6.9-3.1,12.5,2,12.7,5.9c0.2,2.9-0.6,5.2,1,7.9c1.8,3,5.8,3.3,7.2,1.1
						c0.3,4.1-1.5,7-5.9,6.4c1.3,2.3,1.5,5.2,0.5,7.8c-1.3,3.5-5.1,5.3-8,5.1c-0.7,2.2-0.9,4.2-2.5,6c-1.5,1.7-3.4,3.4-5.5,4.2
						c-6.9,2.6-14.3,3-21.6,3.9c-2.9,0.3-5.7,0.7-8.6,1c-0.5,0.1-3.1,0-3.4,0.4C232,146.4,206.6,174.5,206.6,174.5z"/>
					<g id="XMLID_00000119095417526256423400000004604071686165192854_">
						<path class="st7" d="M197.5,162.3c7.1,5.6,11.1,1.2,11.1,1.2l-4,21.6c12.8,25,44.4,21.6,38.6,10.9l1.2-9.7
							c0,0,6.4,0.7,10.7,0.4c7.1-0.4,13.5-5.4,16.2-12.9c2.8-7.8,4.5-20.7,3.5-30.4c-0.2-2.5-0.2-5,0.2-7.4c1.2-6.5,0.4-10.4-0.8-16
							c-7.2-6.9-25.7-10.4-43.2-1.7c1.1,10.1-3.4,17.6-11,20.8c0.1,2.7-0.1,9.5-4.5,9c-3.2-0.4-2.5-4.4-5.4-8.2
							c-3-3.9-10.6-5.1-15-0.1C189.5,146,192.1,158.1,197.5,162.3z"/>
						<path class="st8" d="M246.2,168.8c1.5,0,2.9,0,4.3-0.1c1-0.1,2-0.2,2.8-0.8c0.1-0.1,0.2-0.1,0.2-0.2c0.1-0.1,0-0.3,0-0.4
							c-0.4-1.2-1.8-2-3.1-2.1c-1.5-0.1-3.2,0.3-4.3,1.3c-0.4,0.3-2.1,1.7-1.2,2.2c0.2,0.1,0.4,0.1,0.7,0.1
							C245.9,168.7,246,168.8,246.2,168.8z"/>
						<path class="st9" d="M244.5,186.3c-11-2.3-19.4-4.2-24.5-12.8c-3.2-5.4-5.6-13.8-5.6-13.8s0.3,10,3.4,17
							c2.4,5.4,8.9,10.3,26.3,13.3L244.5,186.3z"/>
					</g>
					<g id="XMLID_00000010290674754772405730000004492931974248960944_">
						<path id="XMLID_00000176024295519396502630000005796883519737705106_" class="st6" d="M245,142.9c-0.1,1.8-1.6,3.2-3.3,3.1
							c-1.7-0.1-3.1-1.6-3-3.4c0.1-1.8,1.6-3.2,3.3-3.1C243.8,139.6,245.1,141.1,245,142.9z"/>
						<path id="XMLID_00000114780811330066086070000004379608860932788873_" class="st6" d="M236.2,133.5l6.9-3.4
							c0.9,2,0.1,4.3-1.8,5.3C239.4,136.3,237.1,135.4,236.2,133.5z"/>
						<path id="XMLID_00000159442600859623414830000013413969301506954403_" class="st6" d="M260.8,130.1l7.4,2.3
							c-0.6,2.1-2.7,3.2-4.7,2.6C261.4,134.4,260.2,132.2,260.8,130.1z"/>
						<path id="XMLID_00000015329772367092149120000015860729433597027254_" class="st6" d="M272.4,143.8c-0.1,1.8-1.6,3.2-3.3,3.1
							c-1.7-0.1-3.1-1.6-3-3.4c0.1-1.8,1.6-3.2,3.3-3.1C271.2,140.5,272.5,142,272.4,143.8z"/>
					</g>
				</g>
			</g>
			<path class="st5" d="M175.4,191.5c-11.7,4.5-21.7,10.6-25.3,26.1c-3.8,16.1,4.2,36.2,14.7,58.7c8.2,17.6,19,30.5,29.8,33.7
				c10.8,3.2,11.7-41.7,11.7-41.7S189.4,212.2,175.4,191.5z"/>
			<g>
				<path class="st7" d="M215.5,205.6c-0.1,8.4-14,32.8-21,43.5c-7,10.7-9.1,15.9-10.3,25c-1.2,9.1,1.6,24,7.3,33.1
					c3.1,5,16.5,3.2,27.3-11.8c10.8-15,11.4-28.7,13.5-46.4c1.6-13.8,3.7-22,4.9-29.2c0.5-2.9,4.4-10.4,7.3-19.8
					c2.9-9.3,0.5-16.1,0.6-19.9c0.1-2.6,0.3-7,1.9-11.6c0.8-2.3,1.8-4.8,2.3-7c1.2-5.9-0.4-8.2-1.9-8.7c0.7-4.2,0.1-6.8-2.3-7.8
					c0.6-3.7-1.7-6.6-3.5-5.7c-1.8,0.9-4.1,5-4.1,5s-2.4-0.5-4.4,0.6c-2,1.1-6.7,7.5-9.9,10.9c-3.2,3.4-3,7.9-5.1,13.7
					c0,0-1.2-2.6-3.4-4.9c-2.2-2.3-6.7-1.9-5.4,2.6c1.3,4.5,2.2,10.8,2.6,19.1C212.3,194.2,215.5,205.6,215.5,205.6"/>
				<path class="st8" d="M249.9,156c-0.1-0.7-0.3-1.5-0.7-2.2c-0.3-0.6-0.9-1.1-1.5-1.5c0.2-1.4,0.4-2.8,0.1-4.3
					c-0.1-0.8-0.4-1.5-0.8-2.2c-0.4-0.6-1-1.1-1.6-1.4c0.1-1.2,0.1-2.4-0.4-3.5c-0.2-0.6-0.6-1.2-1-1.7c-0.4-0.5-1.1-0.9-1.8-0.9
					c-0.8,0-1.4,0.5-1.8,0.9c-0.5,0.4-0.9,0.9-1.3,1.4c-0.7,0.9-1.3,1.9-1.9,2.8c-1.4-0.2-2.8-0.1-4.1,0.5c-1.4,0.8-2.3,1.9-3.2,2.9
					c-1.9,2.1-3.7,4.4-5.5,6.5c-0.5,0.5-0.9,1.1-1.4,1.6c-0.5,0.5-1,1.1-1.3,1.7c-0.8,1.2-1.3,2.6-1.7,4c-0.7,2.5-1.2,5.1-2,7.5
					c-0.4-0.8-0.9-1.6-1.4-2.3c-0.3-0.5-0.7-0.9-1.1-1.3c-0.4-0.4-0.8-0.9-1.3-1.2c-1-0.7-2.2-1.1-3.4-0.8c-0.6,0.1-1.2,0.5-1.5,1
					c-0.4,0.5-0.4,1.2-0.4,1.8c0.1,1.2,0.5,2.3,0.7,3.4c0.3,1.1,0.5,2.2,0.7,3.3c0.4,2.2,0.7,4.5,0.9,6.7c0.5,4.5,0.5,9,1.3,13.5
					c0.8,4.5,1.8,8.9,3,13.2c-1.1-4.4-2.1-8.8-2.8-13.3c-0.8-4.5-0.7-9-1.1-13.5c-0.2-2.3-0.5-4.5-0.9-6.7c-0.2-1.1-0.4-2.2-0.7-3.3
					c-0.2-1.1-0.7-2.2-0.7-3.3c0-0.5,0.1-1.1,0.4-1.5c0.3-0.4,0.7-0.7,1.2-0.8c1-0.2,2.1,0.1,3,0.7c0.4,0.3,0.8,0.7,1.2,1.1
					c0.4,0.4,0.7,0.9,1,1.3c0.6,0.9,1.2,1.9,1.7,2.9l0.3,0.7l0.2-0.7c1-2.7,1.5-5.5,2.3-8.2c0.4-1.3,0.9-2.7,1.6-3.8
					c0.4-0.6,0.8-1.1,1.3-1.6c0.5-0.5,1-1.1,1.4-1.6c1.9-2.1,3.6-4.4,5.5-6.5c0.9-1,1.9-2.2,3-2.7c1.2-0.6,2.6-0.6,3.9-0.4l0.3,0.1
					l0.1-0.3c0.6-1,1.2-2,1.9-3c0.4-0.5,0.7-0.9,1.2-1.3c0.4-0.4,0.9-0.7,1.3-0.7c0.9,0,1.8,1.1,2.1,2.1c0.4,1.1,0.5,2.2,0.3,3.4
					l0,0.3l0.3,0.1c0.6,0.3,1.2,0.7,1.5,1.2c0.4,0.5,0.6,1.2,0.7,1.9c0.2,1.4,0.1,2.9-0.2,4.3l0,0.3l0.3,0.1
					c1.2,0.4,1.9,1.9,2.1,3.2c0.2,1.4,0.1,2.8-0.2,4.3c-0.4,2.8-1.7,5.5-2.6,8.3c-0.9,2.8-1.4,5.7-1.6,8.7c-0.1,1.5-0.2,2.9-0.1,4.4
					c0.1,1.5,0.4,2.9,0.5,4.4c0.3,2.9,0.3,5.8,0,8.7c-0.4,2.9-1.2,5.7-2.2,8.4c-0.9,2.8-2,5.5-3,8.2l-1.6,4.1
					c-0.5,1.4-1.1,2.7-1.4,4.2c0.3-1.4,0.9-2.8,1.4-4.1l1.7-4c1.1-2.7,2.2-5.4,3.2-8.2c1-2.8,1.9-5.6,2.3-8.5
					c0.4-2.9,0.4-5.9,0.1-8.8c-0.1-1.5-0.3-2.9-0.5-4.4c-0.1-1.4,0-2.9,0.1-4.3c0.2-2.9,0.7-5.8,1.6-8.5c0.9-2.8,2.2-5.4,2.7-8.4
					C250,159,250.1,157.5,249.9,156z"/>
				<path class="st10" d="M191.5,307.1c0.7,0.9,1.7,1.5,2.8,1.9c1.1,0.3,2.2,0.3,3.4,0.3c2.3-0.2,4.4-1,6.5-1.9c2.1-1,4-2.2,5.8-3.6
					c1.8-1.4,3.5-3,5.1-4.6c3.2-3.3,5.8-7.2,8-11.3c2.2-4.1,3.9-8.4,5-12.9c2.4-9,3-18.3,4.3-27.6c0.6-4.6,1.3-9.2,2.2-13.8
					c0.8-4.6,1.8-9.1,2.7-13.7c-0.8,4.6-1.7,9.2-2.5,13.8c-0.8,4.6-1.5,9.2-2,13.8c-1.1,9.2-1.7,18.6-4,27.7c-1.1,4.5-2.8,9-5,13.1
					c-0.5,1-1.1,2.1-1.7,3.1l-0.9,1.5l-1,1.5c-1.3,1.9-2.6,3.9-4.2,5.7c-1.6,1.8-3.3,3.4-5.1,4.9c-1.9,1.4-3.9,2.7-6.1,3.7
					c-2.2,1-4.5,1.6-6.9,1.6c-1.2,0-2.4-0.2-3.5-0.6C193.1,308.9,192,308.1,191.5,307.1z"/>
				<g>
					<path class="st9" d="M225.3,168.3c0.2-2.3,0.3-4.6,0.8-6.9c0.5-2.3,1.6-4.5,2.9-6.4c2.6-3.8,5.5-7,8.6-10.5
						c-2.2,4.1-4.9,7.5-7.6,11.3c-1.3,1.8-2.4,3.8-3,5.9C226.4,163.8,226,166.1,225.3,168.3z"/>
				</g>
				<g>
					<path class="st9" d="M244.6,144.9c-0.6-0.1-1.3-0.1-1.7,0.3c-0.5,0.4-0.8,0.9-1,1.4c-0.6,1.1-1,2.3-1.5,3.4c-1,2.3-2,4-3.1,6.2
						c-0.6,1.1-1.2,2.2-1.6,3.3c-0.4,1.1-0.7,2.4-1.1,3.5c-0.7,2.4-1.5,4.8-2.3,7.1c0.4-2.5,0.8-4.9,1.4-7.4
						c0.3-1.2,0.6-2.4,0.9-3.7c0.4-1.3,1-2.4,1.6-3.5c1.1-2.2,2.2-3.9,3.4-6.1c0.6-1.1,1.1-2.2,1.8-3.3c0.4-0.5,0.8-1,1.4-1.4
						C243.3,144.6,244,144.7,244.6,144.9z"/>
				</g>
				<g>
					<path class="st9" d="M246.9,152.7c-0.5,0-1,0.2-1.3,0.5c-0.3,0.3-0.6,0.7-0.8,1.2c-0.4,0.9-0.8,1.8-1.1,2.7
						c-0.6,1.9-0.9,3.6-1.8,5.4c-0.4,0.9-0.9,1.8-1.3,2.7c-0.5,0.9-0.9,1.7-1.2,2.6c-0.7,1.8-1.3,3.7-1.9,5.6c0.1-2,0.4-4,1-5.9
						c0.6-2,1.6-3.7,2.4-5.5c0.9-1.8,1.2-3.4,2-5.2c0.4-0.9,0.9-1.8,1.5-2.6c0.3-0.4,0.7-0.8,1.1-1.1
						C245.8,152.7,246.4,152.6,246.9,152.7z"/>
				</g>
				<g>
					<path class="st9" d="M218,169.1c-0.1,2.4-0.3,4.7-0.5,7.1c-0.3,2.4-0.5,4.7-1,7c-0.2-2.4-0.1-4.8,0.1-7.1
						C216.9,173.8,217.2,171.4,218,169.1z"/>
				</g>
			</g>
			<g>
				<path class="st7" d="M299,198.2c0.7,7.9,15.7,29.9,23.2,39.4c7.4,9.5,9.8,14.3,11.6,22.8c1.8,8.5,0.3,22.8-4.3,31.8
					c-2.6,5-15.3,4.3-26.7-9c-11.4-13.3-13-26.2-16.3-42.7c-2.6-12.9-5.2-20.5-6.9-27.2c-0.7-2.7-5-9.5-8.4-18.1
					c-3.4-8.6-1.7-15.2-2.1-18.8c-0.3-2.4-0.8-6.5-2.7-10.8c-0.9-2.1-2.1-4.4-2.7-6.5c-1.6-5.5-0.2-7.8,1.2-8.4
					c-1-3.9-0.6-6.4,1.6-7.6c-0.8-3.5,1.1-6.4,2.9-5.7c1.8,0.7,4.2,4.4,4.2,4.4s2.2-0.7,4.2,0.2c2,0.9,6.9,6.6,10.2,9.5
					c3.3,3,3.5,7.2,5.8,12.5c0,0,0.9-2.6,2.8-4.9c1.9-2.3,6.1-2.3,5.3,2.1c-0.9,4.4-1.2,10.4-1,18.2
					C301.1,187.3,299,198.2,299,198.2"/>
				<path class="st8" d="M262.6,154.1c0-0.7,0.2-1.4,0.5-2.1c0.3-0.6,0.7-1.1,1.3-1.5c-0.3-1.3-0.6-2.6-0.5-4
					c0.1-0.7,0.2-1.5,0.6-2.1c0.3-0.6,0.8-1.1,1.4-1.4c-0.2-1.1-0.2-2.2,0.1-3.3c0.2-0.6,0.4-1.2,0.8-1.6c0.4-0.5,0.9-0.9,1.7-1
					c0.8-0.1,1.4,0.4,1.8,0.7c0.5,0.4,0.9,0.8,1.3,1.2c0.7,0.8,1.4,1.6,2,2.5c1.3-0.3,2.7-0.3,3.9,0.2c1.4,0.6,2.3,1.6,3.3,2.5
					c2,1.9,3.8,3.8,5.7,5.7c0.5,0.5,1,0.9,1.4,1.4c0.5,0.5,1,1,1.4,1.5c0.8,1.1,1.4,2.4,1.9,3.6c0.9,2.3,1.5,4.7,2.5,7
					c0.3-0.8,0.7-1.6,1.2-2.3c0.3-0.5,0.6-0.9,0.9-1.4c0.3-0.4,0.7-0.9,1.1-1.2c0.9-0.7,2-1.2,3.2-1c0.6,0.1,1.2,0.4,1.5,0.8
					c0.4,0.5,0.5,1.1,0.6,1.6c0,1.2-0.3,2.2-0.4,3.2c-0.2,1.1-0.3,2.1-0.4,3.2c-0.2,2.1-0.3,4.3-0.4,6.4c-0.1,4.3,0.2,8.6-0.2,12.8
					c-0.4,4.3-1,8.5-1.8,12.7c0.7-4.2,1.3-8.5,1.6-12.7c0.4-4.3-0.1-8.5,0-12.8c0-2.1,0.1-4.3,0.3-6.4c0.1-1.1,0.2-2.1,0.4-3.2
					c0.1-1.1,0.5-2.1,0.4-3.1c0-0.5-0.1-1-0.5-1.4c-0.3-0.4-0.7-0.6-1.2-0.6c-1-0.1-2,0.3-2.8,0.9c-0.4,0.3-0.7,0.7-1,1.2
					c-0.3,0.4-0.6,0.9-0.9,1.3c-0.5,0.9-1,1.9-1.4,2.8l-0.2,0.6l-0.3-0.6c-1.1-2.5-1.8-5.1-2.8-7.6c-0.5-1.2-1-2.4-1.8-3.5
					c-0.4-0.5-0.8-1-1.3-1.4c-0.5-0.5-1-0.9-1.5-1.4c-1.9-1.9-3.8-3.8-5.7-5.7c-1-0.9-2-1.9-3.1-2.4c-1.2-0.4-2.5-0.4-3.7-0.1
					l-0.3,0.1l-0.2-0.2c-0.6-0.9-1.3-1.8-2.1-2.7c-0.4-0.4-0.8-0.8-1.2-1.1c-0.4-0.3-0.9-0.6-1.3-0.6c-0.9,0.1-1.6,1.1-1.9,2.1
					c-0.3,1-0.3,2.1,0,3.2l0.1,0.3l-0.2,0.1c-0.6,0.3-1,0.7-1.4,1.3c-0.3,0.5-0.5,1.2-0.5,1.9c-0.1,1.3,0.1,2.7,0.5,4l0.1,0.3
					l-0.3,0.1c-1.1,0.5-1.6,1.9-1.7,3.2c-0.1,1.3,0.1,2.7,0.5,4c0.6,2.7,2,5.1,3.1,7.7c1.1,2.6,1.7,5.3,2.2,8.1
					c0.2,1.4,0.4,2.8,0.4,4.2c0,1.4-0.1,2.8-0.1,4.2c-0.1,2.8,0.1,5.5,0.7,8.2c0.6,2.7,1.6,5.3,2.7,7.8c1.1,2.5,2.3,5,3.5,7.5
					l1.8,3.7c0.6,1.2,1.2,2.5,1.6,3.8c-0.4-1.3-1.1-2.6-1.7-3.8l-1.9-3.7c-1.3-2.5-2.5-4.9-3.6-7.5c-1.1-2.5-2.2-5.1-2.8-7.8
					c-0.6-2.7-0.8-5.5-0.8-8.3c0-1.4,0.1-2.8,0.1-4.1c0-1.4-0.2-2.7-0.4-4.1c-0.4-2.7-1.1-5.4-2.2-7.9c-1-2.5-2.5-5-3.2-7.7
					C262.8,156.9,262.6,155.5,262.6,154.1z"/>
				<path class="st10" d="M329.5,292.2c-0.6,0.9-1.5,1.6-2.5,2c-1,0.4-2.1,0.5-3.2,0.5c-2.2,0-4.3-0.6-6.3-1.3c-2-0.7-3.9-1.8-5.8-3
					c-1.8-1.2-3.5-2.5-5.2-4c-3.3-2.9-6-6.4-8.4-10c-2.4-3.7-4.3-7.7-5.7-11.8c-2.9-8.3-4.3-17.1-6.2-25.7c-0.9-4.3-2-8.6-3.1-12.9
					c-1.1-4.3-2.4-8.5-3.6-12.8c1.1,4.3,2.3,8.5,3.4,12.8c1.1,4.3,2.1,8.6,3,12.9c1.8,8.6,3,17.4,5.9,25.9c1.4,4.2,3.3,8.3,5.7,12
					c0.6,0.9,1.2,1.9,1.9,2.8l1,1.4l1,1.3c1.4,1.7,2.8,3.5,4.4,5c1.6,1.5,3.4,3,5.2,4.2c1.9,1.2,3.9,2.2,6,3c2.1,0.8,4.4,1.2,6.7,1
					c1.1-0.1,2.3-0.3,3.3-0.8C328.2,294.1,329.1,293.3,329.5,292.2z"/>
				<g>
					<path class="st9" d="M286.8,163.8c-0.4-2.1-0.6-4.3-1.3-6.5c-0.6-2.1-1.8-4.2-3.3-5.8c-2.8-3.4-5.8-6.2-8.9-9.3
						c2.4,3.7,5.2,6.7,8,10c1.4,1.6,2.5,3.4,3.3,5.4C285.4,159.6,286,161.8,286.8,163.8z"/>
				</g>
				<g>
					<path class="st9" d="M266.8,143.2c0.6-0.2,1.2-0.2,1.6,0.1c0.5,0.3,0.8,0.8,1.1,1.3c0.6,1,1.1,2.1,1.7,3.1
						c1.1,2.1,2.2,3.6,3.4,5.6c0.6,1,1.3,2,1.7,3c0.5,1,0.9,2.2,1.3,3.3c0.9,2.2,1.8,4.4,2.7,6.5c-0.5-2.3-1.2-4.6-1.9-6.9
						c-0.4-1.1-0.7-2.2-1.2-3.4c-0.5-1.2-1.1-2.1-1.8-3.2c-1.3-2-2.3-3.5-3.6-5.5c-0.6-1-1.2-2-2-3c-0.4-0.5-0.8-0.9-1.4-1.2
						C268,142.8,267.3,142.9,266.8,143.2z"/>
				</g>
				<g>
					<path class="st9" d="M265.2,150.8c0.5,0,0.9,0.1,1.3,0.4c0.3,0.3,0.6,0.6,0.8,1c0.5,0.8,0.9,1.6,1.2,2.5
						c0.7,1.7,4.5,8.9,4.9,9.7c0.8,1.7,1.5,3.4,2.2,5.1c-0.3-1.9-0.7-3.7-1.4-5.5c-0.7-1.8-1.5-3.4-2.4-5c-0.9-1.6-1.6-3-2.5-4.7
						c-0.5-0.8-1-1.6-1.6-2.4c-0.3-0.4-0.7-0.7-1.1-0.9C266.2,150.7,265.7,150.7,265.2,150.8z"/>
				</g>
				<g>
					<path class="st9" d="M293.8,164c0.2,2.3,0.6,4.5,1,6.7c0.4,2.2,0.9,4.4,1.5,6.6c0-2.3-0.3-4.5-0.7-6.7
						C295.2,168.3,294.7,166.1,293.8,164z"/>
				</g>
			</g>
			<path class="st9" d="M266.1,155.7l-11.1,4.4l-2.6-21.6C256.6,137.2,261.4,147.3,266.1,155.7z"/>
			<path class="st9" d="M246.7,127.4c-0.3-0.1-0.6-0.3-0.9-0.3c-0.2,0-0.6,0-0.6,0.3c0,0.1,0,0.2,0.1,0.3c0,0,0.3,0.3,0.3,0.2
				c-0.1,0-0.1,0.1,0.1,0.1c0,0,0.1,0,0.1,0.1c0.1,0,0.2,0.1,0.3,0.1c0.2,0.1,0.3,0.2,0.4,0.3c0.3,0.2,0.5,0.5,0.6,0.9
				c0.1,0.3,0.1,0.7,0.1,1c0,0.2,0,0.4,0,0.5c0,0.1,0,0.2,0,0.2c0,0.1,0,0.2,0.1,0.3c0,0.2,0,0.4,0.1,0.7c0.1,0.2,0.3,0.4,0.5,0.2
				c0.1-0.1,0.2-0.2,0.2-0.3c0.1-0.3,0.3-0.6,0.4-0.9c0.1-0.3,0.1-0.7,0.1-1c0-0.6-0.2-1.2-0.5-1.7
				C247.7,128,247.2,127.6,246.7,127.4z M258.3,130c0-0.1,0-0.1,0-0.2c0-0.2,0.1-0.3,0.1-0.4c0,0,0,0,0,0c0,0,0-0.1,0-0.1
				c0-0.1,0.1-0.1,0.1-0.2c0.1-0.2,0.3-0.4,0.4-0.7c0.2-0.5-0.4-0.8-0.8-0.6c-0.2,0.1-0.4,0.3-0.6,0.4c0,0,0,0-0.1,0.1
				c0,0-0.1,0.1-0.1,0.1c0,0.1-0.1,0.1-0.1,0.2c-0.1,0.2-0.2,0.4-0.3,0.5c-0.1,0.3-0.2,0.7-0.2,1.1c0,0.4,0,0.8,0.1,1.1
				c0.1,0.3,0.2,0.5,0.4,0.7c0.1,0.1,0.1,0.1,0.2,0.2c0.1,0.2,0.3,0.3,0.5,0.3c0.3,0.1,0.9,0,0.8-0.4c0-0.1,0-0.2-0.1-0.3
				c0,0-0.1-0.1-0.1-0.1c0,0-0.1-0.2-0.1-0.3c0-0.1-0.1-0.3-0.1-0.5c0,0,0-0.1,0-0.1c0,0,0,0,0,0c0-0.1,0-0.2,0-0.2
				C258.3,130.4,258.3,130.3,258.3,130C258.3,130.1,258.3,130,258.3,130z"/>
		</g>
		<g>
			<path class="st11" d="M332,422.3c-2.4-2.9-5.2-8.8-6-15.1c-1-8.1-2.8-26.4-4.7-44.1c-2-17.7-5.5-57.7-9.8-80.2
				c-2.2-11.4-7.1-23.7-15.1-23.9c-6.1-0.1-23.1,4-29.4,26.4c-6.3,22.4-5.1,35,0,52.9c3.2,11.2,22.5,52.2,25.1,59.8
				c2.6,7.6,2.6,9.3,2.6,9.3v15.3L332,422.3z"/>
			<g id="XMLID_00000101089703325364058290000015645414621205185450_">
				<g>
					<path class="st6" d="M292,433.1c-0.2,7.7,9.3,9.5,13.8,11.8c2.9,1.3,6.1,3.3,9,9c9.2,14.7,24.2,18.6,43.5,15.4
						c13.6-2.8,14.9-12.5,9.9-16.7C365.2,451.6,292,433.1,292,433.1z"/>
					<path id="XMLID_00000111886356741345870510000009250209616829714584_" class="st5" d="M294.6,407.5c-1.3,0.1-2,0.8-1.9,3.1
						c0.3,5.6-2.8,15.7-0.7,22.4c4.1,8.6,17.8,8.4,22.7,14.7c4.9,6.4,9.4,14.4,24.8,17c15.4,2.6,26.8-2.6,29.5-7
						c2.7-4.4,0-8.4-9.9-13.5c-10.5-5.3-24.7-21.6-24.7-21.7c-1.8-2.1-3.4-4.4-5-6.7c-0.7-1.1-0.8-2.3-1-3.6c-0.3-1.5-0.5-3-0.8-4.4
						c-0.1-0.7-0.2-1.4-0.7-1.9c-0.5-0.7-1.4-1-2.2-1.2c-2.1-0.4-4.3-0.1-6.4,0.4c-1.4,0.3-2.8,0.6-4.1,0.9
						c-1.9,0.5-3.9,1.1-5.5,2.4c-0.7,0.5-1.2,1.2-1.5,2c-0.2,0.6-0.2,1.2-0.2,1.8c0,2,0.2,3.9,0.5,5.9c0.1,0.5,0.1,1.1-0.4,1.2
						c-0.3,0.1-0.5-0.1-0.7-0.3c-1-1-1.4-2.4-2.2-3.4c-1.5-1.8-3.9-2.2-6-3c-0.9-0.4-2.1-0.9-3.1-2.1L294.6,407.5z"/>
					<path class="st0" d="M329.4,461.4c-1.3-13,20.8-26.8,32.9-17.1c4.3,2.9,10.5,9,6.9,13.7C363.8,468.2,334.7,467.6,329.4,461.4z"
						/>
					<g>
						<path class="st0" d="M312.7,426.1c2.8-1.8,9.2-9.6,18.6-7.5C329.7,409.4,305.4,425,312.7,426.1z"/>
						<path class="st0" d="M336.1,424.7c-3.4-8.3-19.3,4.8-19.1,5.6c-1,1.4,1.3,2.7,2.2,1.4C320.4,429.9,328.2,423.2,336.1,424.7z"
							/>
						<path class="st0" d="M349.2,437.4c-3.7-9.6-26.5,5.1-20,7C332,442.6,339.3,434,349.2,437.4z"/>
						<path class="st0" d="M323.7,438.3c2.7-1.8,9-9.4,18.4-7.5C339,422,317,437.1,323.7,438.3z"/>
					</g>
				</g>
			</g>
			<path class="st11" d="M358.2,401.7c-1.4-5.6-13.1-28.8-18.3-39.4c-6.4-12.9-19.1-39.2-19.6-63.1c-0.6-23.9,5.4-33.5,11.7-40.8
				c7.3-8.3,20.8-9,26.8,3.3c15.3,31.1,21.2,79.9,23.9,97.6c2.7,17.7,6.4,44.5,6.4,44.5s2.1,7.8,6.5,13.3h-37.4L358.2,401.7z"/>
			<g>
				<path class="st5" d="M245.3,394.2c20.7,2.6,43-10.4,55.2-19.2c14-10.1,32-24.2,32-24.2l21.4,42.7c0,0,8.6,3.8,20.7,1.4
					c12-2.4,14.4-8.5,14.4-8.5s-7.3-49.6-11-68.4c-5.7-28.5-9.4-41.7-12.1-49.1c-2.7-7.4-9.9-18.2-21.8-18.6
					c-12-0.4-18.6,4.2-40.3,18.6c-14.7,9.8-68.8,61.2-74.4,68.1C223.9,343.9,210.8,389.9,245.3,394.2z"/>
				<path class="st6" d="M363.8,395.5c-0.7-2-4.7-12.6-5.4-14.7c-1.3-4-10.2-33.8-11.5-38.3c-1.3-4.7-2.4-9.4-3.4-14.2
					c-0.9-4.2-1.6-8.5-2.2-12.8c-0.3-2.2-0.6-4.4-0.8-6.5c-0.2-2.1-0.3-4.3-0.7-6.4c-0.4-2-1.2-3.9-2.7-5.2c-1.4-1.1-3.2-1.7-5-1.1
					c-1.8,0.6-2.9,2.1-3.9,3.6c-1.2,1.9-2.3,3.9-3.3,5.9c-4.4,8.1-8.1,16.5-12.5,24.6c-3.9,7.1-8.3,14-14,19.9
					c-5.3,5.5-11.8,10.1-19.2,12.2c-6.9,2-14.4,1.9-21.1-0.7c-3.4-1.3-6.4-3.3-8.9-5.9c-1.5-1.6-2.8-3.4-3.9-5.3
					c-1-1.6-1.9-3.3-2.6-5c-0.8-1.8-1.6-3.6-2.5-5.4c-0.2-0.4-1-0.4-0.8,0.1c1.4,3.9,3,7.9,5.2,11.5c2,3.3,4.4,6.2,7.7,8.4
					c5.8,4.1,13.2,5.5,20.2,4.9c7.5-0.6,14.4-3.6,20.4-8.1c6.3-4.7,11.5-10.9,15.7-17.4c4.9-7.5,8.7-15.6,12.6-23.6
					c2-4.1,4.1-8.2,6.4-12.2c1-1.7,1.9-3.7,3.4-5.1c1.4-1.4,3.3-1.5,4.8-0.3c1.7,1.3,2.3,3.4,2.6,5.4c0.3,2.2,0.5,4.4,0.7,6.6
					c0.5,4.3,1.1,8.5,1.9,12.8c1.3,7.2,3,14.4,4.9,21.4c3.5,13.1,7.3,26,11.6,38.9c1.4,4.1,2.7,8.2,4.6,12c0.6,0.1,1.2,0.1,1.8,0.2
					C363.8,395.6,363.8,395.5,363.8,395.5z"/>
				<path class="st6" d="M326.2,294.8c-6.7,16.2-5.8,38.2,1.3,60l5.1-3.9C324,330.4,325.4,307.6,326.2,294.8z"/>
			</g>
			<g>
				<path class="st4" d="M215.8,400.6c15.3,3.2,29.5-1.3,40.7-11.4c11.2-10.1,18.1-29,18.1-29l15.9,39.6c0,0,8.6,3.8,20.7,1.4
					c12-2.4,14.4-8.5,14.4-8.5s-3.7-52.2-6.1-71.2c-3.5-26.9-6.7-42.6-9.4-50c-2.7-7.4-11.2-16.9-23.2-17.4
					c-12-0.4-21.8,5.2-34.1,17.9c-12.3,12.6-50.7,58.8-56.3,65.7c-5.6,6.9-21,30.3-21,30.3S181.7,393.4,215.8,400.6z"/>
				<path class="st4" d="M215.8,400.6c15.3,3.2,29.5-1.3,40.7-11.4c11.2-10.1,18.1-29,18.1-29l15.9,39.6c0,0,8.6,3.8,20.7,1.4
					c12-2.4,14.4-8.5,14.4-8.5s-3.7-52.2-6.1-71.2c-3.5-26.9-6.7-42.6-9.4-50c-2.7-7.4-11.2-16.9-23.2-17.4
					c-12-0.4-21.8,5.2-34.1,17.9c-12.3,12.6-50.7,58.8-56.3,65.7c-5.6,6.9-21,30.3-21,30.3S181.7,393.4,215.8,400.6z"/>
				<path class="st5" d="M299.8,401.8c-2-3.9-3.4-8.2-4.8-12.4c-4.3-12.9-8.1-25.8-11.6-38.9c-1.9-7.1-3.6-14.2-4.9-21.4
					c-0.8-4.2-1.4-8.5-1.9-12.8c-0.2-2.2-0.4-4.4-0.7-6.6c-0.3-2-0.9-4.1-2.6-5.4c-1.6-1.2-3.4-1.1-4.8,0.3
					c-1.5,1.4-2.4,3.4-3.4,5.1c-2.3,4-4.3,8.1-6.4,12.2c-3.9,8-7.8,16.1-12.6,23.6c-4.3,6.6-9.4,12.7-15.7,17.4
					c-6,4.5-12.9,7.5-20.4,8.1c-7,0.6-14.4-0.9-20.2-4.9c-3.2-2.2-5.7-5.2-7.7-8.5c-2.2-3.6-3.8-7.5-5.2-11.5
					c-0.2-0.6,0.6-0.6,0.8-0.1c0.8,1.8,1.7,3.6,2.5,5.4c0.8,1.7,1.7,3.4,2.6,5c1.1,1.9,2.4,3.7,3.9,5.3c2.5,2.6,5.5,4.6,8.9,5.9
					c6.7,2.6,14.2,2.6,21.1,0.7c7.4-2.1,13.8-6.8,19.2-12.2c5.7-5.8,10.1-12.7,14-19.9c4.4-8.1,8.1-16.5,12.5-24.6
					c1.1-2,2.1-4,3.3-5.9c1-1.5,2.2-3,3.9-3.6c1.7-0.6,3.6,0,5,1.1c1.6,1.3,2.4,3.2,2.7,5.2c0.4,2.1,0.5,4.3,0.7,6.4
					c0.2,2.2,0.5,4.4,0.8,6.5c0.6,4.3,1.4,8.5,2.2,12.8c1,4.8,2.1,9.5,3.4,14.2c1.2,4.5,10.1,34.3,11.5,38.3
					c0.7,2,4.7,12.6,5.4,14.7c0,0.1,0.1,0.2,0.1,0.4L299.8,401.8z"/>
				<path class="st5" d="M262.6,301c-6.7,16.2-4.2,41.2,8.2,67.5c2.3-4.8,3.6-8.3,3.6-8.3C265.9,339.8,261.8,313.8,262.6,301z"/>
			</g>
			<g id="XMLID_00000127762339715668186580000013442426477339751090_">
				<g>
					<path class="st6" d="M358.2,427.6c0.4,7.7,10.1,8.7,14.7,10.6c3,1.1,6.3,2.7,9.7,8.2c10.4,13.9,25.7,16.6,44.6,11.8
						c13.3-3.9,13.8-13.7,8.5-17.5C432.7,440.1,358.2,427.6,358.2,427.6z"/>
					<path id="XMLID_00000086651857989821374540000009343280891445374857_" class="st5" d="M358.2,401.7c-1.1,0.5-1.4,1.3-1.1,3.5
						c0.8,5.5-1.5,15.9,1.1,22.4c4.8,8.2,18.4,6.9,23.8,12.8c5.4,5.9,10.6,13.5,26.1,14.9c15.5,1.3,26.5-4.8,28.8-9.4
						c2.3-4.6-0.7-8.4-11-12.6c-10.9-4.4-26.4-19.6-26.4-19.6c-2-2-3.8-4.1-5.5-6.3c-0.8-1-1-2.2-1.3-3.5c-0.4-1.5-0.7-2.9-1.1-4.4
						c-0.2-0.7-0.4-1.4-0.8-1.9c-0.6-0.6-1.5-0.9-2.3-1c-2.1-0.2-4.3,0.3-6.3,0.9c-1.4,0.4-2.7,0.8-4,1.3c-1.9,0.7-3.8,1.4-5.3,2.8
						c-0.6,0.6-1.1,1.3-1.4,2.1c-0.2,0.6-0.1,1.2-0.1,1.8c0.1,2,0.5,3.9,1,5.8c0.1,0.4,0.1,1.1-0.3,1.2c-0.3,0.1-0.5-0.1-0.8-0.2
						c-1.1-0.9-1.6-2.2-2.5-3.2c-1.6-1.7-4.1-1.9-6.2-2.5c-1-0.3-2.2-0.7-3.3-1.8L358.2,401.7z"/>
					<path class="st0" d="M397.9,452.8c-2.4-12.9,18.5-28.4,31.4-19.7c4.5,2.5,11.2,8.2,8,13.1C432.7,456.8,403.7,458.6,397.9,452.8
						z"/>
					<g>
						<path class="st0" d="M378.3,419c2.6-2,8.4-10.3,18-9C393.9,400.9,371,418.4,378.3,419z"/>
						<path class="st0" d="M401.5,415.6c-4.1-8-18.8,6.3-18.6,7.2c-0.8,1.5,1.6,2.6,2.3,1.2C386.3,422.1,393.5,414.8,401.5,415.6z"
							/>
						<path class="st0" d="M415.6,427.3c-4.5-9.2-26,7.3-19.3,8.6C398.9,433.8,405.5,424.6,415.6,427.3z"/>
						<path class="st0" d="M390.3,430.3c2.6-2,8.2-10.1,17.7-9C404.2,412.8,383.5,429.6,390.3,430.3z"/>
					</g>
				</g>
			</g>
		</g>
	</g>
</g>
<g id="Doodles">
	<g>
		<path class="st4" d="M139.9,123.3c-4,1-7.7,2.9-11.1,5.1c-3.2,2.1-6.2,4.5-9,7.2c-5.2,5-9.7,11.3-10.2,18.7
			c-0.1,1.8,0.1,3.7,1.5,5.1c1.1,1.1,2.8,1.7,4.3,1.9c3.6,0.5,7.5-0.6,10.8-2.1c3.5-1.6,6.6-3.9,9.4-6.5c2.8-2.5,5.6-5.3,7.6-8.6
			c1-1.6,1.8-3.3,2.3-5c0.2-0.8,0.2-1.7-0.6-2.3c-0.7-0.5-1.7-0.5-2.5-0.5c-3.9,0.2-7.1,3.2-9.8,5.8c-2.9,2.7-5.4,5.8-7.6,9.1
			c-1.1,1.7-2.2,3.4-3.1,5.1c-0.9,1.8-1.7,3.8-1.9,5.8c-0.2,3.8,2.3,6.8,5.8,8c3.9,1.3,8.3,0.4,12-1c3.5-1.3,6.8-3.3,9.6-5.9
			c2.7-2.5,5-5.7,5.4-9.4c0.2-1.6-0.1-3.5-1.9-4c-1.8-0.5-3.4,1-4.6,2.1c-2.5,2.4-5.3,5.3-5.6,8.9c-0.3,2.8,1.1,6.1,3.9,7.2
			c3.5,1.4,6.7-1.4,8.5-4.1c1-1.5,1.8-3.2,1.3-5c-0.1-0.4-0.7-0.6-1-0.3c-1.8,1.3-3,3.4-3.2,5.6c-0.1,1,0,2.2,0.8,3
			c0.8,0.9,2.2,1.1,3.3,1.1c2.4,0,4.7-1.2,6.5-2.8c0.9-0.9,1.7-1.9,2.5-3c0.7-1,1.4-2.1,1.9-3.2c0.5-1.1,0.7-2.2,0.3-3.3
			c-0.4-1-1.1-1.7-2.2-1.9c-2.3-0.4-4.1,2-4.8,3.9c-0.8,2.1-0.9,4.7-0.6,6.9c0.3,2.2,1.6,3.9,3.7,4.8c2.1,0.9,4.6,0.7,6.6-0.5
			c2.3-1.3,3.5-3.5,4.3-5.9c0.1-0.4-0.7-0.9-0.8-0.4c-1,3.2-3.9,6.6-7.6,6.4c-1.6-0.1-3.3-0.8-4.2-2.1c-1.1-1.7-1-4-0.8-6
			c0.2-1.8,0.6-3.6,1.8-5c0.6-0.7,1.8-1.6,2.7-1.1c0.8,0.4,1,1.5,0.9,2.3c-0.1,1.1-0.7,2.1-1.3,3c-0.5,0.9-1.1,1.8-1.7,2.6
			c-1.3,1.6-2.9,3.1-4.8,3.8c-1.1,0.4-2.2,0.6-3.4,0.4c-0.6-0.1-1.2-0.2-1.5-0.7c-0.3-0.5-0.3-1.1-0.3-1.6c0-2.2,1.1-4.2,2.9-5.5
			c-0.3-0.1-0.7-0.2-1-0.3c0.5,1.8-0.7,3.6-1.8,5c-1,1.3-2.2,2.5-3.8,3c-2.8,0.9-4.9-1.5-5.4-4.1c-0.6-3.1,1.2-6,3.2-8.2
			c1.1-1.2,2.2-2.5,3.6-3.3c0.6-0.4,1.4-0.8,2-0.2c0.5,0.6,0.5,1.5,0.4,2.2c-0.3,3.4-2.4,6.3-4.8,8.6c-2.4,2.3-5.2,4.2-8.3,5.5
			c-3.2,1.3-7,2.3-10.5,1.7c-3.1-0.6-5.9-2.8-6.2-6.1c-0.1-1.9,0.5-3.7,1.3-5.4c0.7-1.6,1.6-3.1,2.5-4.5c1.9-3,4-5.8,6.4-8.3
			c1.2-1.3,2.5-2.5,3.9-3.7c1.3-1.1,2.6-2.1,4.2-2.8c0.7-0.3,4.2-1.5,4.1,0.1c0,0.8-0.5,1.6-0.8,2.3c-0.3,0.8-0.7,1.5-1.1,2.2
			c-1.7,2.9-4,5.5-6.5,7.8c-2.5,2.3-5.2,4.5-8.2,6.2c-2.9,1.6-6.1,2.8-9.5,3c-2.7,0.2-6.2-0.4-6.8-3.6c-0.3-1.6,0-3.3,0.4-4.8
			c0.3-1.6,0.9-3.1,1.6-4.5c1.3-2.9,3.2-5.5,5.4-7.9c2.2-2.5,4.7-4.7,7.3-6.7c2.8-2.2,5.7-4.2,8.8-5.8c1.9-0.9,3.8-1.7,5.8-2.3
			c0.3-0.1,0.4-0.4,0.2-0.7C140.6,123.3,140.2,123.2,139.9,123.3L139.9,123.3z"/>
	</g>
	<g>
		<g>
			<path class="st12" d="M376.6,168.5c-0.6,3.4-2.5,6.3-5.2,8.4c-6.1,4.8-14.1,4.7-21.4,4.3c-1.5-0.1-3.1-0.1-4.6,0.4
				c-1.5,0.5-2.5,1.6-3.2,2.9c-0.7,1.4-1.3,3-2.9,3.8c-1.5,0.7-3.2,0.5-4.8,0.3c-2.7-0.4-6.3-1.3-8.6,0.8c-1.2,1.2-1.4,2.8-2.3,4.2
				c-0.7,1.2-2.1,2-3.4,2.2c-0.5,0.1-1,0.1-1.5,0.1c1.4-0.4,2.5-1.4,3.1-2.7c1.5-2.9,1.1-6.9,3.6-9.3c1.1-1.1,2.7-1.5,4.2-1.8
				c1.5-0.4,3.1-0.7,4.4-1.6c3.4-2.1-0.7-6.5-2.5-8.3c-2.5-2.5-4.9-5.1-6.5-8.3c-1.5-3.1-2.2-6.6-1.6-10c1.2-7.1,8.9-10.9,15.3-12.3
				c7.1-1.6,14.5-0.7,21.1,2.3c3.2,1.5,6.2,3.4,8.9,5.7c2.6,2.3,4.9,5,6.4,8.2C376.6,161.2,377.3,164.9,376.6,168.5z"/>
			<path class="st4" d="M377.8,164.2c-0.5-7.2-5.3-13-10.8-17.2c-5.9-4.4-13-7-20.4-7.1c-7.1-0.2-14.7,1.8-20.1,6.6
				c-1.3,1.1-2.4,2.4-3.1,3.9c-0.7,1.5-1.2,3.1-1.3,4.7c-0.3,3.4,0.6,6.9,2.2,10c0.8,1.5,1.8,3,3,4.4c1.2,1.4,2.5,2.6,3.7,3.9
				c1.2,1.3,2.4,2.6,3,4.3c0.1,0.4,0.2,0.9,0.2,1.3c-0.1,0.5-0.6,0.8-1,1.1c-0.7,0.4-1.4,0.6-2.2,0.9c-1.5,0.4-3.1,0.7-4.5,1.4
				c-1.5,0.7-2.6,1.8-3.3,3.3c-0.7,1.5-0.9,3.2-1.3,4.8c-0.4,1.6-0.9,3.4-2.3,4.4c-0.8,0.6-2.2,1-3.2,0.7c0,0-0.1,0-0.1-0.1
				c-0.1,0-0.1,0-0.1,0c-0.3-0.1-0.5-0.3-0.7-0.5c-0.3-0.3-0.8-0.1-0.5,0.3c0.3,0.4,0.7,0.7,1.1,0.8c0,0,0,0,0.1,0
				c2.3,1.3,5.5,1,7.5-0.8c1.2-1.1,1.5-2.8,2.3-4.2c0.9-1.5,2.4-2,4-2.1c3.1-0.1,6.3,1.4,9.4,0.3c1.5-0.6,2.5-1.8,3.1-3.2
				c0.7-1.5,1.4-2.9,3.1-3.6c1.5-0.6,3.3-0.5,4.9-0.4c2,0.1,4.1,0.2,6.1,0.2c3.8-0.1,7.6-0.6,11.1-2.1c3-1.3,5.8-3.3,7.6-6
				C377.3,171.2,378,167.7,377.8,164.2z M376.6,168.5c-0.6,3.4-2.5,6.3-5.2,8.4c-6.1,4.8-14.1,4.7-21.4,4.3
				c-1.5-0.1-3.1-0.1-4.6,0.4c-1.5,0.5-2.5,1.6-3.2,2.9c-0.7,1.4-1.3,3-2.9,3.8c-1.5,0.7-3.2,0.5-4.8,0.3c-2.7-0.4-6.3-1.3-8.6,0.8
				c-1.2,1.2-1.4,2.8-2.3,4.2c-0.7,1.2-2.1,2-3.4,2.2c-0.5,0.1-1,0.1-1.5,0.1c1.4-0.4,2.5-1.4,3.1-2.7c1.5-2.9,1.1-6.9,3.6-9.3
				c1.1-1.1,2.7-1.5,4.2-1.8c1.5-0.4,3.1-0.7,4.4-1.6c3.4-2.1-0.7-6.5-2.5-8.3c-2.5-2.5-4.9-5.1-6.5-8.3c-1.5-3.1-2.2-6.6-1.6-10
				c1.2-7.1,8.9-10.9,15.3-12.3c7.1-1.6,14.5-0.7,21.1,2.3c3.2,1.5,6.2,3.4,8.9,5.7c2.6,2.3,4.9,5,6.4,8.2
				C376.6,161.2,377.3,164.9,376.6,168.5z"/>
		</g>
		<g>
			<path class="st4" d="M343.3,150.9c0.9,1.8,2.3,3.4,3.5,5c1.1,1.5,2.3,3.1,3.4,4.6c1.1,1.5,2.1,3,3.2,4.5c1.1,1.6,2.1,3.2,3.2,4.7
				c0.1,0.2,0.4,0.2,0.6,0.2c1.1-0.2,0.2-1.4-0.2-1.9c-0.6-0.8-1.1-1.7-1.7-2.5c-1.2-1.7-2.4-3.4-3.6-5.2c-1.2-1.6-2.3-3.3-3.6-4.9
				c-1.3-1.7-2.6-3.6-4.1-5.1C343.7,150.2,343.1,150.4,343.3,150.9L343.3,150.9z"/>
		</g>
		<g>
			<path class="st4" d="M361.2,154.4c-4.1,1.3-8.3,2.7-12.4,4.1c-2,0.7-4.1,1.4-6.1,2.1c-1,0.4-2,0.7-3,1.1c-0.9,0.3-2.4,0.6-3,1.4
				c-0.1,0.1,0,0.3,0.1,0.4c0.6,0.5,1.8-0.1,2.5-0.3c1-0.4,2-0.7,3-1.1c2.1-0.7,4.1-1.4,6.2-2.2c2.1-0.8,4.3-1.5,6.4-2.3
				c2.3-0.8,4.5-1.7,6.7-2.6C362,154.9,361.6,154.3,361.2,154.4L361.2,154.4z"/>
		</g>
	</g>
	<g>
		<g>
			<path class="st12" d="M143.2,260.5c-0.3,1-0.9,1.9-1.7,2.6c-1.9,1.7-4.9,2.1-7.3,2h0c-4.1-0.3-8.4-3.3-8.8-7.5
				c-0.1-0.9,0.1-1.8,0-2.7c-0.1-0.7-0.4-1.4-0.8-2c-1.1-1.5-3.1-2.1-4.9-2.4c-2.3-0.4-4.7-0.4-7-0.5c-2.5,0-5,0-7.5,0
				c-4.5,0-9-0.2-13.4-1.2c-3.7-0.9-7.2-2.4-10.2-4.7c-3.1-2.5-5.2-6-6.6-9.8c-2.8-7.6-2.3-16.1,1-23.5c3.1-7.1,8.6-13,15.1-17.2
				c7-4.5,16.2-7.4,24.4-4.2c7.4,3,12.6,10,15.4,17.3c1.6,4,2.4,8.4,1.9,12.8c-0.2,2.2-0.7,4.2-1.5,6.3c-0.8,2.1-1.8,4.1-2.6,6.2
				c-1.2,3.3-1.6,7.3,0.3,10.4c0.5,0.7,1,1.4,1.7,1.9c0.7,0.6,1.6,0.9,2.4,1.3c0.8,0.4,1.6,1,1.9,1.9c0.3,0.9,0.2,1.9-0.1,2.7
				c-0.5,1.9-1.8,3.4-2.4,5.3c-0.6,1.6-0.9,3.4,0,4.9c0.9,1.6,2.9,2.1,4.6,2.2c1.7,0.1,3.5-0.2,5-1.1
				C142.4,261.1,142.8,260.8,143.2,260.5z"/>
			<path class="st4" d="M143.5,257.8c-1,3.4-5.6,4.2-8.5,2.9c-4.3-1.9,0.1-7.4,1-10c0.6-1.8,0.8-3.8-0.6-5.3c-1.3-1.4-3.3-1.7-4.6-3
				c-2.6-2.7-2.2-7-1-10.3c0.8-2.1,1.8-4.1,2.6-6.2c0.8-2,1.4-4.1,1.6-6.3c0.5-4.3-0.2-8.8-1.7-12.9c-2.6-7.4-7.8-14.5-14.9-18
				c-7.9-3.9-17.1-2-24.6,2.1c-6.7,3.7-12.6,9.2-16.4,15.9c-3.9,6.9-5.5,14.9-4,22.7c0.8,4,2.3,7.9,4.7,11.3c2.2,3.1,5.5,5.4,9,6.9
				c8.3,3.6,17.4,2.9,26.3,3.1c2.4,0,5,0.1,7.4,0.5c1.7,0.3,3.8,1.1,4.3,2.9c0.2,0.9,0.1,1.8,0.1,2.7c0,1,0.2,2,0.6,2.8
				c0.8,1.8,2.1,3.2,3.8,4.2c1.7,1.1,3.7,1.7,5.7,1.9h0c1.7,0.1,3.3,0.1,4.9-0.4c1.2-0.3,2.3-0.9,3.2-1.7c1.7-1.5,2.4-3.7,2.3-5.9
				C144.7,257.3,143.7,257.2,143.5,257.8z M141.4,263.1c-1.9,1.7-4.9,2.1-7.3,2h0c-4.1-0.3-8.4-3.3-8.8-7.5c-0.1-0.9,0.1-1.8,0-2.7
				c-0.1-0.7-0.4-1.4-0.8-2c-1.1-1.5-3.1-2.1-4.9-2.4c-2.3-0.4-4.7-0.4-7-0.5c-2.5,0-5,0-7.5,0c-4.5,0-9-0.2-13.4-1.2
				c-3.7-0.9-7.2-2.4-10.2-4.7c-3.1-2.5-5.2-6-6.6-9.8c-2.8-7.6-2.3-16.1,1-23.5c3.1-7.1,8.6-13,15.1-17.2c7-4.5,16.2-7.4,24.4-4.2
				c7.4,3,12.6,10,15.4,17.3c1.6,4,2.4,8.4,1.9,12.8c-0.2,2.2-0.7,4.2-1.5,6.3c-0.8,2.1-1.8,4.1-2.6,6.2c-1.2,3.3-1.6,7.3,0.3,10.4
				c0.5,0.7,1,1.4,1.7,1.9c0.7,0.6,1.6,0.9,2.4,1.3c0.8,0.4,1.6,1,1.9,1.9c0.3,0.9,0.2,1.9-0.1,2.7c-0.5,1.9-1.8,3.4-2.4,5.3
				c-0.6,1.6-0.9,3.4,0,4.9c0.9,1.6,2.9,2.1,4.6,2.2c1.7,0.1,3.5-0.2,5-1.1c0.4-0.2,0.8-0.5,1.2-0.9
				C142.8,261.5,142.3,262.4,141.4,263.1z"/>
		</g>
		<g>
			<path class="st4" d="M84.5,219.1c4.8,0.6,9.6,0.8,14.4,1.1c4.8,0.3,9.6,0.6,14.4,0.9c2.7,0.2,5.5,0.3,8.2,0.5
				c0.9,0.1,1.1-1.3,0.1-1.4c-9.6-0.6-19.2-1.2-28.8-1.6c-2.8-0.1-5.7-0.3-8.5-0.3C83.9,218.2,84.1,219,84.5,219.1L84.5,219.1z"/>
		</g>
		<g>
			<path class="st4" d="M107.4,201.3c-0.5,1.2-0.8,2.5-1.1,3.7c-0.3,1.2-0.6,2.3-0.9,3.5c-0.6,2.4-1.2,4.8-1.9,7.2
				c-1.2,4.7-2.4,9.4-3.6,14.2c-0.7,2.7-1.4,5.4-2.1,8.1c-0.2,0.6,1,0.7,1.1,0.1c2.4-9.5,4.9-18.9,7.3-28.4c0.3-1.3,0.7-2.7,1-4
				c0.3-1.3,0.8-2.8,0.9-4.2C108.2,201.2,107.6,201,107.4,201.3L107.4,201.3z"/>
		</g>
	</g>
	<g>
		<g>
			<path class="st4" d="M362.8,193.8c-1,0.5-1.7,1.3-2.5,2.1c-0.8,0.8-1.6,1.6-2.4,2.5c-1.6,1.7-3.1,3.4-4.6,5.2
				c-2.9,3.5-5.6,7.1-8.1,10.9c-0.7,1.1-1.4,2.2-2.1,3.3c-0.7,1.1-1.6,2.3-2,3.6c-0.2,0.8,0.8,1.1,1.3,0.6c0.8-0.8,1.3-2,1.9-3
				c0.6-1,1.2-2,1.9-3c1.2-1.8,2.4-3.6,3.7-5.4c2.6-3.5,5.4-6.9,8.3-10.2c0.8-0.9,1.7-1.8,2.5-2.7c1-1,2.1-1.9,2.8-3.1
				C363.9,194.2,363.3,193.6,362.8,193.8L362.8,193.8z"/>
		</g>
		<g>
			<path class="st4" d="M339.5,227.4c-0.7-0.5-1.7-0.1-1.9,0.7c-0.2,0.7,0.2,1.5,0.7,1.9c0.6,0.5,1.5,0.6,2.1,0.2
				c0.6-0.3,1-1.1,0.8-1.7c-0.1-0.4-0.4-0.7-0.7-0.9c-0.2-0.1-0.4-0.2-0.6-0.2c-0.2,0-0.4,0-0.6,0.1c-0.2,0.1-0.3,0.1-0.3,0.3
				c0,0.2,0.2,0.4,0.4,0.5c0,0,0.1,0,0.1,0c-0.1,0-0.1,0-0.2,0c0.1,0,0.2,0.1,0.2,0.1c0,0,0.1,0,0.1,0c-0.1,0-0.1,0-0.1,0
				c0,0,0,0,0.1,0c0.1,0-0.1,0,0,0c0.1,0,0,0,0,0c0,0,0.1,0,0.1,0c0,0,0.1,0.1,0.1,0.1c0,0,0,0,0.1,0c0,0-0.1-0.1,0,0
				c0,0,0.1,0.1,0.1,0.1c0,0,0.1,0.1,0,0c-0.1-0.1,0,0,0,0c0,0,0.1,0.1,0.1,0.1c0,0.1,0-0.1,0,0c0,0,0,0,0,0.1c0,0,0,0,0,0.1
				c0,0.1,0,0,0,0c0,0,0,0.1,0,0.1c0,0,0,0,0,0.1c0,0.1,0-0.1,0,0c0,0,0,0.1,0,0.1c0,0,0,0.1,0,0c0-0.1,0,0,0,0c0,0-0.1,0.1-0.1,0.1
				c0,0,0,0,0,0.1c0,0,0.1-0.1,0,0c0,0-0.1,0.1-0.1,0.1c0,0-0.1,0,0,0c0,0,0,0-0.1,0c0,0-0.1,0-0.1,0.1c0,0,0.1,0,0,0
				c0,0-0.1,0-0.1,0c-0.1,0,0.1,0,0,0c0,0,0,0-0.1,0c0,0,0,0-0.1,0c-0.1,0,0,0,0,0c0,0-0.1,0-0.1,0c0,0,0,0-0.1,0
				c-0.1,0,0.1,0.1,0,0c0,0-0.1,0-0.1-0.1c0,0-0.1,0-0.1,0c0,0,0.1,0.1,0,0c0,0-0.1-0.1-0.1-0.1c0,0,0,0-0.1-0.1c0,0,0,0,0,0
				c0,0.1,0.1,0.1,0,0c-0.1-0.1-0.1-0.2-0.2-0.3c0-0.1,0,0,0,0c0,0,0-0.1,0-0.1c0-0.1,0-0.1-0.1-0.2c0-0.1,0,0,0,0c0,0,0-0.1,0-0.1
				c0,0,0-0.1,0-0.1c0,0,0-0.1,0-0.1c0,0,0,0,0-0.1c0,0,0-0.1,0-0.1c0,0,0,0,0-0.1c0-0.1-0.1,0,0,0c0,0,0,0,0.1,0c-0.1,0,0,0,0,0
				c0.1,0,0,0-0.1,0c0,0,0.1,0,0.1,0c0.1,0-0.2,0,0,0c0,0,0.1,0,0,0c-0.1,0,0,0,0,0c0,0-0.1-0.1,0,0c0.2,0.2,0.6,0.1,0.8-0.1
				C339.8,227.8,339.7,227.6,339.5,227.4L339.5,227.4z"/>
		</g>
	</g>
	<g>
		<g>
			<path class="st4" d="M52.9,144.9c0.2,1.2,1,2.3,1.5,3.3c0.6,1,1.1,2,1.7,3c1.2,1.9,2.4,3.8,3.6,5.7c2.5,3.7,5.2,7.2,8.1,10.6
				c0.8,0.9,1.6,1.9,2.5,2.8c0.5,0.5,1,1,1.4,1.5c0.5,0.5,0.9,1.1,1.6,1.4c0.7,0.3,1.4-0.5,1-1.1c-0.3-0.5-0.7-0.9-1.1-1.3
				c-0.4-0.4-0.8-0.9-1.2-1.3c-0.7-0.8-1.5-1.6-2.2-2.5c-1.5-1.7-2.9-3.4-4.3-5.2c-2.7-3.5-5.3-7.2-7.6-11.1
				c-0.7-1.1-1.3-2.2-1.9-3.3c-0.3-0.5-0.6-1.1-0.9-1.6c-0.3-0.6-0.6-1.2-1.1-1.6C53.7,144,52.8,144.3,52.9,144.9L52.9,144.9z"/>
		</g>
		<g>
			<path class="st4" d="M78.6,176.6c-0.3,0.3-0.5,0.6-0.4,1c0,0.4,0.3,0.7,0.6,0.9c0.6,0.4,1.5,0.3,2.1-0.1c0.5-0.3,0.9-0.9,0.8-1.6
				c-0.1-0.7-0.5-1.3-1.2-1.5c-0.4-0.1-0.8-0.1-1.2,0.1C79,175.6,78.6,176,78.6,176.6c0,0.1,0.1,0.2,0.3,0.3c0,0,0,0,0.1,0
				C78.9,176.8,78.8,176.7,78.6,176.6c0.1,0.2,0.2,0.3,0.4,0.5c0.1,0.1,0.3,0.1,0.3,0c0.2-0.2,0.2-0.3,0.3-0.5
				c0-0.1,0.1-0.1,0.1-0.2c0,0,0.1,0,0,0c0,0,0,0,0.1,0c0,0,0,0,0.1,0c0,0,0,0,0,0c0,0,0,0,0,0c0,0,0.1,0,0.1-0.1c0.1,0,0,0,0,0
				c0,0,0,0,0.1,0c0,0,0.1,0,0,0c-0.1,0,0,0,0,0c0,0,0,0,0.1,0c0.1,0-0.2,0,0,0c0,0,0,0,0.1,0c0.1,0-0.1-0.1,0,0c0,0,0.1,0,0.1,0.1
				c0.1,0,0,0,0,0c0,0,0,0,0.1,0c0,0,0.1,0.1,0.1,0.1c0,0-0.1-0.1,0,0c0,0,0,0,0,0.1c0,0,0,0.1,0.1,0.1c0,0.1,0-0.1,0,0
				c0,0,0,0.1,0,0.1c0,0,0,0.1,0,0.1c0,0.1,0,0,0,0c0,0,0,0.1,0,0.1c0,0,0,0.1,0,0.1c0,0,0,0,0,0.1c0,0.1,0,0,0,0c0,0,0,0.1-0.1,0.2
				c0,0,0,0.1,0,0.1c0,0-0.1,0.1,0,0c0,0,0,0,0,0c0,0,0,0,0,0.1c0,0-0.1,0.1-0.1,0.1c0,0,0,0,0,0c0,0-0.1,0.1-0.1,0.1
				c0,0-0.1,0.1-0.1,0.1c-0.1,0.1,0,0,0,0c0,0,0,0-0.1,0c0,0-0.1,0-0.1,0.1c0,0,0,0-0.1,0c-0.1,0,0.1,0,0,0c-0.1,0-0.1,0-0.2,0
				c-0.1,0,0,0,0.1,0c0,0-0.1,0-0.1,0c0,0-0.1,0-0.1,0c0,0,0.1,0,0,0c0,0-0.1,0-0.1,0c0,0-0.1,0-0.1,0c0.1,0,0.1,0,0.1,0
				c0,0,0,0,0,0c0,0,0,0-0.1,0c-0.1-0.1,0.1,0.1,0,0c0,0,0,0-0.1,0c-0.1-0.1,0.1,0.1,0,0c0,0,0,0,0-0.1c-0.1-0.1,0,0.1,0,0
				c0,0,0,0,0-0.1c0,0,0,0,0,0c0-0.1,0,0,0,0c0,0,0-0.1,0-0.1c0-0.1,0,0.1,0,0c0,0,0,0,0-0.1c0-0.1-0.1,0.1,0,0c0,0,0.1-0.1,0,0
				c0.1-0.1,0.2-0.2,0.2-0.3c0-0.1,0-0.3-0.1-0.4C79.2,176.5,78.9,176.4,78.6,176.6L78.6,176.6z"/>
		</g>
	</g>
	<g>
		<path class="st4" d="M172.6,85.4c-3.9-3.3-9.4-3.7-13.7-1.1c-2.3,1.3-4.3,3.4-5,6c-0.7,2.3-0.2,5.2,2.3,6.2
			c0.6,0.2,1.1-0.4,0.5-0.7c-2.1-1-1.9-4.3-1.1-6.1c1-2.2,3-3.9,5.2-4.8c2.3-1,4.9-1.1,7.3-0.3c2.4,0.8,4.4,2.5,5.8,4.7
			c1.4,2.2,2.1,4.9,1.7,7.6c-0.4,2.9-2.1,5.1-4.6,6.6c-2.6,1.5-5.6,2.3-8.1,4.2c-2.1,1.6-4,4.3-3.4,7c0.5,2.9,3.7,5.3,6.5,3.5
			c1.1-0.7,1.9-2.1,1.5-3.4c-0.5-1.5-2-2.3-3.5-1.7c-0.2,0.1-0.3,0.4-0.2,0.6c0.1,0.2,0.4,0.3,0.7,0.3c0.6-0.1,1.2,0.4,1.5,0.9
			c0.4,0.7,0.3,1.5-0.3,2c-1,0.9-2.4,0.7-3.3-0.1c-2.1-1.9-1.3-4.8,0.4-6.7c2-2.2,5.1-3.1,7.7-4.4c2.6-1.3,4.8-3,6-5.7
			C178.4,94.7,176.6,88.8,172.6,85.4z"/>
		<g>
			<path class="st4" d="M165.2,126.9c0-0.2-0.1-0.4-0.3-0.5c0,0-0.1-0.1-0.1-0.1c-0.1-0.1-0.2-0.2-0.4-0.2c-0.2-0.1-0.3-0.1-0.5-0.1
				c-0.1,0-0.1,0.1-0.2,0.1c-0.1,0.4,0,0.5,0.1,0.7c0,0,0,0,0,0c0,0.1,0.1,0.2,0.1,0.3c0,0,0,0,0,0.1c0,0,0,0,0,0c0,0,0,0,0,0
				c0,0,0,0,0,0c0,0,0,0,0,0c0,0,0,0,0,0.1c0,0,0,0.1,0,0.1c0,0,0,0,0,0.1c0,0.1,0,0.1,0,0c0,0.1-0.1,0.2-0.1,0.2c0,0,0,0,0,0
				c0,0-0.1,0.1-0.1,0.1c0,0,0,0,0,0c0,0-0.1,0-0.1,0.1c0,0,0,0,0,0c0,0,0,0,0,0c0,0,0,0,0,0c0,0,0,0,0,0c0,0,0,0,0,0c0,0,0,0-0.1,0
				c0,0-0.1,0-0.1,0c0,0,0,0,0,0c0,0-0.1,0-0.1,0c0,0,0,0,0,0c0,0-0.1,0-0.1,0c0,0,0,0-0.1,0c0,0-0.1-0.1-0.1-0.1c0,0,0,0,0,0
				c0,0,0,0-0.1,0c0,0-0.1-0.1-0.1-0.1c0,0,0,0,0,0c0,0,0-0.1-0.1-0.1c0,0,0,0,0-0.1c0,0,0,0,0,0c0,0,0,0,0,0c0,0,0-0.1,0-0.1
				c0,0,0-0.1,0-0.1c0,0,0-0.1,0-0.1c0,0,0-0.1,0-0.1c0,0,0,0,0,0c0,0,0,0,0,0c0,0,0-0.1,0-0.1c0-0.1,0-0.1,0.1-0.2c0,0,0-0.1,0-0.1
				c0,0,0,0,0,0c0-0.1,0.1-0.1,0.1-0.1c0.1-0.1,0.2-0.2,0.3-0.3c0,0,0.1-0.1,0.1-0.1c0.1,0,0.1-0.1,0.2-0.1c0,0,0,0,0.1,0
				c0.2,0,0.3-0.2,0.2-0.4c-0.1-0.2-0.2-0.3-0.4-0.3c-0.2,0-0.3-0.1-0.5,0c-0.1,0-0.2,0.1-0.3,0.1c-0.2,0.1-0.3,0.1-0.4,0.2
				c-0.3,0.2-0.5,0.5-0.6,0.8c-0.3,0.6-0.2,1.4,0.3,1.9c0.4,0.5,1.1,0.8,1.8,0.7c0.6-0.1,1.2-0.5,1.4-1.1
				C165.2,127.6,165.3,127.2,165.2,126.9z"/>
			<path class="st4" d="M163.7,127.9C163.7,127.9,163.7,127.9,163.7,127.9C163.7,127.9,163.7,127.9,163.7,127.9
				C163.7,127.9,163.7,127.9,163.7,127.9z"/>
			<path class="st4" d="M164,127.2C164,127.2,164,127.2,164,127.2C164,127.2,164,127.2,164,127.2C164,127.2,164,127.2,164,127.2z"/>
		</g>
	</g>
	<g>
		<path class="st4" d="M416.7,222.2c0.6-6.4-2.9-12.7-8.2-16c-5.6-3.5-13-3.9-19.2-1.6c-6,2.2-11.1,7.1-12.2,13.5
			c-0.6,3.2-0.2,6.5,1.4,9.3c1.5,2.8,3.9,4.9,6.6,6.4c2.6,1.5,5.5,2.9,8.5,3.1c2.8,0.2,5.8-1.1,6.7-3.9c0.8-2.6-0.2-5.5-1.7-7.6
			c-1.7-2.5-4.5-4.1-7.4-4.7c-2.9-0.7-6.2-0.5-8.9,1c-2.5,1.4-4.2,3.7-5.3,6.2c-1.4,3.1-2,6.7-1,10c0.9,2.8,3,5.3,5.7,6.3
			c1.3,0.5,3,0.5,4.1-0.3c1.1-0.8,1.4-2.3,1-3.5c-1-2.7-4.2-3.9-6.9-3.7c-2.6,0.2-5.3,1.5-6.5,4c-1,2.2-0.5,4.9,1,6.8
			c0.8,1,1.9,1.6,3.1,1.8c0.7,0.1,0.8-0.8,0.2-0.9c-2.2-0.4-3.5-2.7-3.6-4.8c-0.1-2.3,1.2-4.3,3.3-5.2c2.1-0.9,5.1-0.8,6.9,0.7
			c0.8,0.7,1.7,2,1.3,3.1c-0.4,1.4-2,1.4-3.1,1c-2.5-0.7-4.4-3.1-5.2-5.4c-1-2.9-0.6-6.1,0.6-8.9c0.9-2.2,2.3-4.4,4.4-5.7
			c2.2-1.4,5-1.7,7.6-1.3c2.6,0.4,5.2,1.6,6.9,3.7c1.5,1.8,2.6,4.3,2.2,6.6c-0.4,2.7-3,3.7-5.4,3.5c-2.7-0.2-5.4-1.5-7.8-2.9
			c-2.3-1.4-4.5-3.2-5.9-5.5c-1.5-2.4-1.9-5.3-1.6-8.1c0.7-5.6,4.7-10.1,9.7-12.4c5.2-2.4,11.5-2.6,16.8-0.5
			c5.2,2.1,9.3,6.7,10.4,12.3c0.2,1.3,0.3,2.6,0.2,3.9C415.7,222.7,416.7,222.8,416.7,222.2L416.7,222.2z"/>
	</g>
	<g>
		<path class="st4" d="M107.5,318.5c-5.1,4-12.6,4.6-18,0.9c-5.3-3.7-7.8-10.6-5.9-16.8c1.9-6.2,6.9-11,12.9-13.2
			c5.8-2.1,13-1.7,18,2.3c2.5,2.1,4.2,5.1,4.1,8.4c0,3-1.6,5.8-4.5,6.9c-2.6,1-5.7,0.5-7.3-2c-1.8-2.7-1.2-6.3,0.5-8.9
			c1.9-2.8,5-4.9,8.2-6.2c3.2-1.2,6.9-1.6,10.1-0.4c2.8,1.1,5.3,3.2,6.4,6.1c0.5,1.3,0.7,2.7,0.4,4.1c-0.3,1.1-1,2.5-2.2,2.8
			c-1.6,0.4-2.8-1-3.5-2.2c-0.7-1.2-0.9-2.7-0.9-4.1c0.1-2.9,1.5-5.7,3.8-7.4c2.3-1.7,5.4-1.9,8.1-0.9c2.8,1,5.6,3.6,5.6,6.7
			c0,1.6-1.1,3.4-2.9,3.5c-0.7,0-0.5,0.9,0.1,0.9c1.8-0.1,3.3-1.3,3.8-3c0.6-1.9-0.1-3.9-1.1-5.5c-1.9-2.7-5.1-4.3-8.3-4.4
			c-3.3-0.1-6.4,1.4-8.4,4c-1.9,2.6-2.6,6.2-1.7,9.3c0.5,1.6,1.5,3.2,3,4c1.4,0.7,3.1,0.4,4.2-0.6c2.5-2.3,2.1-6.1,0.6-8.8
			c-1.6-3-4.7-5.2-8-6c-3.9-1-8.1-0.1-11.6,1.7c-3.4,1.7-6.5,4.3-8,7.8c-1.3,3.2-0.9,7.3,1.8,9.6c2.4,2,6,2,8.7,0.5
			c3.1-1.7,4.6-5.2,4.3-8.6c-0.6-7.9-8.7-12-15.9-12.1c-7-0.1-13.9,3.2-18.2,8.7c-2.4,3-4,6.8-4.1,10.7c-0.1,3.5,1,7,3,9.9
			c2,2.9,4.9,5.1,8.3,6.1c3.5,1,7.4,0.9,10.8-0.4c1.6-0.6,3.2-1.5,4.5-2.7C108.6,318.8,107.9,318.1,107.5,318.5L107.5,318.5z"/>
	</g>
	<g>
		<path class="st5" d="M236.4,41.6c-4.7-3.9-11.1-0.9-14.4,3.4c-1.5,2-2.7,4.6-2.3,7.2c0.4,2.9,2.7,4.8,5.3,5.8
			c0.9,0.3,1.9,0.6,2.9,0.7c1.2,0.2,2.3,0.4,3.5,0.4c2.3-0.1,4.5-0.9,6.3-2.3c3.7-2.8,5.6-7.5,4.6-12c-0.5-2.1-2.4-4-4.1-5.2
			c-1.9-1.3-4-2.2-6.2-2.8c-4.6-1.2-9.5-1-13.7,1.5c-2.1,1.2-3.8,2.9-5.2,4.8c-1.4,1.9-2.3,4.2-3.1,6.4c-1.4,3.9-1.7,8.1-0.6,12.1
			c1,3.6,3.1,6.9,6.2,9c3.5,2.3,7.9,2.8,11.9,2c2.6-0.5,5-1.3,7.2-2.9c2-1.5,3.7-3.6,4.3-6.1c0.6-2.5,0.1-5.3-1.3-7.5
			c-1.5-2.4-3.8-4-6.3-5.3c-5.3-2.9-11.4-4-17.4-3.2c-2.7,0.4-5.4,1.1-7.8,2.5c-2.2,1.3-4.2,3-5.8,5c-3.4,4.4-5.4,10.3-4.1,15.8
			c1.1,4.9,5,8.5,9.6,10.1c3.3,1.2,6.9,1.3,10.4,1c3.6-0.4,7.3-1.2,10.6-3c2.9-1.6,5.4-4,6.1-7.3c0.4-1.7,0.3-3.4-0.6-4.9
			c-0.9-1.6-2.4-3-3.9-4c-3.4-2.3-7.6-3.8-11.7-3.7c-0.9,0-1.8,0.1-2.7,0.4c-1,0.3-1.7,0.7-2.5,1.4c-1.4,1.4-2,3.3-1.8,5.2
			c0.2,2,1.1,3.9,2.3,5.5c0.6,0.9,1.4,1.6,2.2,2.3c0.8,0.7,1.8,1.2,2.7,1.7c4.7,2.6,10.1,4,15.5,3.4c5.2-0.5,10.7-2.8,13.5-7.4
			c1.2-2,1.7-4.5,0.9-6.8c-0.5-1.4-1.4-2.6-2.5-3.6c-2.1-1.8-5.2-2.7-7.9-2.4c-2.6,0.3-4.8,1.8-5.1,4.6c-0.4,3.4,1.8,6.9,4.4,9
			c2.8,2.2,6.3,3.1,9.8,3.1c3.4-0.1,6.9-1.2,9.6-3.4c2.8-2.4,4.4-6.1,4.1-9.8c-0.7-8-9.5-15.7-17.7-13.6c-1.1,0.3-2,0.7-2.8,1.4
			c-0.8,0.7-1.5,1.5-2.1,2.4c-1,1.5-1.4,3.2-1.3,5c0.2,3.7,2.9,6.7,6.3,7.9c2,0.7,4.2,0.8,6.4,0.6c2-0.2,3.9-0.8,5.6-2
			c2.9-2.1,4.2-5.6,3.8-9.1c-0.5-4.5-3.6-8-6.7-11.1c-3.8-3.7-8.5-6.8-13.8-7.8c-4.7-0.9-9.8,0.2-13.9,2.5
			c-4.1,2.2-7.2,5.9-8.1,10.5c-0.8,4-0.4,8.8,2.9,11.7c1.7,1.5,4.1,2.1,6.3,2.5c1.9,0.4,4,0.5,5.9,0.3c3.2-0.4,6.3-1.9,8-4.7
			c1.9-3.2,1.8-7.3,1-10.9c-0.3-1.1-0.5-2.4-1-3.4c-0.5-1-1.1-1.9-1.8-2.8c-1.3-1.7-2.9-3.2-4.7-4.5c-3.7-2.6-8.1-4.1-12.6-4.7
			c-2.2-0.3-4.4-0.4-6.6-0.3c-1.1,0-2.2,0.2-3.3,0.3c-1.1,0.2-2,0.5-3,0.9c-3.9,1.7-7.3,4.7-9.7,8.2c-2.3,3.4-3.8,7.5-3.4,11.7
			c0.2,2,0.8,4,1.9,5.7c1.3,2,3.1,3.6,4.9,5.2c7.8,6.6,18.8,10,28.9,8.2c2.4-0.4,4.8-1.1,6.9-2.2c1.8-1,3.4-2.4,4.7-4
			c2.5-3.3,3.7-7.5,3.6-11.6c-0.1-2.1-0.5-4.2-1.3-6.1c-0.9-2.2-2.3-4-4-5.5c-3.7-3.4-8.6-5.3-13.6-5.7c-4.4-0.3-9,0.7-12.5,3.6
			c-3.1,2.6-5.1,6.2-5.7,10.2c-0.6,4.2,0.6,8.5,3.3,11.8c2.9,3.6,6.9,6.1,11.3,7.7c4.4,1.5,9.1,2.1,13.7,1.7
			c2.3-0.2,4.6-0.7,6.8-1.4c1-0.3,2-0.8,3-1.2c1.1-0.5,2-1.2,3-2c7.1-5.5,12-15.2,9.4-24.2c-0.7-2.3-1.8-4.4-3.2-6.2
			c-1.4-1.8-3.5-3.3-5.5-4.4c-4.3-2.5-9.2-4-14.1-4.3c-4.7-0.3-9.7,0.5-13.7,3.1c-3.5,2.2-6.1,5.7-7.2,9.7
			c-1.1,3.9-0.8,8.1,0.6,11.9c0.8,1.9,1.8,3.6,3.1,5.2c1.5,1.8,3.4,3.2,5.3,4.5c4.5,3.2,9.9,5.3,15.5,5.1c4.4-0.2,8.8-2.4,11.7-5.6
			c1.4-1.5,2.4-3.4,2.8-5.4c0.2-1,0.2-2.1,0-3.1c-0.2-1-0.5-2.4-1.2-3.2c-1.8-2-3.9-3.7-6.1-5.1c-2.2-1.5-4.7-2.6-7.4-3.2
			c-2.4-0.5-5.3-0.5-7.5,0.7c-1.8,1-3.3,2.5-4.3,4.3c-2.1,3.6-2.8,8.3-0.8,12.1c1.8,3.4,6.1,4.3,9.4,2.6c3.4-1.7,5-5.6,3.8-9.2
			c-0.2-0.5-1.2-0.5-1,0c1.2,3.5-0.6,7.3-4.1,8.7c-1.6,0.6-3.4,0.7-4.9-0.1c-1.8-0.9-2.8-2.6-3.2-4.6c-0.8-3.8,0.5-8.2,3.1-11.1
			c1.5-1.6,3.3-2.5,5.5-2.8c2.5-0.3,5.1,0.4,7.4,1.4c2.4,1,4.5,2.5,6.5,4.2c0.9,0.8,2,1.6,2.7,2.6c0.6,0.8,0.9,2.1,1,3.1
			c0.5,4.1-2.2,7.7-5.4,10c-1.7,1.2-3.6,2.1-5.7,2.6c-2.2,0.5-4.4,0.5-6.6,0.1c-2.7-0.4-5.3-1.4-7.7-2.7c-2.2-1.2-4.3-2.7-6.2-4.3
			c-5.8-5-7.8-13.7-4.6-20.6c1.7-3.7,4.8-6.6,8.5-8.1c4.2-1.7,8.9-2.1,13.4-1.4c4.5,0.7,8.9,2.4,12.6,5c0.9,0.6,1.8,1.3,2.6,2.1
			c0.8,0.8,1.5,1.8,2.1,2.8c1.1,1.9,1.9,3.9,2.2,6.1c1.4,8.6-3.8,17.4-10.7,22.2c-3.5,2.4-7.9,3.5-12.1,3.7
			c-4.3,0.3-8.8-0.3-12.8-1.9c-4-1.5-7.7-4-10.4-7.3c-2.5-3.1-3.5-7.2-2.9-11c0.5-3.7,2.5-7.2,5.4-9.6c3.3-2.7,7.5-3.7,11.7-3.4
			c4.6,0.3,9.2,2.1,12.7,5.2c1.6,1.5,3,3.2,3.9,5.2c0.8,1.8,1.2,3.8,1.3,5.7c0.2,3.9-0.8,7.8-3.1,11c-1.1,1.6-2.5,2.9-4.2,3.9
			c-1.9,1.1-4.1,1.8-6.2,2.2c-9.5,2-19.9-0.9-27.5-6.7c-3.4-2.6-6.7-5.6-7.6-9.9c-0.8-3.8,0.2-7.7,2.1-11c2-3.5,5-6.6,8.5-8.6
			c0.9-0.5,1.8-0.9,2.7-1.3c0.9-0.4,1.9-0.5,2.9-0.6c2.1-0.2,4.1-0.3,6.2-0.1c7.9,0.6,17,4.1,20.6,11.7c0.5,1,0.7,2.3,1,3.4
			c0.2,1,0.4,2,0.4,3c0.1,1.7,0,3.5-0.5,5.1c-0.9,2.8-3,4.9-5.8,5.9c-3.5,1.1-7.5,0.5-11-0.6c-2-0.6-3.6-1.9-4.6-3.9
			c-0.9-1.8-1.1-3.8-1-5.8c0.1-2.1,0.5-4.1,1.4-6c1-2,2.4-3.7,4.1-5c3.4-2.7,7.8-4.1,12.2-4.3c5.1-0.2,9.9,2.2,13.8,5.2
			c2,1.6,3.8,3.3,5.4,5.3c1.3,1.6,2.5,3.1,3.2,5.1c1.1,3.1,1,6.7-1,9.4c-2.3,3.1-6.5,4-10.1,3.7c-3.5-0.3-6.8-2.4-7.9-5.8
			c-1.1-3.5,0.6-7,3.5-9.1c0.8-0.6,1.8-0.8,2.8-0.9c0.9-0.1,1.9-0.1,2.8,0c1.9,0.2,3.7,1,5.4,2c3.3,2.1,6,5.5,6.9,9.4
			c0.8,3.5-0.1,7.2-2.6,9.9c-2.2,2.4-5.3,3.7-8.4,4.1c-3.2,0.4-6.6-0.2-9.4-1.8c-2.8-1.7-5-4.6-5.3-7.9c-0.2-2.5,1.3-4.4,3.7-4.9
			c2.4-0.6,5.2,0.1,7.2,1.5c1.1,0.8,2,1.8,2.6,3c0.9,2,0.7,4.2-0.3,6.2c-2.3,4.7-7.6,7-12.5,7.6c-5.1,0.6-10.3-0.5-14.8-2.8
			c-1.8-1-3.5-1.9-4.9-3.5c-1.3-1.5-2.2-3.3-2.5-5.2c-0.3-1.9,0.3-3.8,1.6-5.1c0.7-0.7,1.4-1.1,2.3-1.3c0.8-0.2,1.7-0.3,2.5-0.3
			c3.8,0,7.8,1.4,10.9,3.6c1.4,1,2.7,2.2,3.5,3.7c0.7,1.4,0.7,3.1,0.3,4.6c-0.8,3-3.3,5.2-6,6.6c-3,1.6-6.5,2.4-9.8,2.7
			c-3.1,0.3-6.4,0.2-9.5-0.8c-4.4-1.5-8.2-4.8-9.3-9.4c-1.3-5.2,0.5-10.9,3.8-15.1c1.5-1.9,3.3-3.6,5.4-4.9c2.3-1.3,4.8-2.1,7.4-2.5
			c5.7-0.9,11.4,0,16.5,2.6c2.4,1.2,4.9,2.8,6.4,5.1c1.4,2.1,1.9,4.8,1.3,7.2c-0.7,2.4-2.4,4.4-4.4,5.8c-2.1,1.4-4.4,2.1-6.8,2.5
			c-3.8,0.6-7.8,0.1-10.9-2.1c-2.9-2-4.8-5.2-5.6-8.5c-0.9-3.7-0.6-7.7,0.7-11.4c0.7-2.1,1.6-4.2,2.9-6c1.3-1.9,2.9-3.4,4.9-4.6
			c3.9-2.4,8.5-2.7,12.8-1.7c2.1,0.5,4.2,1.3,6,2.6c1.6,1.2,3.4,2.9,3.8,4.9c0.9,4.3-1.1,8.8-4.7,11.3c-1.8,1.2-3.9,1.9-6,1.9
			c-1.1,0-2.2-0.3-3.2-0.5c-0.9-0.2-1.8-0.4-2.6-0.8c-2.3-1-4.1-2.8-4.2-5.4c-0.1-2.4,1.1-4.7,2.6-6.5c3-3.6,8.6-6.4,12.8-2.9
			C236.5,42.5,236.9,42,236.4,41.6L236.4,41.6z"/>
	</g>
	<g>
		<path class="st2" d="M23.8,245.2c0,0.2,14.8,14.6,14.8,14.6l12.3-6.6L69,278.9c0,0-8.4-21.7-11.3-34.8l-10.2,2.4l-7.9-17.9
			L23.8,245.2z"/>
		<path class="st13" d="M23.8,245.2c0,0.2,14.8,14.6,14.8,14.6l12.3-6.6L69,278.9c0,0-8.4-21.7-11.3-34.8l-10.2,2.4l-7.9-17.9
			L23.8,245.2z"/>
		<g>
			<path class="st4" d="M26.1,247.6c2.9,3.2,5.9,6.3,8.9,9.4c0.8,0.8,1.6,1.6,2.4,2.4c0.5,0.5,1.1,1,1.9,0.9
				c0.5-0.1,0.9-0.3,1.2-0.6c0.5-0.3,1-0.6,1.5-0.9c0.9-0.5,1.9-1.1,2.8-1.6c2.1-1.2,4.3-2.4,6.4-3.6c-0.3-0.1-0.6-0.1-0.9-0.2
				c4.3,7.1,8.9,14,13.8,20.6c1.4,1.9,2.8,3.8,4.3,5.6c0.3,0.4,1.4,0.2,1.1-0.5c-3.6-9-6.8-18.1-9.3-27.5c-0.7-2.6-1.4-5.3-2-8
				c-0.1-0.3-0.5-0.4-0.8-0.3c-2.4,0.8-4.8,1.5-7.2,2.3c-0.5,0.2-1.1,0.4-1.6,0.5c-0.3,0.1-0.5,0.1-0.7-0.2
				c-0.1-0.2-0.2-0.5-0.4-0.7c-0.5-1.1-1-2.2-1.5-3.3c-2-4.5-3.8-9-5.7-13.5c-0.2-0.4-0.8-0.4-1.1-0.1c-2.5,2.5-4.9,4.9-7.3,7.5
				c-2.3,2.4-4.8,4.9-6.9,7.6c-0.3,0.4,0.4,0.9,0.8,0.6c2.5-2.4,4.8-5,7.2-7.5c2.4-2.5,4.8-5,7.3-7.4c-0.4,0-0.7-0.1-1.1-0.1
				c1.6,3.8,3.2,7.7,4.8,11.5c0.8,1.9,1.7,3.8,2.6,5.7c0.3,0.7,0.8,1.3,1.6,1.3c0.9,0,1.9-0.5,2.8-0.8c2.3-0.7,4.6-1.4,6.9-2.2
				c-0.3-0.1-0.5-0.2-0.8-0.3c2.2,9.4,5,18.7,8.3,27.8c0.9,2.6,1.9,5.1,3,7.7c0.4-0.2,0.7-0.3,1.1-0.5c-5.1-6.5-9.8-13.2-14.3-20.1
				c-1.3-2-2.5-3.9-3.7-5.9c-0.2-0.3-0.6-0.4-0.9-0.2c-2.2,1.3-4.4,2.5-6.7,3.8c-1.1,0.6-2.1,1.2-3.2,1.8c-0.5,0.3-1.3,1-1.9,0.9
				c-0.5-0.1-0.9-0.8-1.2-1.1c-3.6-3.7-7.2-7.5-11.1-11C26.2,246.9,25.8,247.3,26.1,247.6L26.1,247.6z"/>
		</g>
	</g>
	<g>
		<g>
			<path class="st2" d="M352.9,111.6c-0.9-1.7-0.3-4,1.2-5.1c1.5-1.1,3.9-0.9,5.3,0.4c0.9-2.7,2-5.5,4.3-7c2.3-1.6,6.2-1.1,7.1,1.6
				c0.5-4.9,1.1-9.9,3.5-14.2c2.4-4.3,7.1-7.7,11.9-7.1c4.4,0.6,7.9,4.3,9.5,8.5c1.6,4.2,1.6,8.8,1.5,13.3c3.1-4.2,9.1-5.7,14.1-4
				c4.9,1.7,8.6,6.2,9.8,11.3c1.2,5.1,0.1,10.5-2.5,15c-20.9-4.5-42.1-7.8-63.4-9.9L352.9,111.6z"/>
		</g>
		<g class="st14">
			<path class="st12" d="M352.9,111.6c-0.9-1.7-0.3-4,1.2-5.1c1.5-1.1,3.9-0.9,5.3,0.4c0.9-2.7,2-5.5,4.3-7c2.3-1.6,6.2-1.1,7.1,1.6
				c0.5-4.9,1.1-9.9,3.5-14.2c2.4-4.3,7.1-7.7,11.9-7.1c4.4,0.6,7.9,4.3,9.5,8.5c1.6,4.2,1.6,8.8,1.5,13.3c3.1-4.2,9.1-5.7,14.1-4
				c4.9,1.7,8.6,6.2,9.8,11.3c1.2,5.1,0.1,10.5-2.5,15c-20.9-4.5-42.1-7.8-63.4-9.9L352.9,111.6z"/>
		</g>
		<g>
			<path class="st4" d="M355.2,114.8c8.3,1,16.7,2,25,3.2c8.2,1.2,16.3,2.6,24.5,4.1c4.6,0.9,9.2,1.8,13.8,2.8
				c0.3,0.1,0.6-0.1,0.8-0.4c3.4-5.9,4.3-13.5,0.9-19.6c-2.9-5.4-8.8-9-15-8.1c-3.3,0.5-6.5,2.1-8.5,4.8c0.4,0.1,0.8,0.2,1.2,0.3
				c0-4.3,0-8.7-1.4-12.8c-1.1-3.3-3.2-6.3-6.2-8.1c-3-1.8-6.6-1.9-9.8-0.5c-3.3,1.5-5.9,4.3-7.5,7.6c-2,4.2-2.5,8.9-3,13.5
				c0.5-0.1,0.9-0.2,1.4-0.3c-1-2.8-4.5-3.4-7-2.5c-3.2,1.3-4.7,4.9-5.7,8c0.4-0.1,0.8-0.2,1.1-0.3c-1.6-1.6-4.4-1.8-6.2-0.4
				c-1.7,1.3-2.3,3.8-1.3,5.7c0.3,0.6,1.5,0.3,1.2-0.4c-0.7-1.4-0.4-3.4,0.9-4.4c1.3-1.1,3.3-0.8,4.5,0.3c0.3,0.3,1,0.2,1.1-0.3
				c0.9-2.5,2-5.8,4.6-7c1.9-0.9,4.7-0.5,5.5,1.6c0.3,0.7,1.3,0.4,1.4-0.3c0.8-7,1.8-15.2,8.4-19.2c2.8-1.7,6.1-2,9.1-0.5
				c2.8,1.4,4.9,4.2,6,7.1c1.6,4.2,1.6,8.8,1.5,13.2c0,0.6,0.9,0.7,1.2,0.3c3.4-4.4,9.7-5.5,14.7-3.2c5.4,2.6,8.5,8.4,8.5,14.3
				c0,3.7-1.1,7.4-2.9,10.6c0.3-0.1,0.5-0.2,0.8-0.4c-8.1-1.7-16.3-3.3-24.5-4.7c-8.3-1.4-16.6-2.6-24.9-3.6
				c-4.7-0.6-9.4-1.1-14.1-1.4C354.6,113.9,354.6,114.7,355.2,114.8L355.2,114.8z"/>
		</g>
		<g>
			<path class="st4" d="M368.1,121.4c0,0-0.9,1.6-1,1.7c-0.3,0.4-0.5,0.9-0.8,1.3c-0.5,0.8-1.2,1.6-1.6,2.5c-0.1,0.2-0.1,0.4,0,0.5
				c0,0,0,0.1,0.1,0.1c0.1,0.2,0.3,0.2,0.5,0.2c0.8-0.2,1.3-1.1,1.7-1.8c0.3-0.4,0.5-0.8,0.8-1.3c0.3-0.5,0.6-1,0.9-1.6
				c0.3-0.5,0.5-1,0.7-1.5c0.1-0.3-0.2-0.6-0.5-0.6c-0.1,0-0.3,0-0.4,0C368.4,121.1,368,121.4,368.1,121.4L368.1,121.4z"/>
		</g>
		<g>
			<path class="st4" d="M375.3,131.6c0,0-0.9,1.6-1,1.7c-0.3,0.4-0.5,0.9-0.8,1.3c-0.5,0.8-1.2,1.6-1.6,2.5c-0.1,0.2-0.1,0.4,0,0.5
				c0,0,0,0.1,0.1,0.1c0.1,0.2,0.3,0.2,0.5,0.2c0.8-0.2,1.3-1.1,1.7-1.8c0.3-0.4,0.5-0.8,0.8-1.3c0.3-0.5,0.6-1,0.9-1.6
				c0.3-0.5,0.5-1,0.7-1.5c0.1-0.3-0.2-0.6-0.5-0.6c-0.1,0-0.3,0-0.4,0C375.6,131.3,375.2,131.6,375.3,131.6L375.3,131.6z"/>
		</g>
		<g>
			<path class="st4" d="M388.2,125.6c0,0-0.9,1.6-1,1.7c-0.3,0.4-0.5,0.9-0.8,1.3c-0.5,0.8-1.2,1.6-1.6,2.5c-0.1,0.2-0.1,0.4,0,0.5
				c0,0,0,0.1,0.1,0.1c0.1,0.2,0.3,0.2,0.5,0.2c0.8-0.2,1.3-1.1,1.7-1.8c0.3-0.4,0.5-0.8,0.8-1.3c0.3-0.5,0.6-1,0.9-1.6
				c0.3-0.5,0.5-1,0.7-1.5c0.1-0.3-0.2-0.6-0.5-0.6c-0.1,0-0.3,0-0.4,0C388.5,125.3,388.2,125.5,388.2,125.6L388.2,125.6z"/>
		</g>
		<g>
			<path class="st4" d="M408.6,127.1c0,0-0.9,1.6-1,1.7c-0.3,0.4-0.5,0.9-0.8,1.3c-0.5,0.8-1.2,1.6-1.6,2.5c-0.1,0.2-0.1,0.4,0,0.5
				c0,0,0,0.1,0.1,0.1c0.1,0.2,0.3,0.2,0.5,0.2c0.8-0.2,1.3-1.1,1.7-1.8c0.3-0.4,0.5-0.8,0.8-1.3c0.3-0.5,0.6-1,0.9-1.6
				c0.3-0.5,0.5-1,0.7-1.5c0.1-0.3-0.2-0.6-0.5-0.6c-0.1,0-0.3,0-0.4,0C408.9,126.8,408.6,127,408.6,127.1L408.6,127.1z"/>
		</g>
		<g>
			<path class="st4" d="M396,134.3c0,0-0.9,1.6-1,1.7c-0.3,0.4-0.5,0.9-0.8,1.3c-0.5,0.8-1.2,1.6-1.6,2.5c-0.1,0.2-0.1,0.4,0,0.5
				c0,0,0,0.1,0.1,0.1c0.1,0.2,0.3,0.2,0.5,0.2c0.8-0.2,1.3-1.1,1.7-1.8c0.3-0.4,0.5-0.8,0.8-1.3c0.3-0.5,0.6-1,0.9-1.6
				c0.3-0.5,0.5-1,0.7-1.5c0.1-0.3-0.2-0.6-0.5-0.6c-0.1,0-0.3,0-0.4,0C396.3,134,395.9,134.3,396,134.3L396,134.3z"/>
		</g>
	</g>
	<g>
		<g>
			<path class="st2" d="M139.2,82.5c-19.2,9.5-37.8,20.1-55.8,31.8c-3.9-3.2-6.7-7.7-7.8-12.8c-0.6-2.6-0.4-5.4,1-7.7
				c1.3-2.2,3.7-3.5,6.2-3.9c1.2-0.2,2.6-0.2,3.8,0.1c0.6,0.2,3.3,1.2,3.4,1.7c-1-3.7-1.4-7.5-1.3-11.3c0-1.7,0.2-3.5,0.9-5
				c1.8-4.1,6.9-5.8,11.3-4.9c4.3,0.9,8,3.8,11.1,7c0.3-1.4,0.7-2.8,1.7-3.8c1.5-1.6,4.2-1.7,6.2-0.9c2.1,0.9,3.7,2.5,5.2,4.1
				c-0.2-2.5,1.7-4.9,4.1-5.6c2.4-0.7,5.1,0,7,1.7c1.9,1.7,2.9,4.1,3.2,6.6L139.2,82.5z"/>
		</g>
		<g class="st15">
			<path class="st12" d="M139.2,82.5c-19.2,9.5-37.8,20.1-55.8,31.8c-3.9-3.2-6.7-7.7-7.8-12.8c-0.6-2.6-0.4-5.4,1-7.7
				c1.3-2.2,3.7-3.5,6.2-3.9c1.2-0.2,2.6-0.2,3.8,0.1c0.6,0.2,3.3,1.2,3.4,1.7c-1-3.7-1.4-7.5-1.3-11.3c0-1.7,0.2-3.5,0.9-5
				c1.8-4.1,6.9-5.8,11.3-4.9c4.3,0.9,8,3.8,11.1,7c0.3-1.4,0.7-2.8,1.7-3.8c1.5-1.6,4.2-1.7,6.2-0.9c2.1,0.9,3.7,2.5,5.2,4.1
				c-0.2-2.5,1.7-4.9,4.1-5.6c2.4-0.7,5.1,0,7,1.7c1.9,1.7,2.9,4.1,3.2,6.6L139.2,82.5z"/>
		</g>
		<g>
			<path class="st4" d="M139,82.1c-7.6,3.6-15,7.5-22.3,11.5c-7.3,4-14.6,8.2-21.7,12.6c-4,2.5-8,5-11.9,7.5c0.3,0,0.6,0,0.8,0
				c-3.9-3.2-6.7-7.8-7.6-12.7c-0.5-2.5-0.2-5.4,1.4-7.5c1.5-1.9,3.8-2.9,6.2-3.1c1.2-0.1,2.2,0.1,3.3,0.5c0.5,0.2,1,0.4,1.4,0.6
				c0.2,0.1,0.3,0.2,0.5,0.3c0.1,0,0.1,0.1,0.2,0.1c0,0,0.1,0.1,0,0c0.3,0.8,1.5,0.3,1.3-0.5c-0.8-3.1-1.2-6.2-1.3-9.4
				c-0.1-2.7,0-5.8,1.9-8c1.4-1.7,3.6-2.7,5.8-3c2.5-0.3,4.9,0.2,7.2,1.3c2.8,1.4,5.2,3.5,7.3,5.7c0.3,0.4,1,0.1,1.1-0.4
				c0.3-1.3,0.7-2.8,1.7-3.8c0.9-0.8,2.2-1,3.3-0.9c2.9,0.3,5,2.5,6.9,4.5c0.4,0.4,1.2,0,1.2-0.5c-0.1-1.7,0.7-3.2,2-4.2
				c1.4-1.1,3.2-1.3,4.8-0.9c3.6,0.9,5.7,4.4,6.2,7.9c0.1,0.7,1.3,0.6,1.3-0.1c-0.4-3.3-2-6.5-4.9-8.1c-2.8-1.5-6.4-1.4-8.8,0.9
				c-1.2,1.2-2,2.9-1.9,4.6c0.4-0.2,0.8-0.3,1.2-0.5c-2.2-2.3-4.8-4.8-8.2-4.8c-1.4,0-2.9,0.4-3.9,1.4c-1.2,1.1-1.7,2.8-2.1,4.3
				c0.4-0.1,0.8-0.3,1.1-0.4c-3.9-4-9-7.9-14.9-7.3c-2.5,0.2-4.9,1.2-6.7,2.9c-2.1,2.1-2.7,4.9-2.8,7.8c-0.1,3.9,0.4,7.8,1.3,11.6
				c0.4-0.2,0.9-0.3,1.3-0.5c-0.3-0.8-1.4-1.1-2.1-1.4c-0.9-0.4-1.8-0.8-2.8-0.9c-2.8-0.4-5.9,0.5-8,2.3c-4.8,4-3.4,11-0.9,15.9
				c1.5,2.9,3.5,5.4,6,7.4c0.2,0.2,0.6,0.2,0.8,0c6.9-4.5,14-8.8,21.1-13c7.1-4.2,14.3-8.2,21.6-12.1c4.3-2.3,8.7-4.6,13-6.8
				C140,82.6,139.4,81.9,139,82.1L139,82.1z"/>
		</g>
		<g>
			<path class="st4" d="M96.7,110.7c0,0.7,0.1,1.3,0.2,2c0.1,0.6,0.2,1.2,0.2,1.9c0.1,0.7,0.1,1.5,0.2,2.2c0,0.3,0.1,0.6,0.2,0.8
				c0.1,0.2,0.4,0.4,0.7,0.4c0.3-0.1,0.4-0.4,0.5-0.7c0.1-0.4,0.1-0.9,0.1-1.3c0-0.6-0.1-1.3-0.2-1.9c-0.1-0.6-0.1-1.1-0.2-1.7
				c-0.1-0.7-0.2-1.4-0.5-2C97.6,109.9,96.7,110.2,96.7,110.7L96.7,110.7z"/>
		</g>
		<g>
			<path class="st4" d="M108.6,114.4c0,0.7,0.1,1.3,0.2,2c0.1,0.6,0.2,1.2,0.2,1.9c0.1,0.7,0.1,1.5,0.2,2.2c0,0.3,0.1,0.6,0.2,0.8
				c0.1,0.2,0.4,0.4,0.7,0.4c0.3-0.1,0.4-0.4,0.5-0.7c0.1-0.4,0.1-0.9,0.1-1.3c0-0.6-0.1-1.3-0.2-1.9c-0.1-0.6-0.1-1.1-0.2-1.7
				c-0.1-0.7-0.2-1.4-0.5-2C109.5,113.6,108.7,113.9,108.6,114.4L108.6,114.4z"/>
		</g>
		<g>
			<path class="st4" d="M115.2,101.7c0,0.7,0.1,1.3,0.2,2c0.1,0.6,0.2,1.2,0.2,1.9c0.1,0.7,0.1,1.5,0.2,2.2c0,0.3,0.1,0.6,0.2,0.8
				c0.1,0.2,0.4,0.4,0.7,0.4c0.3-0.1,0.4-0.4,0.5-0.7c0.1-0.4,0.1-0.9,0.1-1.3c0-0.6-0.1-1.3-0.2-1.9c-0.1-0.6-0.1-1.1-0.2-1.7
				c-0.1-0.7-0.2-1.4-0.5-2C116.1,100.9,115.3,101.2,115.2,101.7L115.2,101.7z"/>
		</g>
		<g>
			<path class="st4" d="M132.3,90.5c0,0.7,0.1,1.3,0.2,2c0.1,0.6,0.2,1.2,0.2,1.9c0.1,0.7,0.1,1.5,0.2,2.2c0,0.3,0.1,0.6,0.2,0.8
				c0.1,0.2,0.4,0.4,0.7,0.4c0.3-0.1,0.4-0.4,0.5-0.7c0.1-0.4,0.1-0.9,0.1-1.3c0-0.6-0.1-1.3-0.2-1.9c-0.1-0.6-0.1-1.1-0.2-1.7
				c-0.1-0.7-0.2-1.4-0.5-2C133.2,89.7,132.4,90,132.3,90.5L132.3,90.5z"/>
		</g>
		<g>
			<path class="st4" d="M126.7,104c0,0.7,0.1,1.3,0.2,2c0.1,0.6,0.2,1.2,0.2,1.9c0.1,0.7,0.1,1.5,0.2,2.2c0,0.3,0.1,0.6,0.2,0.8
				c0.1,0.2,0.4,0.4,0.7,0.4c0.3-0.1,0.4-0.4,0.5-0.7c0.1-0.4,0.1-0.9,0.1-1.3c0-0.6-0.1-1.3-0.2-1.9c-0.1-0.6-0.1-1.1-0.2-1.7
				c-0.1-0.7-0.2-1.4-0.5-2C127.6,103.2,126.7,103.5,126.7,104L126.7,104z"/>
		</g>
	</g>
	<g>
		<g>
			<path class="st4" d="M386.9,183.1c0.9-0.7,1.5-1.7,2.4-2.4c0.9-0.8,1.9-1.5,2.9-2.1c2-1.1,4.2-1.8,6.5-2c4.3-0.4,9,0.9,12.1,3.9
				c0.7,0.7,1.3,1.4,1.7,2.2c0.4,0.7,0.7,1.4,1,2.1c0.3,0.7,0.5,1.4,1,2c0.2,0.2,0.6,0.2,0.7-0.1c0.4-1.3-0.2-3-0.8-4.2
				c-0.5-1-1-1.8-1.7-2.6c-1.5-1.7-3.4-2.9-5.4-3.7c-4.9-2-10.5-1.8-15.1,0.7c-1.3,0.7-2.5,1.6-3.6,2.6c-1,0.9-2.2,2-2.6,3.3
				C385.8,183.2,386.5,183.4,386.9,183.1L386.9,183.1z"/>
		</g>
		<g>
			<path class="st4" d="M395.3,162.9c-0.1,0.6-0.1,1.3-0.1,1.9c0,0.5,0,0.9,0.1,1.4c0,0.9,0.1,1.9,0.1,2.8c0.1,0.9,1.5,0.8,1.4-0.1
				c0-1-0.1-2-0.1-3c0-0.5,0-1-0.1-1.4c0-0.6,0-1.2-0.3-1.7C396.2,162.3,395.4,162.4,395.3,162.9L395.3,162.9z"/>
		</g>
		<g>
			<path class="st4" d="M408.4,164.3c-0.2,0.5-0.2,1.1-0.3,1.6c-0.1,0.5-0.1,1-0.2,1.5c-0.1,0.9-0.2,1.9-0.2,2.8
				c0,0.9,1.4,0.7,1.5-0.1c0-1,0.1-1.9,0.2-2.8c0.1-0.5,0.1-1,0.2-1.5c0.1-0.5,0.2-1,0.1-1.5c0-0.3-0.4-0.4-0.6-0.4
				C408.8,163.9,408.5,164.1,408.4,164.3L408.4,164.3z"/>
		</g>
	</g>
	<g>
		<polygon class="st2" points="423.1,252.8 411.5,272.4 399.3,266.4 390.4,281.8 385.2,279.1 387.8,291.9 400.1,288.1 395.7,285.3 
			402,276.4 414.9,282.7 431.9,260.8 		"/>
		<polygon class="st16" points="423.1,252.8 411.5,272.4 399.3,266.4 390.4,281.8 385.2,279.1 387.8,291.9 400.1,288.1 395.7,285.3 
			402,276.4 414.9,282.7 431.9,260.8 		"/>
		<g>
			<path class="st4" d="M387.8,292.4c-0.1,0-0.2,0-0.3-0.1c-0.1-0.1-0.2-0.2-0.2-0.3l-2.5-12.9c0-0.2,0-0.4,0.2-0.5
				c0.2-0.1,0.4-0.1,0.5,0l5,2.7c0.2,0.1,0.3,0.4,0.2,0.7s-0.4,0.3-0.7,0.2l-4.1-2.2l2.2,11.3l10.8-3.4l-3.4-2.2
				c-0.1-0.1-0.2-0.2-0.2-0.3c0-0.1,0-0.3,0.1-0.4l6.2-8.9c0.1-0.2,0.4-0.3,0.6-0.2l12.5,6.2l16.5-21.3l-8-7.2l-11.3,19
				c-0.1,0.2-0.4,0.3-0.6,0.2l-11.8-5.7l-7.3,12.5c-0.1,0.2-0.4,0.3-0.7,0.2c-0.2-0.1-0.3-0.4-0.2-0.7l7.5-12.9
				c0.1-0.2,0.4-0.3,0.7-0.2l11.8,5.7l11.4-19.2c0.1-0.1,0.2-0.2,0.4-0.2c0.2,0,0.3,0,0.4,0.1l8.8,8c0.2,0.2,0.2,0.5,0.1,0.7
				L415.3,283c-0.1,0.2-0.4,0.2-0.6,0.1l-12.5-6.2l-5.7,8.1l3.9,2.5c0.2,0.1,0.3,0.3,0.2,0.5c0,0.2-0.2,0.4-0.3,0.4l-12.3,3.9
				C387.9,292.4,387.8,292.4,387.8,292.4z"/>
		</g>
	</g>
	<g>
		<path class="st4" d="M336.1,79c-0.9-2.3-2.9-3.8-5.1-4.8c-2.4-1.1-5-1.7-7.6-2c-5.2-0.5-10.4,0.6-14.6,3.8
			c-3.5,2.7-6.1,6.9-6.1,11.4c-0.1,4.3,2,8.7,5.7,11.1c2.3,1.5,5.1,2.1,7.8,2.7c3,0.7,6,1.4,9,1.5c4.1,0.1,10.6-1,11.2-6.1
			c0.3-2.5-1.2-4.7-2.9-6.4c-1.8-1.8-4-3.2-6.3-4.2c-4.6-2.1-9.9-2.4-14.8-1c-4.8,1.4-9.2,4.6-11.8,8.9c-1.3,2.1-2,4.6-2,7.1
			c0.1,2.3,0.8,4.6,1.9,6.7c2.5,4.5,7,7.4,11.7,9c2.5,0.8,5.1,1.4,7.7,1.7c2.7,0.3,5.4,0.5,8,0c2.2-0.4,5.2-1.2,6.4-3.3
			c1.2-2.2-0.4-4.5-2-5.9c-1.9-1.6-4.4-2.5-6.8-3.1c-2.6-0.6-5.2-0.7-7.8-0.3c-4.5,0.7-8.8,3.1-11.4,7c-2.6,3.8-2.6,8.7,0.1,12.5
			c2.8,3.9,8,5.5,12.6,3.8c1-0.4,2.2-0.9,3-1.7c0.7-0.7,1.3-1.7,1.1-2.7c-0.2-1.1-1.3-1.5-2.3-1.7c-1.3-0.4-2.7-0.6-4.1-0.8
			c-2.8-0.3-5.7-0.2-8.4,0.4c-2,0.5-4.1,1.3-5.6,2.9c-1.5,1.6-1.9,3.8-1.2,5.8c0.7,1.9,2.4,3.4,4.5,3.7c2,0.3,4.1-0.5,5.4-2.1
			c0.1-0.2,0.1-0.4,0-0.5c-1.3-1.4-3.1-1.9-4.9-2.2c-1.7-0.2-3.5-0.3-5.2,0c-1.5,0.3-3,1.3-3,3c-0.1,2.1,1.7,3.6,3,4.9
			c0.2,0.1,0.2-0.2,0.1-0.3c-1.2-1.1-2.6-3-2.3-4.8c0.3-1.5,1.7-2.1,3.1-2.3c1.4-0.2,2.9-0.1,4.3,0.1c1.5,0.2,3,0.6,4.1,1.8
			c0-0.2,0-0.3,0-0.5c-1.2,1.5-3.3,2.2-5.2,1.7c-1.9-0.5-3.2-2.4-3.3-4.3c-0.3-4.6,5.2-6.2,8.9-6.7c2.6-0.3,5.3-0.2,7.9,0.3
			c0.6,0.1,1.1,0.2,1.7,0.4c0.6,0.2,1.4,0.3,1.6,1c0.2,0.9-0.8,2-1.4,2.4c-3.5,2.5-8.8,2.2-12-0.7c-3.1-2.8-4.1-7.4-2.5-11.2
			c1.6-3.7,5-6.4,8.8-7.7c4.5-1.5,9.5-1.2,13.7,0.8c1.9,0.9,4.2,2.2,4.7,4.4c0.7,2.5-2.1,3.8-4.1,4.4c-2.3,0.7-4.8,0.8-7.2,0.6
			c-2.4-0.2-4.7-0.6-7-1.1c-4.4-1.1-8.8-3.1-11.8-6.6c-2.8-3.3-4.4-7.7-3.3-12c1.1-4.4,4.7-8,8.5-10.1c4-2.2,8.6-3,13.1-2.2
			c4.3,0.8,8.9,3,11.7,6.6c1.3,1.7,2.3,4.1,1.1,6.2c-0.9,1.7-2.8,2.7-4.7,3.1c-5.1,1.3-10.5-0.2-15.4-1.5c-2.3-0.6-4.6-1.3-6.5-2.8
			c-1.5-1.2-2.6-2.9-3.3-4.7c-1.4-3.8-1-7.9,1.1-11.4c5.1-8.3,16.5-9.5,24.9-5.7c1.9,0.9,3.6,2.1,4.6,4
			C335.5,79.6,336.4,79.6,336.1,79L336.1,79z"/>
	</g>
</g>
</svg>
