<?xml version="1.0" encoding="UTF-8"?><svg id="PATTERN" xmlns="http://www.w3.org/2000/svg" viewBox="0 0 500 500"><defs><style>.cls-1{fill:#f0f0f0;}.cls-2{fill:#fff;}.cls-3{fill:#fafafa;}.cls-4{fill:#f5f5f5;}.cls-5,.cls-6,.cls-7,.cls-8,.cls-9,.cls-10{fill:none;}.cls-5,.cls-9{opacity:.8;}.cls-6{opacity:.7;}.cls-7{opacity:.4;}.cls-11{opacity:.26;}.cls-11,.cls-12{fill:#007cff;}.cls-13{fill:#e1e1e1;}.cls-14{fill:#e7e7e7;}.cls-8,.cls-9{isolation:isolate;}.cls-15{fill:#efefef;}.cls-16{fill:#ececec;}.cls-17{fill:#1a2e35;}.cls-10{opacity:.1;}</style></defs><rect class="cls-11" x="-1.25" y="-1.25" width="502.5" height="502.5"/><polygon class="cls-16" points="394.12 287.25 394.39 400.81 402.63 400.81 450.53 400.81 458.77 400.81 459.14 287.25 394.12 287.25"/><polygon class="cls-16" points="406.69 272.79 406.72 298.12 411.82 298.12 441.47 298.12 446.57 298.12 446.62 272.79 406.69 272.79"/><polygon class="cls-3" points="406.64 298.12 398.22 298.12 398.21 290.53 406.63 290.53 406.64 298.12"/><rect class="cls-3" x="414.37" y="290.53" width="8.42" height="7.59"/><rect class="cls-3" x="430.53" y="290.53" width="8.42" height="7.59"/><polygon class="cls-1" points="455.1 298.12 446.68 298.12 446.7 290.53 455.12 290.53 455.1 298.12"/><polygon class="cls-1" points="406.53 311.94 398.31 311.94 398.29 304.54 406.52 304.54 406.53 311.94"/><rect class="cls-1" x="414.43" y="304.54" width="8.23" height="7.4"/><rect class="cls-3" x="430.57" y="304.54" width="8.23" height="7.4"/><polygon class="cls-3" points="454.92 311.94 446.69 311.94 446.71 304.54 454.94 304.54 454.92 311.94"/><polygon class="cls-1" points="406.46 325.43 398.43 325.43 398.41 318.21 406.45 318.21 406.46 325.43"/><rect class="cls-3" x="414.54" y="318.21" width="8.04" height="7.22"/><rect class="cls-3" x="430.65" y="318.21" width="8.04" height="7.22"/><rect class="cls-3" x="414.16" y="279.51" width="8.58" height="7.74"/><rect class="cls-1" x="430.33" y="279.51" width="8.59" height="7.74"/><polygon class="cls-1" points="454.79 325.43 446.76 325.43 446.77 318.21 454.81 318.21 454.79 325.43"/><polygon class="cls-3" points="406.44 338.59 398.59 338.59 398.57 331.54 406.43 331.54 406.44 338.59"/><rect class="cls-1" x="414.68" y="331.54" width="7.85" height="7.05"/><polygon class="cls-1" points="438.63 338.59 430.78 338.59 430.79 331.54 438.64 331.54 438.63 338.59"/><polygon class="cls-3" points="454.72 338.59 446.87 338.59 446.89 331.54 454.74 331.54 454.72 338.59"/><polygon class="cls-1" points="406.79 353.39 398.04 353.39 398.02 345.55 406.78 345.55 406.79 353.39"/><polygon class="cls-3" points="422.85 353.39 414.1 353.39 414.1 345.55 422.86 345.55 422.85 353.39"/><polygon class="cls-3" points="438.92 353.39 430.17 353.39 430.17 345.55 438.93 345.55 438.92 353.39"/><polygon class="cls-1" points="454.98 353.39 446.23 353.39 446.25 345.55 455 345.55 454.98 353.39"/><polygon class="cls-1" points="406.84 365.89 398.29 365.89 398.27 358.24 406.83 358.24 406.84 365.89"/><rect class="cls-3" x="414.34" y="358.24" width="8.55" height="7.66"/><rect class="cls-1" x="430.41" y="358.24" width="8.55" height="7.66"/><polygon class="cls-3" points="455.01 365.89 446.46 365.89 446.48 358.24 455.03 358.24 455.01 365.89"/><polygon class="cls-3" points="406.66 379.96 398.32 379.96 398.31 372.51 406.65 372.51 406.66 379.96"/><rect class="cls-3" x="414.35" y="372.51" width="8.34" height="7.46"/><rect class="cls-1" x="430.38" y="372.51" width="8.34" height="7.46"/><polygon class="cls-1" points="454.74 379.96 446.41 379.96 446.42 372.51 454.76 372.51 454.74 379.96"/><polygon class="cls-1" points="406.66 392.75 398.52 392.75 398.51 385.48 406.65 385.48 406.66 392.75"/><polygon class="cls-3" points="454.71 392.75 446.58 392.75 446.59 385.48 454.73 385.48 454.71 392.75"/><polygon class="cls-4" points="438.76 385.48 414.46 385.48 414.51 387.31 415.18 387.31 415.19 400.81 417.62 400.81 417.61 387.31 435.65 387.31 435.63 400.81 438.06 400.81 438.08 387.31 438.81 387.31 438.76 385.48"/><polygon class="cls-14" points="426.73 400.81 417.73 400.81 417.72 387.31 426.74 387.31 426.73 400.81"/><polygon class="cls-16" points="435.52 400.81 426.51 400.81 426.52 387.31 435.54 387.31 435.52 400.81"/><polygon class="cls-4" points="394.21 323.38 394.39 400.81 384.06 400.81 324 400.81 313.66 400.81 312.92 323.38 394.21 323.38"/><polygon class="cls-14" points="378.76 340.59 388.84 340.59 388.81 331.54 378.73 331.54 378.76 340.59"/><polygon class="cls-14" points="358.65 340.59 368.73 340.59 368.69 331.54 358.6 331.54 358.65 340.59"/><polygon class="cls-14" points="338.54 340.59 348.62 340.59 348.56 331.54 338.47 331.54 338.54 340.59"/><polygon class="cls-14" points="318.43 340.59 328.51 340.59 328.43 331.54 318.35 331.54 318.43 340.59"/><polygon class="cls-14" points="378.38 358.24 389.24 358.24 389.21 348.5 378.34 348.5 378.38 358.24"/><polygon class="cls-14" points="358.31 358.24 369.17 358.24 369.12 348.5 358.25 348.5 358.31 358.24"/><polygon class="cls-14" points="338.23 358.24 349.09 358.24 349.03 348.5 338.16 348.5 338.23 358.24"/><polygon class="cls-14" points="318.16 358.24 329.02 358.24 328.94 348.5 318.07 348.5 318.16 358.24"/><polygon class="cls-14" points="378.66 374.38 389.2 374.38 389.18 364.94 378.62 364.94 378.66 374.38"/><polygon class="cls-14" points="358.61 374.38 369.15 374.38 369.11 364.94 358.55 364.94 358.61 374.38"/><polygon class="cls-14" points="338.55 374.38 349.1 374.38 349.04 364.94 338.48 364.94 338.55 374.38"/><polygon class="cls-14" points="318.5 374.38 329.04 374.38 328.97 364.94 318.42 364.94 318.5 374.38"/><polygon class="cls-14" points="378.89 390.95 389.11 390.95 389.09 381.81 378.85 381.81 378.89 390.95"/><polygon class="cls-14" points="318.81 390.95 329.04 390.95 328.96 381.81 318.73 381.81 318.81 390.95"/><polygon class="cls-4" points="338.09 381.81 369.71 381.81 369.72 384.57 367.7 384.57 367.78 400.81 364.85 400.81 364.77 384.57 343.07 384.57 343.18 400.81 340.26 400.81 340.14 384.57 338.11 384.57 338.09 381.81"/><polygon class="cls-14" points="354.09 400.81 364.92 400.81 364.84 384.57 353.99 384.57 354.09 400.81"/><polygon class="cls-16" points="343.11 400.81 353.94 400.81 353.85 384.57 343 384.57 343.11 400.81"/><path class="cls-16" d="m152.1,257.09v-3.65c0-.56-.87-.56-.87,0v4c0,.25.2.41.43.43,1.37.14,2.38,1.85,1.24,2.98s-2.84.23-2.98-1.24c-.06-.55-.93-.56-.87,0,.22,2.16,2.75,3.59,4.47,1.85,1.6-1.62.5-3.91-1.42-4.39Z"/><path class="cls-1" d="m88,230.92v7.9l-8.31-8.31-.41.41h-.58v75h10.46v-75h-1.16Zm-8.14,57.21l7.32,7.32h-7.32v-7.32Zm0-18.6l7.32,7.32h-7.32v-7.32Zm0-18.6l7.32,7.32h-7.32v-7.32Zm0-18.6l7.32,7.32h-7.32v-7.32Zm7.32,8.48l-7.32,7.32v-7.32h7.32Zm.82.82v7.32h-7.32l7.32-7.32Zm-.82,17.78l-7.32,7.32v-7.32h7.32Zm.82.82v7.32h-7.32l7.32-7.32Zm-.82,17.78l-7.32,7.32v-7.32h7.32Zm.82.82v7.32h-7.32l7.32-7.32Zm-.82,17.78l-7.32,7.32v-7.32h7.32Zm-6.5,8.14l7.32-7.32v7.32h-7.32Zm7.32-10.12l-7.32-7.32h7.32v7.32Zm0-18.6l-7.32-7.32h7.32v7.32Zm0-18.6l-7.32-7.32h7.32v7.32Z"/><path class="cls-1" d="m79.86,206.22v14.53h1.16v-5.58l5.99,5.99.41-.41h.58v-14.53h-8.14Zm6.16,1.16l-5,5v-5h5Zm.82,11.97l-5-5h5v5Zm-5-6.16l5-5v5h-5Z"/><rect class="cls-14" x="46.81" y="230.92" width="13.95" height="13.95"/><polygon class="cls-14" points="151.85 251.04 151.07 251.04 151.07 224.22 86.1 202.67 81.81 202.67 47.02 224.27 46.61 223.61 81.58 201.9 86.23 201.9 86.29 201.92 151.85 223.66 151.85 251.04"/><path class="cls-1" d="m143.9,231.52h.8l8.16-8.16H46.23v8.14h97.67v.02Zm1.16-7h5l-5,5v-5Zm-97.67,5.82v-5l5,5h-5Zm5.82-.82l-5-5h5v5Zm1.16-5h5l-5,5v-5Zm5.82,5.82h-5l5-5v5Zm1.16,0v-5l5,5h-5Zm5.82-.82l-5-5h5v5Zm1.16-5h5l-5,5v-5Zm5.82,5.82h-5l5-5v5Zm1.16,0v-5l5,5h-5Zm5.82-.82l-5-5h5v5Zm1.16-5h5l-5,5v-5Zm5.82,5.82h-5l5-5v5Zm1.16,0v-5l5,5h-5Zm5.82-.82l-5-5h5v5Zm1.16-5h5l-5,5v-5Zm5.82,5.82h-5l5-5v5Zm1.16,0v-5l5,5h-5Zm5.82-.82l-5-5h5v5Zm1.16-5h5l-5,5v-5Zm5.82,5.82h-5l5-5v5Zm1.16,0v-5l5,5h-5Zm5.82-.82l-5-5h5v5Zm1.16-5h5l-5,5v-5Zm5.82,5.82h-5l5-5v5Zm1.16-5.82h5l-5,5v-5Zm5.82,5.82h-5l5-5v5Zm1.16,0v-5l5,5h-5Zm.82-5.82h5v5l-5-5Z"/><path class="cls-1" d="m94.32,234.09h-21.46l.79-9.03c.21-2.44,2.25-4.31,4.7-4.31h10.22c2.4,0,4.41,1.8,4.69,4.17l1.06,9.16Z"/><rect class="cls-3" x="76.32" y="224.5" width="4.12" height="4.12"/><rect class="cls-3" x="81.53" y="224.5" width="4.12" height="4.12"/><rect class="cls-3" x="86.74" y="224.5" width="4.12" height="4.12"/><path class="cls-14" d="m86.74,203.99c0,1.55-1.26,2.81-2.81,2.81s-2.81-1.26-2.81-2.81,1.26-2.81,2.81-2.81,2.81,1.26,2.81,2.81Z"/><path class="cls-14" d="m151.66,255.84h0c-1.33,0-2.4-1.07-2.4-2.4v-2.4h4.8v2.4c0,1.33-1.07,2.4-2.4,2.4Z"/><polygon class="cls-4" points="38.04 287.25 39.9 400.81 48.15 400.81 96.05 400.81 104.29 400.81 103.06 287.25 38.04 287.25"/><polygon class="cls-14" points="42.1 290.53 42.32 304.35 42.39 308.15 42.45 311.94 50.88 311.94 50.82 308.15 50.77 304.35 50.55 290.53 42.1 290.53"/><polygon class="cls-14" points="58.26 290.53 58.47 304.35 58.52 308.15 58.58 311.94 67.01 311.94 66.96 308.15 66.91 304.35 66.71 290.53 58.26 290.53"/><polygon class="cls-14" points="74.42 290.53 74.61 304.35 74.66 308.15 74.71 311.94 83.14 311.94 83.1 308.15 83.05 304.35 82.88 290.53 74.42 290.53"/><polygon class="cls-14" points="90.59 290.53 90.75 304.35 90.82 310.22 90.84 311.94 99.28 311.94 99.26 310.22 99.19 304.35 99.04 290.53 90.59 290.53"/><polygon class="cls-14" points="42.61 318.21 42.84 332.01 42.9 335.8 42.96 339.59 51.4 339.59 51.35 335.8 51.29 332.01 51.08 318.21 42.61 318.21"/><polygon class="cls-14" points="58.73 318.21 58.93 332.01 59.01 337.36 59.04 339.59 67.49 339.59 67.46 337.36 67.39 332.01 67.19 318.21 58.73 318.21"/><polygon class="cls-14" points="74.84 318.21 75.03 332.01 75.08 335.8 75.13 339.59 83.58 339.59 83.53 335.8 83.48 332.01 83.31 318.21 74.84 318.21"/><polygon class="cls-14" points="90.96 318.21 91.13 332.01 91.17 335.8 91.22 339.59 99.66 339.59 99.62 335.8 99.58 332.01 99.43 318.21 90.96 318.21"/><polygon class="cls-14" points="43.09 345.55 43.31 359.3 43.38 363.07 43.44 366.84 51.87 366.84 51.81 363.07 51.75 359.3 51.54 345.55 43.09 345.55"/><polygon class="cls-14" points="59.17 345.55 59.37 359.3 59.42 363.07 59.48 366.84 67.91 366.84 67.86 363.07 67.81 359.3 67.62 345.55 59.17 345.55"/><polygon class="cls-14" points="75.24 345.55 75.42 359.3 75.47 363.07 75.52 366.84 83.96 366.84 83.91 363.07 83.86 359.3 83.69 345.55 75.24 345.55"/><polygon class="cls-14" points="91.32 345.55 91.48 359.3 91.54 364.51 91.57 366.84 100 366.84 99.98 364.51 99.92 359.3 99.77 345.55 91.32 345.55"/><polygon class="cls-14" points="96 372.51 91.83 372.51 84.02 372.51 75.68 372.51 67.86 372.51 59.52 372.51 43.36 372.51 43.48 379.96 59.63 379.96 67.96 379.96 75.77 379.96 84.11 379.96 91.92 379.96 96.09 379.96 100.26 379.96 100.18 372.51 96 372.51"/><polygon class="cls-3" points="84.01 385.48 59.71 385.48 59.69 387.31 60.42 387.31 60.62 400.81 63.05 400.81 62.85 387.31 80.89 387.31 81.06 400.81 83.49 400.81 83.32 387.31 83.99 387.31 84.01 385.48"/><polygon class="cls-14" points="72.16 400.81 63.16 400.81 62.96 387.31 71.98 387.31 72.16 400.81"/><polygon class="cls-14" points="80.95 400.81 71.94 400.81 71.76 387.31 80.77 387.31 80.95 400.81"/><polygon class="cls-14" points="164.38 293.79 165.11 400.81 157.34 400.81 112.21 400.81 104.44 400.81 103.11 293.79 164.38 293.79"/><polygon class="cls-1" points="142.74 374.38 146.05 374.38 160.9 374.38 160.92 377.81 160.95 381.23 161.04 393.66 153.35 393.66 153.25 380.89 145.75 380.89 142.79 380.89 138.47 380.89 138.41 374.38 142.74 374.38"/><polygon class="cls-1" points="113.44 374.38 116.4 374.38 130.5 374.38 130.57 380.89 115.98 380.89 116.13 393.66 108.44 393.66 108.3 381.23 108.24 376.27 108.21 374.38 113.44 374.38"/><polygon class="cls-4" points="124.18 386.4 145.09 386.4 145.11 388.22 145.34 388.22 145.44 400.81 143.18 400.81 143.07 388.22 126.25 388.22 126.38 400.81 124.12 400.81 123.98 388.22 124.2 388.22 124.18 386.4"/><polygon class="cls-16" points="134.69 400.81 143.09 400.81 142.98 388.22 134.57 388.22 134.69 400.81"/><polygon class="cls-13" points="126.47 400.81 134.87 400.81 134.75 388.22 126.34 388.22 126.47 400.81"/><polygon class="cls-1" points="137.31 298.12 160.62 298.12 160.76 318.21 137.5 318.21 137.31 298.12"/><polygon class="cls-1" points="107.09 298.12 130.4 298.12 130.6 318.21 107.33 318.21 107.09 298.12"/><polygon class="cls-1" points="137.96 323.38 160.27 323.38 160.42 342.58 138.13 342.58 137.96 323.38"/><polygon class="cls-1" points="107.79 323.38 130.1 323.38 130.3 342.58 108.01 342.58 107.79 323.38"/><polygon class="cls-1" points="138.19 349.48 160.63 349.48 160.77 368.74 138.36 368.74 138.19 349.48"/><polygon class="cls-1" points="108.11 349.48 130.55 349.48 130.74 368.74 108.33 368.74 108.11 349.48"/><path class="cls-14" d="m57.19,169.22h100.71c12.9,0,16.02-18.06,3.83-22.3-.16-.05-.31-.11-.47-.16,13.48-11.23-16.1-34.91-48.22-2.12,2.5-10.93-26.05-6.98-34.79,7.93-3.1-9.79-30.33,7.22-21.07,16.65Z"/><path class="cls-16" d="m326.57,124.19h60.39s14.16-5.33,12.33-19.46c-1.83-14.13-23.21-2.36-23.21-2.36,0,0,6.48-19.71-14.22-14.12-20.7,5.59-22.72,25.13-22.72,25.13,0,0-27.19-4.75-12.56,10.8Z"/><path class="cls-16" d="m382.05,163.92h39.87s9.35-3.52,8.14-12.85c-1.21-9.33-15.32-1.56-15.32-1.56,0,0,4.28-13.01-9.39-9.32-13.67,3.69-15,16.59-15,16.59,0,0-17.95-3.13-8.29,7.13Z"/><path class="cls-16" d="m374.39,366.01l-.11-11.8v-.72s-.11-10.51-.11-10.51v-.67s-.1-10-.1-10v-.65s-.1-9.52-.1-9.52v-.62s-.1-9.08-.1-9.08v-.58s-.09-8.68-.09-8.68v-.55s-.08-8.29-.08-8.29v-.54s-.07-6.86-.07-6.86c-.34.21-.72.39-1.15.53l.04,5.8-7.35.04,5.92-5.43c-.57.11-1.19.2-1.85.22l-4.89,4.46.08-5.24c-.44-.18-.83-.41-1.14-.67l-.13,7.19v.54s-.14,8.29-.14,8.29v.56s-.17,8.66-.17,8.66v.59s-.16,9.07-.16,9.07v.62s-.18,9.52-.18,9.52v.65s-.18,9.97-.18,9.97l-.02.68-.19,10.5v.72s-.21,11.78-.21,11.78l-1.02,50.87,14.18.17-.71-51.03Zm-1.47-2.21l-8.54-9.23h8.48l.06,9.23Zm-.14-10.32h-8.46s8.39-8.8,8.39-8.8l.06,8.8Zm.09-12.96l-8.13-8.33,8.08-.02.05,8.35Zm-.1-9.47l-8.05.02,8-8.01.04,7.99Zm-.06-11.02l-7.75-7.56,7.7-.02.05,7.59Zm-.06-8.75l-7.69.04,7.63-7.3.06,7.27Zm-.13-16.83l.04,6.92-7.4-6.88,7.36-.04Zm-8.35,1.58l7.4,6.91-7.5.02.1-6.93Zm-.12,8.11l7.51-.04-7.61,7.27.1-7.23Zm-.16,10.11l7.75,7.58-7.85.02.1-7.6Zm-.1,8.74l7.87-.02-7.99,7.97.11-7.95Zm-.15,11.03l8.13,8.36h-8.25s.12-8.36.12-8.36Zm-.09,9.48h8.28s-8.4,8.76-8.4,8.76l.12-8.76Zm-.05,11.61l8.54,9.27h-8.68l.13-9.27Z"/><path class="cls-16" d="m373.55,285.76h-.58s-.4-.36-.4-.36l-3.39,3.1c.65-.02,1.28-.11,1.84-.22l1.38-1.27v.86c.43-.14.81-.32,1.15-.53v-1.59Zm-10.28.06l-.02,1.24c.31.26.71.48,1.14.66l.02-1.91h-1.15Z"/><path class="cls-16" d="m375.22,284.83c.09.59-.12,1.17-.59,1.69l-.4.37c-.19.16-.42.32-.66.46-.34.21-.72.39-1.15.53-.43.17-.89.31-1.38.41-.57.11-1.19.2-1.84.22-.08.01-.16.01-.24.01h-.6c-1.54-.01-2.91-.31-3.96-.79-.44-.18-.83-.41-1.14-.66-.03-.02-.07-.05-.1-.07l-.37-.36c-.46-.49-.65-1.06-.54-1.64l.84-4.73-2.23.04,7.77-3.95,8.09,3.69-2.27.04.78,4.75Z"/><polygon class="cls-12" points="151.78 98.83 155.92 104.18 345.66 104.18 349.83 98.83 151.78 98.83"/><g class="cls-7"><polygon points="151.78 98.83 155.92 104.18 345.66 104.18 349.83 98.83 151.78 98.83"/></g><rect class="cls-12" x="155.53" y="91.93" width="190.18" height="337.13"/><g class="cls-7"><rect class="cls-2" x="155.53" y="91.93" width="190.18" height="337.13"/></g><g class="cls-5"><path class="cls-15" d="m163.24,100.23c.22,2.19-1.31,3.96-3.41,3.96s-3.99-1.77-4.23-3.96c-.24-2.2,1.28-3.99,3.4-3.99s4.02,1.79,4.24,3.99Z"/><path class="cls-15" d="m170.24,100.23c.2,2.19-1.34,3.96-3.44,3.96s-3.98-1.77-4.2-3.96c-.22-2.2,1.32-3.99,3.44-3.99s4,1.79,4.2,3.99Z"/><path class="cls-15" d="m177.24,100.23c.18,2.19-1.37,3.96-3.47,3.96s-3.97-1.77-4.17-3.96c-.2-2.2,1.35-3.99,3.47-3.99s3.99,1.79,4.17,3.99Z"/><path class="cls-15" d="m184.25,100.23c.17,2.19-1.4,3.96-3.5,3.96s-3.95-1.77-4.14-3.96c-.19-2.2,1.38-3.99,3.5-3.99s3.97,1.79,4.14,3.99Z"/><path class="cls-15" d="m191.25,100.23c.15,2.19-1.43,3.96-3.53,3.96s-3.94-1.77-4.11-3.96c-.17-2.2,1.41-3.99,3.53-3.99s3.96,1.79,4.11,3.99Z"/><path class="cls-15" d="m198.25,100.23c.13,2.19-1.46,3.96-3.56,3.96s-3.92-1.77-4.07-3.96c-.15-2.2,1.44-3.99,3.56-3.99s3.94,1.79,4.08,3.99Z"/><path class="cls-15" d="m205.25,100.23c.11,2.19-1.5,3.96-3.6,3.96s-3.91-1.77-4.04-3.96c-.13-2.2,1.47-3.99,3.59-3.99s3.93,1.79,4.05,3.99Z"/><path class="cls-15" d="m212.25,100.23c.1,2.19-1.53,3.96-3.63,3.96s-3.9-1.77-4.01-3.96c-.12-2.2,1.51-3.99,3.63-3.99s3.92,1.79,4.01,3.99Z"/><path class="cls-15" d="m219.25,100.23c.08,2.19-1.56,3.96-3.66,3.96s-3.88-1.77-3.98-3.96c-.1-2.2,1.54-3.99,3.66-3.99s3.9,1.79,3.98,3.99Z"/><path class="cls-15" d="m226.25,100.23c.06,2.19-1.59,3.96-3.69,3.96s-3.87-1.77-3.95-3.96c-.08-2.2,1.57-3.99,3.69-3.99s3.89,1.79,3.95,3.99Z"/><path class="cls-15" d="m233.25,100.23c.04,2.19-1.62,3.96-3.72,3.96s-3.85-1.77-3.92-3.96c-.06-2.2,1.6-3.99,3.72-3.99s3.87,1.79,3.92,3.99Z"/><path class="cls-15" d="m240.25,100.23c.03,2.19-1.65,3.96-3.75,3.96s-3.84-1.77-3.89-3.96c-.05-2.2,1.63-3.99,3.75-3.99s3.86,1.79,3.89,3.99Z"/><path class="cls-15" d="m247.25,100.23c0,2.19-1.69,3.96-3.79,3.96s-3.83-1.77-3.85-3.96c-.03-2.2,1.67-3.99,3.79-3.99s3.84,1.79,3.85,3.99Z"/><path class="cls-15" d="m254.25,100.23c0,2.19-1.72,3.96-3.82,3.96s-3.81-1.77-3.82-3.96c-.01-2.2,1.7-3.99,3.82-3.99s3.83,1.79,3.82,3.99Z"/><path class="cls-15" d="m261.25,100.23c-.03,2.19-1.75,3.96-3.85,3.96s-3.8-1.77-3.79-3.96c0-2.2,1.73-3.99,3.85-3.99s3.82,1.79,3.79,3.99Z"/><path class="cls-15" d="m268.25,100.23c-.04,2.19-1.78,3.96-3.88,3.96s-3.78-1.77-3.76-3.96c.02-2.2,1.76-3.99,3.88-3.99s3.8,1.79,3.76,3.99Z"/><path class="cls-15" d="m275.25,100.23c-.06,2.19-1.81,3.96-3.91,3.96s-3.77-1.77-3.73-3.96c.04-2.2,1.79-3.99,3.91-3.99s3.79,1.79,3.73,3.99Z"/><path class="cls-15" d="m282.25,100.23c-.08,2.19-1.84,3.96-3.94,3.96s-3.76-1.77-3.7-3.96c.06-2.2,1.83-3.99,3.94-3.99s3.77,1.79,3.7,3.99Z"/><path class="cls-15" d="m289.25,100.23c-.1,2.19-1.87,3.96-3.98,3.96s-3.74-1.77-3.66-3.96c.08-2.2,1.86-3.99,3.98-3.99s3.76,1.79,3.66,3.99Z"/><path class="cls-15" d="m296.25,100.23c-.11,2.19-1.91,3.96-4.01,3.96s-3.73-1.77-3.63-3.96c.09-2.2,1.89-3.99,4.01-3.99s3.74,1.79,3.63,3.99Z"/><path class="cls-15" d="m303.25,100.23c-.13,2.19-1.94,3.96-4.04,3.96s-3.71-1.77-3.6-3.96c.11-2.2,1.92-3.99,4.04-3.99s3.73,1.79,3.6,3.99Z"/><path class="cls-15" d="m310.25,100.23c-.15,2.19-1.97,3.96-4.07,3.96s-3.7-1.77-3.57-3.96c.13-2.2,1.95-3.99,4.07-3.99s3.72,1.79,3.57,3.99Z"/><path class="cls-15" d="m317.25,100.23c-.17,2.19-2,3.96-4.1,3.96s-3.68-1.77-3.54-3.96c.15-2.2,1.98-3.99,4.1-3.99s3.7,1.79,3.54,3.99Z"/><path class="cls-15" d="m324.25,100.23c-.18,2.19-2.03,3.96-4.13,3.96s-3.67-1.77-3.51-3.96c.16-2.2,2.02-3.99,4.14-3.99s3.69,1.79,3.5,3.99Z"/><path class="cls-15" d="m331.25,100.23c-.2,2.19-2.06,3.96-4.16,3.96s-3.66-1.77-3.48-3.96c.18-2.2,2.05-3.99,4.17-3.99s3.67,1.79,3.47,3.99Z"/><path class="cls-15" d="m338.25,100.23c-.22,2.19-2.1,3.96-4.2,3.96s-3.64-1.77-3.44-3.96c.2-2.2,2.08-3.99,4.2-3.99s3.66,1.79,3.44,3.99Z"/><path class="cls-15" d="m345.25,100.23c-.23,2.19-2.13,3.96-4.23,3.96s-3.63-1.77-3.41-3.96c.22-2.2,2.11-3.99,4.23-3.99s3.64,1.79,3.41,3.99Z"/></g><polygon class="cls-12" points="151.77 93.42 349.85 93.42 349.83 98.83 151.78 98.83 151.77 93.42"/><polygon class="cls-12" points="151.75 88 155.89 93.41 345.68 93.41 349.86 88 151.75 88"/><g class="cls-7"><polygon points="151.75 88 155.89 93.41 345.68 93.41 349.86 88 151.75 88"/></g><polygon class="cls-12" points="151.74 82.56 349.87 82.56 349.86 88 151.75 88 151.74 82.56"/><g class="cls-8"><polygon class="cls-12" points="155.88 88 345.69 88 345.68 93.41 155.89 93.41 155.88 88"/></g><g class="cls-5"><polygon class="cls-2" points="155.88 88 345.69 88 345.68 93.41 155.89 93.41 155.88 88"/></g><g class="cls-6"><polygon class="cls-2" points="155.58 200.1 345.75 200.1 345.75 202.49 155.59 202.49 155.58 200.1"/></g><g class="cls-5"><polygon class="cls-2" points="155.98 318.6 345.75 318.6 345.75 320.98 155.99 320.98 155.98 318.6"/></g><rect class="cls-12" x="195.01" y="114.56" width="23.51" height="25.39"/><rect class="cls-12" x="240.16" y="114.56" width="23.51" height="25.39"/><rect class="cls-12" x="285.31" y="114.56" width="23.51" height="25.39"/><rect class="cls-12" x="195.01" y="152.59" width="23.51" height="25.39"/><rect class="cls-12" x="240.16" y="152.59" width="23.51" height="25.39"/><rect class="cls-12" x="285.31" y="152.59" width="23.51" height="25.39"/><rect class="cls-12" x="195.01" y="336.89" width="23.51" height="25.39"/><rect class="cls-12" x="240.16" y="336.89" width="23.51" height="25.39"/><rect class="cls-12" x="285.31" y="336.89" width="23.51" height="25.39"/><rect class="cls-12" x="169.82" y="390.36" width="23.51" height="25.39"/><rect class="cls-12" x="307.94" y="390.36" width="23.51" height="25.39"/><rect class="cls-12" x="195.01" y="222.5" width="23.51" height="25.39"/><rect class="cls-12" x="240.16" y="222.5" width="23.51" height="25.39"/><rect class="cls-12" x="285.31" y="222.5" width="23.51" height="25.39"/><rect class="cls-12" x="195.01" y="260.52" width="23.51" height="25.39"/><rect class="cls-12" x="240.16" y="260.52" width="23.51" height="25.39"/><rect class="cls-12" x="285.31" y="260.52" width="23.51" height="25.39"/><g class="cls-9"><polygon class="cls-2" points="223.43 393.34 247.76 393.34 247.66 418.6 223.26 418.6 223.43 393.34"/></g><g class="cls-9"><polygon class="cls-2" points="252.45 393.34 277.79 393.34 276.59 418.6 252.19 418.6 252.45 393.34"/></g><polygon class="cls-12" points="281.67 423.69 217.47 423.69 217.21 418.6 281.91 418.6 281.67 423.69"/><g class="cls-10"><polygon class="cls-2" points="281.67 423.69 217.47 423.69 217.21 418.6 281.91 418.6 281.67 423.69"/></g><polygon class="cls-12" points="284.25 429.06 215.2 429.06 214.92 424.05 284.51 424.05 284.25 429.06"/><g class="cls-7"><polygon class="cls-2" points="286.54 384.39 212.73 384.39 212.41 378.67 286.83 378.67 286.54 384.39"/></g><polygon class="cls-17" points="212.73 384.39 223.43 393.34 277.79 393.34 286.54 384.39 212.73 384.39"/><path class="cls-12" d="m217.74,388.58l3.77,30.02h3l-1.21-30.02h0c-1.73-.91-3.92-.91-5.56,0h0Z"/><path class="cls-12" d="m282.58,388.58l-3.7,30.02h-3l1.13-30.02h0c1.65-1.11,4.01-1.11,5.56,0h0Z"/><path class="cls-12" d="m396.11,97.54s-.93-.19-2.32-.75c-1.4-.55-3.19-1.47-5.06-2.37-1.86-.9-3.64-1.36-4.96-1.49-1.32-.15-2.21-.03-2.34-.35-.12-.27.65-.99,2.26-1.29,1.59-.31,3.88,0,6.03,1.03,2.14,1.04,3.63,2.47,4.7,3.49,1.05,1.03,1.69,1.72,1.69,1.72Z"/><path class="cls-12" d="m404.27,90.98s-.66.26-1.68.66c-1,.41-2.26.98-3.67,1.6-2.81,1.23-5.2,2.52-5.59,1.97-.18-.26.19-.89.99-1.67.8-.78,2.07-1.72,3.69-2.42,1.62-.71,3.3-.79,4.45-.62.58.09,1.03.2,1.34.32.31.11.47.18.47.18Z"/><path class="cls-12" d="m380.99,102.43s-.17-.1-.46-.28c-.29-.19-.72-.43-1.23-.71-1.04-.57-2.49-1.22-4.11-1.79-3.27-1.17-6.19-.91-6.28-1.41-.04-.22.67-.6,1.93-.78,1.25-.18,3.06-.09,4.91.55,1.86.65,3.27,1.8,4.09,2.75.41.48.71.89.88,1.2.17.3.27.47.27.47Z"/><path class="cls-12" d="m384.19,95.68s-.47.28-1.17.68c-.69.39-1.61.9-2.61,1.46-1.97,1.08-3.49,2.34-3.86,2-.17-.16,0-.68.5-1.37.5-.68,1.37-1.52,2.53-2.16,1.17-.63,2.38-.8,3.23-.78.86.01,1.38.17,1.38.17Z"/><path class="cls-12" d="m378.28,91.83s-1.11-.39-2.8-1.1c-1.7-.71-3.97-1.72-6.46-2.54-2.49-.82-4.85-1.03-6.55-.91-1.71.1-2.8.42-2.95.12-.15-.25.75-1.16,2.66-1.73,1.89-.58,4.73-.62,7.56.32,2.83.94,4.94,2.55,6.35,3.76,1.41,1.22,2.19,2.09,2.19,2.09Z"/><path class="cls-12" d="m385.79,82.3s-.23.06-.63.18c-.4.1-.97.27-1.65.49-1.37.43-3.14,1.12-5.02,1.98-3.8,1.7-6.24,4.22-6.77,3.81-.24-.19.08-1.11,1.04-2.31.96-1.2,2.62-2.61,4.76-3.6,2.16-.99,4.35-1.17,5.86-1.03.76.07,1.37.18,1.78.3.4.12.63.18.63.18Z"/><path class="cls-12" d="m128.57,125.58s-.93-.19-2.32-.75c-1.4-.55-3.19-1.47-5.06-2.37-1.86-.9-3.64-1.36-4.96-1.49-1.32-.15-2.21-.03-2.34-.35-.12-.27.65-.99,2.26-1.29,1.59-.31,3.88,0,6.03,1.03,2.14,1.04,3.63,2.47,4.7,3.49,1.05,1.03,1.69,1.72,1.69,1.72Z"/><path class="cls-12" d="m136.72,119.02s-.66.26-1.68.66c-1,.41-2.26.98-3.67,1.6-2.81,1.23-5.2,2.52-5.59,1.97-.18-.26.19-.89.99-1.67.8-.78,2.07-1.72,3.69-2.42,1.62-.71,3.3-.79,4.45-.62.58.09,1.03.2,1.34.32.31.11.47.18.47.18Z"/><path class="cls-12" d="m113.44,130.47s-.17-.1-.46-.28c-.29-.19-.72-.43-1.23-.71-1.04-.57-2.49-1.22-4.11-1.79-3.27-1.17-6.19-.91-6.28-1.41-.04-.22.67-.6,1.93-.78,1.25-.18,3.06-.09,4.91.55,1.86.65,3.27,1.8,4.09,2.75.41.48.71.89.88,1.2.17.3.27.47.27.47Z"/><path class="cls-12" d="m116.65,123.72s-.47.28-1.17.68c-.69.39-1.61.9-2.61,1.46-1.97,1.08-3.49,2.34-3.86,2-.17-.16,0-.68.5-1.37.5-.68,1.37-1.52,2.53-2.16,1.17-.63,2.38-.8,3.23-.78.86.01,1.38.17,1.38.17Z"/></svg>