<?xml version="1.0" encoding="utf-8"?>
<!-- Generator: Adobe Illustrator 27.7.0, SVG Export Plug-In . SVG Version: 6.00 Build 0)  -->
<svg version="1.1" id="PATTERN" xmlns="http://www.w3.org/2000/svg" xmlns:xlink="http://www.w3.org/1999/xlink" x="0px" y="0px"
	 viewBox="0 0 500 500" style="enable-background:new 0 0 500 500;" xml:space="preserve">
<style type="text/css">
	.st0{opacity:0.26;fill:#007CFF;enable-background:new    ;}
	.st1{fill:#ECECEC;}
	.st2{fill:#FAFAFA;}
	.st3{fill:#F0F0F0;}
	.st4{fill:#F5F5F5;}
	.st5{fill:#E7E7E7;}
	.st6{fill:#E1E1E1;}
	.st7{fill:#007CFF;}
	.st8{opacity:0.4;}
	.st9{fill:none;}
	.st10{fill:#FFFFFF;}
	.st11{opacity:0.8;}
	.st12{fill:#EFEFEF;}
	.st13{opacity:0.7;}
	.st14{opacity:0.1;}
	.st15{fill:#1A2E35;}
</style>
<rect x="-1.2" y="-1.2" class="st0" width="502.5" height="502.5"/>
<polygon class="st1" points="394.1,281.2 394.4,394.8 402.6,394.8 450.5,394.8 458.8,394.8 459.1,281.2 "/>
<polygon class="st1" points="406.7,266.8 406.7,292.1 411.8,292.1 441.5,292.1 446.6,292.1 446.6,266.8 "/>
<polygon class="st2" points="406.6,292.1 398.2,292.1 398.2,284.5 406.6,284.5 "/>
<rect x="414.4" y="284.5" class="st2" width="8.4" height="7.6"/>
<rect x="430.5" y="284.5" class="st2" width="8.4" height="7.6"/>
<polygon class="st3" points="455.1,292.1 446.7,292.1 446.7,284.5 455.1,284.5 "/>
<polygon class="st3" points="406.5,305.9 398.3,305.9 398.3,298.5 406.5,298.5 "/>
<rect x="414.4" y="298.5" class="st3" width="8.2" height="7.4"/>
<rect x="430.6" y="298.5" class="st2" width="8.2" height="7.4"/>
<polygon class="st2" points="454.9,305.9 446.7,305.9 446.7,298.5 454.9,298.5 "/>
<polygon class="st3" points="406.5,319.4 398.4,319.4 398.4,312.2 406.5,312.2 "/>
<rect x="414.5" y="312.2" class="st2" width="8" height="7.2"/>
<rect x="430.6" y="312.2" class="st2" width="8" height="7.2"/>
<rect x="414.2" y="273.5" class="st2" width="8.6" height="7.7"/>
<rect x="430.3" y="273.5" class="st3" width="8.6" height="7.7"/>
<polygon class="st3" points="454.8,319.4 446.8,319.4 446.8,312.2 454.8,312.2 "/>
<polygon class="st2" points="406.4,332.6 398.6,332.6 398.6,325.5 406.4,325.5 "/>
<rect x="414.7" y="325.5" class="st3" width="7.9" height="7"/>
<polygon class="st3" points="438.6,332.6 430.8,332.6 430.8,325.5 438.6,325.5 "/>
<polygon class="st2" points="454.7,332.6 446.9,332.6 446.9,325.5 454.7,325.5 "/>
<polygon class="st3" points="406.8,347.4 398,347.4 398,339.5 406.8,339.5 "/>
<polygon class="st2" points="422.9,347.4 414.1,347.4 414.1,339.5 422.9,339.5 "/>
<polygon class="st2" points="438.9,347.4 430.2,347.4 430.2,339.5 438.9,339.5 "/>
<polygon class="st3" points="455,347.4 446.2,347.4 446.2,339.5 455,339.5 "/>
<polygon class="st3" points="406.8,359.9 398.3,359.9 398.3,352.2 406.8,352.2 "/>
<rect x="414.3" y="352.2" class="st2" width="8.5" height="7.7"/>
<rect x="430.4" y="352.2" class="st3" width="8.5" height="7.7"/>
<polygon class="st2" points="455,359.9 446.5,359.9 446.5,352.2 455,352.2 "/>
<polygon class="st2" points="406.7,374 398.3,374 398.3,366.5 406.6,366.5 "/>
<rect x="414.4" y="366.5" class="st2" width="8.3" height="7.5"/>
<rect x="430.4" y="366.5" class="st3" width="8.3" height="7.5"/>
<polygon class="st3" points="454.7,374 446.4,374 446.4,366.5 454.8,366.5 "/>
<polygon class="st3" points="406.7,386.8 398.5,386.8 398.5,379.5 406.6,379.5 "/>
<polygon class="st2" points="454.7,386.8 446.6,386.8 446.6,379.5 454.7,379.5 "/>
<polygon class="st4" points="438.8,379.5 414.5,379.5 414.5,381.3 415.2,381.3 415.2,394.8 417.6,394.8 417.6,381.3 435.6,381.3 
	435.6,394.8 438.1,394.8 438.1,381.3 438.8,381.3 "/>
<polygon class="st5" points="426.7,394.8 417.7,394.8 417.7,381.3 426.7,381.3 "/>
<polygon class="st1" points="435.5,394.8 426.5,394.8 426.5,381.3 435.5,381.3 "/>
<polygon class="st4" points="394.2,317.4 394.4,394.8 384.1,394.8 324,394.8 313.7,394.8 312.9,317.4 "/>
<polygon class="st5" points="378.8,334.6 388.8,334.6 388.8,325.5 378.7,325.5 "/>
<polygon class="st5" points="358.6,334.6 368.7,334.6 368.7,325.5 358.6,325.5 "/>
<polygon class="st5" points="338.5,334.6 348.6,334.6 348.6,325.5 338.5,325.5 "/>
<polygon class="st5" points="378.4,352.2 389.2,352.2 389.2,342.5 378.3,342.5 "/>
<polygon class="st5" points="358.3,352.2 369.2,352.2 369.1,342.5 358.2,342.5 "/>
<polygon class="st5" points="338.2,352.2 349.1,352.2 349,342.5 338.2,342.5 "/>
<polygon class="st5" points="378.7,368.4 389.2,368.4 389.2,358.9 378.6,358.9 "/>
<polygon class="st5" points="358.6,368.4 369.1,368.4 369.1,358.9 358.5,358.9 "/>
<polygon class="st5" points="338.5,368.4 349.1,368.4 349,358.9 338.5,358.9 "/>
<polygon class="st5" points="378.9,385 389.1,385 389.1,375.8 378.9,375.8 "/>
<polygon class="st4" points="338.1,375.8 369.7,375.8 369.7,378.6 367.7,378.6 367.8,394.8 364.9,394.8 364.8,378.6 343.1,378.6 
	343.2,394.8 340.3,394.8 340.1,378.6 338.1,378.6 "/>
<polygon class="st5" points="354.1,394.8 364.9,394.8 364.8,378.6 354,378.6 "/>
<polygon class="st1" points="343.1,394.8 353.9,394.8 353.9,378.6 343,378.6 "/>
<polygon class="st4" points="38,281.2 39.9,394.8 48.2,394.8 96.1,394.8 104.3,394.8 103.1,281.2 "/>
<polygon class="st5" points="42.1,284.5 42.3,298.4 42.4,302.1 42.5,305.9 50.9,305.9 50.8,302.1 50.8,298.4 50.5,284.5 "/>
<polygon class="st5" points="58.3,284.5 58.5,298.4 58.5,302.1 58.6,305.9 67,305.9 67,302.1 66.9,298.4 66.7,284.5 "/>
<polygon class="st5" points="74.4,284.5 74.6,298.4 74.7,302.1 74.7,305.9 83.1,305.9 83.1,302.1 83.1,298.4 82.9,284.5 "/>
<polygon class="st5" points="90.6,284.5 90.8,298.4 90.8,304.2 90.8,305.9 99.3,305.9 99.3,304.2 99.2,298.4 99,284.5 "/>
<polygon class="st5" points="42.6,312.2 42.8,326 42.9,329.8 43,333.6 51.4,333.6 51.3,329.8 51.3,326 51.1,312.2 "/>
<polygon class="st5" points="58.7,312.2 58.9,326 59,331.4 59,333.6 67.5,333.6 67.5,331.4 67.4,326 67.2,312.2 "/>
<polygon class="st5" points="74.8,312.2 75,326 75.1,329.8 75.1,333.6 83.6,333.6 83.5,329.8 83.5,326 83.3,312.2 "/>
<polygon class="st5" points="91,312.2 91.1,326 91.2,329.8 91.2,333.6 99.7,333.6 99.6,329.8 99.6,326 99.4,312.2 "/>
<polygon class="st5" points="43.1,339.5 43.3,353.3 43.4,357.1 43.4,360.8 51.9,360.8 51.8,357.1 51.8,353.3 51.5,339.5 "/>
<polygon class="st5" points="59.2,339.5 59.4,353.3 59.4,357.1 59.5,360.8 67.9,360.8 67.9,357.1 67.8,353.3 67.6,339.5 "/>
<polygon class="st5" points="75.2,339.5 75.4,353.3 75.5,357.1 75.5,360.8 84,360.8 83.9,357.1 83.9,353.3 83.7,339.5 "/>
<polygon class="st5" points="91.3,339.5 91.5,353.3 91.5,358.5 91.6,360.8 100,360.8 100,358.5 99.9,353.3 99.8,339.5 "/>
<polygon class="st5" points="96,366.5 91.8,366.5 84,366.5 75.7,366.5 67.9,366.5 59.5,366.5 43.4,366.5 43.5,374 59.6,374 68,374 
	75.8,374 84.1,374 91.9,374 96.1,374 100.3,374 100.2,366.5 "/>
<polygon class="st2" points="84,379.5 59.7,379.5 59.7,381.3 60.4,381.3 60.6,394.8 63,394.8 62.8,381.3 80.9,381.3 81.1,394.8 
	83.5,394.8 83.3,381.3 84,381.3 "/>
<polygon class="st5" points="72.2,394.8 63.2,394.8 63,381.3 72,381.3 "/>
<polygon class="st5" points="80.9,394.8 71.9,394.8 71.8,381.3 80.8,381.3 "/>
<polygon class="st5" points="164.4,287.8 165.1,394.8 157.3,394.8 112.2,394.8 104.4,394.8 103.1,287.8 "/>
<polygon class="st3" points="142.7,368.4 146.1,368.4 160.9,368.4 160.9,371.8 160.9,375.2 161,387.7 153.4,387.7 153.2,374.9 
	145.8,374.9 142.8,374.9 138.5,374.9 138.4,368.4 "/>
<polygon class="st3" points="113.4,368.4 116.4,368.4 130.5,368.4 130.6,374.9 116,374.9 116.1,387.7 108.4,387.7 108.3,375.2 
	108.2,370.3 108.2,368.4 "/>
<polygon class="st4" points="124.2,380.4 145.1,380.4 145.1,382.2 145.3,382.2 145.4,394.8 143.2,394.8 143.1,382.2 126.2,382.2 
	126.4,394.8 124.1,394.8 124,382.2 124.2,382.2 "/>
<polygon class="st1" points="134.7,394.8 143.1,394.8 143,382.2 134.6,382.2 "/>
<polygon class="st6" points="126.5,394.8 134.9,394.8 134.8,382.2 126.3,382.2 "/>
<polygon class="st3" points="137.3,292.1 160.6,292.1 160.8,312.2 137.5,312.2 "/>
<polygon class="st3" points="107.1,292.1 130.4,292.1 130.6,312.2 107.3,312.2 "/>
<polygon class="st3" points="138,317.4 160.3,317.4 160.4,336.6 138.1,336.6 "/>
<polygon class="st3" points="107.8,317.4 130.1,317.4 130.3,336.6 108,336.6 "/>
<polygon class="st3" points="138.2,343.5 160.6,343.5 160.8,362.7 138.4,362.7 "/>
<polygon class="st3" points="108.1,343.5 130.6,343.5 130.7,362.7 108.3,362.7 "/>
<path class="st5" d="M57.2,163.2h100.7c12.9,0,16-18.1,3.8-22.3c-0.2-0.1-0.3-0.1-0.5-0.2c13.5-11.2-16.1-34.9-48.2-2.1
	c2.5-10.9-26.1-7-34.8,7.9C75.1,136.8,47.9,153.8,57.2,163.2L57.2,163.2z"/>
<path class="st1" d="M326.6,118.2H387c0,0,14.2-5.3,12.3-19.5c-1.8-14.1-23.2-2.4-23.2-2.4s6.5-19.7-14.2-14.1s-22.7,25.1-22.7,25.1
	S312,102.6,326.6,118.2L326.6,118.2z"/>
<path class="st1" d="M382,157.9h39.9c0,0,9.4-3.5,8.1-12.9s-15.3-1.6-15.3-1.6s4.3-13-9.4-9.3s-15,16.6-15,16.6
	S372.4,147.6,382,157.9L382,157.9z"/>
<path class="st1" d="M396.1,91.5c0,0-0.9-0.2-2.3-0.8c-1.4-0.6-3.2-1.5-5.1-2.4c-1.9-0.9-3.6-1.4-5-1.5c-1.3-0.2-2.2,0-2.3-0.3
	c-0.1-0.3,0.6-1,2.3-1.3c1.6-0.3,3.9,0,6,1c2.1,1,3.6,2.5,4.7,3.5C395.5,90.8,396.1,91.5,396.1,91.5L396.1,91.5z"/>
<path class="st1" d="M404.3,85c0,0-0.7,0.3-1.7,0.7c-1,0.4-2.3,1-3.7,1.6c-2.8,1.2-5.2,2.5-5.6,2c-0.2-0.3,0.2-0.9,1-1.7
	s2.1-1.7,3.7-2.4c1.6-0.7,3.3-0.8,4.5-0.6c0.6,0.1,1,0.2,1.3,0.3C404.1,84.9,404.3,85,404.3,85L404.3,85z"/>
<path class="st1" d="M381,96.4c0,0-0.2-0.1-0.5-0.3c-0.3-0.2-0.7-0.4-1.2-0.7c-1-0.6-2.5-1.2-4.1-1.8c-3.3-1.2-6.2-0.9-6.3-1.4
	c0-0.2,0.7-0.6,1.9-0.8c1.2-0.2,3.1-0.1,4.9,0.6c1.9,0.7,3.3,1.8,4.1,2.8c0.4,0.5,0.7,0.9,0.9,1.2C380.9,96.3,381,96.4,381,96.4z"/>
<path class="st1" d="M384.2,89.7c0,0-0.5,0.3-1.2,0.7c-0.7,0.4-1.6,0.9-2.6,1.5c-2,1.1-3.5,2.3-3.9,2c-0.2-0.2,0-0.7,0.5-1.4
	c0.5-0.7,1.4-1.5,2.5-2.2c1.2-0.6,2.4-0.8,3.2-0.8C383.7,89.5,384.2,89.7,384.2,89.7L384.2,89.7z"/>
<path class="st1" d="M378.3,85.8c0,0-1.1-0.4-2.8-1.1c-1.7-0.7-4-1.7-6.5-2.5s-4.9-1-6.5-0.9c-1.7,0.1-2.8,0.4-3,0.1
	c-0.1-0.2,0.8-1.2,2.7-1.7c1.9-0.6,4.7-0.6,7.6,0.3s4.9,2.6,6.4,3.8C377.5,85,378.3,85.8,378.3,85.8L378.3,85.8z"/>
<path class="st1" d="M385.8,76.3c0,0-0.2,0.1-0.6,0.2c-0.4,0.1-1,0.3-1.6,0.5c-1.4,0.4-3.1,1.1-5,2c-3.8,1.7-6.2,4.2-6.8,3.8
	c-0.2-0.2,0.1-1.1,1-2.3c1-1.2,2.6-2.6,4.8-3.6c2.2-1,4.4-1.2,5.9-1c0.8,0.1,1.4,0.2,1.8,0.3C385.6,76.2,385.8,76.3,385.8,76.3
	L385.8,76.3z"/>
<path class="st5" d="M128.6,119.6c0,0-0.9-0.2-2.3-0.8c-1.4-0.6-3.2-1.5-5.1-2.4c-1.9-0.9-3.6-1.4-5-1.5c-1.3-0.2-2.2,0-2.3-0.3
	c-0.1-0.3,0.7-1,2.3-1.3c1.6-0.3,3.9,0,6,1c2.1,1,3.6,2.5,4.7,3.5C127.9,118.9,128.6,119.6,128.6,119.6L128.6,119.6z"/>
<path class="st5" d="M136.7,113c0,0-0.7,0.3-1.7,0.7c-1,0.4-2.3,1-3.7,1.6c-2.8,1.2-5.2,2.5-5.6,2c-0.2-0.3,0.2-0.9,1-1.7
	c0.8-0.8,2.1-1.7,3.7-2.4c1.6-0.7,3.3-0.8,4.4-0.6c0.6,0.1,1,0.2,1.3,0.3C136.6,113,136.7,113,136.7,113L136.7,113z"/>
<path class="st5" d="M113.4,124.5c0,0-0.2-0.1-0.5-0.3c-0.3-0.2-0.7-0.4-1.2-0.7c-1-0.6-2.5-1.2-4.1-1.8c-3.3-1.2-6.2-0.9-6.3-1.4
	c0-0.2,0.7-0.6,1.9-0.8c1.2-0.2,3.1-0.1,4.9,0.6c1.9,0.7,3.3,1.8,4.1,2.7c0.4,0.5,0.7,0.9,0.9,1.2
	C113.3,124.3,113.4,124.5,113.4,124.5L113.4,124.5z"/>
<path class="st5" d="M116.7,117.7c0,0-0.5,0.3-1.2,0.7c-0.7,0.4-1.6,0.9-2.6,1.5c-2,1.1-3.5,2.3-3.9,2c-0.2-0.2,0-0.7,0.5-1.4
	c0.5-0.7,1.4-1.5,2.5-2.2c1.2-0.6,2.4-0.8,3.2-0.8C116.1,117.6,116.7,117.7,116.7,117.7z"/>
<polygon class="st5" points="321.2,309.9 331.7,309.9 331.7,300.4 321.2,300.4 "/>
<polygon class="st5" points="321,328.2 332.3,328.2 332.2,318.1 320.9,318.1 "/>
<polygon class="st5" points="321.3,345.1 332.3,345.1 332.2,335.2 321.2,335.2 "/>
<polygon class="st5" points="321.6,362.3 332.3,362.3 332.2,352.8 321.6,352.8 "/>
<polygon class="st7" points="147.7,58.1 152,63.6 349.6,63.6 353.9,58.1 "/>
<g class="st8">
	<polygon class="st9" points="147.7,58.1 152,63.6 349.6,63.6 353.9,58.1 	"/>
</g>
<rect x="151.6" y="50.9" class="st7" width="198.1" height="351.2"/>
<g class="st8">
	<rect x="150.2" y="50.9" class="st10" width="199.5" height="351.2"/>
</g>
<g class="st11">
	<path class="st12" d="M159.6,59.5c0.2,2.3-1.4,4.1-3.6,4.1s-4.2-1.8-4.4-4.1c-0.2-2.3,1.3-4.2,3.5-4.2
		C157.4,55.4,159.4,57.2,159.6,59.5z"/>
	<path class="st12" d="M166.9,59.5c0.2,2.3-1.4,4.1-3.6,4.1s-4.1-1.8-4.4-4.1c-0.2-2.3,1.4-4.2,3.6-4.2
		C164.7,55.4,166.7,57.2,166.9,59.5z"/>
	<path class="st12" d="M174.2,59.5c0.2,2.3-1.4,4.1-3.6,4.1s-4.1-1.8-4.3-4.1c-0.2-2.3,1.4-4.2,3.6-4.2S174,57.2,174.2,59.5z"/>
	<path class="st12" d="M181.5,59.5c0.2,2.3-1.5,4.1-3.6,4.1c-2.2,0-4.1-1.8-4.3-4.1c-0.2-2.3,1.4-4.2,3.6-4.2S181.3,57.2,181.5,59.5
		z"/>
	<path class="st12" d="M188.8,59.5c0.2,2.3-1.5,4.1-3.7,4.1c-2.2,0-4.1-1.8-4.3-4.1c-0.2-2.3,1.5-4.2,3.7-4.2S188.6,57.2,188.8,59.5
		z"/>
	<path class="st12" d="M196.1,59.5c0.1,2.3-1.5,4.1-3.7,4.1s-4.1-1.8-4.2-4.1c-0.2-2.3,1.5-4.2,3.7-4.2S195.9,57.2,196.1,59.5
		L196.1,59.5z"/>
	<path class="st12" d="M203.4,59.5c0.1,2.3-1.6,4.1-3.7,4.1s-4.1-1.8-4.2-4.1c-0.1-2.3,1.5-4.2,3.7-4.2
		C201.3,55.4,203.2,57.2,203.4,59.5z"/>
	<path class="st12" d="M210.6,59.5c0.1,2.3-1.6,4.1-3.8,4.1s-4.1-1.8-4.2-4.1c-0.1-2.3,1.6-4.2,3.8-4.2
		C208.7,55.4,210.6,57.2,210.6,59.5z"/>
	<path class="st12" d="M217.9,59.5c0.1,2.3-1.6,4.1-3.8,4.1c-2.2,0-4-1.8-4.1-4.1c-0.1-2.3,1.6-4.2,3.8-4.2S217.9,57.2,217.9,59.5z"
		/>
	<path class="st12" d="M225.2,59.5c0.1,2.3-1.7,4.1-3.8,4.1c-2.2,0-4-1.8-4.1-4.1c-0.1-2.3,1.6-4.2,3.8-4.2S225.2,57.2,225.2,59.5z"
		/>
	<path class="st12" d="M232.5,59.5c0,2.3-1.7,4.1-3.9,4.1c-2.2,0-4-1.8-4.1-4.1c-0.1-2.3,1.7-4.2,3.9-4.2
		C230.6,55.4,232.5,57.2,232.5,59.5z"/>
	<path class="st12" d="M239.8,59.5c0,2.3-1.7,4.1-3.9,4.1s-4-1.8-4.1-4.1c-0.1-2.3,1.7-4.2,3.9-4.2S239.8,57.2,239.8,59.5z"/>
	<path class="st12" d="M247.1,59.5c0,2.3-1.8,4.1-3.9,4.1c-2.2,0-4-1.8-4-4.1c0-2.3,1.7-4.2,3.9-4.2S247.1,57.2,247.1,59.5z"/>
	<path class="st12" d="M254.4,59.5c0,2.3-1.8,4.1-4,4.1s-4-1.8-4-4.1c0-2.3,1.8-4.2,4-4.2S254.4,57.2,254.4,59.5z"/>
	<path class="st12" d="M261.7,59.5c0,2.3-1.8,4.1-4,4.1c-2.2,0-4-1.8-3.9-4.1c0-2.3,1.8-4.2,4-4.2S261.7,57.2,261.7,59.5z"/>
	<path class="st12" d="M269,59.5c0,2.3-1.9,4.1-4,4.1s-3.9-1.8-3.9-4.1c0-2.3,1.8-4.2,4-4.2S269,57.2,269,59.5z"/>
	<path class="st12" d="M276.3,59.5c-0.1,2.3-1.9,4.1-4.1,4.1s-3.9-1.8-3.9-4.1c0-2.3,1.9-4.2,4.1-4.2S276.3,57.2,276.3,59.5z"/>
	<path class="st12" d="M283.6,59.5c-0.1,2.3-1.9,4.1-4.1,4.1s-3.9-1.8-3.9-4.1c0.1-2.3,1.9-4.2,4.1-4.2
		C281.9,55.4,283.6,57.2,283.6,59.5z"/>
	<path class="st12" d="M290.8,59.5c-0.1,2.3-1.9,4.1-4.1,4.1c-2.2,0-3.9-1.8-3.8-4.1c0.1-2.3,1.9-4.2,4.1-4.2
		C289.2,55.4,291,57.2,290.8,59.5z"/>
	<path class="st12" d="M298.1,59.5c-0.1,2.3-2,4.1-4.2,4.1s-3.9-1.8-3.8-4.1c0.1-2.3,2-4.2,4.2-4.2S298.3,57.2,298.1,59.5z"/>
	<path class="st12" d="M305.4,59.5c-0.1,2.3-2,4.1-4.2,4.1c-2.2,0-3.9-1.8-3.7-4.1c0.1-2.3,2-4.2,4.2-4.2S305.6,57.2,305.4,59.5z"/>
	<path class="st12" d="M312.7,59.5c-0.2,2.3-2.1,4.1-4.2,4.1s-3.9-1.8-3.7-4.1c0.1-2.3,2-4.2,4.2-4.2
		C311.2,55.4,312.9,57.2,312.7,59.5z"/>
	<path class="st12" d="M320,59.5c-0.2,2.3-2.1,4.1-4.3,4.1c-2.2,0-3.8-1.8-3.7-4.1c0.2-2.3,2.1-4.2,4.3-4.2S320.2,57.2,320,59.5z"/>
	<path class="st12" d="M327.3,59.5c-0.2,2.3-2.1,4.1-4.3,4.1s-3.8-1.8-3.7-4.1c0.2-2.3,2.1-4.2,4.3-4.2S327.5,57.2,327.3,59.5z"/>
	<path class="st12" d="M334.6,59.5c-0.2,2.3-2.1,4.1-4.3,4.1s-3.8-1.8-3.6-4.1c0.2-2.3,2.1-4.2,4.3-4.2S334.8,57.2,334.6,59.5z"/>
	<path class="st12" d="M341.9,59.5c-0.2,2.3-2.2,4.1-4.4,4.1s-3.8-1.8-3.6-4.1c0.2-2.3,2.2-4.2,4.4-4.2
		C340.5,55.4,342.1,57.2,341.9,59.5z"/>
	<path class="st12" d="M349.2,59.5c-0.2,2.3-2.2,4.1-4.4,4.1c-2.2,0-3.8-1.8-3.6-4.1c0.2-2.3,2.2-4.2,4.4-4.2S349.4,57.2,349.2,59.5
		z"/>
</g>
<polygon class="st7" points="147.7,52.4 354,52.4 353.9,58.1 147.7,58.1 "/>
<polygon class="st7" points="147.6,46.8 151.9,52.4 349.6,52.4 354,46.8 "/>
<g class="st8">
	<polygon class="st9" points="147.6,46.8 151.9,52.4 349.6,52.4 354,46.8 	"/>
</g>
<polygon class="st7" points="147.6,41.1 354,41.1 354,46.8 147.6,46.8 "/>
<g>
	<polygon class="st7" points="151.9,46.8 349.6,46.8 349.6,52.4 151.9,52.4 	"/>
</g>
<g class="st11">
	<polygon class="st10" points="151.9,46.8 349.6,46.8 349.6,52.4 151.9,52.4 	"/>
</g>
<g class="st13">
	<polygon class="st10" points="151.6,163.5 349.7,163.5 349.7,166 151.6,166 	"/>
</g>
<g class="st11">
	<polygon class="st10" points="152,287 349.7,287 349.7,289.4 152,289.4 	"/>
</g>
<rect x="192.7" y="74.4" class="st7" width="24.5" height="26.4"/>
<rect x="239.7" y="74.4" class="st7" width="24.5" height="26.4"/>
<rect x="286.7" y="74.4" class="st7" width="24.5" height="26.4"/>
<rect x="192.7" y="114" class="st7" width="24.5" height="26.4"/>
<rect x="239.7" y="114" class="st7" width="24.5" height="26.4"/>
<rect x="286.7" y="114" class="st7" width="24.5" height="26.4"/>
<rect x="192.7" y="306" class="st7" width="24.5" height="26.4"/>
<rect x="239.7" y="306" class="st7" width="24.5" height="26.4"/>
<rect x="286.7" y="306" class="st7" width="24.5" height="26.4"/>
<rect x="166.5" y="361.7" class="st7" width="24.5" height="26.4"/>
<rect x="310.3" y="361.7" class="st7" width="24.5" height="26.4"/>
<rect x="192.7" y="186.9" class="st7" width="24.5" height="26.4"/>
<rect x="239.7" y="186.9" class="st7" width="24.5" height="26.4"/>
<rect x="286.7" y="186.9" class="st7" width="24.5" height="26.4"/>
<rect x="192.7" y="226.5" class="st7" width="24.5" height="26.4"/>
<rect x="239.7" y="226.5" class="st7" width="24.5" height="26.4"/>
<rect x="286.7" y="226.5" class="st7" width="24.5" height="26.4"/>
<g class="st11">
	<polygon class="st10" points="222.3,364.8 247.6,364.8 247.5,391.1 222.1,391.1 	"/>
</g>
<g class="st11">
	<polygon class="st10" points="252.5,364.8 278.9,364.8 277.7,391.1 252.2,391.1 	"/>
</g>
<polygon class="st7" points="283,396.4 216.1,396.4 215.8,391.1 283.2,391.1 "/>
<g class="st14">
	<polygon class="st10" points="283,396.4 216.1,396.4 215.8,391.1 283.2,391.1 	"/>
</g>
<polygon class="st7" points="285.6,402 213.7,402 213.4,396.8 285.9,396.8 "/>
<g class="st8">
	<polygon class="st10" points="288,355.5 211.1,355.5 210.8,349.5 288.3,349.5 	"/>
</g>
<polygon class="st15" points="211.1,355.5 222.3,364.8 278.9,364.8 288,355.5 "/>
<path class="st7" d="M216.4,359.9l3.9,31.3h3.1l-1.3-31.3l0,0C220.4,358.9,218.1,358.9,216.4,359.9L216.4,359.9z"/>
<path class="st7" d="M283.9,359.9l-3.9,31.3h-3.1l1.2-31.3l0,0C279.8,358.7,282.3,358.7,283.9,359.9L283.9,359.9L283.9,359.9z"/>
</svg>
