<?xml version="1.0" encoding="utf-8"?>
<!-- Generator: Adobe Illustrator 27.7.0, SVG Export Plug-In . SVG Version: 6.00 Build 0)  -->
<svg version="1.1" id="Layer_1" xmlns="http://www.w3.org/2000/svg" xmlns:xlink="http://www.w3.org/1999/xlink" x="0px" y="0px"
	 viewBox="0 0 622.7 248.9" style="enable-background:new 0 0 622.7 248.9;" xml:space="preserve">
<style type="text/css">
	.st0{fill:#333333;}
	.st1{fill:#1565AC;}
	.st2{fill:#FFFFFF;}
	.st3{fill:#A9A9A9;}
</style>
<g id="BACKGROUND">
</g>
<g id="OBJECTS">
	<g>
		<g>
			<path class="st0" d="M244.5,218.7l-1.7-2.4h-1.4v2.4h-1.3v-7h3.1c1.5,0,2.6,1,2.6,2.3c0,1.1-0.7,1.9-1.7,2.2l1.8,2.5H244.5z
				 M241.5,215.1h1.6c0.9,0,1.5-0.4,1.5-1.2s-0.6-1.2-1.5-1.2h-1.6V215.1z"/>
			<path class="st0" d="M250.9,217.2l0.8,0.8c-0.5,0.5-1.4,0.8-2.1,0.8c-1.5,0-2.8-1.2-2.8-2.8s1.2-2.8,2.7-2.8
				c1.6,0,2.6,1.2,2.6,3.2h-4c0.2,0.7,0.7,1.2,1.5,1.2C250,217.7,250.6,217.5,250.9,217.2z M248,215.5h2.8c-0.1-0.7-0.6-1.1-1.3-1.1
				S248.2,214.8,248,215.5z"/>
			<path class="st0" d="M258.3,213.4v4.7c0,1.4-1.1,2.3-2.8,2.3c-0.9,0-1.8-0.3-2.3-0.7l0.5-0.9c0.4,0.3,1,0.6,1.6,0.6
				c1,0,1.7-0.5,1.7-1.3v-0.7c-0.4,0.6-1.1,0.9-1.8,0.9c-1.4,0-2.4-1-2.4-2.5s1-2.5,2.4-2.5c0.7,0,1.4,0.3,1.8,0.9v-0.8H258.3z
				 M257,215.8c0-0.8-0.6-1.4-1.5-1.4c-0.8,0-1.4,0.6-1.4,1.4c0,0.9,0.6,1.5,1.4,1.5C256.4,217.2,257,216.6,257,215.8z"/>
			<path class="st0" d="M259.6,211.9c0-0.4,0.3-0.7,0.7-0.7c0.4,0,0.7,0.3,0.7,0.7s-0.3,0.7-0.7,0.7
				C259.9,212.6,259.6,212.3,259.6,211.9z M259.7,213.4h1.2v5.3h-1.2V213.4z"/>
			<path class="st0" d="M262,218l0.6-0.9c0.5,0.4,1.1,0.6,1.8,0.6c0.5,0,0.8-0.2,0.8-0.5c0-0.4-0.5-0.5-1.1-0.7
				c-1.1-0.3-1.9-0.6-1.9-1.6s0.8-1.7,2-1.7c0.7,0,1.5,0.3,2,0.6l-0.5,0.9c-0.5-0.3-1-0.5-1.5-0.5c-0.4,0-0.8,0.2-0.8,0.5
				s0.3,0.4,1.1,0.7c0.9,0.2,1.9,0.6,1.9,1.7c0,1-0.8,1.7-2.1,1.7C263.5,218.8,262.6,218.5,262,218z"/>
			<path class="st0" d="M270.4,218.4c-0.3,0.3-0.7,0.4-1.1,0.4c-0.9,0-1.5-0.6-1.5-1.5v-2.9H267v-1h0.8v-1.5h1.2v1.5h1.2v1H269v2.7
				c0,0.4,0.2,0.6,0.5,0.6c0.2,0,0.4-0.1,0.5-0.2L270.4,218.4z"/>
			<path class="st0" d="M274.6,213.3v1.1c-1.1,0-1.9,0.7-1.9,1.7v2.7h-1.2v-5.3h1.2v1C273,213.7,273.7,213.3,274.6,213.3z"/>
			<path class="st0" d="M275.1,216c0-1.5,1.3-2.8,2.8-2.8s2.8,1.3,2.8,2.8s-1.3,2.8-2.8,2.8S275.1,217.5,275.1,216z M279.5,216
				c0-0.9-0.7-1.7-1.6-1.7s-1.6,0.8-1.6,1.7s0.7,1.7,1.6,1.7S279.5,217,279.5,216z"/>
			<path class="st0" d="M290,211.5v7.2h-1.2v-0.8c-0.4,0.6-1.1,0.9-1.8,0.9c-1.4,0-2.4-1.1-2.4-2.8c0-1.6,1-2.8,2.4-2.8
				c0.8,0,1.4,0.3,1.8,0.9v-2.7h1.2V211.5z M288.8,216c0-1-0.6-1.7-1.5-1.7s-1.5,0.7-1.5,1.7s0.6,1.7,1.5,1.7
				C288.2,217.7,288.8,217,288.8,216z"/>
			<path class="st0" d="M291.2,216c0-1.5,1.3-2.8,2.8-2.8s2.8,1.3,2.8,2.8s-1.3,2.8-2.8,2.8S291.2,217.5,291.2,216z M295.6,216
				c0-0.9-0.7-1.7-1.6-1.7s-1.6,0.8-1.6,1.7s0.7,1.7,1.6,1.7S295.6,217,295.6,216z"/>
			<path class="st0" d="M305.4,215.5v3.2h-1.2v-0.6c-0.4,0.5-1.1,0.8-1.7,0.8c-1.1,0-2-0.7-2-1.7s1-1.8,2.2-1.8c0.5,0,1,0.1,1.5,0.3
				v-0.1c0-0.6-0.3-1.2-1.3-1.2c-0.5,0-1,0.2-1.4,0.4l-0.4-0.9c0.7-0.4,1.4-0.6,2.1-0.6C304.5,213.3,305.4,214.2,305.4,215.5z
				 M304.2,217v-0.6c-0.4-0.1-0.8-0.2-1.3-0.2c-0.6,0-1.1,0.3-1.1,0.8s0.4,0.8,1,0.8C303.4,217.9,304,217.6,304.2,217z"/>
			<path class="st0" d="M312,211.5v7.2h-1.2v-0.8c-0.4,0.6-1.1,0.9-1.8,0.9c-1.4,0-2.4-1.1-2.4-2.8c0-1.6,1-2.8,2.4-2.8
				c0.8,0,1.4,0.3,1.8,0.9v-2.7h1.2V211.5z M310.8,216c0-1-0.6-1.7-1.5-1.7s-1.5,0.7-1.5,1.7s0.6,1.7,1.5,1.7
				C310.1,217.7,310.8,217,310.8,216z"/>
			<path class="st0" d="M313.1,216c0-1.5,1.3-2.8,2.8-2.8s2.8,1.3,2.8,2.8s-1.3,2.8-2.8,2.8S313.1,217.5,313.1,216z M317.6,216
				c0-0.9-0.7-1.7-1.6-1.7s-1.6,0.8-1.6,1.7s0.7,1.7,1.6,1.7C316.8,217.7,317.6,217,317.6,216z"/>
			<path class="st0" d="M323.7,217.2l0.8,0.8c-0.5,0.5-1.4,0.8-2.1,0.8c-1.5,0-2.8-1.2-2.8-2.8s1.2-2.8,2.7-2.8
				c1.6,0,2.6,1.2,2.6,3.2h-4c0.2,0.7,0.7,1.2,1.5,1.2C322.9,217.7,323.4,217.5,323.7,217.2z M320.9,215.5h2.8
				c-0.1-0.7-0.6-1.1-1.3-1.1S321.1,214.8,320.9,215.5z"/>
			<path class="st0" d="M325.7,216c0-1.5,1.3-2.8,2.8-2.8c0.8,0,1.5,0.3,2,0.9l-0.8,0.7c-0.3-0.3-0.7-0.5-1.2-0.5
				c-0.9,0-1.6,0.8-1.6,1.7s0.7,1.7,1.6,1.7c0.5,0,0.9-0.2,1.2-0.6l0.8,0.7c-0.5,0.5-1.2,0.9-2.1,0.9
				C327,218.8,325.7,217.5,325.7,216z"/>
			<path class="st0" d="M331.5,211.9c0-0.4,0.3-0.7,0.7-0.7c0.4,0,0.7,0.3,0.7,0.7s-0.3,0.7-0.7,0.7
				C331.8,212.6,331.5,212.3,331.5,211.9z M331.6,213.4h1.2v5.3h-1.2V213.4z"/>
			<path class="st0" d="M342.2,215.3v3.4H341v-3.2c0-0.7-0.4-1.2-1-1.2c-0.7,0-1.2,0.5-1.2,1.1v3.2h-1.2v-3.2c0-0.7-0.4-1.2-1-1.2
				c-0.7,0-1.2,0.5-1.2,1.1v3.2h-1.2v-5.3h1.2v0.7c0.3-0.5,0.8-0.8,1.5-0.8s1.4,0.4,1.7,1c0.3-0.6,0.9-1,1.7-1
				C341.4,213.3,342.2,214.1,342.2,215.3z"/>
			<path class="st0" d="M347.4,217.2l0.8,0.8c-0.5,0.5-1.4,0.8-2.1,0.8c-1.5,0-2.8-1.2-2.8-2.8s1.2-2.8,2.7-2.8
				c1.6,0,2.6,1.2,2.6,3.2h-4c0.2,0.7,0.7,1.2,1.5,1.2C346.6,217.7,347.1,217.5,347.4,217.2z M344.6,215.5h2.8
				c-0.1-0.7-0.6-1.1-1.3-1.1C345.4,214.4,344.8,214.8,344.6,215.5z"/>
			<path class="st0" d="M354.5,215.3v3.4h-1.2v-3.1c0-0.7-0.5-1.2-1.1-1.2s-1.2,0.4-1.3,1v3.3h-1.2v-5.3h1.2v0.7
				c0.3-0.5,0.9-0.8,1.6-0.8C353.7,213.3,354.5,214.1,354.5,215.3z"/>
			<path class="st0" d="M358.9,218.4c-0.3,0.3-0.7,0.4-1.1,0.4c-0.9,0-1.5-0.6-1.5-1.5v-2.9h-0.8v-1h0.8v-1.5h1.2v1.5h1.2v1h-1.2
				v2.7c0,0.4,0.2,0.6,0.5,0.6c0.2,0,0.4-0.1,0.5-0.2L358.9,218.4z"/>
			<path class="st0" d="M359.6,216c0-1.5,1.3-2.8,2.8-2.8s2.8,1.3,2.8,2.8s-1.3,2.8-2.8,2.8S359.6,217.5,359.6,216z M364,216
				c0-0.9-0.7-1.7-1.6-1.7s-1.6,0.8-1.6,1.7s0.7,1.7,1.6,1.7S364,217,364,216z"/>
		</g>
		<g>
			<path class="st0" d="M239.7,192.5c0-6,3.6-10.2,8.8-10.2s8.8,4.2,8.8,10.2s-3.7,10.2-8.8,10.2
				C243.4,202.7,239.7,198.5,239.7,192.5z M253,192.5c0-3.7-1.8-6.3-4.5-6.3c-2.6,0-4.5,2.6-4.5,6.3s1.9,6.4,4.5,6.4
				C251.2,198.9,253,196.2,253,192.5z"/>
			<path class="st0" d="M259.4,199.4l2.5-2.8c1.4,1.5,3.2,2.3,5.2,2.3c2.2,0,3.4-1,3.4-2.4c0-1.5-1.2-2.3-3.8-2.3h-2.3v-3.6h2.3
				c2.1,0,3.4-0.8,3.4-2.2s-1.3-2.3-3.3-2.3c-1.9,0-3.3,0.9-4.6,2.3l-2.4-2.6c1.6-2,4-3.5,7.5-3.5c4.4,0,7.2,2.3,7.2,5.4
				c0,2.3-1.5,3.9-3.7,4.5c2.1,0.5,4.1,2,4.1,4.6c0,3.4-3,5.9-7.6,5.9C263.7,202.8,261,201.4,259.4,199.4z"/>
		</g>
		<g>
			<path class="st0" d="M18.7,211.7H20v7h-1.3V211.7z"/>
			<path class="st0" d="M26.6,211.5v7.2h-1.2v-0.8c-0.4,0.6-1.1,0.9-1.8,0.9c-1.4,0-2.4-1.1-2.4-2.8c0-1.6,1-2.8,2.4-2.8
				c0.8,0,1.4,0.3,1.8,0.9v-2.7h1.2V211.5z M25.4,216c0-1-0.6-1.7-1.5-1.7s-1.5,0.7-1.5,1.7s0.6,1.7,1.5,1.7S25.4,217,25.4,216z"/>
			<path class="st0" d="M31.9,217.2l0.8,0.8c-0.5,0.5-1.4,0.8-2.1,0.8c-1.5,0-2.8-1.2-2.8-2.8s1.2-2.8,2.7-2.8
				c1.6,0,2.6,1.2,2.6,3.2h-4c0.2,0.7,0.7,1.2,1.5,1.2C31,217.7,31.6,217.5,31.9,217.2z M29.1,215.5h2.8c-0.1-0.7-0.6-1.1-1.3-1.1
				C29.8,214.4,29.2,214.8,29.1,215.5z"/>
			<path class="st0" d="M39,215.3v3.4h-1.2v-3.1c0-0.7-0.5-1.2-1.1-1.2s-1.2,0.4-1.3,1v3.3h-1.2v-5.3h1.2v0.7
				c0.3-0.5,0.9-0.8,1.6-0.8C38.2,213.3,39,214.1,39,215.3z"/>
			<path class="st0" d="M41.9,213.4h1.2v1h-1.2v4.3h-1.2v-4.3h-0.8v-1h0.8v-0.6c0-0.9,0.6-1.5,1.5-1.5c0.4,0,0.8,0.2,1.1,0.4
				l-0.4,0.8c-0.1-0.1-0.3-0.2-0.5-0.2c-0.3,0-0.5,0.3-0.5,0.6C41.9,212.9,41.9,213.4,41.9,213.4z"/>
			<path class="st0" d="M44,211.9c0-0.4,0.3-0.7,0.7-0.7s0.7,0.3,0.7,0.7s-0.3,0.7-0.7,0.7C44.4,212.6,44,212.3,44,211.9z
				 M44.1,213.4h1.2v5.3h-1.2V213.4z"/>
			<path class="st0" d="M48.4,213.4h1.2v1h-1.2v4.3h-1.2v-4.3h-0.8v-1h0.8v-0.6c0-0.9,0.6-1.5,1.5-1.5c0.4,0,0.8,0.2,1.1,0.4
				l-0.4,0.8c-0.1-0.1-0.3-0.2-0.5-0.2c-0.3,0-0.5,0.3-0.5,0.6C48.4,212.9,48.4,213.4,48.4,213.4z"/>
			<path class="st0" d="M50.5,211.9c0-0.4,0.3-0.7,0.7-0.7s0.7,0.3,0.7,0.7s-0.3,0.7-0.7,0.7C50.8,212.6,50.5,212.3,50.5,211.9z
				 M50.5,213.4h1.2v5.3h-1.2V213.4z"/>
			<path class="st0" d="M52.9,216c0-1.5,1.3-2.8,2.8-2.8c0.8,0,1.5,0.3,2,0.9l-0.8,0.7c-0.3-0.3-0.7-0.5-1.2-0.5
				c-0.9,0-1.6,0.8-1.6,1.7s0.7,1.7,1.6,1.7c0.5,0,0.9-0.2,1.2-0.6l0.8,0.7c-0.5,0.5-1.2,0.9-2.1,0.9
				C54.2,218.8,52.9,217.5,52.9,216z"/>
			<path class="st0" d="M63.3,215.5v3.2h-1.2v-0.6c-0.4,0.5-1.1,0.8-1.7,0.8c-1.1,0-2-0.7-2-1.7s1-1.8,2.2-1.8c0.5,0,1,0.1,1.5,0.3
				v-0.1c0-0.6-0.3-1.2-1.3-1.2c-0.5,0-1,0.2-1.4,0.4l-0.4-0.9c0.7-0.4,1.4-0.6,2.1-0.6C62.5,213.3,63.3,214.2,63.3,215.5z
				 M62.1,217v-0.6c-0.4-0.1-0.8-0.2-1.3-0.2c-0.6,0-1.1,0.3-1.1,0.8s0.4,0.8,1,0.8C61.3,217.9,62,217.6,62.1,217z"/>
			<path class="st0" d="M67.5,218.8l-0.2,0.3h0.1c0.4,0,0.7,0.3,0.7,0.7c0,0.5-0.5,0.9-1.1,0.9c-0.4,0-0.7-0.1-0.9-0.3l0.2-0.5
				c0.2,0.2,0.4,0.2,0.6,0.2c0.3,0,0.5-0.1,0.5-0.3s-0.1-0.3-0.3-0.3c-0.1,0-0.2,0-0.3,0.1l-0.2-0.2l0.2-0.6
				c-1.4-0.2-2.4-1.4-2.4-2.7c0-1.5,1.3-2.8,2.8-2.8c0.8,0,1.5,0.3,2,0.9l-0.8,0.7c-0.3-0.3-0.7-0.5-1.2-0.5c-0.9,0-1.6,0.8-1.6,1.7
				s0.7,1.7,1.6,1.7c0.5,0,0.9-0.2,1.2-0.6l0.8,0.7C68.8,218.4,68.2,218.7,67.5,218.8z"/>
			<path class="st0" d="M74.9,215.5v3.2h-1.2v-0.6c-0.4,0.5-1.1,0.8-1.7,0.8c-1.1,0-2-0.7-2-1.7s1-1.8,2.2-1.8c0.5,0,1,0.1,1.5,0.3
				v-0.1c0-0.6-0.3-1.2-1.3-1.2c-0.5,0-1,0.2-1.4,0.4l-0.4-0.9c0.7-0.4,1.4-0.6,2.1-0.6C74,213.3,74.9,214.2,74.9,215.5z
				 M71.5,212.8l-0.6-0.1c0.1-0.9,0.4-1.3,1.1-1.3c0.6,0,1,0.6,1.3,0.6c0.2,0,0.4-0.2,0.5-0.6l0.7,0.1c-0.1,0.9-0.5,1.3-1.1,1.3
				s-1-0.6-1.3-0.6C71.7,212.2,71.6,212.4,71.5,212.8z M73.6,217v-0.6c-0.4-0.1-0.8-0.2-1.3-0.2c-0.6,0-1.1,0.3-1.1,0.8
				s0.4,0.8,1,0.8C72.9,217.9,73.5,217.6,73.6,217z"/>
			<path class="st0" d="M75.9,216c0-1.5,1.3-2.8,2.8-2.8s2.8,1.3,2.8,2.8s-1.3,2.8-2.8,2.8C77.2,218.8,75.9,217.5,75.9,216z
				 M80.4,216c0-0.9-0.7-1.7-1.6-1.7s-1.6,0.8-1.6,1.7s0.7,1.7,1.6,1.7C79.6,217.7,80.4,217,80.4,216z"/>
			<path class="st0" d="M90.9,211.5v7.2h-1.2v-0.8c-0.4,0.6-1.1,0.9-1.8,0.9c-1.4,0-2.4-1.1-2.4-2.8c0-1.6,1-2.8,2.4-2.8
				c0.8,0,1.4,0.3,1.8,0.9v-2.7h1.2V211.5z M89.6,216c0-1-0.6-1.7-1.5-1.7s-1.5,0.7-1.5,1.7s0.6,1.7,1.5,1.7S89.6,217,89.6,216z"/>
			<path class="st0" d="M92,216c0-1.5,1.3-2.8,2.8-2.8s2.8,1.3,2.8,2.8s-1.3,2.8-2.8,2.8S92,217.5,92,216z M96.4,216
				c0-0.9-0.7-1.7-1.6-1.7s-1.6,0.8-1.6,1.7s0.7,1.7,1.6,1.7C95.7,217.7,96.4,217,96.4,216z"/>
			<path class="st0" d="M101.4,216c0-1.5,1.3-2.8,2.8-2.8c0.8,0,1.5,0.3,2,0.9l-0.8,0.7c-0.3-0.3-0.7-0.5-1.2-0.5
				c-0.9,0-1.6,0.8-1.6,1.7s0.7,1.7,1.6,1.7c0.5,0,0.9-0.2,1.2-0.6l0.8,0.7c-0.5,0.5-1.2,0.9-2.1,0.9
				C102.7,218.8,101.4,217.5,101.4,216z"/>
			<path class="st0" d="M111.8,215.5v3.2h-1.2v-0.6c-0.4,0.5-1.1,0.8-1.7,0.8c-1.1,0-2-0.7-2-1.7s1-1.8,2.2-1.8c0.5,0,1,0.1,1.5,0.3
				v-0.1c0-0.6-0.3-1.2-1.3-1.2c-0.5,0-1,0.2-1.4,0.4l-0.4-0.9c0.7-0.4,1.4-0.6,2.1-0.6C110.9,213.3,111.8,214.2,111.8,215.5z
				 M110.6,217v-0.6c-0.4-0.1-0.8-0.2-1.3-0.2c-0.6,0-1.1,0.3-1.1,0.8s0.4,0.8,1,0.8C109.8,217.9,110.5,217.6,110.6,217z"/>
			<path class="st0" d="M112.8,218l0.6-0.9c0.5,0.4,1.1,0.6,1.8,0.6c0.5,0,0.8-0.2,0.8-0.5c0-0.4-0.5-0.5-1.1-0.7
				c-1.1-0.3-1.9-0.6-1.9-1.6s0.8-1.7,2-1.7c0.7,0,1.5,0.3,2,0.6l-0.5,0.9c-0.5-0.3-1-0.5-1.5-0.5c-0.4,0-0.8,0.2-0.8,0.5
				s0.3,0.4,1.1,0.7c0.9,0.2,1.9,0.6,1.9,1.7c0,1-0.8,1.7-2.1,1.7C114.3,218.8,113.4,218.5,112.8,218z"/>
			<path class="st0" d="M118,216c0-1.5,1.3-2.8,2.8-2.8s2.8,1.3,2.8,2.8s-1.3,2.8-2.8,2.8S118,217.5,118,216z M122.5,216
				c0-0.9-0.7-1.7-1.6-1.7s-1.6,0.8-1.6,1.7s0.7,1.7,1.6,1.7C121.7,217.7,122.5,217,122.5,216z"/>
			<path class="st0" d="M127.3,218l0.6-0.9c0.5,0.4,1.1,0.6,1.8,0.6c0.5,0,0.8-0.2,0.8-0.5c0-0.4-0.5-0.5-1.1-0.7
				c-1.1-0.3-1.9-0.6-1.9-1.6s0.8-1.7,2-1.7c0.7,0,1.5,0.3,2,0.6l-0.5,0.9c-0.5-0.3-1-0.5-1.5-0.5c-0.4,0-0.8,0.2-0.8,0.5
				s0.3,0.4,1.1,0.7c0.9,0.2,1.9,0.6,1.9,1.7c0,1-0.8,1.7-2.1,1.7C128.8,218.8,127.9,218.5,127.3,218z"/>
			<path class="st0" d="M137.6,213.4v5.3h-1.2V218c-0.3,0.5-0.9,0.8-1.6,0.8c-1.2,0-2-0.8-2-2v-3.4h1.2v3.1c0,0.7,0.5,1.2,1.1,1.2
				s1.2-0.4,1.3-1v-3.3L137.6,213.4L137.6,213.4z"/>
			<path class="st0" d="M138.6,218l0.6-0.9c0.5,0.4,1.1,0.6,1.8,0.6c0.5,0,0.8-0.2,0.8-0.5c0-0.4-0.5-0.5-1.1-0.7
				c-1.1-0.3-1.9-0.6-1.9-1.6s0.8-1.7,2-1.7c0.7,0,1.5,0.3,2,0.6l-0.5,0.9c-0.5-0.3-1-0.5-1.5-0.5c-0.4,0-0.8,0.2-0.8,0.5
				s0.3,0.4,1.1,0.7c0.9,0.2,1.9,0.6,1.9,1.7c0,1-0.8,1.7-2.1,1.7C140.1,218.8,139.3,218.5,138.6,218z"/>
			<path class="st0" d="M149.7,216c0,1.6-1,2.8-2.4,2.8c-0.8,0-1.4-0.4-1.8-1v2.6h-1.2v-7.1h1.2v0.8c0.4-0.6,1.1-1,1.8-1
				C148.6,213.3,149.7,214.4,149.7,216z M148.4,216c0-1-0.6-1.7-1.5-1.7s-1.5,0.7-1.5,1.7s0.6,1.7,1.5,1.7
				C147.8,217.7,148.4,217,148.4,216z"/>
			<path class="st0" d="M154.6,217.2l0.8,0.8c-0.5,0.5-1.4,0.8-2.1,0.8c-1.5,0-2.8-1.2-2.8-2.8s1.2-2.8,2.7-2.8
				c1.6,0,2.6,1.2,2.6,3.2h-4c0.2,0.7,0.7,1.2,1.5,1.2C153.7,217.7,154.3,217.5,154.6,217.2z M151.8,215.5h2.8
				c-0.1-0.7-0.6-1.1-1.3-1.1C152.5,214.4,152,214.8,151.8,215.5z"/>
			<path class="st0" d="M156.8,211.9c0-0.4,0.3-0.7,0.7-0.7s0.7,0.3,0.7,0.7s-0.3,0.7-0.7,0.7C157.1,212.6,156.8,212.3,156.8,211.9z
				 M156.9,213.4h1.2v5.3h-1.2V213.4z"/>
			<path class="st0" d="M162.5,218.4c-0.3,0.3-0.7,0.4-1.1,0.4c-0.9,0-1.5-0.6-1.5-1.5v-2.9h-0.8v-1h0.8v-1.5h1.2v1.5h1.2v1h-1.2
				v2.7c0,0.4,0.2,0.6,0.5,0.6c0.2,0,0.4-0.1,0.5-0.2L162.5,218.4z"/>
			<path class="st0" d="M163.2,216c0-1.5,1.3-2.8,2.8-2.8s2.8,1.3,2.8,2.8s-1.3,2.8-2.8,2.8S163.2,217.5,163.2,216z M167.6,216
				c0-0.9-0.7-1.7-1.6-1.7c-0.9,0-1.6,0.8-1.6,1.7s0.7,1.7,1.6,1.7C166.9,217.7,167.6,217,167.6,216z"/>
		</g>
		<g>
			<path class="st0" d="M18.2,192.5c0-6,3.6-10.2,8.8-10.2s8.8,4.2,8.8,10.2s-3.7,10.2-8.8,10.2C21.8,202.7,18.2,198.5,18.2,192.5z
				 M31.5,192.5c0-3.7-1.8-6.3-4.5-6.3c-2.6,0-4.5,2.6-4.5,6.3s1.9,6.4,4.5,6.4S31.5,196.2,31.5,192.5z"/>
			<path class="st0" d="M42.5,187.6l-3.3,2.1l-1.7-3l5.9-4h3.4v19.7h-4.2v-14.8H42.5z"/>
		</g>
		<g>
			<path class="st0" d="M461.8,211.7h1.3v7h-1.3V211.7z"/>
			<path class="st0" d="M469.4,215.3v3.4h-1.2v-3.1c0-0.7-0.5-1.2-1.1-1.2s-1.2,0.4-1.3,1v3.3h-1.2v-5.3h1.2v0.7
				c0.3-0.5,0.9-0.8,1.6-0.8C468.6,213.3,469.4,214.1,469.4,215.3z"/>
			<path class="st0" d="M470.2,213.4h1.3l1.5,3.8l1.5-3.8h1.3l-2.2,5.3h-1.2L470.2,213.4z"/>
			<path class="st0" d="M480.3,217.2l0.8,0.8c-0.5,0.5-1.4,0.8-2.1,0.8c-1.5,0-2.8-1.2-2.8-2.8s1.2-2.8,2.7-2.8
				c1.6,0,2.6,1.2,2.6,3.2h-4c0.2,0.7,0.7,1.2,1.5,1.2C479.4,217.7,480,217.5,480.3,217.2z M477.5,215.5h2.8
				c-0.1-0.7-0.6-1.1-1.3-1.1C478.2,214.4,477.6,214.8,477.5,215.5z"/>
			<path class="st0" d="M482.2,218l0.6-0.9c0.5,0.4,1.1,0.6,1.8,0.6c0.5,0,0.8-0.2,0.8-0.5c0-0.4-0.5-0.5-1.1-0.7
				c-1.1-0.3-1.9-0.6-1.9-1.6s0.8-1.7,2-1.7c0.7,0,1.5,0.3,2,0.6l-0.5,0.9c-0.5-0.3-1-0.5-1.5-0.5c-0.4,0-0.8,0.2-0.8,0.5
				s0.3,0.4,1.1,0.7c0.9,0.2,1.9,0.6,1.9,1.7c0,1-0.8,1.7-2.1,1.7C483.7,218.8,482.8,218.5,482.2,218z"/>
			<path class="st0" d="M490.7,218.4c-0.3,0.3-0.7,0.4-1.1,0.4c-0.9,0-1.5-0.6-1.5-1.5v-2.9h-0.8v-1h0.8v-1.5h1.2v1.5h1.2v1h-1.2
				v2.7c0,0.4,0.2,0.6,0.5,0.6c0.2,0,0.4-0.1,0.5-0.2L490.7,218.4z"/>
			<path class="st0" d="M491.5,211.9c0-0.4,0.3-0.7,0.7-0.7c0.4,0,0.7,0.3,0.7,0.7s-0.3,0.7-0.7,0.7
				C491.9,212.6,491.5,212.3,491.5,211.9z M491.6,213.4h1.2v5.3h-1.2V213.4z"/>
			<path class="st0" d="M499.4,213.4v4.7c0,1.4-1.1,2.3-2.8,2.3c-0.9,0-1.8-0.3-2.3-0.7l0.5-0.9c0.4,0.3,1,0.6,1.6,0.6
				c1,0,1.7-0.5,1.7-1.3v-0.7c-0.4,0.6-1.1,0.9-1.8,0.9c-1.4,0-2.4-1-2.4-2.5s1-2.5,2.4-2.5c0.7,0,1.4,0.3,1.8,0.9v-0.8H499.4z
				 M498.2,215.8c0-0.8-0.6-1.4-1.5-1.4c-0.8,0-1.4,0.6-1.4,1.4c0,0.9,0.6,1.5,1.4,1.5C497.6,217.2,498.2,216.6,498.2,215.8z"/>
			<path class="st0" d="M505.4,215.5v3.2h-1.2v-0.6c-0.4,0.5-1.1,0.8-1.7,0.8c-1.1,0-2-0.7-2-1.7s1-1.8,2.2-1.8c0.5,0,1,0.1,1.5,0.3
				v-0.1c0-0.6-0.3-1.2-1.3-1.2c-0.5,0-1,0.2-1.4,0.4l-0.4-0.9c0.7-0.4,1.4-0.6,2.1-0.6C504.6,213.3,505.4,214.2,505.4,215.5z
				 M504.2,217v-0.6c-0.4-0.1-0.8-0.2-1.3-0.2c-0.6,0-1.1,0.3-1.1,0.8s0.4,0.8,1,0.8C503.4,217.9,504.1,217.6,504.2,217z"/>
			<path class="st0" d="M509.6,218.8l-0.2,0.3h0.1c0.4,0,0.7,0.3,0.7,0.7c0,0.5-0.5,0.9-1.1,0.9c-0.4,0-0.7-0.1-0.9-0.3l0.2-0.5
				c0.2,0.2,0.4,0.2,0.6,0.2c0.3,0,0.5-0.1,0.5-0.3s-0.1-0.3-0.3-0.3c-0.1,0-0.2,0-0.3,0.1l-0.2-0.2l0.2-0.6
				c-1.4-0.2-2.4-1.4-2.4-2.7c0-1.5,1.3-2.8,2.8-2.8c0.8,0,1.5,0.3,2,0.9l-0.8,0.7c-0.3-0.3-0.7-0.5-1.2-0.5c-0.9,0-1.6,0.8-1.6,1.7
				s0.7,1.7,1.6,1.7c0.5,0,0.9-0.2,1.2-0.6l0.8,0.7C510.9,218.4,510.3,218.7,509.6,218.8z"/>
			<path class="st0" d="M516.9,215.5v3.2h-1.2v-0.6c-0.4,0.5-1.1,0.8-1.7,0.8c-1.1,0-2-0.7-2-1.7s1-1.8,2.2-1.8c0.5,0,1,0.1,1.5,0.3
				v-0.1c0-0.6-0.3-1.2-1.3-1.2c-0.5,0-1,0.2-1.4,0.4l-0.4-0.9c0.7-0.4,1.4-0.6,2.1-0.6C516.1,213.3,516.9,214.2,516.9,215.5z
				 M513.6,212.8l-0.6-0.1c0.1-0.9,0.4-1.3,1.1-1.3c0.6,0,1,0.6,1.3,0.6c0.2,0,0.4-0.2,0.5-0.6l0.7,0.1c-0.1,0.9-0.5,1.3-1.1,1.3
				s-1-0.6-1.3-0.6C513.8,212.2,513.7,212.4,513.6,212.8z M515.7,217v-0.6c-0.4-0.1-0.8-0.2-1.3-0.2c-0.6,0-1.1,0.3-1.1,0.8
				s0.4,0.8,1,0.8C514.9,217.9,515.6,217.6,515.7,217z"/>
			<path class="st0" d="M518,216c0-1.5,1.3-2.8,2.8-2.8s2.8,1.3,2.8,2.8s-1.3,2.8-2.8,2.8S518,217.5,518,216z M522.5,216
				c0-0.9-0.7-1.7-1.6-1.7c-0.9,0-1.6,0.8-1.6,1.7s0.7,1.7,1.6,1.7C521.7,217.7,522.5,217,522.5,216z"/>
			<path class="st0" d="M532.3,215.5v3.2H531v-0.6c-0.4,0.5-1.1,0.8-1.7,0.8c-1.1,0-2-0.7-2-1.7s1-1.8,2.2-1.8c0.5,0,1,0.1,1.5,0.3
				v-0.1c0-0.6-0.3-1.2-1.3-1.2c-0.5,0-1,0.2-1.4,0.4l-0.4-0.9c0.7-0.4,1.4-0.6,2.1-0.6C531.4,213.3,532.3,214.2,532.3,215.5z
				 M531,217v-0.6c-0.4-0.1-0.8-0.2-1.3-0.2c-0.6,0-1.1,0.3-1.1,0.8s0.4,0.8,1,0.8C530.2,217.9,530.9,217.6,531,217z"/>
			<path class="st0" d="M541.7,215.3v3.4h-1.2v-3.2c0-0.7-0.4-1.2-1-1.2c-0.7,0-1.2,0.5-1.2,1.1v3.2H537v-3.2c0-0.7-0.4-1.2-1-1.2
				c-0.7,0-1.2,0.5-1.2,1.1v3.2h-1.2v-5.3h1.2v0.7c0.3-0.5,0.8-0.8,1.5-0.8s1.4,0.4,1.7,1c0.3-0.6,0.9-1,1.7-1
				C540.8,213.3,541.7,214.1,541.7,215.3z"/>
			<path class="st0" d="M548.6,216c0,1.6-1,2.8-2.4,2.8c-0.8,0-1.4-0.4-1.8-1v0.8H543v-7.2h1.2v2.7c0.4-0.6,1.1-1,1.8-1
				C547.5,213.3,548.6,214.4,548.6,216z M547.3,216c0-1-0.6-1.7-1.5-1.7s-1.5,0.7-1.5,1.7s0.6,1.7,1.5,1.7S547.3,217,547.3,216z"/>
			<path class="st0" d="M549.6,211.9c0-0.4,0.3-0.7,0.7-0.7s0.7,0.3,0.7,0.7s-0.3,0.7-0.7,0.7C549.9,212.6,549.6,212.3,549.6,211.9z
				 M549.7,213.4h1.2v5.3h-1.2V213.4z"/>
			<path class="st0" d="M556.1,217.2l0.8,0.8c-0.5,0.5-1.4,0.8-2.1,0.8c-1.5,0-2.8-1.2-2.8-2.8s1.2-2.8,2.7-2.8
				c1.6,0,2.6,1.2,2.6,3.2h-4c0.2,0.7,0.7,1.2,1.5,1.2C555.3,217.7,555.9,217.5,556.1,217.2z M553.3,215.5h2.8
				c-0.1-0.7-0.6-1.1-1.3-1.1S553.5,214.8,553.3,215.5z"/>
			<path class="st0" d="M563.2,215.3v3.4H562v-3.1c0-0.7-0.5-1.2-1.1-1.2s-1.2,0.4-1.3,1v3.3h-1.2v-5.3h1.2v0.7
				c0.3-0.5,0.9-0.8,1.6-0.8C562.4,213.3,563.2,214.1,563.2,215.3z"/>
			<path class="st0" d="M567.6,218.4c-0.3,0.3-0.7,0.4-1.1,0.4c-0.9,0-1.5-0.6-1.5-1.5v-2.9h-0.8v-1h0.8v-1.5h1.2v1.5h1.2v1h-1.2
				v2.7c0,0.4,0.2,0.6,0.5,0.6c0.2,0,0.4-0.1,0.5-0.2L567.6,218.4z"/>
			<path class="st0" d="M573.1,215.5v3.2h-1.2v-0.6c-0.4,0.5-1.1,0.8-1.7,0.8c-1.1,0-2-0.7-2-1.7s1-1.8,2.2-1.8c0.5,0,1,0.1,1.5,0.3
				v-0.1c0-0.6-0.3-1.2-1.3-1.2c-0.5,0-1,0.2-1.4,0.4l-0.4-0.9c0.7-0.4,1.4-0.6,2.1-0.6C572.3,213.3,573.1,214.2,573.1,215.5z
				 M571.9,217v-0.6c-0.4-0.1-0.8-0.2-1.3-0.2c-0.6,0-1.1,0.3-1.1,0.8s0.4,0.8,1,0.8C571.1,217.9,571.8,217.6,571.9,217z"/>
			<path class="st0" d="M574.5,211.5h1.2v7.2h-1.2V211.5z"/>
			<path class="st0" d="M465.6,229.5l0.8,0.8c-0.5,0.5-1.4,0.8-2.1,0.8c-1.5,0-2.8-1.2-2.8-2.8s1.2-2.8,2.7-2.8
				c1.6,0,2.6,1.2,2.6,3.2h-4c0.2,0.7,0.7,1.2,1.5,1.2C464.7,230,465.3,229.8,465.6,229.5z M462.8,227.8h2.8
				c-0.1-0.7-0.6-1.1-1.3-1.1C463.5,226.7,463,227.1,462.8,227.8z"/>
			<path class="st0" d="M476,223.8v7.2h-1.2v-0.8c-0.4,0.6-1.1,0.9-1.8,0.9c-1.4,0-2.4-1.1-2.4-2.8c0-1.6,1-2.8,2.4-2.8
				c0.8,0,1.4,0.3,1.8,0.9v-2.7h1.2V223.8z M474.8,228.3c0-1-0.6-1.7-1.5-1.7s-1.5,0.7-1.5,1.7s0.6,1.7,1.5,1.7
				C474.1,230,474.8,229.3,474.8,228.3z"/>
			<path class="st0" d="M477.1,228.3c0-1.5,1.3-2.8,2.8-2.8s2.8,1.3,2.8,2.8s-1.3,2.8-2.8,2.8S477.1,229.8,477.1,228.3z
				 M481.6,228.3c0-0.9-0.7-1.7-1.6-1.7s-1.6,0.8-1.6,1.7s0.7,1.7,1.6,1.7C480.8,230,481.6,229.3,481.6,228.3z"/>
			<path class="st0" d="M483.5,230.3l0.6-0.9c0.5,0.4,1.1,0.6,1.8,0.6c0.5,0,0.8-0.2,0.8-0.5c0-0.4-0.5-0.5-1.1-0.7
				c-1.1-0.3-1.9-0.6-1.9-1.6s0.8-1.7,2-1.7c0.7,0,1.5,0.3,2,0.6l-0.5,0.9c-0.5-0.3-1-0.5-1.5-0.5c-0.4,0-0.8,0.2-0.8,0.5
				s0.3,0.4,1.1,0.7c0.9,0.2,1.9,0.6,1.9,1.7c0,1-0.8,1.7-2.1,1.7C485,231.1,484.2,230.8,483.5,230.3z"/>
			<path class="st0" d="M497.5,228.3c0,1.6-1,2.8-2.4,2.8c-0.8,0-1.4-0.4-1.8-1v2.6h-1.2v-7.1h1.2v0.8c0.4-0.6,1.1-1,1.8-1
				C496.4,225.6,497.5,226.7,497.5,228.3z M496.2,228.3c0-1-0.6-1.7-1.5-1.7s-1.5,0.7-1.5,1.7s0.6,1.7,1.5,1.7
				S496.2,229.3,496.2,228.3z"/>
			<path class="st0" d="M501.8,225.6v1.1c-1.1,0-1.9,0.7-1.9,1.7v2.7h-1.2v-5.3h1.2v1C500.2,226,500.9,225.6,501.8,225.6z"/>
			<path class="st0" d="M502.3,228.3c0-1.5,1.3-2.8,2.8-2.8s2.8,1.3,2.8,2.8s-1.3,2.8-2.8,2.8C503.6,231.1,502.3,229.8,502.3,228.3z
				 M506.7,228.3c0-0.9-0.7-1.7-1.6-1.7s-1.6,0.8-1.6,1.7s0.7,1.7,1.6,1.7S506.7,229.3,506.7,228.3z"/>
			<path class="st0" d="M508.8,228.3c0-1.5,1.3-2.8,2.8-2.8c0.8,0,1.5,0.3,2,0.9l-0.8,0.7c-0.3-0.3-0.7-0.5-1.2-0.5
				c-0.9,0-1.6,0.8-1.6,1.7s0.7,1.7,1.6,1.7c0.5,0,0.9-0.2,1.2-0.6l0.8,0.7c-0.5,0.5-1.2,0.9-2.1,0.9
				C510.1,231.1,508.8,229.8,508.8,228.3z"/>
			<path class="st0" d="M518.5,229.5l0.8,0.8c-0.5,0.5-1.4,0.8-2.1,0.8c-1.5,0-2.8-1.2-2.8-2.8s1.2-2.8,2.7-2.8
				c1.6,0,2.6,1.2,2.6,3.2h-4c0.2,0.7,0.7,1.2,1.5,1.2C517.6,230,518.2,229.8,518.5,229.5z M515.6,227.8h2.8
				c-0.1-0.7-0.6-1.1-1.3-1.1C516.4,226.7,515.8,227.1,515.6,227.8z"/>
			<path class="st0" d="M520.3,230.3l0.6-0.9c0.5,0.4,1.1,0.6,1.8,0.6c0.5,0,0.8-0.2,0.8-0.5c0-0.4-0.5-0.5-1.1-0.7
				c-1.1-0.3-1.9-0.6-1.9-1.6s0.8-1.7,2-1.7c0.7,0,1.5,0.3,2,0.6L524,227c-0.5-0.3-1-0.5-1.5-0.5c-0.4,0-0.8,0.2-0.8,0.5
				s0.3,0.4,1.1,0.7c0.9,0.2,1.9,0.6,1.9,1.7c0,1-0.8,1.7-2.1,1.7C521.8,231.1,521,230.8,520.3,230.3z"/>
			<path class="st0" d="M525.5,230.3l0.6-0.9c0.5,0.4,1.1,0.6,1.8,0.6c0.5,0,0.8-0.2,0.8-0.5c0-0.4-0.5-0.5-1.1-0.7
				c-1.1-0.3-1.9-0.6-1.9-1.6s0.8-1.7,2-1.7c0.7,0,1.5,0.3,2,0.6l-0.5,0.9c-0.5-0.3-1-0.5-1.5-0.5c-0.4,0-0.8,0.2-0.8,0.5
				s0.3,0.4,1.1,0.7c0.9,0.2,1.9,0.6,1.9,1.7c0,1-0.8,1.7-2.1,1.7C527,231.1,526.1,230.8,525.5,230.3z"/>
			<path class="st0" d="M530.7,228.3c0-1.5,1.3-2.8,2.8-2.8s2.8,1.3,2.8,2.8s-1.3,2.8-2.8,2.8S530.7,229.8,530.7,228.3z
				 M535.1,228.3c0-0.9-0.7-1.7-1.6-1.7c-0.9,0-1.6,0.8-1.6,1.7s0.7,1.7,1.6,1.7C534.4,230,535.1,229.3,535.1,228.3z"/>
			<path class="st0" d="M537.1,230.3l0.6-0.9c0.5,0.4,1.1,0.6,1.8,0.6c0.5,0,0.8-0.2,0.8-0.5c0-0.4-0.5-0.5-1.1-0.7
				c-1.1-0.3-1.9-0.6-1.9-1.6s0.8-1.7,2-1.7c0.7,0,1.5,0.3,2,0.6l-0.5,0.9c-0.5-0.3-1-0.5-1.5-0.5c-0.4,0-0.8,0.2-0.8,0.5
				s0.3,0.4,1.1,0.7c0.9,0.2,1.9,0.6,1.9,1.7c0,1-0.8,1.7-2.1,1.7C538.6,231.1,537.7,230.8,537.1,230.3z"/>
			<path class="st0" d="M550.7,223.8v7.2h-1.2v-0.8c-0.4,0.6-1.1,0.9-1.8,0.9c-1.4,0-2.4-1.1-2.4-2.8c0-1.6,1-2.8,2.4-2.8
				c0.8,0,1.4,0.3,1.8,0.9v-2.7h1.2V223.8z M549.5,228.3c0-1-0.6-1.7-1.5-1.7s-1.5,0.7-1.5,1.7s0.6,1.7,1.5,1.7
				C548.8,230,549.5,229.3,549.5,228.3z"/>
			<path class="st0" d="M556,229.5l0.8,0.8c-0.5,0.5-1.4,0.8-2.1,0.8c-1.5,0-2.8-1.2-2.8-2.8s1.2-2.8,2.7-2.8c1.6,0,2.6,1.2,2.6,3.2
				h-4c0.2,0.7,0.7,1.2,1.5,1.2C555.1,230,555.7,229.8,556,229.5z M553.1,227.8h2.8c-0.1-0.7-0.6-1.1-1.3-1.1
				C553.9,226.7,553.3,227.1,553.1,227.8z"/>
			<path class="st0" d="M564.1,230.7c-0.3,0.3-0.7,0.4-1.1,0.4c-0.9,0-1.5-0.6-1.5-1.5v-2.9h-0.8v-1h0.8v-1.5h1.2v1.5h1.2v1h-1.2
				v2.7c0,0.4,0.2,0.6,0.5,0.6c0.2,0,0.4-0.1,0.5-0.2L564.1,230.7z"/>
			<path class="st0" d="M568.2,225.6v1.1c-1.1,0-1.9,0.7-1.9,1.7v2.7h-1.2v-5.3h1.2v1C566.7,226,567.4,225.6,568.2,225.6z"/>
			<path class="st0" d="M573.7,227.8v3.2h-1.2v-0.6c-0.4,0.5-1.1,0.8-1.7,0.8c-1.1,0-2-0.7-2-1.7s1-1.8,2.2-1.8c0.5,0,1,0.1,1.5,0.3
				v-0.1c0-0.6-0.3-1.2-1.3-1.2c-0.5,0-1,0.2-1.4,0.4l-0.4-0.9c0.7-0.4,1.4-0.6,2.1-0.6C572.9,225.6,573.7,226.5,573.7,227.8z
				 M572.5,229.3v-0.6c-0.4-0.1-0.8-0.2-1.3-0.2c-0.6,0-1.1,0.3-1.1,0.8s0.4,0.8,1,0.8C571.7,230.2,572.4,229.9,572.5,229.3z"/>
			<path class="st0" d="M580.6,228.3c0,1.6-1,2.8-2.4,2.8c-0.8,0-1.4-0.4-1.8-1v0.8h-1.2v-7.2h1.2v2.7c0.4-0.6,1.1-1,1.8-1
				C579.6,225.6,580.6,226.7,580.6,228.3z M579.4,228.3c0-1-0.6-1.7-1.5-1.7s-1.5,0.7-1.5,1.7s0.6,1.7,1.5,1.7
				C578.8,230,579.4,229.3,579.4,228.3z"/>
			<path class="st0" d="M586.3,227.8v3.2h-1.2v-0.6c-0.4,0.5-1.1,0.8-1.7,0.8c-1.1,0-2-0.7-2-1.7s1-1.8,2.2-1.8c0.5,0,1,0.1,1.5,0.3
				v-0.1c0-0.6-0.3-1.2-1.3-1.2c-0.5,0-1,0.2-1.4,0.4l-0.4-0.9c0.7-0.4,1.4-0.6,2.1-0.6C585.5,225.6,586.3,226.5,586.3,227.8z
				 M585.1,229.3v-0.6c-0.4-0.1-0.8-0.2-1.3-0.2c-0.6,0-1.1,0.3-1.1,0.8s0.4,0.8,1,0.8C584.3,230.2,585,229.9,585.1,229.3z"/>
			<path class="st0" d="M587.7,223.8h1.2v7.2h-1.2V223.8z"/>
			<path class="st0" d="M595.2,227.6v3.4H594v-3.1c0-0.7-0.5-1.2-1.1-1.2c-0.7,0-1.3,0.5-1.3,1.1v3.2h-1.2v-7.2h1.2v2.6
				c0.3-0.5,0.9-0.8,1.6-0.8C594.4,225.6,595.2,226.4,595.2,227.6z"/>
			<path class="st0" d="M596.3,228.3c0-1.5,1.3-2.8,2.8-2.8s2.8,1.3,2.8,2.8s-1.3,2.8-2.8,2.8S596.3,229.8,596.3,228.3z
				 M600.7,228.3c0-0.9-0.7-1.7-1.6-1.7c-0.9,0-1.6,0.8-1.6,1.7s0.7,1.7,1.6,1.7S600.7,229.3,600.7,228.3z"/>
			<path class="st0" d="M603,230.3c0-0.4,0.3-0.8,0.8-0.8c0.4,0,0.8,0.4,0.8,0.8c0,0.5-0.4,0.8-0.8,0.8
				C603.3,231.1,603,230.7,603,230.3z"/>
		</g>
		<g>
			<path class="st0" d="M461.3,192.5c0-6,3.6-10.2,8.8-10.2c5.2,0,8.8,4.2,8.8,10.2s-3.7,10.2-8.8,10.2
				C464.9,202.7,461.3,198.5,461.3,192.5z M474.6,192.5c0-3.7-1.8-6.3-4.5-6.3c-2.6,0-4.5,2.6-4.5,6.3s1.9,6.4,4.5,6.4
				C472.8,198.9,474.6,196.2,474.6,192.5z"/>
			<path class="st0" d="M481.3,199.7l2.5-3c1.5,1.4,3.3,2.3,5.2,2.3c2.2,0,3.6-1.3,3.6-3s-1.4-2.9-3.5-2.9c-1.5,0-2.7,0.5-3.8,1.3
				l-2.8-1.1l0.3-10.6h13v3.8h-9.1l-0.1,4.4c1-0.7,2.2-1.2,3.8-1.2c3.5,0,6.5,2.2,6.5,6.2c0,4.2-3.1,6.8-7.8,6.8
				C485.6,202.8,483.1,201.6,481.3,199.7z"/>
		</g>
		<g>
			<path class="st0" d="M352,46.6v1.7h3.6v1.2H352v1.8h4v1.2h-5.3v-7h5.3v1.2h-4V46.6z"/>
			<path class="st0" d="M362,49.1v3.4h-1.2v-3.1c0-0.7-0.5-1.2-1.1-1.2s-1.2,0.4-1.3,1v3.3h-1.2v-5.3h1.2v0.7
				c0.3-0.5,0.9-0.8,1.6-0.8C361.2,47,362,47.9,362,49.1z"/>
			<path class="st0" d="M363.1,49.8c0-1.5,1.3-2.8,2.8-2.8c0.8,0,1.5,0.3,2,0.9l-0.8,0.7c-0.3-0.3-0.7-0.5-1.2-0.5
				c-0.9,0-1.6,0.8-1.6,1.7s0.7,1.7,1.6,1.7c0.5,0,0.9-0.2,1.2-0.6l0.8,0.7c-0.5,0.5-1.2,0.9-2.1,0.9
				C364.4,52.6,363.1,51.3,363.1,49.8z"/>
			<path class="st0" d="M373.6,49.3v3.2h-1.2v-0.6c-0.4,0.5-1.1,0.8-1.7,0.8c-1.1,0-2-0.7-2-1.7s1-1.8,2.2-1.8c0.5,0,1,0.1,1.5,0.3
				v-0.1c0-0.6-0.3-1.2-1.3-1.2c-0.5,0-1,0.2-1.4,0.4l-0.4-0.9c0.7-0.4,1.4-0.6,2.1-0.6C372.7,47,373.6,47.9,373.6,49.3z
				 M372.3,50.8v-0.6c-0.4-0.1-0.8-0.2-1.3-0.2c-0.6,0-1.1,0.3-1.1,0.8s0.4,0.8,1,0.8C371.5,51.7,372.2,51.3,372.3,50.8z"/>
			<path class="st0" d="M383,49.1v3.4h-1.2v-3.2c0-0.7-0.4-1.2-1-1.2c-0.7,0-1.2,0.5-1.2,1.1v3.2h-1.2v-3.2c0-0.7-0.4-1.2-1-1.2
				c-0.7,0-1.2,0.5-1.2,1.1v3.2H375V47h1.2v0.7c0.3-0.5,0.8-0.8,1.5-0.8s1.4,0.4,1.7,1c0.3-0.6,0.9-1,1.7-1
				C382.1,47,383,47.9,383,49.1z"/>
			<path class="st0" d="M384.2,45.6c0-0.4,0.3-0.7,0.7-0.7c0.4,0,0.7,0.3,0.7,0.7s-0.3,0.7-0.7,0.7S384.2,46,384.2,45.6z
				 M384.3,47.1h1.2v5.3h-1.2V47.1z"/>
			<path class="st0" d="M391.8,49.1v3.4h-1.2v-3.1c0-0.7-0.5-1.2-1.1-1.2s-1.2,0.4-1.3,1v3.3H387v-5.3h1.2v0.7
				c0.3-0.5,0.9-0.8,1.6-0.8C391,47,391.8,47.9,391.8,49.1z"/>
			<path class="st0" d="M398,49.1v3.4h-1.2v-3.1c0-0.7-0.5-1.2-1.1-1.2c-0.7,0-1.3,0.5-1.3,1.1v3.2h-1.2v-7.2h1.2v2.6
				c0.3-0.5,0.9-0.8,1.6-0.8C397.2,47,398,47.9,398,49.1z"/>
			<path class="st0" d="M403.9,49.3v3.2h-1.2v-0.6c-0.4,0.5-1.1,0.8-1.7,0.8c-1.1,0-2-0.7-2-1.7s1-1.8,2.2-1.8c0.5,0,1,0.1,1.5,0.3
				v-0.1c0-0.6-0.3-1.2-1.3-1.2c-0.5,0-1,0.2-1.4,0.4l-0.4-0.9c0.7-0.4,1.4-0.6,2.1-0.6C403.1,47,403.9,47.9,403.9,49.3z
				 M402.7,50.8v-0.6c-0.4-0.1-0.8-0.2-1.3-0.2c-0.6,0-1.1,0.3-1.1,0.8s0.4,0.8,1,0.8C401.9,51.7,402.6,51.3,402.7,50.8z"/>
			<path class="st0" d="M413.3,49.1v3.4h-1.2v-3.2c0-0.7-0.4-1.2-1-1.2c-0.7,0-1.2,0.5-1.2,1.1v3.2h-1.2v-3.2c0-0.7-0.4-1.2-1-1.2
				c-0.7,0-1.2,0.5-1.2,1.1v3.2h-1.2V47h1.2v0.7c0.3-0.5,0.8-0.8,1.5-0.8s1.4,0.4,1.7,1c0.3-0.6,0.9-1,1.7-1
				C412.5,47,413.3,47.9,413.3,49.1z"/>
			<path class="st0" d="M418.5,50.9l0.8,0.8c-0.5,0.5-1.4,0.8-2.1,0.8c-1.5,0-2.8-1.2-2.8-2.8s1.2-2.8,2.7-2.8
				c1.6,0,2.6,1.2,2.6,3.2h-4c0.2,0.7,0.7,1.2,1.5,1.2C417.6,51.5,418.2,51.2,418.5,50.9z M415.7,49.3h2.8c-0.1-0.7-0.6-1.1-1.3-1.1
				C416.4,48.1,415.9,48.6,415.7,49.3z"/>
			<path class="st0" d="M425.6,49.1v3.4h-1.2v-3.1c0-0.7-0.5-1.2-1.1-1.2s-1.2,0.4-1.3,1v3.3h-1.2v-5.3h1.2v0.7
				c0.3-0.5,0.9-0.8,1.6-0.8C424.8,47,425.6,47.9,425.6,49.1z"/>
			<path class="st0" d="M430,52.1c-0.3,0.3-0.7,0.4-1.1,0.4c-0.9,0-1.5-0.6-1.5-1.5v-2.9h-0.8v-1h0.8v-1.5h1.2v1.5h1.2v1h-1.2v2.7
				c0,0.4,0.2,0.6,0.5,0.6c0.2,0,0.4-0.1,0.5-0.2L430,52.1z"/>
			<path class="st0" d="M430.7,49.8c0-1.5,1.3-2.8,2.8-2.8s2.8,1.3,2.8,2.8s-1.3,2.8-2.8,2.8S430.7,51.3,430.7,49.8z M435.1,49.8
				c0-0.9-0.7-1.7-1.6-1.7s-1.6,0.8-1.6,1.7s0.7,1.7,1.6,1.7S435.1,50.7,435.1,49.8z"/>
			<path class="st0" d="M358.7,61.4v3.4h-1.2v-3.2c0-0.7-0.4-1.2-1-1.2c-0.7,0-1.2,0.5-1.2,1.1v3.2h-1.2v-3.2c0-0.7-0.4-1.2-1-1.2
				c-0.7,0-1.2,0.5-1.2,1.1v3.2h-1.2v-5.3h1.2V60c0.3-0.5,0.8-0.8,1.5-0.8s1.4,0.4,1.7,1c0.3-0.6,0.9-1,1.7-1
				C357.9,59.3,358.7,60.2,358.7,61.4z"/>
			<path class="st0" d="M364.9,59.4v5.3h-1.2V64c-0.3,0.5-0.9,0.8-1.6,0.8c-1.2,0-2-0.8-2-2v-3.4h1.2v3.1c0,0.7,0.5,1.2,1.1,1.2
				s1.2-0.4,1.3-1v-3.3H364.9z"/>
			<path class="st0" d="M366.3,57.6h1.2v7.2h-1.2V57.6z"/>
			<path class="st0" d="M371.9,64.4c-0.3,0.3-0.7,0.4-1.1,0.4c-0.9,0-1.5-0.6-1.5-1.5v-2.9h-0.8v-1h0.8V58h1.2v1.5h1.2v1h-1.2v2.7
				c0,0.4,0.2,0.6,0.5,0.6c0.2,0,0.4-0.1,0.5-0.2L371.9,64.4z"/>
			<path class="st0" d="M372.8,57.9c0-0.4,0.3-0.7,0.7-0.7c0.4,0,0.7,0.3,0.7,0.7s-0.3,0.7-0.7,0.7
				C373.1,58.6,372.8,58.3,372.8,57.9z M372.9,59.4h1.2v5.3h-1.2V59.4z"/>
			<path class="st0" d="M381.1,62.1c0,1.6-1,2.8-2.4,2.8c-0.8,0-1.4-0.4-1.8-1v2.6h-1.2v-7.1h1.2v0.8c0.4-0.6,1.1-1,1.8-1
				C380,59.3,381.1,60.5,381.1,62.1z M379.8,62.1c0-1-0.6-1.7-1.5-1.7s-1.5,0.7-1.5,1.7s0.6,1.7,1.5,1.7
				C379.2,63.8,379.8,63.1,379.8,62.1z"/>
			<path class="st0" d="M385.4,59.3v1.1c-1.1,0-1.9,0.7-1.9,1.7v2.7h-1.2v-5.3h1.2v1C383.8,59.8,384.5,59.3,385.4,59.3z"/>
			<path class="st0" d="M385.9,62.1c0-1.5,1.3-2.8,2.8-2.8s2.8,1.3,2.8,2.8s-1.3,2.8-2.8,2.8C387.2,64.9,385.9,63.6,385.9,62.1z
				 M390.3,62.1c0-0.9-0.7-1.7-1.6-1.7s-1.6,0.8-1.6,1.7s0.7,1.7,1.6,1.7C389.6,63.8,390.3,63,390.3,62.1z"/>
			<path class="st0" d="M394.2,59.4h1.2v1h-1.2v4.3H393v-4.3h-0.8v-1h0.8v-0.6c0-0.9,0.6-1.5,1.5-1.5c0.4,0,0.8,0.2,1.1,0.4
				l-0.4,0.8c-0.1-0.1-0.3-0.2-0.5-0.2c-0.3,0-0.5,0.3-0.5,0.6V59.4z"/>
			<path class="st0" d="M396.3,57.9c0-0.4,0.3-0.7,0.7-0.7c0.4,0,0.7,0.3,0.7,0.7s-0.3,0.7-0.7,0.7
				C396.6,58.6,396.3,58.3,396.3,57.9z M396.4,59.4h1.2v5.3h-1.2V59.4z"/>
			<path class="st0" d="M398.7,64.1l0.6-0.9c0.5,0.4,1.1,0.6,1.8,0.6c0.5,0,0.8-0.2,0.8-0.5c0-0.4-0.5-0.5-1.1-0.7
				c-1.1-0.3-1.9-0.6-1.9-1.6s0.8-1.7,2-1.7c0.7,0,1.5,0.3,2,0.6l-0.5,0.9c-0.5-0.3-1-0.5-1.5-0.5c-0.4,0-0.8,0.2-0.8,0.5
				s0.3,0.4,1.1,0.7c0.9,0.2,1.9,0.6,1.9,1.7c0,1-0.8,1.7-2.1,1.7C400.2,64.9,399.3,64.6,398.7,64.1z"/>
			<path class="st0" d="M403.8,64.1l0.6-0.9c0.5,0.4,1.1,0.6,1.8,0.6c0.5,0,0.8-0.2,0.8-0.5c0-0.4-0.5-0.5-1.1-0.7
				c-1.1-0.3-1.9-0.6-1.9-1.6s0.8-1.7,2-1.7c0.7,0,1.5,0.3,2,0.6l-0.5,0.9c-0.5-0.3-1-0.5-1.5-0.5c-0.4,0-0.8,0.2-0.8,0.5
				s0.3,0.4,1.1,0.7c0.9,0.2,1.9,0.6,1.9,1.7c0,1-0.8,1.7-2.1,1.7C405.3,64.9,404.4,64.6,403.8,64.1z"/>
			<path class="st0" d="M409.2,57.9c0-0.4,0.3-0.7,0.7-0.7c0.4,0,0.7,0.3,0.7,0.7s-0.3,0.7-0.7,0.7
				C409.5,58.6,409.2,58.3,409.2,57.9z M409.3,59.4h1.2v5.3h-1.2V59.4z"/>
			<path class="st0" d="M411.6,62.1c0-1.5,1.3-2.8,2.8-2.8s2.8,1.3,2.8,2.8s-1.3,2.8-2.8,2.8S411.6,63.6,411.6,62.1z M416.1,62.1
				c0-0.9-0.7-1.7-1.6-1.7s-1.6,0.8-1.6,1.7s0.7,1.7,1.6,1.7C415.3,63.8,416.1,63,416.1,62.1z"/>
			<path class="st0" d="M423.2,61.4v3.4H422v-3.1c0-0.7-0.5-1.2-1.1-1.2s-1.2,0.4-1.3,1v3.3h-1.2v-5.3h1.2v0.7
				c0.3-0.5,0.9-0.8,1.6-0.8C422.4,59.3,423.2,60.2,423.2,61.4z"/>
			<path class="st0" d="M429.2,61.5v3.2H428v-0.6c-0.4,0.5-1.1,0.8-1.7,0.8c-1.1,0-2-0.7-2-1.7c0-1,1-1.8,2.2-1.8
				c0.5,0,1,0.1,1.5,0.3v-0.1c0-0.6-0.3-1.2-1.3-1.2c-0.5,0-1,0.2-1.4,0.4l-0.4-0.9c0.7-0.4,1.4-0.6,2.1-0.6
				C428.3,59.3,429.2,60.2,429.2,61.5z M428,63.1v-0.6c-0.4-0.1-0.8-0.2-1.3-0.2c-0.6,0-1.1,0.3-1.1,0.8s0.4,0.8,1,0.8
				C427.2,63.9,427.8,63.6,428,63.1z"/>
			<path class="st0" d="M430.5,57.6h1.2v7.2h-1.2V57.6z"/>
			<path class="st0" d="M354.5,75.5l0.8,0.8c-0.5,0.5-1.4,0.8-2.1,0.8c-1.5,0-2.8-1.2-2.8-2.8c0-1.6,1.2-2.8,2.7-2.8
				c1.6,0,2.6,1.2,2.6,3.2h-4c0.2,0.7,0.7,1.2,1.5,1.2C353.6,76,354.2,75.8,354.5,75.5z M351.7,73.8h2.8c-0.1-0.7-0.6-1.1-1.3-1.1
				C352.4,72.7,351.9,73.1,351.7,73.8z"/>
			<path class="st0" d="M359.6,70.2c0-0.4,0.3-0.7,0.7-0.7c0.4,0,0.7,0.3,0.7,0.7s-0.3,0.7-0.7,0.7
				C359.9,70.9,359.6,70.6,359.6,70.2z M359.6,71.7h1.2V77h-1.2V71.7z"/>
			<path class="st0" d="M367.1,73.6V77h-1.2v-3.1c0-0.7-0.5-1.2-1.1-1.2s-1.2,0.4-1.3,1V77h-1.2v-5.3h1.2v0.7
				c0.3-0.5,0.9-0.8,1.6-0.8C366.3,71.6,367.1,72.4,367.1,73.6z"/>
			<path class="st0" d="M368.1,76.3l0.6-0.9c0.5,0.4,1.1,0.6,1.8,0.6c0.5,0,0.8-0.2,0.8-0.5c0-0.4-0.5-0.5-1.1-0.7
				c-1.1-0.3-1.9-0.6-1.9-1.6s0.8-1.7,2-1.7c0.7,0,1.5,0.3,2,0.6l-0.5,0.9c-0.5-0.3-1-0.5-1.5-0.5c-0.4,0-0.8,0.2-0.8,0.5
				s0.3,0.4,1.1,0.7c0.9,0.2,1.9,0.6,1.9,1.7c0,1-0.8,1.7-2.1,1.7C369.6,77.1,368.8,76.9,368.1,76.3z"/>
			<path class="st0" d="M376.6,76.7c-0.3,0.3-0.7,0.4-1.1,0.4c-0.9,0-1.5-0.6-1.5-1.5v-2.9h-0.8v-1h0.8v-1.5h1.2v1.5h1.2v1h-1.2v2.7
				c0,0.4,0.2,0.6,0.5,0.6c0.2,0,0.4-0.1,0.5-0.2L376.6,76.7z"/>
			<path class="st0" d="M377.5,70.2c0-0.4,0.3-0.7,0.7-0.7c0.4,0,0.7,0.3,0.7,0.7s-0.3,0.7-0.7,0.7
				C377.8,70.9,377.5,70.6,377.5,70.2z M377.6,71.7h1.2V77h-1.2V71.7z"/>
			<path class="st0" d="M383.2,76.7c-0.3,0.3-0.7,0.4-1.1,0.4c-0.9,0-1.5-0.6-1.5-1.5v-2.9h-0.8v-1h0.8v-1.5h1.2v1.5h1.2v1h-1.2v2.7
				c0,0.4,0.2,0.6,0.5,0.6c0.2,0,0.4-0.1,0.5-0.2L383.2,76.7z"/>
			<path class="st0" d="M389,71.7V77h-1.2v-0.7c-0.3,0.5-0.9,0.8-1.6,0.8c-1.2,0-2-0.8-2-2v-3.4h1.2v3.1c0,0.7,0.5,1.2,1.1,1.2
				s1.2-0.4,1.3-1v-3.3H389z"/>
			<path class="st0" d="M390.1,74.4c0-1.5,1.3-2.8,2.8-2.8c0.8,0,1.5,0.3,2,0.9l-0.8,0.7c-0.3-0.3-0.7-0.5-1.2-0.5
				c-0.9,0-1.6,0.8-1.6,1.7c0,0.9,0.7,1.7,1.6,1.7c0.5,0,0.9-0.2,1.2-0.6l0.8,0.7c-0.5,0.5-1.2,0.9-2.1,0.9
				C391.4,77.1,390.1,75.9,390.1,74.4z"/>
			<path class="st0" d="M395.9,70.2c0-0.4,0.3-0.7,0.7-0.7c0.4,0,0.7,0.3,0.7,0.7s-0.3,0.7-0.7,0.7
				C396.2,70.9,395.9,70.6,395.9,70.2z M396,71.7h1.2V77H396V71.7z"/>
			<path class="st0" d="M398.3,74.4c0-1.5,1.3-2.8,2.8-2.8s2.8,1.3,2.8,2.8s-1.3,2.8-2.8,2.8C399.6,77.1,398.3,75.9,398.3,74.4z
				 M402.8,74.4c0-0.9-0.7-1.7-1.6-1.7s-1.6,0.8-1.6,1.7c0,0.9,0.7,1.7,1.6,1.7C402,76.1,402.8,75.3,402.8,74.4z"/>
			<path class="st0" d="M409.9,73.6V77h-1.2v-3.1c0-0.7-0.5-1.2-1.1-1.2s-1.2,0.4-1.3,1V77h-1.2v-5.3h1.2v0.7
				c0.3-0.5,0.9-0.8,1.6-0.8C409.1,71.6,409.9,72.4,409.9,73.6z"/>
			<path class="st0" d="M415.9,73.8V77h-1.2v-0.6c-0.4,0.5-1.1,0.8-1.7,0.8c-1.1,0-2-0.7-2-1.7s1-1.8,2.2-1.8c0.5,0,1,0.1,1.5,0.3
				v-0.1c0-0.6-0.3-1.2-1.3-1.2c-0.5,0-1,0.2-1.4,0.4l-0.4-0.9c0.7-0.4,1.4-0.6,2.1-0.6C415,71.6,415.9,72.5,415.9,73.8z
				 M414.6,75.4v-0.6c-0.4-0.1-0.8-0.2-1.3-0.2c-0.6,0-1.1,0.3-1.1,0.8s0.4,0.8,1,0.8C413.9,76.2,414.5,75.9,414.6,75.4z"/>
			<path class="st0" d="M417.2,69.9h1.2V77h-1.2V69.9z"/>
		</g>
		<g>
			<path class="st0" d="M350.2,26.3c0-6,3.6-10.2,8.8-10.2c5.2,0,8.8,4.2,8.8,10.2s-3.7,10.2-8.8,10.2
				C353.9,36.5,350.2,32.3,350.2,26.3z M363.5,26.3c0-3.7-1.8-6.3-4.5-6.3c-2.6,0-4.5,2.6-4.5,6.3s1.9,6.4,4.5,6.4
				C361.7,32.7,363.5,30,363.5,26.3z"/>
			<path class="st0" d="M379.8,32.1h-9.6l-0.4-3.3l9.1-12.4h5.1v12.1h2.6V32H384v4h-4.2V32.1z M379.8,28.6V21l-5.6,7.6H379.8z"/>
		</g>
		<g>
			<path class="st0" d="M134.3,75h-3.4l-0.5,1.3H129l2.9-7h1.4l2.9,7h-1.4L134.3,75z M133.8,73.9l-1.2-3l-1.2,3H133.8z"/>
			<path class="st0" d="M136.8,73.6c0-1.5,1.3-2.8,2.8-2.8c0.8,0,1.5,0.3,2,0.9l-0.8,0.7c-0.3-0.3-0.7-0.5-1.2-0.5
				c-0.9,0-1.6,0.8-1.6,1.7c0,0.9,0.7,1.7,1.6,1.7c0.5,0,0.9-0.2,1.2-0.6l0.8,0.7c-0.5,0.5-1.2,0.9-2.1,0.9
				C138.1,76.4,136.8,75.1,136.8,73.6z"/>
			<path class="st0" d="M142.3,73.6c0-1.5,1.3-2.8,2.8-2.8s2.8,1.3,2.8,2.8s-1.3,2.8-2.8,2.8S142.3,75.1,142.3,73.6z M146.7,73.6
				c0-0.9-0.7-1.7-1.6-1.7c-0.9,0-1.6,0.8-1.6,1.7c0,0.9,0.7,1.7,1.6,1.7C146,75.3,146.7,74.5,146.7,73.6z"/>
			<path class="st0" d="M149.1,69.1h1.2v7.2h-1.2V69.1z"/>
			<path class="st0" d="M156.5,72.9v3.4h-1.2v-3.1c0-0.7-0.5-1.2-1.1-1.2c-0.7,0-1.3,0.5-1.3,1.1v3.2h-1.2v-7.2h1.2v2.6
				c0.3-0.5,0.9-0.8,1.6-0.8C155.7,70.8,156.5,71.7,156.5,72.9z"/>
			<path class="st0" d="M157.8,69.4c0-0.4,0.3-0.7,0.7-0.7s0.7,0.3,0.7,0.7s-0.3,0.7-0.7,0.7S157.8,69.8,157.8,69.4z M157.9,70.9
				h1.2v5.3h-1.2V70.9z"/>
			<path class="st0" d="M168.6,72.9v3.4h-1.2v-3.2c0-0.7-0.4-1.2-1-1.2c-0.7,0-1.2,0.5-1.2,1.1v3.2H164V73c0-0.7-0.4-1.2-1-1.2
				c-0.7,0-1.2,0.5-1.2,1.1v3.2h-1.2v-5.3h1.2v0.7c0.3-0.5,0.8-0.8,1.5-0.8s1.4,0.4,1.7,1c0.3-0.6,0.9-1,1.7-1
				C167.7,70.8,168.6,71.7,168.6,72.9z"/>
			<path class="st0" d="M173.8,74.7l0.8,0.8c-0.5,0.5-1.4,0.8-2.1,0.8c-1.5,0-2.8-1.2-2.8-2.8c0-1.6,1.2-2.8,2.7-2.8
				c1.6,0,2.6,1.2,2.6,3.2h-4c0.2,0.7,0.7,1.2,1.5,1.2C172.9,75.3,173.5,75,173.8,74.7z M170.9,73.1h2.8c-0.1-0.7-0.6-1.1-1.3-1.1
				C171.7,71.9,171.1,72.4,170.9,73.1z"/>
			<path class="st0" d="M180.9,72.9v3.4h-1.2v-3.1c0-0.7-0.5-1.2-1.1-1.2s-1.2,0.4-1.3,1v3.3H176V71h1.2v0.7
				c0.3-0.5,0.9-0.8,1.6-0.8C180.1,70.8,180.9,71.7,180.9,72.9z"/>
			<path class="st0" d="M185.2,75.9c-0.3,0.3-0.7,0.4-1.1,0.4c-0.9,0-1.5-0.6-1.5-1.5V72h-0.8v-1h0.8v-1.5h1.2V71h1.2v1h-1.2v2.7
				c0,0.4,0.2,0.6,0.5,0.6c0.2,0,0.4-0.1,0.5-0.2L185.2,75.9z"/>
			<path class="st0" d="M185.9,73.6c0-1.5,1.3-2.8,2.8-2.8s2.8,1.3,2.8,2.8s-1.3,2.8-2.8,2.8S185.9,75.1,185.9,73.6z M190.3,73.6
				c0-0.9-0.7-1.7-1.6-1.7c-0.9,0-1.6,0.8-1.6,1.7c0,0.9,0.7,1.7,1.6,1.7C189.6,75.3,190.3,74.5,190.3,73.6z"/>
		</g>
		<g>
			<path class="st0" d="M129,50.1c0-6,3.6-10.2,8.8-10.2s8.8,4.2,8.8,10.2s-3.7,10.2-8.8,10.2C132.6,60.3,129,56.1,129,50.1z
				 M142.3,50.1c0-3.7-1.8-6.3-4.5-6.3c-2.6,0-4.5,2.6-4.5,6.3s1.9,6.4,4.5,6.4C140.4,56.5,142.3,53.8,142.3,50.1z"/>
			<path class="st0" d="M149.1,56.5l7.2-5.6c2.3-1.9,3.1-3.1,3.1-4.5c0-1.6-1.4-2.6-3-2.6c-1.9,0-3.4,1-4.8,2.6l-2.7-2.6
				c1.9-2.5,4.4-3.8,7.6-3.8c4.2,0,7.2,2.6,7.2,6.3c0,2.6-1.1,4.7-4.6,7.2l-3.6,2.8h8.3v3.8h-14.9v-3.6H149.1z"/>
		</g>
		<g>
			<path class="st1" d="M555.7,110.6c0,13.6-5.8,25.8-15,34.3c-0.4,0.3-0.8,0.6-1.1,0.9c-8.1,7-18.7,11.2-30.2,11.2
				c-12,0-23-4.6-31.3-12.1c-1.1-1-2.2-1.8-3.5-2.5c-4.9-2.6-10.9-2.8-16.1-0.5L456,143c-6.7,3-11,9.7-11,17
				c0.1,18.8-11.1,35.1-27.2,42.4h-0.1c-0.6,0.3-1.3,0.5-1.9,0.8c-0.1,0-0.2,0.1-0.4,0.1c-0.6,0.2-1.2,0.4-1.8,0.6
				c-0.2,0.1-0.4,0.1-0.6,0.2c-0.5,0.2-1.1,0.3-1.7,0.5c-0.2,0.1-0.5,0.1-0.7,0.2c-0.5,0.1-1,0.3-1.6,0.4c-0.3,0.1-0.6,0.1-0.9,0.2
				c-0.5,0.1-1,0.2-1.5,0.3c-0.3,0.1-0.7,0.1-1,0.2c-0.5,0.1-0.9,0.1-1.4,0.2c-0.4,0-0.8,0.1-1.1,0.1c-0.4,0-0.9,0.1-1.3,0.1
				s-0.8,0.1-1.2,0.1c-0.4,0-0.8,0-1.3,0c-0.4,0-0.9,0-1.3,0s-0.8,0-1.2,0c-0.5,0-1,0-1.4-0.1c-0.2,0-0.3,0-0.5,0
				c-0.3,0-0.6-0.1-0.9-0.1c-0.2,0-0.5,0-0.7-0.1c-0.1,0-0.2,0-0.2,0c-1-0.1-2-0.3-3-0.5c-0.4-0.1-0.7-0.1-1.1-0.2
				c-0.9-0.2-1.7-0.4-2.5-0.6c-0.5-0.1-1-0.3-1.5-0.4c-0.6-0.2-1.2-0.4-1.8-0.6c-0.7-0.3-1.4-0.5-2.1-0.8c-0.1,0-0.1,0-0.2-0.1
				c-13.1-5.5-23.2-16.9-26.9-30.8c0-0.1-0.1-0.2-0.1-0.3c-0.3-1.1-0.5-2.1-0.7-3.2c-0.1-0.5-0.2-0.9-0.2-1.4
				c-0.1-0.4-0.2-0.8-0.2-1.2c-0.2-1.6-0.3-3.3-0.3-4.9c-0.2-8.1-4.8-15.4-12.2-18.7c-1-0.5-2.1-0.8-3.2-1.1
				c-6.5-1.7-13.5-0.1-18.7,4.4c-2.2,1.9-4.6,3.6-7.1,5l0,0c-0.6,0.3-1.2,0.7-1.9,1c-0.1,0-0.1,0.1-0.2,0.1
				c-0.6,0.3-1.2,0.6-1.8,0.9c-0.1,0-0.2,0.1-0.3,0.1c-0.6,0.3-1.2,0.5-1.8,0.8c-0.1,0-0.2,0.1-0.3,0.1c-0.6,0.2-1.2,0.5-1.8,0.7
				c-0.1,0-0.2,0.1-0.2,0.1c-0.7,0.2-1.3,0.4-2,0.6h-0.1c-2.2,0.6-4.4,1.1-6.6,1.4c-0.2,0-0.4,0-0.6,0.1c-0.5,0.1-1.1,0.1-1.6,0.2
				c-0.3,0-0.5,0-0.8,0c-0.5,0-1,0.1-1.4,0.1c-0.3,0-0.6,0-0.9,0s-0.5,0-0.8,0c-0.2,0-0.4,0-0.6,0c-0.4,0-0.7,0-1.1,0
				s-0.8,0-1.2-0.1c-0.2,0-0.4,0-0.7,0c-0.2,0-0.4,0-0.6-0.1c-0.2,0-0.4,0-0.7-0.1c-0.5-0.1-1-0.1-1.6-0.2c-0.2,0-0.4,0-0.5-0.1
				c-0.5-0.1-1.1-0.2-1.6-0.3c-0.2,0-0.3-0.1-0.5-0.1c-0.5-0.1-1-0.2-1.6-0.3c-0.2,0-0.4-0.1-0.6-0.1c-0.5-0.1-1-0.2-1.4-0.4
				c-0.2-0.1-0.5-0.1-0.7-0.2c-0.4-0.1-0.8-0.2-1.2-0.4c-0.3-0.1-0.6-0.2-0.9-0.3s-0.6-0.2-0.9-0.3c-0.4-0.1-0.8-0.3-1.2-0.5
				c-0.2-0.1-0.4-0.2-0.5-0.2c-0.5-0.2-1-0.4-1.5-0.6c0,0-0.1,0-0.1-0.1c-4.3-2-8.2-4.7-11.7-7.8c-5.3-4.9-13.1-5.9-19.6-2.9
				l-2.5,1.1c-6.7,3-11,9.7-11,17v0.1c0,27.3-23.8,49.2-51.7,46.1c-21-2.4-38.1-19.1-40.7-40.2c-0.2-1.6-0.3-3.3-0.4-4.9
				c-0.2-8.1-4.8-15.4-12.2-18.7c-7.3-3.2-15.8-2.1-21.8,3.1c-9,7.8-20.9,12.2-33.9,11.3c-22.6-1.7-41-19.9-42.8-42.5
				c-2.3-28.5,21.5-52.3,50-50c22.6,1.8,40.9,20.2,42.5,42.9c0.1,0.8,0.1,1.6,0.1,2.3c0.2,8.1,4.8,15.4,12.3,18.8l0.3,0.2
				c7.1,3.2,15.4,2,21.3-3.2c8.2-7.2,18.9-11.5,30.5-11.5c12,0,23,4.6,31.3,12.1c5.3,4.9,13.1,5.9,19.6,2.9l2.5-1.1
				c6.7-3,11-9.7,11-17c0-11.7,4.3-22.4,11.4-30.5l0,0c0.5-0.5,1-1.1,1.5-1.6l0.1-0.1c0.5-0.5,1-1,1.5-1.5c0.1-0.1,0.1-0.1,0.2-0.2
				c0.5-0.5,1-0.9,1.5-1.4c0.1-0.1,0.2-0.2,0.3-0.2c0.5-0.4,1-0.8,1.5-1.2c0.1-0.1,0.2-0.2,0.3-0.2c0.5-0.4,1-0.8,1.5-1.1
				c0.1-0.1,0.2-0.2,0.4-0.2c0.5-0.4,1-0.7,1.6-1c0.1-0.1,0.3-0.2,0.4-0.2c0.5-0.3,1.1-0.6,1.6-0.9c0.1-0.1,0.3-0.2,0.4-0.2
				c0.5-0.3,1.1-0.6,1.7-0.9c0.2-0.1,0.3-0.1,0.5-0.2c0.6-0.3,1.1-0.5,1.7-0.8c0.1-0.1,0.3-0.1,0.5-0.2c0.6-0.2,1.2-0.5,1.7-0.7
				c0.1-0.1,0.3-0.1,0.4-0.2c0.6-0.2,1.2-0.4,1.9-0.6c0.1,0,0.1,0,0.2-0.1c2-0.6,4.1-1.1,6.2-1.5c0.2,0,0.4-0.1,0.5-0.1
				c0.5-0.1,0.9-0.1,1.4-0.2c0.4,0,0.8-0.1,1.1-0.1c0.4,0,0.8-0.1,1.2-0.1c0.5,0,0.9-0.1,1.3-0.1s0.8,0,1.1,0c0.5,0,1,0,1.5,0
				c0.4,0,0.7,0,1.1,0s0.8,0,1.1,0c0.2,0,0.3,0,0.4,0s0.2,0,0.3,0c0.2,0,0.4,0,0.7,0.1c0.4,0,0.7,0.1,1.1,0.1c0.3,0,0.7,0.1,1,0.1
				s0.7,0.1,1,0.2c0.4,0.1,0.7,0.1,1.1,0.2c0.3,0.1,0.6,0.1,0.9,0.2c0.4,0.1,0.8,0.2,1.1,0.3c0.3,0.1,0.6,0.1,0.9,0.2
				c0.4,0.1,0.8,0.2,1.2,0.3c0.3,0.1,0.5,0.2,0.8,0.2c0.4,0.1,0.8,0.2,1.2,0.4c0.2,0.1,0.5,0.2,0.8,0.3c0.4,0.1,0.8,0.3,1.2,0.4
				c0.2,0.1,0.5,0.2,0.8,0.3c0.4,0.1,0.8,0.3,1.1,0.5c0.3,0.1,0.5,0.2,0.8,0.3c0.4,0.2,0.7,0.3,1.1,0.5c0.3,0.1,0.5,0.3,0.8,0.4
				c0.3,0.2,0.7,0.3,1,0.5s0.5,0.3,0.8,0.5s0.6,0.3,0.9,0.5s0.6,0.4,0.9,0.5c0.3,0.2,0.5,0.3,0.8,0.5s0.7,0.4,1,0.7
				c0.2,0.2,0.4,0.3,0.6,0.5c0.3,0.2,0.7,0.5,1,0.8c0.2,0.1,0.3,0.2,0.5,0.4c0.4,0.3,0.8,0.6,1.1,0.9c0.1,0.1,0.2,0.2,0.3,0.3
				c0.4,0.4,0.8,0.7,1.2,1.1c0.1,0,0.1,0.1,0.2,0.2c0.5,0.4,0.9,0.8,1.3,1.3l0,0c7.5,7.6,12.5,17.7,13.3,29c0.1,0.9,0.1,1.7,0.1,2.6
				c0.1,4.1,1.3,7.9,3.4,11.2c2.1,3.3,5.1,5.9,8.8,7.6c6.9,3.1,15,2.2,20.9-2.4c0.2-0.2,0.5-0.4,0.7-0.6c1.7-1.5,3.6-2.9,5.5-4.1
				l0,0c0.6-0.4,1.2-0.8,1.8-1.1c0,0,0.1,0,0.1-0.1c0.6-0.3,1.2-0.7,1.8-1c0.1,0,0.1-0.1,0.2-0.1c0.6-0.3,1.2-0.6,1.8-0.9
				c0.1,0,0.1-0.1,0.2-0.1c0.6-0.3,1.2-0.5,1.9-0.8c0,0,0.1-0.1,0.2-0.1c0.7-0.3,1.4-0.5,2.1-0.8l0,0c2.1-0.7,4.3-1.3,6.6-1.7
				c0.1,0,0.2,0,0.3-0.1c0.6-0.1,1.3-0.2,1.9-0.3c0.2,0,0.4,0,0.7-0.1c0.5-0.1,1-0.1,1.6-0.2c0.3,0,0.5,0,0.8,0
				c0.5,0,0.9-0.1,1.4-0.1c0.3,0,0.6,0,1,0c0.2,0,0.5,0,0.7,0s0.4,0,0.5,0c0.4,0,0.7,0,1.1,0s0.8,0,1.2,0.1c0.2,0,0.4,0,0.7,0
				c0.2,0,0.4,0,0.6,0.1c0.2,0,0.5,0,0.7,0.1c0.5,0,1,0.1,1.6,0.2c0.2,0,0.4,0,0.5,0.1c0.5,0.1,1.1,0.2,1.6,0.3
				c0.2,0,0.3,0.1,0.5,0.1c0.5,0.1,1.1,0.2,1.6,0.3c0.2,0,0.4,0.1,0.6,0.1c0.5,0.1,1,0.2,1.4,0.4c0.2,0.1,0.5,0.1,0.7,0.2
				c0.4,0.1,0.8,0.2,1.2,0.4c0.3,0.1,0.6,0.2,0.9,0.3c0.3,0.1,0.6,0.2,0.9,0.3c0.4,0.1,0.8,0.3,1.1,0.4c0.2,0.1,0.4,0.2,0.6,0.2
				c0.5,0.2,1,0.4,1.4,0.6c0.1,0,0.1,0.1,0.1,0.1c4.3,2,8.2,4.7,11.7,7.8c5.3,4.9,13.1,5.9,19.6,2.9l2.5-1.1
				c5.2-2.3,9-6.9,10.4-12.3c0.4-1.5,0.6-3.1,0.6-4.8v-0.1c0-26.6,22.5-48,49.4-46.3c20.3,1.3,37.2,15.9,42,35.1
				c0.1,0.6,0.3,1.1,0.4,1.7C555.4,104.3,555.7,107.4,555.7,110.6z"/>
		</g>
		<g>
			<ellipse class="st2" cx="66.2" cy="110.8" rx="34.3" ry="34.3"/>
		</g>
		<g>
			<g>
				<path class="st0" d="M177,104.2c-0.3,0-0.5-0.1-0.7-0.3c-0.2-0.2-0.3-0.4-0.3-0.7c0-0.3,0.1-0.5,0.3-0.7s0.6-0.3,0.9-0.3
					c0.1,0,0.1,0,0.2,0.1c0.1,0,0.1,0.1,0.2,0.1l0.1,0.1c0.1,0.1,0.2,0.2,0.2,0.3c0.1,0.1,0.1,0.2,0.1,0.4s0,0.3-0.1,0.4
					s-0.1,0.2-0.2,0.3c-0.1,0.1-0.1,0.1-0.1,0.1c-0.1,0-0.1,0.1-0.2,0.1c-0.1,0-0.1,0-0.2,0C177.2,104.2,177.1,104.2,177,104.2z"/>
			</g>
			<g>
				<path class="st0" d="M176,98.8c0-0.6,0.4-1,1-1l0,0c0.5,0,1,0.4,1,1l0,0c0,0.5-0.5,1-1,1l0,0C176.5,99.8,176,99.3,176,98.8z
					 M176,94.3c0-0.5,0.4-1,1-1l0,0c0.5,0,1,0.5,1,1l0,0c0,0.6-0.5,1-1,1l0,0C176.5,95.3,176,94.9,176,94.3z"/>
			</g>
			<g>
				<path class="st0" d="M177,90.9c-0.1,0-0.3,0-0.4-0.1c-0.1,0-0.2-0.1-0.3-0.2s-0.2-0.2-0.2-0.3c-0.1-0.1-0.1-0.2-0.1-0.4
					c0-0.1,0-0.3,0.1-0.4c0-0.1,0.1-0.2,0.2-0.3c0.1-0.1,0.2-0.2,0.3-0.2c0.4-0.2,0.8-0.1,1.1,0.2c0.1,0.1,0.2,0.2,0.2,0.3
					c0.1,0.1,0.1,0.2,0.1,0.4c0,0.1,0,0.2-0.1,0.4c-0.1,0.1-0.1,0.2-0.2,0.3C177.6,90.8,177.3,90.9,177,90.9z"/>
			</g>
		</g>
		<g>
			<g>
				<path class="st0" d="M398.6,104.2c-0.1,0-0.1,0-0.2,0s-0.1,0-0.2,0s-0.1-0.1-0.2-0.1s-0.1-0.1-0.2-0.1c-0.2-0.2-0.3-0.4-0.3-0.7
					c0-0.1,0-0.3,0.1-0.4s0.1-0.2,0.2-0.3c0,0,0.1-0.1,0.2-0.1c0,0,0.1-0.1,0.2-0.1s0.1,0,0.2-0.1c0.3-0.1,0.7,0,0.9,0.3
					c0.1,0.1,0.2,0.2,0.2,0.3c0.1,0.1,0.1,0.2,0.1,0.4s0,0.3-0.1,0.4c0,0.1-0.1,0.2-0.2,0.3C399.1,104.1,398.9,104.2,398.6,104.2z"
					/>
			</g>
			<g>
				<path class="st0" d="M397.6,98.8c0-0.6,0.5-1,1-1l0,0c0.6,0,1,0.4,1,1l0,0c0,0.5-0.4,1-1,1l0,0
					C398.1,99.8,397.6,99.3,397.6,98.8z M397.6,94.3c0-0.5,0.5-1,1-1l0,0c0.6,0,1,0.5,1,1l0,0c0,0.6-0.4,1-1,1l0,0
					C398.1,95.3,397.6,94.9,397.6,94.3z"/>
			</g>
			<g>
				<path class="st0" d="M398.6,90.9c-0.1,0-0.1,0-0.2,0s-0.1,0-0.2-0.1c-0.1,0-0.1-0.1-0.2-0.1s-0.1-0.1-0.2-0.1
					c-0.2-0.2-0.3-0.4-0.3-0.7c0-0.1,0-0.3,0.1-0.4c0-0.1,0.1-0.2,0.2-0.3c0,0,0.1-0.1,0.2-0.1c0,0,0.1-0.1,0.2-0.1s0.1,0,0.2-0.1
					c0.3-0.1,0.7,0,0.9,0.3c0.1,0.1,0.2,0.2,0.2,0.3c0.1,0.1,0.1,0.2,0.1,0.4c0,0.1,0,0.2-0.1,0.4c0,0.1-0.1,0.2-0.2,0.3
					C399.1,90.8,398.9,90.9,398.6,90.9z"/>
			</g>
		</g>
		<g>
			<g>
				<path class="st0" d="M66.2,168.8c-0.1,0-0.3,0-0.4-0.1c-0.1,0-0.2-0.1-0.3-0.2c-0.2-0.2-0.3-0.4-0.3-0.7s0.1-0.5,0.3-0.7
					c0.1-0.1,0.2-0.2,0.3-0.2c0.4-0.2,0.8-0.1,1.1,0.2c0.1,0.1,0.2,0.2,0.2,0.3c0.1,0.1,0.1,0.3,0.1,0.4c0,0.3-0.1,0.5-0.3,0.7
					C66.8,168.7,66.5,168.8,66.2,168.8z"/>
			</g>
			<g>
				<path class="st0" d="M65.2,176.6c0-0.5,0.4-1,1-1l0,0c0.6,0,1,0.5,1,1l0,0c0,0.6-0.4,1-1,1l0,0
					C65.7,177.6,65.2,177.2,65.2,176.6z M65.2,172.2c0-0.5,0.4-1,1-1l0,0c0.6,0,1,0.5,1,1l0,0c0,0.5-0.4,1-1,1l0,0
					C65.7,173.2,65.2,172.8,65.2,172.2z"/>
			</g>
			<g>
				<path class="st0" d="M66.2,182.1c-0.3,0-0.5-0.1-0.7-0.3s-0.3-0.4-0.3-0.7c0-0.1,0-0.3,0.1-0.4c0-0.1,0.1-0.2,0.2-0.3
					c0.4-0.4,1-0.4,1.4,0c0.1,0.1,0.2,0.2,0.2,0.3c0.1,0.1,0.1,0.2,0.1,0.4c0,0.3-0.1,0.5-0.3,0.7C66.8,182,66.5,182.1,66.2,182.1z"
					/>
			</g>
		</g>
		<g>
			<g>
				<path class="st0" d="M287.8,168.8c-0.3,0-0.5-0.1-0.7-0.3s-0.3-0.4-0.3-0.7c0-0.1,0-0.3,0.1-0.4c0-0.1,0.1-0.2,0.2-0.3
					c0.4-0.4,1-0.4,1.4,0c0.2,0.2,0.3,0.4,0.3,0.7s-0.1,0.5-0.3,0.7c-0.1,0.1-0.2,0.2-0.3,0.2C288.1,168.8,288,168.8,287.8,168.8z"
					/>
			</g>
			<g>
				<path class="st0" d="M286.8,176.6c0-0.5,0.4-1,1-1l0,0c0.5,0,1,0.5,1,1l0,0c0,0.6-0.5,1-1,1l0,0
					C287.3,177.6,286.8,177.2,286.8,176.6z M286.8,172.2c0-0.5,0.4-1,1-1l0,0c0.5,0,1,0.5,1,1l0,0c0,0.5-0.5,1-1,1l0,0
					C287.3,173.2,286.8,172.8,286.8,172.2z"/>
			</g>
			<g>
				<path class="st0" d="M287.8,182.1c-0.1,0-0.3,0-0.4-0.1s-0.2-0.1-0.3-0.2c-0.2-0.2-0.3-0.4-0.3-0.7c0-0.1,0-0.3,0.1-0.4
					s0.1-0.2,0.2-0.3c0.4-0.4,1-0.4,1.4,0c0.1,0.1,0.2,0.2,0.2,0.3c0.1,0.1,0.1,0.2,0.1,0.4c0,0.3-0.1,0.5-0.3,0.7
					C288.3,182,288.1,182.1,287.8,182.1z"/>
			</g>
		</g>
		<g>
			<g>
				<path class="st0" d="M509.4,168.8c-0.3,0-0.5-0.1-0.7-0.3c-0.1-0.1-0.2-0.2-0.2-0.3c-0.1-0.1-0.1-0.2-0.1-0.4
					c0-0.3,0.1-0.5,0.3-0.7c0,0,0.1-0.1,0.2-0.1s0.1-0.1,0.2-0.1s0.1,0,0.2-0.1c0.3-0.1,0.7,0,0.9,0.3c0.2,0.2,0.3,0.4,0.3,0.7
					c0,0.1,0,0.3-0.1,0.4s-0.1,0.2-0.2,0.3C509.9,168.7,509.7,168.8,509.4,168.8z"/>
			</g>
			<g>
				<path class="st0" d="M508.4,176.6c0-0.5,0.4-1,1-1l0,0c0.5,0,1,0.5,1,1l0,0c0,0.6-0.5,1-1,1l0,0
					C508.8,177.6,508.4,177.2,508.4,176.6z M508.4,172.2c0-0.5,0.4-1,1-1l0,0c0.5,0,1,0.5,1,1l0,0c0,0.5-0.5,1-1,1l0,0
					C508.8,173.2,508.4,172.8,508.4,172.2z"/>
			</g>
			<g>
				<path class="st0" d="M509.4,182.1c-0.3,0-0.5-0.1-0.7-0.3s-0.3-0.4-0.3-0.7s0.1-0.5,0.3-0.7c0-0.1,0.1-0.1,0.2-0.1
					s0.1-0.1,0.2-0.1s0.1,0,0.2-0.1c0.3-0.1,0.7,0,0.9,0.3c0.2,0.2,0.3,0.4,0.3,0.7c0,0.1,0,0.3-0.1,0.4s-0.1,0.2-0.2,0.3
					C509.9,182,509.7,182.1,509.4,182.1z"/>
			</g>
		</g>
		<g>
			<circle class="st2" cx="177" cy="160.3" r="34.3"/>
		</g>
		<g>
			
				<ellipse transform="matrix(0.3179 -0.9481 0.9481 0.3179 91.3228 348.4011)" class="st2" cx="287.8" cy="110.7" rx="34.3" ry="34.3"/>
		</g>
		<g>
			
				<ellipse transform="matrix(0.5272 -0.8497 0.8497 0.5272 146.7578 485.159)" class="st2" cx="509.4" cy="110.7" rx="34.3" ry="34.3"/>
		</g>
		<g>
			<circle class="st2" cx="398.6" cy="160.3" r="34.3"/>
		</g>
		<g>
			<g>
				<path class="st0" d="M80.7,128.2c0-0.7,0.1-1.3,0-2c-0.1-1.1-0.3-2.1-0.6-3.2c-0.5-1.9-1.5-3.5-2.7-5.1c-1.4-1.7-3-3-4.9-3.9
					c-0.1-0.1-0.3-0.1-0.4-0.2c-0.6-0.4-1.1-0.4-1.8-0.1c-0.8,0.4-1.7,0.6-2.6,0.7c-0.6,0-1.2,0.1-1.7,0.1c-1.4,0-2.7-0.3-4-0.9
					c-0.5-0.2-0.9-0.2-1.3,0c-1.3,0.6-2.5,1.3-3.5,2.2c-1.8,1.5-3.2,3.3-4.1,5.4c-0.5,1.1-0.8,2.3-1,3.5c-0.2,1.1-0.2,2.2-0.2,3.4
					c-0.7,0-1.5,0-2.2,0c0-0.6,0-1.2,0-1.8c0.1-1.8,0.4-3.5,1.1-5.2c0.6-1.5,1.4-3,2.4-4.3c0.7-0.8,1.4-1.6,2.2-2.4
					c1.1-1.1,2.4-1.9,3.9-2.6c-2.6-2.4-3.9-5.3-3.8-8.8c0.1-3,1.4-5.6,3.7-7.6c2.1-1.9,4.6-2.8,7.4-2.7c3.2,0.1,5.9,1.3,8,3.7
					c4.2,4.9,3.2,11.7-1.1,15.4c0.4,0.2,0.9,0.4,1.3,0.7c0.8,0.6,1.7,1.1,2.4,1.7c1.7,1.4,3,3,4,4.9c0.8,1.4,1.3,3,1.6,4.5
					c0.3,1.4,0.3,2.9,0.3,4.3C82.2,128.2,81.5,128.2,80.7,128.2z M66.1,112.4c4.8,0,9-3.9,8.8-9.2C74.7,99,71.2,95,66,95.1
					c-4.6,0.1-8.2,3.8-8.4,8.4C57.5,108.5,61.5,112.4,66.1,112.4z"/>
			</g>
		</g>
		<g>
			<g>
				<path class="st0" d="M198.6,168.7c-0.9,0.9-2.2,1.2-3.2,1.8c-0.7,0.4-1.5,0.8-2.3,1.1c-3.3,1.6-6.5,3.1-10,4.2
					c-1.2,0.4-2.5,0.8-3.8,0.6c-0.9-0.1-1.9-0.3-2.8-0.5c-2.9-0.8-5.7-1.9-8.5-3.1c-1.1-0.5-2.2-1-3.3-1.5c-0.2-0.1-0.4-0.1-0.5,0.2
					c-0.5,0.9-1.3,1.3-2.2,1.4c-1.9,0-3.7,0-5.6,0c-0.7,0-1-0.3-1-1c0-4.7,0-9.4,0-14.1c0-0.9,0.5-1.2,1.2-1.1
					c1.5,0.3,2.9,0.6,4.3,0.9c0.9,0.2,1.8,0.4,2.8,0.6c0.9,0.2,1.8,0.9,2.1,1.9c0.7-0.1,1.3-0.3,2-0.4c2.2-0.4,4.5-0.4,6.6,0.7
					c1.6,0.8,3.2,1.5,4.9,1.9c1.1,0.2,2.3,0.5,3.4,0.9c1,0.3,1.9,0.7,2.6,1.5c0.3,0.4,0.5,0.9,0.7,1.4c0.1,0.2,0.1,0.3,0.3,0.2
					c1.2-0.3,2.4-0.6,3.6-0.9c1.4-0.3,2.8-0.6,4.3-0.5c1.4,0.1,2.8,0.5,3.7,1.6c0.4,0.4,0.6,1,0.8,1.5
					C198.6,168.2,198.6,168.5,198.6,168.7z M196.7,167.9c-0.3-0.5-0.8-0.7-1.3-0.9c-1.3-0.4-2.6-0.4-3.9-0.2
					c-1.8,0.4-3.6,0.9-5.4,1.3c-0.3,0.1-0.6,0.1-0.8,0.2c-0.9,0.8-2.1,0.9-3.2,0.9c-0.5,0-1.1,0-1.6-0.1c-0.9-0.1-1.8-0.2-2.7-0.4
					c-1.2-0.3-2.5-0.6-3.7-0.9c-0.6-0.2-1.3-0.3-1.9-0.5c-0.4-0.1-0.6-0.7-0.5-1.1c0.1-0.4,0.6-0.7,0.9-0.6c0.9,0.2,1.8,0.5,2.7,0.7
					c1.1,0.3,2.1,0.5,3.2,0.7c0.9,0.2,1.8,0.2,2.7,0.4c0.8,0.2,1.6,0,2.4-0.2c1-0.2,0.9-1,0.4-1.5c-0.5-0.4-1-0.7-1.6-0.9
					c-1.2-0.4-2.4-0.7-3.7-1c-1.7-0.4-3.2-1.1-4.8-1.8c-1-0.5-2-0.9-3.1-0.8c-0.7,0-1.4,0.1-2,0.2c-0.8,0.1-1.7,0.3-2.5,0.5
					c-0.1,0-0.3,0.2-0.3,0.3c-0.2,1-0.3,2.1-0.4,3.1c-0.2,1.3-0.4,2.5-0.6,3.8c0,0.1,0.1,0.3,0.2,0.4c0.8,0.4,1.7,0.8,2.5,1.2
					c2.8,1.2,5.5,2.4,8.4,3.3c1.1,0.3,2.3,0.7,3.5,0.8c1.3,0.1,2.6-0.4,3.8-0.8c2.4-0.8,4.6-1.8,6.9-2.9
					C192.3,170,194.5,168.9,196.7,167.9z M157.2,171c0.1,0,0.1,0,0.1,0c1.5,0,3,0,4.6,0c0.5,0,0.9-0.4,0.9-0.9c0-0.3,0-0.6,0.1-0.9
					c0.1-0.9,0.3-1.8,0.4-2.6c0.1-0.9,0.2-1.8,0.3-2.7c0.1-1,0.3-2,0.4-3c0.1-0.6-0.2-0.9-0.7-1.1c-0.2,0-0.4-0.1-0.6-0.1
					c-1.9-0.4-3.7-0.8-5.6-1.2C157.2,162.8,157.2,166.9,157.2,171z"/>
			</g>
			<g>
				<path class="st0" d="M184.2,145.4c0.9-0.7,1.8-1.2,3-1.3c1.6-0.1,3,0.3,4.2,1.3c1.1,1,1.6,2.1,1.8,3.6c0.1,1.8-0.5,3.2-1.8,4.5
					c-2.1,2.1-4.3,4.2-6.4,6.3c-0.6,0.5-1,0.7-1.6,0c-1.5-1.5-3-3-4.6-4.6c-0.6-0.6-1.3-1.2-1.9-1.8c-0.9-1-1.5-2.1-1.7-3.4
					c-0.2-1.6,0.3-2.9,1.3-4.1c0.8-0.9,1.8-1.5,3-1.8c1.6-0.3,3,0,4.3,1c0.1,0,0.1,0.1,0.2,0.1C184,145.3,184.1,145.4,184.2,145.4z
					 M184.2,158.2c0.1-0.1,0.1-0.2,0.2-0.3c2-2,4-4,5.9-5.9c0.9-0.9,1.2-2.1,0.9-3.3c-0.4-1.5-1.4-2.4-2.9-2.7
					c-1.3-0.2-2.6,0.1-3.4,1.3c-0.3,0.4-0.9,0.5-1.3,0.2c-0.2-0.1-0.3-0.3-0.5-0.5c-1.3-1.4-3.9-1.5-5.2,0c-1,1.1-1.3,2.8-0.6,4.1
					c0.3,0.5,0.7,1,1.2,1.4C180.4,154.4,182.3,156.2,184.2,158.2z"/>
			</g>
		</g>
		<g>
			<g>
				<path class="st0" d="M301.1,125c-1,0.4-1.9,0.8-2.9,1.2c-0.2,0.1-0.1,0.2-0.1,0.3c0.1,0.5-0.2,0.8-0.6,0.9c-0.2,0-0.3,0-0.5,0
					c-7.6,0-15.2,0-22.8,0c-0.8,0-1.1-0.2-1.1-0.7s0.4-0.7,1.1-0.7c6.7,0,13.5,0,20.2,0c0.4,0,0.6-0.1,0.6-0.5
					c0.1-1.3,0.2-2.6,0.3-3.9c0-0.4-0.1-0.5-0.4-0.4c-6.8,0-13.7,0-20.5,0c-0.2,0-0.4,0-0.6,0c-0.4-0.1-0.6-0.3-0.6-0.7
					c0-0.4,0.2-0.6,0.6-0.7c0.2,0,0.4,0,0.6,0c7,0,13.9,0,20.9,0c0.4,0,0.5-0.1,0.7-0.4c0.2-0.7,0.6-1.3,1-1.9
					c3.1-4.4,6.3-8.8,9.4-13.2c1-1.4,2.4-2.1,4.2-1.9c1.8,0.2,3,1.2,3.6,2.8c0.6,1.5,0.3,2.9-0.6,4.3c-1.8,2.5-3.6,5.1-5.4,7.6
					c-1.3,1.8-2.5,3.6-3.8,5.3c-0.4,0.6-0.8,1.1-1.3,1.5c-0.2,0.2-0.2,0.4-0.2,0.6c0,1.5,0,3,0,4.5c0,2.6-1.8,4.4-4.4,4.4
					c-8.4,0-16.8,0-25.2,0c-2.6,0-4.4-1.7-4.4-4.3c0-10.7,0-21.5,0-32.2c0-2.6,1.8-4.3,4.4-4.3c0.4,0,0.7,0,1.1,0s0.7,0.3,0.7,0.7
					c0,0.4-0.3,0.7-0.7,0.7c-0.6,0-1.1,0-1.7,0c-1.3,0.2-2.3,1.3-2.3,2.7c0,1.5,0,3.1,0,4.6c0,9.2,0,18.4,0,27.6
					c0,2,1.1,3.1,3.1,3.1c8.3,0,16.6,0,25,0c1.5,0,2.6-0.8,2.9-2.1v-0.1c0-0.2,0-0.4,0-0.6C301.1,127.7,301.1,126.4,301.1,125z
					 M302.1,122.4c0.1-0.1,0.1-0.1,0.2-0.2c0.2-0.2,0.4-0.5,0.6-0.7c2.6-3.7,5.3-7.5,7.9-11.2c0.2-0.3,0.2-0.4-0.1-0.6
					c-1.4-1-2.8-2-4.2-3c-0.3-0.2-0.4-0.2-0.6,0.1c-2.1,3-4.2,5.9-6.3,8.9c-0.7,1-1.5,2-2.1,3c-0.1,0.2-0.2,0.4,0.1,0.6
					c1.4,1,2.8,2,4.2,2.9C301.9,122.3,302,122.4,302.1,122.4z M312.8,106.6c0-1.4-0.9-2.6-2.3-2.9c-1.3-0.3-2.8,0.3-3.4,1.5
					c-0.1,0.2,0,0.2,0.1,0.3c1.5,1.1,3,2.1,4.4,3.2c0.1,0.1,0.2,0.1,0.3,0C312.4,108.1,312.8,107.4,312.8,106.6z M296.5,123.4
					c0,0.3-0.1,0.6-0.1,1c-0.1,1.1-0.1,1.1,0.9,0.6c1.1-0.5,2.2-0.9,3.2-1.5c0.2-0.1,0.3-0.2,0-0.3c-1.2-0.8-2.4-1.7-3.5-2.5
					c-0.2-0.2-0.3-0.1-0.3,0.1C296.6,121.7,296.6,122.6,296.5,123.4z"/>
			</g>
			<g>
				<path class="st0" d="M301.1,101.5c0-1.6,0-3.2,0-4.8c0-1.8-1.1-2.9-2.9-2.9c-0.8,0-1.6,0-2.4,0c-0.3,0-0.3,0.1-0.3,0.3
					c-0.1,1.3-0.9,2.1-2.2,2.1c-5.1,0-10.2,0-15.4,0c-1.3,0-2.2-0.9-2.2-2.1c0-0.8,0-1.6,0-2.4c0-1.1,0.8-2,2-2.1c0.4,0,0.9,0,1.3,0
					c0.3,0,0.4-0.1,0.5-0.3c0.5-1.5,1.3-2,2.9-2c2.1,0,4.3,0,6.4,0c1.5,0,2.3,0.6,2.8,2c0.1,0.3,0.2,0.4,0.5,0.4c0.4,0,0.8,0,1.3,0
					c1.2,0.1,2,0.9,2,2.1c0,0.7,0,0.7,0.7,0.7s1.5,0,2.2,0c2.4,0,4.2,1.8,4.2,4.1c0,3.4,0,6.8,0,10.3c0,0.5-0.3,0.8-0.7,0.9
					c-0.5,0-0.7-0.3-0.7-0.9C301.1,105,301.1,103.3,301.1,101.5z M285.6,94.8c2.5,0,5,0,7.6,0c0.7,0,0.9-0.2,0.9-0.8
					c0-0.7,0-1.5,0-2.2c0-0.5-0.2-0.7-0.7-0.7c-0.6,0-1.2,0-1.9,0c-0.5,0-0.7-0.2-0.9-0.6c-0.1-0.3-0.2-0.6-0.3-0.9
					c-0.2-0.6-0.6-0.9-1.2-0.9c-2.3,0-4.6,0-6.9,0c-0.6,0-1,0.3-1.2,0.9c-0.1,0.3-0.2,0.6-0.3,0.9c-0.1,0.4-0.4,0.6-0.8,0.6
					c-0.6,0-1.2,0-1.8,0c-0.6,0-0.8,0.2-0.8,0.8c0,0.6,0,1.3,0,1.9c0,0.8,0.2,1,1,1C280.6,94.8,283.1,94.8,285.6,94.8z"/>
			</g>
			<g>
				<path class="st0" d="M281,104.5c0.5,0.3,1,0.6,1.4,1c0.9,0.9,1.5,2,1.8,3.2c0.1,0.6-0.1,1-0.8,1c-3.2,0-6.3,0-9.5,0
					c-0.6,0-0.9-0.4-0.8-1c0.4-1.7,1.4-3.1,2.9-4c0.3-0.2,0.3-0.3,0.1-0.5c-0.8-1-0.9-2.4-0.2-3.5c0.7-1.1,1.9-1.7,3.2-1.5
					c1.3,0.2,2.3,1.1,2.6,2.4C282,102.6,281.8,103.3,281,104.5z M278.7,108.3c1.2,0,2.3,0,3.5,0c0.4,0,0.4-0.1,0.2-0.4
					c-0.8-1.5-2-2.4-3.7-2.4s-2.9,0.9-3.7,2.4c-0.2,0.4-0.1,0.4,0.3,0.4C276.4,108.3,277.6,108.3,278.7,108.3z M278.7,104
					c0.9,0,1.7-0.8,1.7-1.7c0-0.9-0.8-1.7-1.7-1.7c-0.9,0-1.7,0.8-1.7,1.7C277,103.3,277.8,104,278.7,104z"/>
			</g>
			<g>
				<path class="st0" d="M285.6,114.8c-3.8,0-7.6,0-11.4,0c-0.1,0-0.3,0-0.4,0c-0.4,0-0.7-0.4-0.7-0.7c0-0.4,0.3-0.6,0.7-0.7
					c0.1,0,0.2,0,0.4,0c7.6,0,15.3,0,22.9,0c0.1,0,0.2,0,0.4,0c0.4,0,0.7,0.3,0.7,0.7c0,0.4-0.3,0.7-0.7,0.7c-0.1,0-0.3,0-0.4,0
					C293.2,114.8,289.4,114.8,285.6,114.8z"/>
			</g>
			<g>
				<path class="st0" d="M292.8,108.5c-1.5,0-2.9,0-4.4,0c-0.4,0-0.7-0.1-0.8-0.4c-0.2-0.4,0-0.8,0.5-1c0.2,0,0.4,0,0.6,0
					c2.8,0,5.7,0,8.5,0c0.1,0,0.2,0,0.4,0c0.4,0,0.7,0.3,0.7,0.7c0,0.4-0.3,0.7-0.7,0.7c-0.5,0-1,0-1.5,0
					C294.8,108.5,293.8,108.5,292.8,108.5z"/>
			</g>
			<g>
				<path class="st0" d="M292.8,102.2c-1.5,0-2.9,0-4.4,0c-0.6,0-0.9-0.3-0.9-0.7c0-0.4,0.3-0.7,0.9-0.7c3,0,5.9,0,8.9,0
					c0.6,0,0.9,0.3,0.9,0.7c0,0.5-0.3,0.7-0.9,0.7C295.7,102.2,294.3,102.2,292.8,102.2z"/>
			</g>
			<g>
				<path class="st0" d="M285.6,91.7c1.2,0,2.4,0,3.7,0c0.6,0,0.9,0.3,0.9,0.7c0,0.5-0.3,0.7-0.9,0.7c-2.5,0-4.9,0-7.4,0
					c-0.6,0-0.9-0.3-0.9-0.7c0-0.4,0.3-0.7,0.9-0.7C283.1,91.7,284.4,91.7,285.6,91.7z"/>
			</g>
		</g>
		<g>
			<g>
				<path class="st0" d="M383,170.4c3.6-3.1,7.2-6.1,10.8-9.2c-3.6-3.1-7.1-6.1-10.8-9.2c-0.1,0.3-0.1,0.4-0.1,0.6c0,0.5,0,1,0,1.5
					s-0.4,0.9-1,0.9c-0.5,0-0.9-0.3-0.9-0.8c0-0.8-0.1-1.7,0.1-2.5c0.4-1.7,1.7-2.8,3.4-2.8c8.8,0,17.6,0,26.4,0c1.2,0,2.4,0,3.7,0
					c1.8,0,3.3,1,3.7,2.8c0.1,0.4,0.2,0.9,0.2,1.3c0,5.6,0,11.2,0,16.8c0,2-1.2,3.6-3.1,4.1c-0.3,0.1-0.6,0.1-0.8,0.1
					c-10.1,0-20.2,0-30.2,0c-1.2,0-2.1-0.7-2.8-1.8c-0.4-0.6-0.6-1.3-0.6-2.1c0-0.5,0-1,0-1.5c0-0.6,0.4-0.9,1-0.9
					c0.5,0,0.9,0.4,0.9,0.9s0,0.9,0,1.4C382.9,170,383,170.1,383,170.4z M415,150.6c-0.2,0-0.3,0-0.5,0c-9.8,0-19.6,0-29.4,0
					c-0.2,0-0.4,0-0.6,0c0.5,0.6,1.1,1,1.6,1.5c1.3,1.1,2.6,2.2,3.9,3.3c1.5,1.3,3.1,2.6,4.6,4c1.4,1.2,2.8,2.4,4.2,3.6
					c0.7,0.6,1.1,0.7,1.8,0c0.6-0.6,1.3-1.1,1.9-1.7c1.4-1.2,2.8-2.4,4.2-3.6c1.3-1.1,2.6-2.2,3.8-3.3c1.5-1.2,2.9-2.5,4.3-3.8
					C415,150.7,415.1,150.7,415,150.6C415.1,150.7,415,150.6,415,150.6z M415.1,171.8c-0.6-0.5-1.1-0.9-1.6-1.4
					c-0.8-0.7-1.5-1.3-2.3-2c-1.2-1-2.4-2-3.6-3c-1-0.9-2-1.7-3-2.6c-0.2-0.2-0.4-0.3-0.7-0.1c-0.8,0.7-1.6,1.4-2.4,2.1
					c-1,0.8-2.5,0.9-3.5,0c-0.8-0.7-1.7-1.4-2.5-2.2c-0.2-0.2-0.3-0.2-0.5,0c-0.5,0.5-1,0.9-1.6,1.4c-1.1,0.9-2.1,1.8-3.2,2.7
					c-0.7,0.6-1.5,1.3-2.2,1.9c-1.2,1-2.4,2-3.6,3.1C394.7,171.8,404.9,171.8,415.1,171.8z M416.6,170.5c0-6.3,0-12.4,0-18.6
					c-3.7,3.2-7.3,6.2-10.9,9.3C409.4,164.3,412.9,167.4,416.6,170.5z"/>
			</g>
			<g>
				<path class="st0" d="M380.4,164.6c-1.4,0-2.8,0-4.2,0c-0.5,0-1-0.4-1-0.9c0-0.4,0.3-0.8,0.8-1c0.1,0,0.3-0.1,0.4-0.1
					c2.7,0,5.5,0,8.2,0c0.5,0,0.9,0.1,1.1,0.6c0.3,0.7-0.2,1.4-1,1.4C383.3,164.6,381.9,164.6,380.4,164.6L380.4,164.6z"/>
			</g>
			<g>
				<path class="st0" d="M381.9,159.8c-0.9,0-1.8,0-2.8,0c-0.6,0-1-0.4-1-1c0-0.5,0.4-1,1-1c1.9,0,3.7,0,5.6,0c0.8,0,1.1,0.4,1.1,1
					s-0.6,1-1.2,0.9C383.7,159.7,382.8,159.8,381.9,159.8L381.9,159.8z"/>
			</g>
			<g>
				<path class="st3" d="M415,150.7v-0.1C415,150.6,415.1,150.7,415,150.7C415.1,150.7,415,150.7,415,150.7z"/>
			</g>
		</g>
		<g>
			<g>
				<path class="st0" d="M521.6,107.5c2.8,0.6,4.8,2.1,6.1,4.6c0.8,1.5,1,3.1,0.9,4.7c-0.2,1.7-0.8,3.2-1.9,4.5
					c-0.1,0.1-0.3,0.3-0.3,0.4s0,0.3,0,0.3c0.2,0.3,0.4,0.5,0.6,0.8c0.1-0.1,0.2-0.1,0.3-0.2c0.7-0.7,1.4-0.5,1.9,0.1
					c1.2,1.6,2.5,3.2,3.7,4.7c0.4,0.5,0.2,1.2-0.2,1.5c-0.7,0.5-1.4,1.1-2.1,1.6c-0.4,0.3-1.1,0.5-1.5-0.1c-0.5-0.7-1.1-1.4-1.6-2.1
					c-0.7-0.9-1.4-1.9-2.2-2.8c-0.6-0.8-0.2-1.4,0.3-1.8c0.1-0.1,0.2-0.2,0.4-0.3c-0.2-0.3-0.5-0.6-0.7-0.9
					c-1.1,0.8-2.3,1.4-3.7,1.6c0,0.3,0.1,0.6,0,0.9c-0.2,0.9-1.1,1.5-1.9,1.5c-7.2,0-14.4,0-21.6,0c-0.9,0-1.9-0.9-1.9-1.9
					c0-0.4,0-0.8,0-1.3c-0.4,0-0.8,0-1.2,0c-1,0-1.9-0.6-2.1-1.5c0-0.1-0.1-0.2-0.1-0.3c0-9.4,0-18.8,0-28.2c0-0.8,0.8-1.7,1.6-1.8
					c0.3,0,0.6-0.1,0.8-0.1c6.9,0,13.9,0,20.8,0c1.1,0,1.9,0.5,2.1,1.6c0.1,0.4,0.1,0.8,0,1.2c0,0.4,0.1,0.6,0.5,0.5
					c0.4,0,0.8,0,1.2,0.1c1.1,0.1,1.6,1.2,1.6,2.1c0,3.3,0,6.5,0,9.8C521.6,107.2,521.6,107.4,521.6,107.5z M516.9,95.1
					C516.9,95,516.9,95,516.9,95.1c0.1-0.4,0.1-0.7,0.1-1c0-0.8-0.2-1-1-1c-7,0-13.9,0-20.9,0c-0.8,0-0.9,0.2-0.9,0.9
					c0,9.1,0,18.2,0,27.4c0,0.1,0,0.3,0,0.4c0.2,0.2,0.3,0.5,0.5,0.5c0.5,0,1-0.1,1.5-0.1c0-0.2,0-0.3,0-0.4c0-5.1,0-10.3,0-15.4
					c0-3.1,0-6.1,0-9.2c0-0.3,0-0.7,0.2-1c0.3-0.9,1-1.2,1.9-1.2c5.1,0,10.2,0,15.2,0C514.7,95.1,515.8,95.1,516.9,95.1z
					 M511.6,114.1c-1.5,0-3.1,0-4.6,0c-2.2,0-4.5,0-6.7,0c-0.2,0-0.5-0.1-0.6-0.2s-0.1-0.4-0.1-0.6c0-0.4,0.4-0.4,0.7-0.4
					c1.1,0,2.1,0,3.2,0c2.8,0,5.5,0,8.3,0c0.2,0,0.4,0,0.5-0.2c0.4-0.8,0.9-1.6,1.4-2.4c-0.9,0-2,0-3,0c-0.4,0-0.6-0.3-0.7-0.6
					c0-0.2,0.2-0.4,0.4-0.6c0.1-0.1,0.3-0.1,0.4-0.1c1.4,0,2.8,0,4.2,0c0.2,0,0.3-0.1,0.5-0.2c0.8-0.3,1.6-0.8,2.5-1
					c0.8-0.2,1.6-0.3,2.4-0.4c0,0,0-0.1,0-0.2c0-3.3,0-6.6,0-9.9c0-0.6-0.3-0.8-0.9-0.8c-7,0-14.1,0-21.1,0c-0.7,0-0.9,0.2-0.9,0.9
					c0,9.1,0,18.3,0,27.4c0,0.7,0.2,0.9,0.9,0.9c7,0,14,0,21,0c0.7,0,0.9-0.3,0.8-0.9c-0.5-0.1-1-0.1-1.5-0.2
					c-1.8-0.3-3.3-1-4.6-2.3c-0.2-0.2-0.4-0.3-0.7-0.3c-4.3,0-8.6,0-12.9,0c-0.1,0-0.3,0-0.4,0c-0.3,0-0.5-0.2-0.6-0.4
					c0-0.2,0-0.5,0.2-0.6c0.2-0.2,0.5-0.2,0.7-0.2c4,0,7.9,0,11.9,0c0.1,0,0.3,0,0.4,0c-0.4-0.9-0.7-1.7-1.1-2.6c-0.1,0-0.2,0-0.4,0
					c-3.6,0-7.2,0-10.7,0c-0.1,0-0.3,0-0.4,0c-0.5,0-0.7-0.5-0.5-0.9s0.5-0.4,0.8-0.4c3.6,0,7.1,0,10.7,0c0.1,0,0.3,0,0.4,0
					C511.5,115.8,511.6,115,511.6,114.1C511.7,114.1,511.6,114.1,511.6,114.1z M527.3,115.9c0.1-3.8-3.2-7.6-7.9-7.2
					c-3.7,0.2-6.7,3.3-6.7,7.3c0,4.1,3.1,7.2,7.2,7.3C524,123.3,527.4,120.1,527.3,115.9z M526.4,125c1.2,1.5,2.3,3,3.5,4.5
					c0.6-0.5,1.2-0.9,1.7-1.3c0-0.1-0.1-0.2-0.1-0.2c-1.1-1.4-2.1-2.7-3.2-4.1c-0.1-0.2-0.2-0.2-0.4,0
					C527.4,124.2,527,124.6,526.4,125z"/>
			</g>
			<g>
				<path class="st0" d="M516.9,95.1C516.9,95,516.9,95,516.9,95.1C516.9,95,516.9,95,516.9,95.1z"/>
			</g>
			<g>
				<path class="st0" d="M511.7,114.1C511.7,114.1,511.6,114.1,511.7,114.1C511.6,114.1,511.7,114.1,511.7,114.1z"/>
			</g>
			<g>
				<path class="st0" d="M499.5,105.5c0-1,0-1.9,0-2.9c0-1.1,0.7-1.8,1.8-1.8c1.7,0,3.4,0,5.1,0c1.2,0,2,0.7,2,1.9
					c0,1.8,0,3.7,0,5.5c0,1.2-0.8,2-2,2c-1.8,0-3.5,0-5.3,0c-0.7,0-1.6-0.7-1.6-1.6C499.6,107.5,499.6,106.5,499.5,105.5
					C499.6,105.5,499.5,105.5,499.5,105.5z M500.8,105.4c0,0.9,0,1.8,0,2.8c0,0.6,0.1,0.7,0.6,0.7c1.6,0,3.3,0,4.9,0
					c0.6,0,0.7-0.1,0.7-0.7c0-1.8,0-3.6,0-5.5c0-0.5-0.2-0.7-0.7-0.7c-1.7,0-3.3,0-5,0c-0.5,0-0.6,0.1-0.6,0.6
					C500.8,103.6,500.8,104.5,500.8,105.4z"/>
			</g>
			<g>
				<path class="st0" d="M514.2,101.1c1.2,0,2.3,0,3.5,0c0.5,0,0.7,0.2,0.7,0.7c0,0.4-0.3,0.6-0.7,0.6c-2.4,0-4.7,0-7.1,0
					c-0.5,0-0.8-0.3-0.8-0.7c0-0.4,0.3-0.6,0.8-0.6C511.9,101.1,513,101.1,514.2,101.1z"/>
			</g>
			<g>
				<path class="st0" d="M514.2,105c1.2,0,2.3,0,3.5,0c0.5,0,0.8,0.2,0.8,0.6c0,0.5-0.2,0.7-0.8,0.7c-2.3,0-4.6,0-6.9,0
					c-0.3,0-0.6-0.1-0.8-0.4c-0.2-0.4,0.1-0.9,0.6-0.9C511.8,105,513,105,514.2,105L514.2,105z"/>
			</g>
			<g>
				<path class="st0" d="M514.3,116c-0.1-3.2,2.6-5.7,5.5-5.8c3.7-0.1,6,2.7,6.1,5.4c0.2,3.7-2.8,6.1-5.4,6.2
					C516.8,122,514.1,118.9,514.3,116z M520,120.5c2.4,0.1,4.8-2.1,4.6-4.8c-0.1-2.1-1.9-4.4-4.8-4.3c-2.1,0.1-4.4,2-4.2,4.9
					C515.7,118.4,517.6,120.5,520,120.5z"/>
			</g>
			<g>
				<path class="st0" d="M520.1,112.5c1.5-0.1,3.1,1,3.4,2.5c0.1,0.5,0,0.8-0.3,0.9c-0.5,0.1-0.8,0-0.9-0.5
					c-0.2-0.9-1.2-1.7-2.2-1.6c-0.1,0-0.3,0-0.4,0c-0.4,0-0.7-0.2-0.7-0.6c0-0.3,0.3-0.7,0.7-0.7
					C519.8,112.5,519.9,112.5,520.1,112.5z"/>
			</g>
		</g>
	</g>
</g>
</svg>
