<?xml version="1.0" encoding="utf-8"?>
<!-- Generator: Adobe Illustrator 27.7.0, SVG Export Plug-In . SVG Version: 6.00 Build 0)  -->
<svg version="1.1" id="Layer_1" xmlns="http://www.w3.org/2000/svg" xmlns:xlink="http://www.w3.org/1999/xlink" x="0px" y="0px"
	 viewBox="0 0 410.2 214.5" style="enable-background:new 0 0 410.2 214.5;" xml:space="preserve">
<style type="text/css">
	.st0{fill:#FF9D00;}
	.st1{fill:#FF3654;}
	.st2{fill:#338AE8;}
	.st3{fill:#00B59A;}
	.st4{fill:#333333;}
	.st5{fill:#FFFFFF;}
</style>
<g>
	<g>
		<path class="st0" d="M154.2,146.3l-17.6-17.6c19.4-19.4,45.2-30.1,72.6-30.1v24.9C188.4,123.6,168.9,131.6,154.2,146.3z"/>
	</g>
</g>
<g>
	<g>
		<path class="st1" d="M264.3,146.3c-14.7-14.7-34.2-22.8-55-22.8V98.7c27.4,0,53.2,10.7,72.6,30.1L264.3,146.3z"/>
	</g>
</g>
<g>
	<g>
		<path class="st2" d="M131.4,201.4h-24.9c0-27.4,10.7-53.2,30.1-72.6l17.6,17.6C139.5,161,131.4,180.6,131.4,201.4z"/>
	</g>
</g>
<g>
	<g>
		<path class="st3" d="M311.9,201.4H287c0-20.8-8.1-40.4-22.8-55l17.6-17.6C301.3,148.1,311.9,173.9,311.9,201.4z"/>
	</g>
</g>
<g>
	<g>
		<g>
			<path class="st4" d="M233.8,45.7h-0.1c-15-2.3-30.7-2.5-45.8-0.4c-0.5,0.1-0.9-0.3-0.9-0.7c-0.1-0.5,0.3-0.9,0.7-0.9
				c15.2-2.1,31.1-1.9,46.3,0.4c0.5,0.1,0.8,0.5,0.7,0.9C234.5,45.4,234.2,45.7,233.8,45.7z"/>
		</g>
	</g>
	<g>
		<g>
			<path class="st4" d="M234.1,41.8c1.7,0.3,2.9,1.9,2.6,3.6c-0.3,1.7-1.9,2.9-3.6,2.6c-1.7-0.3-2.9-1.9-2.6-3.6
				C230.8,42.7,232.4,41.5,234.1,41.8z"/>
		</g>
	</g>
	<g>
		<g>
			<path class="st4" d="M187.5,41.3c-1.7,0.2-2.9,1.8-2.7,3.5s1.8,2.9,3.5,2.7s2.9-1.8,2.7-3.5S189.2,41.1,187.5,41.3z"/>
		</g>
	</g>
</g>
<g>
	<g>
		<g>
			<path class="st4" d="M50.9,199.2C50.9,199.2,50.8,199.2,50.9,199.2c-0.5,0-0.8-0.4-0.8-0.8c0.1-6.8,0.7-13.7,1.7-20.4
				c0.1-0.5,0.5-0.8,0.9-0.7c0.5,0.1,0.8,0.5,0.7,0.9c-1,6.6-1.5,13.4-1.7,20.2C51.7,198.9,51.3,199.2,50.9,199.2z"/>
		</g>
	</g>
	<g>
		<g>
			<path class="st4" d="M49.4,177.8c0.2-1.7,1.8-2.9,3.5-2.6c1.7,0.2,2.9,1.8,2.6,3.5c-0.2,1.7-1.8,2.9-3.5,2.6
				C50.4,181.1,49.2,179.5,49.4,177.8z"/>
		</g>
	</g>
	<g>
		<g>
			<path class="st4" d="M47.8,198.2c0,1.7,1.3,3.1,3.1,3.2c1.7,0,3.1-1.3,3.2-3.1c0-1.7-1.3-3.1-3.1-3.2
				C49.2,195.1,47.8,196.5,47.8,198.2z"/>
		</g>
	</g>
</g>
<g>
	<g>
		<g>
			<path class="st4" d="M87.7,100.5c-0.2,0-0.4-0.1-0.5-0.2c-0.4-0.3-0.4-0.8-0.1-1.2c3-3.6,6.2-7.1,9.5-10.4c4-4,8.3-7.8,12.7-11.4
				c0.4-0.3,0.9-0.2,1.2,0.1c0.3,0.4,0.2,0.9-0.1,1.2c-4.3,3.5-8.6,7.3-12.5,11.3c-3.3,3.3-6.4,6.7-9.4,10.3
				C88.2,100.4,88,100.5,87.7,100.5z"/>
		</g>
	</g>
	<g>
		<g>
			<path class="st4" d="M90.3,101.6c-1.1,1.3-3.1,1.5-4.4,0.4s-1.5-3.1-0.4-4.4s3.1-1.5,4.4-0.4C91.2,98.3,91.4,100.3,90.3,101.6z"
				/>
		</g>
	</g>
	<g>
		<g>
			<path class="st4" d="M111.7,80.6c1.3-1.1,1.5-3.1,0.4-4.4s-3.1-1.5-4.4-0.4s-1.5,3.1-0.4,4.4C108.4,81.5,110.4,81.7,111.7,80.6z"
				/>
		</g>
	</g>
</g>
<g>
	<g>
		<g>
			<path class="st4" d="M331.9,101.9c-0.2,0-0.5-0.1-0.6-0.3c-3.3-4-6.9-8-10.6-11.7c-3.4-3.4-7-6.7-10.7-9.7
				c-0.4-0.3-0.4-0.8-0.1-1.2c0.3-0.4,0.8-0.4,1.2-0.1c3.7,3.1,7.3,6.4,10.8,9.8c3.7,3.7,7.3,7.7,10.7,11.8c0.3,0.4,0.2,0.9-0.1,1.2
				C332.3,101.8,332.1,101.9,331.9,101.9z"/>
		</g>
	</g>
	<g>
		<g>
			<path class="st4" d="M334.2,99c1.1,1.3,0.9,3.3-0.4,4.4s-3.3,0.9-4.4-0.4s-0.9-3.3,0.4-4.4S333,97.7,334.2,99z"/>
		</g>
	</g>
	<g>
		<g>
			<path class="st4" d="M312.7,77.3c-1.3-1.1-3.3-1-4.4,0.4c-1.1,1.3-1,3.3,0.4,4.4c1.3,1.1,3.3,1,4.4-0.4
				C314.2,80.4,314,78.4,312.7,77.3z"/>
		</g>
	</g>
</g>
<g>
	<g>
		<g>
			<path class="st4" d="M367.6,199.2c-0.5,0-0.8-0.4-0.8-0.8c-0.1-6.5-0.6-13.1-1.6-19.5c-0.1-0.5,0.2-0.9,0.7-0.9
				c0.5-0.1,0.9,0.2,0.9,0.7c0.9,6.5,1.5,13.1,1.6,19.7C368.5,198.9,368.1,199.2,367.6,199.2L367.6,199.2z"/>
		</g>
	</g>
	<g>
		<g>
			<path class="st4" d="M370.7,198.2c0,1.7-1.3,3.1-3.1,3.2c-1.7,0-3.1-1.3-3.2-3.1c0-1.7,1.3-3.1,3.1-3.2
				C369.3,195.1,370.7,196.5,370.7,198.2z"/>
		</g>
	</g>
	<g>
		<g>
			<path class="st4" d="M369.1,178.5c-0.2-1.7-1.8-2.9-3.5-2.6c-1.7,0.2-2.9,1.8-2.6,3.5c0.2,1.7,1.8,2.9,3.5,2.6
				S369.4,180.2,369.1,178.5z"/>
		</g>
	</g>
</g>
<g>
	<g>
		<path class="st2" d="M106.8,158.4l-4.9-10.4c1.2-3.9,1.9-8,1.9-12.3c0-22.5-18.2-40.7-40.7-40.7s-40.7,18.2-40.7,40.7
			s18.2,40.7,40.7,40.7c13.6,0,25.6-6.6,33-16.8L106.8,158.4z"/>
	</g>
	<g>
		<path class="st5" d="M63.1,177.7c-23.1,0-42-18.8-42-42c0-23.1,18.8-42,42-42c23.1,0,42,18.8,42,42c0,4.2-0.6,8.3-1.8,12.2
			l5.4,11.6l-11.9,1.3C88.8,171.4,76.3,177.7,63.1,177.7z M63.1,96.2c-21.8,0-39.5,17.7-39.5,39.5s17.7,39.5,39.5,39.5
			c12.6,0,24.5-6.1,32-16.3l0.3-0.4l9.6-1.1l-4.3-9.3l0.1-0.5c1.2-3.8,1.8-7.9,1.8-11.9C102.5,113.9,84.8,96.2,63.1,96.2z"/>
	</g>
</g>
<g>
	<g>
		<path class="st0" d="M168.4,18.6c-18.3-13.1-43.7-8.9-56.9,9.3c-13.1,18.3-8.9,43.7,9.3,56.9c11,7.9,24.6,9.5,36.6,5.6l9.4,5.3
			l2.1-11.3c3.3-2.4,6.2-5.4,8.7-8.9C190.9,57.1,186.7,31.7,168.4,18.6z"/>
	</g>
	<g>
		<path class="st5" d="M167.8,97.5l-10.5-5.9c-12.6,4-26.5,1.8-37.2-5.9C101.4,72.3,97,46,110.5,27.2s39.8-23.2,58.6-9.7l0,0
			c18.8,13.5,23.1,39.8,9.6,58.6c-2.4,3.4-5.3,6.4-8.6,8.9L167.8,97.5z M157.6,89l8.4,4.7l1.9-10.1l0.4-0.3c3.2-2.4,6.1-5.3,8.4-8.6
			c12.7-17.7,8.6-42.4-9.1-55.1s-42.4-8.6-55.1,9.1s-8.6,42.4,9.1,55.1c10.2,7.3,23.5,9.4,35.5,5.4L157.6,89z"/>
	</g>
</g>
<g>
	<g>
		<path class="st3" d="M358.5,95c-22.5,0-40.7,18.2-40.7,40.7c0,4.3,0.7,8.4,1.9,12.3l-4.9,10.4l10.7,1.2
			c7.4,10.2,19.4,16.8,33,16.8c22.5,0,40.7-18.2,40.7-40.7S381,95,358.5,95z"/>
	</g>
	<g>
		<path class="st5" d="M358.5,177.7c-13.2,0-25.7-6.3-33.7-16.9l-11.9-1.3l5.4-11.6c-1.2-3.9-1.8-8.1-1.8-12.2c0-23.1,18.8-42,42-42
			c23.1,0,42,18.8,42,42S381.7,177.7,358.5,177.7z M316.7,157.4l9.6,1.1l0.3,0.4c7.4,10.2,19.4,16.3,32,16.3
			c21.8,0,39.5-17.7,39.5-39.5s-17.7-39.5-39.5-39.5s-39.5,17.7-39.5,39.5c0,4.1,0.6,8.1,1.8,11.9l0.1,0.5L316.7,157.4z"/>
	</g>
</g>
<g>
	<g>
		<path class="st1" d="M310,27.9c-13.1-18.3-38.6-22.5-56.9-9.3c-18.3,13.1-22.5,38.6-9.3,56.9c2.5,3.5,5.4,6.4,8.7,8.9l2.1,11.3
			l9.4-5.3c12,4,25.6,2.4,36.6-5.6C319,71.6,323.2,46.2,310,27.9z"/>
	</g>
	<g>
		<path class="st5" d="M253.8,97.5L251.4,85c-3.3-2.5-6.2-5.5-8.6-8.9c-13.5-18.8-9.2-45.1,9.6-58.6C271.3,4,297.5,8.4,311,27.2l0,0
			c13.5,18.8,9.2,45.1-9.6,58.6c-10.7,7.7-24.6,9.9-37.2,5.9L253.8,97.5z M276.9,12.2c-8,0-16,2.4-23,7.4
			c-17.7,12.7-21.8,37.4-9.1,55.1c2.4,3.3,5.2,6.2,8.4,8.6l0.4,0.3l1.9,10.1L264,89l0.5,0.2c12,4,25.3,2,35.5-5.4
			c17.7-12.7,21.8-37.4,9.1-55.1C301.3,17.9,289.2,12.2,276.9,12.2z"/>
	</g>
</g>
<g>
	<g>
		<path class="st4" d="M167.4,160.8h-2.7v2.9H163v-7.3h4.9v1.3h-3.2v1.8h2.7V160.8z"/>
		<path class="st4" d="M171.6,163.7c-0.1-0.1-0.1-0.2-0.2-0.4c0-0.1-0.1-0.3-0.1-0.5c-0.1,0.3-0.3,0.5-0.5,0.7s-0.5,0.3-0.8,0.3
			c-0.6,0-1-0.1-1.3-0.4c-0.3-0.3-0.5-0.7-0.5-1.2s0.2-1,0.6-1.2c0.4-0.3,1-0.4,1.8-0.4h0.7v-0.4c0-0.2-0.1-0.4-0.2-0.5
			c-0.1-0.1-0.3-0.2-0.5-0.2s-0.3,0-0.4,0.1c-0.1,0.1-0.1,0.2-0.1,0.4h-1.6l0,0c0-0.5,0.2-0.9,0.6-1.2c0.4-0.3,1-0.5,1.7-0.5
			s1.2,0.2,1.6,0.5c0.4,0.3,0.6,0.8,0.6,1.4v2.1c0,0.3,0,0.6,0.1,0.8s0.1,0.5,0.2,0.7L171.6,163.7z M170.4,162.6
			c0.2,0,0.4,0,0.6-0.1c0.2-0.1,0.3-0.2,0.3-0.3v-0.7h-0.7c-0.3,0-0.5,0.1-0.6,0.2s-0.2,0.3-0.2,0.5s0.1,0.3,0.2,0.4
			C170.1,162.6,170.2,162.6,170.4,162.6z"/>
		<path class="st4" d="M175.9,157v1.4h0.9v1.2h-0.9v2.5c0,0.2,0,0.3,0.1,0.4c0.1,0.1,0.2,0.1,0.3,0.1s0.2,0,0.2,0c0.1,0,0.1,0,0.2,0
			l0.1,1.3c-0.2,0-0.3,0.1-0.5,0.1c-0.1,0-0.3,0-0.5,0c-0.6,0-1-0.1-1.3-0.4c-0.3-0.3-0.4-0.8-0.4-1.4v-2.5h-0.8v-1.2h0.8V157H175.9
			z"/>
		<path class="st4" d="M177.3,161c0-0.8,0.2-1.5,0.7-2s1.1-0.8,1.9-0.8c0.8,0,1.5,0.3,1.9,0.8c0.5,0.5,0.7,1.2,0.7,2v0.1
			c0,0.8-0.2,1.5-0.7,2s-1.1,0.8-1.9,0.8c-0.8,0-1.5-0.3-1.9-0.8s-0.7-1.2-0.7-2V161z M179,161.1c0,0.5,0.1,0.8,0.2,1.1
			c0.1,0.3,0.4,0.4,0.7,0.4s0.6-0.1,0.7-0.4s0.2-0.6,0.2-1.1V161c0-0.4-0.1-0.8-0.2-1.1s-0.4-0.4-0.7-0.4s-0.6,0.1-0.7,0.4
			c-0.1,0.3-0.2,0.6-0.2,1.1V161.1z"/>
		<path class="st4" d="M186.4,159.8h-0.6c-0.2,0-0.4,0-0.5,0.1s-0.2,0.2-0.3,0.3v3.6h-1.7v-5.4h1.6l0.1,0.8c0.1-0.3,0.3-0.5,0.5-0.7
			s0.4-0.2,0.7-0.2c0.1,0,0.1,0,0.2,0c0.1,0,0.1,0,0.2,0L186.4,159.8z"/>
		<path class="st4" d="M189.3,163.9c-0.8,0-1.5-0.2-1.9-0.7c-0.5-0.5-0.7-1.1-0.7-1.9V161c0-0.8,0.2-1.5,0.7-2
			c0.4-0.5,1.1-0.8,1.9-0.8c0.7,0,1.3,0.2,1.7,0.7s0.6,1,0.6,1.8v0.9h-3.1l0,0c0,0.3,0.1,0.5,0.3,0.7s0.4,0.3,0.8,0.3
			c0.3,0,0.6,0,0.8-0.1s0.5-0.1,0.7-0.3l0.4,1c-0.2,0.2-0.5,0.3-0.9,0.4C190.1,163.8,189.7,163.9,189.3,163.9z M189.2,159.5
			c-0.3,0-0.5,0.1-0.6,0.3s-0.2,0.4-0.2,0.7l0,0h1.5v-0.1c0-0.3,0-0.5-0.1-0.6C189.6,159.6,189.5,159.5,189.2,159.5z"/>
		<path class="st4" d="M195.1,162.2c0-0.1-0.1-0.3-0.2-0.4c-0.2-0.1-0.4-0.2-0.8-0.3c-0.6-0.1-1.1-0.3-1.4-0.6
			c-0.3-0.3-0.5-0.6-0.5-1.1s0.2-0.9,0.6-1.2s0.9-0.5,1.6-0.5c0.7,0,1.3,0.2,1.7,0.5s0.6,0.7,0.6,1.3l0,0H195c0-0.2-0.1-0.4-0.2-0.5
			c-0.1-0.1-0.3-0.2-0.5-0.2s-0.3,0-0.4,0.1c-0.1,0.1-0.2,0.2-0.2,0.4c0,0.1,0.1,0.3,0.2,0.4c0.1,0.1,0.4,0.2,0.8,0.3
			c0.7,0.1,1.2,0.3,1.5,0.6s0.5,0.6,0.5,1.1s-0.2,0.9-0.7,1.2c-0.4,0.3-1,0.5-1.7,0.5s-1.3-0.2-1.8-0.6c-0.4-0.4-0.6-0.8-0.6-1.3
			l0,0h1.5c0,0.3,0.1,0.4,0.2,0.6c0.1,0.1,0.4,0.2,0.6,0.2c0.2,0,0.4,0,0.5-0.1S195.1,162.4,195.1,162.2z"/>
		<path class="st4" d="M199.9,161c0-0.8,0.2-1.5,0.6-2.1c0.4-0.5,0.9-0.8,1.6-0.8c0.3,0,0.5,0.1,0.7,0.2s0.4,0.3,0.5,0.5v-3h1.7v7.8
			h-1.5l-0.1-0.7c-0.2,0.2-0.4,0.4-0.6,0.6c-0.2,0.1-0.5,0.2-0.8,0.2c-0.7,0-1.2-0.2-1.6-0.7c-0.4-0.5-0.6-1.2-0.6-2l0,0H199.9z
			 M201.6,161.1c0,0.4,0.1,0.8,0.2,1c0.1,0.2,0.3,0.4,0.7,0.4c0.2,0,0.3,0,0.5-0.1s0.2-0.2,0.3-0.3V160c-0.1-0.1-0.2-0.3-0.3-0.3
			s-0.3-0.1-0.5-0.1c-0.3,0-0.5,0.1-0.7,0.4C201.7,160.3,201.6,160.6,201.6,161.1L201.6,161.1z"/>
		<path class="st4" d="M208.3,163.9c-0.8,0-1.5-0.2-1.9-0.7c-0.5-0.5-0.7-1.1-0.7-1.9V161c0-0.8,0.2-1.5,0.7-2
			c0.4-0.5,1.1-0.8,1.9-0.8c0.7,0,1.3,0.2,1.7,0.7s0.6,1,0.6,1.8v0.9h-3.1l0,0c0,0.3,0.1,0.5,0.3,0.7s0.4,0.3,0.8,0.3
			c0.3,0,0.6,0,0.8-0.1s0.5-0.1,0.7-0.3l0.4,1c-0.2,0.2-0.5,0.3-0.9,0.4C209.2,163.8,208.7,163.9,208.3,163.9z M208.2,159.5
			c-0.3,0-0.5,0.1-0.6,0.3s-0.2,0.4-0.2,0.7l0,0h1.5v-0.1c0-0.3,0-0.5-0.1-0.6C208.6,159.6,208.5,159.5,208.2,159.5z"/>
		<path class="st4" d="M216.8,159.8h-0.6c-0.2,0-0.4,0-0.5,0.1s-0.2,0.2-0.3,0.3v3.6h-1.7v-5.4h1.6l0.1,0.8c0.1-0.3,0.3-0.5,0.5-0.7
			s0.4-0.2,0.7-0.2c0.1,0,0.1,0,0.2,0c0.1,0,0.1,0,0.2,0L216.8,159.8z"/>
		<path class="st4" d="M219.3,157h-1.7v-1.1h1.7V157z M219.3,163.7h-1.7v-5.4h1.7V163.7z"/>
		<path class="st4" d="M223.1,162.2c0-0.1-0.1-0.3-0.2-0.4c-0.2-0.1-0.4-0.2-0.8-0.3c-0.6-0.1-1.1-0.3-1.4-0.6
			c-0.3-0.3-0.5-0.6-0.5-1.1s0.2-0.9,0.6-1.2c0.4-0.3,0.9-0.5,1.6-0.5c0.7,0,1.3,0.2,1.7,0.5s0.6,0.7,0.6,1.3l0,0H223
			c0-0.2-0.1-0.4-0.2-0.5s-0.3-0.2-0.5-0.2s-0.3,0-0.4,0.1c-0.1,0.1-0.2,0.2-0.2,0.4c0,0.1,0.1,0.3,0.2,0.4c0.1,0.1,0.4,0.2,0.8,0.3
			c0.7,0.1,1.2,0.3,1.5,0.6s0.5,0.6,0.5,1.1s-0.2,0.9-0.7,1.2c-0.4,0.3-1,0.5-1.7,0.5s-1.3-0.2-1.8-0.6c-0.4-0.4-0.6-0.8-0.6-1.3
			l0,0h1.5c0,0.3,0.1,0.4,0.2,0.6c0.1,0.1,0.4,0.2,0.6,0.2c0.2,0,0.4,0,0.5-0.1C223.1,162.5,223.1,162.4,223.1,162.2z"/>
		<path class="st4" d="M227.9,162.5c0.2,0,0.4-0.1,0.5-0.2c0.1-0.1,0.2-0.3,0.2-0.5h1.5l0,0c0,0.6-0.2,1.1-0.6,1.5
			c-0.4,0.4-1,0.6-1.6,0.6c-0.8,0-1.5-0.3-1.9-0.8s-0.7-1.2-0.7-2V161c0-0.8,0.2-1.5,0.7-2c0.4-0.5,1.1-0.8,1.9-0.8
			c0.7,0,1.2,0.2,1.7,0.6c0.4,0.4,0.6,0.9,0.6,1.6l0,0h-1.5c0-0.3-0.1-0.5-0.2-0.6c-0.1-0.2-0.3-0.2-0.5-0.2c-0.3,0-0.6,0.1-0.7,0.4
			s-0.2,0.6-0.2,1.1v0.1c0,0.5,0.1,0.8,0.2,1.1C227.3,162.4,227.6,162.5,227.9,162.5z"/>
		<path class="st4" d="M230.6,161c0-0.8,0.2-1.5,0.7-2s1.1-0.8,1.9-0.8c0.8,0,1.5,0.3,1.9,0.8s0.7,1.2,0.7,2v0.1
			c0,0.8-0.2,1.5-0.7,2s-1.1,0.8-1.9,0.8c-0.8,0-1.5-0.3-1.9-0.8s-0.7-1.2-0.7-2V161z M232.3,161.1c0,0.5,0.1,0.8,0.2,1.1
			s0.4,0.4,0.7,0.4s0.6-0.1,0.7-0.4c0.1-0.3,0.2-0.6,0.2-1.1V161c0-0.4-0.1-0.8-0.2-1.1c-0.1-0.3-0.4-0.4-0.7-0.4s-0.6,0.1-0.7,0.4
			s-0.2,0.6-0.2,1.1V161.1z"/>
		<path class="st4" d="M244.2,161.1c0,0.8-0.2,1.5-0.6,2c-0.4,0.5-0.9,0.7-1.6,0.7c-0.3,0-0.5,0-0.7-0.2s-0.4-0.2-0.5-0.4v2.6h-1.7
			v-7.5h1.6v0.6c0.2-0.2,0.3-0.4,0.5-0.5s0.5-0.2,0.7-0.2c0.7,0,1.2,0.3,1.6,0.8C243.9,159.5,244.1,160.2,244.2,161.1L244.2,161.1
			L244.2,161.1z M242.5,161c0-0.5-0.1-0.8-0.2-1.1s-0.3-0.4-0.6-0.4c-0.2,0-0.4,0-0.5,0.1s-0.2,0.2-0.3,0.3v2.3
			c0.1,0.1,0.2,0.2,0.3,0.3s0.3,0.1,0.5,0.1c0.3,0,0.5-0.1,0.6-0.4c0.1-0.2,0.2-0.6,0.2-1V161z"/>
		<path class="st4" d="M248.1,163.7c-0.1-0.1-0.1-0.2-0.2-0.4c0-0.1-0.1-0.3-0.1-0.5c-0.1,0.3-0.3,0.5-0.5,0.7s-0.5,0.3-0.8,0.3
			c-0.6,0-1-0.1-1.3-0.4c-0.3-0.3-0.5-0.7-0.5-1.2s0.2-1,0.6-1.2c0.4-0.3,1-0.4,1.8-0.4h0.7v-0.4c0-0.2-0.1-0.4-0.2-0.5
			c-0.1-0.1-0.3-0.2-0.5-0.2s-0.3,0-0.4,0.1c-0.1,0.1-0.1,0.2-0.1,0.4h-1.7l0,0c0-0.5,0.2-0.9,0.6-1.2s1-0.5,1.7-0.5
			s1.2,0.2,1.6,0.5c0.4,0.3,0.6,0.8,0.6,1.4v2.1c0,0.3,0,0.6,0.1,0.8c0,0.2,0.1,0.5,0.2,0.7L248.1,163.7z M246.9,162.6
			c0.2,0,0.4,0,0.6-0.1c0.2-0.1,0.3-0.2,0.3-0.3v-0.7h-0.7c-0.3,0-0.5,0.1-0.6,0.2c-0.1,0.1-0.2,0.3-0.2,0.5s0.1,0.3,0.2,0.4
			S246.8,162.6,246.9,162.6z"/>
		<path class="st4" d="M253.5,159.8h-0.6c-0.2,0-0.4,0-0.5,0.1s-0.2,0.2-0.3,0.3v3.6h-1.7v-5.4h1.6l0.1,0.8c0.1-0.3,0.3-0.5,0.5-0.7
			s0.4-0.2,0.7-0.2c0.1,0,0.1,0,0.2,0c0.1,0,0.1,0,0.2,0L253.5,159.8z"/>
		<path class="st4" d="M257.2,163.7c-0.1-0.1-0.1-0.2-0.2-0.4c0-0.1-0.1-0.3-0.1-0.5c-0.1,0.3-0.3,0.5-0.5,0.7s-0.5,0.3-0.8,0.3
			c-0.6,0-1-0.1-1.3-0.4c-0.3-0.3-0.5-0.7-0.5-1.2s0.2-1,0.6-1.2c0.4-0.3,1-0.4,1.8-0.4h0.7v-0.4c0-0.2-0.1-0.4-0.2-0.5
			s-0.3-0.2-0.5-0.2c-0.2,0-0.3,0-0.4,0.1c-0.1,0.1-0.1,0.2-0.1,0.4H254l0,0c0-0.5,0.2-0.9,0.6-1.2s1-0.5,1.7-0.5
			c0.7,0,1.2,0.2,1.6,0.5s0.6,0.8,0.6,1.4v2.1c0,0.3,0,0.6,0.1,0.8c0,0.2,0.1,0.5,0.2,0.7L257.2,163.7z M256,162.6
			c0.2,0,0.4,0,0.6-0.1s0.3-0.2,0.3-0.3v-0.7h-0.7c-0.3,0-0.5,0.1-0.6,0.2c-0.1,0.1-0.2,0.3-0.2,0.5s0.1,0.3,0.2,0.4
			S255.9,162.6,256,162.6z"/>
		<path class="st4" d="M160.2,173.3c0-0.8,0.2-1.5,0.7-2s1.1-0.8,1.9-0.8c0.8,0,1.5,0.3,1.9,0.8c0.5,0.5,0.7,1.2,0.7,2v0.1
			c0,0.8-0.2,1.5-0.7,2s-1.1,0.8-1.9,0.8c-0.8,0-1.5-0.3-1.9-0.8s-0.7-1.2-0.7-2V173.3z M161.9,173.4c0,0.5,0.1,0.8,0.2,1.1
			c0.1,0.3,0.4,0.4,0.7,0.4s0.6-0.1,0.7-0.4s0.2-0.6,0.2-1.1v-0.1c0-0.4-0.1-0.8-0.2-1.1s-0.4-0.4-0.7-0.4s-0.6,0.1-0.7,0.4
			c-0.1,0.3-0.2,0.6-0.2,1.1V173.4z"/>
		<path class="st4" d="M168.6,173.4c0-0.8,0.2-1.5,0.6-2.1c0.4-0.5,0.9-0.8,1.6-0.8c0.3,0,0.5,0.1,0.7,0.2s0.4,0.3,0.5,0.5v-3h1.7
			v7.8h-1.5l-0.1-0.7c-0.2,0.2-0.4,0.4-0.6,0.6c-0.2,0.1-0.5,0.2-0.8,0.2c-0.7,0-1.2-0.2-1.6-0.7c-0.4-0.5-0.6-1.2-0.6-2l0,0H168.6z
			 M170.3,173.5c0,0.4,0.1,0.8,0.2,1c0.1,0.2,0.3,0.4,0.7,0.4c0.2,0,0.3,0,0.5-0.1s0.2-0.2,0.3-0.3v-2.2c-0.1-0.1-0.2-0.3-0.3-0.3
			s-0.3-0.1-0.5-0.1c-0.3,0-0.5,0.1-0.7,0.4c-0.1,0.3-0.2,0.6-0.2,1.1V173.5z"/>
		<path class="st4" d="M177,176.2c-0.8,0-1.5-0.2-1.9-0.7c-0.5-0.5-0.7-1.1-0.7-1.9v-0.2c0-0.8,0.2-1.5,0.7-2
			c0.4-0.5,1.1-0.8,1.9-0.8c0.7,0,1.3,0.2,1.7,0.7s0.6,1,0.6,1.8v0.9h-3.1l0,0c0,0.3,0.1,0.5,0.3,0.7s0.4,0.3,0.8,0.3
			c0.3,0,0.6,0,0.8-0.1s0.5-0.1,0.7-0.3l0.4,1c-0.2,0.2-0.5,0.3-0.9,0.4C177.8,176.2,177.4,176.2,177,176.2z M176.9,171.9
			c-0.3,0-0.5,0.1-0.6,0.3s-0.2,0.4-0.2,0.7l0,0h1.5v-0.1c0-0.3,0-0.5-0.1-0.6C177.3,171.9,177.2,171.9,176.9,171.9z"/>
		<path class="st4" d="M182.8,174.6c0-0.1-0.1-0.3-0.2-0.4c-0.2-0.1-0.4-0.2-0.8-0.3c-0.6-0.1-1.1-0.3-1.4-0.6
			c-0.3-0.3-0.5-0.6-0.5-1.1s0.2-0.9,0.6-1.2s0.9-0.5,1.6-0.5c0.7,0,1.3,0.2,1.7,0.5s0.6,0.7,0.6,1.3l0,0h-1.7
			c0-0.2-0.1-0.4-0.2-0.5c-0.1-0.1-0.3-0.2-0.5-0.2s-0.3,0-0.4,0.1c-0.1,0.1-0.2,0.2-0.2,0.4c0,0.1,0.1,0.3,0.2,0.4
			c0.1,0.1,0.4,0.2,0.8,0.3c0.7,0.1,1.2,0.3,1.5,0.6s0.5,0.6,0.5,1.1s-0.2,0.9-0.7,1.2c-0.4,0.3-1,0.5-1.7,0.5s-1.3-0.2-1.8-0.6
			c-0.4-0.4-0.6-0.8-0.6-1.3l0,0h1.5c0,0.3,0.1,0.4,0.2,0.6c0.1,0.1,0.4,0.2,0.6,0.2c0.2,0,0.4,0,0.5-0.1S182.8,174.7,182.8,174.6z"
			/>
		<path class="st4" d="M187.7,176.2c-0.8,0-1.5-0.2-1.9-0.7c-0.5-0.5-0.7-1.1-0.7-1.9v-0.2c0-0.8,0.2-1.5,0.7-2
			c0.4-0.5,1.1-0.8,1.9-0.8c0.7,0,1.3,0.2,1.7,0.7s0.6,1,0.6,1.8v0.9h-3.1l0,0c0,0.3,0.1,0.5,0.3,0.7s0.4,0.3,0.8,0.3
			c0.3,0,0.6,0,0.8-0.1s0.5-0.1,0.7-0.3l0.4,1c-0.2,0.2-0.5,0.3-0.9,0.4C188.5,176.2,188.1,176.2,187.7,176.2z M187.6,171.9
			c-0.3,0-0.5,0.1-0.6,0.3s-0.2,0.4-0.2,0.7l0,0h1.5v-0.1c0-0.3,0-0.5-0.1-0.6C188,171.9,187.8,171.9,187.6,171.9z"/>
		<path class="st4" d="M192.2,170.7l0.1,0.8c0.2-0.3,0.4-0.5,0.7-0.6c0.3-0.2,0.6-0.2,0.9-0.2c0.5,0,1,0.2,1.3,0.5
			c0.3,0.4,0.5,0.9,0.5,1.7v3.3H194v-3.3c0-0.3-0.1-0.6-0.2-0.7c-0.1-0.1-0.3-0.2-0.5-0.2s-0.3,0-0.5,0.1c-0.1,0.1-0.3,0.2-0.4,0.3
			v3.9h-1.7v-5.4h1.5V170.7z"/>
		<path class="st4" d="M198.4,173.9l0.1,0.6l0,0l0.1-0.6l0.7-3.2h1.8l-1.8,5.4h-1.7l-1.8-5.4h1.8L198.4,173.9z"/>
		<path class="st4" d="M201.4,173.3c0-0.8,0.2-1.5,0.7-2s1.1-0.8,1.9-0.8c0.8,0,1.5,0.3,1.9,0.8s0.7,1.2,0.7,2v0.1
			c0,0.8-0.2,1.5-0.7,2s-1.1,0.8-1.9,0.8c-0.8,0-1.5-0.3-1.9-0.8s-0.7-1.2-0.7-2V173.3z M203.1,173.4c0,0.5,0.1,0.8,0.2,1.1
			c0.1,0.3,0.4,0.4,0.7,0.4s0.6-0.1,0.7-0.4s0.2-0.6,0.2-1.1v-0.1c0-0.4-0.1-0.8-0.2-1.1s-0.4-0.4-0.7-0.4s-0.6,0.1-0.7,0.4
			c-0.1,0.3-0.2,0.6-0.2,1.1V173.4z"/>
		<path class="st4" d="M209.2,176.1h-1.7v-7.8h1.7V176.1z"/>
		<path class="st4" d="M212.3,173.9l0.1,0.6l0,0l0.1-0.6l0.7-3.2h1.8l-1.8,5.4h-1.7l-1.8-5.4h1.8L212.3,173.9z"/>
		<path class="st4" d="M217.3,169.4h-1.7v-1.1h1.7V169.4z M217.3,176.1h-1.7v-5.4h1.7V176.1z"/>
		<path class="st4" d="M220,170.7l0.1,0.7c0.2-0.3,0.4-0.5,0.6-0.6s0.6-0.2,0.9-0.2c0.3,0,0.6,0.1,0.9,0.2s0.4,0.4,0.6,0.7
			c0.2-0.3,0.4-0.5,0.6-0.7c0.3-0.2,0.6-0.2,0.9-0.2c0.5,0,0.9,0.2,1.2,0.6s0.5,1,0.5,1.8v3.2h-1.7V173c0-0.4-0.1-0.7-0.2-0.8
			c-0.1-0.1-0.3-0.2-0.5-0.2s-0.3,0-0.4,0.1c-0.1,0.1-0.2,0.1-0.3,0.2c0,0.1,0,0.1,0,0.1v0.1v3.6h-1.7v-3.2c0-0.4-0.1-0.7-0.2-0.8
			c-0.1-0.1-0.3-0.2-0.5-0.2s-0.3,0-0.4,0.1s-0.2,0.1-0.3,0.2v3.9h-1.7v-5.4L220,170.7L220,170.7z"/>
		<path class="st4" d="M229.7,176.2c-0.8,0-1.5-0.2-1.9-0.7c-0.5-0.5-0.7-1.1-0.7-1.9v-0.2c0-0.8,0.2-1.5,0.7-2
			c0.4-0.5,1.1-0.8,1.9-0.8c0.7,0,1.3,0.2,1.7,0.7s0.6,1,0.6,1.8v0.9h-3.1l0,0c0,0.3,0.1,0.5,0.3,0.7s0.4,0.3,0.8,0.3
			c0.3,0,0.6,0,0.8-0.1s0.5-0.1,0.7-0.3l0.4,1c-0.2,0.2-0.5,0.3-0.9,0.4C230.5,176.2,230.1,176.2,229.7,176.2z M229.6,171.9
			c-0.3,0-0.5,0.1-0.6,0.3s-0.2,0.4-0.2,0.7l0,0h1.5v-0.1c0-0.3,0-0.5-0.1-0.6C230,171.9,229.8,171.9,229.6,171.9z"/>
		<path class="st4" d="M234.2,170.7l0.1,0.8c0.2-0.3,0.4-0.5,0.7-0.6c0.3-0.2,0.6-0.2,0.9-0.2c0.5,0,0.9,0.2,1.2,0.5
			c0.3,0.4,0.5,0.9,0.5,1.7v3.3h-1.7v-3.3c0-0.3-0.1-0.6-0.2-0.7c-0.1-0.1-0.3-0.2-0.5-0.2s-0.3,0-0.5,0.1c-0.1,0.1-0.3,0.2-0.4,0.3
			v3.9h-1.7v-5.4h1.6V170.7z"/>
		<path class="st4" d="M240.4,169.3v1.4h0.9v1.2h-0.9v2.5c0,0.2,0,0.3,0.1,0.4c0.1,0.1,0.2,0.1,0.3,0.1s0.2,0,0.2,0s0.1,0,0.2,0
			l0.1,1.3c-0.2,0-0.3,0.1-0.5,0.1s-0.3,0-0.5,0c-0.6,0-1-0.1-1.3-0.4c-0.3-0.3-0.4-0.8-0.4-1.4V172h-0.8v-1.2h0.8v-1.4h1.8V169.3z"
			/>
		<path class="st4" d="M241.8,173.3c0-0.8,0.2-1.5,0.7-2s1.1-0.8,1.9-0.8c0.8,0,1.5,0.3,1.9,0.8s0.7,1.2,0.7,2v0.1
			c0,0.8-0.2,1.5-0.7,2s-1.1,0.8-1.9,0.8c-0.8,0-1.5-0.3-1.9-0.8s-0.7-1.2-0.7-2V173.3z M243.5,173.4c0,0.5,0.1,0.8,0.2,1.1
			s0.4,0.4,0.7,0.4s0.6-0.1,0.7-0.4c0.1-0.3,0.2-0.6,0.2-1.1v-0.1c0-0.4-0.1-0.8-0.2-1.1c-0.1-0.3-0.4-0.4-0.7-0.4s-0.6,0.1-0.7,0.4
			s-0.2,0.6-0.2,1.1V173.4z"/>
		<path class="st4" d="M250.2,173.4c0-0.8,0.2-1.5,0.6-2.1c0.4-0.5,0.9-0.8,1.6-0.8c0.3,0,0.5,0.1,0.7,0.2c0.2,0.1,0.4,0.3,0.5,0.5
			v-3h1.7v7.8h-1.5l-0.1-0.7c-0.2,0.2-0.4,0.4-0.6,0.6c-0.2,0.1-0.5,0.2-0.8,0.2c-0.7,0-1.2-0.2-1.6-0.7c-0.4-0.5-0.6-1.2-0.6-2l0,0
			H250.2z M251.9,173.5c0,0.4,0.1,0.8,0.2,1c0.1,0.2,0.3,0.4,0.7,0.4c0.2,0,0.3,0,0.5-0.1s0.2-0.2,0.3-0.3v-2.2
			c-0.1-0.1-0.2-0.3-0.3-0.3c-0.1-0.1-0.3-0.1-0.5-0.1c-0.3,0-0.5,0.1-0.7,0.4s-0.2,0.6-0.2,1.1V173.5z"/>
		<path class="st4" d="M256,173.3c0-0.8,0.2-1.5,0.7-2s1.1-0.8,1.9-0.8s1.5,0.3,1.9,0.8s0.7,1.2,0.7,2v0.1c0,0.8-0.2,1.5-0.7,2
			s-1.1,0.8-1.9,0.8s-1.5-0.3-1.9-0.8s-0.7-1.2-0.7-2V173.3z M257.7,173.4c0,0.5,0.1,0.8,0.2,1.1s0.4,0.4,0.7,0.4
			c0.3,0,0.6-0.1,0.7-0.4c0.1-0.3,0.2-0.6,0.2-1.1v-0.1c0-0.4-0.1-0.8-0.2-1.1s-0.4-0.4-0.7-0.4c-0.3,0-0.6,0.1-0.7,0.4
			s-0.2,0.6-0.2,1.1V173.4z"/>
	</g>
	<g>
		<path class="st4" d="M159.6,201.9V181h6.9c2.6,0,4.6,0.5,6.1,1.4c1.5,1,2.2,2.4,2.2,4.3c0,1-0.2,1.9-0.7,2.6
			c-0.5,0.8-1.2,1.4-2.2,1.7c1.2,0.3,2.2,0.8,2.8,1.7c0.6,0.8,0.9,1.8,0.9,2.9c0,2-0.7,3.6-2.1,4.6s-3.3,1.6-5.9,1.6L159.6,201.9
			L159.6,201.9z M164.4,189.7h1.9c1.2,0,2-0.2,2.6-0.6c0.6-0.4,0.9-1,0.9-1.8c0-0.9-0.3-1.5-0.8-1.9c-0.6-0.4-1.4-0.6-2.6-0.6h-2
			L164.4,189.7L164.4,189.7z M164.4,192.9v5.2h3.1c1,0,1.8-0.2,2.3-0.6c0.5-0.4,0.8-1,0.8-1.9s-0.2-1.6-0.7-2
			c-0.5-0.5-1.2-0.7-2.2-0.7h-0.2H164.4z"/>
		<path class="st4" d="M187.4,199.6c-0.5,0.8-1.1,1.5-1.8,1.9c-0.7,0.5-1.6,0.7-2.5,0.7c-1.6,0-2.9-0.6-3.8-1.7
			c-0.9-1.1-1.4-2.9-1.4-5.2v-8.9h4.8v8.9c0,1.2,0.2,2,0.5,2.5s0.8,0.7,1.4,0.7c0.5,0,1-0.1,1.4-0.2c0.4-0.1,0.7-0.4,1-0.6v-11.2
			h4.9V202H188L187.4,199.6z"/>
		<path class="st4" d="M203.2,190.5h-1.6c-0.6,0-1,0.1-1.4,0.3s-0.6,0.5-0.8,0.9v10.2h-4.9v-15.5h4.6l0.2,2.3
			c0.3-0.8,0.8-1.4,1.3-1.9s1.2-0.7,1.9-0.7c0.2,0,0.4,0,0.6,0c0.2,0,0.4,0.1,0.5,0.1L203.2,190.5z"/>
		<path class="st4" d="M209.4,186.4l0.2,2.2c0.5-0.8,1.1-1.4,1.9-1.8s1.6-0.7,2.5-0.7c1.5,0,2.7,0.5,3.6,1.6c0.9,1,1.3,2.7,1.3,4.9
			v9.3H214v-9.4c0-1-0.2-1.7-0.5-2.1c-0.3-0.4-0.8-0.6-1.4-0.6c-0.5,0-1,0.1-1.4,0.3s-0.8,0.4-1,0.8v11h-4.8v-15.5H209.4z"/>
		<path class="st4" d="M220.8,194c0-2.3,0.7-4.2,2-5.7s3.2-2.2,5.5-2.2c2.4,0,4.2,0.7,5.5,2.2s2,3.4,2,5.7v0.3c0,2.3-0.7,4.3-2,5.7
			s-3.2,2.2-5.5,2.2c-2.4,0-4.2-0.7-5.6-2.2s-2-3.4-2-5.7V194H220.8z M225.7,194.3c0,1.3,0.2,2.3,0.6,3.1c0.4,0.7,1.1,1.1,2.1,1.1
			c0.9,0,1.6-0.4,2-1.1c0.4-0.7,0.6-1.8,0.6-3.1V194c0-1.3-0.2-2.3-0.6-3c-0.4-0.8-1.1-1.1-2.1-1.1s-1.6,0.4-2,1.1
			c-0.4,0.8-0.6,1.8-0.6,3V194.3z"/>
		<path class="st4" d="M247.4,199.6c-0.5,0.8-1.1,1.5-1.8,1.9c-0.7,0.5-1.6,0.7-2.5,0.7c-1.6,0-2.9-0.6-3.8-1.7
			c-0.9-1.1-1.4-2.9-1.4-5.2v-8.9h4.8v8.9c0,1.2,0.2,2,0.5,2.5s0.8,0.7,1.4,0.7c0.5,0,1-0.1,1.4-0.2s0.7-0.4,1-0.6v-11.2h4.9V202
			H248L247.4,199.6z"/>
		<path class="st4" d="M260.1,182.5v3.9h2.5v3.4h-2.5v7.1c0,0.6,0.1,1,0.3,1.2c0.2,0.2,0.5,0.4,0.9,0.4c0.2,0,0.4,0,0.6,0
			s0.3-0.1,0.6-0.1l0.3,3.6c-0.5,0.1-0.9,0.2-1.3,0.3s-0.9,0.1-1.4,0.1c-1.6,0-2.8-0.4-3.6-1.3c-0.8-0.9-1.2-2.2-1.2-4v-7.2h-2.2
			v-3.4h2.2v-3.9h4.8V182.5z"/>
	</g>
</g>
<g>
	<path class="st5" d="M34.9,147.4h-2.1l-0.4,1.4h-1.8l2.4-7.2h0.9l0,0l0,0h0.9l2.4,7.2h-1.8L34.9,147.4z M33.1,146.1h1.4l-0.7-2.2
		l0,0L33.1,146.1z"/>
	<path class="st5" d="M39.8,146.1c0-0.8,0.2-1.5,0.7-2s1.1-0.8,1.9-0.8c0.8,0,1.5,0.3,1.9,0.8s0.7,1.2,0.7,2v0.1
		c0,0.8-0.2,1.5-0.7,2s-1.1,0.8-1.9,0.8c-0.8,0-1.5-0.3-1.9-0.8c-0.5-0.5-0.7-1.2-0.7-2V146.1z M41.5,146.2c0,0.5,0.1,0.8,0.2,1.1
		c0.1,0.3,0.4,0.4,0.7,0.4s0.6-0.1,0.7-0.4s0.2-0.6,0.2-1.1v-0.1c0-0.4-0.1-0.8-0.2-1c-0.1-0.3-0.4-0.4-0.7-0.4s-0.6,0.1-0.7,0.4
		s-0.2,0.6-0.2,1V146.2z"/>
	<path class="st5" d="M48.7,144.9h-0.5c-0.2,0-0.3,0-0.5,0.1c-0.1,0.1-0.2,0.2-0.3,0.3v3.5h-1.7v-5.4h1.6l0.1,0.8
		c0.1-0.3,0.3-0.5,0.4-0.7s0.4-0.2,0.6-0.2c0.1,0,0.1,0,0.2,0c0.1,0,0.1,0,0.2,0L48.7,144.9z"/>
	<path class="st5" d="M49,146.1c0-0.8,0.2-1.5,0.5-2s0.9-0.8,1.5-0.8c0.3,0,0.5,0.1,0.7,0.2c0.2,0.1,0.4,0.3,0.6,0.6l0.1-0.7H54v5.3
		c0,0.7-0.2,1.3-0.7,1.6c-0.5,0.4-1.2,0.6-2,0.6c-0.3,0-0.6,0-0.9-0.1c-0.3-0.1-0.6-0.2-0.9-0.3l0.3-1.2c0.2,0.1,0.5,0.2,0.7,0.2
		c0.2,0.1,0.5,0.1,0.8,0.1c0.4,0,0.6-0.1,0.8-0.2s0.3-0.4,0.3-0.7v-0.4c-0.2,0.2-0.3,0.3-0.5,0.4c-0.2,0.1-0.4,0.1-0.7,0.1
		c-0.7,0-1.2-0.2-1.5-0.7c-0.4-0.5-0.5-1.1-0.5-1.9v-0.1H49z M50.7,146.2c0,0.4,0.1,0.8,0.2,1s0.3,0.4,0.6,0.4c0.2,0,0.3,0,0.5-0.1
		c0.1-0.1,0.2-0.1,0.3-0.3V145c-0.1-0.1-0.2-0.2-0.3-0.3s-0.3-0.1-0.5-0.1c-0.3,0-0.5,0.1-0.6,0.4c-0.1,0.3-0.2,0.6-0.2,1.1V146.2z"
		/>
	<path class="st5" d="M58,148.8c-0.1-0.1-0.1-0.2-0.2-0.4c0-0.1-0.1-0.3-0.1-0.4c-0.1,0.3-0.3,0.5-0.5,0.7s-0.5,0.3-0.8,0.3
		c-0.6,0-1-0.1-1.3-0.4c-0.3-0.3-0.5-0.7-0.5-1.2s0.2-0.9,0.6-1.2c0.4-0.3,1-0.4,1.8-0.4h0.7v-0.4c0-0.2-0.1-0.4-0.2-0.5
		s-0.3-0.2-0.5-0.2s-0.3,0-0.4,0.1c-0.1,0.1-0.1,0.2-0.1,0.4h-1.6l0,0c0-0.5,0.2-0.9,0.6-1.2s1-0.5,1.7-0.5s1.2,0.2,1.6,0.5
		c0.4,0.3,0.6,0.8,0.6,1.4v2c0,0.3,0,0.5,0.1,0.8c0,0.2,0.1,0.5,0.2,0.7L58,148.8z M56.9,147.7c0.2,0,0.4,0,0.5-0.1
		c0.2-0.1,0.3-0.2,0.3-0.3v-0.7H57c-0.3,0-0.5,0.1-0.6,0.2s-0.2,0.3-0.2,0.5s0.1,0.3,0.2,0.4C56.6,147.7,56.7,147.7,56.9,147.7z"/>
	<path class="st5" d="M61.9,143.4l0.1,0.8c0.2-0.3,0.4-0.5,0.7-0.6c0.3-0.2,0.5-0.2,0.9-0.2c0.5,0,0.9,0.2,1.2,0.5
		c0.3,0.4,0.4,0.9,0.4,1.7v3.2h-1.7v-3.2c0-0.3-0.1-0.6-0.2-0.7c-0.1-0.1-0.3-0.2-0.5-0.2s-0.3,0-0.5,0.1c-0.1,0.1-0.3,0.2-0.4,0.3
		v3.8h-1.7v-5.4h1.7V143.4z"/>
	<path class="st5" d="M67.8,142.2h-1.7v-1.1h1.7V142.2z M67.8,148.8h-1.7v-5.4h1.7V148.8z"/>
	<path class="st5" d="M70.8,147.5h2.4v1.3h-4.6v-0.9l2.4-3.1h-2.3v-1.3h4.4v0.9L70.8,147.5z"/>
	<path class="st5" d="M77.1,148.8c-0.1-0.1-0.1-0.2-0.2-0.4c0-0.1-0.1-0.3-0.1-0.4c-0.1,0.3-0.3,0.5-0.5,0.7s-0.5,0.3-0.8,0.3
		c-0.6,0-1-0.1-1.3-0.4c-0.3-0.3-0.5-0.7-0.5-1.2s0.2-0.9,0.6-1.2s1-0.4,1.8-0.4h0.7v-0.4c0-0.2-0.1-0.4-0.2-0.5s-0.3-0.2-0.5-0.2
		s-0.3,0-0.4,0.1s-0.1,0.2-0.1,0.4H74l0,0c0-0.5,0.2-0.9,0.6-1.2s1-0.5,1.7-0.5s1.2,0.2,1.6,0.5s0.6,0.8,0.6,1.4v2
		c0,0.3,0,0.5,0.1,0.8c0,0.2,0.1,0.5,0.2,0.7L77.1,148.8z M76,147.7c0.2,0,0.4,0,0.5-0.1c0.2-0.1,0.3-0.2,0.3-0.3v-0.7h-0.7
		c-0.3,0-0.5,0.1-0.6,0.2s-0.2,0.3-0.2,0.5s0.1,0.3,0.2,0.4C75.7,147.7,75.8,147.7,76,147.7z"/>
	<path class="st5" d="M81.7,147.6c0.2,0,0.4-0.1,0.5-0.2c0.1-0.1,0.2-0.3,0.2-0.5h1.5l0,0c0,0.6-0.2,1.1-0.6,1.4s-1,0.6-1.6,0.6
		c-0.8,0-1.4-0.3-1.9-0.8c-0.4-0.5-0.7-1.2-0.7-2V146c0-0.8,0.2-1.5,0.7-2c0.4-0.5,1.1-0.8,1.9-0.8c0.7,0,1.2,0.2,1.6,0.6
		c0.4,0.4,0.6,0.9,0.6,1.6l0,0h-1.5c0-0.3-0.1-0.5-0.2-0.6c-0.1-0.2-0.3-0.2-0.5-0.2c-0.3,0-0.6,0.1-0.7,0.4c-0.1,0.3-0.2,0.6-0.2,1
		v0.1c0,0.5,0.1,0.8,0.2,1.1C81.2,147.5,81.4,147.6,81.7,147.6z M82.4,148.8v0.3c0.2,0,0.4,0.1,0.5,0.3s0.2,0.3,0.2,0.6
		c0,0.4-0.2,0.7-0.5,0.9s-0.8,0.3-1.4,0.3v-0.9c0.1,0,0.2,0,0.3-0.1c0.1-0.1,0.1-0.2,0.1-0.3s-0.1-0.2-0.2-0.3s-0.3-0.1-0.5-0.1
		l0.2-0.7H82.4z"/>
	<path class="st5" d="M87.7,148.8c-0.1-0.1-0.1-0.2-0.2-0.4c0-0.1-0.1-0.3-0.1-0.4c-0.1,0.3-0.3,0.5-0.5,0.7s-0.5,0.3-0.8,0.3
		c-0.6,0-1-0.1-1.3-0.4c-0.3-0.3-0.5-0.7-0.5-1.2s0.2-0.9,0.6-1.2s1-0.4,1.8-0.4h0.7v-0.4c0-0.2-0.1-0.4-0.2-0.5s-0.3-0.2-0.5-0.2
		s-0.3,0-0.4,0.1s-0.1,0.2-0.1,0.4h-1.6l0,0c0-0.5,0.2-0.9,0.6-1.2s1-0.5,1.7-0.5s1.2,0.2,1.6,0.5s0.6,0.8,0.6,1.4v2
		c0,0.3,0,0.5,0.1,0.8c0,0.2,0.1,0.5,0.2,0.7L87.7,148.8z M88.8,141.2c0,0.3-0.1,0.6-0.3,0.8c-0.2,0.2-0.4,0.3-0.7,0.3
		c-0.2,0-0.5-0.1-0.8-0.2c-0.3-0.1-0.6-0.2-0.7-0.2s-0.2,0.1-0.3,0.2s-0.1,0.2-0.1,0.4l-0.9-0.2c0-0.3,0.1-0.6,0.3-0.8
		c0.2-0.2,0.4-0.3,0.7-0.3c0.2,0,0.4,0.1,0.8,0.2c0.3,0.1,0.6,0.2,0.8,0.2c0.1,0,0.2-0.1,0.3-0.2c0.1-0.1,0.1-0.2,0.1-0.4
		L88.8,141.2z M86.6,147.7c0.2,0,0.4,0,0.5-0.1c0.2-0.1,0.3-0.2,0.3-0.3v-0.7h-0.7c-0.3,0-0.5,0.1-0.6,0.2S86,147,86,147.2
		s0.1,0.3,0.2,0.4C86.3,147.7,86.4,147.7,86.6,147.7z"/>
	<path class="st5" d="M89.8,146.1c0-0.8,0.2-1.5,0.7-2s1.1-0.8,1.9-0.8s1.5,0.3,1.9,0.8s0.7,1.2,0.7,2v0.1c0,0.8-0.2,1.5-0.7,2
		s-1.1,0.8-1.9,0.8s-1.5-0.3-1.9-0.8c-0.5-0.5-0.7-1.2-0.7-2V146.1z M91.5,146.2c0,0.5,0.1,0.8,0.2,1.1s0.4,0.4,0.7,0.4
		c0.3,0,0.6-0.1,0.7-0.4s0.2-0.6,0.2-1.1v-0.1c0-0.4-0.1-0.8-0.2-1c-0.1-0.3-0.4-0.4-0.7-0.4c-0.3,0-0.6,0.1-0.7,0.4s-0.2,0.6-0.2,1
		V146.2z"/>
</g>
<g>
	<path class="st5" d="M123.8,61.2c0,0.9-0.3,1.6-0.8,2.2c-0.6,0.6-1.3,0.9-2.2,0.9c-0.9,0-1.7-0.3-2.2-0.9c-0.6-0.6-0.9-1.3-0.9-2.2
		v-1.3c0-0.9,0.3-1.6,0.9-2.2s1.3-0.9,2.2-0.9c0.9,0,1.6,0.3,2.2,0.9s0.9,1.3,0.9,2.2L123.8,61.2L123.8,61.2z M122.1,59.9
		c0-0.5-0.1-0.9-0.4-1.3s-0.6-0.5-1-0.5c-0.5,0-0.8,0.2-1,0.5s-0.4,0.8-0.4,1.3v1.3c0,0.5,0.1,1,0.4,1.3c0.2,0.3,0.6,0.5,1,0.5
		s0.8-0.2,1-0.5s0.4-0.8,0.4-1.3V59.9z"/>
	<path class="st5" d="M129,57.6h-1.7v-1.1h1.7V57.6z M129,64.2h-1.7v-5.4h1.7V64.2z"/>
	<path class="st5" d="M131.6,58.8l0.1,0.8c0.2-0.3,0.4-0.5,0.7-0.6c0.3-0.2,0.5-0.2,0.9-0.2c0.5,0,0.9,0.2,1.2,0.5
		c0.3,0.4,0.4,0.9,0.4,1.7v3.2h-1.7V61c0-0.3-0.1-0.6-0.2-0.7c-0.1-0.1-0.3-0.2-0.5-0.2s-0.3,0-0.5,0.1c-0.1,0.1-0.3,0.2-0.4,0.3
		v3.8H130v-5.4L131.6,58.8L131.6,58.8z"/>
	<path class="st5" d="M135.5,61.5c0-0.8,0.2-1.5,0.5-2c0.4-0.5,0.9-0.8,1.5-0.8c0.2,0,0.5,0.1,0.7,0.2c0.2,0.1,0.4,0.3,0.5,0.5v-2.9
		h1.7v7.7h-1.5l-0.1-0.7c-0.2,0.2-0.4,0.4-0.6,0.6c-0.2,0.1-0.5,0.2-0.7,0.2c-0.7,0-1.2-0.2-1.5-0.7c-0.4-0.5-0.5-1.1-0.5-1.9
		L135.5,61.5L135.5,61.5z M137.2,61.6c0,0.4,0.1,0.8,0.2,1c0.1,0.2,0.3,0.4,0.6,0.4c0.2,0,0.3,0,0.5-0.1c0.1-0.1,0.2-0.2,0.3-0.3
		v-2.2c-0.1-0.1-0.2-0.3-0.3-0.3S138.2,60,138,60c-0.3,0-0.5,0.1-0.6,0.4S137.2,61,137.2,61.6L137.2,61.6z"/>
	<path class="st5" d="M143.2,57.6h-1.7v-1.1h1.7V57.6z M143.2,64.2h-1.7v-5.4h1.7V64.2z"/>
	<path class="st5" d="M146.3,62l0.1,0.6l0,0l0.1-0.6l0.7-3.2h1.8l-1.7,5.4h-1.7l-1.7-5.4h1.8L146.3,62z"/>
	<path class="st5" d="M151.3,64.2h-1.7v-5.4h1.7V64.2z M150.7,56.7h1.8l0,0l-1.4,1.3h-1.5L150.7,56.7z"/>
	<path class="st5" d="M152.2,61.5c0-0.8,0.2-1.5,0.5-2c0.4-0.5,0.9-0.8,1.5-0.8c0.2,0,0.5,0.1,0.7,0.2c0.2,0.1,0.4,0.3,0.5,0.5v-2.9
		h1.7v7.7h-1.5l-0.1-0.7c-0.2,0.2-0.4,0.4-0.6,0.6c-0.2,0.1-0.5,0.2-0.7,0.2c-0.7,0-1.2-0.2-1.5-0.7c-0.4-0.5-0.5-1.1-0.5-1.9
		L152.2,61.5L152.2,61.5z M153.8,61.6c0,0.4,0.1,0.8,0.2,1c0.1,0.2,0.3,0.4,0.6,0.4c0.2,0,0.3,0,0.5-0.1c0.1-0.1,0.2-0.2,0.3-0.3
		v-2.2c-0.1-0.1-0.2-0.3-0.3-0.3s-0.3-0.1-0.5-0.1c-0.3,0-0.5,0.1-0.6,0.4S153.8,61,153.8,61.6L153.8,61.6z"/>
	<path class="st5" d="M161.3,63.4c-0.2,0.3-0.4,0.5-0.6,0.7c-0.3,0.2-0.5,0.2-0.9,0.2c-0.6,0-1-0.2-1.3-0.6s-0.5-1-0.5-1.8v-3.1h1.7
		v3.1c0,0.4,0.1,0.7,0.2,0.9c0.1,0.2,0.3,0.2,0.5,0.2s0.3,0,0.5-0.1s0.3-0.1,0.3-0.2v-3.9h1.7v5.4h-1.3L161.3,63.4z"/>
	<path class="st5" d="M163.6,61.5c0-0.8,0.2-1.5,0.7-2s1.1-0.8,1.9-0.8c0.8,0,1.5,0.3,1.9,0.8s0.7,1.2,0.7,2v0.1
		c0,0.8-0.2,1.5-0.7,2s-1.1,0.8-1.9,0.8c-0.8,0-1.5-0.3-1.9-0.8c-0.5-0.5-0.7-1.2-0.7-2V61.5z M165.3,61.6c0,0.5,0.1,0.8,0.2,1.1
		c0.1,0.3,0.4,0.4,0.7,0.4s0.6-0.1,0.7-0.4s0.2-0.6,0.2-1.1v-0.1c0-0.4-0.1-0.8-0.2-1c-0.1-0.3-0.4-0.4-0.7-0.4s-0.6,0.1-0.7,0.4
		S165.3,61.1,165.3,61.6L165.3,61.6z"/>
</g>
<g>
	<path class="st5" d="M259.8,61.2c0,0.9-0.3,1.6-0.8,2.2c-0.6,0.6-1.3,0.9-2.2,0.9c-0.9,0-1.7-0.3-2.2-0.9c-0.6-0.6-0.9-1.3-0.9-2.2
		v-1.3c0-0.9,0.3-1.6,0.9-2.2s1.3-0.9,2.2-0.9s1.6,0.3,2.2,0.9c0.6,0.6,0.9,1.3,0.9,2.2v1.3H259.8z M258.1,59.9
		c0-0.5-0.1-0.9-0.4-1.3s-0.6-0.5-1-0.5c-0.5,0-0.8,0.2-1,0.5s-0.4,0.8-0.4,1.3v1.3c0,0.5,0.1,1,0.4,1.3c0.2,0.3,0.6,0.5,1,0.5
		s0.8-0.2,1-0.5s0.4-0.8,0.4-1.3V59.9z"/>
	<path class="st5" d="M265.2,57.5v1.3h0.8V60h-0.8v2.5c0,0.2,0,0.3,0.1,0.4c0.1,0.1,0.2,0.1,0.3,0.1c0.1,0,0.2,0,0.2,0
		c0.1,0,0.1,0,0.2,0l0.1,1.2c-0.2,0-0.3,0.1-0.5,0.1c-0.1,0-0.3,0-0.5,0c-0.6,0-1-0.1-1.3-0.4c-0.3-0.3-0.4-0.8-0.4-1.4V60h-0.8
		v-1.2h0.8v-1.3H265.2z"/>
	<path class="st5" d="M269.8,60.3h-0.5c-0.2,0-0.3,0-0.5,0.1c-0.1,0.1-0.2,0.2-0.3,0.3v3.5h-1.7v-5.4h1.6l0.1,0.8
		c0.1-0.3,0.3-0.5,0.4-0.7c0.2-0.2,0.4-0.2,0.7-0.2c0.1,0,0.1,0,0.2,0s0.1,0,0.2,0L269.8,60.3z"/>
	<path class="st5" d="M273.5,64.2c-0.1-0.1-0.1-0.2-0.2-0.4c0-0.1-0.1-0.3-0.1-0.4c-0.1,0.3-0.3,0.5-0.5,0.7s-0.5,0.3-0.8,0.3
		c-0.6,0-1-0.1-1.3-0.4c-0.3-0.3-0.5-0.7-0.5-1.2s0.2-0.9,0.6-1.2s1-0.4,1.8-0.4h0.7v-0.4c0-0.2-0.1-0.4-0.2-0.5s-0.3-0.2-0.5-0.2
		s-0.3,0-0.4,0.1s-0.1,0.2-0.1,0.4h-1.6l0,0c0-0.5,0.2-0.9,0.6-1.2s1-0.5,1.7-0.5s1.2,0.2,1.6,0.5s0.6,0.8,0.6,1.4v2
		c0,0.3,0,0.5,0.1,0.8s0.1,0.5,0.2,0.7L273.5,64.2z M272.4,63.1c0.2,0,0.4,0,0.5-0.1s0.3-0.2,0.3-0.3V62h-0.7
		c-0.3,0-0.5,0.1-0.6,0.2s-0.2,0.3-0.2,0.5s0.1,0.3,0.2,0.4C272.1,63.1,272.2,63.1,272.4,63.1z"/>
	<path class="st5" d="M280.8,61.6c0,0.8-0.2,1.5-0.5,2c-0.4,0.5-0.9,0.7-1.6,0.7c-0.3,0-0.5-0.1-0.8-0.2c-0.2-0.1-0.4-0.3-0.6-0.5
		l-0.1,0.6h-1.5v-7.7h1.7v2.9c0.1-0.2,0.3-0.4,0.5-0.5s0.4-0.2,0.7-0.2c0.7,0,1.2,0.3,1.6,0.8s0.5,1.2,0.5,2L280.8,61.6L280.8,61.6z
		 M279.1,61.5c0-0.5-0.1-0.8-0.2-1.1s-0.3-0.4-0.7-0.4c-0.2,0-0.3,0-0.5,0.1c-0.1,0.1-0.2,0.2-0.3,0.3v2.3c0.1,0.1,0.2,0.2,0.3,0.3
		c0.1,0.1,0.3,0.1,0.5,0.1c0.3,0,0.6-0.1,0.7-0.3s0.2-0.6,0.2-1V61.5z"/>
	<path class="st5" d="M284.6,64.2c-0.1-0.1-0.1-0.2-0.2-0.4c0-0.1-0.1-0.3-0.1-0.4c-0.1,0.3-0.3,0.5-0.5,0.7s-0.5,0.3-0.8,0.3
		c-0.6,0-1-0.1-1.3-0.4c-0.3-0.3-0.5-0.7-0.5-1.2s0.2-0.9,0.6-1.2s1-0.4,1.8-0.4h0.7v-0.4c0-0.2-0.1-0.4-0.2-0.5s-0.3-0.2-0.5-0.2
		s-0.3,0-0.4,0.1s-0.1,0.2-0.1,0.4h-1.6l0,0c0-0.5,0.2-0.9,0.6-1.2s1-0.5,1.7-0.5s1.2,0.2,1.6,0.5s0.6,0.8,0.6,1.4v2
		c0,0.3,0,0.5,0.1,0.8s0.1,0.5,0.2,0.7L284.6,64.2z M283.5,63.1c0.2,0,0.4,0,0.5-0.1s0.3-0.2,0.3-0.3V62h-0.7
		c-0.3,0-0.5,0.1-0.6,0.2s-0.2,0.3-0.2,0.5s0.1,0.3,0.2,0.4C283.2,63.1,283.3,63.1,283.5,63.1z"/>
	<path class="st5" d="M288.7,64.2H287v-7.7h1.7V64.2z"/>
	<path class="st5" d="M291.3,59.5c0.2-0.2,0.4-0.4,0.6-0.6c0.2-0.1,0.5-0.2,0.8-0.2c0.6,0,1,0.2,1.3,0.6c0.3,0.4,0.5,1,0.5,1.8v3.1
		h-1.7v-3.1c0-0.4-0.1-0.7-0.2-0.8c-0.1-0.2-0.3-0.2-0.5-0.2s-0.4,0-0.5,0.1s-0.3,0.1-0.3,0.2v3.9h-1.7v-7.7h1.7L291.3,59.5
		L291.3,59.5z"/>
	<path class="st5" d="M295.2,61.5c0-0.8,0.2-1.5,0.7-2s1.1-0.8,1.9-0.8s1.5,0.3,1.9,0.8c0.5,0.5,0.7,1.2,0.7,2v0.1
		c0,0.8-0.2,1.5-0.7,2s-1.1,0.8-1.9,0.8s-1.5-0.3-1.9-0.8c-0.5-0.5-0.7-1.2-0.7-2V61.5z M296.9,61.6c0,0.5,0.1,0.8,0.2,1.1
		s0.4,0.4,0.7,0.4c0.3,0,0.6-0.1,0.7-0.4c0.1-0.3,0.2-0.6,0.2-1.1v-0.1c0-0.4-0.1-0.8-0.2-1c-0.1-0.3-0.4-0.4-0.7-0.4
		c-0.3,0-0.6,0.1-0.7,0.4S296.9,61.1,296.9,61.6L296.9,61.6z"/>
</g>
<g>
	<path class="st5" d="M335.1,147.4H333l-0.4,1.4h-1.8l2.4-7.2h0.9l0,0l0,0h0.9l2.4,7.2h-1.8L335.1,147.4z M333.3,146.1h1.4l-0.7-2.2
		l0,0L333.3,146.1z"/>
	<path class="st5" d="M343,147.3c0-0.1-0.1-0.2-0.2-0.4s-0.4-0.2-0.8-0.3c-0.6-0.1-1.1-0.3-1.4-0.6s-0.5-0.6-0.5-1.1
		s0.2-0.9,0.6-1.2s0.9-0.5,1.6-0.5s1.3,0.2,1.7,0.5c0.4,0.3,0.6,0.7,0.6,1.2l0,0H343c0-0.2-0.1-0.4-0.2-0.5s-0.3-0.2-0.5-0.2
		s-0.3,0-0.4,0.1s-0.2,0.2-0.2,0.4c0,0.1,0.1,0.3,0.2,0.4c0.1,0.1,0.4,0.2,0.8,0.3c0.7,0.1,1.1,0.3,1.5,0.6c0.3,0.3,0.5,0.6,0.5,1.1
		s-0.2,0.9-0.6,1.2s-1,0.5-1.7,0.5s-1.3-0.2-1.7-0.6c-0.4-0.4-0.6-0.8-0.6-1.2l0,0h1.5c0,0.3,0.1,0.4,0.2,0.6
		c0.1,0.1,0.4,0.2,0.6,0.2s0.4,0,0.5-0.1C343,147.6,343,147.5,343,147.3z"/>
	<path class="st5" d="M345.2,146.1c0-0.8,0.2-1.5,0.7-2s1.1-0.8,1.9-0.8s1.5,0.3,1.9,0.8c0.5,0.5,0.7,1.2,0.7,2v0.1
		c0,0.8-0.2,1.5-0.7,2s-1.1,0.8-1.9,0.8s-1.5-0.3-1.9-0.8c-0.5-0.5-0.7-1.2-0.7-2V146.1z M346.9,146.2c0,0.5,0.1,0.8,0.2,1.1
		s0.4,0.4,0.7,0.4c0.3,0,0.6-0.1,0.7-0.4c0.1-0.3,0.2-0.6,0.2-1.1v-0.1c0-0.4-0.1-0.8-0.2-1c-0.1-0.3-0.4-0.4-0.7-0.4
		c-0.3,0-0.6,0.1-0.7,0.4s-0.2,0.6-0.2,1V146.2z"/>
	<path class="st5" d="M353.4,147.6c0.2,0,0.4-0.1,0.5-0.2c0.1-0.1,0.2-0.3,0.2-0.5h1.5l0,0c0,0.6-0.2,1.1-0.6,1.4
		c-0.4,0.4-1,0.6-1.6,0.6c-0.8,0-1.4-0.3-1.9-0.8c-0.4-0.5-0.7-1.2-0.7-2V146c0-0.8,0.2-1.5,0.7-2c0.4-0.5,1.1-0.8,1.9-0.8
		c0.7,0,1.2,0.2,1.6,0.6c0.4,0.4,0.6,0.9,0.6,1.6l0,0h-1.5c0-0.3-0.1-0.5-0.2-0.6c-0.1-0.2-0.3-0.2-0.5-0.2c-0.3,0-0.5,0.1-0.7,0.4
		c-0.1,0.3-0.2,0.6-0.2,1v0.1c0,0.5,0.1,0.8,0.2,1.1C352.9,147.5,353.1,147.6,353.4,147.6z"/>
	<path class="st5" d="M358.1,142.2h-1.7v-1.1h1.7V142.2z M358.1,148.8h-1.7v-5.4h1.7V148.8z"/>
	<path class="st5" d="M361.5,148.9c-0.8,0-1.5-0.2-1.9-0.7c-0.5-0.5-0.7-1.1-0.7-1.9v-0.2c0-0.8,0.2-1.5,0.7-2
		c0.4-0.5,1.1-0.8,1.9-0.8c0.7,0,1.3,0.2,1.7,0.7c0.4,0.4,0.6,1,0.6,1.8v0.9h-3.1l0,0c0,0.3,0.1,0.5,0.3,0.7
		c0.2,0.2,0.4,0.3,0.8,0.3c0.3,0,0.6,0,0.8-0.1c0.2-0.1,0.5-0.1,0.7-0.3l0.4,1c-0.2,0.2-0.5,0.3-0.9,0.4
		C362.3,148.8,361.9,148.9,361.5,148.9z M361.4,144.6c-0.3,0-0.5,0.1-0.6,0.3s-0.2,0.4-0.2,0.7l0,0h1.4v-0.1c0-0.3,0-0.5-0.1-0.6
		S361.7,144.6,361.4,144.6z"/>
	<path class="st5" d="M364.2,146.1c0-0.8,0.2-1.5,0.5-2c0.4-0.5,0.9-0.8,1.5-0.8c0.2,0,0.5,0.1,0.7,0.2c0.2,0.1,0.4,0.3,0.5,0.5
		v-2.9h1.7v7.7h-1.5l-0.1-0.7c-0.2,0.2-0.4,0.4-0.6,0.6s-0.5,0.2-0.7,0.2c-0.7,0-1.2-0.2-1.5-0.7c-0.4-0.5-0.5-1.1-0.5-1.9V146.1z
		 M365.9,146.2c0,0.4,0.1,0.8,0.2,1s0.3,0.4,0.6,0.4c0.2,0,0.3,0,0.5-0.1c0.1-0.1,0.2-0.2,0.3-0.3V145c-0.1-0.1-0.2-0.3-0.3-0.3
		c-0.1-0.1-0.3-0.1-0.5-0.1c-0.3,0-0.5,0.1-0.6,0.4c-0.1,0.3-0.2,0.6-0.2,1.1V146.2z"/>
	<path class="st5" d="M373.2,148.8c-0.1-0.1-0.1-0.2-0.2-0.4c0-0.1-0.1-0.3-0.1-0.4c-0.1,0.3-0.3,0.5-0.5,0.7s-0.5,0.3-0.8,0.3
		c-0.6,0-1-0.1-1.3-0.4c-0.3-0.3-0.5-0.7-0.5-1.2s0.2-0.9,0.6-1.2s1-0.4,1.8-0.4h0.7v-0.4c0-0.2-0.1-0.4-0.2-0.5s-0.3-0.2-0.5-0.2
		s-0.3,0-0.4,0.1s-0.1,0.2-0.1,0.4h-1.6l0,0c0-0.5,0.2-0.9,0.6-1.2s1-0.5,1.7-0.5s1.2,0.2,1.6,0.5s0.6,0.8,0.6,1.4v2
		c0,0.3,0,0.5,0.1,0.8c0,0.2,0.1,0.5,0.2,0.7L373.2,148.8z M372.1,147.7c0.2,0,0.4,0,0.5-0.1c0.2-0.1,0.3-0.2,0.3-0.3v-0.7h-0.7
		c-0.3,0-0.5,0.1-0.6,0.2s-0.2,0.3-0.2,0.5s0.1,0.3,0.2,0.4C371.8,147.7,371.9,147.7,372.1,147.7z"/>
	<path class="st5" d="M375.3,146.1c0-0.8,0.2-1.5,0.5-2s0.9-0.8,1.5-0.8c0.2,0,0.5,0.1,0.7,0.2c0.2,0.1,0.4,0.3,0.5,0.5v-2.9h1.7
		v7.7h-1.5l-0.1-0.7c-0.2,0.2-0.4,0.4-0.6,0.6s-0.5,0.2-0.7,0.2c-0.7,0-1.2-0.2-1.5-0.7c-0.4-0.5-0.5-1.1-0.5-1.9V146.1z M377,146.2
		c0,0.4,0.1,0.8,0.2,1s0.3,0.4,0.6,0.4c0.2,0,0.3,0,0.5-0.1c0.1-0.1,0.2-0.2,0.3-0.3V145c-0.1-0.1-0.2-0.3-0.3-0.3
		c-0.1-0.1-0.3-0.1-0.5-0.1c-0.3,0-0.5,0.1-0.6,0.4c-0.1,0.3-0.2,0.6-0.2,1.1V146.2z"/>
	<path class="st5" d="M383.6,148.9c-0.8,0-1.5-0.2-1.9-0.7c-0.5-0.5-0.7-1.1-0.7-1.9v-0.2c0-0.8,0.2-1.5,0.7-2
		c0.4-0.5,1.1-0.8,1.9-0.8c0.7,0,1.3,0.2,1.7,0.7c0.4,0.4,0.6,1,0.6,1.8v0.9h-3.1l0,0c0,0.3,0.1,0.5,0.3,0.7
		c0.2,0.2,0.4,0.3,0.8,0.3c0.3,0,0.6,0,0.8-0.1c0.2-0.1,0.5-0.1,0.7-0.3l0.4,1c-0.2,0.2-0.5,0.3-0.9,0.4
		C384.5,148.8,384.1,148.9,383.6,148.9z M383.6,144.6c-0.3,0-0.5,0.1-0.6,0.3s-0.2,0.4-0.2,0.7l0,0h1.4v-0.1c0-0.3,0-0.5-0.1-0.6
		S383.8,144.6,383.6,144.6z"/>
</g>
<g>
	<g>
		<path class="st5" d="M266.2,48.7c0-4.8,0-9.6,0-14.4c0.2-0.4,0.5-0.4,0.8-0.4c1.7,0,3.5,0,5.2,0c0.1,0,0.1,0,0.2,0
			c0-0.4,0-0.8,0.1-1.2s0.4-0.8,0.8-1c0.3-0.2,0.7-0.3,1.1-0.3c1.6,0,3.2,0,4.7,0c0.4,0,0.9,0.1,1.2,0.3c0.5,0.3,0.8,0.8,0.8,1.4
			c0,0.3,0,0.5,0.1,0.8c0.1,0,0.2,0,0.2,0c1.8,0,3.5,0,5.3,0c0.2,0,0.4,0,0.5,0.1c0.3,0.1,0.3,0.4,0.3,0.7c0,4,0,8.1,0,12.1
			c0,0.6,0,1.1,0,1.7c0,1-0.9,1.7-1.8,1.7c-5.9,0-11.8,0-17.7,0c-0.7,0-1.2-0.3-1.5-0.8C266.4,49.2,266.3,48.9,266.2,48.7z
			 M273.8,42.7c-1.2,0-2.4,0-3.7,0c-0.3,0-0.5-0.1-0.8-0.2c-0.5-0.3-0.8-0.7-1-1.3c-0.3-0.9-0.6-1.8-0.9-2.7c0,0.1,0,0.1,0,0.1
			c0,3.3,0,6.6,0,9.8c0,0.3,0.3,0.6,0.6,0.6c5.9,0,11.8,0,17.7,0c0.1,0,0.1,0,0.2,0c0.3-0.1,0.4-0.4,0.4-0.7c0-3.2,0-6.3,0-9.5
			c0-0.1,0-0.1,0-0.2l-0.1,0.1c-0.3,0.8-0.6,1.7-0.8,2.5c-0.3,1-1,1.6-2.2,1.6c-1,0-1.9,0-2.9,0c-0.1,0-0.2,0-0.3,0
			c0,0.2,0,0.4,0,0.5c0,0.5-0.4,0.7-0.7,0.7c-1.6,0-3.3,0-4.9,0c-0.3,0-0.6-0.3-0.6-0.6C273.8,43.1,273.8,42.9,273.8,42.7z
			 M286.1,35.2c-6.1,0-12.3,0-18.4,0v0.1c0.6,1.9,1.3,3.8,1.9,5.8c0.1,0.2,0.3,0.5,0.6,0.4c1.1,0,2.2,0,3.3,0c0.1,0,0.1,0,0.2,0
			c0-0.2,0-0.4,0-0.6c0-0.4,0.2-0.7,0.7-0.7s1,0,1.5,0c1.1,0,2.2,0,3.3,0c0.5,0,0.7,0.1,0.7,0.6c0,0.2,0,0.4,0.1,0.7
			c1.1,0,2.3,0,3.4,0c0.3,0,0.6-0.2,0.7-0.5c0.4-1.2,0.8-2.4,1.2-3.5C285.6,36.6,285.9,35.9,286.1,35.2z M280.1,33.9
			c0-0.2,0-0.4,0-0.5c0-0.5-0.2-0.7-0.7-0.7c-1.6,0-3.3,0-4.9,0c-0.3,0-0.6,0.2-0.6,0.4c0,0.3,0,0.5,0,0.8
			C275.9,33.9,278,33.9,280.1,33.9z M278.8,41.4c-1.3,0-2.5,0-3.7,0c0,0.4,0,0.8,0,1.2c1.3,0,2.5,0,3.7,0
			C278.8,42.3,278.8,41.9,278.8,41.4z"/>
	</g>
</g>
<g>
	<g>
		<path class="st5" d="M56.6,115.5c0.8,0,1.6,0,2.5,0c0.2,0.1,0.2,0.3,0.2,0.5c0,0.3,0,0.5,0,0.8l0,0c0.1,0,0.1,0,0.2,0
			c2.2,0,4.5,0,6.7,0c0.1,0,0.2,0,0.2,0l0,0c0-0.3,0-0.6,0-0.9c0-0.2,0.1-0.3,0.2-0.4c0.8,0,1.6,0,2.5,0c0.2,0.1,0.3,0.3,0.3,0.5
			c0,0.3,0,0.5,0,0.8c0.1,0,0.1,0,0.2,0c0.6,0,1.3,0,1.9,0c0.4,0,0.5,0.1,0.5,0.5c0,5.8,0,11.6,0,17.4v0.1c0,0.2-0.2,0.4-0.4,0.4
			c-5.9,0-11.8,0-17.7,0c-0.2,0-0.4-0.1-0.4-0.4c0-5.9,0-11.8,0-17.7c0-0.3,0.1-0.4,0.4-0.4c0.7,0,1.4,0,2.1,0c0.1,0,0.1,0,0.2,0
			c0-0.3,0-0.6,0-0.9C56.3,115.7,56.4,115.6,56.6,115.5z M67.2,116.2c0,0.6,0,1.3,0,1.9c0.6,0,1.1,0,1.6,0c0-0.6,0-1.2,0-1.8v-0.1
			l0,0C68.3,116.2,67.7,116.2,67.2,116.2L67.2,116.2z M57,116.2L57,116.2c0,0.3-0.1,0.5-0.1,0.8c0,0.4,0,0.8,0,1.2
			c0.6,0,1.1,0,1.6,0c0-0.6,0-1.3,0-1.9l0,0C58,116.2,57.5,116.2,57,116.2z M54.3,120.4C54.3,120.5,54.3,120.5,54.3,120.4
			c0.1,0,0.1,0,0.2,0c5.6,0,11.2,0,16.8,0c0.1,0,0.1,0,0.2,0l0,0c0-1,0-2,0-2.9c-0.7,0-1.3,0-2,0c0,0.3,0,0.6,0,0.9
			s-0.1,0.4-0.4,0.4c-0.8,0-1.5,0-2.3,0c-0.2,0-0.3-0.1-0.3-0.3c0-0.3,0-0.7,0-1c-2.4,0-4.8,0-7.3,0c0,0.3,0,0.6,0,0.9
			s-0.1,0.4-0.4,0.4c-0.7,0-1.4,0-2.1,0c-0.4,0-0.5-0.1-0.5-0.5c0-0.3,0-0.5,0-0.8c-0.7,0-1.3,0-2,0
			C54.3,118.5,54.3,119.5,54.3,120.4z M71.4,134.7C71.4,134.6,71.5,134.6,71.4,134.7c0-0.1,0-0.1,0-0.2c0-4.4,0-8.8,0-13.1
			c0-0.1,0-0.1,0-0.2l0,0c-0.1,0-0.1,0-0.2,0c-5.6,0-11.2,0-16.8,0c-0.1,0-0.1,0-0.2,0l0,0c0,0.1,0,0.1,0,0.2c0,4.4,0,8.8,0,13.1
			c0,0.1,0,0.1,0,0.2l0,0c0.1,0,0.1,0,0.2,0c5.6,0,11.2,0,16.8,0C71.3,134.7,71.4,134.7,71.4,134.7z"/>
	</g>
	<g>
		<path class="st5" d="M54.3,120.4C54.3,120.5,54.3,120.5,54.3,120.4C54.3,120.5,54.3,120.5,54.3,120.4z"/>
	</g>
	<g>
		<path class="st5" d="M71.4,120.5C71.4,120.5,71.5,120.5,71.4,120.5C71.5,120.5,71.4,120.5,71.4,120.5z"/>
	</g>
	<g>
		<path class="st5" d="M54.4,121.1C54.3,121.2,54.3,121.2,54.4,121.1C54.3,121.2,54.3,121.2,54.4,121.1z"/>
	</g>
	<g>
		<path class="st5" d="M71.5,121.2C71.5,121.2,71.4,121.2,71.5,121.2C71.4,121.2,71.5,121.2,71.5,121.2z"/>
	</g>
	<g>
		<path class="st5" d="M66.5,116.8L66.5,116.8L66.5,116.8z"/>
	</g>
	<g>
		<path class="st5" d="M59.3,116.8L59.3,116.8L59.3,116.8z"/>
	</g>
	<g>
		<path class="st5" d="M68.8,116.2L68.8,116.2L68.8,116.2z"/>
	</g>
	<g>
		<path class="st5" d="M67.2,116.2L67.2,116.2L67.2,116.2z"/>
	</g>
	<g>
		<path class="st5" d="M58.6,116.2L58.6,116.2L58.6,116.2z"/>
	</g>
	<g>
		<path class="st5" d="M57,116.2L57,116.2L57,116.2z"/>
	</g>
	<g>
		<path class="st5" d="M54.3,134.6L54.3,134.6L54.3,134.6z"/>
	</g>
	<g>
		<path class="st5" d="M71.4,134.7C71.4,134.6,71.5,134.6,71.4,134.7C71.5,134.6,71.4,134.6,71.4,134.7z"/>
	</g>
	<g>
		<path class="st5" d="M68.5,129.4c0.5,0,1.1,0,1.6,0c0,1.3,0,2.6,0,4c-1.3,0-2.6,0-3.9,0c0-1.3,0-2.6,0-3.9c0.5,0,1.1,0,1.6,0
			c0-0.3,0-0.7,0-1c-1.5,0-3.1,0-4.6,0c0,0.3,0,0.6,0,1c0.5,0,1.1,0,1.6,0c0,1.3,0,2.6,0,4c-1.3,0-2.6,0-3.9,0c0-1.3,0-2.6,0-3.9
			c0.5,0,1.1,0,1.6,0c0-0.3,0-0.6,0-1c-1.5,0-3.1,0-4.6,0c0,0.3,0,0.6,0,1c0.5,0,1.1,0,1.6,0c0,1.3,0,2.6,0,4c-1.3,0-2.6,0-3.9,0
			c0-1.3,0-2.6,0-4c0.5,0,1.1,0,1.6,0l0,0c0-0.4,0-0.7,0-1.1c0-0.5,0.2-0.5,0.5-0.5c1.5,0,3,0,4.5,0c0.1,0,0.1,0,0.2,0
			c0-0.4,0-0.9,0-1.3c-0.5,0-1.1,0-1.6,0c0-1.3,0-2.6,0-4c1.3,0,2.6,0,3.9,0c0,1.3,0,2.6,0,4c-0.5,0-1.1,0-1.6,0c0,0.4,0,0.9,0,1.3
			c0.1,0,0.1,0,0.2,0c1.5,0,3,0,4.6,0c0.4,0,0.5,0.1,0.5,0.5C68.5,128.6,68.5,129,68.5,129.4C68.5,129.3,68.5,129.4,68.5,129.4z
			 M69.5,132.7c0-0.9,0-1.7,0-2.6c-0.9,0-1.7,0-2.6,0c0,0.9,0,1.8,0,2.6C67.7,132.7,68.6,132.7,69.5,132.7z M58.9,132.7
			c0-0.8,0-1.7,0-2.5c0-0.1-0.1-0.1-0.2-0.1c-0.8,0-1.5,0-2.3,0c0,0-0.1,0-0.2,0c0,0.9,0,1.7,0,2.6C57.2,132.7,58,132.7,58.9,132.7z
			 M61.6,130.1c0,0.9,0,1.8,0,2.6c0.9,0,1.7,0,2.6,0c0-0.9,0-1.7,0-2.6C63.3,130.1,62.5,130.1,61.6,130.1z M64.2,123.1
			c-0.9,0-1.8,0-2.6,0c0,0.9,0,1.8,0,2.6c0.9,0,1.7,0,2.6,0C64.2,124.9,64.2,124,64.2,123.1z"/>
	</g>
	<g>
		<path class="st5" d="M57.3,129.3C57.3,129.3,57.3,129.4,57.3,129.3C57.3,129.4,57.3,129.3,57.3,129.3z"/>
	</g>
	<g>
		<path class="st5" d="M68.5,129.4C68.5,129.4,68.5,129.3,68.5,129.4C68.5,129.3,68.5,129.4,68.5,129.4z"/>
	</g>
</g>
<g>
	<g>
		<path class="st5" d="M137.7,50.9c-0.3-0.1-0.6-0.1-0.9-0.2c-1.1-0.4-1.8-1.2-2-2.4c-0.1-0.6-0.1-1.2-0.1-1.9
			c0.1-1,0.2-1.9,0.5-2.9c0.3-0.8,0.6-1.5,1.2-2.1c0.6-0.5,1.2-0.9,2-1c0.4-0.1,0.8-0.1,1.2,0.1c0.3,0.2,0.5,0.3,0.8,0.5
			c0.6,0.4,1.3,0.7,2,0.8c0.8,0.1,1.5,0,2.2-0.3c0.6-0.2,1.1-0.6,1.7-1c0.4-0.2,0.8-0.3,1.2-0.2s0.8,0.2,1.2,0.3
			c0.5,0.2,0.9,0.6,1.3,1c0.4,0.5,0.7,1.1,1,1.8c0.1,0.5,0.3,0.9,0.3,1.4c0.1,0.8,0.2,1.6,0.2,2.4c0,0.8-0.2,1.6-0.7,2.2
			c-0.5,0.6-1.1,1-1.8,1.1c-0.2,0-0.3,0.1-0.5,0.1C144.9,50.9,141.3,50.9,137.7,50.9z M143.1,49.7c1.6,0,3.3,0,4.9,0
			c0.2,0,0.5,0,0.7-0.1c0.7-0.2,1.2-0.6,1.5-1.2c0.2-0.4,0.2-0.9,0.1-1.3c-0.1-0.4,0-0.9-0.1-1.4c-0.1-0.7-0.2-1.3-0.5-2
			c-0.2-0.5-0.4-1-0.8-1.3c-0.4-0.5-1-0.7-1.6-0.7c-0.2,0-0.3,0-0.5,0.1c-0.5,0.3-1,0.6-1.5,0.9c-0.7,0.3-1.5,0.5-2.3,0.5
			c-0.6,0-1.1-0.1-1.6-0.3c-0.8-0.2-1.5-0.7-2.2-1.1c-0.1-0.1-0.3-0.2-0.4-0.2c-0.8,0-1.4,0.3-1.9,0.9c-0.6,0.8-0.9,1.7-1,2.6
			c-0.1,0.3-0.1,0.7-0.1,1.1c0,0.6,0,1.1,0,1.7c0.1,1.1,1.1,1.7,2,1.7C139.7,49.7,141.4,49.7,143.1,49.7z"/>
	</g>
	<g>
		<path class="st5" d="M138.2,35.6c-0.1-2.7,2.2-4.7,4.4-4.8c1.5-0.1,2.9,0.3,4,1.4c1,1,1.5,2.3,1.4,3.8c-0.1,2.3-2.2,4.7-5.2,4.5
			C140.3,40.3,138.1,38.2,138.2,35.6z M139.3,35.5c-0.1,2,1.7,3.8,3.8,3.7c1.8-0.1,3.8-1.6,3.6-4c-0.1-1.5-1.5-3.6-4.1-3.3
			C141,32,139.3,33.6,139.3,35.5z"/>
	</g>
</g>
<g>
	<g>
		<g>
			<path class="st5" d="M355.3,135.3c-0.2,0-0.3-0.1-0.5-0.1c-0.6-0.2-1-0.7-1.2-1.4c-0.1-0.4-0.1-0.7,0-1.1c0-0.6,0.1-1.1,0.3-1.6
				c0.2-0.4,0.4-0.9,0.7-1.2c0.3-0.3,0.7-0.5,1.1-0.6c0.2,0,0.5-0.1,0.7,0.1c0.2,0.1,0.3,0.2,0.5,0.3c0.4,0.2,0.7,0.4,1.2,0.5
				c0.4,0.1,0.9,0,1.3-0.2c0.4-0.1,0.7-0.4,1-0.6c0.2-0.1,0.4-0.2,0.7-0.1c0.2,0,0.5,0.1,0.7,0.2c0.3,0.1,0.5,0.3,0.7,0.6
				c0.3,0.3,0.4,0.7,0.5,1s0.2,0.5,0.2,0.8c0.1,0.5,0.1,0.9,0.1,1.4s-0.1,0.9-0.4,1.3c-0.3,0.3-0.6,0.6-1.1,0.6
				c-0.1,0-0.2,0-0.3,0.1C359.4,135.3,357.4,135.3,355.3,135.3z M358.4,134.6c0.9,0,1.9,0,2.8,0c0.1,0,0.3,0,0.4,0
				c0.4-0.1,0.7-0.3,0.8-0.7c0.1-0.2,0.1-0.5,0.1-0.7c0-0.3,0-0.5-0.1-0.8c0-0.4-0.1-0.8-0.3-1.1c-0.1-0.3-0.3-0.5-0.5-0.8
				s-0.6-0.4-0.9-0.4c-0.1,0-0.2,0-0.3,0.1c-0.3,0.2-0.6,0.4-0.9,0.5c-0.4,0.2-0.8,0.3-1.3,0.3c-0.3,0-0.6-0.1-0.9-0.1
				c-0.5-0.1-0.8-0.4-1.2-0.6c-0.1,0-0.2-0.1-0.2-0.1c-0.4,0-0.8,0.2-1.1,0.5c-0.3,0.4-0.5,1-0.6,1.5c0,0.2-0.1,0.4-0.1,0.6
				c0,0.3,0,0.6,0,0.9c0.1,0.6,0.6,1,1.2,1C356.4,134.7,357.4,134.6,358.4,134.6z"/>
			<path class="st5" d="M355.3,135.4L355.3,135.4c-0.1,0-0.1,0-0.2,0s-0.2-0.1-0.4-0.1c-0.6-0.2-1.1-0.7-1.2-1.4
				c-0.1-0.4-0.1-0.7,0-1.1c0-0.6,0.1-1.2,0.3-1.7c0.2-0.5,0.4-0.9,0.7-1.2c0.3-0.3,0.7-0.5,1.2-0.6c0.2,0,0.5-0.1,0.7,0.1
				c0.2,0.1,0.3,0.2,0.5,0.3c0.3,0.2,0.7,0.4,1.1,0.5s0.8,0,1.2-0.2c0.3-0.1,0.5-0.3,0.8-0.4c0.1,0,0.1-0.1,0.2-0.1
				c0.3-0.2,0.5-0.2,0.7-0.1c0.2,0,0.5,0.1,0.7,0.2c0.3,0.1,0.6,0.4,0.7,0.6c0.2,0.3,0.4,0.6,0.6,1c0.1,0.3,0.2,0.5,0.2,0.8
				c0.1,0.5,0.1,1,0.1,1.4c0,0.6-0.1,1-0.4,1.3s-0.7,0.6-1.1,0.7c-0.1,0-0.1,0-0.2,0h-0.1H355.3z M355.3,135.3h6.2h0.1
				c0.1,0,0.1,0,0.2,0c0.4-0.1,0.8-0.3,1-0.6c0.3-0.3,0.4-0.7,0.4-1.2c0-0.4,0-0.9-0.1-1.4c0-0.3-0.1-0.5-0.2-0.8
				c-0.1-0.4-0.3-0.7-0.5-1s-0.5-0.5-0.7-0.5c-0.2-0.1-0.4-0.2-0.7-0.2c-0.3,0-0.5,0-0.6,0.1c-0.1,0-0.1,0.1-0.2,0.1
				c-0.3,0.2-0.5,0.3-0.8,0.5c-0.5,0.2-0.9,0.2-1.3,0.2c-0.4-0.1-0.8-0.2-1.2-0.5c-0.1-0.1-0.3-0.2-0.5-0.3s-0.5-0.1-0.7-0.1
				c-0.4,0.1-0.8,0.2-1.1,0.5c-0.3,0.3-0.5,0.6-0.7,1.2c-0.2,0.5-0.3,1-0.3,1.6c0,0.3,0,0.7,0,1c0.1,0.6,0.5,1.1,1.1,1.3
				c0.1,0,0.2,0.1,0.3,0.1C355.2,135.3,355.3,135.3,355.3,135.3z M356.7,134.7c-0.4,0-0.8,0-1.3,0s-1.1-0.4-1.2-1c0-0.3,0-0.6,0-0.9
				v-0.1c0-0.2,0-0.4,0.1-0.6c0.1-0.7,0.3-1.1,0.6-1.5c0.3-0.4,0.7-0.6,1.1-0.6l0,0c0.1,0,0.2,0.1,0.3,0.1c0.4,0.3,0.8,0.5,1.2,0.6
				c0.3,0.1,0.6,0.1,0.9,0.1c0,0,0,0,0.1,0c0.5,0,0.9-0.1,1.3-0.3c0.3-0.1,0.6-0.3,0.9-0.5l0,0c0.1-0.1,0.2-0.1,0.3-0.1
				c0.4,0,0.7,0.2,0.9,0.4c0.2,0.2,0.3,0.5,0.5,0.8c0.1,0.3,0.2,0.7,0.3,1.1c0,0.1,0,0.2,0,0.3s0,0.3,0,0.4c0,0.3,0,0.5-0.1,0.8
				c-0.1,0.4-0.4,0.6-0.9,0.7c-0.1,0-0.3,0-0.4,0c-0.7,0-1.4,0-2.1,0h-0.7C357.8,134.7,357.3,134.7,356.7,134.7z M356,130.1
				c-0.4,0-0.8,0.2-1,0.5c-0.3,0.4-0.5,0.9-0.6,1.5c0,0.2-0.1,0.4-0.1,0.6v0.1c0,0.3,0,0.6,0,0.8c0.1,0.6,0.6,0.9,1.1,1
				c0.7,0,1.4,0,2.1,0c0.3,0,0.6,0,0.8,0h0.7c0.7,0,1.4,0,2.1,0c0.1,0,0.3,0,0.4,0c0.4-0.1,0.7-0.3,0.8-0.7c0.1-0.2,0.1-0.5,0.1-0.7
				c0-0.1,0-0.3,0-0.4c0-0.1,0-0.2,0-0.3c0-0.4-0.1-0.8-0.3-1.1c-0.1-0.3-0.3-0.6-0.4-0.8c-0.2-0.2-0.5-0.4-0.9-0.4
				c-0.1,0-0.2,0-0.2,0.1l0,0c-0.3,0.2-0.6,0.4-0.9,0.5c-0.4,0.2-0.8,0.3-1.3,0.3c-0.3,0-0.7-0.1-1-0.2c-0.4-0.1-0.8-0.4-1.3-0.6
				C356.2,130.1,356.1,130.1,356,130.1L356,130.1z"/>
		</g>
		<g>
			<path class="st5" d="M355.6,126.5c0-1.5,1.3-2.7,2.5-2.8c0.9-0.1,1.6,0.2,2.3,0.8c0.6,0.6,0.8,1.3,0.8,2.2
				c-0.1,1.3-1.2,2.7-2.9,2.6C356.8,129.3,355.5,128.1,355.6,126.5z M356.2,126.5c0,1.2,1,2.2,2.1,2.1c1,0,2.2-0.9,2.1-2.3
				c-0.1-0.9-0.9-2-2.4-1.9C357.2,124.5,356.2,125.4,356.2,126.5z"/>
			<path class="st5" d="M358.3,129.4h-0.1c-1.3-0.1-2.7-1.2-2.7-2.8c0-1.6,1.3-2.7,2.5-2.8c0.9-0.1,1.7,0.2,2.3,0.8
				c0.6,0.6,0.9,1.3,0.8,2.2C361.1,128,360,129.4,358.3,129.4z M358.3,123.8c-0.1,0-0.2,0-0.3,0c-1.2,0.1-2.5,1.2-2.4,2.7l0,0
				c0,1.6,1.3,2.7,2.6,2.7h0.1c1.6,0,2.7-1.3,2.8-2.5c0-0.8-0.2-1.6-0.8-2.1C359.7,124.1,359.1,123.8,358.3,123.8z M358.3,128.7
				c-0.6,0-1.1-0.2-1.5-0.7c-0.4-0.4-0.6-1-0.6-1.5c0-1.1,1-2,1.9-2.1c0.6-0.1,1.2,0.1,1.7,0.5c0.4,0.4,0.7,0.9,0.8,1.5
				c0.1,0.8-0.3,1.3-0.5,1.6C359.5,128.4,359,128.7,358.3,128.7C358.4,128.7,358.3,128.7,358.3,128.7z M358.3,124.5
				c-0.1,0-0.2,0-0.2,0c-0.9,0.1-1.8,0.9-1.8,2l0,0c0,0.5,0.2,1.1,0.6,1.5c0.4,0.4,0.9,0.6,1.5,0.6c0,0,0,0,0.1,0
				c0.5,0,1.1-0.3,1.5-0.7c0.3-0.3,0.6-0.8,0.5-1.5c0-0.5-0.3-1-0.7-1.4C359.3,124.7,358.8,124.5,358.3,124.5z"/>
		</g>
	</g>
	<g>
		<g>
			<path class="st5" d="M366,130.6c-0.2,0-0.3-0.1-0.5-0.1c-0.6-0.2-1-0.7-1.2-1.4c-0.1-0.4-0.1-0.7,0-1.1c0-0.6,0.1-1.1,0.3-1.6
				c0.2-0.4,0.4-0.9,0.7-1.2c0.3-0.3,0.7-0.5,1.1-0.6c0.2,0,0.5-0.1,0.7,0.1c0.2,0.1,0.3,0.2,0.5,0.3c0.4,0.2,0.7,0.4,1.2,0.5
				c0.4,0.1,0.9,0,1.3-0.2c0.4-0.1,0.7-0.4,1-0.6c0.2-0.1,0.4-0.2,0.7-0.1c0.2,0,0.5,0.1,0.7,0.2c0.3,0.1,0.5,0.3,0.7,0.6
				c0.3,0.3,0.4,0.7,0.5,1s0.2,0.5,0.2,0.8c0.1,0.5,0.1,0.9,0.1,1.4s-0.1,0.9-0.4,1.3c-0.3,0.3-0.6,0.6-1.1,0.6
				c-0.1,0-0.2,0-0.3,0.1C370.2,130.6,368.1,130.6,366,130.6z M369.1,129.9c0.9,0,1.9,0,2.8,0c0.1,0,0.3,0,0.4,0
				c0.4-0.1,0.7-0.3,0.8-0.7c0.1-0.2,0.1-0.5,0.1-0.7c0-0.3,0-0.5-0.1-0.8c0-0.4-0.1-0.8-0.3-1.1c-0.1-0.3-0.3-0.5-0.5-0.8
				s-0.6-0.4-0.9-0.4c-0.1,0-0.2,0-0.3,0.1c-0.3,0.2-0.6,0.4-0.9,0.5c-0.4,0.2-0.8,0.3-1.3,0.3c-0.3,0-0.6-0.1-0.9-0.1
				c-0.5-0.1-0.8-0.4-1.2-0.6c-0.1,0-0.2-0.1-0.2-0.1c-0.4,0-0.8,0.2-1.1,0.5c-0.3,0.4-0.5,1-0.6,1.5c0,0.2-0.1,0.4-0.1,0.6
				c0,0.3,0,0.6,0,0.9c0.1,0.6,0.6,1,1.2,1C367.2,129.9,368.2,129.9,369.1,129.9z"/>
			<path class="st5" d="M366,130.6L366,130.6c-0.1,0-0.1,0-0.2,0s-0.2-0.1-0.4-0.1c-0.6-0.2-1.1-0.7-1.2-1.4c-0.1-0.4-0.1-0.7,0-1.1
				c0-0.6,0.1-1.2,0.3-1.7c0.2-0.5,0.4-0.9,0.7-1.2c0.3-0.3,0.7-0.5,1.2-0.6c0.2,0,0.5-0.1,0.7,0.1c0.2,0.1,0.3,0.2,0.5,0.3
				c0.3,0.2,0.7,0.4,1.1,0.5s0.8,0,1.2-0.2c0.3-0.1,0.5-0.3,0.8-0.4c0.1,0,0.1-0.1,0.2-0.1c0.3-0.2,0.5-0.2,0.7-0.1
				c0.2,0,0.5,0.1,0.7,0.2c0.3,0.1,0.6,0.4,0.7,0.6c0.2,0.3,0.4,0.6,0.6,1c0.1,0.3,0.2,0.5,0.2,0.8c0.1,0.5,0.1,1,0.1,1.4
				c0,0.6-0.1,1-0.4,1.3s-0.7,0.6-1.1,0.7c-0.1,0-0.2,0-0.2,0.1h-0.1L366,130.6z M366.1,130.5h6.2l0,0c0.1,0,0.2,0,0.2-0.1
				c0.4-0.1,0.8-0.3,1-0.6c0.3-0.3,0.4-0.7,0.4-1.2c0-0.4,0-0.9-0.1-1.4c0-0.3-0.1-0.5-0.2-0.8c-0.1-0.4-0.3-0.7-0.5-1
				c-0.2-0.2-0.4-0.4-0.7-0.5c-0.2-0.1-0.4-0.2-0.7-0.2c-0.3,0-0.5,0-0.6,0.1c-0.1,0-0.1,0.1-0.2,0.1c-0.3,0.2-0.5,0.3-0.8,0.5
				c-0.5,0.2-0.9,0.2-1.3,0.2c-0.4-0.1-0.8-0.2-1.2-0.5c-0.1-0.1-0.3-0.2-0.5-0.3c-0.2-0.1-0.5-0.1-0.7-0.1
				c-0.4,0.1-0.8,0.2-1.1,0.5c-0.3,0.3-0.5,0.6-0.7,1.2c-0.2,0.5-0.3,1-0.3,1.6c0,0.3,0,0.7,0,1c0.1,0.6,0.5,1.1,1.1,1.3
				c0.1,0,0.2,0.1,0.3,0.1C365.9,130.5,366,130.5,366.1,130.5z M367.4,130c-0.4,0-0.8,0-1.2,0c-0.5,0-1.1-0.4-1.2-1
				c0-0.3,0-0.6,0-0.9V128c0-0.2,0-0.4,0.1-0.6c0.1-0.7,0.3-1.1,0.6-1.5c0.3-0.4,0.7-0.6,1.1-0.6l0,0c0.1,0,0.2,0.1,0.3,0.1
				c0.4,0.3,0.8,0.5,1.2,0.6c0.3,0.1,0.6,0.2,0.9,0.1c0.5,0,0.9-0.1,1.3-0.3c0.3-0.1,0.6-0.3,0.8-0.5l0,0c0.1-0.1,0.2-0.1,0.3-0.1
				c0.4,0,0.7,0.2,0.9,0.4c0.2,0.2,0.3,0.5,0.5,0.8c0.1,0.3,0.2,0.7,0.3,1.1c0,0.1,0,0.2,0,0.3c0,0.1,0,0.3,0,0.4
				c0,0.3,0,0.5-0.1,0.8c-0.1,0.4-0.4,0.6-0.9,0.7c-0.1,0-0.3,0-0.4,0c-0.7,0-1.4,0-2.1,0h-0.7C368.5,130,368,130,367.4,130z
				 M366.7,125.4c-0.4,0-0.8,0.2-1,0.5c-0.3,0.4-0.5,0.9-0.6,1.5c0,0.2-0.1,0.4-0.1,0.6v0.1c0,0.3,0,0.6,0,0.8
				c0.1,0.6,0.6,0.9,1.1,1c0.7,0,1.4,0,2,0c0.3,0,0.6,0,0.9,0h0.7c0.7,0,1.4,0,2.1,0c0.1,0,0.3,0,0.4,0c0.4-0.1,0.7-0.3,0.8-0.7
				c0.1-0.2,0.1-0.5,0.1-0.7c0-0.1,0-0.3,0-0.4c0-0.1,0-0.2,0-0.3c0-0.4-0.1-0.8-0.3-1.1c-0.1-0.3-0.3-0.6-0.4-0.8
				c-0.2-0.2-0.5-0.4-0.9-0.4c-0.1,0-0.2,0-0.2,0.1l0,0c-0.3,0.2-0.6,0.4-0.9,0.5c-0.4,0.2-0.8,0.3-1.3,0.3c-0.3,0-0.7-0.1-1-0.2
				c-0.5-0.1-0.8-0.4-1.3-0.6C366.9,125.4,366.8,125.4,366.7,125.4C366.8,125.4,366.7,125.4,366.7,125.4z"/>
		</g>
		<g>
			<path class="st5" d="M366.3,121.8c0-1.5,1.3-2.7,2.5-2.8c0.9-0.1,1.6,0.2,2.3,0.8c0.6,0.6,0.8,1.3,0.8,2.2
				c-0.1,1.3-1.2,2.7-2.9,2.6C367.6,124.5,366.3,123.4,366.3,121.8z M367,121.8c0,1.2,1,2.2,2.1,2.1c1,0,2.2-0.9,2.1-2.3
				c-0.1-0.9-0.9-2-2.4-1.9C367.9,119.8,366.9,120.7,367,121.8z"/>
			<path class="st5" d="M369,124.7h-0.1c-1.3-0.1-2.7-1.2-2.7-2.8c0-1.6,1.3-2.7,2.5-2.8c0.9-0.1,1.7,0.2,2.3,0.8
				c0.6,0.6,0.9,1.3,0.8,2.2C371.8,123.3,370.7,124.7,369,124.7z M369,119.1c-0.1,0-0.2,0-0.3,0c-1.2,0.1-2.5,1.2-2.4,2.7l0,0
				c0,1.6,1.3,2.7,2.6,2.7c1.7,0.1,2.8-1.3,2.9-2.5c0-0.8-0.2-1.6-0.8-2.1C370.5,119.3,369.8,119.1,369,119.1z M369.1,124
				c-0.6,0-1.1-0.2-1.5-0.7c-0.4-0.4-0.6-1-0.6-1.5c0-1.1,1-2,1.9-2.1c0.6-0.1,1.2,0.1,1.7,0.5c0.4,0.4,0.7,0.9,0.8,1.5
				c0.1,0.8-0.3,1.3-0.5,1.6C370.3,123.7,369.7,124,369.1,124L369.1,124z M369,119.8c-0.1,0-0.2,0-0.2,0c-0.9,0.1-1.8,0.9-1.8,2l0,0
				c0,0.5,0.2,1.1,0.6,1.5s0.9,0.6,1.5,0.6c0,0,0,0,0.1,0c0.6,0,1.1-0.3,1.5-0.7c0.3-0.3,0.6-0.8,0.5-1.5c0-0.5-0.3-1-0.7-1.4
				C370,119.9,369.6,119.8,369,119.8z"/>
		</g>
	</g>
	<g>
		<g>
			<path class="st5" d="M344.6,129.7c-0.2,0-0.3-0.1-0.5-0.1c-0.6-0.2-1-0.7-1.2-1.4c-0.1-0.4-0.1-0.7,0-1.1c0-0.6,0.1-1.1,0.3-1.6
				c0.2-0.4,0.4-0.9,0.7-1.2c0.3-0.3,0.7-0.5,1.1-0.6c0.2,0,0.5-0.1,0.7,0.1c0.2,0.1,0.3,0.2,0.5,0.3c0.4,0.2,0.7,0.4,1.2,0.5
				c0.4,0.1,0.9,0,1.3-0.2c0.4-0.1,0.7-0.4,1-0.6c0.2-0.1,0.4-0.2,0.7-0.1c0.2,0,0.5,0.1,0.7,0.2c0.3,0.1,0.5,0.3,0.7,0.6
				c0.3,0.3,0.4,0.7,0.5,1s0.2,0.5,0.2,0.8c0.1,0.5,0.1,0.9,0.1,1.4s-0.1,0.9-0.4,1.3c-0.3,0.3-0.6,0.6-1.1,0.6
				c-0.1,0-0.2,0-0.3,0.1C348.7,129.7,346.6,129.7,344.6,129.7z M347.7,129c0.9,0,1.9,0,2.8,0c0.1,0,0.3,0,0.4,0
				c0.4-0.1,0.7-0.3,0.8-0.7c0.1-0.2,0.1-0.5,0.1-0.7c0-0.3,0-0.5-0.1-0.8c0-0.4-0.1-0.8-0.3-1.1c-0.1-0.3-0.3-0.5-0.5-0.8
				s-0.6-0.4-0.9-0.4c-0.1,0-0.2,0-0.3,0.1c-0.3,0.2-0.6,0.4-0.9,0.5c-0.4,0.2-0.8,0.3-1.3,0.3c-0.3,0-0.6-0.1-0.9-0.1
				c-0.5-0.1-0.8-0.4-1.2-0.6c-0.1,0-0.2-0.1-0.2-0.1c-0.4,0-0.8,0.2-1.1,0.5c-0.3,0.4-0.5,1-0.6,1.5c0,0.2-0.1,0.4-0.1,0.6
				c0,0.3,0,0.6,0,0.9c0.1,0.6,0.6,1,1.2,1C345.7,129,346.7,129,347.7,129z"/>
			<path class="st5" d="M344.6,129.8L344.6,129.8c-0.1,0-0.1,0-0.2,0s-0.2-0.1-0.4-0.1c-0.6-0.2-1-0.7-1.2-1.4
				c-0.1-0.4-0.1-0.7,0-1.1c0-0.6,0.1-1.2,0.3-1.7c0.2-0.5,0.4-0.9,0.7-1.2c0.3-0.3,0.7-0.5,1.2-0.6c0.2,0,0.5-0.1,0.7,0.1
				c0.2,0.1,0.3,0.2,0.5,0.3c0.3,0.2,0.7,0.4,1.1,0.5s0.8,0,1.2-0.2c0.3-0.1,0.6-0.3,0.8-0.4l0.1-0.1c0.2-0.1,0.4-0.2,0.7-0.1
				c0.2,0,0.5,0.1,0.7,0.2c0.3,0.1,0.6,0.4,0.7,0.6c0.2,0.3,0.4,0.6,0.6,1c0.1,0.3,0.2,0.5,0.2,0.8c0.1,0.5,0.1,1,0.1,1.4
				c0,0.6-0.1,1-0.4,1.3s-0.7,0.6-1.1,0.7c-0.1,0-0.1,0-0.2,0h-0.1L344.6,129.8z M344.6,129.7h6.2h0.1c0.1,0,0.1,0,0.2,0
				c0.4-0.1,0.8-0.3,1-0.6c0.3-0.3,0.4-0.7,0.4-1.2c0-0.4,0-0.9-0.1-1.4c0-0.3-0.1-0.5-0.2-0.8c-0.1-0.4-0.3-0.7-0.5-1
				c-0.2-0.2-0.4-0.4-0.7-0.5c-0.2-0.1-0.4-0.2-0.7-0.2c-0.3,0-0.5,0-0.6,0.1l-0.1,0.1c-0.3,0.2-0.5,0.3-0.8,0.5
				c-0.5,0.2-0.9,0.2-1.3,0.2c-0.4-0.1-0.8-0.2-1.2-0.5c-0.1-0.1-0.3-0.2-0.5-0.3c-0.2-0.1-0.5-0.1-0.7-0.1
				c-0.4,0.1-0.8,0.2-1.1,0.5c-0.3,0.3-0.5,0.6-0.7,1.2c-0.2,0.5-0.3,1-0.3,1.6c0,0.3,0,0.7,0,1c0.1,0.7,0.5,1.1,1.1,1.3
				c0.1,0,0.2,0.1,0.3,0.1C344.5,129.6,344.5,129.6,344.6,129.7z M345.9,129.1c-0.4,0-0.8,0-1.2,0c-0.5,0-1.1-0.4-1.2-1
				c0-0.3,0-0.6,0-0.8v-0.1c0-0.2,0-0.4,0.1-0.6c0.1-0.6,0.3-1.1,0.6-1.5c0.3-0.4,0.7-0.6,1.1-0.6l0,0c0.1,0,0.2,0.1,0.3,0.1
				c0.4,0.3,0.8,0.5,1.2,0.6c0.3,0.1,0.6,0.1,0.9,0.1c0,0,0,0,0.1,0c0.5,0,0.9-0.1,1.3-0.3c0.3-0.1,0.6-0.3,0.9-0.5
				c0.1-0.1,0.2-0.1,0.3-0.1c0.4,0,0.7,0.2,0.9,0.4c0.2,0.2,0.3,0.5,0.5,0.8c0.1,0.4,0.2,0.7,0.3,1.1c0,0.1,0,0.2,0,0.3
				c0,0.1,0,0.3,0,0.4c0,0.3,0,0.5-0.1,0.8c-0.1,0.4-0.4,0.6-0.9,0.7c-0.1,0-0.3,0-0.4,0c-0.7,0-1.4,0-2.1,0h-0.7
				C347.1,129.1,346.5,129.1,345.9,129.1z M345.3,124.5c-0.4,0-0.8,0.2-1,0.5c-0.3,0.4-0.5,0.9-0.6,1.5c0,0.2-0.1,0.4-0.1,0.6v0.1
				c0,0.3,0,0.6,0,0.8c0.1,0.6,0.6,0.9,1.1,1c0.7,0,1.4,0,2,0c0.3,0,0.6,0,0.9,0h0.7c0.7,0,1.4,0,2.1,0c0.1,0,0.3,0,0.4,0
				c0.4-0.1,0.7-0.3,0.8-0.7c0.1-0.2,0.1-0.5,0.1-0.7c0-0.1,0-0.3,0-0.4s0-0.2,0-0.3c0-0.4-0.1-0.8-0.3-1.1
				c-0.1-0.3-0.3-0.5-0.4-0.8c-0.2-0.2-0.5-0.4-0.9-0.4c-0.1,0-0.2,0-0.2,0.1c-0.3,0.2-0.6,0.4-0.9,0.5c-0.4,0.2-0.8,0.3-1.3,0.3
				c0,0,0,0-0.1,0c-0.3,0-0.6-0.1-0.9-0.2c-0.4-0.1-0.8-0.4-1.3-0.6C345.4,124.5,345.3,124.5,345.3,124.5z"/>
		</g>
		<g>
			<path class="st5" d="M344.8,120.9c0-1.5,1.3-2.7,2.5-2.8c0.9-0.1,1.6,0.2,2.3,0.8c0.6,0.6,0.8,1.3,0.8,2.2
				c-0.1,1.3-1.2,2.7-2.9,2.6C346.1,123.7,344.8,122.5,344.8,120.9z M345.5,120.9c0,1.2,1,2.2,2.1,2.1c1,0,2.2-0.9,2.1-2.3
				c-0.1-0.9-0.9-2-2.4-1.9C346.4,118.9,345.5,119.8,345.5,120.9z"/>
			<path class="st5" d="M347.6,123.8h-0.1c-1.3-0.1-2.7-1.2-2.7-2.8c0-1.6,1.3-2.7,2.5-2.8c0.1,0,0.2,0,0.3,0c0.8,0,1.5,0.3,2,0.8
				c0.6,0.6,0.9,1.3,0.8,2.2C350.4,122.4,349.2,123.8,347.6,123.8z M347.6,118.2c-0.1,0-0.2,0-0.3,0c-1.2,0.1-2.5,1.2-2.4,2.7l0,0
				c0,1.6,1.3,2.7,2.6,2.7h0.1c1.6,0,2.7-1.3,2.8-2.5c0-0.8-0.2-1.6-0.8-2.1C349,118.5,348.4,118.2,347.6,118.2z M347.6,123.1
				c-0.6,0-1.1-0.2-1.5-0.7s-0.6-1-0.6-1.5c0-1.1,1-2,1.9-2.1c0.6-0.1,1.2,0.1,1.7,0.5c0.4,0.4,0.7,0.9,0.8,1.5
				c0.1,0.8-0.3,1.3-0.5,1.6C348.8,122.8,348.2,123.1,347.6,123.1L347.6,123.1z M347.6,118.9c-0.1,0-0.2,0-0.2,0
				c-0.9,0.1-1.8,0.9-1.8,2l0,0c0,0.5,0.2,1.1,0.6,1.5s0.9,0.6,1.5,0.6c0,0,0,0,0.1,0c0.6,0,1.1-0.3,1.5-0.7
				c0.3-0.3,0.6-0.8,0.5-1.5c0-0.5-0.3-1-0.7-1.4C348.5,119,348.1,118.9,347.6,118.9z"/>
		</g>
	</g>
	<g>
		<g>
			<path class="st5" d="M355.2,121.6c-0.2,0-0.3-0.1-0.5-0.1c-0.6-0.2-1-0.7-1.2-1.4c-0.1-0.4-0.1-0.7,0-1.1c0-0.6,0.1-1.1,0.3-1.6
				c0.2-0.4,0.4-0.9,0.7-1.2c0.3-0.3,0.7-0.5,1.1-0.6c0.2,0,0.5-0.1,0.7,0.1c0.2,0.1,0.3,0.2,0.5,0.3c0.4,0.2,0.7,0.4,1.2,0.5
				c0.4,0.1,0.9,0,1.3-0.2c0.4-0.1,0.7-0.4,1-0.6c0.2-0.1,0.4-0.2,0.7-0.1c0.2,0,0.5,0.1,0.7,0.2c0.3,0.1,0.5,0.3,0.7,0.6
				c0.3,0.3,0.4,0.7,0.5,1s0.2,0.5,0.2,0.8c0.1,0.5,0.1,0.9,0.1,1.4s-0.1,0.9-0.4,1.3c-0.3,0.3-0.6,0.6-1.1,0.6
				c-0.1,0-0.2,0-0.3,0.1C359.4,121.6,357.3,121.6,355.2,121.6z M358.3,120.9c0.9,0,1.9,0,2.8,0c0.1,0,0.3,0,0.4,0
				c0.4-0.1,0.7-0.3,0.8-0.7c0.1-0.2,0.1-0.5,0.1-0.7c0-0.3,0-0.5-0.1-0.8c0-0.4-0.1-0.8-0.3-1.1c-0.1-0.3-0.3-0.5-0.5-0.8
				s-0.6-0.4-0.9-0.4c-0.1,0-0.2,0-0.3,0.1c-0.3,0.2-0.6,0.4-0.9,0.5c-0.4,0.2-0.8,0.3-1.3,0.3c-0.3,0-0.6-0.1-0.9-0.1
				c-0.5-0.1-0.8-0.4-1.2-0.6c-0.1,0-0.2-0.1-0.2-0.1c-0.4,0-0.8,0.2-1.1,0.5c-0.3,0.4-0.5,1-0.6,1.5c0,0.2-0.1,0.4-0.1,0.6
				c0,0.3,0,0.6,0,0.9c0.1,0.6,0.6,1,1.2,1C356.4,120.9,357.3,120.9,358.3,120.9z"/>
			<path class="st5" d="M355.2,121.7L355.2,121.7c-0.1,0-0.1,0-0.2,0s-0.2-0.1-0.4-0.1c-0.6-0.2-1.1-0.7-1.2-1.4
				c-0.1-0.4-0.1-0.7,0-1.1c0-0.6,0.1-1.2,0.3-1.7c0.2-0.5,0.4-0.9,0.7-1.2c0.3-0.3,0.7-0.5,1.2-0.6c0.2,0,0.5-0.1,0.7,0.1
				c0.2,0.1,0.3,0.2,0.5,0.3c0.3,0.2,0.7,0.4,1.1,0.5s0.8,0,1.2-0.2c0.3-0.1,0.6-0.3,0.8-0.4l0.1-0.1c0.2-0.1,0.4-0.2,0.7-0.1
				c0.2,0,0.5,0.1,0.7,0.2c0.3,0.1,0.6,0.4,0.7,0.6c0.2,0.3,0.4,0.6,0.6,1c0.1,0.3,0.2,0.5,0.2,0.8c0.1,0.5,0.1,1,0.1,1.4
				c0,0.6-0.1,1-0.4,1.3s-0.7,0.6-1.1,0.7c-0.1,0-0.1,0-0.2,0h-0.1L355.2,121.7z M355.2,121.6h6.2h0.1c0.1,0,0.1,0,0.2,0
				c0.4-0.1,0.8-0.3,1-0.6c0.3-0.3,0.4-0.7,0.4-1.2c0-0.4,0-0.9-0.1-1.4c0-0.3-0.1-0.5-0.2-0.8c-0.1-0.4-0.3-0.7-0.5-1
				s-0.5-0.5-0.7-0.5c-0.2-0.1-0.4-0.2-0.7-0.2c-0.3,0-0.5,0-0.6,0.1l-0.1,0.1c-0.3,0.2-0.5,0.3-0.8,0.5c-0.5,0.2-0.9,0.2-1.3,0.2
				c-0.4-0.1-0.8-0.2-1.2-0.5c-0.1-0.1-0.3-0.2-0.5-0.3c-0.2-0.1-0.5-0.1-0.7-0.1c-0.4,0.1-0.8,0.2-1.1,0.5
				c-0.3,0.3-0.5,0.6-0.7,1.2c-0.2,0.5-0.3,1-0.3,1.6c0,0.3,0,0.7,0,1c0.1,0.7,0.5,1.1,1.1,1.3c0.1,0,0.2,0.1,0.3,0.1
				C355.1,121.5,355.2,121.5,355.2,121.6z M356.6,121c-0.4,0-0.8,0-1.2,0c-0.5,0-1.1-0.4-1.2-1c0-0.3,0-0.6,0-0.9V119
				c0-0.2,0-0.4,0.1-0.6c0.1-0.7,0.3-1.1,0.6-1.5c0.3-0.4,0.7-0.6,1.1-0.6l0,0c0.1,0,0.2,0.1,0.3,0.1c0.4,0.3,0.8,0.5,1.2,0.6
				c0.3,0.1,0.6,0.2,0.9,0.1c0.5,0,0.9-0.1,1.3-0.3c0.3-0.1,0.6-0.3,0.9-0.5l0,0c0.1-0.1,0.2-0.1,0.3-0.1c0.4,0,0.7,0.2,0.9,0.4
				c0.2,0.2,0.3,0.5,0.5,0.8c0.1,0.4,0.2,0.7,0.3,1.1c0,0.1,0,0.2,0,0.3c0,0.1,0,0.3,0,0.4c0,0.3,0,0.5-0.1,0.8
				c-0.1,0.4-0.4,0.6-0.9,0.7c-0.1,0-0.3,0-0.4,0c-0.7,0-1.4,0-2.1,0h-0.7C357.7,121,357.2,121,356.6,121z M355.9,116.4
				c-0.4,0-0.8,0.2-1,0.5c-0.3,0.4-0.5,0.9-0.6,1.5c0,0.2-0.1,0.4-0.1,0.6v0.1c0,0.3,0,0.6,0,0.8c0.1,0.6,0.6,0.9,1.1,1
				c0.7,0,1.4,0,2,0c0.3,0,0.6,0,0.9,0h0.7c0.7,0,1.4,0,2.1,0c0.1,0,0.3,0,0.4,0c0.4-0.1,0.7-0.3,0.8-0.7c0.1-0.2,0.1-0.5,0.1-0.7
				c0-0.1,0-0.3,0-0.4s0-0.2,0-0.3c0-0.4-0.1-0.8-0.3-1.1c-0.1-0.3-0.3-0.5-0.4-0.8c-0.2-0.2-0.5-0.4-0.9-0.4c-0.1,0-0.2,0-0.2,0.1
				l0,0c-0.3,0.2-0.6,0.4-0.9,0.5c-0.4,0.2-0.8,0.3-1.3,0.3c0,0,0,0-0.1,0c-0.3,0-0.6-0.1-0.9-0.2c-0.4-0.1-0.8-0.4-1.3-0.6
				C356.1,116.4,356,116.4,355.9,116.4L355.9,116.4z"/>
		</g>
		<g>
			<path class="st5" d="M355.5,112.8c0-1.5,1.3-2.7,2.5-2.8c0.9-0.1,1.6,0.2,2.3,0.8c0.6,0.6,0.8,1.3,0.8,2.2
				c-0.1,1.3-1.2,2.7-2.9,2.6C356.7,115.6,355.5,114.4,355.5,112.8z M356.2,112.8c0,1.2,1,2.2,2.1,2.1c1,0,2.2-0.9,2.1-2.3
				c-0.1-0.9-0.9-2-2.4-1.9C357.1,110.8,356.1,111.7,356.2,112.8z"/>
			<path class="st5" d="M358.2,115.7h-0.1c-1.3-0.1-2.7-1.2-2.7-2.8c0-1.6,1.3-2.7,2.5-2.8c0.1,0,0.2,0,0.3,0c0.8,0,1.5,0.3,2,0.8
				c0.6,0.6,0.9,1.3,0.8,2.2C361,114.3,359.9,115.7,358.2,115.7z M358.2,110.1c-0.1,0-0.2,0-0.3,0c-1.2,0.1-2.5,1.2-2.4,2.7l0,0
				c0,1.6,1.3,2.7,2.6,2.7h0.1c1.6,0,2.7-1.3,2.8-2.5c0-0.8-0.2-1.6-0.8-2.1C359.7,110.4,359,110.1,358.2,110.1z M358.3,115
				c-0.6,0-1.1-0.2-1.5-0.7c-0.4-0.4-0.6-1-0.6-1.5c0-1.1,1-2,1.9-2.1c0.6-0.1,1.2,0.1,1.7,0.5c0.4,0.4,0.7,0.9,0.8,1.5
				c0.1,0.8-0.3,1.3-0.5,1.6C359.5,114.7,358.9,115,358.3,115L358.3,115z M358.2,110.8c-0.1,0-0.2,0-0.2,0c-0.9,0.1-1.8,0.9-1.8,2
				l0,0c0,0.5,0.2,1.1,0.6,1.5s0.9,0.6,1.5,0.6c0,0,0,0,0.1,0c0.5,0,1.1-0.3,1.5-0.7c0.3-0.3,0.6-0.8,0.5-1.5c0-0.5-0.3-1-0.7-1.4
				C359.2,110.9,358.8,110.8,358.2,110.8z"/>
		</g>
	</g>
</g>
</svg>
