<?xml version="1.0" encoding="UTF-8"?><svg id="PATTERN" xmlns="http://www.w3.org/2000/svg" viewBox="0 0 500 500"><defs><style>.cls-1,.cls-2{fill:#d268cc;}.cls-1,.cls-3{opacity:.2;}.cls-4{fill:#f0f0f0;}.cls-5{fill:#fff;}.cls-6,.cls-7{opacity:.5;}.cls-6,.cls-8{fill:#ff9090;}.cls-9{fill:#fafafa;}.cls-10{fill:#e1e1e1;}.cls-11{opacity:.15;}.cls-12{fill:#2b454e;}.cls-13{opacity:.1;}.cls-7{fill:none;}.cls-14{fill:#ffaaa8;}.cls-15{fill:#c76668;}.cls-16{fill:#1a2e35;}</style></defs><rect class="cls-1" x="-1.25" y="-1.25" width="502.5" height="502.5"/><path id="Background" class="cls-2" d="m462.58,345.33c-1.23-15.65-7.6-31.72-21.54-40.21-6.31-3.84-13.55-5.77-20.46-8.38-6.91-2.61-13.83-6.17-18.08-12.21-1.6-2.28-2.79-4.95-2.85-7.74-.09-4.19,2.33-8,4.97-11.25,2.72-3.35,5.79-6.45,8.19-10.04,2.88-4.31,6.02-12.03,2.24-16.77-3.25-4.08-9.8-5.47-14.49-3.64-4.7,1.84-8.22,5.76-11.8,9.32-4.84,4.82-10.21,9.29-16.54,11.86-6.33,2.57-13.75,3.07-19.89.07,8.39-.16,16.3-4.44,22.36-10.24,11.53-11.03,16.17-29.41,31.39-36.49,7.12-3.31,15.17-3.04,22.7-1.55,2.72.54,6.9,2.61,9.64,1.46,3.18-1.33,3.51-5.09,3.03-7.99-3.44-20.8-26.96-24.28-44.22-22.83-7.21.61-14.39,1.84-19.95,6.81-1.21,1.08-2.24,2.35-3.27,3.61-1.82,2.24-3.5,4.53-5.3,6.77-1.92,2.39-4.32,4.34-6.7,6.27-2.91,2.36-5.82,4.71-8.72,7.07-.32.26-.73.54-1.11.39-.36-.13-.5-.55-.58-.92-1.01-4.49,1.3-7.49,3.98-10.77,1.19-1.47,4.77-4.01,3.29-6.23-.58-.87-1.76-1.07-2.8-1.13-4.02-.25-8.03.34-12.01.95-3.58.54-5.9,1.83-7.86,5-1.3,2.11-2.24,4.44-3.73,6.42-.76,1.01-1.73,1.96-2.96,2.25-.63-.69-.73-1.73-.54-2.65.19-.92.64-1.75.99-2.62,1.22-3.01,1.36-6.49,3.26-9.13,2.95-4.1,8.21-6.02,12.54-8.21.44-.22,1.53-1,1.12-1.63-.34-.51-2.48-.01-3.05.07-7.39.99-14.7,3.76-19.92,9.25-1.34,1.4-2.65,3.03-4.53,3.5-.34.08-.73.12-1.01-.09-.19-.14-.29-.37-.34-.59-.27-1.13.48-2.22,1.19-3.14,3.38-4.35,6.92-8.84,11.81-11.39,3.43-1.79,7.33-2.52,10.82-4.2.3-.15.62-.33.73-.64.47-1.38-3.56-.39-4.06-.29-1.95.37-3.88.9-5.77,1.5-3.76,1.2-7.41,2.71-11.13,3.99-1.05.36-2.69.35-2.76-.76-.03-.5.34-.93.7-1.27,3.57-3.45,8.23-5.31,12.92-6.68,2.34-.68,4.71-1.26,7.07-1.91,1.2-.33,2.4-.67,3.58-1.06,1.01-.33,2.28-.35,3-1.23-.05-.78-1.06-1.04-1.85-1.06-4.28-.11-8.58.46-12.68,1.69-.52.16-1.06.32-1.6.26-.54-.06-1.09-.43-1.17-.96-.09-.57.35-1.07.77-1.46,2.05-1.83,4.67-2.9,7.32-3.63,8.79-2.44,18.01-1.89,27.01-1.42,17.71.92,36.75,1.7,53.25-5.98,8.52-3.97,17.92-12.9,16.52-23.19-2.76-20.29-33.3-7.29-41.04-23.44-3.76-7.83,1.05-16.8,4.41-24.81,3.36-8.01,4.05-19.53-3.84-23.17-6.57-3.03-16.25.8-22.08,4.04-8.86,4.92-15.55,13.26-19.6,22.41-2.2,4.97-2.83,10.44-4.42,15.6-.72,2.33-1.67,4.58-2.46,6.88-.84,2.44-1.89,4.87-3.59,6.85-1.37,1.6-3.1,2.83-4.82,4.06-1.99,1.42-3.98,2.83-5.97,4.25-.18.13-.37.26-.59.3-1.6.25-1.25-2.61-.9-3.47.34-.84.94-1.55,1.52-2.24,1.16-1.37,2.31-2.74,3.47-4.1.88-1.05,1.82-2.27,1.64-3.63-.03-.24-.11-.48-.27-.66-.31-.34-.83-.35-1.29-.31-4.46.38-8.65,2.67-12.24,5.26-2.76,1.98-5.19,4.55-6.47,7.69-.31.76-2.83,8.16-4.5,6.25-.12-.14-.14-.33-.15-.5-.19-2.69-.37-5.44.42-8.01.63-2.02,1.83-3.82,3.13-5.49.97-1.25,1.99-2.44,3.07-3.59.5-.53,2.03-1.64,1.86-2.48-.27-1.27-2.5-.61-3.25-.34-4.13,1.52-8.24,3.25-11.77,5.86-2.51,1.85-4.66,3.66-7.88,3.76-1.55.05-1.97-.89-1.07-2.09,2.05-2.73,4.48-5.46,7.36-7.27,3.23-2.03,6.59-3.85,10.05-5.43.84-.38,1.72-.67,2.5-1.16.55-.34,2.21-1.83.56-1.87-3.22-.08-6.37.79-9.34,1.97-1.51.6-2.98,1.29-4.44,2-1.21.59-2.31,1.35-3.69,1.5-1.4.15-5.4-.92-2.93-2.74,2.33-1.72,4.65-3.49,7.21-4.85,4.01-2.14,8.47-3.36,13.01-3.61.9-.05,1.85-.08,2.59-.6.73-.52,1.04-1.74.34-2.3-.28-.23-.65-.3-1.01-.34-2.77-.36-5.51.42-8.14,1.19-1.44.42-2.86.96-4.34,1.16-.86.12-3.13.34-3.75-.44-.22-.27-.25-.68-.07-.98.12-.2.32-.35.51-.48,3.36-2.41,7.22-3.96,11.31-4.61,8.26-1.31,15.79-.84,21.21-8.38,4.24-5.89,6.97-13.67,6.46-20.95-.7-10.04-7.87-15.02-17.86-15.08-6.41-.04-12.66,2.28-18.08,5.69-6.24,3.92-11.91,9.44-19.19,10.62-5.05.82-10.25-.61-14.82-2.91s-8.67-5.43-12.92-8.29c-8.12-5.46-17.04-10.01-26.66-11.82-9.62-1.81-20.04-.67-28.33,4.54-3.76,2.36-6.99,5.48-10.61,8.06-8.45,6.01-18.3,4.41-28,6.24-5.37,1.02-11.03,3.14-14.62,7.45-2.96,3.56-4.09,8.72-3.95,13.26.16,5.1,2.05,8.78,5.59,12.26,1.36,1.33,2.72,2.68,3.87,4.19,1.71,2.25,2.91,4.83,4.1,7.38,1.45,3.12,2.9,6.25,4.36,9.37.16.34.32.77.1,1.08-.2.29-.6.32-.95.32-4.23-.11-6.4-2.84-8.73-5.96-1.04-1.39-2.51-5.15-4.82-4.33-.91.32-1.35,1.33-1.64,2.25-1.12,3.53-1.49,7.25-1.84,10.93-.31,3.31.31,5.68,2.7,8.14,1.59,1.63,3.46,2.99,4.89,4.76.73.9,1.36,1.98,1.34,3.14-.76.41-1.71.27-2.48-.11-.77-.38-1.42-.97-2.12-1.47-2.41-1.76-5.49-2.67-7.41-4.95-3-3.56-3.53-8.68-4.52-13.03-.1-.44-.55-1.59-1.21-1.36-.53.18-.56,2.21-.62,2.74-.77,6.82.06,13.96,3.79,19.85.95,1.51,2.11,3.05,2.11,4.83,0,.32-.06.68-.31.88-.17.14-.39.18-.61.17-1.07,0-1.88-.93-2.54-1.77-3.13-3.99-6.34-8.16-7.52-13.09-.83-3.47-.6-7.11-1.33-10.6-.06-.3-.15-.63-.41-.8-1.13-.73-1.14,3.09-1.17,3.56-.11,1.83-.07,3.66.05,5.49.23,3.62.76,7.22,1.07,10.83.09,1.02-.29,2.48-1.3,2.29-.45-.09-.75-.51-.98-.91-2.28-3.96-2.9-8.54-3.07-13.03-.09-2.24-.07-4.49-.12-6.73-.02-1.15-.06-2.29-.14-3.44-.07-.98.2-2.11-.42-2.95-.71-.13-1.17.72-1.36,1.41-1.06,3.8-1.51,7.76-1.33,11.7.02.5.05,1.02-.12,1.48-.18.47-.63.87-1.12.83-.53-.05-.88-.55-1.13-1.02-1.17-2.24-1.54-4.82-1.6-7.35-.28-11.29,4.44-22.07,7.22-32.81,1.16-4.46,1.88-9.18,1.15-13.78-.52-3.29-.7-7.06-4.24-8.59-2.86-1.24-5.87.22-7.82,2.39-4.35,4.85-7.08,11.18-12.25,15.14-5.7,4.36-13.56,5.19-19.09,9.77-10.17,8.42-7.52,25.25.32,35.88,7.84,10.63,19.47,17.97,27.38,28.55,7.94,10.62,12.72,21.43,26.34,25.74-5.67.41-11.49-.03-16.76-2.15-7.39-2.97-13.08-8.93-19.19-14.03-7.12-5.94-15.4-11-24.6-12.18-9.2-1.18-19.41,2.25-24.3,10.13-2.95,4.76-3.71,10.75-2.37,16.18,1.83,7.37,4.77,14.68,11.66,18.64,5.19,2.99,11.6,4.72,17.45,3.36,7.07-1.64,14.77-1.55,21.85-.04,3.78.81,7.48,2.05,11.33,2.42,1.89.18,3.74.56,5.63.84.5.07,1.09.22,1.25.7.1.31-.02.64-.18.92-1.02,1.83-3.31,2.55-5.41,2.66-2.84.16-5.63-.46-8.43-.8-1.68-.2-6.29-1.08-7.01,1.25-.3.97.53,1.91,1.34,2.53,2.04,1.54,4.42,2.55,6.83,3.39,8.7,3.05,18.09,4.09,27.24,3.04.57-.06,1.15-.14,1.7.04s1.03.67,1,1.24c-.04.57-.55.98-1.04,1.27-2.51,1.46-5.54,1.66-8.44,1.76-3.77.13-7.41.14-11.16-.43-3.98-.6-7.9-1.53-11.89-2.07-.51-.07-1.09-.11-1.48.22-1.59,1.32,3.93,3.83,4.63,4.16,2.61,1.23,5.29,2.32,8.01,3.27,5.53,1.92,11.26,3.24,17.06,3.93.82.1,1.69.2,2.35.71,1.26.97.89,2.31-.4,3.02-1.51.83-3.86.58-5.54.53-4.08-.12-8.12-.95-12.03-2.07-4.63-1.34-9.04-3.41-13.69-4.64-.47-.12-1.17-.07-1.18.41,0,.22.17.4.32.55,5.93,5.61,14.17,7.85,21.71,10.99.51.21,1.1.54,1.12,1.1.02.69-.83,1.01-1.51,1.11-5.36.77-11.02-1.37-15.86-3.57-4.42-2.01-8.6-4.51-12.83-6.9-.48-.27-2.36-1.36-2.8-.63-.23.37.53,1.74.77,2.06,2.62,3.41,6.17,5.97,9.66,8.48.77.55,1.54,1.11,2.32,1.66,2.55,1.83-.84,2.46-2.41,1.83-5.5-2.23-10.3-5.61-14.75-9.47-6.95-6.03-13.6-12.96-23.35-12.18-8.3.66-16.13,6.45-19.04,14.27-3.73,10,.32,22.09,8.79,28.58,2.35,1.8,4.96,3.21,7.58,4.57,5.76,2.99,11.65,5.8,17.81,7.87,3.1,1.04,6.36,2.06,9.62,2.5,3.27.45,6.76-.05,10.06-.18,6.92-.26,13.85-.41,20.77-.18,4.31.14,8.65.28,12.89,1.13,1.32.26,4.58.48,5.12,2.02.87,2.45-4.38,2.05-5.56,2.11-4.31.23-8.7-.27-13.05-.08-.81.04-1.64.09-2.38.43-.15.07-.3.16-.39.29-.2.31,0,.76.32.94.32.19.71.19,1.09.19,4.28,0,8.56.47,12.73,1.4,1.86.42,3.89.74,5.61,1.53,1.83.84,3.59,1.87,5.12,3.18.91.78,1.81,2,1.27,3.07-1.14-.08-2.23-.5-3.31-.88-4.24-1.52-8.66-2.57-13.13-3.13-2.24-.28-4.49-.44-6.74-.47-.45,0-4.72-.1-4.07,1.12.13.24.42.34.69.42,1.68.45,3.43.57,5.16.7,2.9.22,5.81.46,8.63,1.16,2.98.74,5.82,1.98,7.99,4.16,2.23,2.25,4.11,4.72,6.21,7.09.26.29.54.63.51,1.03-.05.82-1.21.97-1.99.73-2.74-.86-4.59-3.36-6.96-4.99-3.08-2.11-6.94-2.66-10.65-3.15-2.26-.3-4.51-.6-6.78-.77-.47-.04-1.06,0-1.26.42-.28.58.43,1.12,1.03,1.38,3.41,1.46,7.91,2.66,10.31,5.7,1.22,1.55,1.73,3.53,2.18,5.45.47,2,.9,4.01,1.31,6.03.03.16.06.34-.01.49-.11.2-.37.26-.6.28-3.78.19-4.43-5.5-6.4-7.72-1.55-1.76-4.38-3.29-6.57-4.03-2.15-.73-4.37-1.36-6.64-1.42-1.11-.03-2.29.09-3.18.75-.18.14-.36.31-.4.53-.04.19.03.39.11.57,1.84,4.29,7.26,5.39,8.88,9.95.23.65.47,1.85.06,2.48-.61.93-1.37.24-2.15-.21-2.2-1.27-4.38-2.6-6.56-3.89-3.36-1.99-6.78-4.04-9.36-6.98-3.24-3.7-5.55-7.26-10.35-9.06-7.38-2.76-15.29-4.08-23.17-3.85-3.86.11-7.76.6-11.37,1.97-6.52,2.47-10.33,7.25-10.77,14.26-.3,4.71,1.11,9.26,3.33,13.37,2.2,4.07,5.05,6.39,8.58,9.42,5.81,4.98,12.06,10.81,12.53,18.44.36,5.87-2.85,11.27-5.46,16.53-3.86,7.75-6.66,16.13-7.15,24.77-.33,5.75.42,11.61,2.43,17.02,3.78,10.17,13.59,16.9,24.3,17.84,9.88.87,19.83-2.91,27.55-9.13,1.51-1.22,2.96-2.55,4.01-4.18,3.02-4.71,2.12-10.8,2.79-16.35.5-4.12,1.9-8.03,4.18-11.48.13-.2.26-.4.46-.53.29-.19.7-.18.98.03.8.59.67,2.86.58,3.73-.15,1.5-.63,2.93-1,4.39-.67,2.66-1.34,5.42-.88,8.18.06.36.15.73.38,1,.59.68,1.8.33,2.29-.42.49-.75.49-1.71.5-2.61.08-4.54,1.13-9.05,3.11-13.14,1.27-2.61,2.95-4.99,4.58-7.38,1.73-2.53,2.95,1.42,2.85,2.83-.09,1.38-.81,2.51-1.36,3.75-.66,1.49-1.29,2.98-1.83,4.52-1.07,3.01-1.81,6.19-1.61,9.4.1,1.65,1.53-.07,1.85-.63.46-.8.71-1.7,1.06-2.54,1.45-3.52,3.14-6.95,5.05-10.25,1.7-2.95,4.34-5.48,6.99-7.63,1.16-.94,2.12-.55,2.13,1,.02,3.22-1.7,5.44-3.46,8.01-2.48,3.63-4.05,7.8-5.42,11.99-.25.75-.82,3.01.46,3.23.85.14,1.9-1.43,2.41-1.95,1.1-1.12,2.26-2.19,3.47-3.21,1.63-1.36,3.37-2.63,5.37-3.34,2.54-.89,5.3-.82,7.99-.73.18,0,.37.02.51.13,1.98,1.6-5.32,4.39-6.07,4.73-3.09,1.4-5.57,3.92-7.44,6.75-2.44,3.69-4.57,7.97-4.79,12.43-.02.46,0,.98.36,1.28.19.16.43.22.67.24,1.36.13,2.55-.85,3.57-1.78,1.32-1.21,2.65-2.41,3.97-3.62.67-.61,1.36-1.23,2.19-1.61.85-.38,3.7-.83,3.5.77-.03.22-.15.41-.27.6-1.34,2.04-2.68,4.08-4.02,6.12-1.16,1.76-2.33,3.54-3.87,4.97-1.92,1.77-4.3,2.91-6.71,3.85-2.27.88-4.48,1.92-6.78,2.72-5.1,1.79-10.54,2.61-15.43,5-7.25,3.54-19.18,9.49-17.42,19.38,2.18,12.3,16.57,13.73,26.64,11.77,17.24-3.35,32.83-13.9,49.08-20.28,15.54-6.1,32.25-10.84,48.79-8.57,2.28.31,4.59.78,6.59,1.9,6.55,3.67,2.85,10.32-.88,14.72-5.4,6.39-13.44,15.05-6.67,23.4,4.39,5.42,13.07,6.47,19.54,7.05,9.01.81,18.22.83,26.97-1.49,8.75-2.33,17.05-7.19,22.2-14.64,3.48-5.04,5.55-11.23,10.29-15.11,11.49-9.4,27.33-2.18,39.61.87,7.78,1.93,15.83,3.08,23.86,2.82,14.38-.46,29.15-6.05,39.25-16.49,15.47-16,17.81-46.39-1.3-60.69-3.32-2.49-6.93-4.37-10.19-6.97-3.47-2.77-5.46-6.7-7.21-10.69-.81-1.85-1.62-3.71-2.43-5.56-.3-.68-.6-1.41-.44-2.14.43-1.94,2.73-.77,3.64,0,2.57,2.16,3.38,5.39,5.75,7.73.73.73,3.7,3.29,4.75,2.07.31-.36.37-.88.38-1.36.09-4.53-2.27-8.7-4.55-12.62-1.17-2-2.46-4.12-4.54-5.13-1.03-.5-2.18-.69-3.31-.87-2.11-.34-4.21-.68-6.32-1.03-2.42-.39-5.22-1.07-6.21-3.31-.13-.3-.23-.66-.08-.96.22-.46.83-.54,1.34-.55,1.76-.05,3.52-.09,5.28-.14,2.12-.05,4.34-.19,6.41.32,1.9.47,3.77.46,5.53,1.48,2.09,1.21,3.66,3.23,5.87,4.18.14.06.28.11.43.07.36-.1.34-.62.21-.97-.54-1.46-1.95-2.75-2.97-3.9-1.04-1.17-2.15-2.32-3.52-3.08-2.45-1.37-5.4-1.34-8.2-1.58-1-.08-2.03-.22-2.87-.76-.81-.52-1.38-1.41-1.52-2.36-.04-.31-.03-.66.2-.88.19-.18.48-.22.74-.24,2.58-.22,5.17-.44,7.75-.66,1.83-.16,3.78-.29,5.56.29,4.24,1.39,7.6,5.74,10.71,8.71.58.55,1.47,1.13,2.1.64-.46-4.25-3.04-8.22-6.73-10.37-3.41-1.99-7.8-2.61-10.23-5.72-.61-.78-1.02-1.98-.32-2.68.6-.6,1.61-.39,2.42-.14,2.31.71,4.62,1.43,6.92,2.17.79.25,1.58.51,2.35.81,2.85,1.11,5.28,3.07,7.23,5.39,2.07,2.47,2.83,5.92,4.16,8.86.24.52,1.29,1.89,1.32.52.05-2.52-.4-5.05-1.31-7.4-.67-1.72-1.59-3.34-2.15-5.1-.57-1.76-.75-3.74.04-5.4.32-.68.76-.3,1.16.11,2.18,2.27,3.46,5.22,5.18,7.8,1.26,1.89,2.2,4.02,2.94,6.16,1.57,4.54,2.33,9.31,3.8,13.85,1.7,5.27,3.21,10.62,4.81,15.92.78,2.58,1.57,5.18,2.67,7.64,2.11,4.73,5.91,9.97,10.67,12.28,3.11,1.51,6.63,1.76,10.37-.2,6.36-3.34,9.99-9.99,12.08-16.6,2.23-7.06,2.41-13.2,1.85-20.39Z"/><path id="Shadow" class="cls-11" d="m130.47,355.41c19.18,8.32,38.3,17.04,55.82,28.46,15.24,9.94,29.26,21.92,45.68,29.76,13.02,6.21,26.31,11.25,40.64,12.87,10.7,1.21,25.3.57,35.32-3.39,10.02-3.96,18.32-13.11,19.38-23.83,7.73.32,13.58.11,20.73-2.83,6.06-2.5,11.8-8.59,12.88-15.09,1.37-8.18-2.25-17.81-5.55-23.2-7-11.43-16.69-17.53-27.59-25.33-6.59-4.72-13.51-8.97-20.7-12.71-18.42-9.58-38.58-15.86-59.22-18.2-9.59-1.09-19.51-1.86-28.91.23-8.38,1.86-17.23,2.69-21.52,11.42-3.04,6.18-1.79,13.52-.48,20.28-17.79-1.7-35.65-2.59-53.52-2.69-6.5-.03-18.51.96-22.8,6.97-5.73,8.02,3.42,14.49,9.85,17.28Z"/><g id="Character"><g id="Bottom"><path class="cls-8" d="m254.63,375.27s-43.79-16.51-49.19-21.04c-4.51-3.78-1.8-12.83-8.06-14.37-7.21-1.78-12.36,2.2-16.99,6.59-4.38,4.15-10.11,6.02-20.91,2.18-10.8-3.84-21.21-9.32-25.59-7.15-4.38,2.18-1.45,5.66,17.43,14.65,10.85,5.17,24.67,11.17,33.52,14.78,11.51,4.69,16.98,9.32,17.92,9.97,11.55,8.33,13.67,10.11,27.32,18.54,27.31,16.86,43.37,21.31,65.09,17.06l-40.55-41.22Z"/><path class="cls-12" d="m213.64,359.62c-8.7,5.01-12.91,10.55-13.42,20.19,0,0,5.88,4.55,15.17,10.98,11.13,7.71,38.08,25.24,56.07,27.07,27.9,2.85,37.45-4.33,37.45-4.33l-95.27-53.91Z"/><path class="cls-16" d="m205.57,365.03c14.28,24.79,49.19,40.22,60.14,41.37-3.88-3.28-9.56-14.4-14.95-26.46l-37.11-21.31c-3.34,1.98-6.01,4.05-8.08,6.4Z"/><path class="cls-12" d="m123.67,339.42c-.64-2.28.45-4.44,1.02-5.14,3.85-4.71,8.78-7.19,12.13-8.93,3.82-1.99,8.78-2.78,13.05-2.51,8.55.53,15.92,7.11,24.47,7.62,6.39.38,12.19-2.97,18.42-4.53,2.38-.6,4.41-.63,5.99-.53,1.71.11,4.42,1.32,5.03,2.83.81,1.98,1.07,3.8.47,5.66-.39,1.2-2.76,3.45-4.47,4.7-2.34,1.71-5.24,2.19-8.73,3.24-8.77,2.66-48.05,3.61-67.39-2.39Z"/><path class="cls-2" d="m205.65,351.76c.03.81.13,1.58.22,2.39.12,1.08-.46,1.43-1.35,2.05-3.61,2.54-8.15,2.29-12.26,1.56-3.2-.57-6.45-1.5-9.64-.86-3.81.77-6.84,3.64-9.68,6.37-.58.56-1.17,1.3-1.54,2.07,0,0-22.08-9.72-32.12-15.19-5.09-2.77-10.96-5.36-14.97-9.74-.22-.24.97-1.78,1.1-1.93,1.3-1.56,3.17-2.46,5.08-2.93,3.13-.77,6.53-1.16,9.7-.67,4.94.76,9.74,2.1,14.64,3.1,4.46.91,8.79,1.51,13.29,1.92,4.85.45,9.73.53,14.6.25,4.61-.27,9.04-.91,13.29-2.9,1.63-.76,3.2-1.69,4.56-2.89.85-.75,1.45-1.82,2.08-2.76.69-1.01,1.1-2.7,1.8-1.27,1.68,3.43,2.02,8.69,1.79,12.52-.16,2.64-.5,5.26-.59,7.9-.01.34,0,.67,0,.99Z"/><path class="cls-3" d="m205.65,351.76c.03.81.13,1.58.22,2.39.12,1.08-.46,1.43-1.35,2.05-3.61,2.54-8.15,2.29-12.26,1.56-3.2-.57-6.45-1.5-9.64-.86-3.81.77-6.84,3.64-9.68,6.37-.58.56-1.17,1.3-1.54,2.07,0,0-22.08-9.72-32.12-15.19-5.09-2.77-10.96-5.36-14.97-9.74-.22-.24.97-1.78,1.1-1.93,1.3-1.56,3.17-2.46,5.08-2.93,3.13-.77,6.53-1.16,9.7-.67,4.94.76,9.74,2.1,14.64,3.1,4.46.91,8.79,1.51,13.29,1.92,4.85.45,9.73.53,14.6.25,4.61-.27,9.04-.91,13.29-2.9,1.63-.76,3.2-1.69,4.56-2.89.85-.75,1.45-1.82,2.08-2.76.69-1.01,1.1-2.7,1.8-1.27,1.68,3.43,2.02,8.69,1.79,12.52-.16,2.64-.5,5.26-.59,7.9-.01.34,0,.67,0,.99Z"/><path class="cls-9" d="m148.13,336.39c-4.13,5.83-4.1,16.16-4.1,16.16,0,0-7.09-3.07-14.05-7.08-6.67-3.84-6.3-6.05-6.3-6.05,0,0,.3-1.55,1.95-3.03,1.77-1.59,5.02-3.1,9-2.78,7.69.63,13.51,2.78,13.51,2.78Z"/><path class="cls-9" d="m147.83,349.09c-.5,1.43-.54,2.55-.42,5.12,0,0,1.16.92,2.19,1.06-.08-.26.07-3.75.53-5.26.46-1.51-1.8-2.35-2.3-.92Z"/><path class="cls-9" d="m154.54,352.27c-.5,1.43-.58,2.55-.46,5.13,0,0,1.2.91,2.23,1.04-.12-.64.07-3.74.53-5.25.46-1.51-1.8-2.35-2.3-.92Z"/><path class="cls-9" d="m161.26,355.44c-.5,1.43-.54,2.5-.42,5.08,0,0,1.16.97,2.19,1.1-.08-.26.07-3.75.53-5.26.46-1.51-1.8-2.35-2.3-.92Z"/><path class="cls-10" d="m204.45,330.34c-.04-.78-.26-1.49-.65-2.13,0,0-2.21,4.67-10.11,7.38-7.49,2.56-18.19,3.81-33.63.13-15.45-3.68-24.36-7.08-31.33-4.23-6.97,2.85-5.05,7.93-5.05,7.93,0,0,3.33-6.33,13.13-5.14,9.43,1.15,23.32,6.3,36.25,6.79,13.5.52,27.13-1.26,31.4-10.73Z"/><path class="cls-12" d="m360.62,356.37c-4.31-15.38-16.99-26.54-36.09-42.54-16.2-13.57-46.15-35.55-46.15-35.55h-.01s0,0,0,0l-85.31-16.99c-3.46,15.57-14.82,26.56-14.79,48.21.02,15.75,2.48,37.97,30.03,58.42,16.71,12.41,30.04,22.15,42.02,29.75,12.65,8.04,41.24,23.86,57.06,16.63,12.1-5.53,14.18-16.15,13.75-25.03,0,0,.01,0,.02,0,1.93.18,3.86.28,5.65.3,2.09.06,4,.04,5.51.04,5.45-.02,11.51-1.63,16.35-4.12,10.36-5.32,15.42-16.8,11.96-29.13Z"/><path class="cls-16" d="m326.79,389.58c-1.79-.02-3.74-.12-5.67-.31-2.78-17.22-67.65-67.03-67.65-67.03,4.51-2.19,14.96-7.79,18.46-14.08-1.43,8-6.03,12.09-10.49,15.34,6.85,6.14,35.64,30.4,43.32,37.7,8.07,7.68,18.12,17.52,22.02,28.38Z"/></g><g id="Top"><path class="cls-16" d="m256.34,177.13c24.3,1.99,24.03,4.28,38.93,17.8,10.97,9.95,22.21,20.15,22.21,20.15l8.31,28.95s-8.32,9.3-23.22.71c-5.28-3.04-9.33-4.63-27.79-17.62l-18.43-49.98Z"/><path class="cls-4" d="m281.86,238.56c9.5-13.72,3.04-31.34-5.68-41.02-7.63-8.47-19.84-20.41-19.84-20.41-14.48-1.04-38.06-2.48-57.11,1.25-6.7,1.31-9.9,2.22-17.03,4.02,0,0-10.62,19.04-9.43,37.25.55,8.41,1.1,21.04,8.28,46.83,2.23,8.02-1.15,16.95-2.55,28.17-1.39,11.18-.6,17.44-.6,17.44,16.56-2.57,23.9-15.56,23.9-15.56,0,0,21.1,14.89,48.16,12.43,30.76-2.8,38.98-24.51,38.98-24.51l-8.5-23.77,1.42-22.11Z"/><path class="cls-12" d="m256.34,177.13c-14.48-1.04-38.06-2.48-57.11,1.25-6.7,1.31-9.86,1.86-16.98,3.66,0,0-4.58,15.86-3.39,34.07.06.97.12,2.05.18,3.22l9.12,4.11c8.56-21.61,13.34-36.75,13.34-36.75,0,0,19.6,17.85,42.75,14.17,23.15-3.69,9.53-18.04,9.53-18.04,8.07,3.76,15.22,7.9,20.6,12.75-7.36-9.43-18.04-18.43-18.04-18.43Z"/><g id="Head"><path class="cls-16" d="m274.54,125.85c-.06,1.03-.13,2.06-.18,3.08-.1,1.79-.16,3.64.48,5.32.63,1.68,2.14,3.16,3.93,3.21-3.03,2.01-7.42,1.67-10.1-.79-.29,2.2.27,3.57.52,4.33.57,1.73,1.47,3.34,2.26,4.97,2.67,5.52,4.06,12.16,1.51,17.74-2.53,5.54-8.42,8.86-14.35,10.23.97-2.16,1.48-4.52,1.51-6.88-1.31,2.35-3.98,3.56-6.55,4.37-4.02,1.26-8.22,1.91-12.43,1.93-10.55.05-21.43-.2-31.55-3.55-3.38-1.12-6.75-2.65-9.08-5.34.12,1.81,1.19,3.53,2.75,4.46-6.05.31-12.17-2.75-15.55-7.79-3.38-5.03-3.9-11.86-1.32-17.34,2.58-5.48,4.88-9.32,4.76-15.51-.13-6.49-.76-13.09.74-19.48,1.86-7.92,7.02-14.94,13.81-19.43,6.25-4.14,14.05-6.43,21.54-6.4,4.72.02,11.34,1,14.74,4.66.17.18.34.37.56.48.28.13.61.1.92.07,6.37-.65,13.83-.8,19.41,2.81,7.06,4.58,10.9,12.34,11.77,20.53.5,4.76.2,9.55-.09,14.33Z"/><path class="cls-14" d="m258.72,107.83c3.48,2.5,4.81,6.44,5.74,10.47,1.57,6.84,1.66,14,1.25,20.97-.94,15.95-5.33,23.73-10.59,26.75-3.17,1.82-11.02,2.34-15.93,1.75,0,0-.11,2.1-.23,4.11-.15,2.47.63,4.05,5.37,4.59,0,0,21.01,19.92-3.28,20.48-17.89.41-31.44-8.17-41.83-18.57,6.09-1.63,7.66-3.1,8.38-8.3,1.29-9.36,1.54-20.84,1.54-20.84,0,0-3.85,4.74-9.49.13-6.36-5.2-7.41-15.13-2.25-19.18,6.29-4.94,11.36-.8,13.59,3.8,2.04,4.2,6.86.24,4.74-8.84,3.11-1.89,4.83-4.9,5.96-8.26,1.03-3.08.78-6.76,2.99-9.36,1.72-2.02,4.6-2.76,7.24-2.46s5.08,1.49,7.4,2.78c1.8,1,3.86,2.11,5.82,1.45,1.19-.4,2.06-1.39,3.1-2.11,3.26-2.25,7.42-1.57,10.5.65Z"/><path class="cls-13" d="m265.9,134.5c.1-5.43-.22-10.91-1.43-16.2-.92-4.03-2.26-7.96-5.74-10.47-3.08-2.22-7.24-2.9-10.5-.65-1.03.71-1.91,1.7-3.1,2.11-1.95.66-4.01-.45-5.82-1.45-2.32-1.29-4.76-2.48-7.4-2.78-2.64-.3-5.52.43-7.24,2.46-2.21,2.6-1.95,6.28-2.99,9.36-1.13,3.36-2.85,6.37-5.96,8.26.9,3.84.55,6.75-.3,8.53.75.42,1.61.76,2.63,1,3.97.93,7.45.73,11.19-.88,4.23-1.82,8.64-3.26,13.21-3.82,4.25-.52,8.23.17,12.33,1.2,3.64.92,6.93,3.3,10.78,3.33.11,0,.22,0,.33-.01Z"/><path class="cls-16" d="m228.73,125.22l6.65-3.37c1.01,1.82.33,4.04-1.5,4.97-1.84.93-4.14.21-5.15-1.61Z"/><path class="cls-16" d="m261.56,125.39l-6.53-3.59c-1.07,1.78-.47,4.03,1.33,5.02,1.8.99,4.13.35,5.2-1.43Z"/><polygon class="cls-8" points="244.56 125.87 244.58 142.77 254.21 139.24 244.56 125.87"/><path class="cls-8" d="m235.66,134.97c.16,2.37-2.36,4.48-5.63,4.71s-6.06-1.52-6.22-3.89,2.36-4.48,5.63-4.71c3.27-.22,6.06,1.52,6.22,3.89Z"/><path class="cls-8" d="m267.59,136.26c-.35,2.35-3.27,3.86-6.52,3.37-3.24-.49-5.59-2.79-5.23-5.15.35-2.35,3.27-3.86,6.52-3.37,3.24.49,5.59,2.79,5.23,5.15Z"/><path class="cls-15" d="m235.46,133.67c-.1-.46-.45-.89-.78-1.19-.38-.35-.82-.68-1.29-.91-1.04-.5-2.32-.84-3.47-.53-.21.06-.26.26-.18.45.05.1.14.19.23.25.04.02.29.11.3.05,0-.02.77.06.85.07.21.03.42.07.63.12.42.1.81.27,1.19.47.41.22.77.49,1.14.78.26.21.67.49.87.76.06.08.1.16.17.22.07.06.18.09.26.04.07-.05.1-.14.1-.23,0-.12,0-.24-.03-.36Z"/><path class="cls-15" d="m261.51,130.89c-.3-.11-.78-.09-1.01-.09-.48,0-.96.06-1.42.18-.49.12-.98.3-1.41.57-.68.43-1.36,1.15-1.58,1.94-.23.8.52.42.83.1.53-.55,1.03-1.04,1.72-1.39.42-.22.89-.33,1.35-.42.54-.09,1.11-.06,1.64-.19.23-.05.19-.42.08-.56-.04-.06-.11-.1-.2-.13Z"/><path class="cls-15" d="m246.77,153.23c-.76.38-1.55.09-2.23-.3-.39-.23-.8-.44-1.22-.6-1.51-.56-3.1.02-4.61-.47-.56-.18-1.14-.66-1.04-1.25.26-1.58,3.27-2.11,4.54-2.15,1.34-.04,2.7.41,3.7,1.33.63.58,2.17,2.77.86,3.43Z"/><path class="cls-8" d="m245.03,153.18c-1.07-2.21-3.32-3.74-5.94-3.74-.19,0-.38.01-.57.03-.45.3-.77.68-.85,1.15-.1.58.48,1.07,1.04,1.25,1.51.48,3.1-.1,4.61.47.43.16.83.37,1.22.6.16.09.32.17.48.25Z"/><path class="cls-8" d="m213.35,149.45s-.94,9.01,6.36,15.34c6.44,5.6,15.3,6.56,19.26,6.74l.21-3.76h0c-4.31-.56-11.67-1.79-16.97-5.23-2.83-1.84-7.54-7.07-8.86-13.09Z"/><path class="cls-16" d="m238.05,130.94c.25,1.73-1.27,1.06-2.99,1.3-1.73.25-3.01,1.31-3.26-.41-.25-1.73.96-3.33,2.68-3.57,1.73-.25,3.33.96,3.57,2.68Z"/><path class="cls-16" d="m259.44,131.89c-.31,1.72-1.39.75-3.11.44-1.72-.31-3.42.14-3.11-1.57s1.96-2.85,3.67-2.54c1.72.31,2.85,1.96,2.54,3.67Z"/><path class="cls-15" d="m239.64,121.42c-.03-.17-.08-.34-.14-.5-.15-.4-.39-.74-.68-1.05-.28-.3-.62-.55-.99-.73-.26-.13-.54-.22-.82-.25-.17-.01-.38,0-.48.17-.16.28.12.56.36.66-.21-.09.05.03.06.03.04.02.09.03.13.05.07.03.14.07.21.1.02.01.03.01.03.01,0,0,0,0,.02.01.04.02.07.04.11.07.06.04.12.08.18.12,0,0,0,0,.01,0,0,0,0,0,0,0,.03.03.07.06.1.08.05.05.1.1.15.15.03.03.06.06.09.1,0,0,0,0,0,0,0,0,0,0,.01.02.05.06.09.13.14.19.04.07.08.13.12.2,0,0,.02.04.03.06.01.02.02.04.05.09,0-.02,0-.02,0,0,.06.14.12.28.16.42.05.18.08.35.16.51.03.05.04.1.06.15.04.15.09.25.19.37.12.13.35.2.5.08.1-.09.14-.22.18-.35.05-.16.1-.35.1-.51,0-.1-.02-.21-.04-.3Z"/><path class="cls-15" d="m251.79,122.1c.03-.17.08-.34.14-.5.15-.4.39-.74.68-1.05.28-.3.62-.55.99-.73.26-.13.54-.22.82-.24.17-.01.38,0,.48.17.16.28-.12.56-.36.66.21-.09-.05.03-.06.03-.04.02-.09.03-.13.05-.07.03-.14.07-.21.1-.02.01-.03.01-.03.01,0,0,0,0-.02.01-.04.02-.07.04-.11.07-.06.04-.12.08-.18.12,0,0,0,0-.01,0,0,0,0,0,0,0-.03.03-.07.06-.1.08-.05.05-.1.1-.15.15-.03.03-.06.06-.09.1,0,0,0,0,0,0,0,0,0,0-.01.02-.05.06-.09.13-.14.19-.04.07-.08.13-.12.2,0,0-.02.04-.03.06-.01.02-.02.04-.05.09,0-.02,0-.02,0,0-.06.14-.12.28-.16.42-.05.18-.08.35-.16.51-.03.05-.04.1-.06.15-.04.15-.09.25-.19.37-.12.13-.35.2-.5.08-.1-.09-.14-.22-.18-.35-.05-.16-.1-.35-.1-.51,0-.1.02-.21.04-.3Z"/><path class="cls-16" d="m241.15,106.68c.12.27.24.55.34.83.16.43.32,1.07.25,1.52-1.69-.67-2.09-1.17-3.23-1.64-4.44-1.82-10.46.3-13.2,4.03-1.65,2.24-2.53,4.97-3.05,7.7-.52,2.74-.71,5.52-1.13,8.28-.54,3.59-1.67,7.44-4.66,9.5-2.87,1.98-6.66,1.78-10.14,1.5,1.52-.47,2.25-2.18,2.56-3.74.63-3.23-.02-6.54-.26-9.76-.29-3.86-.53-7.55.56-11.33,1.46-5.01,5.06-9.26,9.58-11.82,4.06-2.3,9.37-3.82,14.04-2.8,1.75.38,3.66,1.99,4.98,3.17,1.41,1.26,2.57,2.82,3.35,4.55Z"/></g><g id="Arm"><path class="cls-8" d="m289.19,172.41c2.98-8.26,4.6-10.85,2.15-14.27-3.19-4.45-11.69-10.91-12.82-10.45-1.13.47-2.09,3.74-.82,6.28,1.28,2.53,5.88,9.39,4.67,13.6-1.21,4.2,6.82,4.84,6.82,4.84Z"/><path class="cls-14" d="m271.13,194.7c-2.74-4.21-6.46-9.15-4.83-14.01,1.72-5.1,3.91-8.37,4.42-10.45.51-2.08.96-3.62.5-5.38-.39-1.5-2.19-5.6-4.86-6.48-2.67-.88-5.1-3.1-4.98-4.69s.27-1.9,3.64-1.09c3.37.81,5.62,1.19,6.98,2.53,1.36,1.34,3.76,3.99,4.65,5.83-.22-2.2-.92-4.98-1.22-6.56-.33-.7-1.93-2-5.51-4.31-3.58-2.3-2.6-4.34-2.07-5.33.27-.43,2.48.13,5.32,1.59,3.04,1.57,6.74,3.73,7.5,5.47.76,1.74,2.8,7.91,2.8,7.91,0,0-.77-5.66-1.51-7.76-.17-.48-1.51-1.7-3.02-3.09-1.11-1.02-2.31-2.13-3.21-3.1-1.66-1.79-1.78-3.93-.75-5.74.32-.55,1.38.02,2.76,1,1.39.99,3.1,2.4,4.67,3.51,3.68,2.58,4.71,3.57,6.17,8.83.68,2.43,1.5,6.94,1.76,8.63.26,1.69,1.72,4.64-.91,10.76-2.64,6.12-3.73,12.4-1.8,15.44-1.44,1.88-6.77,9.63-16.5,6.49Z"/><path class="cls-8" d="m277.9,161.18c-.05-2.71-1.02-5.88-1.93-7.06-.91-1.19-3.79-2.56-3.79-2.56v.03c2.03,1.4,3.02,2.28,3.26,2.81.3,1.57,1,4.35,1.22,6.56.81,1.98,1.28,2.94,1.24.23Z"/><path class="cls-8" d="m279.19,166.19c-.03-.43-.24-.84-.51-1.17-.1-.12-.27-.11-.35.02-.12.18-.13.47-.17.69-.02.13,0,.26,0,.39,0,.22-.03.43-.05.64-.02.19-.06.38-.1.57-.03.13,0,.16-.03.29-.02.1-.06.19-.05.29,0,.14.08.24.15.36.06.11.28.26.41.19.33-.15.32-.31.46-.55.07-.12.11-.23.14-.36.05-.21.1-.43.12-.64.02-.24.02-.48,0-.71Z"/><path class="cls-8" d="m285.96,164.84c-.03-.23-.07-.46-.13-.69-.1-.35-.3-.67-.58-.91-.06-.06-.14-.12-.23-.08-.11.04-.09.13-.13.21-.06.13-.03.5,0,.66.02.1.04.19.06.29,0,0,0,.07.01.08,0,.05,0,.11.01.16,0,.1,0,.19,0,.29,0,.18,0,.36-.02.53-.03.29-.05.58.11.85.08.13.22.28.39.21.38-.16.46-.63.5-.99.02-.2.03-.41,0-.61Z"/><path class="cls-15" d="m271.13,194.7c-1.55-2.34-3.21-4.64-4.31-7.24-.54-1.3-.95-2.68-.99-4.1-.06-1.43.39-2.82.89-4.13.95-2.66,2.27-5.17,3.41-7.72.87-2.57,1.79-5.52.42-8.06-.56-1.27-1.27-2.49-2.21-3.51-.47-.5-1-.95-1.61-1.24-.6-.26-1.34-.48-1.95-.83-1.25-.68-2.43-1.57-3.21-2.82-.18-.32-.32-.67-.38-1.06-.02-.41.02-.73.08-1.11.05-.19.1-.39.25-.56.15-.17.36-.28.56-.32.4-.08.76-.03,1.12.01,1.42.23,2.76.6,4.14.91,1.36.34,2.77.65,4.03,1.42.64.39,1.11.95,1.6,1.44.49.51.96,1.04,1.42,1.57.91,1.08,1.8,2.19,2.47,3.48l-.44.12c-.24-2.19-.79-4.34-1.23-6.53l.02.06c-.32-.56-.98-1.06-1.56-1.53-.6-.47-1.23-.91-1.86-1.34l-1.92-1.27c-.65-.43-1.3-.9-1.84-1.51-1.1-1.13-1.57-3.34.12-4.5.9,0,1.61.28,2.36.53.73.27,1.45.58,2.15.92,1.39.69,2.75,1.43,4.07,2.24,1.31.83,2.63,1.68,3.68,2.91.54.65.74,1.44,1.03,2.14l.78,2.18,1.48,4.38-.43.1c-.38-2.58-.73-5.2-1.47-7.68-.22-.48-.77-.96-1.21-1.41l-1.43-1.34-2.84-2.73c-.98-.83-1.87-2.01-2.09-3.36-.12-.67-.09-1.37.1-2.03.08-.33.21-.65.36-.95.09-.15.11-.29.31-.47.2-.15.43-.14.61-.11.71.17,1.25.56,1.81.92.55.37,1.06.78,1.59,1.17l3.14,2.37c1.05.78,2.15,1.51,3.13,2.41.98.9,1.77,2.02,2.27,3.24,1.03,2.44,1.58,5.03,2.09,7.6.25,1.29.48,2.58.69,3.87.15,1.3.59,2.55.68,3.87.24,2.64-.52,5.25-1.55,7.64,1-2.41,1.72-5.02,1.45-7.63-.11-1.3-.56-2.55-.73-3.86-.23-1.29-.48-2.58-.74-3.86-.53-2.56-1.13-5.13-2.15-7.52-.5-1.2-1.26-2.27-2.22-3.14-.96-.88-2.05-1.59-3.11-2.37l-3.15-2.35c-1.05-.75-2.09-1.68-3.26-2.02-.32-.06-.38.06-.54.4-.14.29-.25.58-.33.89-.17.61-.19,1.25-.08,1.87.23,1.26,1,2.31,2.01,3.16l2.84,2.71,1.44,1.34c.24.23.47.46.7.7.22.25.47.48.62.86.77,2.56,1.12,5.15,1.52,7.75.02.12-.06.24-.19.25-.11.02-.21-.05-.25-.15h0s-1.49-4.38-1.49-4.38l-.78-2.17c-.29-.71-.49-1.46-.96-2-.96-1.12-2.27-1.97-3.56-2.78-1.31-.79-2.66-1.53-4.03-2.2-.69-.33-1.39-.63-2.1-.89-.7-.24-1.47-.5-2.12-.49-.19.05-.07-.05-.2.18-.08.16-.16.33-.22.5-.12.34-.19.68-.19,1.03.02.7.36,1.36.84,1.9.97,1.1,2.4,1.79,3.65,2.7.64.44,1.27.89,1.88,1.37.6.51,1.24.93,1.69,1.72,0,.01.01.03.02.04v.02c.43,2.17.98,4.34,1.21,6.58.01.13-.08.24-.21.26-.1.01-.19-.05-.23-.13-.62-1.22-1.5-2.33-2.39-3.39-.45-.53-.92-1.05-1.4-1.56-.49-.5-.94-1.03-1.51-1.38-1.15-.72-2.54-1.04-3.89-1.38-1.37-.31-2.74-.69-4.1-.92-.67-.1-1.43-.15-1.49.56-.06.31-.1.7-.08.99.04.31.17.62.32.92.7,1.16,1.84,2.04,3.05,2.69.62.35,1.24.53,1.93.83.66.32,1.22.79,1.71,1.32.97,1.06,1.69,2.31,2.25,3.61.27.65.53,1.33.64,2.04.12.71.09,1.44-.01,2.15-.1.71-.27,1.39-.44,2.08-.16.68-.35,1.38-.64,2.03-1.16,2.58-2.51,5.04-3.48,7.68-.51,1.31-.97,2.64-.93,4.05.02,1.4.4,2.77.93,4.07,1.07,2.6,2.7,4.92,4.22,7.28Z"/><path class="cls-14" d="m269.21,191.77c3.32,4.75,10.8,22.77,14.7,29.44,3.91,6.67,10.2,17.39,20.13,22.21s20.48,4.19,22.57-.69c2.09-4.89.06-18.88-5.76-25.08-10.57-11.27-15.52-13.74-26.4-24.79-6.28-6.38-7.72-8.51-7.53-11.98l-17.72,10.9Z"/></g><g id="Arm-2"><path class="cls-16" d="m182.36,182.03c-13.94,3.84-20.05,16.81-15.21,40.7,5.11,25.18,8.32,40.7,17.18,45.58l20.03-27.03-3.94-21.49s.19-27.15-18.07-37.76Z"/><path class="cls-8" d="m199.34,178.15c-1.81-2.38-4.2-4.45-4.47-6.99-.4-3.83-1.53-6.04-1.06-7.52.52-1.63,3.36-1.1,4.56.3l.97,14.21Z"/><path class="cls-14" d="m198.81,174.05c-.45-3.91-.45-9.15-.44-11.27.01-2.12,1.5-5.98,2.72-9.13,1.23-3.15,1.95-6.97,3.47-6.52,1.52.45,2.7,1.69,2.65,3.57s-.71,6.28-.71,6.28c0,0,2.74-5.94,3.75-8.53,1.01-2.59,1.53-4.56,3.08-4.25,1.54.31,2.22,2.03,1.74,4.64-.61,3.33-1.26,5.8-1.88,7.98s-.98,4.19-.98,4.19c0,0,2.77-5.51,3.55-7.66.78-2.15,1.68-4.85,2.65-4.6,1.38.35,2.69,2.35,2.02,5.75-1.04,5.22-2.37,9.79-2.81,12.22-.44,2.43-.83,5.36.12,5.44,0,0,.67-2.07,1.55-4.97.89-2.89,2.08-7.21,3.16-8.4,1.07-1.19,3.17-1.56,3.22,1.7.04,3.26-.64,7.11-1.61,11.8-.97,4.69-1.33,5.51-.7,7.16.63,1.66,3.65,6.19,5.01,9.22,1.61,3.59,1.83,5.2.44,9.08-1.45,4.06-3.07,10.86-3.07,10.86l-20.23-4.33s3.81-5.88,1.74-10.61c-2.71-6.21-5.26-10.07-6.76-12.82-1.57-2.88-1.36-4.13-1.67-6.82Z"/><path class="cls-15" d="m209.1,151.3c-.41,1.32-3.55,8.29-3.9,9.59-.16.66-.33,1.3-.41,1.97l-.2,2.04c-.18,1.36-.32,2.73-.53,4.09-.11.68-.23,1.37-.45,2.04-.23.68-.7,1.28-1.28,1.65,1.05-.99,1.06-2.41,1.18-3.76.09-1.37.24-2.74.36-4.1.17-1.34.27-2.78.79-4.1.48-1.32,3.74-8.22,4.43-9.42Z"/><path class="cls-15" d="m215.35,154.34c-.36,1.18-4,8.99-4.42,10.13-.2.57-.41,1.14-.48,1.69-.05.57-.08,1.2-.11,1.81-.08,1.22-.16,2.45-.28,3.67-.13,1.22-.26,2.45-.58,3.65.04-1.23-.03-2.46.01-3.68.01-1.23.06-2.45.12-3.68.05-.62.07-1.21.15-1.86.12-.67.37-1.25.63-1.81.53-1.13,4.32-8.84,4.94-9.91Z"/><path class="cls-6" d="m217.61,166.71c.04-.25.1-.53.17-.83h0c-1.11,3.01-1.82,6.24-1.96,7.68-.14,1.44.11,1.96.51,1.99s.79-1.6.79-1.6l.6-1.81c-.94-.09-.55-3.01-.11-5.44Z"/><path class="cls-15" d="m217.75,171.96c5.05-15.82.2.1-.76,3.63-.13.57-.24,1.14-.32,1.7-.06.58-.13,1.16-.25,1.75-.08-.58-.11-1.18-.12-1.77.01-.61.12-1.19.22-1.77.28-1.15.6-2.51,1.24-3.53Z"/><path class="cls-15" d="m207.23,193.69c-1.04-2.34-2.17-4.63-3.41-6.86-1.22-2.25-2.61-4.39-3.8-6.67-.58-1.15-.96-2.41-1.08-3.69l-.39-3.82c-.23-2.55-.29-5.11-.32-7.67.01-1.27-.1-2.58.2-3.85.26-1.26.66-2.49,1.08-3.7.85-2.43,1.84-4.77,2.6-7.21.21-.61.42-1.21.7-1.81.14-.29.29-.59.5-.86.19-.27.47-.55.87-.62.42-.05.72.12,1.02.24.3.14.59.31.86.52.53.41.93.99,1.15,1.63.22.64.23,1.34.17,1.97-.04.64-.11,1.28-.18,1.92-.14,1.27-.31,2.54-.49,3.81l-.39-.12,3.3-7.55c.6-1.24.96-2.56,1.57-3.83.31-.6.7-1.36,1.55-1.56.82-.12,1.57.27,2.04.87.47.61.63,1.36.68,2.06.05.72-.03,1.43-.16,2.11-.25,1.36-.53,2.71-.84,4.05-.62,2.7-1.52,5.3-1.98,7.99l-.51-.17c1.4-2.91,2.93-5.78,3.98-8.83.29-.76.57-1.53.96-2.27.2-.37.41-.74.77-1.06.18-.15.46-.3.77-.23.23.06.44.15.63.26.78.47,1.24,1.27,1.5,2.07.25.81.31,1.67.25,2.5-.48,3.27-1.34,6.37-2.1,9.53-.39,1.57-.79,3.14-1.04,4.73-.13.8-.25,1.59-.3,2.39-.03.4-.03.8,0,1.18.03.37.16.79.37.8l-.21.14,2.18-6.99c.36-1.17.72-2.34,1.14-3.49.21-.58.44-1.15.7-1.71.27-.54.57-1.14,1.09-1.55.49-.4,1.16-.7,1.85-.54.71.2,1.05.9,1.19,1.5.24,1.26.1,2.48.03,3.7-.21,2.45-.65,4.86-1.12,7.26l-.75,3.59c-.24,1.19-.56,2.38-.68,3.58-.16,1.21.38,2.34.97,3.4.58,1.07,1.2,2.12,1.81,3.18,1.21,2.12,2.43,4.26,3.24,6.57.41,1.15.64,2.39.52,3.61-.12,1.22-.5,2.4-.9,3.54.39-1.15.76-2.33.86-3.55.11-1.22-.13-2.44-.55-3.58-.83-2.3-2.06-4.42-3.3-6.52-.62-1.05-1.25-2.1-1.85-3.17-.59-1.04-1.19-2.24-1.03-3.52.12-1.24.41-2.42.65-3.62l.73-3.59c.46-2.4.89-4.8,1.09-7.23.07-1.2.19-2.45-.04-3.6-.13-.56-.43-1.11-.95-1.25-.52-.13-1.1.11-1.54.48-.46.35-.72.89-.99,1.43-.25.54-.48,1.11-.68,1.68-.41,1.14-.77,2.31-1.12,3.48l-2.15,7.01c-.03.09-.12.15-.21.14-.33-.03-.51-.31-.59-.51-.09-.22-.12-.44-.15-.65-.04-.42-.03-.84,0-1.25.05-.82.17-1.63.3-2.43.25-1.61.65-3.19,1.03-4.77.74-3.14,1.6-6.31,2.05-9.46.06-.78-.01-1.58-.24-2.31-.23-.73-.65-1.42-1.29-1.79-.15-.09-.33-.16-.49-.2-.1-.03-.22.03-.34.13-.25.22-.46.56-.64.9-.36.7-.64,1.45-.92,2.21-.51,1.53-1.17,3.06-1.86,4.51-.69,1.47-1.39,2.93-2.12,4.38-.07.13-.23.19-.36.12-.11-.06-.16-.17-.14-.29.48-2.74,1.39-5.35,2.01-8.01.32-1.33.6-2.67.85-4.02.24-1.29.33-2.76-.41-3.79-.35-.48-1.01-.79-1.57-.7-.56.1-.93.71-1.23,1.3-.59,1.21-.97,2.56-1.57,3.79l-3.34,7.56c-.05.1-.17.15-.27.11-.09-.04-.13-.13-.12-.22.19-1.26.36-2.53.51-3.79.07-.63.14-1.27.18-1.9.05-.64.05-1.24-.15-1.82-.19-.57-.55-1.08-1.03-1.46-.24-.19-.5-.35-.77-.48-.28-.12-.59-.25-.81-.21-.24.03-.47.23-.64.47-.18.23-.33.51-.46.79-.27.57-.48,1.17-.69,1.77-.76,2.44-1.77,4.81-2.62,7.21-.42,1.2-.82,2.42-1.08,3.65-.3,1.23-.19,2.51-.21,3.79.01,2.55.09,5.11.28,7.65.32,2.52.15,5.17,1.37,7.45,1.15,2.27,2.53,4.44,3.72,6.7,1.22,2.25,2.33,4.56,3.34,6.9Z"/><path class="cls-8" d="m209.75,161.79c-.11-.09-.22-.19-.35-.26-.13-.07-.26-.13-.4-.18-.33-.13-.65-.22-1-.26-.36-.05-.74-.06-1.1,0-.16.02-.31.05-.46.1-.13.04-.23.14-.15.29.08.13.24.19.38.17-.05,0,0,0,.02,0,.05,0,.1,0,.15-.01.09,0,.18,0,.27,0,.11,0,.21,0,.32,0,.24.01.47.05.7.11.1.03.21.06.31.09.05.02.11.04.16.05,0,0,0,0,0,0,0,0,0,0,0,0,.03.01.06.02.09.04.25.11.5.23.77.31.06.03.12.06.18.09.21.1.48-.05.29-.28-.07-.09-.11-.18-.2-.25Z"/><path class="cls-8" d="m208.11,162.81c-.07-.04-.15-.05-.22-.07-.05-.01-.09-.02-.14-.03-.05,0-.11-.02-.16-.02-.12-.02-.2-.04-.31-.07-.21-.05-.43-.11-.64-.19-.09-.03-.22-.04-.25.07-.03.11.08.22.17.26.24.11.48.2.73.27.14.04.29.07.43.09.09.02.18.02.28.02.06,0,.15,0,.2-.03.12-.09.01-.24-.09-.3Z"/><path class="cls-8" d="m201.69,161.83c-.04-.05-.09-.09-.15-.13-.09-.09-.23-.14-.35-.18-.13-.04-.28-.07-.42-.09-.24-.03-.49-.04-.73-.03-.27.02-.54.07-.79.16-.11.04-.24.08-.32.17-.08.08-.04.2.03.28.1.11.27.15.4.09.08-.03.22-.05.32-.07.09-.02.19-.04.28-.05.11-.01.22-.02.33-.02.03,0,.05,0,.08,0,0,0,0,0,0,0,.05,0,.11,0,.16.01.09.01.22.01.3.05,0,0,0,0,.01,0,.05.01.1.02.14.03.07.01.16.05.22.06.03,0,.07,0,.1,0-.04-.01-.05-.01-.02,0,.06.04.16.03.23.03-.04,0,.15,0,.18,0,.07-.01.1-.07.09-.13,0-.04-.03-.07-.05-.1,0,0,.02,0,.01-.02,0-.03-.02-.05-.04-.08Z"/><path class="cls-8" d="m201.13,162.96c-.07-.1-.27-.06-.38-.05-.06,0-.12,0-.18.02-.1.02-.19.04-.29.05-.08.02-.16.03-.24.05-.04.01-.08.02-.12.03-.06.01-.13.03-.18.05-.03.02-.07.04-.1.06-.07.04-.06.13-.03.19.05.08.13.14.22.14.26.02.52-.03.77-.07.09-.02.19-.03.28-.05.04-.01.08-.02.12-.03.02,0,.05-.01.07-.02.08-.02.12-.04.17-.1.03-.03.02-.11,0-.14,0-.02-.02-.03-.03-.05-.02-.03-.06-.06-.09-.09Z"/><path class="cls-8" d="m214.19,165.47c-.54.03-1.07.06-1.6-.05-.56-.12-1.06-.41-1.61-.55-.11-.03-.14.08-.11.16.14.34.51.53.84.67.29.12.6.22.91.28.6.12,1.24.14,1.83-.03.13-.04.18-.18.12-.29-.07-.13-.24-.2-.38-.19Z"/><path class="cls-8" d="m212.87,167.09c-.07-.01-.14-.02-.22-.04-.18-.03-.37-.07-.55-.11-.27-.05-.53-.12-.8-.2-.1-.03-.26-.01-.28.12-.02.14.12.23.23.28.31.12.63.25.95.33.14.04.28.07.42.09.07.01.15.03.22.04.06.01.12.02.17.03.1,0,.2-.02.29-.05.15-.04.09-.22.01-.29-.18-.17-.27-.17-.46-.2Z"/><path class="cls-8" d="m221.72,171.72c-.28-.13-.58-.23-.88-.3-.33-.07-.66-.11-1-.1-.15,0-.31,0-.45.06-.23.08-.1.34.1.38.15.03.3.03.45.04.13,0,.26.03.39.04.05,0,.11.01.16.02.05,0,0,0,.04,0,.02,0,.05,0,.07.01.11.02.22.05.33.09.05.02.1.03.16.05,0,0,.07.02.04.01-.03-.01.05.02.06.02.1.04.2.09.3.13.25.13.43.27.74.35.11.03.32,0,.27-.17-.1-.35-.47-.51-.78-.65Z"/><path class="cls-8" d="m221.08,172.82c-.14-.09-.24-.1-.38-.12-.05,0-.11-.01-.16-.02-.12-.01-.23-.02-.35-.03-.22-.01-.44-.02-.66-.03-.05,0-.11,0-.16.04-.04.03-.06.09-.05.14.03.12.15.23.28.24.23.02.46.04.69.06.11,0,.22.02.33.02.05,0,.1,0,.15,0,.07,0,.14,0,.21,0,.06,0,.1-.01.15-.04.11-.06.03-.22-.04-.27Z"/><path class="cls-14" d="m227.73,201.08c-4.4,13.8-4.65,35.59-13.89,51.98-7.71,13.7-26.16,21.95-29.51,15.25-.65-1.3-6.68-10.17-.71-22.81,5.43-11.5,17.09-32.12,21.86-41.22"/></g></g><path class="cls-5" d="m222.43,136.65s0,.04-.01.07c-.11.76.13,1.63.87,1.98.44.21,1,.22,1.36-.11.71-.65.54-1.74.3-2.57-.3-1.05-.84-1.96-1.26-2.95-.01-.03-.03-.06-.05-.08-.05-.05-.14-.02-.19.04-.05.06-.06.13-.07.2-.12.69-.29,1.36-.52,2.02-.16.46-.35.92-.43,1.4Z"/></g><g id="Lines" class="cls-7"><path class="cls-9" d="m168.56,268.06c-1.96-.36-3.92-.84-5.87-1.39,1.35-2.09,2.82-4.08,4.44-5.95.25-.29-.16-.77-.47-.89-1.09-.42-2.18-.85-3.28-1.27-.52-.2-1.05-.41-1.57-.61-.26-.1-.52-.2-.79-.31-.13-.05-.26-.1-.39-.15-.19-.08-.21-.09-.06-.04.13.07.22.02.25-.15.08-.09.16-.18.24-.27.19-.21.38-.42.56-.63.32-.36.64-.72.96-1.08.64-.72,1.29-1.44,1.93-2.17.48-.54,1.16-1.23.59-2.14-.41-.65-1.15-.9-1.8-1.08-1.89-.55-3.73-1.24-5.53-2.15.66-.74,4.25-4.86,4.7-5.42.05-.06.06-.14.05-.22.04-.28-.27-.62-.53-.73-1.09-.42-2.18-.85-3.27-1.27-.52-.2-1.05-.41-1.57-.61-.26-.1-.52-.2-.79-.31-.13-.05-.26-.1-.39-.15-.19-.08-.21-.09-.06-.04.13.07.22.02.25-.15.08-.09.16-.18.24-.27.19-.21.38-.42.56-.63.32-.36.64-.72.97-1.08l1.93-2.17c.48-.54,1.16-1.23.59-2.14-.4-.65-1.15-.9-1.8-1.08-1.89-.55-3.73-1.24-5.53-2.15,1.6-1.78,3.2-3.56,4.7-5.42.28-.35-.45-1.04-.77-.72-1.87,1.87-3.64,3.84-5.42,5.8-.25.28.09.7.39.86,1.92,1.06,3.91,1.9,5.95,2.5.28.08,1.05.17,1.29.41.38.38-.35.95-.54,1.17-.67.75-1.35,1.51-2.02,2.26-.62.7-1.41,1.36-1.92,2.16-.39.61.03,1.23.71,1.6.94.51,2.02.81,3,1.19.79.31,1.58.62,2.37.93-.67.8-3.69,4.39-4.58,5.36-.25.28.09.7.39.86,1.92,1.06,3.91,1.9,5.95,2.5.28.08,1.05.17,1.29.41.38.38-.35.95-.54,1.17-.67.75-1.35,1.51-2.02,2.26-.62.7-1.41,1.37-1.92,2.16-.39.61.03,1.23.71,1.6.94.51,2.02.81,3,1.19.79.31,1.58.62,2.37.93-1.62,1.91-3.12,3.93-4.46,6.06-.19.31.12.79.49.9,2.37.71,4.75,1.29,7.14,1.72.86.15.67-.97-.11-1.11Z"/><path class="cls-9" d="m349.1,315.78c-1.85.78-3.77,1.47-5.73,2.09-.07-2.45,0-4.89.29-7.3.04-.38-.58-.54-.91-.47-1.16.25-2.32.51-3.48.76-.56.12-1.11.24-1.67.36-.28.06-.56.12-.84.18-.14.03-.28.06-.42.09-.2.04-.23.04-.08,0,.15-.02.19-.1.12-.26.02-.12.03-.24.05-.35.04-.28.07-.55.11-.83.06-.47.12-.94.18-1.42.12-.94.24-1.89.37-2.83.09-.71.26-1.65-.74-2.08-.71-.31-1.48-.1-2.14.1-1.9.59-3.84,1.03-5.88,1.29.13-.97.76-6.31.81-7.02,0-.08-.03-.15-.08-.21-.13-.25-.58-.36-.86-.3-1.16.25-2.32.51-3.48.76-.56.12-1.11.24-1.67.36-.28.06-.56.12-.84.18-.14.03-.28.06-.42.09-.2.04-.23.04-.08,0,.15-.02.19-.1.12-.26.02-.12.03-.24.05-.35.04-.28.07-.55.11-.83.06-.47.12-.94.18-1.42l.37-2.83c.09-.71.26-1.65-.74-2.08-.71-.31-1.48-.1-2.13.1-1.9.59-3.84,1.03-5.88,1.29.31-2.34.63-4.67.81-7.02.03-.44-.98-.6-1.06-.17-.49,2.56-.84,5.14-1.2,7.72-.05.36.48.52.82.49,2.22-.19,4.38-.6,6.43-1.22.28-.09.98-.44,1.31-.38.54.1.26.97.22,1.25-.13.99-.26,1.97-.39,2.96-.12.91-.4,1.89-.36,2.82.03.72.73.99,1.52.91,1.08-.1,2.17-.45,3.2-.68.84-.18,1.68-.36,2.52-.55-.1,1.02-.56,5.62-.74,6.9-.05.36.48.52.82.49,2.22-.19,4.38-.6,6.43-1.22.28-.09.98-.44,1.31-.38.54.1.26.97.22,1.25-.13.99-.26,1.97-.39,2.96-.12.91-.4,1.89-.36,2.82.03.72.73.99,1.52.91,1.08-.1,2.17-.45,3.2-.68.84-.18,1.68-.36,2.52-.55-.25,2.45-.35,4.93-.24,7.41.01.36.56.58.93.46,2.4-.72,4.73-1.56,6.98-2.52.81-.34,0-1.16-.74-.85Z"/><path class="cls-5" d="m246.41,58.73c-1.32.44-2.55,1.39-3.73,2.12-.55.34-1.15.65-1.67,1.03-.31.23-.53.52-.41.92.16.53.83.96,1.22,1.31.33.3,1.42.99,1.24,1.5-.12.36-1.08.77-1.38.96-.59.38-1.19.76-1.78,1.14-.67.43-2.08,1.03-1.89,2.07.09.5.58.88.9,1.24.43.47.95.92,1.32,1.44.29.4.27.57-.03.93-.21.25-.53.46-.78.67-.49.42-.97.84-1.46,1.26s-.97.84-1.46,1.26c-.54.47-1.22.95-1.6,1.55-.27.43.38.82.74.64,1.2-.6,2.25-1.78,3.27-2.66.56-.48,1.11-.96,1.67-1.44.37-.31.8-.62,1.03-1.06.55-1.08-.62-2.03-1.27-2.73-.18-.2-.36-.39-.54-.59-.12-.13-.24-.26-.36-.39-.19-.2-.18-.36.03-.49.16-.28.74-.5,1.02-.68.28-.18.55-.36.83-.53.59-.38,1.18-.76,1.78-1.14.38-.24.84-.47,1.09-.87.61-.97-.45-1.84-1.08-2.42-.16-.15-1.26-.94-1.24-1.09.01-.12.79-.51.91-.59.3-.2.61-.39.91-.59.53-.34,1.07-.68,1.6-1.03.53-.35,1.16-.71,1.56-1.2.18-.22-.17-.65-.42-.57Zm-18.4,9.33c-.25-.1-.5-.19-.75-.29-.17-.06-.33-.13-.5-.19-.26-.1-.32-.25-.19-.45.02-.32.44-.78.62-1.06.17-.28.34-.56.51-.84.37-.6.73-1.2,1.1-1.8.23-.38.55-.79.6-1.26.13-1.14-1.21-1.46-2.03-1.7-.21-.06-1.55-.3-1.6-.44-.04-.11.49-.8.57-.93.19-.31.38-.62.57-.93.33-.54.67-1.08.99-1.62.32-.54.74-1.14.88-1.76.06-.28-.44-.51-.63-.32-1,.97-1.69,2.36-2.43,3.54-.35.55-.75,1.09-1.05,1.66-.18.34-.25.7.04,1.01.38.41,1.17.5,1.67.65.42.13,1.71.27,1.77.81.05.38-.63,1.16-.82,1.47-.37.6-.74,1.21-1.11,1.81-.42.68-1.42,1.84-.79,2.68.3.41.9.54,1.35.72.6.23,1.25.42,1.82.72.44.24.49.4.38.86-.08.32-.27.64-.4.94-.25.59-.51,1.18-.76,1.77-.25.59-.51,1.18-.76,1.77-.28.65-.69,1.39-.76,2.1-.06.51.7.58.95.26.82-1.07,1.25-2.59,1.78-3.82.29-.68.58-1.35.87-2.03.19-.44.45-.91.46-1.4.03-1.21-1.45-1.56-2.33-1.9Zm-9.59,4.25c-.09-.47-.13-1.01-.4-1.42-.65-1.02-2.07-.49-3-.28-.26.06-.52.12-.78.17-.17.04-.35.08-.52.12-.27.06-.41-.03-.41-.27-.16-.28-.06-.89-.08-1.22-.01-.33-.03-.66-.04-.98-.03-.7-.06-1.41-.09-2.11-.02-.45.02-.97-.2-1.38-.53-1.01-1.82-.54-2.63-.28-.21.07-1.45.61-1.57.52-.1-.07-.04-.94-.05-1.08-.02-.36-.03-.72-.05-1.08-.03-.63-.04-1.27-.08-1.9-.04-.63-.02-1.36-.25-1.95-.1-.27-.65-.18-.7.08-.29,1.36-.09,2.9-.05,4.29.02.65-.02,1.32.05,1.97.04.38.18.72.59.82.54.13,1.25-.24,1.75-.39.42-.13,1.57-.73,1.92-.32.25.29.12,1.32.14,1.68.03.71.06,1.41.09,2.12.03.8-.16,2.32.84,2.67.48.17,1.05-.05,1.52-.16.62-.14,1.27-.35,1.91-.41.5-.05.63.05.79.5.11.31.13.68.19,1.01.12.63.24,1.26.35,1.9.12.63.24,1.26.35,1.9.13.7.21,1.54.54,2.17.24.45.9.09.93-.32.09-1.34-.41-2.84-.65-4.17-.13-.72-.27-1.45-.4-2.17Z"/></g></svg>