<?xml version="1.0" encoding="UTF-8"?><svg id="Camada_2" xmlns="http://www.w3.org/2000/svg" viewBox="0 0 241.56 81.36"><defs><style>.cls-1{fill:#0066b3;}</style></defs><path class="cls-1" d="m225.16,14v-2.14h16.4V0H0v11.85h16.41v2.14H0v11.52h16.41v2.14H0v11.88h16.41v2.14H0v12.08h16.41v2.14H0v11.57h16.41v2.14H0v11.75h241.56v-11.75h-16.4v-2.14h16.4v-11.57h-16.4v-2.14h16.4v-12.08h-16.4v-2.14h16.4v-11.88h-16.4v-2.14h16.4v-11.52h-16.4Zm-147.74,14.76h-16.02c.55-2.24.19-3.93-1-5.13-1.11-1.2-3.06-1.84-5.78-1.84-3.69,0-7.4,2.4-8.01,5.29-.89,4.25,3.94,5.61,7.94,6.73,9.17,2.48,23.06,3.44,19.75,19.07-2.59,12.18-15.84,17.96-29.22,17.96s-24.49-3.94-21.39-19.64h16.02c-1.23,5.45,2.14,8.41,7.9,8.41,3.7,0,8.83-1.92,9.64-5.77,1.67-7.85-10.55-6.17-21.95-11.7-5.3-2.56-7.05-7.85-5.73-14.1,3.55-13.7,16.37-17.47,28.47-17.47s23.29,4.25,19.38,18.19Zm51.47,6.17l-2.38,11.22h-25.8l-2.6,12.26h28.04l-2.39,11.22h-44.06l12.3-57.84h44.06l-.81,3.8-1.58,7.41h-28.04l-2.54,11.94h25.8Zm59.81-6.17h-16.02c.55-2.24.19-3.93-1-5.13-1.11-1.2-3.06-1.84-5.78-1.84-3.69,0-7.4,2.4-8.01,5.29-.89,4.25,3.94,5.61,7.94,6.73,9.17,2.48,23.06,3.44,19.75,19.07-2.59,12.18-15.84,17.96-29.22,17.96-9.91,0-18.5-2.14-21.11-9.53-.93-2.65-1.1-5.97-.28-10.11h16.02c-1.23,5.45,2.14,8.41,7.91,8.41,3.7,0,8.83-1.92,9.64-5.77,1.67-7.85-10.55-6.17-21.95-11.7-5.3-2.56-7.05-7.85-5.73-14.1,3.55-13.7,16.37-17.47,28.47-17.47s23.29,4.25,19.37,18.19Zm18.15,40.86h-16.02l12.3-57.84h16.02l-12.3,57.84Z"/></svg>