<?xml version="1.0" encoding="UTF-8"?><svg id="Camada_2" xmlns="http://www.w3.org/2000/svg" viewBox="0 0 241.56 81.36"><defs><style>.cls-1{fill:#fff;}</style></defs><path class="cls-1" d="m241.56,11.85V0H0v11.85h16.41v2.14H0v11.53h16.41v2.14H0v11.89h16.41v2.14H0v12.08h16.41v2.14H0v11.56h16.41v2.15H0v11.74h241.56v-11.74h-16.4v-2.15h16.4v-11.56h-16.4v-2.14h16.4v-12.08h-16.4v-2.14h16.4v-11.89h-16.4v-2.14h16.4v-11.53h-16.4v-2.14h16.4ZM77.42,28.75h-16.03c.55-2.24.19-3.92-1-5.12-1.11-1.21-3.06-1.85-5.78-1.85-3.68,0-7.4,2.41-8.01,5.29-.9,4.25,3.94,5.61,7.94,6.73,9.18,2.48,23.06,3.45,19.75,19.07-2.59,12.18-15.83,17.96-29.21,17.96s-24.49-3.94-21.39-19.64h16.02c-1.23,5.44,2.14,8.41,7.9,8.41,3.7,0,8.83-1.92,9.64-5.77,1.67-7.85-10.54-6.17-21.95-11.7-5.3-2.56-7.05-7.85-5.73-14.1,3.56-13.7,16.37-17.46,28.47-17.46s23.29,4.24,19.38,18.18Zm51.47,6.17l-2.38,11.22h-25.79l-2.61,12.26h28.04l-2.39,11.21h-44.06l12.3-57.84h44.06l-.81,3.8-1.58,7.41h-28.04l-2.54,11.94h25.8Zm59.81-6.17h-16.03c.55-2.24.19-3.92-1-5.12-1.11-1.21-3.06-1.85-5.78-1.85-3.68,0-7.4,2.41-8.01,5.29-.89,4.25,3.94,5.61,7.94,6.73,9.18,2.48,23.06,3.45,19.75,19.07-2.59,12.18-15.83,17.96-29.21,17.96-9.91,0-18.5-2.14-21.11-9.53-.93-2.65-1.1-5.97-.28-10.11h16.02c-1.23,5.44,2.14,8.41,7.9,8.41,3.7,0,8.83-1.92,9.64-5.77,1.67-7.85-10.54-6.17-21.95-11.7-5.3-2.56-7.05-7.85-5.72-14.1,3.55-13.7,16.37-17.46,28.46-17.46s23.29,4.24,19.38,18.18Zm18.14,40.86h-16.02l12.3-57.84h16.02l-12.3,57.84Z"/></svg>